G04 Layer_Color=8421504*
%FSLAX25Y25*%
%MOIN*%
G70*
G01*
G75*
%ADD10R,0.09842X0.09842*%
%ADD11R,0.05118X0.06693*%
%ADD12R,0.14961X0.10787*%
%ADD13R,0.02362X0.06102*%
%ADD14R,0.14370X0.13780*%
%ADD20R,0.05905X0.05118*%
%ADD21R,0.06693X0.05118*%
%ADD22R,0.07283X0.04921*%
%ADD23R,0.03937X0.05905*%
%ADD24R,0.02756X0.05905*%
%ADD25R,0.04331X0.05512*%
%ADD26R,0.05118X0.05905*%
%ADD27R,0.06693X0.04331*%
%ADD28R,0.05512X0.04331*%
%ADD29R,0.09842X0.09842*%
%ADD30R,0.05905X0.02362*%
%ADD31R,0.05905X0.07205*%
%ADD32R,0.07874X0.01968*%
%ADD33R,0.10787X0.14961*%
%ADD34R,0.06102X0.02362*%
%ADD35R,0.09449X0.14961*%
G36*
X588665Y464248D02*
X589945Y462968D01*
Y453323D01*
X583252D01*
Y462968D01*
X584531Y464248D01*
Y471433D01*
X588665D01*
X588665Y464248D01*
D02*
G37*
D10*
X507500Y720500D02*
D03*
X529500D02*
D03*
D11*
X515500Y703500D02*
D03*
X523500D02*
D03*
X667500Y328500D02*
D03*
X659500D02*
D03*
D12*
X516772Y764091D02*
D03*
D13*
X509390Y774720D02*
D03*
X514409D02*
D03*
X519429D02*
D03*
X524449D02*
D03*
Y753461D02*
D03*
X519429D02*
D03*
X514409D02*
D03*
X509390D02*
D03*
D14*
X381594Y527500D02*
D03*
X343406D02*
D03*
D20*
X626500Y284240D02*
D03*
Y276760D02*
D03*
X615500Y284240D02*
D03*
Y276760D02*
D03*
X606000Y431740D02*
D03*
Y424260D02*
D03*
X558500Y467260D02*
D03*
Y474740D02*
D03*
D21*
X616500Y267000D02*
D03*
Y259000D02*
D03*
X676000Y363000D02*
D03*
Y371000D02*
D03*
X581500Y370000D02*
D03*
Y362000D02*
D03*
X531500Y292000D02*
D03*
Y284000D02*
D03*
X514500Y430500D02*
D03*
Y422500D02*
D03*
X582000Y350000D02*
D03*
Y342000D02*
D03*
X534500Y375500D02*
D03*
Y383500D02*
D03*
X637500Y371000D02*
D03*
Y363000D02*
D03*
D22*
X681000Y328610D02*
D03*
Y317390D02*
D03*
X533000Y347610D02*
D03*
Y336390D02*
D03*
D23*
X586992Y457063D02*
D03*
X580693Y468480D02*
D03*
X592504D02*
D03*
D24*
X580693Y456276D02*
D03*
X592504D02*
D03*
D25*
X593953Y481000D02*
D03*
X588047D02*
D03*
D26*
X606240Y293500D02*
D03*
X598760D02*
D03*
D27*
X670500Y415815D02*
D03*
Y405185D02*
D03*
X686500Y414315D02*
D03*
Y403685D02*
D03*
X607000Y476815D02*
D03*
Y466185D02*
D03*
D28*
X667000Y458953D02*
D03*
Y453047D02*
D03*
X680000Y458453D02*
D03*
Y452547D02*
D03*
D29*
X515000Y276500D02*
D03*
Y298500D02*
D03*
X499000Y415000D02*
D03*
Y437000D02*
D03*
D30*
X651268Y341319D02*
D03*
Y347500D02*
D03*
Y353681D02*
D03*
X560232Y364681D02*
D03*
Y358500D02*
D03*
Y352319D02*
D03*
D31*
X668000Y347500D02*
D03*
X543500Y358500D02*
D03*
D32*
X622205Y373500D02*
D03*
Y368500D02*
D03*
Y363500D02*
D03*
Y358500D02*
D03*
X597795D02*
D03*
Y363500D02*
D03*
Y368500D02*
D03*
Y373500D02*
D03*
D33*
X547409Y428311D02*
D03*
X568500Y290000D02*
D03*
D34*
X536779Y435693D02*
D03*
Y430673D02*
D03*
Y425654D02*
D03*
Y420634D02*
D03*
X558039D02*
D03*
Y425654D02*
D03*
Y430673D02*
D03*
Y435693D02*
D03*
X579130Y297382D02*
D03*
Y292362D02*
D03*
Y287343D02*
D03*
Y282323D02*
D03*
X557870D02*
D03*
Y287343D02*
D03*
Y292362D02*
D03*
Y297382D02*
D03*
D35*
X330634Y144500D02*
D03*
X297366D02*
D03*
M02*
