G04 Layer_Physical_Order=1*
G04 Layer_Color=255*
%FSLAX25Y25*%
%MOIN*%
G70*
G01*
G75*
%ADD10R,0.09842X0.09842*%
%ADD11R,0.05118X0.06693*%
%ADD12R,0.14961X0.10787*%
%ADD13R,0.02362X0.06102*%
%ADD14R,0.14370X0.13780*%
%ADD15C,0.10000*%
%ADD16C,0.03000*%
%ADD17C,0.02000*%
%ADD18C,0.05000*%
%ADD19C,0.01000*%
%ADD20R,0.05905X0.05118*%
%ADD21R,0.06693X0.05118*%
%ADD22R,0.07283X0.04921*%
%ADD23R,0.03937X0.05905*%
%ADD24R,0.02756X0.05905*%
%ADD25R,0.04331X0.05512*%
%ADD26R,0.05118X0.05905*%
%ADD27R,0.06693X0.04331*%
%ADD28R,0.05512X0.04331*%
%ADD29R,0.09842X0.09842*%
%ADD30R,0.05905X0.02362*%
%ADD31R,0.05905X0.07205*%
%ADD32R,0.07874X0.01968*%
%ADD33R,0.10787X0.14961*%
%ADD34R,0.06102X0.02362*%
%ADD35R,0.09449X0.14961*%
%ADD36C,0.04000*%
%ADD37C,0.20000*%
%ADD38C,0.19685*%
%ADD39C,0.07087*%
%ADD40R,0.05905X0.05905*%
%ADD41C,0.05905*%
%ADD42R,0.35433X0.35433*%
%ADD43R,0.47244X0.47244*%
%ADD44C,0.05000*%
%ADD45C,0.09842*%
%ADD46C,0.13780*%
%ADD47R,0.05905X0.05905*%
G36*
X329000Y727500D02*
X283000Y681500D01*
X202000D01*
Y834752D01*
X202481Y834888D01*
X202610Y834678D01*
X203793Y833293D01*
X205178Y832110D01*
X206731Y831158D01*
X208413Y830461D01*
X210184Y830036D01*
X212000Y829893D01*
X213816Y830036D01*
X215587Y830461D01*
X217269Y831158D01*
X218822Y832110D01*
X220207Y833293D01*
X221390Y834678D01*
X222342Y836231D01*
X223039Y837913D01*
X223464Y839684D01*
X223607Y841500D01*
X223464Y843316D01*
X223039Y845087D01*
X222453Y846500D01*
X222764Y847000D01*
X329000D01*
X329000Y727500D01*
D02*
G37*
G36*
X512000Y775422D02*
X511861Y774720D01*
X512000Y774019D01*
Y770484D01*
X508291D01*
Y757697D01*
X512000D01*
Y754162D01*
X511861Y753461D01*
Y745591D01*
X512000Y744889D01*
Y740500D01*
X513000D01*
X519000Y734500D01*
Y697000D01*
X500000D01*
Y782500D01*
X512000D01*
Y775422D01*
D02*
G37*
G36*
X580000Y527919D02*
X579564Y527674D01*
X578598Y528266D01*
X576926Y528959D01*
X575165Y529382D01*
X573361Y529524D01*
X571556Y529382D01*
X569796Y528959D01*
X568124Y528266D01*
X566580Y527321D01*
X565204Y526145D01*
X564028Y524768D01*
X563083Y523225D01*
X562390Y521553D01*
X561967Y519793D01*
X561866Y518500D01*
X374500D01*
X374500Y537840D01*
X433379Y579284D01*
X437295D01*
Y582040D01*
X506142Y630500D01*
X580000Y630500D01*
Y527919D01*
D02*
G37*
G36*
X349500Y594500D02*
Y518880D01*
X226126Y518035D01*
X225847Y518450D01*
X226039Y518913D01*
X226464Y520684D01*
X226607Y522500D01*
X226464Y524316D01*
X226039Y526087D01*
X225342Y527769D01*
X224390Y529322D01*
X223207Y530707D01*
X221822Y531890D01*
X220269Y532842D01*
X218587Y533539D01*
X216816Y533964D01*
X215000Y534107D01*
X213184Y533964D01*
X211413Y533539D01*
X209731Y532842D01*
X208178Y531890D01*
X206793Y530707D01*
X205610Y529322D01*
X204658Y527769D01*
X204000Y526180D01*
X203500Y526279D01*
X203500Y649000D01*
X295000D01*
X349500Y594500D01*
D02*
G37*
G36*
X588665Y464248D02*
X589945Y462968D01*
Y453323D01*
X583252D01*
Y462968D01*
X584531Y464248D01*
Y471433D01*
X588665D01*
X588665Y464248D01*
D02*
G37*
G36*
X708000Y464500D02*
Y450000D01*
X694500D01*
X688500Y456000D01*
X670756D01*
Y456213D01*
X663244D01*
Y456000D01*
X592229D01*
X591897Y456374D01*
X592500Y461500D01*
X602000Y471000D01*
X701500D01*
X708000Y464500D01*
D02*
G37*
G36*
X565000Y433549D02*
X558366D01*
X557391Y433355D01*
X556859Y433000D01*
X554500D01*
Y435750D01*
X553803Y436098D01*
Y436791D01*
X541016D01*
Y436500D01*
X541000D01*
Y434500D01*
X539500Y433000D01*
X537797D01*
X537755Y433028D01*
X536779Y433222D01*
X526673D01*
X525698Y433028D01*
X525656Y433000D01*
X522000D01*
Y432000D01*
X516488Y426488D01*
X492500D01*
X492010Y444142D01*
X492359Y444500D01*
X565000D01*
Y433549D01*
D02*
G37*
G36*
X709000Y393000D02*
Y383000D01*
Y381500D01*
X696500D01*
X696500Y388500D01*
X686500Y398500D01*
X653000D01*
X652500Y399000D01*
Y408000D01*
X694000Y408000D01*
X709000Y393000D01*
D02*
G37*
G36*
X681500Y387000D02*
X681500Y368000D01*
X666500D01*
X656000Y357500D01*
Y353000D01*
X648865Y352524D01*
X648500Y352866D01*
Y355764D01*
X648520Y355862D01*
Y371000D01*
X648500Y371098D01*
Y387000D01*
X649951Y388451D01*
X680049D01*
X681500Y387000D01*
D02*
G37*
G36*
X608538Y383538D02*
X608500Y383500D01*
Y371000D01*
X608191D01*
X608500Y370694D01*
Y328000D01*
X524000Y328000D01*
Y340000D01*
X593000Y343500D01*
X602000Y352500D01*
Y356516D01*
X602732D01*
Y360484D01*
X602000D01*
Y361516D01*
X602732D01*
Y365484D01*
X602000D01*
Y366516D01*
X602732D01*
Y370484D01*
X602946Y370896D01*
X603014Y371000D01*
X598041D01*
X597795Y371049D01*
X593451D01*
X592500Y372000D01*
X590230D01*
X590000Y372030D01*
X589771Y372000D01*
X585000Y372000D01*
X585000Y366500D01*
X584050Y366500D01*
X578396Y365559D01*
X577153D01*
Y365352D01*
X551495Y361082D01*
X550972Y361392D01*
X550500Y368000D01*
X566500Y384000D01*
X608347D01*
X608538Y383538D01*
D02*
G37*
G36*
X583000Y302000D02*
Y295000D01*
X576000D01*
X574894Y296106D01*
Y298480D01*
X572520D01*
X572500Y298500D01*
Y300500D01*
X564500D01*
X562228Y298480D01*
X562106D01*
Y298372D01*
X560000Y296500D01*
X545500D01*
X536346Y287347D01*
X535847Y287554D01*
Y287559D01*
X527153D01*
Y287000D01*
X505000D01*
Y306000D01*
X557500D01*
X559500Y304000D01*
X562000Y306500D01*
X578500D01*
X583000Y302000D01*
D02*
G37*
G36*
X647500Y371000D02*
Y370900D01*
Y355963D01*
Y355862D01*
X647315D01*
Y351500D01*
X647500D01*
Y349681D01*
X647315D01*
Y345319D01*
X647500D01*
Y344000D01*
X653500D01*
X657500Y340000D01*
Y334000D01*
X661000D01*
X663941Y331059D01*
Y324153D01*
X664000D01*
Y323000D01*
X675500D01*
X676500Y322000D01*
X692000D01*
X708000Y306000D01*
X708000Y302500D01*
X676500D01*
X642000Y337000D01*
Y367000D01*
X636000D01*
X629500Y373500D01*
X627000Y373500D01*
X626000Y372500D01*
X614500Y372500D01*
X614500Y378500D01*
X620000Y384000D01*
X634500D01*
X647500Y371000D01*
D02*
G37*
G36*
X282500Y276000D02*
X244187D01*
X192000Y207557D01*
Y166000D01*
X125500D01*
Y240500D01*
X187475D01*
X205000Y258939D01*
Y301500D01*
X210000Y306500D01*
X282500D01*
Y276000D01*
D02*
G37*
G36*
X276000Y207000D02*
Y196198D01*
X275714Y195731D01*
X275088Y194220D01*
X274706Y192630D01*
X274578Y191000D01*
X274706Y189370D01*
X275088Y187779D01*
X275714Y186269D01*
X276000Y185802D01*
Y178500D01*
X296000Y158500D01*
X312500D01*
Y113000D01*
X310500Y111000D01*
X123940D01*
Y156000D01*
X246500D01*
Y177000D01*
X254000Y184500D01*
Y207000D01*
X276000Y207000D01*
D02*
G37*
D10*
X507500Y720500D02*
D03*
X529500D02*
D03*
D11*
X515500Y703500D02*
D03*
X523500D02*
D03*
X667500Y328500D02*
D03*
X659500D02*
D03*
D12*
X516772Y764091D02*
D03*
D13*
X509390Y774720D02*
D03*
X514409D02*
D03*
X519429D02*
D03*
X524449D02*
D03*
Y753461D02*
D03*
X519429D02*
D03*
X514409D02*
D03*
X509390D02*
D03*
D14*
X381594Y527500D02*
D03*
X343406D02*
D03*
D15*
X241000Y708925D02*
X316000Y783925D01*
X570000Y614500D02*
X531000D01*
X316000Y798500D02*
Y837500D01*
Y783925D02*
Y798500D01*
X343406Y527500D02*
X319000D01*
X246000Y600500D01*
X444000Y527500D02*
X381594D01*
X444000D02*
X531000Y614500D01*
X243150Y191000D02*
Y218150D01*
X251150Y226150D01*
Y263350D01*
X180500Y225000D02*
X243000Y287500D01*
X267500D01*
X272213Y282787D01*
Y263500D02*
Y282787D01*
D16*
X510000Y709000D02*
Y752850D01*
X525000Y804500D02*
X511500D01*
X502500Y795500D02*
X511500Y804500D01*
X502500Y767831D02*
Y795500D01*
X561000Y804500D02*
X525000D01*
X533000Y812500D01*
Y818500D01*
X524449Y774000D02*
X523429D01*
X551000D02*
X524449D01*
X529000Y721000D02*
X532000Y724000D01*
X457000Y617000D02*
X523500Y683500D01*
X416079Y600500D02*
X432579Y617000D01*
X457000D02*
X432579D01*
X523500Y683500D02*
Y703500D01*
X532000Y724000D02*
Y737500D01*
X533000Y738500D02*
X539500Y745000D01*
X525000Y739000D02*
X521000D01*
X514409Y745591D01*
X507539Y753461D02*
X502500Y758500D01*
X509390Y753461D02*
X507539D01*
X515500Y703500D02*
X510000Y709000D01*
X502500Y767831D02*
X509390Y774720D01*
X502500Y758500D02*
Y767831D01*
X514409Y745591D02*
Y753461D01*
X533000Y818500D02*
X524500Y827000D01*
X490000D01*
X524449Y753461D02*
X519429D01*
Y761433D01*
X517091Y763772D01*
X533000Y738500D02*
Y744909D01*
X524449Y753461D01*
X532000Y737500D02*
X533000Y738500D01*
X571000Y794000D02*
Y804500D01*
X551000Y774000D02*
X571000Y794000D01*
X523429Y770953D02*
Y774000D01*
X521646Y769169D02*
X523429Y770953D01*
X524449Y774000D02*
Y774720D01*
X516772Y764091D02*
X521748Y769067D01*
X517000Y775721D02*
Y791000D01*
X519429Y774720D02*
X514409D01*
X666500Y452547D02*
X680000D01*
X648343Y459386D02*
X679067D01*
X571980Y468480D02*
X580693D01*
X560823Y282323D02*
X565842Y287343D01*
X568500Y290000D01*
X557870Y287343D02*
X565842D01*
X668000Y329000D02*
Y347500D01*
X667610Y328610D02*
X668000Y329000D01*
X566500Y422500D02*
X574000Y415000D01*
X573500Y406000D02*
Y414500D01*
X543500Y376000D02*
X573500Y406000D01*
X543500Y358500D02*
Y376000D01*
X547409Y418590D02*
X551000Y415000D01*
X547409Y418590D02*
Y428311D01*
X664500Y371000D02*
X671500D01*
X672000Y371500D01*
Y384000D01*
X687500Y368000D02*
Y385500D01*
X682000Y391000D02*
X687500Y385500D01*
X643000Y391000D02*
X682000D01*
X639000Y395000D02*
X643000Y391000D01*
X686815Y403685D02*
X703500Y387000D01*
X686500Y403685D02*
X686815D01*
X594250Y378750D02*
X597795Y375205D01*
X593000Y380000D02*
X594250Y378750D01*
X702500Y413000D02*
Y414500D01*
X685500Y431500D02*
X702500Y414500D01*
X651000Y431500D02*
X685500D01*
X598250Y378750D02*
X651000Y431500D01*
X594250Y378750D02*
X598250D01*
X686953Y452547D02*
X702000Y437500D01*
X680000Y452547D02*
X686953D01*
X700047Y458453D02*
X701000Y457500D01*
X680000Y458453D02*
X700047D01*
X661000Y236500D02*
X703500D01*
X698882Y291618D02*
X702500Y288000D01*
X659000Y291618D02*
X698882D01*
X574000Y415000D02*
X618500D01*
X558039Y430673D02*
X558366Y431000D01*
X571500D01*
X544000Y323000D02*
Y323500D01*
X635000Y250000D02*
X648500Y236500D01*
X626000Y259000D02*
X635000Y250000D01*
Y268260D01*
X626500Y276760D02*
X635000Y268260D01*
X615500Y268000D02*
X616500Y267000D01*
X615500Y268000D02*
Y276760D01*
X633878Y291618D02*
X659000D01*
X626500Y284240D02*
X633878Y291618D01*
X615500Y284240D02*
X626500D01*
X606240Y293500D02*
X615500Y284240D01*
X648500Y236500D02*
X661000D01*
X616500Y259000D02*
X626000D01*
X602453D02*
X616500D01*
X579130Y282323D02*
X602453Y259000D01*
X597622Y292362D02*
X598760Y293500D01*
X579130Y292362D02*
X597622D01*
X579130Y287343D02*
Y292362D01*
X576177Y282323D02*
X579130D01*
X568500Y290000D02*
X576177Y282323D01*
X557870D02*
X560823D01*
X579130Y297382D02*
Y298370D01*
X573500Y304000D02*
X579130Y298370D01*
X563500Y304000D02*
X573500D01*
X557870Y298370D02*
X563500Y304000D01*
X557870Y297382D02*
Y298370D01*
X547000Y299000D02*
X556252D01*
X542500D02*
X547000D01*
Y301000D01*
X550500Y304500D01*
X554500D01*
X559000Y309000D01*
X547177Y282323D02*
X557870D01*
X545500Y284000D02*
X547177Y282323D01*
X531500Y284000D02*
X545500D01*
X524000Y276500D02*
X531500Y284000D01*
X515000Y276500D02*
X524000D01*
X556252Y299000D02*
X557870Y297382D01*
X535500Y292000D02*
X542500Y299000D01*
X531500Y292000D02*
X535500D01*
X525000Y298500D02*
X531500Y292000D01*
X515000Y298500D02*
X525000D01*
X634500Y356000D02*
X637500Y359000D01*
Y363000D01*
Y343000D02*
Y359000D01*
X641500Y371000D02*
X645500Y367000D01*
Y342500D02*
Y367000D01*
Y342500D02*
X646681Y341319D01*
X651268D01*
X637500Y371000D02*
X641500D01*
X690110Y317390D02*
X702000Y305500D01*
X681000Y317390D02*
X690110D01*
X680000Y363000D02*
X682500D01*
X687500Y368000D01*
X639000Y395000D02*
Y410673D01*
X648343Y420016D01*
X651268Y357768D02*
X664500Y371000D01*
X651268Y353681D02*
Y357768D01*
Y347500D02*
X668000D01*
X678390Y320000D02*
X681000Y317390D01*
X660500Y320000D02*
X678390D01*
X660500D02*
Y327500D01*
X659500Y328500D02*
X660500Y327500D01*
X651268Y336732D02*
X659500Y328500D01*
X651268Y336732D02*
Y341319D01*
X680610Y329000D02*
X681000Y328610D01*
X668000Y329000D02*
X680610D01*
X668000Y347500D02*
X676000Y355500D01*
Y363000D01*
X590000Y368500D02*
X597795D01*
X629000Y355500D02*
X634000D01*
X626000Y358500D02*
X629000Y355500D01*
X622205Y358500D02*
X626000D01*
X637500Y371000D02*
Y376000D01*
X634500Y379000D02*
X637500Y376000D01*
X634295Y378795D02*
X634500Y379000D01*
X627500Y378795D02*
X634295D01*
X622205Y373500D02*
X627500Y378795D01*
X597795Y357795D02*
Y358500D01*
X594500Y354500D02*
X597795Y357795D01*
X582000Y342000D02*
X582500Y341500D01*
X594500D01*
X604500Y351500D01*
Y371500D01*
X602500Y373500D02*
X604500Y371500D01*
X597795Y373500D02*
X602500D01*
X560232Y352319D02*
X571319D01*
X574000Y355000D01*
X576390Y336390D02*
X582000Y342000D01*
X533000Y336390D02*
X576390D01*
X581000Y361500D02*
X581500Y362000D01*
X571000Y361500D02*
X581000D01*
X568000Y358500D02*
X571000Y361500D01*
X560232Y358500D02*
X568000D01*
X597795Y373500D02*
Y375205D01*
X586000Y380000D02*
X593000D01*
X580500Y371000D02*
Y374500D01*
X586000Y380000D01*
X591500Y354500D02*
X594500D01*
X584000Y362000D02*
X591500Y354500D01*
X581500Y362000D02*
X584000D01*
X581500Y350500D02*
X582000Y350000D01*
X581500Y350500D02*
Y362000D01*
X570500Y371000D02*
X580500D01*
X564181Y364681D02*
X570500Y371000D01*
X560232Y364681D02*
X564181D01*
X543500Y358500D02*
X560232D01*
X533000Y347610D02*
X539610D01*
X543000Y351000D01*
Y358000D01*
X543500Y358500D01*
X534500Y367500D02*
X543500Y358500D01*
X534500Y367500D02*
Y375500D01*
Y383500D02*
X536000D01*
X546000Y393500D01*
X546500Y442500D02*
X552500D01*
X540500D02*
X546500D01*
Y445000D01*
X541500Y450000D02*
X546500Y445000D01*
X541500Y450000D02*
Y464000D01*
X552240Y474740D01*
X558500D01*
X536779Y425654D02*
Y430673D01*
X526673D02*
X536779D01*
X524500Y428500D02*
X526673Y430673D01*
X524500Y424500D02*
Y428500D01*
X532146Y416000D02*
X536779Y420634D01*
X523000Y416000D02*
X532146D01*
X516500Y422500D02*
X523000Y416000D01*
X514500Y422500D02*
X516500D01*
X507000Y415000D02*
X514500Y422500D01*
X499000Y415000D02*
X507000D01*
X529500Y441000D02*
X534807Y435693D01*
X525000Y441000D02*
X529500D01*
X514500Y430500D02*
X525000Y441000D01*
X534807Y435693D02*
X536779D01*
X508000Y437000D02*
X514500Y430500D01*
X499000Y437000D02*
X508000D01*
X558039Y435693D02*
Y436961D01*
X552500Y442500D02*
X558039Y436961D01*
X536779Y438779D02*
X540500Y442500D01*
X536779Y435693D02*
Y438779D01*
X550067Y425654D02*
X558039D01*
Y424000D02*
Y425654D01*
Y420634D02*
Y424000D01*
X559539Y422500D01*
X566500D01*
X618500Y415000D02*
X621000Y417500D01*
Y427000D01*
X616260Y431740D02*
X621000Y427000D01*
X606000Y431740D02*
X616260D01*
X547409Y428311D02*
X550067Y425654D01*
X539732Y420634D02*
X547409Y428311D01*
X536779Y420634D02*
X539732D01*
X592000Y439000D02*
Y444000D01*
Y439000D02*
X599260Y431740D01*
X606000D01*
X591240Y424260D02*
X606000D01*
X580693Y434807D02*
X591240Y424260D01*
X580693Y434807D02*
Y456276D01*
X558500Y464500D02*
Y467260D01*
Y464500D02*
X566724Y456276D01*
X558500Y474740D02*
X589760D01*
X592504Y471996D01*
Y468480D02*
Y471996D01*
X566724Y456276D02*
X580693D01*
X607000Y460000D02*
Y466185D01*
X603276Y456276D02*
X607000Y460000D01*
X592504Y456276D02*
X603276D01*
X641543Y466185D02*
X648343Y459386D01*
X607000Y466185D02*
X641543D01*
X606000Y477815D02*
X607000Y476815D01*
X606000Y477815D02*
Y482500D01*
X605500D02*
X606000D01*
X601000Y487000D02*
X605500Y482500D01*
X590000Y487000D02*
X601000D01*
X588047Y485047D02*
X590000Y487000D01*
X588047Y481000D02*
Y485047D01*
X592504Y468480D02*
X594480D01*
X597500Y471500D01*
Y477453D01*
X593953Y481000D02*
X597500Y477453D01*
X645847Y449346D02*
X648343D01*
X640500Y444000D02*
X645847Y449346D01*
X592000Y444000D02*
X640500D01*
X586992Y449008D02*
X592000Y444000D01*
X586992Y449008D02*
Y457063D01*
X685000Y405185D02*
X686500Y403685D01*
X670500Y405185D02*
X685000D01*
X665350Y400035D02*
X670500Y405185D01*
X648343Y400035D02*
X665350D01*
X670500Y415815D02*
X672000Y414315D01*
X666299Y420016D02*
X670500Y415815D01*
X672000Y414315D02*
X686500D01*
X648343Y420016D02*
X666299D01*
X663299Y449346D02*
X666500Y452547D01*
X648343Y449346D02*
X663299D01*
X520890Y347610D02*
X533000D01*
D17*
X540500Y744000D02*
X539500Y745000D01*
X540500Y744000D02*
Y745500D01*
D18*
X523500Y703500D02*
Y714500D01*
X529500Y720500D01*
X441000Y249500D02*
X507000Y315500D01*
X307000Y249500D02*
X441000D01*
X293000Y263500D02*
X307000Y249500D01*
X588500Y315500D02*
X606240Y297760D01*
X507000Y315500D02*
X588500D01*
X293000Y199000D02*
Y263500D01*
X285000Y191000D02*
X293000Y199000D01*
X606240Y293500D02*
Y297760D01*
D19*
X510000Y752850D02*
X509390Y753461D01*
D20*
X626500Y284240D02*
D03*
Y276760D02*
D03*
X615500Y284240D02*
D03*
Y276760D02*
D03*
X606000Y431740D02*
D03*
Y424260D02*
D03*
X558500Y467260D02*
D03*
Y474740D02*
D03*
D21*
X616500Y267000D02*
D03*
Y259000D02*
D03*
X676000Y363000D02*
D03*
Y371000D02*
D03*
X581500Y370000D02*
D03*
Y362000D02*
D03*
X531500Y292000D02*
D03*
Y284000D02*
D03*
X514500Y430500D02*
D03*
Y422500D02*
D03*
X582000Y350000D02*
D03*
Y342000D02*
D03*
X534500Y375500D02*
D03*
Y383500D02*
D03*
X637500Y371000D02*
D03*
Y363000D02*
D03*
D22*
X681000Y328610D02*
D03*
Y317390D02*
D03*
X533000Y347610D02*
D03*
Y336390D02*
D03*
D23*
X586992Y457063D02*
D03*
X580693Y468480D02*
D03*
X592504D02*
D03*
D24*
X580693Y456276D02*
D03*
X592504D02*
D03*
D25*
X593953Y481000D02*
D03*
X588047D02*
D03*
D26*
X606240Y293500D02*
D03*
X598760D02*
D03*
D27*
X670500Y415815D02*
D03*
Y405185D02*
D03*
X686500Y414315D02*
D03*
Y403685D02*
D03*
X607000Y476815D02*
D03*
Y466185D02*
D03*
D28*
X667000Y458953D02*
D03*
Y453047D02*
D03*
X680000Y458453D02*
D03*
Y452547D02*
D03*
D29*
X515000Y276500D02*
D03*
Y298500D02*
D03*
X499000Y415000D02*
D03*
Y437000D02*
D03*
D30*
X651268Y341319D02*
D03*
Y347500D02*
D03*
Y353681D02*
D03*
X560232Y364681D02*
D03*
Y358500D02*
D03*
Y352319D02*
D03*
D31*
X668000Y347500D02*
D03*
X543500Y358500D02*
D03*
D32*
X622205Y373500D02*
D03*
Y368500D02*
D03*
Y363500D02*
D03*
Y358500D02*
D03*
X597795D02*
D03*
Y363500D02*
D03*
Y368500D02*
D03*
Y373500D02*
D03*
D33*
X547409Y428311D02*
D03*
X568500Y290000D02*
D03*
D34*
X536779Y435693D02*
D03*
Y430673D02*
D03*
Y425654D02*
D03*
Y420634D02*
D03*
X558039D02*
D03*
Y425654D02*
D03*
Y430673D02*
D03*
Y435693D02*
D03*
X579130Y297382D02*
D03*
Y292362D02*
D03*
Y287343D02*
D03*
Y282323D02*
D03*
X557870D02*
D03*
Y287343D02*
D03*
Y292362D02*
D03*
Y297382D02*
D03*
D35*
X330634Y144500D02*
D03*
X297366D02*
D03*
D36*
X549362Y292362D02*
X557870D01*
X622205Y368500D02*
X628500D01*
D37*
X291500Y421500D02*
Y460500D01*
X197000Y327000D02*
X291500Y421500D01*
X182000Y327000D02*
X197000D01*
X143000D02*
X182000D01*
X120500Y346000D02*
X138500Y364000D01*
X120500Y283500D02*
Y346000D01*
Y283500D02*
X141500Y262500D01*
Y262000D02*
Y262500D01*
X138500Y364000D02*
X143000D01*
X182000D01*
X141500Y262000D02*
X180500D01*
X141000Y181000D02*
X180000D01*
X141000D02*
Y224500D01*
X141500Y225000D01*
X173000D01*
X141000Y144000D02*
X180000D01*
X252000D01*
X296866D01*
X297366Y144500D01*
X252000Y144000D02*
X264213Y156213D01*
Y191000D01*
X330634Y144500D02*
Y190134D01*
X360500Y220000D01*
X388791D01*
X397500Y228709D01*
Y198000D02*
X406500Y189000D01*
X466000D01*
Y150000D02*
Y189000D01*
D38*
X353000Y798500D02*
D03*
X316000D02*
D03*
Y837500D02*
D03*
X353000D02*
D03*
X570000Y651500D02*
D03*
Y614500D02*
D03*
X531000D02*
D03*
Y651500D02*
D03*
X328500Y421500D02*
D03*
X291500D02*
D03*
Y460500D02*
D03*
X328500D02*
D03*
X143000Y327000D02*
D03*
Y364000D02*
D03*
X182000D02*
D03*
Y327000D02*
D03*
X180500Y262000D02*
D03*
Y225000D02*
D03*
X141500D02*
D03*
Y262000D02*
D03*
X180000Y181000D02*
D03*
Y144000D02*
D03*
X141000D02*
D03*
Y181000D02*
D03*
X503000Y150000D02*
D03*
X466000D02*
D03*
Y189000D02*
D03*
X503000D02*
D03*
D39*
X438500Y828000D02*
D03*
X464000Y827500D02*
D03*
X490000Y827000D02*
D03*
X701000Y457500D02*
D03*
X702000Y437500D02*
D03*
X702500Y413000D02*
D03*
X702000Y363000D02*
D03*
Y305500D02*
D03*
X703500Y236500D02*
D03*
X702500Y288000D02*
D03*
X703500Y387000D02*
D03*
X506500Y461000D02*
D03*
D40*
X571000Y804500D02*
D03*
D41*
X561000D02*
D03*
X571000Y814500D02*
D03*
X561000D02*
D03*
X571000Y824500D02*
D03*
X561000D02*
D03*
X571000Y834500D02*
D03*
X561000D02*
D03*
X648343Y459386D02*
D03*
Y449346D02*
D03*
Y420016D02*
D03*
Y400035D02*
D03*
X672000Y162000D02*
D03*
X662000Y172000D02*
D03*
Y162000D02*
D03*
X652000Y172000D02*
D03*
Y162000D02*
D03*
X642000Y172000D02*
D03*
Y162000D02*
D03*
X632000Y172000D02*
D03*
Y162000D02*
D03*
D42*
X416079Y700500D02*
D03*
Y600500D02*
D03*
D43*
X246000Y708925D02*
D03*
Y600500D02*
D03*
D44*
X540500Y745500D02*
D03*
X525000Y739000D02*
D03*
X517000Y791000D02*
D03*
X505500Y326000D02*
D03*
X511500Y328500D02*
D03*
X514500Y335000D02*
D03*
X519000Y340500D02*
D03*
X513000Y343500D02*
D03*
X508000Y339000D02*
D03*
X506500Y332000D02*
D03*
X589500Y488000D02*
D03*
X551000Y415000D02*
D03*
X637500Y343000D02*
D03*
X672000Y384000D02*
D03*
X571500Y431000D02*
D03*
X544000Y323000D02*
D03*
X574000Y355000D02*
D03*
X549362Y292362D02*
D03*
X559000Y309000D02*
D03*
X590000Y368500D02*
D03*
X628500D02*
D03*
X546000Y393500D02*
D03*
X524500Y424500D02*
D03*
X571980Y468480D02*
D03*
X520890Y347610D02*
D03*
D45*
X397500Y198000D02*
D03*
Y228709D02*
D03*
Y268472D02*
D03*
X397106Y288551D02*
D03*
X661000Y236500D02*
D03*
X659000Y291618D02*
D03*
D46*
X243150Y191000D02*
D03*
X264213D02*
D03*
X285000D02*
D03*
X251150Y263500D02*
D03*
X272213D02*
D03*
X293000D02*
D03*
D47*
X672000Y172000D02*
D03*
M02*
