G04 Layer_Color=65535*
%FSLAX25Y25*%
%MOIN*%
G70*
G01*
G75*
%ADD19C,0.01000*%
%ADD48C,0.00787*%
%ADD49C,0.00394*%
%ADD50C,0.04937*%
%ADD51C,0.00800*%
%ADD52C,0.03937*%
%ADD53R,0.06496X0.02165*%
D19*
X192500Y575500D02*
X195000D01*
Y578000D01*
Y575500D02*
Y578000D01*
X182500Y588000D02*
X195000Y575500D01*
X182500Y588000D02*
Y613000D01*
X591500Y580000D02*
X594000D01*
X591500D02*
X594000D01*
X591500D02*
Y582000D01*
Y580000D02*
Y582000D01*
Y580000D02*
X604000Y592500D01*
Y617500D01*
X457000Y498500D02*
X458500D01*
Y500000D01*
Y498500D02*
Y500000D01*
X455500Y501500D02*
X458500Y498500D01*
X270500Y503500D02*
X272500D01*
X270500Y502000D02*
Y503500D01*
Y502000D02*
Y503500D01*
X272500Y501500D01*
X275500D01*
X438000D02*
X455500D01*
X275500D02*
X300500D01*
X585000Y505000D02*
Y859500D01*
X198000Y505000D02*
Y859000D01*
X100500Y505000D02*
X712000D01*
X100500Y497500D02*
X712000D01*
X179502Y616000D02*
X182834D01*
X184500Y617666D01*
X182834Y619332D01*
X179502D01*
X182001Y620998D02*
Y624331D01*
X184500Y630995D02*
Y633494D01*
X183667Y634327D01*
X182834Y633494D01*
Y631828D01*
X182001Y630995D01*
X181168Y631828D01*
Y634327D01*
Y639326D02*
Y636827D01*
X182001Y635993D01*
X183667D01*
X184500Y636827D01*
Y639326D01*
Y641825D02*
Y643491D01*
X183667Y644324D01*
X182001D01*
X181168Y643491D01*
Y641825D01*
X182001Y640992D01*
X183667D01*
X184500Y641825D01*
X181168Y645990D02*
X184500D01*
X182834D01*
X182001Y646823D01*
X181168Y647656D01*
Y648490D01*
X184500Y650989D02*
Y652655D01*
Y651822D01*
X181168D01*
Y650989D01*
X184500Y655154D02*
X181168D01*
Y657653D01*
X182001Y658486D01*
X184500D01*
X186166Y661819D02*
Y662652D01*
X185333Y663485D01*
X181168D01*
Y660985D01*
X182001Y660152D01*
X183667D01*
X184500Y660985D01*
Y663485D01*
X181168Y670982D02*
Y672648D01*
X182001Y673481D01*
X184500D01*
Y670982D01*
X183667Y670149D01*
X182834Y670982D01*
Y673481D01*
X184500Y675147D02*
Y676814D01*
Y675981D01*
X179502D01*
Y675147D01*
X184500Y680146D02*
Y681812D01*
X183667Y682645D01*
X182001D01*
X181168Y681812D01*
Y680146D01*
X182001Y679313D01*
X183667D01*
X184500Y680146D01*
Y684311D02*
X181168D01*
Y686810D01*
X182001Y687643D01*
X184500D01*
X186166Y690976D02*
Y691809D01*
X185333Y692642D01*
X181168D01*
Y690143D01*
X182001Y689310D01*
X183667D01*
X184500Y690143D01*
Y692642D01*
X180335Y700139D02*
X181168D01*
Y699306D01*
Y700973D01*
Y700139D01*
X183667D01*
X184500Y700973D01*
X179502Y703472D02*
X184500D01*
X182001D01*
X181168Y704305D01*
Y705971D01*
X182001Y706804D01*
X184500D01*
Y708470D02*
Y710136D01*
Y709303D01*
X181168D01*
Y708470D01*
X184500Y712635D02*
Y715135D01*
X183667Y715968D01*
X182834Y715135D01*
Y713468D01*
X182001Y712635D01*
X181168Y713468D01*
Y715968D01*
X184500Y722632D02*
Y724298D01*
Y723465D01*
X179502D01*
Y722632D01*
X184500Y726797D02*
Y728464D01*
Y727631D01*
X181168D01*
Y726797D01*
X184500Y730963D02*
X181168D01*
Y733462D01*
X182001Y734295D01*
X184500D01*
Y738460D02*
Y736794D01*
X183667Y735961D01*
X182001D01*
X181168Y736794D01*
Y738460D01*
X182001Y739293D01*
X182834D01*
Y735961D01*
X184500Y740960D02*
Y743459D01*
X183667Y744292D01*
X182834Y743459D01*
Y741793D01*
X182001Y740960D01*
X181168Y741793D01*
Y744292D01*
X601002Y620500D02*
X604334D01*
X606000Y622166D01*
X604334Y623832D01*
X601002D01*
X603501Y625498D02*
Y628831D01*
X606000Y635495D02*
Y637994D01*
X605167Y638827D01*
X604334Y637994D01*
Y636328D01*
X603501Y635495D01*
X602668Y636328D01*
Y638827D01*
Y643826D02*
Y641327D01*
X603501Y640493D01*
X605167D01*
X606000Y641327D01*
Y643826D01*
Y646325D02*
Y647991D01*
X605167Y648824D01*
X603501D01*
X602668Y647991D01*
Y646325D01*
X603501Y645492D01*
X605167D01*
X606000Y646325D01*
X602668Y650490D02*
X606000D01*
X604334D01*
X603501Y651323D01*
X602668Y652156D01*
Y652989D01*
X606000Y655489D02*
Y657155D01*
Y656322D01*
X602668D01*
Y655489D01*
X606000Y659654D02*
X602668D01*
Y662153D01*
X603501Y662986D01*
X606000D01*
X607666Y666319D02*
Y667152D01*
X606833Y667985D01*
X602668D01*
Y665485D01*
X603501Y664652D01*
X605167D01*
X606000Y665485D01*
Y667985D01*
X602668Y675482D02*
Y677148D01*
X603501Y677981D01*
X606000D01*
Y675482D01*
X605167Y674649D01*
X604334Y675482D01*
Y677981D01*
X606000Y679647D02*
Y681314D01*
Y680481D01*
X601002D01*
Y679647D01*
X606000Y684646D02*
Y686312D01*
X605167Y687145D01*
X603501D01*
X602668Y686312D01*
Y684646D01*
X603501Y683813D01*
X605167D01*
X606000Y684646D01*
Y688811D02*
X602668D01*
Y691310D01*
X603501Y692143D01*
X606000D01*
X607666Y695476D02*
Y696309D01*
X606833Y697142D01*
X602668D01*
Y694643D01*
X603501Y693810D01*
X605167D01*
X606000Y694643D01*
Y697142D01*
X601835Y704639D02*
X602668D01*
Y703806D01*
Y705473D01*
Y704639D01*
X605167D01*
X606000Y705473D01*
X601002Y707972D02*
X606000D01*
X603501D01*
X602668Y708805D01*
Y710471D01*
X603501Y711304D01*
X606000D01*
Y712970D02*
Y714636D01*
Y713803D01*
X602668D01*
Y712970D01*
X606000Y717135D02*
Y719635D01*
X605167Y720468D01*
X604334Y719635D01*
Y717968D01*
X603501Y717135D01*
X602668Y717968D01*
Y720468D01*
X606000Y727132D02*
Y728798D01*
Y727965D01*
X601002D01*
Y727132D01*
X606000Y731297D02*
Y732964D01*
Y732130D01*
X602668D01*
Y731297D01*
X606000Y735463D02*
X602668D01*
Y737962D01*
X603501Y738795D01*
X606000D01*
Y742960D02*
Y741294D01*
X605167Y740461D01*
X603501D01*
X602668Y741294D01*
Y742960D01*
X603501Y743793D01*
X604334D01*
Y740461D01*
X606000Y745460D02*
Y747959D01*
X605167Y748792D01*
X604334Y747959D01*
Y746293D01*
X603501Y745460D01*
X602668Y746293D01*
Y748792D01*
X303500Y504498D02*
Y501166D01*
X305166Y499500D01*
X306832Y501166D01*
Y504498D01*
X308498Y501999D02*
X311831D01*
X318495Y499500D02*
X320994D01*
X321827Y500333D01*
X320994Y501166D01*
X319328D01*
X318495Y501999D01*
X319328Y502832D01*
X321827D01*
X326826D02*
X324327D01*
X323494Y501999D01*
Y500333D01*
X324327Y499500D01*
X326826D01*
X329325D02*
X330991D01*
X331824Y500333D01*
Y501999D01*
X330991Y502832D01*
X329325D01*
X328492Y501999D01*
Y500333D01*
X329325Y499500D01*
X333490Y502832D02*
Y499500D01*
Y501166D01*
X334323Y501999D01*
X335156Y502832D01*
X335989D01*
X338489Y499500D02*
X340155D01*
X339322D01*
Y502832D01*
X338489D01*
X342654Y499500D02*
Y502832D01*
X345153D01*
X345986Y501999D01*
Y499500D01*
X349319Y497834D02*
X350151D01*
X350985Y498667D01*
Y502832D01*
X348485D01*
X347652Y501999D01*
Y500333D01*
X348485Y499500D01*
X350985D01*
X358482Y502832D02*
X360148D01*
X360981Y501999D01*
Y499500D01*
X358482D01*
X357649Y500333D01*
X358482Y501166D01*
X360981D01*
X362648Y499500D02*
X364314D01*
X363481D01*
Y504498D01*
X362648D01*
X367646Y499500D02*
X369312D01*
X370145Y500333D01*
Y501999D01*
X369312Y502832D01*
X367646D01*
X366813Y501999D01*
Y500333D01*
X367646Y499500D01*
X371811D02*
Y502832D01*
X374310D01*
X375144Y501999D01*
Y499500D01*
X378476Y497834D02*
X379309D01*
X380142Y498667D01*
Y502832D01*
X377643D01*
X376810Y501999D01*
Y500333D01*
X377643Y499500D01*
X380142D01*
X387639Y503665D02*
Y502832D01*
X386806D01*
X388473D01*
X387639D01*
Y500333D01*
X388473Y499500D01*
X390972Y504498D02*
Y499500D01*
Y501999D01*
X391805Y502832D01*
X393471D01*
X394304Y501999D01*
Y499500D01*
X398469D02*
X396803D01*
X395970Y500333D01*
Y501999D01*
X396803Y502832D01*
X398469D01*
X399302Y501999D01*
Y501166D01*
X395970D01*
X400968Y499500D02*
X403468D01*
X404301Y500333D01*
X403468Y501166D01*
X401801D01*
X400968Y501999D01*
X401801Y502832D01*
X404301D01*
X408466Y499500D02*
X406800D01*
X405967Y500333D01*
Y501999D01*
X406800Y502832D01*
X408466D01*
X409299Y501999D01*
Y501166D01*
X405967D01*
X415964Y499500D02*
X417630D01*
X416797D01*
Y504498D01*
X415964D01*
X420129Y499500D02*
X421795D01*
X420962D01*
Y502832D01*
X420129D01*
X424294Y499500D02*
Y502832D01*
X426793D01*
X427627Y501999D01*
Y499500D01*
X431792D02*
X430126D01*
X429293Y500333D01*
Y501999D01*
X430126Y502832D01*
X431792D01*
X432625Y501999D01*
Y501166D01*
X429293D01*
X434291Y499500D02*
X436790D01*
X437623Y500333D01*
X436790Y501166D01*
X435124D01*
X434291Y501999D01*
X435124Y502832D01*
X437623D01*
X514500Y725000D02*
G03*
X514500Y725000I0J-500D01*
G01*
X438500Y833590D02*
G03*
X438500Y833590I0J-5590D01*
G01*
X464000Y833090D02*
G03*
X464000Y833090I0J-5590D01*
G01*
X490000Y832590D02*
G03*
X490000Y832590I0J-5590D01*
G01*
X530500Y727000D02*
X506500D01*
X530500Y726000D02*
Y727000D01*
X506500Y726000D02*
Y727000D01*
X530500Y714000D02*
Y715000D01*
Y714000D02*
X506500D01*
Y715000D01*
X496701Y716499D02*
X496201Y716000D01*
Y715000D01*
X496701Y714500D01*
X498700D01*
X499200Y715000D01*
Y716000D01*
X498700Y716499D01*
X497201Y717499D02*
X499200D01*
X498200D01*
X497701Y717999D01*
X497201Y718499D01*
Y718999D01*
X499200Y722497D02*
Y720498D01*
X497201Y722497D01*
X496701D01*
X496201Y721998D01*
Y720998D01*
X496701Y720498D01*
X505601Y701599D02*
X505101Y701099D01*
Y700100D01*
X505601Y699600D01*
X507600D01*
X508100Y700100D01*
Y701099D01*
X507600Y701599D01*
X508100Y702599D02*
X505101D01*
Y704099D01*
X505601Y704598D01*
X506601D01*
X507100Y704099D01*
Y702599D01*
Y703599D02*
X508100Y704598D01*
Y705598D02*
Y706598D01*
Y706098D01*
X505101D01*
X505601Y705598D01*
X499801Y752299D02*
X499301Y751799D01*
Y750800D01*
X499801Y750300D01*
X501800D01*
X502300Y750800D01*
Y751799D01*
X501800Y752299D01*
X500801D01*
Y751300D01*
X500301Y753799D02*
Y754799D01*
X500801Y755298D01*
X502300D01*
Y753799D01*
X501800Y753299D01*
X501300Y753799D01*
Y755298D01*
X499801Y756798D02*
X500301D01*
Y756298D01*
Y757298D01*
Y756798D01*
X501800D01*
X502300Y757298D01*
Y760297D02*
Y759297D01*
X501800Y758797D01*
X500801D01*
X500301Y759297D01*
Y760297D01*
X500801Y760797D01*
X501300D01*
Y758797D01*
X502800Y761796D02*
Y763796D01*
X499301Y764795D02*
X502300D01*
Y766295D01*
X501800Y766795D01*
X499801D01*
X499301Y766295D01*
Y764795D01*
X500301Y767794D02*
X502300D01*
X501300D01*
X500801Y768294D01*
X500301Y768794D01*
Y769294D01*
X502300Y770793D02*
Y771793D01*
Y771293D01*
X500301D01*
Y770793D01*
Y773293D02*
X502300Y774292D01*
X500301Y775292D01*
X502300Y777791D02*
Y776791D01*
X501800Y776292D01*
X500801D01*
X500301Y776791D01*
Y777791D01*
X500801Y778291D01*
X501300D01*
Y776292D01*
X500301Y779291D02*
X502300D01*
X501300D01*
X500801Y779790D01*
X500301Y780290D01*
Y780790D01*
X502300Y782290D02*
Y783289D01*
Y782790D01*
X499301D01*
X499801Y782290D01*
X296802Y789300D02*
X301800D01*
X302800Y790300D01*
Y792299D01*
X301800Y793299D01*
X296802D01*
X302800Y799297D02*
Y795298D01*
X298801Y799297D01*
X297802D01*
X296802Y798297D01*
Y796298D01*
X297802Y795298D01*
X424001Y524502D02*
Y530500D01*
X427000D01*
X428000Y529500D01*
Y527501D01*
X427000Y526501D01*
X424001D01*
X418003D02*
X421002D01*
X422002Y527501D01*
Y529500D01*
X421002Y530500D01*
X418003D01*
X415004D02*
Y525502D01*
Y527501D01*
X416004D01*
X414005D01*
X415004D01*
Y525502D01*
X414005Y524502D01*
X411005Y526501D02*
Y529500D01*
X410006Y530500D01*
X407007D01*
Y526501D01*
X405007Y530500D02*
X402008D01*
X401009Y529500D01*
X402008Y528501D01*
X404008D01*
X405007Y527501D01*
X404008Y526501D01*
X401009D01*
X396010Y530500D02*
X398010D01*
X399009Y529500D01*
Y527501D01*
X398010Y526501D01*
X396010D01*
X395011Y527501D01*
Y528501D01*
X399009D01*
X393011Y530500D02*
X391012D01*
X392012D01*
Y524502D01*
X393011Y525502D01*
X474952Y821950D02*
Y825949D01*
Y823949D01*
X480950D01*
Y827948D02*
Y829947D01*
Y828948D01*
X474952D01*
X475952Y827948D01*
X448952Y822450D02*
Y826449D01*
Y824449D01*
X454950D01*
Y832447D02*
Y828448D01*
X450951Y832447D01*
X449952D01*
X448952Y831447D01*
Y829448D01*
X449952Y828448D01*
X423452Y822950D02*
Y826949D01*
Y824949D01*
X429450D01*
X424452Y828948D02*
X423452Y829948D01*
Y831947D01*
X424452Y832947D01*
X425451D01*
X426451Y831947D01*
Y830947D01*
Y831947D01*
X427451Y832947D01*
X428450D01*
X429450Y831947D01*
Y829948D01*
X428450Y828948D01*
X552600Y794700D02*
X546602D01*
Y797699D01*
X547602Y798699D01*
X549601D01*
X550601Y797699D01*
Y794700D01*
X552600Y800698D02*
Y802697D01*
Y801698D01*
X546602D01*
X547602Y800698D01*
X511802Y605300D02*
X516800D01*
X517800Y606300D01*
Y608299D01*
X516800Y609299D01*
X511802D01*
X517800Y611298D02*
Y613297D01*
Y612298D01*
X511802D01*
X512802Y611298D01*
X488502Y545999D02*
X494500D01*
Y543000D01*
X493500Y542000D01*
X491501D01*
X490501Y543000D01*
Y545999D01*
Y551997D02*
Y548998D01*
X491501Y547998D01*
X493500D01*
X494500Y548998D01*
Y551997D01*
X490501Y553996D02*
X494500D01*
X492501D01*
X491501Y554996D01*
X490501Y555996D01*
Y556995D01*
X494500Y562993D02*
Y560994D01*
X493500Y559994D01*
X491501D01*
X490501Y560994D01*
Y562993D01*
X491501Y563993D01*
X492501D01*
Y559994D01*
X494500Y565992D02*
Y567992D01*
Y566992D01*
X488502D01*
Y565992D01*
X490501Y571990D02*
Y573990D01*
X491501Y574989D01*
X494500D01*
Y571990D01*
X493500Y570991D01*
X492501Y571990D01*
Y574989D01*
X490501Y576989D02*
X493500D01*
X494500Y577988D01*
Y580987D01*
X495500D01*
X496499Y579988D01*
Y578988D01*
X494500Y580987D02*
X490501D01*
X494500Y582987D02*
Y584986D01*
Y583986D01*
X488502D01*
X489502Y582987D01*
X566502Y671500D02*
X572500D01*
Y674499D01*
X571500Y675499D01*
X567502D01*
X566502Y674499D01*
Y671500D01*
X572500Y680497D02*
Y678498D01*
X571500Y677498D01*
X569501D01*
X568501Y678498D01*
Y680497D01*
X569501Y681497D01*
X570501D01*
Y677498D01*
X572500Y683496D02*
Y686495D01*
X571500Y687495D01*
X570501Y686495D01*
Y684496D01*
X569501Y683496D01*
X568501Y684496D01*
Y687495D01*
X572500Y689494D02*
Y691494D01*
Y690494D01*
X568501D01*
Y689494D01*
X574499Y696492D02*
Y697492D01*
X573500Y698491D01*
X568501D01*
Y695492D01*
X569501Y694493D01*
X571500D01*
X572500Y695492D01*
Y698491D01*
Y700491D02*
X568501D01*
Y703490D01*
X569501Y704489D01*
X572500D01*
Y709488D02*
Y707488D01*
X571500Y706489D01*
X569501D01*
X568501Y707488D01*
Y709488D01*
X569501Y710487D01*
X570501D01*
Y706489D01*
X566502Y716486D02*
X572500D01*
Y713486D01*
X571500Y712487D01*
X569501D01*
X568501Y713486D01*
Y716486D01*
X566502Y724483D02*
X572500D01*
Y727482D01*
X571500Y728482D01*
X570501D01*
X569501D01*
X568501Y727482D01*
Y724483D01*
Y730481D02*
X571500D01*
X572500Y731481D01*
Y734480D01*
X573500D01*
X574499Y733480D01*
Y732480D01*
X572500Y734480D02*
X568501D01*
X566502Y742477D02*
X572500D01*
Y745476D01*
X571500Y746476D01*
X567502D01*
X566502Y745476D01*
Y742477D01*
X572500Y751474D02*
Y749475D01*
X571500Y748475D01*
X569501D01*
X568501Y749475D01*
Y751474D01*
X569501Y752474D01*
X570501D01*
Y748475D01*
X566502Y754473D02*
X572500D01*
Y757472D01*
X571500Y758472D01*
X570501D01*
X569501D01*
X568501Y757472D01*
Y754473D01*
Y761471D02*
Y763470D01*
X569501Y764470D01*
X572500D01*
Y761471D01*
X571500Y760471D01*
X570501Y761471D01*
Y764470D01*
X572500Y766469D02*
X568501D01*
Y769468D01*
X569501Y770468D01*
X572500D01*
X574499Y772467D02*
Y773467D01*
X573500Y774467D01*
X568501D01*
Y779465D02*
Y781464D01*
X569501Y782464D01*
X572500D01*
Y779465D01*
X571500Y778465D01*
X570501Y779465D01*
Y782464D01*
X572500Y784464D02*
X568501D01*
Y787463D01*
X569501Y788462D01*
X572500D01*
X675500Y314500D02*
G03*
X675500Y314500I-500J0D01*
G01*
X706590Y457500D02*
G03*
X706590Y457500I-5590J0D01*
G01*
X707590Y437500D02*
G03*
X707590Y437500I-5590J0D01*
G01*
X708090Y413000D02*
G03*
X708090Y413000I-5590J0D01*
G01*
X707590Y363000D02*
G03*
X707590Y363000I-5590J0D01*
G01*
Y305500D02*
G03*
X707590Y305500I-5590J0D01*
G01*
X709090Y236500D02*
G03*
X709090Y236500I-5590J0D01*
G01*
X708090Y288000D02*
G03*
X708090Y288000I-5590J0D01*
G01*
X709090Y387000D02*
G03*
X709090Y387000I-5590J0D01*
G01*
X519500Y291500D02*
G03*
X519500Y291500I-500J0D01*
G01*
X512090Y461000D02*
G03*
X512090Y461000I-5590J0D01*
G01*
X503500Y430000D02*
G03*
X503500Y430000I-500J0D01*
G01*
X527500Y333500D02*
G03*
X527500Y333500I-500J0D01*
G01*
X397500Y173000D02*
X417500D01*
Y313000D01*
X357500D02*
X417500D01*
X347500D02*
X357500D01*
X347500Y173000D02*
Y313000D01*
Y173000D02*
X397500D01*
X294843Y181158D02*
Y196906D01*
Y200842D01*
X233819D02*
X294843D01*
X233819Y181158D02*
Y200842D01*
Y181158D02*
X294843D01*
X302842Y253658D02*
Y269406D01*
Y273342D01*
X241819D02*
X302842D01*
X241819Y253658D02*
Y273342D01*
Y253658D02*
X302842D01*
X640000Y226500D02*
X682000D01*
X640000D02*
Y305500D01*
X682000D01*
Y228500D02*
Y305500D01*
Y226500D02*
Y228500D01*
X508500Y299500D02*
X509500D01*
X508500Y275500D02*
Y299500D01*
Y275500D02*
X509500D01*
X520500Y299500D02*
X521500D01*
X520500Y275500D02*
X521500D01*
Y299500D01*
X492500Y438000D02*
X493500D01*
X492500Y414000D02*
Y438000D01*
Y414000D02*
X493500D01*
X504500Y438000D02*
X505500D01*
X504500Y414000D02*
X505500D01*
Y438000D01*
X655500Y338000D02*
Y357000D01*
X664000D01*
Y338000D02*
Y357000D01*
X655500Y338000D02*
X664000D01*
X602500Y376000D02*
X617500D01*
Y356000D02*
Y376000D01*
X602500Y356000D02*
X617500D01*
X602500D02*
Y376000D01*
X556000Y349000D02*
Y368000D01*
X547500Y349000D02*
X556000D01*
X547500D02*
Y368000D01*
X556000D01*
X1069000Y274000D02*
X1070000Y273000D01*
X625000Y289500D02*
Y295498D01*
X627999D01*
X628999Y294498D01*
Y292499D01*
X627999Y291499D01*
X625000D01*
X626999D02*
X628999Y289500D01*
X633997D02*
Y295498D01*
X630998Y292499D01*
X634997D01*
X611500Y290500D02*
Y296498D01*
X614499D01*
X615499Y295498D01*
Y293499D01*
X614499Y292499D01*
X611500D01*
X613499D02*
X615499Y290500D01*
X617498Y295498D02*
X618498Y296498D01*
X620497D01*
X621497Y295498D01*
Y294499D01*
X620497Y293499D01*
X619497D01*
X620497D01*
X621497Y292499D01*
Y291500D01*
X620497Y290500D01*
X618498D01*
X617498Y291500D01*
X614999Y250998D02*
X613999Y251998D01*
X612000D01*
X611000Y250998D01*
Y247000D01*
X612000Y246000D01*
X613999D01*
X614999Y247000D01*
X616998Y251998D02*
X620997D01*
Y250998D01*
X616998Y247000D01*
Y246000D01*
X681999Y338498D02*
X680999Y339498D01*
X679000D01*
X678000Y338498D01*
Y334500D01*
X679000Y333500D01*
X680999D01*
X681999Y334500D01*
X683998Y333500D02*
X685997D01*
X684998D01*
Y339498D01*
X683998Y338498D01*
X691995Y333500D02*
Y339498D01*
X688996Y336499D01*
X692995D01*
X642999Y330498D02*
X641999Y331498D01*
X640000D01*
X639000Y330498D01*
Y326500D01*
X640000Y325500D01*
X641999D01*
X642999Y326500D01*
X644998Y325500D02*
X646997D01*
X645998D01*
Y331498D01*
X644998Y330498D01*
X653995Y331498D02*
X649996D01*
Y328499D01*
X651996Y329499D01*
X652995D01*
X653995Y328499D01*
Y326500D01*
X652995Y325500D01*
X650996D01*
X649996Y326500D01*
X682001Y356498D02*
X683001Y357498D01*
X685000D01*
X686000Y356498D01*
Y352500D01*
X685000Y351500D01*
X683001D01*
X682001Y352500D01*
X680002Y351500D02*
X678003D01*
X679002D01*
Y357498D01*
X680002Y356498D01*
X675004D02*
X674004Y357498D01*
X672005D01*
X671005Y356498D01*
Y355499D01*
X672005Y354499D01*
X673004D01*
X672005D01*
X671005Y353499D01*
Y352500D01*
X672005Y351500D01*
X674004D01*
X675004Y352500D01*
X580000Y450498D02*
X583999Y444500D01*
Y450498D02*
X580000Y444500D01*
X589997Y449498D02*
X588997Y450498D01*
X586998D01*
X585998Y449498D01*
Y445500D01*
X586998Y444500D01*
X588997D01*
X589997Y445500D01*
X591996Y444500D02*
X593996D01*
X592996D01*
Y450498D01*
X591996Y449498D01*
X578499Y489498D02*
X577499Y490498D01*
X575500D01*
X574500Y489498D01*
Y485500D01*
X575500Y484500D01*
X577499D01*
X578499Y485500D01*
X584497Y484500D02*
X580498D01*
X584497Y488499D01*
Y489498D01*
X583497Y490498D01*
X581498D01*
X580498Y489498D01*
X693500Y471998D02*
X697499D01*
X695499D01*
Y466000D01*
X699498D02*
Y471998D01*
X702497D01*
X703497Y470998D01*
Y468999D01*
X702497Y467999D01*
X699498D01*
X705496Y466000D02*
X707495D01*
X706496D01*
Y471998D01*
X705496Y470998D01*
X691500Y450998D02*
X695499D01*
X693499D01*
Y445000D01*
X697498D02*
Y450998D01*
X700497D01*
X701497Y449998D01*
Y447999D01*
X700497Y446999D01*
X697498D01*
X707495Y450998D02*
X705496Y449998D01*
X703496Y447999D01*
Y446000D01*
X704496Y445000D01*
X706495D01*
X707495Y446000D01*
Y446999D01*
X706495Y447999D01*
X703496D01*
X693000Y428498D02*
X696999D01*
X694999D01*
Y422500D01*
X698998D02*
Y428498D01*
X701997D01*
X702997Y427498D01*
Y425499D01*
X701997Y424499D01*
X698998D01*
X708995Y428498D02*
X704996D01*
Y425499D01*
X706995Y426499D01*
X707995D01*
X708995Y425499D01*
Y423500D01*
X707995Y422500D01*
X705996D01*
X704996Y423500D01*
X692500Y377498D02*
X696499D01*
X694499D01*
Y371500D01*
X698498D02*
Y377498D01*
X701497D01*
X702497Y376498D01*
Y374499D01*
X701497Y373499D01*
X698498D01*
X707495Y371500D02*
Y377498D01*
X704496Y374499D01*
X708495D01*
X691500Y318998D02*
X695499D01*
X693499D01*
Y313000D01*
X697498D02*
Y318998D01*
X700497D01*
X701497Y317998D01*
Y315999D01*
X700497Y314999D01*
X697498D01*
X703496Y318998D02*
X707495D01*
Y317998D01*
X703496Y314000D01*
Y313000D01*
X691500Y228498D02*
X695499D01*
X693499D01*
Y222500D01*
X697498D02*
Y228498D01*
X700497D01*
X701497Y227498D01*
Y225499D01*
X700497Y224499D01*
X697498D01*
X703496Y227498D02*
X704496Y228498D01*
X706495D01*
X707495Y227498D01*
Y226499D01*
X706495Y225499D01*
X707495Y224499D01*
Y223500D01*
X706495Y222500D01*
X704496D01*
X703496Y223500D01*
Y224499D01*
X704496Y225499D01*
X703496Y226499D01*
Y227498D01*
X704496Y225499D02*
X706495D01*
X690500Y281498D02*
X694499D01*
X692499D01*
Y275500D01*
X696498D02*
Y281498D01*
X699497D01*
X700497Y280498D01*
Y278499D01*
X699497Y277499D01*
X696498D01*
X702496Y280498D02*
X703496Y281498D01*
X705495D01*
X706495Y280498D01*
Y279499D01*
X705495Y278499D01*
X704495D01*
X705495D01*
X706495Y277499D01*
Y276500D01*
X705495Y275500D01*
X703496D01*
X702496Y276500D01*
X347950Y322449D02*
Y318450D01*
Y320449D01*
X348950Y321449D01*
X349949Y322449D01*
X350949D01*
X356947Y318450D02*
X354948D01*
X353948Y319450D01*
Y321449D01*
X354948Y322449D01*
X356947D01*
X357947Y321449D01*
Y320449D01*
X353948D01*
X359946Y318450D02*
X361946D01*
X360946D01*
Y324448D01*
X359946D01*
X365944Y322449D02*
X367944D01*
X368943Y321449D01*
Y318450D01*
X365944D01*
X364945Y319450D01*
X365944Y320449D01*
X368943D01*
X370943Y322449D02*
Y319450D01*
X371942Y318450D01*
X374941D01*
Y317450D01*
X373942Y316451D01*
X372942D01*
X374941Y318450D02*
Y322449D01*
X376941Y318450D02*
X378940D01*
X377940D01*
Y324448D01*
X376941Y323448D01*
X242300Y276800D02*
Y282798D01*
X244299Y280799D01*
X246299Y282798D01*
Y276800D01*
X249298D02*
X251297D01*
X252297Y277800D01*
Y279799D01*
X251297Y280799D01*
X249298D01*
X248298Y279799D01*
Y277800D01*
X249298Y276800D01*
X254296D02*
X257295D01*
X258295Y277800D01*
X257295Y278799D01*
X255296D01*
X254296Y279799D01*
X255296Y280799D01*
X258295D01*
X264293Y276800D02*
X260294D01*
X264293Y280799D01*
Y281798D01*
X263293Y282798D01*
X261294D01*
X260294Y281798D01*
X234300Y204300D02*
Y210298D01*
X236299Y208299D01*
X238299Y210298D01*
Y204300D01*
X241298D02*
X243297D01*
X244297Y205300D01*
Y207299D01*
X243297Y208299D01*
X241298D01*
X240298Y207299D01*
Y205300D01*
X241298Y204300D01*
X246296D02*
X249295D01*
X250295Y205300D01*
X249295Y206299D01*
X247296D01*
X246296Y207299D01*
X247296Y208299D01*
X250295D01*
X252294Y204300D02*
X254293D01*
X253294D01*
Y210298D01*
X252294Y209298D01*
X581599Y382398D02*
X580599Y383398D01*
X578600D01*
X577600Y382398D01*
Y378400D01*
X578600Y377400D01*
X580599D01*
X581599Y378400D01*
X583598Y382398D02*
X584598Y383398D01*
X586597D01*
X587597Y382398D01*
Y381399D01*
X586597Y380399D01*
X587597Y379399D01*
Y378400D01*
X586597Y377400D01*
X584598D01*
X583598Y378400D01*
Y379399D01*
X584598Y380399D01*
X583598Y381399D01*
Y382398D01*
X584598Y380399D02*
X586597D01*
X640500Y314998D02*
X644499D01*
X642499D01*
Y309000D01*
X646498Y314998D02*
Y310999D01*
X648497Y309000D01*
X650497Y310999D01*
Y314998D01*
X656495Y313998D02*
X655495Y314998D01*
X653496D01*
X652496Y313998D01*
Y312999D01*
X653496Y311999D01*
X655495D01*
X656495Y310999D01*
Y310000D01*
X655495Y309000D01*
X653496D01*
X652496Y310000D01*
X658494Y309000D02*
X660494D01*
X659494D01*
Y314998D01*
X658494Y313998D01*
X596150Y302350D02*
Y308348D01*
X599149D01*
X600149Y307348D01*
Y305349D01*
X599149Y304349D01*
X596150D01*
X598149D02*
X600149Y302350D01*
X604147Y300351D02*
X605147D01*
X606147Y301350D01*
Y306349D01*
X603148D01*
X602148Y305349D01*
Y303350D01*
X603148Y302350D01*
X606147D01*
X608146D02*
X610146D01*
X609146D01*
Y308348D01*
X608146Y307348D01*
X668699Y469698D02*
X667699Y470698D01*
X665700D01*
X664700Y469698D01*
Y465700D01*
X665700Y464700D01*
X667699D01*
X668699Y465700D01*
X670698Y469698D02*
X671698Y470698D01*
X673697D01*
X674697Y469698D01*
Y468699D01*
X673697Y467699D01*
X672697D01*
X673697D01*
X674697Y466699D01*
Y465700D01*
X673697Y464700D01*
X671698D01*
X670698Y465700D01*
X681699Y469198D02*
X680699Y470198D01*
X678700D01*
X677700Y469198D01*
Y465200D01*
X678700Y464200D01*
X680699D01*
X681699Y465200D01*
X686697Y464200D02*
Y470198D01*
X683698Y467199D01*
X687697D01*
X671599Y426598D02*
X670599Y427598D01*
X668600D01*
X667600Y426598D01*
Y422600D01*
X668600Y421600D01*
X670599D01*
X671599Y422600D01*
X677597Y427598D02*
X673598D01*
Y424599D01*
X675597Y425599D01*
X676597D01*
X677597Y424599D01*
Y422600D01*
X676597Y421600D01*
X674598D01*
X673598Y422600D01*
X687599Y425098D02*
X686599Y426098D01*
X684600D01*
X683600Y425098D01*
Y421100D01*
X684600Y420100D01*
X686599D01*
X687599Y421100D01*
X693597Y426098D02*
X691597Y425098D01*
X689598Y423099D01*
Y421100D01*
X690598Y420100D01*
X692597D01*
X693597Y421100D01*
Y422099D01*
X692597Y423099D01*
X689598D01*
X637599Y383398D02*
X636599Y384398D01*
X634600D01*
X633600Y383398D01*
Y379400D01*
X634600Y378400D01*
X636599D01*
X637599Y379400D01*
X639598D02*
X640598Y378400D01*
X642597D01*
X643597Y379400D01*
Y383398D01*
X642597Y384398D01*
X640598D01*
X639598Y383398D01*
Y382399D01*
X640598Y381399D01*
X643597D01*
X532599Y391401D02*
X532099Y390901D01*
X531100D01*
X530600Y391401D01*
Y393400D01*
X531100Y393900D01*
X532099D01*
X532599Y393400D01*
X533599Y393900D02*
X534599D01*
X534099D01*
Y390901D01*
X533599Y391401D01*
X536098D02*
X536598Y390901D01*
X537598D01*
X538098Y391401D01*
Y393400D01*
X537598Y393900D01*
X536598D01*
X536098Y393400D01*
Y391401D01*
X528999Y354801D02*
X528500Y354301D01*
X527500D01*
X527000Y354801D01*
Y356800D01*
X527500Y357300D01*
X528500D01*
X528999Y356800D01*
X529999Y357300D02*
X530999D01*
X530499D01*
Y354301D01*
X529999Y354801D01*
X532498Y357300D02*
X533498D01*
X532998D01*
Y354301D01*
X532498Y354801D01*
X579433Y359066D02*
X579100Y359399D01*
X578433D01*
X578100Y359066D01*
Y357733D01*
X578433Y357400D01*
X579100D01*
X579433Y357733D01*
X580099Y357400D02*
X580766D01*
X580433D01*
Y359399D01*
X580099Y359066D01*
X583098Y357400D02*
X581766D01*
X583098Y358733D01*
Y359066D01*
X582765Y359399D01*
X582099D01*
X581766Y359066D01*
X513266Y441232D02*
X512599Y441899D01*
X511266D01*
X510600Y441232D01*
Y438566D01*
X511266Y437900D01*
X512599D01*
X513266Y438566D01*
X514599Y437900D02*
Y441899D01*
X516598D01*
X517265Y441232D01*
Y439899D01*
X516598Y439233D01*
X514599D01*
X515932D02*
X517265Y437900D01*
X518597D02*
X519930D01*
X519264D01*
Y441899D01*
X518597Y441232D01*
X495666Y448632D02*
X494999Y449299D01*
X493666D01*
X493000Y448632D01*
Y445966D01*
X493666Y445300D01*
X494999D01*
X495666Y445966D01*
X496999Y447966D02*
Y445300D01*
Y446633D01*
X497665Y447299D01*
X498332Y447966D01*
X498998D01*
X503663Y445300D02*
X500997D01*
X503663Y447966D01*
Y448632D01*
X502997Y449299D01*
X501664D01*
X500997Y448632D01*
X531599Y304398D02*
X530599Y305398D01*
X528600D01*
X527600Y304398D01*
Y300400D01*
X528600Y299400D01*
X530599D01*
X531599Y300400D01*
X533598Y299400D02*
Y305398D01*
X536597D01*
X537597Y304398D01*
Y302399D01*
X536597Y301399D01*
X533598D01*
X535597D02*
X537597Y299400D01*
X539596Y304398D02*
X540596Y305398D01*
X542595D01*
X543595Y304398D01*
Y303399D01*
X542595Y302399D01*
X541596D01*
X542595D01*
X543595Y301399D01*
Y300400D01*
X542595Y299400D01*
X540596D01*
X539596Y300400D01*
X512999Y311798D02*
X511999Y312798D01*
X510000D01*
X509000Y311798D01*
Y307800D01*
X510000Y306800D01*
X511999D01*
X512999Y307800D01*
X514998Y310799D02*
Y306800D01*
Y308799D01*
X515998Y309799D01*
X516997Y310799D01*
X517997D01*
X523995Y306800D02*
Y312798D01*
X520996Y309799D01*
X524995D01*
X302500Y127000D02*
Y131998D01*
Y129999D01*
X301500D01*
X303499D01*
X302500D01*
Y131998D01*
X303499Y132998D01*
X306498Y130999D02*
Y128000D01*
X307498Y127000D01*
X310497D01*
Y130999D01*
X312496Y127000D02*
X315495D01*
X316495Y128000D01*
X315495Y128999D01*
X313496D01*
X312496Y129999D01*
X313496Y130999D01*
X316495D01*
X321494Y127000D02*
X319494D01*
X318495Y128000D01*
Y129999D01*
X319494Y130999D01*
X321494D01*
X322493Y129999D01*
Y128999D01*
X318495D01*
X324493Y127000D02*
X326492D01*
X325492D01*
Y132998D01*
X324493Y131998D01*
X549666Y274332D02*
X548999Y274999D01*
X547666D01*
X547000Y274332D01*
Y271666D01*
X547666Y271000D01*
X548999D01*
X549666Y271666D01*
Y272999D01*
X548333D01*
X551665Y273666D02*
X552998D01*
X553664Y272999D01*
Y271000D01*
X551665D01*
X550999Y271666D01*
X551665Y272333D01*
X553664D01*
X555664Y274332D02*
Y273666D01*
X554997D01*
X556330D01*
X555664D01*
Y271666D01*
X556330Y271000D01*
X560329D02*
X558996D01*
X558330Y271666D01*
Y272999D01*
X558996Y273666D01*
X560329D01*
X560995Y272999D01*
Y272333D01*
X558330D01*
X562328Y270334D02*
X564994D01*
X566327Y274999D02*
Y271000D01*
X568327D01*
X568993Y271666D01*
Y274332D01*
X568327Y274999D01*
X566327D01*
X570326Y273666D02*
Y271000D01*
Y272333D01*
X570992Y272999D01*
X571659Y273666D01*
X572325D01*
X574325Y271000D02*
X575657D01*
X574991D01*
Y273666D01*
X574325D01*
X577657D02*
X578990Y271000D01*
X580323Y273666D01*
X583655Y271000D02*
X582322D01*
X581656Y271666D01*
Y272999D01*
X582322Y273666D01*
X583655D01*
X584321Y272999D01*
Y272333D01*
X581656D01*
X585654Y273666D02*
Y271000D01*
Y272333D01*
X586321Y272999D01*
X586987Y273666D01*
X587653D01*
X592319Y271000D02*
X589653D01*
X592319Y273666D01*
Y274332D01*
X591652Y274999D01*
X590319D01*
X589653Y274332D01*
X619800Y474200D02*
Y480198D01*
X621799Y478199D01*
X623799Y480198D01*
Y474200D01*
X629797Y480198D02*
X625798D01*
Y474200D01*
X629797D01*
X625798Y477199D02*
X627797D01*
X635795Y480198D02*
X633795D01*
X634795D01*
Y475200D01*
X633795Y474200D01*
X632796D01*
X631796Y475200D01*
X637794Y474200D02*
X639793D01*
X638794D01*
Y480198D01*
X637794Y479198D01*
X597499Y385498D02*
X595500D01*
X594500Y384498D01*
Y380500D01*
X595500Y379500D01*
X597499D01*
X598499Y380500D01*
Y384498D01*
X597499Y385498D01*
X600498Y379500D02*
Y385498D01*
X603497D01*
X604497Y384498D01*
Y382499D01*
X603497Y381499D01*
X600498D01*
X606496Y385498D02*
X610495D01*
X608496D01*
Y379500D01*
X612494D02*
X614494D01*
X613494D01*
Y385498D01*
X612494Y384498D01*
X692500Y401998D02*
X696499D01*
X694499D01*
Y396000D01*
X698498D02*
Y401998D01*
X701497D01*
X702497Y400998D01*
Y398999D01*
X701497Y397999D01*
X698498D01*
X708495Y396000D02*
X704496D01*
X708495Y399999D01*
Y400998D01*
X707495Y401998D01*
X705496D01*
X704496Y400998D01*
X501450Y476048D02*
X505449D01*
X503449D01*
Y470050D01*
X507448D02*
Y476048D01*
X510447D01*
X511447Y475048D01*
Y473049D01*
X510447Y472049D01*
X507448D01*
X513446Y470050D02*
Y476048D01*
X516445D01*
X517445Y475048D01*
Y473049D01*
X516445Y472049D01*
X513446D01*
X515446D02*
X517445Y470050D01*
X523443Y476048D02*
X519444D01*
Y470050D01*
X523443D01*
X519444Y473049D02*
X521444D01*
X525442Y476048D02*
Y470050D01*
X529441D01*
X531440D02*
Y474049D01*
X533440Y476048D01*
X535439Y474049D01*
Y470050D01*
Y473049D01*
X531440D01*
X537438Y476048D02*
Y475048D01*
X539438Y473049D01*
X541437Y475048D01*
Y476048D01*
X539438Y473049D02*
Y470050D01*
X543436D02*
X545436D01*
X544436D01*
Y476048D01*
X543436Y475048D01*
X131800Y200198D02*
Y195200D01*
X132800Y194200D01*
X134799D01*
X135799Y195200D01*
Y200198D01*
X137798Y194200D02*
X139797D01*
X138798D01*
Y200198D01*
X137798Y199198D01*
X132300Y281198D02*
Y276200D01*
X133300Y275200D01*
X135299D01*
X136299Y276200D01*
Y281198D01*
X142297Y275200D02*
X138298D01*
X142297Y279199D01*
Y280198D01*
X141297Y281198D01*
X139298D01*
X138298Y280198D01*
X133800Y383198D02*
Y378200D01*
X134800Y377200D01*
X136799D01*
X137799Y378200D01*
Y383198D01*
X142797Y377200D02*
Y383198D01*
X139798Y380199D01*
X143797D01*
X282250Y479748D02*
Y474750D01*
X283250Y473750D01*
X285249D01*
X286249Y474750D01*
Y479748D01*
X292247D02*
X288248D01*
Y476749D01*
X290247Y477749D01*
X291247D01*
X292247Y476749D01*
Y474750D01*
X291247Y473750D01*
X289248D01*
X288248Y474750D01*
X541100Y371501D02*
Y374000D01*
X541600Y374500D01*
X542599D01*
X543099Y374000D01*
Y371501D01*
X546098D02*
X545099Y372001D01*
X544099Y373001D01*
Y374000D01*
X544599Y374500D01*
X545599D01*
X546098Y374000D01*
Y373500D01*
X545599Y373001D01*
X544099D01*
X658900Y366498D02*
Y361500D01*
X657900Y360500D01*
X655901D01*
X654901Y361500D01*
Y366498D01*
X652902D02*
X648903D01*
Y365498D01*
X652902Y361500D01*
Y360500D01*
X534499Y411499D02*
X533999Y411999D01*
X533000D01*
X532500Y411499D01*
Y409500D01*
X533000Y409000D01*
X533999D01*
X534499Y409500D01*
Y410499D01*
X533500D01*
X535999Y410999D02*
X536999D01*
X537498Y410499D01*
Y409000D01*
X535999D01*
X535499Y409500D01*
X535999Y410000D01*
X537498D01*
X538998Y411499D02*
Y410999D01*
X538498D01*
X539498D01*
X538998D01*
Y409500D01*
X539498Y409000D01*
X542497D02*
X541497D01*
X540997Y409500D01*
Y410499D01*
X541497Y410999D01*
X542497D01*
X542997Y410499D01*
Y410000D01*
X540997D01*
X543996Y408500D02*
X545996D01*
X546995Y411999D02*
Y409000D01*
X548495D01*
X548995Y409500D01*
Y411499D01*
X548495Y411999D01*
X546995D01*
X549994Y410999D02*
Y409000D01*
Y410000D01*
X550494Y410499D01*
X550994Y410999D01*
X551494D01*
X552993Y409000D02*
X553993D01*
X553493D01*
Y410999D01*
X552993D01*
X555493D02*
X556492Y409000D01*
X557492Y410999D01*
X559991Y409000D02*
X558991D01*
X558492Y409500D01*
Y410499D01*
X558991Y410999D01*
X559991D01*
X560491Y410499D01*
Y410000D01*
X558492D01*
X561491Y410999D02*
Y409000D01*
Y410000D01*
X561990Y410499D01*
X562490Y410999D01*
X562990D01*
X564490Y409000D02*
X565489D01*
X564990D01*
Y411999D01*
X564490Y411499D01*
X608099Y487598D02*
X607099Y488598D01*
X605100D01*
X604100Y487598D01*
Y483600D01*
X605100Y482600D01*
X607099D01*
X608099Y483600D01*
X610098Y482600D02*
X612097D01*
X611098D01*
Y488598D01*
X610098Y487598D01*
X684500Y172500D02*
Y178498D01*
X687499D01*
X688499Y177498D01*
Y175499D01*
X687499Y174499D01*
X684500D01*
X690498Y172500D02*
X692497D01*
X691498D01*
Y178498D01*
X690498Y177498D01*
X555600Y481400D02*
Y487398D01*
X558599D01*
X559599Y486398D01*
Y484399D01*
X558599Y483399D01*
X555600D01*
X557599D02*
X559599Y481400D01*
X561598D02*
X563597D01*
X562598D01*
Y487398D01*
X561598Y486398D01*
X603100Y438400D02*
Y444398D01*
X606099D01*
X607099Y443398D01*
Y441399D01*
X606099Y440399D01*
X603100D01*
X605099D02*
X607099Y438400D01*
X613097D02*
X609098D01*
X613097Y442399D01*
Y443398D01*
X612097Y444398D01*
X610098D01*
X609098Y443398D01*
X456750Y208248D02*
Y203250D01*
X457750Y202250D01*
X459749D01*
X460749Y203250D01*
Y208248D01*
X462748Y207248D02*
X463748Y208248D01*
X465747D01*
X466747Y207248D01*
Y206249D01*
X465747Y205249D01*
X464747D01*
X465747D01*
X466747Y204249D01*
Y203250D01*
X465747Y202250D01*
X463748D01*
X462748Y203250D01*
D48*
X527500Y708000D02*
X511500D01*
X527500Y699000D02*
Y708000D01*
Y699000D02*
X511500D01*
Y703500D01*
Y708000D01*
X576000Y839500D02*
X556000D01*
X576000Y799500D02*
X556000D01*
Y839500D01*
X576000Y799500D02*
Y839500D01*
X372933Y521004D02*
X352067D01*
X372933Y533996D02*
X352067D01*
X623000Y273500D02*
Y287500D01*
X630000D01*
Y273500D02*
Y287500D01*
X623000Y273500D02*
X629906D01*
X612000D02*
Y287500D01*
X619000D01*
Y273500D02*
Y287500D01*
X612000Y273500D02*
X618905D01*
X612000Y255000D02*
X616500D01*
X612000D02*
Y271000D01*
X621000D01*
Y255000D02*
Y271000D01*
X616500Y255000D02*
X621000D01*
X677752Y321425D02*
X684248D01*
X677752D02*
Y324575D01*
X684248Y321425D02*
Y324575D01*
X671500Y328500D02*
Y333000D01*
X655500D02*
X671500D01*
X655500Y324000D02*
Y333000D01*
Y324000D02*
X671500D01*
Y328500D01*
Y359000D02*
X676000D01*
X671500D02*
Y375000D01*
X680500D01*
Y359000D02*
Y375000D01*
X676000Y359000D02*
X680500D01*
X602595Y435000D02*
X609500D01*
X602500Y421000D02*
Y435000D01*
Y421000D02*
X609500D01*
Y435000D01*
X555000Y464000D02*
X561905D01*
X562000D02*
Y478000D01*
X555000D02*
X562000D01*
X555000Y464000D02*
Y478000D01*
X577000Y374000D02*
X581500D01*
X577000Y358000D02*
Y374000D01*
Y358000D02*
X586000D01*
Y374000D01*
X581500D02*
X586000D01*
X595500Y297000D02*
X609500D01*
Y290000D02*
Y297000D01*
X595500Y290000D02*
X609500D01*
X595500Y290094D02*
Y297000D01*
X673453Y408925D02*
Y412075D01*
X667547Y408925D02*
Y412075D01*
X689453Y407425D02*
Y410575D01*
X683547Y407425D02*
Y410575D01*
X536000Y280000D02*
Y296000D01*
X527000Y280000D02*
X536000D01*
X527000D02*
Y296000D01*
X531500D01*
X536000D01*
X519000Y418500D02*
Y434500D01*
X510000Y418500D02*
X519000D01*
X510000D02*
Y434500D01*
X514500D01*
X519000D01*
X577500Y354000D02*
X582000D01*
X577500Y338000D02*
Y354000D01*
Y338000D02*
X586500D01*
Y354000D01*
X582000D02*
X586500D01*
X529752Y340425D02*
X536248D01*
X529752D02*
Y343575D01*
X536248Y340425D02*
Y343575D01*
X530000Y371500D02*
X534500D01*
X530000D02*
Y387500D01*
X539000D01*
Y371500D02*
Y387500D01*
X534500Y371500D02*
X539000D01*
X633000Y375000D02*
X637500D01*
X633000Y359000D02*
Y375000D01*
Y359000D02*
X642000D01*
Y375000D01*
X637500D02*
X642000D01*
X609953Y469925D02*
Y473075D01*
X604047Y469925D02*
Y473075D01*
X303567Y137413D02*
X324433D01*
X303567Y151587D02*
X324433D01*
X627000Y157000D02*
Y177000D01*
X677000Y157000D02*
Y177000D01*
X627000Y157000D02*
X677000D01*
X627000Y177000D02*
X677000D01*
D49*
X506043Y749524D02*
Y778657D01*
X527697D02*
X506043D01*
X527697Y749524D02*
Y778657D01*
Y749524D02*
X506043D01*
X619012Y471000D02*
X658185D01*
X619012Y393638D02*
Y471000D01*
Y393638D02*
X658185D01*
Y471000D01*
X532842Y439039D02*
X561976D01*
X532842Y417386D02*
Y439039D01*
Y417386D02*
X561976D01*
Y439039D01*
X553933Y300728D02*
X583067D01*
Y279075D02*
Y300728D01*
X553933Y279075D02*
X583067D01*
X553933D02*
Y300728D01*
D50*
X482221Y541445D02*
X206630D01*
X482221D02*
Y777665D01*
X206630D01*
Y541445D02*
Y777665D01*
D51*
X558835Y840500D02*
X558002Y841333D01*
Y842999D01*
X558835Y843832D01*
X559668D01*
X560501Y842999D01*
X561334Y843832D01*
X562167D01*
X563000Y842999D01*
Y841333D01*
X562167Y840500D01*
X561334D01*
X560501Y841333D01*
X559668Y840500D01*
X558835D01*
X560501Y841333D02*
Y842999D01*
X568002Y840500D02*
Y843832D01*
X568835D01*
X572167Y840500D01*
X573000D01*
Y796500D02*
Y798166D01*
Y797333D01*
X568002D01*
X568835Y796500D01*
X563000Y797832D02*
Y794500D01*
X559668Y797832D01*
X558835D01*
X558002Y796999D01*
Y795333D01*
X558835Y794500D01*
X678668Y164000D02*
X682000D01*
X678668Y160668D01*
Y159835D01*
X679501Y159002D01*
X681167D01*
X682000Y159835D01*
X680000Y174000D02*
X678334D01*
X679167D01*
Y169002D01*
X680000Y169835D01*
X626000Y173167D02*
X625167Y174000D01*
X623501D01*
X622668Y173167D01*
Y169835D01*
X623501Y169002D01*
X625167D01*
X626000Y169835D01*
Y170668D01*
X625167Y171501D01*
X622668D01*
X626000Y164000D02*
X624334D01*
X625167D01*
Y159002D01*
X626000Y159835D01*
X621835D02*
X621002Y159002D01*
X619336D01*
X618502Y159835D01*
Y163167D01*
X619336Y164000D01*
X621002D01*
X621835Y163167D01*
Y159835D01*
D52*
X658500Y341000D02*
D03*
X606000Y372500D02*
D03*
X553000Y365000D02*
D03*
D53*
X680963Y322508D02*
D03*
X532962Y341508D02*
D03*
M02*
