G04 Layer_Color=16711935*
%FSLAX25Y25*%
%MOIN*%
G70*
G01*
G75*
%ADD75C,0.00800*%
%ADD76C,0.20485*%
%ADD77C,0.07887*%
%ADD78R,0.06706X0.06706*%
%ADD79C,0.06706*%
%ADD80R,0.36233X0.36233*%
%ADD81R,0.48044X0.48044*%
%ADD82C,0.05800*%
%ADD83C,0.10642*%
%ADD84C,0.14579*%
%ADD85R,0.06706X0.06706*%
D75*
X573361Y517988D02*
D03*
X510000Y844500D02*
D03*
X215000Y522500D02*
D03*
X212000Y841500D02*
D03*
X698500Y118500D02*
D03*
X112000Y120000D02*
D03*
X120000Y473000D02*
D03*
X698000Y484500D02*
D03*
D76*
X353000Y798500D02*
D03*
X316000D02*
D03*
Y837500D02*
D03*
X353000D02*
D03*
X570000Y651500D02*
D03*
Y614500D02*
D03*
X531000D02*
D03*
Y651500D02*
D03*
X328500Y421500D02*
D03*
X291500D02*
D03*
Y460500D02*
D03*
X328500D02*
D03*
X143000Y327000D02*
D03*
Y364000D02*
D03*
X182000D02*
D03*
Y327000D02*
D03*
X180500Y262000D02*
D03*
Y225000D02*
D03*
X141500D02*
D03*
Y262000D02*
D03*
X180000Y181000D02*
D03*
Y144000D02*
D03*
X141000D02*
D03*
Y181000D02*
D03*
X503000Y150000D02*
D03*
X466000D02*
D03*
Y189000D02*
D03*
X503000D02*
D03*
D77*
X438500Y828000D02*
D03*
X464000Y827500D02*
D03*
X490000Y827000D02*
D03*
X701000Y457500D02*
D03*
X702000Y437500D02*
D03*
X702500Y413000D02*
D03*
X702000Y363000D02*
D03*
Y305500D02*
D03*
X703500Y236500D02*
D03*
X702500Y288000D02*
D03*
X703500Y387000D02*
D03*
X506500Y461000D02*
D03*
D78*
X571000Y804500D02*
D03*
D79*
X561000D02*
D03*
X571000Y814500D02*
D03*
X561000D02*
D03*
X571000Y824500D02*
D03*
X561000D02*
D03*
X571000Y834500D02*
D03*
X561000D02*
D03*
X648343Y459386D02*
D03*
Y449346D02*
D03*
Y420016D02*
D03*
Y400035D02*
D03*
X672000Y162000D02*
D03*
X662000Y172000D02*
D03*
Y162000D02*
D03*
X652000Y172000D02*
D03*
Y162000D02*
D03*
X642000Y172000D02*
D03*
Y162000D02*
D03*
X632000Y172000D02*
D03*
Y162000D02*
D03*
D80*
X416079Y700500D02*
D03*
Y600500D02*
D03*
D81*
X246000Y708925D02*
D03*
Y600500D02*
D03*
D82*
X540500Y745500D02*
D03*
X525000Y739000D02*
D03*
X517000Y791000D02*
D03*
X505500Y326000D02*
D03*
X511500Y328500D02*
D03*
X514500Y335000D02*
D03*
X519000Y340500D02*
D03*
X513000Y343500D02*
D03*
X508000Y339000D02*
D03*
X506500Y332000D02*
D03*
X589500Y488000D02*
D03*
X551000Y415000D02*
D03*
X637500Y343000D02*
D03*
X672000Y384000D02*
D03*
X571500Y431000D02*
D03*
X544000Y323000D02*
D03*
X574000Y355000D02*
D03*
X549362Y292362D02*
D03*
X559000Y309000D02*
D03*
X590000Y368500D02*
D03*
X628500D02*
D03*
X546000Y393500D02*
D03*
X524500Y424500D02*
D03*
X571980Y468480D02*
D03*
X520890Y347610D02*
D03*
D83*
X397500Y198000D02*
D03*
Y228709D02*
D03*
Y268472D02*
D03*
X397106Y288551D02*
D03*
X661000Y236500D02*
D03*
X659000Y291618D02*
D03*
D84*
X243150Y191000D02*
D03*
X264213D02*
D03*
X285000D02*
D03*
X251150Y263500D02*
D03*
X272213D02*
D03*
X293000D02*
D03*
D85*
X672000Y172000D02*
D03*
M02*
