G04 Layer_Physical_Order=2*
G04 Layer_Color=36540*
%FSLAX25Y25*%
%MOIN*%
G70*
G01*
G75*
%ADD15C,0.10000*%
%ADD16C,0.03000*%
%ADD38C,0.19685*%
%ADD39C,0.07087*%
%ADD41C,0.05905*%
%ADD44C,0.05000*%
%ADD45C,0.09842*%
%ADD46C,0.13780*%
%ADD47R,0.05905X0.05905*%
G36*
X580000Y624058D02*
X579531Y623885D01*
X579464Y623964D01*
X577867Y625328D01*
X576076Y626425D01*
X574136Y627229D01*
X572094Y627719D01*
X570000Y627884D01*
X567906Y627719D01*
X565864Y627229D01*
X563924Y626425D01*
X562133Y625328D01*
X560536Y623964D01*
X559172Y622367D01*
X558075Y620576D01*
X557271Y618636D01*
X556781Y616594D01*
X556616Y614500D01*
X556781Y612406D01*
X557271Y610364D01*
X558075Y608424D01*
X559172Y606633D01*
X560536Y605036D01*
X562133Y603672D01*
X563924Y602575D01*
X565864Y601771D01*
X567906Y601281D01*
X570000Y601116D01*
X572094Y601281D01*
X574136Y601771D01*
X576076Y602575D01*
X577867Y603672D01*
X579464Y605036D01*
X579531Y605115D01*
X580000Y604942D01*
Y527919D01*
X579564Y527674D01*
X578598Y528266D01*
X576926Y528959D01*
X575165Y529382D01*
X573361Y529524D01*
X571556Y529382D01*
X569796Y528959D01*
X568124Y528266D01*
X566580Y527321D01*
X565204Y526145D01*
X564028Y524768D01*
X563083Y523225D01*
X562390Y521553D01*
X561967Y519793D01*
X561828Y518020D01*
X226447Y518936D01*
X226138Y519329D01*
X226464Y520684D01*
X226607Y522500D01*
X226464Y524316D01*
X226039Y526087D01*
X225342Y527769D01*
X224390Y529322D01*
X223207Y530707D01*
X221822Y531890D01*
X220269Y532842D01*
X218587Y533539D01*
X216816Y533964D01*
X215000Y534107D01*
X213184Y533964D01*
X211413Y533539D01*
X209731Y532842D01*
X208178Y531890D01*
X206793Y530707D01*
X205610Y529322D01*
X204658Y527769D01*
X203961Y526087D01*
X203536Y524316D01*
X203393Y522500D01*
X203536Y520684D01*
X203847Y519391D01*
X203537Y518998D01*
X203000Y519000D01*
X202000Y520000D01*
Y834752D01*
X202481Y834888D01*
X202610Y834678D01*
X203793Y833293D01*
X205178Y832110D01*
X206731Y831158D01*
X208413Y830461D01*
X210184Y830036D01*
X212000Y829893D01*
X213816Y830036D01*
X215587Y830461D01*
X217269Y831158D01*
X218822Y832110D01*
X220207Y833293D01*
X221390Y834678D01*
X222342Y836231D01*
X223039Y837913D01*
X223464Y839684D01*
X223607Y841500D01*
X223464Y843316D01*
X223039Y845087D01*
X222453Y846500D01*
X222764Y847000D01*
X305910D01*
X306140Y846500D01*
X305172Y845367D01*
X304075Y843576D01*
X303271Y841636D01*
X302781Y839594D01*
X302616Y837500D01*
X302781Y835406D01*
X303271Y833364D01*
X304075Y831424D01*
X305172Y829633D01*
X306536Y828036D01*
X308133Y826672D01*
X309924Y825575D01*
X311864Y824771D01*
X313906Y824281D01*
X316000Y824116D01*
X318094Y824281D01*
X320136Y824771D01*
X322076Y825575D01*
X323867Y826672D01*
X325464Y828036D01*
X326828Y829633D01*
X327925Y831424D01*
X328729Y833364D01*
X329219Y835406D01*
X329384Y837500D01*
X329219Y839594D01*
X328729Y841636D01*
X327925Y843576D01*
X326828Y845367D01*
X325860Y846500D01*
X326090Y847000D01*
X498370D01*
X498679Y846607D01*
X498606Y846305D01*
X498464Y844500D01*
X498606Y842695D01*
X499029Y840935D01*
X499722Y839263D01*
X500667Y837720D01*
X501843Y836343D01*
X503220Y835168D01*
X504763Y834222D01*
X506435Y833529D01*
X508195Y833107D01*
X510000Y832965D01*
X511805Y833107D01*
X513565Y833529D01*
X515237Y834222D01*
X516780Y835168D01*
X518157Y836343D01*
X519332Y837720D01*
X520278Y839263D01*
X520971Y840935D01*
X521393Y842695D01*
X521535Y844500D01*
X521393Y846305D01*
X521321Y846607D01*
X521630Y847000D01*
X580000D01*
Y624058D01*
D02*
G37*
G36*
X607000Y492500D02*
Y492500D01*
X689500D01*
Y487727D01*
X689060Y486278D01*
X688885Y484500D01*
X689060Y482722D01*
X689500Y481273D01*
Y475500D01*
X695000Y470000D01*
X707500D01*
Y423153D01*
X707038Y422962D01*
X705500Y424500D01*
X646500D01*
X608000Y386000D01*
X607500Y386000D01*
Y324500D01*
X547167D01*
X547057Y324765D01*
X546496Y325496D01*
X545765Y326057D01*
X544914Y326410D01*
X544000Y326530D01*
X543086Y326410D01*
X542235Y326057D01*
X541504Y325496D01*
X540943Y324765D01*
X540833Y324500D01*
X491319D01*
Y405000D01*
X491500D01*
Y492500D01*
X607000Y492500D01*
D02*
G37*
G36*
X709000Y420500D02*
X709000Y214500D01*
X611000D01*
Y232500D01*
X519000D01*
X505000Y276325D01*
X505000Y315646D01*
X505353Y316000D01*
X611000Y316000D01*
X611000Y384000D01*
X647500Y420500D01*
X709000Y420500D01*
D02*
G37*
G36*
X693500Y198500D02*
X694500Y197500D01*
X693555Y126145D01*
X693435Y126081D01*
X692053Y124947D01*
X690919Y123565D01*
X690083Y122000D01*
X536500D01*
Y200144D01*
X536856Y200496D01*
X693500Y198500D01*
D02*
G37*
%LPC*%
G36*
X571000Y840984D02*
X569735Y840859D01*
X568519Y840490D01*
X567398Y839891D01*
X566415Y839085D01*
X566250Y838884D01*
X565750D01*
X565585Y839085D01*
X564602Y839891D01*
X563481Y840490D01*
X562265Y840859D01*
X561000Y840984D01*
X559735Y840859D01*
X558519Y840490D01*
X557398Y839891D01*
X556415Y839085D01*
X555609Y838102D01*
X555010Y836981D01*
X554641Y835765D01*
X554516Y834500D01*
X554641Y833235D01*
X555010Y832019D01*
X555609Y830898D01*
X556415Y829915D01*
X556616Y829750D01*
Y829250D01*
X556415Y829085D01*
X555609Y828102D01*
X555010Y826981D01*
X554641Y825765D01*
X554516Y824500D01*
X554641Y823235D01*
X555010Y822019D01*
X555609Y820898D01*
X556415Y819915D01*
X556616Y819750D01*
Y819250D01*
X556415Y819085D01*
X555609Y818102D01*
X555010Y816981D01*
X554641Y815765D01*
X554516Y814500D01*
X554641Y813235D01*
X555010Y812019D01*
X555609Y810898D01*
X556415Y809915D01*
X556616Y809750D01*
Y809250D01*
X556415Y809085D01*
X555609Y808102D01*
X555010Y806981D01*
X554641Y805765D01*
X554516Y804500D01*
X554641Y803235D01*
X555010Y802019D01*
X555609Y800898D01*
X556415Y799915D01*
X557398Y799109D01*
X558519Y798510D01*
X559735Y798141D01*
X561000Y798016D01*
X562265Y798141D01*
X563481Y798510D01*
X564118Y798850D01*
X564547Y798593D01*
Y798047D01*
X577453D01*
Y810953D01*
X576907D01*
X576650Y811382D01*
X576990Y812019D01*
X577359Y813235D01*
X577484Y814500D01*
X577359Y815765D01*
X576990Y816981D01*
X576391Y818102D01*
X575585Y819085D01*
X575384Y819250D01*
Y819750D01*
X575585Y819915D01*
X576391Y820898D01*
X576990Y822019D01*
X577359Y823235D01*
X577484Y824500D01*
X577359Y825765D01*
X576990Y826981D01*
X576391Y828102D01*
X575585Y829085D01*
X575384Y829250D01*
Y829750D01*
X575585Y829915D01*
X576391Y830898D01*
X576990Y832019D01*
X577359Y833235D01*
X577484Y834500D01*
X577359Y835765D01*
X576990Y836981D01*
X576391Y838102D01*
X575585Y839085D01*
X574602Y839891D01*
X573481Y840490D01*
X572265Y840859D01*
X571000Y840984D01*
D02*
G37*
G36*
X438500Y835077D02*
X437119Y834941D01*
X435792Y834539D01*
X434568Y833885D01*
X433496Y833004D01*
X432615Y831932D01*
X431961Y830708D01*
X431559Y829381D01*
X431423Y828000D01*
X431559Y826619D01*
X431961Y825292D01*
X432615Y824068D01*
X433496Y822996D01*
X434568Y822115D01*
X435792Y821461D01*
X437119Y821059D01*
X438500Y820923D01*
X439881Y821059D01*
X441208Y821461D01*
X442432Y822115D01*
X443504Y822996D01*
X444385Y824068D01*
X445039Y825292D01*
X445441Y826619D01*
X445577Y828000D01*
X445441Y829381D01*
X445039Y830708D01*
X444385Y831932D01*
X443504Y833004D01*
X442432Y833885D01*
X441208Y834539D01*
X439881Y834941D01*
X438500Y835077D01*
D02*
G37*
G36*
X464000Y834577D02*
X462619Y834441D01*
X461292Y834039D01*
X460068Y833385D01*
X458995Y832504D01*
X458115Y831432D01*
X457461Y830208D01*
X457059Y828881D01*
X456923Y827500D01*
X457059Y826119D01*
X457461Y824792D01*
X458115Y823568D01*
X458995Y822496D01*
X460068Y821615D01*
X461292Y820961D01*
X462619Y820559D01*
X464000Y820423D01*
X465381Y820559D01*
X466708Y820961D01*
X467932Y821615D01*
X469004Y822496D01*
X469885Y823568D01*
X470539Y824792D01*
X470941Y826119D01*
X471077Y827500D01*
X470941Y828881D01*
X470539Y830208D01*
X469885Y831432D01*
X469004Y832504D01*
X467932Y833385D01*
X466708Y834039D01*
X465381Y834441D01*
X464000Y834577D01*
D02*
G37*
G36*
X490000Y834077D02*
X488619Y833941D01*
X487292Y833539D01*
X486068Y832885D01*
X484996Y832005D01*
X484115Y830932D01*
X483461Y829708D01*
X483059Y828381D01*
X482923Y827000D01*
X483059Y825619D01*
X483461Y824292D01*
X484115Y823068D01*
X484996Y821996D01*
X486068Y821115D01*
X487292Y820461D01*
X488619Y820059D01*
X490000Y819923D01*
X491381Y820059D01*
X492708Y820461D01*
X493932Y821115D01*
X495004Y821996D01*
X495885Y823068D01*
X496539Y824292D01*
X496941Y825619D01*
X497077Y827000D01*
X496941Y828381D01*
X496539Y829708D01*
X495885Y830932D01*
X495004Y832005D01*
X493932Y832885D01*
X492708Y833539D01*
X491381Y833941D01*
X490000Y834077D01*
D02*
G37*
G36*
X316000Y811884D02*
X313906Y811719D01*
X311864Y811229D01*
X309924Y810425D01*
X308133Y809328D01*
X306536Y807964D01*
X305172Y806367D01*
X304075Y804576D01*
X303271Y802636D01*
X302781Y800594D01*
X302616Y798500D01*
X302781Y796406D01*
X303271Y794364D01*
X304075Y792424D01*
X305172Y790633D01*
X306536Y789036D01*
X308133Y787672D01*
X309924Y786575D01*
X311864Y785771D01*
X313906Y785281D01*
X316000Y785116D01*
X318094Y785281D01*
X320136Y785771D01*
X322076Y786575D01*
X323867Y787672D01*
X325464Y789036D01*
X326828Y790633D01*
X327925Y792424D01*
X328729Y794364D01*
X329219Y796406D01*
X329384Y798500D01*
X329219Y800594D01*
X328729Y802636D01*
X327925Y804576D01*
X326828Y806367D01*
X325464Y807964D01*
X323867Y809328D01*
X322076Y810425D01*
X320136Y811229D01*
X318094Y811719D01*
X316000Y811884D01*
D02*
G37*
G36*
X517000Y797029D02*
X515824Y796913D01*
X514693Y796570D01*
X513650Y796013D01*
X512737Y795263D01*
X511987Y794350D01*
X511430Y793307D01*
X511087Y792176D01*
X510971Y791000D01*
X511087Y789824D01*
X511430Y788693D01*
X511987Y787650D01*
X512737Y786737D01*
X513650Y785987D01*
X514693Y785430D01*
X515824Y785087D01*
X517000Y784971D01*
X518176Y785087D01*
X519307Y785430D01*
X520350Y785987D01*
X521263Y786737D01*
X522013Y787650D01*
X522570Y788693D01*
X522913Y789824D01*
X523029Y791000D01*
X522913Y792176D01*
X522570Y793307D01*
X522013Y794350D01*
X521263Y795263D01*
X520350Y796013D01*
X519307Y796570D01*
X518176Y796913D01*
X517000Y797029D01*
D02*
G37*
G36*
X540500Y751529D02*
X539324Y751413D01*
X538193Y751070D01*
X537150Y750513D01*
X536237Y749763D01*
X535487Y748850D01*
X534930Y747807D01*
X534587Y746676D01*
X534471Y745500D01*
X534587Y744324D01*
X534930Y743193D01*
X535487Y742150D01*
X536237Y741237D01*
X537150Y740487D01*
X538193Y739930D01*
X539324Y739587D01*
X540500Y739471D01*
X541676Y739587D01*
X542807Y739930D01*
X543850Y740487D01*
X544763Y741237D01*
X545513Y742150D01*
X546070Y743193D01*
X546413Y744324D01*
X546529Y745500D01*
X546413Y746676D01*
X546070Y747807D01*
X545513Y748850D01*
X544763Y749763D01*
X543850Y750513D01*
X542807Y751070D01*
X541676Y751413D01*
X540500Y751529D01*
D02*
G37*
G36*
X525000Y745029D02*
X523824Y744913D01*
X522693Y744570D01*
X521650Y744013D01*
X520737Y743263D01*
X519987Y742350D01*
X519430Y741307D01*
X519087Y740176D01*
X518971Y739000D01*
X519087Y737824D01*
X519430Y736693D01*
X519987Y735650D01*
X520737Y734737D01*
X521650Y733987D01*
X522693Y733430D01*
X523824Y733087D01*
X525000Y732971D01*
X526176Y733087D01*
X527307Y733430D01*
X528349Y733987D01*
X529263Y734737D01*
X530013Y735650D01*
X530570Y736693D01*
X530913Y737824D01*
X531029Y739000D01*
X530913Y740176D01*
X530570Y741307D01*
X530013Y742350D01*
X529263Y743263D01*
X528349Y744013D01*
X527307Y744570D01*
X526176Y744913D01*
X525000Y745029D01*
D02*
G37*
G36*
X273122Y736047D02*
X218878D01*
Y681803D01*
X273122D01*
Y736047D01*
D02*
G37*
G36*
X437295Y721716D02*
X394862D01*
Y679284D01*
X437295D01*
Y721716D01*
D02*
G37*
G36*
X531000Y627884D02*
X528906Y627719D01*
X526864Y627229D01*
X524924Y626425D01*
X523133Y625328D01*
X521536Y623964D01*
X520172Y622367D01*
X519075Y620576D01*
X518271Y618636D01*
X517781Y616594D01*
X517616Y614500D01*
X517781Y612406D01*
X518271Y610364D01*
X519075Y608424D01*
X520172Y606633D01*
X521536Y605036D01*
X523133Y603672D01*
X524924Y602575D01*
X526864Y601771D01*
X528906Y601281D01*
X531000Y601116D01*
X533094Y601281D01*
X535136Y601771D01*
X537076Y602575D01*
X538867Y603672D01*
X540464Y605036D01*
X541828Y606633D01*
X542925Y608424D01*
X543729Y610364D01*
X544219Y612406D01*
X544384Y614500D01*
X544219Y616594D01*
X543729Y618636D01*
X542925Y620576D01*
X541828Y622367D01*
X540464Y623964D01*
X538867Y625328D01*
X537076Y626425D01*
X535136Y627229D01*
X533094Y627719D01*
X531000Y627884D01*
D02*
G37*
G36*
X437295Y621716D02*
X394862D01*
Y579284D01*
X437295D01*
Y621716D01*
D02*
G37*
G36*
X273122Y627622D02*
X218878D01*
Y573378D01*
X273122D01*
Y627622D01*
D02*
G37*
G36*
X571980Y472011D02*
X571067Y471890D01*
X570215Y471538D01*
X569484Y470977D01*
X568923Y470245D01*
X568570Y469394D01*
X568450Y468480D01*
X568570Y467567D01*
X568923Y466715D01*
X569484Y465984D01*
X570215Y465423D01*
X571067Y465070D01*
X571980Y464950D01*
X572894Y465070D01*
X573745Y465423D01*
X574477Y465984D01*
X575038Y466715D01*
X575390Y467567D01*
X575511Y468480D01*
X575390Y469394D01*
X575038Y470245D01*
X574477Y470977D01*
X573745Y471538D01*
X572894Y471890D01*
X571980Y472011D01*
D02*
G37*
G36*
X506500Y465583D02*
X505314Y465426D01*
X504209Y464969D01*
X503260Y464240D01*
X502531Y463291D01*
X502074Y462186D01*
X501918Y461000D01*
X502074Y459814D01*
X502531Y458709D01*
X503260Y457760D01*
X504209Y457031D01*
X505314Y456574D01*
X506500Y456418D01*
X507686Y456574D01*
X508791Y457031D01*
X509740Y457760D01*
X510469Y458709D01*
X510926Y459814D01*
X511083Y461000D01*
X510926Y462186D01*
X510469Y463291D01*
X509740Y464240D01*
X508791Y464969D01*
X507686Y465426D01*
X506500Y465583D01*
D02*
G37*
G36*
X648343Y463373D02*
X647311Y463237D01*
X646349Y462839D01*
X645523Y462205D01*
X644890Y461379D01*
X644491Y460418D01*
X644356Y459386D01*
X644491Y458354D01*
X644890Y457392D01*
X645523Y456567D01*
X646349Y455933D01*
X647311Y455535D01*
X648343Y455399D01*
X649374Y455535D01*
X650336Y455933D01*
X651162Y456567D01*
X651795Y457392D01*
X652193Y458354D01*
X652329Y459386D01*
X652193Y460418D01*
X651795Y461379D01*
X651162Y462205D01*
X650336Y462839D01*
X649374Y463237D01*
X648343Y463373D01*
D02*
G37*
G36*
X701000Y462082D02*
X699814Y461926D01*
X698709Y461469D01*
X697760Y460740D01*
X697031Y459791D01*
X696574Y458686D01*
X696418Y457500D01*
X696574Y456314D01*
X697031Y455209D01*
X697760Y454260D01*
X698709Y453531D01*
X699814Y453074D01*
X701000Y452917D01*
X702186Y453074D01*
X703291Y453531D01*
X704240Y454260D01*
X704969Y455209D01*
X705426Y456314D01*
X705583Y457500D01*
X705426Y458686D01*
X704969Y459791D01*
X704240Y460740D01*
X703291Y461469D01*
X702186Y461926D01*
X701000Y462082D01*
D02*
G37*
G36*
X571500Y434530D02*
X570586Y434410D01*
X569735Y434057D01*
X569004Y433496D01*
X568443Y432765D01*
X568090Y431914D01*
X567970Y431000D01*
X568090Y430086D01*
X568443Y429235D01*
X569004Y428504D01*
X569735Y427943D01*
X570586Y427590D01*
X571500Y427470D01*
X572414Y427590D01*
X573265Y427943D01*
X573996Y428504D01*
X574557Y429235D01*
X574910Y430086D01*
X575030Y431000D01*
X574910Y431914D01*
X574557Y432765D01*
X573996Y433496D01*
X573265Y434057D01*
X572414Y434410D01*
X571500Y434530D01*
D02*
G37*
G36*
X524500Y428030D02*
X523586Y427910D01*
X522735Y427557D01*
X522004Y426996D01*
X521443Y426265D01*
X521090Y425414D01*
X520970Y424500D01*
X521090Y423586D01*
X521443Y422735D01*
X522004Y422004D01*
X522735Y421443D01*
X523586Y421090D01*
X524500Y420970D01*
X525414Y421090D01*
X526265Y421443D01*
X526996Y422004D01*
X527557Y422735D01*
X527910Y423586D01*
X528030Y424500D01*
X527910Y425414D01*
X527557Y426265D01*
X526996Y426996D01*
X526265Y427557D01*
X525414Y427910D01*
X524500Y428030D01*
D02*
G37*
G36*
X546000Y397030D02*
X545086Y396910D01*
X544235Y396557D01*
X543504Y395996D01*
X542943Y395265D01*
X542590Y394414D01*
X542470Y393500D01*
X542590Y392586D01*
X542943Y391735D01*
X543504Y391004D01*
X544235Y390443D01*
X545086Y390090D01*
X546000Y389970D01*
X546914Y390090D01*
X547765Y390443D01*
X548496Y391004D01*
X549057Y391735D01*
X549410Y392586D01*
X549530Y393500D01*
X549410Y394414D01*
X549057Y395265D01*
X548496Y395996D01*
X547765Y396557D01*
X546914Y396910D01*
X546000Y397030D01*
D02*
G37*
G36*
X590000Y372030D02*
X589086Y371910D01*
X588235Y371557D01*
X587504Y370996D01*
X586943Y370265D01*
X586590Y369414D01*
X586470Y368500D01*
X586590Y367586D01*
X586943Y366735D01*
X587504Y366004D01*
X588235Y365443D01*
X589086Y365090D01*
X590000Y364970D01*
X590914Y365090D01*
X591765Y365443D01*
X592496Y366004D01*
X593057Y366735D01*
X593410Y367586D01*
X593530Y368500D01*
X593410Y369414D01*
X593057Y370265D01*
X592496Y370996D01*
X591765Y371557D01*
X590914Y371910D01*
X590000Y372030D01*
D02*
G37*
G36*
X574000Y358530D02*
X573086Y358410D01*
X572235Y358057D01*
X571504Y357496D01*
X570943Y356765D01*
X570590Y355914D01*
X570470Y355000D01*
X570590Y354086D01*
X570943Y353235D01*
X571504Y352504D01*
X572235Y351943D01*
X573086Y351590D01*
X574000Y351470D01*
X574914Y351590D01*
X575765Y351943D01*
X576496Y352504D01*
X577057Y353235D01*
X577410Y354086D01*
X577530Y355000D01*
X577410Y355914D01*
X577057Y356765D01*
X576496Y357496D01*
X575765Y358057D01*
X574914Y358410D01*
X574000Y358530D01*
D02*
G37*
G36*
X702500Y417583D02*
X701314Y417426D01*
X700209Y416969D01*
X699260Y416240D01*
X698531Y415291D01*
X698074Y414186D01*
X697918Y413000D01*
X698074Y411814D01*
X698531Y410709D01*
X699260Y409760D01*
X700209Y409031D01*
X701314Y408574D01*
X702500Y408418D01*
X703686Y408574D01*
X704791Y409031D01*
X705740Y409760D01*
X706469Y410709D01*
X706926Y411814D01*
X707083Y413000D01*
X706926Y414186D01*
X706469Y415291D01*
X705740Y416240D01*
X704791Y416969D01*
X703686Y417426D01*
X702500Y417583D01*
D02*
G37*
G36*
X648343Y404022D02*
X647311Y403886D01*
X646349Y403488D01*
X645523Y402855D01*
X644890Y402029D01*
X644491Y401067D01*
X644356Y400035D01*
X644491Y399004D01*
X644890Y398042D01*
X645523Y397216D01*
X646349Y396583D01*
X647311Y396184D01*
X648343Y396049D01*
X649374Y396184D01*
X650336Y396583D01*
X651162Y397216D01*
X651795Y398042D01*
X652193Y399004D01*
X652329Y400035D01*
X652193Y401067D01*
X651795Y402029D01*
X651162Y402855D01*
X650336Y403488D01*
X649374Y403886D01*
X648343Y404022D01*
D02*
G37*
G36*
X703500Y391582D02*
X702314Y391426D01*
X701209Y390969D01*
X700260Y390240D01*
X699531Y389291D01*
X699074Y388186D01*
X698917Y387000D01*
X699074Y385814D01*
X699531Y384709D01*
X700260Y383760D01*
X701209Y383031D01*
X702314Y382574D01*
X703500Y382417D01*
X704686Y382574D01*
X705791Y383031D01*
X706740Y383760D01*
X707469Y384709D01*
X707926Y385814D01*
X708082Y387000D01*
X707926Y388186D01*
X707469Y389291D01*
X706740Y390240D01*
X705791Y390969D01*
X704686Y391426D01*
X703500Y391582D01*
D02*
G37*
G36*
X672000Y387530D02*
X671086Y387410D01*
X670235Y387057D01*
X669504Y386496D01*
X668943Y385765D01*
X668590Y384914D01*
X668470Y384000D01*
X668590Y383086D01*
X668943Y382235D01*
X669504Y381504D01*
X670235Y380943D01*
X671086Y380590D01*
X672000Y380470D01*
X672914Y380590D01*
X673765Y380943D01*
X674496Y381504D01*
X675057Y382235D01*
X675410Y383086D01*
X675530Y384000D01*
X675410Y384914D01*
X675057Y385765D01*
X674496Y386496D01*
X673765Y387057D01*
X672914Y387410D01*
X672000Y387530D01*
D02*
G37*
G36*
X628500Y372030D02*
X627586Y371910D01*
X626735Y371557D01*
X626004Y370996D01*
X625443Y370265D01*
X625090Y369414D01*
X624970Y368500D01*
X625090Y367586D01*
X625443Y366735D01*
X626004Y366004D01*
X626735Y365443D01*
X627586Y365090D01*
X628500Y364970D01*
X629414Y365090D01*
X630265Y365443D01*
X630996Y366004D01*
X631557Y366735D01*
X631910Y367586D01*
X632030Y368500D01*
X631910Y369414D01*
X631557Y370265D01*
X630996Y370996D01*
X630265Y371557D01*
X629414Y371910D01*
X628500Y372030D01*
D02*
G37*
G36*
X702000Y367583D02*
X700814Y367426D01*
X699709Y366969D01*
X698760Y366240D01*
X698031Y365291D01*
X697574Y364186D01*
X697417Y363000D01*
X697574Y361814D01*
X698031Y360709D01*
X698760Y359760D01*
X699709Y359031D01*
X700814Y358574D01*
X702000Y358418D01*
X703186Y358574D01*
X704291Y359031D01*
X705240Y359760D01*
X705969Y360709D01*
X706426Y361814D01*
X706582Y363000D01*
X706426Y364186D01*
X705969Y365291D01*
X705240Y366240D01*
X704291Y366969D01*
X703186Y367426D01*
X702000Y367583D01*
D02*
G37*
G36*
X559000Y312530D02*
X558086Y312410D01*
X557235Y312057D01*
X556504Y311496D01*
X555943Y310765D01*
X555590Y309914D01*
X555470Y309000D01*
X555590Y308086D01*
X555943Y307235D01*
X556504Y306504D01*
X557235Y305943D01*
X558086Y305590D01*
X559000Y305470D01*
X559914Y305590D01*
X560765Y305943D01*
X561496Y306504D01*
X562057Y307235D01*
X562410Y308086D01*
X562530Y309000D01*
X562410Y309914D01*
X562057Y310765D01*
X561496Y311496D01*
X560765Y312057D01*
X559914Y312410D01*
X559000Y312530D01*
D02*
G37*
G36*
X702000Y310083D02*
X700814Y309926D01*
X699709Y309469D01*
X698760Y308740D01*
X698031Y307791D01*
X697574Y306686D01*
X697417Y305500D01*
X697574Y304314D01*
X698031Y303209D01*
X698760Y302260D01*
X699709Y301531D01*
X700814Y301074D01*
X702000Y300918D01*
X703186Y301074D01*
X704291Y301531D01*
X705240Y302260D01*
X705969Y303209D01*
X706426Y304314D01*
X706582Y305500D01*
X706426Y306686D01*
X705969Y307791D01*
X705240Y308740D01*
X704291Y309469D01*
X703186Y309926D01*
X702000Y310083D01*
D02*
G37*
G36*
X549362Y295892D02*
X548449Y295772D01*
X547597Y295420D01*
X546866Y294858D01*
X546305Y294127D01*
X545952Y293276D01*
X545832Y292362D01*
X545952Y291448D01*
X546305Y290597D01*
X546866Y289866D01*
X547597Y289305D01*
X548449Y288952D01*
X549362Y288832D01*
X550276Y288952D01*
X551127Y289305D01*
X551858Y289866D01*
X552419Y290597D01*
X552772Y291448D01*
X552892Y292362D01*
X552772Y293276D01*
X552419Y294127D01*
X551858Y294858D01*
X551127Y295420D01*
X550276Y295772D01*
X549362Y295892D01*
D02*
G37*
G36*
X659000Y297568D02*
X657839Y297454D01*
X656723Y297115D01*
X655694Y296565D01*
X654793Y295825D01*
X654053Y294924D01*
X653503Y293895D01*
X653164Y292779D01*
X653050Y291618D01*
X653164Y290457D01*
X653503Y289341D01*
X654053Y288313D01*
X654793Y287411D01*
X655694Y286671D01*
X656723Y286121D01*
X657839Y285783D01*
X659000Y285668D01*
X660161Y285783D01*
X661277Y286121D01*
X662306Y286671D01*
X663207Y287411D01*
X663947Y288313D01*
X664497Y289341D01*
X664836Y290457D01*
X664950Y291618D01*
X664836Y292779D01*
X664497Y293895D01*
X663947Y294924D01*
X663207Y295825D01*
X662306Y296565D01*
X661277Y297115D01*
X660161Y297454D01*
X659000Y297568D01*
D02*
G37*
G36*
X702500Y292583D02*
X701314Y292426D01*
X700209Y291969D01*
X699260Y291240D01*
X698531Y290291D01*
X698074Y289186D01*
X697918Y288000D01*
X698074Y286814D01*
X698531Y285709D01*
X699260Y284760D01*
X700209Y284031D01*
X701314Y283574D01*
X702500Y283418D01*
X703686Y283574D01*
X704791Y284031D01*
X705740Y284760D01*
X706469Y285709D01*
X706926Y286814D01*
X707083Y288000D01*
X706926Y289186D01*
X706469Y290291D01*
X705740Y291240D01*
X704791Y291969D01*
X703686Y292426D01*
X702500Y292583D01*
D02*
G37*
G36*
X672000Y165987D02*
X670968Y165851D01*
X670007Y165453D01*
X669181Y164819D01*
X668547Y163993D01*
X668149Y163032D01*
X668013Y162000D01*
X668149Y160968D01*
X668547Y160007D01*
X669181Y159181D01*
X670007Y158547D01*
X670968Y158149D01*
X672000Y158013D01*
X673032Y158149D01*
X673993Y158547D01*
X674819Y159181D01*
X675453Y160007D01*
X675851Y160968D01*
X675987Y162000D01*
X675851Y163032D01*
X675453Y163993D01*
X674819Y164819D01*
X673993Y165453D01*
X673032Y165851D01*
X672000Y165987D01*
D02*
G37*
G36*
X652000D02*
X650968Y165851D01*
X650007Y165453D01*
X649181Y164819D01*
X648547Y163993D01*
X648149Y163032D01*
X648013Y162000D01*
X648149Y160968D01*
X648547Y160007D01*
X649181Y159181D01*
X650007Y158547D01*
X650968Y158149D01*
X652000Y158013D01*
X653032Y158149D01*
X653993Y158547D01*
X654819Y159181D01*
X655453Y160007D01*
X655851Y160968D01*
X655987Y162000D01*
X655851Y163032D01*
X655453Y163993D01*
X654819Y164819D01*
X653993Y165453D01*
X653032Y165851D01*
X652000Y165987D01*
D02*
G37*
G36*
X632000D02*
X630968Y165851D01*
X630007Y165453D01*
X629181Y164819D01*
X628547Y163993D01*
X628149Y163032D01*
X628013Y162000D01*
X628149Y160968D01*
X628547Y160007D01*
X629181Y159181D01*
X630007Y158547D01*
X630968Y158149D01*
X632000Y158013D01*
X633032Y158149D01*
X633993Y158547D01*
X634819Y159181D01*
X635453Y160007D01*
X635851Y160968D01*
X635987Y162000D01*
X635851Y163032D01*
X635453Y163993D01*
X634819Y164819D01*
X633993Y165453D01*
X633032Y165851D01*
X632000Y165987D01*
D02*
G37*
%LPD*%
D15*
X353000Y798500D02*
Y837500D01*
X570000Y651500D02*
X531000D01*
X391500Y760000D02*
X353000Y798500D01*
X531000Y651500D02*
Y688000D01*
X459000Y760000D01*
X391500D01*
X441000Y249500D02*
X504500Y313000D01*
X315000Y249500D02*
X441000D01*
X309000Y243500D02*
X315000Y249500D01*
X625500Y220000D02*
X644500D01*
X594500Y251000D02*
X625500Y220000D01*
X506500Y362000D02*
X520890Y347610D01*
X494500Y362000D02*
X506500D01*
X421051Y288551D02*
X494500Y362000D01*
X397106Y288551D02*
X421051D01*
X547500Y313000D02*
X548000Y312500D01*
X504500Y313000D02*
X547500D01*
X291500Y243500D02*
X309000D01*
X291500Y209000D02*
Y243500D01*
X261000D02*
X291500D01*
X251150Y253350D02*
X261000Y243500D01*
X243150Y191000D02*
Y197150D01*
X255000Y209000D01*
X291500D01*
X251150Y253350D02*
Y263350D01*
X644500Y220000D02*
X661000Y236500D01*
D16*
X662000Y162000D02*
Y172000D01*
X642000Y162000D02*
Y172000D01*
X662000D02*
X672000D01*
X652000D02*
X662000D01*
X642000D02*
X652000D01*
X632000D02*
X642000D01*
X571980Y468480D02*
X572000Y468500D01*
D38*
X353000Y798500D02*
D03*
Y837500D02*
D03*
X570000Y651500D02*
D03*
X531000D02*
D03*
D39*
X702000Y437500D02*
D03*
X703500Y236500D02*
D03*
D41*
X648343Y449346D02*
D03*
Y420016D02*
D03*
X662000Y172000D02*
D03*
Y162000D02*
D03*
X652000Y172000D02*
D03*
X642000D02*
D03*
Y162000D02*
D03*
X632000Y172000D02*
D03*
D44*
X505500Y326000D02*
D03*
X511500Y328500D02*
D03*
X514500Y335000D02*
D03*
X519000Y340500D02*
D03*
X513000Y343500D02*
D03*
X508000Y339000D02*
D03*
X506500Y332000D02*
D03*
X589500Y488000D02*
D03*
X551000Y415000D02*
D03*
X637500Y343000D02*
D03*
X571980Y468480D02*
D03*
X520890Y347610D02*
D03*
D45*
X397106Y288551D02*
D03*
X661000Y236500D02*
D03*
D46*
X243150Y191000D02*
D03*
X251150Y263500D02*
D03*
D47*
X672000Y172000D02*
D03*
M02*
