G04 Layer_Color=8388736*
%FSLAX25Y25*%
%MOIN*%
G70*
G01*
G75*
%ADD54R,0.10642X0.10642*%
%ADD55R,0.05918X0.07493*%
%ADD56R,0.15761X0.11587*%
%ADD57R,0.03162X0.06902*%
%ADD58R,0.15170X0.14579*%
%ADD59R,0.06706X0.05918*%
%ADD60R,0.07493X0.05918*%
%ADD61R,0.08083X0.05721*%
%ADD62R,0.04737X0.06706*%
%ADD63R,0.03556X0.06706*%
%ADD64R,0.05131X0.06312*%
%ADD65R,0.05918X0.06706*%
%ADD66R,0.07493X0.05131*%
%ADD67R,0.06312X0.05131*%
%ADD68R,0.10642X0.10642*%
%ADD69R,0.06706X0.03162*%
%ADD70R,0.06706X0.08005*%
%ADD71R,0.08674X0.02768*%
%ADD72R,0.11587X0.15761*%
%ADD73R,0.06902X0.03162*%
%ADD74R,0.10249X0.15761*%
%ADD75C,0.00800*%
%ADD76C,0.20485*%
%ADD77C,0.07887*%
%ADD78R,0.06706X0.06706*%
%ADD79C,0.06706*%
%ADD80R,0.36233X0.36233*%
%ADD81R,0.48044X0.48044*%
%ADD82C,0.05800*%
%ADD83C,0.10642*%
%ADD84C,0.14579*%
%ADD85R,0.06706X0.06706*%
G36*
X588718Y471831D02*
X588769Y471820D01*
X588819Y471803D01*
X588866Y471780D01*
X588909Y471751D01*
X588949Y471716D01*
X588983Y471677D01*
X589012Y471633D01*
X589036Y471587D01*
X589053Y471537D01*
X589063Y471485D01*
X589066Y471433D01*
X589066Y464414D01*
X590228Y463252D01*
X590263Y463212D01*
X590292Y463169D01*
X590315Y463122D01*
X590332Y463072D01*
X590342Y463021D01*
X590346Y462968D01*
Y453323D01*
X590342Y453270D01*
X590332Y453219D01*
X590315Y453169D01*
X590292Y453122D01*
X590263Y453079D01*
X590228Y453039D01*
X590189Y453005D01*
X590145Y452976D01*
X590098Y452952D01*
X590049Y452936D01*
X589997Y452925D01*
X589945Y452922D01*
X583252D01*
X583200Y452925D01*
X583148Y452936D01*
X583099Y452952D01*
X583051Y452976D01*
X583008Y453005D01*
X582969Y453039D01*
X582934Y453079D01*
X582905Y453122D01*
X582882Y453169D01*
X582865Y453219D01*
X582855Y453270D01*
X582851Y453323D01*
Y462968D01*
X582855Y463021D01*
X582865Y463072D01*
X582882Y463122D01*
X582905Y463169D01*
X582934Y463212D01*
X582969Y463252D01*
X584131Y464414D01*
Y471433D01*
X584134Y471485D01*
X584144Y471537D01*
X584161Y471587D01*
X584184Y471633D01*
X584213Y471677D01*
X584248Y471716D01*
X584288Y471751D01*
X584331Y471780D01*
X584378Y471803D01*
X584428Y471820D01*
X584479Y471831D01*
X584531Y471834D01*
X588665D01*
X588718Y471831D01*
D02*
G37*
D54*
X507500Y720500D02*
D03*
X529500D02*
D03*
D55*
X515500Y703500D02*
D03*
X523500D02*
D03*
X667500Y328500D02*
D03*
X659500D02*
D03*
D56*
X516772Y764091D02*
D03*
D57*
X509390Y774720D02*
D03*
X514409D02*
D03*
X519429D02*
D03*
X524449D02*
D03*
Y753461D02*
D03*
X519429D02*
D03*
X514409D02*
D03*
X509390D02*
D03*
D58*
X381594Y527500D02*
D03*
X343406D02*
D03*
D59*
X626500Y284240D02*
D03*
Y276760D02*
D03*
X615500Y284240D02*
D03*
Y276760D02*
D03*
X606000Y431740D02*
D03*
Y424260D02*
D03*
X558500Y467260D02*
D03*
Y474740D02*
D03*
D60*
X616500Y267000D02*
D03*
Y259000D02*
D03*
X676000Y363000D02*
D03*
Y371000D02*
D03*
X581500Y370000D02*
D03*
Y362000D02*
D03*
X531500Y292000D02*
D03*
Y284000D02*
D03*
X514500Y430500D02*
D03*
Y422500D02*
D03*
X582000Y350000D02*
D03*
Y342000D02*
D03*
X534500Y375500D02*
D03*
Y383500D02*
D03*
X637500Y371000D02*
D03*
Y363000D02*
D03*
D61*
X681000Y328610D02*
D03*
Y317390D02*
D03*
X533000Y347610D02*
D03*
Y336390D02*
D03*
D62*
X586992Y457063D02*
D03*
X580693Y468480D02*
D03*
X592504D02*
D03*
D63*
X580693Y456276D02*
D03*
X592504D02*
D03*
D64*
X593953Y481000D02*
D03*
X588047D02*
D03*
D65*
X606240Y293500D02*
D03*
X598760D02*
D03*
D66*
X670500Y415815D02*
D03*
Y405185D02*
D03*
X686500Y414315D02*
D03*
Y403685D02*
D03*
X607000Y476815D02*
D03*
Y466185D02*
D03*
D67*
X667000Y458953D02*
D03*
Y453047D02*
D03*
X680000Y458453D02*
D03*
Y452547D02*
D03*
D68*
X515000Y276500D02*
D03*
Y298500D02*
D03*
X499000Y415000D02*
D03*
Y437000D02*
D03*
D69*
X651268Y341319D02*
D03*
Y347500D02*
D03*
Y353681D02*
D03*
X560232Y364681D02*
D03*
Y358500D02*
D03*
Y352319D02*
D03*
D70*
X668000Y347500D02*
D03*
X543500Y358500D02*
D03*
D71*
X622205Y373500D02*
D03*
Y368500D02*
D03*
Y363500D02*
D03*
Y358500D02*
D03*
X597795D02*
D03*
Y363500D02*
D03*
Y368500D02*
D03*
Y373500D02*
D03*
D72*
X547409Y428311D02*
D03*
X568500Y290000D02*
D03*
D73*
X536779Y435693D02*
D03*
Y430673D02*
D03*
Y425654D02*
D03*
Y420634D02*
D03*
X558039D02*
D03*
Y425654D02*
D03*
Y430673D02*
D03*
Y435693D02*
D03*
X579130Y297382D02*
D03*
Y292362D02*
D03*
Y287343D02*
D03*
Y282323D02*
D03*
X557870D02*
D03*
Y287343D02*
D03*
Y292362D02*
D03*
Y297382D02*
D03*
D74*
X330634Y144500D02*
D03*
X297366D02*
D03*
D75*
X573361Y517988D02*
D03*
X510000Y844500D02*
D03*
X215000Y522500D02*
D03*
X212000Y841500D02*
D03*
X698500Y118500D02*
D03*
X112000Y120000D02*
D03*
X120000Y473000D02*
D03*
X698000Y484500D02*
D03*
D76*
X353000Y798500D02*
D03*
X316000D02*
D03*
Y837500D02*
D03*
X353000D02*
D03*
X570000Y651500D02*
D03*
Y614500D02*
D03*
X531000D02*
D03*
Y651500D02*
D03*
X328500Y421500D02*
D03*
X291500D02*
D03*
Y460500D02*
D03*
X328500D02*
D03*
X143000Y327000D02*
D03*
Y364000D02*
D03*
X182000D02*
D03*
Y327000D02*
D03*
X180500Y262000D02*
D03*
Y225000D02*
D03*
X141500D02*
D03*
Y262000D02*
D03*
X180000Y181000D02*
D03*
Y144000D02*
D03*
X141000D02*
D03*
Y181000D02*
D03*
X503000Y150000D02*
D03*
X466000D02*
D03*
Y189000D02*
D03*
X503000D02*
D03*
D77*
X438500Y828000D02*
D03*
X464000Y827500D02*
D03*
X490000Y827000D02*
D03*
X701000Y457500D02*
D03*
X702000Y437500D02*
D03*
X702500Y413000D02*
D03*
X702000Y363000D02*
D03*
Y305500D02*
D03*
X703500Y236500D02*
D03*
X702500Y288000D02*
D03*
X703500Y387000D02*
D03*
X506500Y461000D02*
D03*
D78*
X571000Y804500D02*
D03*
D79*
X561000D02*
D03*
X571000Y814500D02*
D03*
X561000D02*
D03*
X571000Y824500D02*
D03*
X561000D02*
D03*
X571000Y834500D02*
D03*
X561000D02*
D03*
X648343Y459386D02*
D03*
Y449346D02*
D03*
Y420016D02*
D03*
Y400035D02*
D03*
X672000Y162000D02*
D03*
X662000Y172000D02*
D03*
Y162000D02*
D03*
X652000Y172000D02*
D03*
Y162000D02*
D03*
X642000Y172000D02*
D03*
Y162000D02*
D03*
X632000Y172000D02*
D03*
Y162000D02*
D03*
D80*
X416079Y700500D02*
D03*
Y600500D02*
D03*
D81*
X246000Y708925D02*
D03*
Y600500D02*
D03*
D82*
X540500Y745500D02*
D03*
X525000Y739000D02*
D03*
X517000Y791000D02*
D03*
X505500Y326000D02*
D03*
X511500Y328500D02*
D03*
X514500Y335000D02*
D03*
X519000Y340500D02*
D03*
X513000Y343500D02*
D03*
X508000Y339000D02*
D03*
X506500Y332000D02*
D03*
X589500Y488000D02*
D03*
X551000Y415000D02*
D03*
X637500Y343000D02*
D03*
X672000Y384000D02*
D03*
X571500Y431000D02*
D03*
X544000Y323000D02*
D03*
X574000Y355000D02*
D03*
X549362Y292362D02*
D03*
X559000Y309000D02*
D03*
X590000Y368500D02*
D03*
X628500D02*
D03*
X546000Y393500D02*
D03*
X524500Y424500D02*
D03*
X571980Y468480D02*
D03*
X520890Y347610D02*
D03*
D83*
X397500Y198000D02*
D03*
Y228709D02*
D03*
Y268472D02*
D03*
X397106Y288551D02*
D03*
X661000Y236500D02*
D03*
X659000Y291618D02*
D03*
D84*
X243150Y191000D02*
D03*
X264213D02*
D03*
X285000D02*
D03*
X251150Y263500D02*
D03*
X272213D02*
D03*
X293000D02*
D03*
D85*
X672000Y172000D02*
D03*
M02*
