M48
;Layer_Color=9474304
;FILE_FORMAT=2:5
INCH,TZ
;TYPE=PLATED
T1F00S00C0.02756
T2F00S00C0.02800
T3F00S00C0.03543
T4F00S00C0.03937
T5F00S00C0.05512
T6F00S00C0.05906
T7F00S00C0.09843
T8F00S00C0.16000
T9F00S00C0.16142
T10F00S00C0.16147
T11F00S00C0.27559
T12F00S00C0.31102
%
T01
X648343Y400035
Y420016
Y449346
Y459386
T02
X549362Y292362
X559000Y309000
X544000Y323000
X511500Y328500
X505500Y326000
X506500Y332000
X508000Y339000
X513000Y343500
X519000Y340500
X520890Y347610
X514500Y335000
X574000Y355000
X590000Y368500
X546000Y393500
X551000Y415000
X524500Y424500
X571500Y431000
X571980Y468480
X628500Y368500
X637500Y343000
X672000Y384000
X589500Y488000
X540500Y745500
X525000Y739000
X517000Y791000
T03
X632000Y162000
X642000
X652000
X662000
X672000
Y172000
X662000
X652000
X642000
X632000
X571000Y804500
X561000
Y814500
X571000
Y824500
X561000
Y834500
X571000
T04
X703500Y236500
X702500Y288000
X702000Y305500
X506500Y461000
X701000Y457500
X702000Y437500
X702500Y413000
X703500Y387000
X702000Y363000
X490000Y827000
X464000Y827500
X438500Y828000
T05
X661000Y236500
X659000Y291618
T06
X141000Y144000
X180000
X466000Y150000
X503000
Y189000
X466000
X397500Y198000
Y228709
Y268472
X397106Y288551
X180500Y262000
Y225000
X180000Y181000
X141000
X141500Y225000
Y262000
X143000Y327000
Y364000
X182000
Y327000
X291500Y421500
Y460500
X328500
Y421500
X531000Y614500
X570000
Y651500
X531000
X353000Y798500
X316000
Y837500
X353000
T07
X243150Y191000
X264213
X285000
X293000Y263500
X272213
X251150
T08
X573361Y517988
X510000Y844500
T09
X698000Y484500
X215000Y522500
X212000Y841500
T10
X112000Y120000
X698500Y118500
X120000Y473000
T11
X416079Y600500
Y700500
T12
X246000Y600500
Y708925
M30
