G04 Layer_Physical_Order=3*
G04 Layer_Color=6736896*
%FSLAX25Y25*%
%MOIN*%
G70*
G01*
G75*
%ADD13R,0.05905X0.05905*%
%ADD16R,0.05905X0.05905*%
%ADD65C,0.03000*%
%ADD66C,0.02000*%
%ADD68C,0.05000*%
%ADD72C,0.04000*%
%ADD74C,0.01500*%
%ADD77C,0.05905*%
%ADD78C,0.07874*%
%ADD81O,0.07874X0.03937*%
%ADD83C,0.06693*%
%ADD84C,0.04724*%
%ADD86C,0.12000*%
%ADD88R,0.10827X0.10827*%
%ADD89C,0.10827*%
%ADD93R,0.10827X0.10827*%
%ADD96R,0.23622X0.23622*%
%ADD98O,0.05905X0.07874*%
%ADD101C,0.05000*%
%ADD103C,0.01500*%
%ADD104C,0.03000*%
%ADD107C,0.10000*%
D13*
X1771000Y2278500D02*
D03*
D16*
X1625000Y2384000D02*
D03*
D65*
X1777500Y2733000D02*
X1783437Y2727063D01*
X1940878Y2669000D02*
X1946378Y2663500D01*
X1903000Y2669000D02*
X1940878D01*
X1875842Y2572842D02*
X1883500Y2580500D01*
X1900500D01*
X1960500Y2527000D02*
X1968000Y2534500D01*
X1949500Y2527000D02*
X1960500D01*
X1943500Y2521000D02*
X1949500Y2527000D01*
X1943500Y2513500D02*
Y2521000D01*
X2024000Y2520000D02*
X2027500Y2523500D01*
X2014500Y2520000D02*
X2024000D01*
X1985500Y2283000D02*
X1990500D01*
X1967000Y2301500D02*
X1985500Y2283000D01*
X1723882Y2261618D02*
X1732500Y2253000D01*
X1696500Y2483000D02*
X1701500Y2488000D01*
X1695429Y2483000D02*
X1696500D01*
X1694330Y2481902D02*
X1695429Y2483000D01*
X1684598Y2481902D02*
X1694330D01*
X2111000Y2254500D02*
X2114500D01*
X2141000Y2228000D01*
X2177500D01*
X2023000Y2237000D02*
X2058000Y2272000D01*
X1965000Y2237000D02*
X2023000D01*
X1950500Y2222500D02*
X1965000Y2237000D01*
X2090500Y2272000D02*
X2096500Y2266000D01*
X2058000Y2272000D02*
X2090500D01*
X1811000Y2288500D02*
Y2421500D01*
X1758500Y2474000D02*
X1811000Y2421500D01*
X1758500Y2474000D02*
Y2569000D01*
X1932250Y2467750D02*
X1972750D01*
X1871500Y2407000D02*
X1932250Y2467750D01*
X1861000Y2407000D02*
X1871500D01*
X1804000Y2321500D02*
Y2418500D01*
X1771000Y2288500D02*
X1804000Y2321500D01*
X1751500Y2471000D02*
X1804000Y2418500D01*
X1702500Y2331000D02*
X1706000D01*
X1615000Y2294000D02*
X1624500Y2284500D01*
X1684500D01*
X1732000Y2253000D02*
X1732500D01*
X1711618Y2261618D02*
X1723882D01*
X1972750Y2467750D02*
X1973500Y2468500D01*
X1883000Y2241000D02*
X1893000D01*
X1936500Y2197500D01*
X1972000Y2343000D02*
X1982500Y2353500D01*
X1941500Y2343000D02*
X1972000D01*
X1860000Y2572842D02*
X1875842D01*
X1751500Y2471000D02*
Y2571899D01*
X1769500Y2707071D02*
X1771500Y2709071D01*
X1769500Y2699050D02*
Y2707071D01*
Y2699050D02*
X1776437Y2692113D01*
X1771500Y2709071D02*
Y2711000D01*
X1776437Y2644334D02*
Y2692113D01*
X1775500Y2643397D02*
X1776437Y2644334D01*
X1783437Y2641434D02*
Y2727063D01*
X1783063Y2641060D02*
X1783437Y2641434D01*
X1783063Y2593563D02*
Y2641060D01*
X1775500Y2595900D02*
Y2643397D01*
X1751500Y2571899D02*
X1775500Y2595900D01*
X1758500Y2569000D02*
X1783063Y2593563D01*
X1771000Y2278500D02*
Y2288500D01*
X1811000Y2278500D02*
Y2288500D01*
X1936500Y2197500D02*
X2201500D01*
D66*
X1860000Y2406000D02*
X1861000Y2407000D01*
X1839347Y2713847D02*
X1855500Y2730000D01*
X1774000Y2703500D02*
X1776000Y2701500D01*
X1826000Y2123500D02*
X1836000Y2133500D01*
X1799500Y2123500D02*
X1826000D01*
X1887500Y2597429D02*
X1888172D01*
X1894071Y2624071D02*
X1911000Y2641000D01*
X1894071Y2603329D02*
Y2624071D01*
X1888172Y2597429D02*
X1894071Y2603329D01*
X1887500Y2595000D02*
Y2597429D01*
X1623000Y2304000D02*
X1625000D01*
X1618047Y2299047D02*
X1623000Y2304000D01*
X1612948Y2299047D02*
X1618047D01*
X1610047Y2301949D02*
X1612948Y2299047D01*
X1610047Y2301949D02*
Y2301953D01*
X1608944Y2303056D02*
X1610047Y2301953D01*
X1597165Y2303056D02*
X1608944D01*
X1620000Y2309000D02*
X1625000Y2314000D01*
X1610000Y2309000D02*
X1620000D01*
X1605889Y2313111D02*
X1610000Y2309000D01*
X1597165Y2313111D02*
X1605889D01*
X1624000Y2334000D02*
X1625000D01*
X1619047Y2329047D02*
X1624000Y2334000D01*
X1611953Y2329047D02*
X1619047D01*
X1607778Y2333222D02*
X1611953Y2329047D01*
X1597165Y2333222D02*
X1607778D01*
X1619953Y2348953D02*
X1625000Y2354000D01*
X1611547Y2348953D02*
X1619953D01*
X1607167Y2353333D02*
X1611547Y2348953D01*
X1597165Y2353333D02*
X1607167D01*
X1622004Y2364000D02*
X1625000D01*
X1617052Y2359047D02*
X1622004Y2364000D01*
X1612948Y2359047D02*
X1617052D01*
X1608607Y2363389D02*
X1612948Y2359047D01*
X1597165Y2363389D02*
X1608607D01*
X1622004Y2374000D02*
X1625000D01*
X1617052Y2369047D02*
X1622004Y2374000D01*
X1612948Y2369047D02*
X1617052D01*
X1608551Y2373444D02*
X1612948Y2369047D01*
X1597165Y2373444D02*
X1608551D01*
X1618500Y2390500D02*
X1625000Y2384000D01*
X1610500Y2390500D02*
X1618500D01*
X1603500Y2383500D02*
X1610500Y2390500D01*
X1597165Y2383500D02*
X1603500D01*
X1600000Y2344000D02*
X1607996D01*
X1612948Y2339047D01*
X1622004Y2344000D02*
X1625000D01*
X1617052Y2339047D02*
X1622004Y2344000D01*
X1612948Y2339047D02*
X1617052D01*
X1845500Y2345500D02*
X1867500Y2323500D01*
X1845500Y2345500D02*
Y2474364D01*
X1845953Y2474817D02*
Y2506552D01*
X1845500Y2474364D02*
X1845953Y2474817D01*
X1750000Y2250500D02*
X1790500D01*
X1712500Y2288000D02*
X1750000Y2250500D01*
X1712500Y2288000D02*
Y2292000D01*
X1856000Y2410000D02*
X1859000Y2407000D01*
X1856000Y2410000D02*
Y2514500D01*
X1752500Y2407500D02*
X1766000Y2421000D01*
X1776000D01*
X1745000Y2444500D02*
Y2481000D01*
Y2444500D02*
X1762000Y2427500D01*
X1786000D01*
X1859000Y2407000D02*
X1860000Y2406000D01*
X1859000Y2407000D02*
X1861000D01*
X1830500Y2353500D02*
X1838000Y2346000D01*
Y2337500D02*
Y2346000D01*
Y2337500D02*
X1846000Y2329500D01*
X1830500Y2353500D02*
Y2487996D01*
X1827500Y2352257D02*
Y2486753D01*
X1867500Y2320000D02*
Y2323500D01*
X1943000Y2269000D02*
X1954000Y2258000D01*
X1943000Y2269000D02*
Y2285000D01*
X1923500Y2304500D02*
X1943000Y2285000D01*
X1923500Y2304500D02*
Y2364500D01*
X1920000Y2368000D02*
X1923500Y2364500D01*
X1736000Y2441000D02*
X1738000D01*
X1744500Y2434500D01*
Y2411500D02*
Y2434500D01*
X1738500Y2405500D02*
X1744500Y2411500D01*
X1728000Y2405500D02*
X1738500D01*
X1709421Y2581740D02*
X1714500Y2576661D01*
Y2389500D02*
Y2576661D01*
Y2366500D02*
Y2389500D01*
X1709500Y2370000D02*
Y2376000D01*
Y2519000D01*
X1807500Y2315000D02*
Y2420050D01*
X1781000Y2288500D02*
X1807500Y2315000D01*
X1755000Y2472550D02*
X1807500Y2420050D01*
X1615000Y2324000D02*
X1620000Y2319000D01*
X1690500D01*
X1702500Y2331000D01*
X1696000Y2440000D02*
X1701500Y2434500D01*
X1779864Y2330500D02*
X1784000D01*
X1778364Y2329000D02*
X1779864Y2330500D01*
X1753000Y2329000D02*
X1778364D01*
X1747000Y2323000D02*
X1753000Y2329000D01*
X1703000Y2295500D02*
X1709000D01*
X1712500Y2292000D01*
X1744000Y2308000D02*
X1776000D01*
X1824706Y2489547D02*
X1827500Y2486753D01*
Y2352257D02*
X1828000Y2351757D01*
Y2305500D02*
Y2351757D01*
X1821000Y2298500D02*
X1828000Y2305500D01*
X1739000Y2313000D02*
Y2329500D01*
X1732000Y2336500D02*
X1739000Y2329500D01*
X1729500Y2336500D02*
X1732000D01*
X1739000Y2313000D02*
X1744000Y2308000D01*
X1752500Y2335000D02*
Y2407500D01*
X1635000Y2452500D02*
X1637000Y2450500D01*
X1647500Y2440000D01*
X1615500Y2450500D02*
X1637000D01*
X1647500Y2440000D02*
X1696000D01*
X1635000Y2452500D02*
Y2511500D01*
X1649362Y2525862D01*
Y2566807D01*
X1649000Y2567169D02*
X1649362Y2566807D01*
X1649000Y2567169D02*
Y2599500D01*
X1655000Y2605500D01*
Y2633500D01*
X1843500Y2633154D02*
X1844847Y2634500D01*
X1829500Y2705000D02*
Y2747000D01*
X1822000Y2697500D02*
X1829500Y2705000D01*
X1822000Y2529000D02*
Y2697500D01*
Y2529000D02*
X1826047Y2524953D01*
Y2492448D02*
Y2524953D01*
X1816047Y2705547D02*
X1824000Y2713500D01*
X1816047Y2492448D02*
Y2705547D01*
X1818000Y2758500D02*
X1829500Y2747000D01*
X1818949Y2489547D02*
X1824706D01*
X1826047Y2492448D02*
X1830500Y2487996D01*
X1816047Y2492448D02*
X1818949Y2489547D01*
X1696500Y2357000D02*
X1709500Y2370000D01*
X1630000Y2349000D02*
X1697000D01*
X1714500Y2366500D01*
X1707000Y2521500D02*
X1709500Y2519000D01*
X1637052Y2379047D02*
X1690000Y2431996D01*
X1625000Y2344000D02*
X1630000Y2349000D01*
X1630047Y2379047D02*
X1637052D01*
X1625000Y2374000D02*
X1630047Y2379047D01*
X1755000Y2472550D02*
Y2570450D01*
X1647610Y2698067D02*
Y2712110D01*
X1694000Y2758500D01*
X1818000D01*
X1776000Y2697500D02*
Y2701500D01*
Y2697500D02*
X1779937Y2693563D01*
X1774000Y2703500D02*
X1775500D01*
X1779937Y2642884D02*
Y2693563D01*
X1779000Y2594450D02*
Y2641947D01*
X1779937Y2642884D01*
X1755000Y2570450D02*
X1779000Y2594450D01*
X1781000Y2278500D02*
Y2288500D01*
X1821000D02*
Y2298500D01*
X1843500Y2527000D02*
X1856000Y2514500D01*
X1843500Y2527000D02*
Y2633154D01*
X1839347Y2513158D02*
X1845953Y2506552D01*
X1839347Y2513158D02*
Y2713847D01*
D68*
X1844500Y2113000D02*
X1854500Y2103000D01*
X1818500Y2113000D02*
X1844500D01*
X1810500Y2105000D02*
X1818500Y2113000D01*
X1810500Y2098894D02*
Y2105000D01*
X1808000Y2212000D02*
Y2213000D01*
X2035500Y2798000D02*
X2051500Y2814000D01*
X2002000Y2798000D02*
X2035500D01*
X1946500Y2742500D02*
X2002000Y2798000D01*
X1909000Y2742500D02*
X1946500D01*
X1882000Y2715500D02*
X1909000Y2742500D01*
X1882000Y2673500D02*
Y2715500D01*
X1857500Y2649000D02*
X1882000Y2673500D01*
X1857500Y2621000D02*
Y2649000D01*
X1848000Y2611500D02*
X1857500Y2621000D01*
D72*
X1831000Y2276000D02*
Y2278500D01*
X1823000Y2268000D02*
X1831000Y2276000D01*
X1787000Y2268000D02*
X1823000D01*
X1781000Y2274000D02*
X1787000Y2268000D01*
X1781000Y2274000D02*
Y2278500D01*
X1816500Y2260000D02*
X1842500D01*
X1750000D02*
X1816500D01*
X1821500Y2255000D01*
Y2253000D02*
Y2255000D01*
X1721000Y2669457D02*
X1750110Y2698567D01*
X1946500Y2210500D02*
X2193520D01*
X1906500Y2250500D02*
X1946500Y2210500D01*
X1872500Y2250500D02*
X1906500D01*
X1721000Y2289000D02*
X1750000Y2260000D01*
X1721000Y2289000D02*
Y2669457D01*
X1842500Y2260000D02*
X1861000Y2278500D01*
X1744000Y2317000D02*
X1774260D01*
X1863500Y2241500D02*
X1872500Y2250500D01*
X1711300Y2160400D02*
X1729900D01*
X1767000Y2197500D01*
Y2209000D01*
X1801500Y2243500D01*
X1812500D01*
X2193520Y2210500D02*
X2200781Y2217761D01*
D74*
X1610750Y2415382D02*
Y2422710D01*
X1607250Y2411882D02*
X1610750Y2415382D01*
X1607250Y2426210D02*
X1610750Y2422710D01*
X1980000Y2328500D02*
X1989500Y2338000D01*
X1972000Y2328500D02*
X1980000D01*
X1967000Y2323500D02*
X1972000Y2328500D01*
X1569000Y2452000D02*
X1570500D01*
X1581000Y2462500D01*
Y2472500D01*
X1587500Y2479000D01*
X1601500D01*
X1611000Y2488500D01*
Y2508000D01*
X1607500Y2399500D02*
X1609000Y2401000D01*
Y2403618D01*
X1607250Y2405368D02*
X1609000Y2403618D01*
X1607250Y2405368D02*
Y2411882D01*
Y2426210D02*
Y2440260D01*
X1609000Y2442010D01*
Y2450500D01*
D77*
X1943500Y2513500D02*
D03*
X2027500Y2523500D02*
D03*
X1990500Y2283000D02*
D03*
X1989500Y2338000D02*
D03*
X1701500Y2488000D02*
D03*
X1597165Y2373444D02*
D03*
Y2363389D02*
D03*
Y2353333D02*
D03*
Y2303056D02*
D03*
Y2313111D02*
D03*
Y2333222D02*
D03*
Y2383500D02*
D03*
Y2343278D02*
D03*
X2177500Y2228000D02*
D03*
X1771000Y2288500D02*
D03*
X1781000Y2278500D02*
D03*
Y2288500D02*
D03*
X1811000Y2278500D02*
D03*
Y2288500D02*
D03*
X1821000D02*
D03*
X1831000Y2278500D02*
D03*
X1861000D02*
D03*
X1625000Y2374000D02*
D03*
Y2364000D02*
D03*
Y2354000D02*
D03*
Y2344000D02*
D03*
Y2334000D02*
D03*
Y2314000D02*
D03*
Y2304000D02*
D03*
X1615000Y2294000D02*
D03*
Y2324000D02*
D03*
X2051500Y2814000D02*
D03*
X1860000Y2572842D02*
D03*
X1799500Y2123500D02*
D03*
X1887500Y2595000D02*
D03*
X1821500Y2253000D02*
D03*
X1854500Y2103000D02*
D03*
X1611000Y2508000D02*
D03*
X1607500Y2399500D02*
D03*
X1810500Y2098894D02*
D03*
D78*
X1808000Y2212000D02*
D03*
D81*
X1736000Y2441000D02*
D03*
X1706000Y2331000D02*
D03*
X1684500Y2284500D02*
D03*
X1728000Y2405500D02*
D03*
D83*
X1711618Y2261618D02*
D03*
D84*
X1968000Y2534500D02*
D03*
X2014500Y2520000D02*
D03*
X1967000Y2323500D02*
D03*
Y2301500D02*
D03*
D86*
X1903000Y2669000D02*
D03*
D88*
X1711300Y2160400D02*
D03*
D89*
X2200936Y2197626D02*
D03*
D93*
Y2217606D02*
D03*
D96*
X1750110Y2698567D02*
D03*
X1647610Y2698067D02*
D03*
D98*
X1836000Y2133500D02*
D03*
D101*
X1777500Y2733000D02*
D03*
X1900500Y2580500D02*
D03*
X1950500Y2222500D02*
D03*
X1776000Y2421000D02*
D03*
X1745000Y2481000D02*
D03*
X1786000Y2427500D02*
D03*
X1859000Y2407000D02*
D03*
X1846000Y2329500D02*
D03*
X1954000Y2258000D02*
D03*
X1920000Y2368000D02*
D03*
X1714500Y2389500D02*
D03*
X1709500Y2376000D02*
D03*
X1701500Y2434500D02*
D03*
X1784000Y2330500D02*
D03*
X1747000Y2323000D02*
D03*
X1703000Y2295500D02*
D03*
X1790500Y2250500D02*
D03*
X1774260Y2317000D02*
D03*
X1776000Y2308000D02*
D03*
X1729500Y2336500D02*
D03*
X1744000Y2317000D02*
D03*
X1732000Y2253000D02*
D03*
X1752500Y2335000D02*
D03*
X1655000Y2633500D02*
D03*
X1824000Y2713500D02*
D03*
X1844847Y2634500D02*
D03*
X1883000Y2241000D02*
D03*
X1863500Y2241500D02*
D03*
X1696500Y2357000D02*
D03*
X1707000Y2521500D02*
D03*
X1690000Y2431996D02*
D03*
X1709421Y2581740D02*
D03*
X1867500Y2320000D02*
D03*
X1775500Y2703500D02*
D03*
X1771500Y2711000D02*
D03*
X1848000Y2611500D02*
D03*
X1982500Y2353500D02*
D03*
X1941500Y2343000D02*
D03*
X1615500Y2450500D02*
D03*
X2096500Y2266000D02*
D03*
X2111000Y2254500D02*
D03*
X1973500Y2468500D02*
D03*
X1812500Y2243500D02*
D03*
X1684598Y2481902D02*
D03*
D103*
X1547000Y2432000D02*
D03*
X1548500D02*
D03*
X1550000D02*
D03*
D104*
X1569000Y2452000D02*
D03*
X1946378Y2663500D02*
D03*
X1609000Y2450500D02*
D03*
X1911000Y2641000D02*
D03*
D107*
X2137000Y2257500D02*
D03*
X2144000Y2256500D02*
D03*
X1844000Y2736000D02*
D03*
X1850000D02*
D03*
X1754000Y2720500D02*
D03*
X1760000D02*
D03*
X1754000Y2726500D02*
D03*
X1759815D02*
D03*
X2150000Y2255500D02*
D03*
Y2262000D02*
D03*
X2143000D02*
D03*
X2137000D02*
D03*
Y2269000D02*
D03*
X2143000D02*
D03*
X2150000D02*
D03*
X1844000Y2730000D02*
D03*
X1850000D02*
D03*
X1855500Y2736000D02*
D03*
Y2730000D02*
D03*
M02*
