G04 Layer_Physical_Order=2*
G04 Layer_Color=36540*
%FSLAX25Y25*%
%MOIN*%
G70*
G01*
G75*
%ADD13R,0.05905X0.05905*%
%ADD65C,0.03000*%
%ADD66C,0.02000*%
%ADD67C,0.10000*%
%ADD68C,0.05000*%
%ADD72C,0.04000*%
%ADD74C,0.01500*%
%ADD76C,0.03500*%
%ADD77C,0.05905*%
%ADD78C,0.07874*%
%ADD84C,0.04724*%
%ADD85C,0.08000*%
%ADD86C,0.12000*%
%ADD87R,0.07874X0.07874*%
%ADD89C,0.10827*%
%ADD91R,0.13780X0.13780*%
%ADD95R,0.07874X0.07874*%
%ADD96R,0.23622X0.23622*%
%ADD101C,0.05000*%
%ADD102C,0.03500*%
%ADD103C,0.01500*%
G36*
X1548853Y2484500D02*
X1543500D01*
Y2471000D01*
X1548485Y2471000D01*
X1548839Y2470646D01*
X1548839Y2469839D01*
X1548839Y2453021D01*
Y2437470D01*
X1542933D01*
Y2424500D01*
X1545241D01*
X1548347Y2424500D01*
X1548839Y2424146D01*
X1548839Y2423339D01*
X1548839Y2414500D01*
X1529000D01*
X1529000Y2511000D01*
X1548853Y2511000D01*
X1548853Y2484500D01*
D02*
G37*
G36*
X1527500Y2786500D02*
Y2769500D01*
X1520295Y2769500D01*
X1519890Y2769500D01*
X1519823Y2769433D01*
X1519823Y2769028D01*
Y2756677D01*
X1521000Y2755500D01*
X1527500D01*
Y2718500D01*
X1526500Y2717500D01*
X1520500D01*
Y2704000D01*
X1520000Y2703500D01*
X1506000D01*
X1505500Y2704000D01*
Y2788000D01*
X1526000D01*
X1527500Y2786500D01*
D02*
G37*
G36*
X1633100Y2491700D02*
Y2487600D01*
Y2441548D01*
X1632673Y2441309D01*
X1632608Y2441340D01*
X1632266Y2441558D01*
X1632179Y2442218D01*
X1631902Y2442887D01*
X1631461Y2443461D01*
X1630887Y2443902D01*
X1630218Y2444179D01*
X1629500Y2444274D01*
X1628782Y2444179D01*
X1628113Y2443902D01*
X1628000Y2443815D01*
X1627887Y2443902D01*
X1627218Y2444179D01*
X1626500Y2444274D01*
X1625782Y2444179D01*
X1625113Y2443902D01*
X1625000Y2443815D01*
X1624887Y2443902D01*
X1624218Y2444179D01*
X1623500Y2444274D01*
X1622782Y2444179D01*
X1622113Y2443902D01*
X1621539Y2443461D01*
X1621098Y2442887D01*
X1620821Y2442218D01*
X1620726Y2441500D01*
X1620733Y2441452D01*
X1620613Y2441402D01*
X1620039Y2440961D01*
X1619598Y2440387D01*
X1619321Y2439718D01*
X1619226Y2439000D01*
X1619321Y2438282D01*
X1619598Y2437613D01*
X1619983Y2437111D01*
X1619821Y2436718D01*
X1619726Y2436000D01*
X1619821Y2435282D01*
X1620098Y2434613D01*
X1620539Y2434039D01*
X1621113Y2433598D01*
X1621782Y2433321D01*
X1622500Y2433226D01*
X1623218Y2433321D01*
X1623887Y2433598D01*
X1624250Y2433876D01*
X1624613Y2433598D01*
X1625282Y2433321D01*
X1626000Y2433226D01*
X1626718Y2433321D01*
X1627387Y2433598D01*
X1627500Y2433685D01*
X1627613Y2433598D01*
X1628282Y2433321D01*
X1629000Y2433226D01*
X1629718Y2433321D01*
X1630387Y2433598D01*
X1630961Y2434039D01*
X1631402Y2434613D01*
X1631679Y2435282D01*
X1631774Y2436000D01*
X1631731Y2436326D01*
X1632387Y2436598D01*
X1632600Y2436761D01*
X1633100Y2436515D01*
Y2405500D01*
X1553000D01*
Y2406500D01*
Y2424941D01*
X1552000Y2425500D01*
X1549576D01*
X1549239Y2425742D01*
X1549079Y2425815D01*
X1548932Y2425913D01*
X1548810Y2425937D01*
X1548696Y2425989D01*
X1548520Y2425995D01*
X1548347Y2426029D01*
X1544936Y2426029D01*
X1544619Y2426416D01*
X1544696Y2426803D01*
X1544521Y2427681D01*
X1544500Y2427712D01*
Y2428394D01*
X1544521Y2428425D01*
X1544696Y2429303D01*
X1544679Y2429385D01*
X1545000Y2429706D01*
X1545878Y2429881D01*
X1546000Y2429962D01*
X1546122Y2429881D01*
X1547000Y2429706D01*
X1547750Y2429855D01*
X1548500Y2429706D01*
X1549250Y2429855D01*
X1550000Y2429706D01*
X1550878Y2429881D01*
X1551057Y2430000D01*
X1553000D01*
X1552800Y2438000D01*
X1552800Y2471300D01*
X1551300Y2472800D01*
X1545029D01*
Y2477100D01*
X1546294D01*
X1546622Y2476880D01*
X1547500Y2476706D01*
X1548378Y2476880D01*
X1548500Y2476962D01*
X1548622Y2476880D01*
X1549500Y2476706D01*
X1550378Y2476880D01*
X1550500Y2476962D01*
X1550622Y2476880D01*
X1551500Y2476706D01*
X1552378Y2476880D01*
X1552706Y2477100D01*
X1554800D01*
Y2490200D01*
Y2511400D01*
X1607366D01*
X1607613Y2510900D01*
X1607110Y2510246D01*
X1606662Y2509162D01*
X1606509Y2508000D01*
X1606662Y2506838D01*
X1607110Y2505754D01*
X1607824Y2504824D01*
X1608754Y2504111D01*
X1609838Y2503662D01*
X1611000Y2503509D01*
X1612162Y2503662D01*
X1613246Y2504111D01*
X1614176Y2504824D01*
X1614890Y2505754D01*
X1615338Y2506838D01*
X1615491Y2508000D01*
X1615338Y2509162D01*
X1614890Y2510246D01*
X1614387Y2510900D01*
X1614634Y2511400D01*
X1617500D01*
X1633100Y2491700D01*
D02*
G37*
G36*
X2058689Y2587000D02*
X2058987Y2586598D01*
X2058758Y2585844D01*
X2058577Y2584000D01*
X2058758Y2582156D01*
X2059296Y2580383D01*
X2060169Y2578749D01*
X2061345Y2577317D01*
X2062777Y2576142D01*
X2064411Y2575268D01*
X2066184Y2574731D01*
X2068028Y2574549D01*
X2069871Y2574731D01*
X2071644Y2575268D01*
X2073278Y2576142D01*
X2074710Y2577317D01*
X2075886Y2578749D01*
X2076759Y2580383D01*
X2077297Y2582156D01*
X2077479Y2584000D01*
X2077297Y2585844D01*
X2077068Y2586598D01*
X2077366Y2587000D01*
X2198634Y2587000D01*
X2198932Y2586598D01*
X2198703Y2585844D01*
X2198521Y2584000D01*
X2198703Y2582156D01*
X2199241Y2580383D01*
X2200114Y2578749D01*
X2201290Y2577317D01*
X2202722Y2576142D01*
X2204356Y2575268D01*
X2206129Y2574731D01*
X2207972Y2574549D01*
X2209816Y2574731D01*
X2211589Y2575268D01*
X2213223Y2576142D01*
X2213514Y2576380D01*
X2213965Y2576166D01*
Y2560000D01*
Y2177999D01*
Y2117813D01*
X2213465Y2117794D01*
X2213464Y2117816D01*
X2213039Y2119587D01*
X2212342Y2121269D01*
X2211390Y2122822D01*
X2210207Y2124207D01*
X2208822Y2125390D01*
X2207269Y2126342D01*
X2205587Y2127039D01*
X2203816Y2127464D01*
X2202000Y2127607D01*
X2200184Y2127464D01*
X2198413Y2127039D01*
X2196731Y2126342D01*
X2195178Y2125390D01*
X2193793Y2124207D01*
X2192610Y2122822D01*
X2191658Y2121269D01*
X2190961Y2119587D01*
X2190536Y2117816D01*
X2190393Y2116000D01*
X2190536Y2114184D01*
X2190961Y2112413D01*
X2191658Y2110731D01*
X2192610Y2109178D01*
X2193793Y2107793D01*
X2195178Y2106610D01*
X2196731Y2105658D01*
X2198413Y2104961D01*
X2200184Y2104536D01*
X2202000Y2104393D01*
X2203816Y2104536D01*
X2205587Y2104961D01*
X2207269Y2105658D01*
X2208822Y2106610D01*
X2210207Y2107793D01*
X2211390Y2109178D01*
X2212342Y2110731D01*
X2213039Y2112413D01*
X2213464Y2114184D01*
X2213465Y2114206D01*
X2213965Y2114187D01*
Y2084200D01*
X1717100Y2084200D01*
X1372555D01*
X1372428Y2084700D01*
X1373707Y2085793D01*
X1374890Y2087178D01*
X1375842Y2088731D01*
X1376539Y2090413D01*
X1376964Y2092184D01*
X1377107Y2094000D01*
X1376964Y2095816D01*
X1376539Y2097587D01*
X1375842Y2099269D01*
X1374890Y2100822D01*
X1373707Y2102207D01*
X1372322Y2103390D01*
X1370769Y2104342D01*
X1369087Y2105039D01*
X1367316Y2105464D01*
X1365500Y2105607D01*
X1363684Y2105464D01*
X1361913Y2105039D01*
X1360231Y2104342D01*
X1358678Y2103390D01*
X1358489Y2103228D01*
X1358035Y2103438D01*
Y2333323D01*
X1358535Y2333536D01*
X1359519Y2333010D01*
X1360735Y2332641D01*
X1362000Y2332516D01*
X1363265Y2332641D01*
X1364481Y2333010D01*
X1365602Y2333609D01*
X1366585Y2334415D01*
X1367391Y2335398D01*
X1367990Y2336519D01*
X1368359Y2337735D01*
X1368484Y2339000D01*
X1368359Y2340265D01*
X1367990Y2341481D01*
X1367391Y2342602D01*
X1366585Y2343585D01*
X1365602Y2344391D01*
X1364481Y2344990D01*
X1363265Y2345359D01*
X1362000Y2345484D01*
X1360735Y2345359D01*
X1359519Y2344990D01*
X1358535Y2344464D01*
X1358035Y2344677D01*
Y2393788D01*
X1358535Y2393812D01*
X1358545Y2393701D01*
X1358641Y2392735D01*
X1359010Y2391519D01*
X1359609Y2390398D01*
X1360415Y2389415D01*
X1361398Y2388609D01*
X1362519Y2388010D01*
X1363735Y2387641D01*
X1365000Y2387516D01*
X1366265Y2387641D01*
X1367481Y2388010D01*
X1368602Y2388609D01*
X1369585Y2389415D01*
X1370391Y2390398D01*
X1370990Y2391519D01*
X1371359Y2392735D01*
X1371484Y2394000D01*
X1371359Y2395265D01*
X1370990Y2396481D01*
X1370391Y2397602D01*
X1369585Y2398585D01*
X1368602Y2399391D01*
X1367481Y2399990D01*
X1366265Y2400359D01*
X1365000Y2400484D01*
X1363735Y2400359D01*
X1362519Y2399990D01*
X1361398Y2399391D01*
X1360415Y2398585D01*
X1359609Y2397602D01*
X1359010Y2396481D01*
X1358641Y2395265D01*
X1358545Y2394299D01*
X1358535Y2394188D01*
X1358035Y2394212D01*
Y2500158D01*
X1358263Y2500563D01*
X1358535Y2500563D01*
X1373137D01*
Y2515437D01*
X1358535D01*
X1358263Y2515437D01*
X1358035Y2515842D01*
Y2576000D01*
X1477803Y2576000D01*
X1478139Y2575629D01*
X1478076Y2575000D01*
X1478258Y2573156D01*
X1478796Y2571383D01*
X1479669Y2569749D01*
X1480845Y2568317D01*
X1482277Y2567142D01*
X1483911Y2566268D01*
X1485684Y2565731D01*
X1487528Y2565549D01*
X1489371Y2565731D01*
X1491144Y2566268D01*
X1492778Y2567142D01*
X1494210Y2568317D01*
X1495386Y2569749D01*
X1496259Y2571383D01*
X1496797Y2573156D01*
X1496979Y2575000D01*
X1496917Y2575629D01*
X1497252Y2576000D01*
X1519500Y2576000D01*
X1520500Y2575000D01*
X1520500Y2403100D01*
X1548400Y2403100D01*
X1550000Y2401500D01*
X1550000Y2272800D01*
X1611600D01*
X1626600Y2257800D01*
Y2227400D01*
X1650157Y2203843D01*
X1650780Y2202678D01*
X1651635Y2201635D01*
X1652678Y2200780D01*
X1653843Y2200157D01*
X1676000Y2178000D01*
X1924537Y2178000D01*
X1924534Y2178034D01*
X1970500Y2224000D01*
X1985500Y2224000D01*
X1995500Y2234000D01*
X1995500Y2278921D01*
X1995891Y2279398D01*
X1996490Y2280519D01*
X1996859Y2281735D01*
X1996984Y2283000D01*
X1996859Y2284265D01*
X1996490Y2285481D01*
X1995891Y2286602D01*
X1995500Y2287079D01*
X1995500Y2335550D01*
X1995859Y2336735D01*
X1995984Y2338000D01*
X1995859Y2339265D01*
X1995500Y2340450D01*
Y2340935D01*
X1996085Y2341415D01*
X1996891Y2342398D01*
X1997490Y2343519D01*
X1997859Y2344735D01*
X1997984Y2346000D01*
X1997859Y2347265D01*
X1997490Y2348481D01*
X1996891Y2349602D01*
X1996085Y2350585D01*
X1995500Y2351065D01*
X1995500Y2387500D01*
X2049500D01*
X2067000Y2405000D01*
Y2513539D01*
X2067490Y2513636D01*
X2067658Y2513231D01*
X2068610Y2511678D01*
X2069793Y2510293D01*
X2071178Y2509110D01*
X2072731Y2508158D01*
X2074413Y2507461D01*
X2076184Y2507036D01*
X2078000Y2506893D01*
X2079816Y2507036D01*
X2081587Y2507461D01*
X2083269Y2508158D01*
X2084822Y2509110D01*
X2086207Y2510293D01*
X2087390Y2511678D01*
X2088342Y2513231D01*
X2089039Y2514913D01*
X2089464Y2516684D01*
X2089607Y2518500D01*
X2089464Y2520316D01*
X2089039Y2522087D01*
X2088342Y2523769D01*
X2087390Y2525322D01*
X2086207Y2526707D01*
X2084822Y2527890D01*
X2083269Y2528842D01*
X2081587Y2529539D01*
X2079816Y2529964D01*
X2078000Y2530107D01*
X2076184Y2529964D01*
X2075236Y2529736D01*
D01*
X2074413Y2529539D01*
X2072731Y2528842D01*
X2071178Y2527890D01*
X2069793Y2526707D01*
X2069189Y2526000D01*
D01*
X2068610Y2525322D01*
X2067658Y2523769D01*
X2067490Y2523364D01*
X2067000Y2523461D01*
Y2526000D01*
X2033480Y2526000D01*
X2032891Y2527102D01*
X2032085Y2528085D01*
X2031102Y2528891D01*
X2030759Y2529075D01*
X2031235Y2583235D01*
X2035000Y2587000D01*
X2058689Y2587000D01*
D02*
G37*
G36*
X1990750Y2673500D02*
Y2577000D01*
X1971250D01*
Y2603250D01*
X1972328D01*
X1972500Y2603216D01*
X1972672Y2603250D01*
X1974328D01*
X1974500Y2603216D01*
X1974672Y2603250D01*
X1976000D01*
X1976750Y2604000D01*
Y2630500D01*
X1971250D01*
X1970750Y2631000D01*
Y2651500D01*
X1976750D01*
Y2654828D01*
X1976784Y2655000D01*
X1976750Y2655172D01*
Y2674000D01*
X1990250D01*
X1990750Y2673500D01*
D02*
G37*
G36*
X2058500Y2505750D02*
Y2409250D01*
X2039000D01*
Y2435500D01*
X2043750D01*
X2044500Y2436250D01*
Y2462750D01*
X2039000D01*
X2038500Y2463250D01*
Y2482500D01*
X2044500D01*
Y2506250D01*
X2058000D01*
X2058500Y2505750D01*
D02*
G37*
G36*
X1624000Y2769500D02*
X1624000Y2687500D01*
X1630500Y2681000D01*
X1659823D01*
X1660140Y2680500D01*
X1660009Y2679500D01*
X1660162Y2678338D01*
X1660611Y2677254D01*
X1661324Y2676324D01*
X1662254Y2675611D01*
X1663338Y2675162D01*
X1664500Y2675009D01*
X1665662Y2675162D01*
X1666746Y2675611D01*
X1667676Y2676324D01*
X1668390Y2677254D01*
X1668838Y2678338D01*
X1668991Y2679500D01*
X1668859Y2680500D01*
X1669177Y2681000D01*
X1672500D01*
X1673000Y2681500D01*
X1709500D01*
Y2662295D01*
X1709000Y2662262D01*
X1708897Y2663044D01*
X1708494Y2664017D01*
X1707853Y2664853D01*
X1707017Y2665494D01*
X1706044Y2665897D01*
X1705000Y2666035D01*
X1703956Y2665897D01*
X1702983Y2665494D01*
X1702147Y2664853D01*
X1701506Y2664017D01*
X1701103Y2663044D01*
X1700965Y2662000D01*
X1701103Y2660956D01*
X1701506Y2659983D01*
X1702147Y2659147D01*
X1702983Y2658506D01*
X1703956Y2658103D01*
X1705000Y2657965D01*
X1706044Y2658103D01*
X1707017Y2658506D01*
X1707853Y2659147D01*
X1708494Y2659983D01*
X1708897Y2660956D01*
X1709000Y2661738D01*
X1709500Y2661705D01*
Y2656766D01*
Y2640295D01*
X1709000Y2640262D01*
X1708897Y2641044D01*
X1708494Y2642017D01*
X1707853Y2642853D01*
X1707017Y2643494D01*
X1706044Y2643897D01*
X1705000Y2644035D01*
X1703956Y2643897D01*
X1702983Y2643494D01*
X1702147Y2642853D01*
X1701506Y2642017D01*
X1701103Y2641044D01*
X1700965Y2640000D01*
X1701103Y2638956D01*
X1701506Y2637983D01*
X1702147Y2637147D01*
X1702983Y2636506D01*
X1703956Y2636103D01*
X1705000Y2635966D01*
X1706044Y2636103D01*
X1707017Y2636506D01*
X1707853Y2637147D01*
X1708494Y2637983D01*
X1708897Y2638956D01*
X1709000Y2639738D01*
X1709500Y2639705D01*
Y2611000D01*
X1706000Y2607500D01*
X1687000D01*
X1684000Y2610500D01*
X1680500D01*
X1679938Y2611062D01*
X1680117Y2611590D01*
X1680662Y2611662D01*
X1681746Y2612111D01*
X1682676Y2612824D01*
X1683389Y2613754D01*
X1683838Y2614838D01*
X1683991Y2616000D01*
X1683838Y2617162D01*
X1683389Y2618246D01*
X1682676Y2619176D01*
X1681746Y2619889D01*
X1680662Y2620338D01*
X1679500Y2620491D01*
X1678338Y2620338D01*
X1677254Y2619889D01*
X1676324Y2619176D01*
X1675611Y2618246D01*
X1675162Y2617162D01*
X1675090Y2616617D01*
X1674562Y2616438D01*
X1673500Y2617500D01*
Y2651500D01*
X1647500D01*
X1640823Y2658177D01*
X1640940Y2658767D01*
X1641517Y2659006D01*
X1642353Y2659647D01*
X1642994Y2660483D01*
X1643397Y2661456D01*
X1643534Y2662500D01*
X1643397Y2663544D01*
X1642994Y2664517D01*
X1642353Y2665353D01*
X1641517Y2665994D01*
X1640544Y2666397D01*
X1639500Y2666534D01*
X1638456Y2666397D01*
X1637483Y2665994D01*
X1636647Y2665353D01*
X1636006Y2664517D01*
X1635767Y2663940D01*
X1635177Y2663823D01*
X1631000Y2668000D01*
X1613936D01*
X1613936Y2668000D01*
X1566500Y2668000D01*
X1530500Y2704000D01*
Y2704661D01*
X1529000Y2705500D01*
X1522029D01*
Y2709389D01*
X1522529Y2709800D01*
X1523000Y2709706D01*
X1523878Y2709880D01*
X1524057Y2710000D01*
X1524443D01*
X1524622Y2709880D01*
X1525500Y2709706D01*
X1526378Y2709880D01*
X1526557Y2710000D01*
X1526943D01*
X1527122Y2709880D01*
X1528000Y2709706D01*
X1528878Y2709880D01*
X1529057Y2710000D01*
X1530500D01*
Y2713943D01*
X1530619Y2714122D01*
X1530794Y2715000D01*
X1530619Y2715878D01*
X1530500Y2716057D01*
X1530500Y2756661D01*
X1529000Y2757500D01*
X1521500D01*
Y2758374D01*
X1521585Y2758803D01*
X1521500Y2759233D01*
Y2760874D01*
X1521585Y2761303D01*
X1521546Y2761500D01*
X1521877Y2762000D01*
X1522443D01*
X1522622Y2761880D01*
X1523500Y2761706D01*
X1524378Y2761880D01*
X1524500Y2761962D01*
X1524622Y2761880D01*
X1525500Y2761706D01*
X1526378Y2761880D01*
X1526557Y2762000D01*
X1526943D01*
X1527122Y2761880D01*
X1528000Y2761706D01*
X1528878Y2761880D01*
X1529057Y2762000D01*
X1530500D01*
X1530500Y2787000D01*
X1532000Y2788500D01*
X1533500Y2790500D01*
X1538500Y2795500D01*
X1598000D01*
X1624000Y2769500D01*
D02*
G37*
G36*
X1833500Y2682500D02*
X1850500Y2682500D01*
X1852500Y2680500D01*
X1890000Y2680500D01*
X1891000Y2681500D01*
X1891500Y2681000D01*
X1955500D01*
X1968000Y2668500D01*
Y2664000D01*
X1974500D01*
X1975221Y2663279D01*
Y2659221D01*
X1975000Y2659000D01*
X1966500D01*
X1963500Y2656000D01*
Y2649000D01*
X1966000D01*
X1967000Y2648000D01*
Y2614500D01*
X1975221D01*
Y2610000D01*
X1960500D01*
X1934500Y2584000D01*
X1902503D01*
X1901544Y2584397D01*
X1900500Y2584534D01*
X1899876Y2584452D01*
X1899500Y2584782D01*
Y2610500D01*
X1891000Y2619000D01*
X1877811D01*
X1877676Y2619176D01*
X1876746Y2619889D01*
X1875662Y2620338D01*
X1874500Y2620491D01*
X1873338Y2620338D01*
X1872254Y2619889D01*
X1871324Y2619176D01*
X1871189Y2619000D01*
X1870500D01*
X1865500Y2624000D01*
Y2649500D01*
X1835500D01*
X1805500Y2679500D01*
X1790000D01*
Y2687500D01*
X1828500D01*
X1833500Y2682500D01*
D02*
G37*
G36*
X1982000Y2522822D02*
X1982000Y2508500D01*
X2039000D01*
Y2496000D01*
X2040500Y2494500D01*
X2042971D01*
Y2493479D01*
X2042915Y2493197D01*
X2042971Y2492915D01*
Y2490978D01*
X2042915Y2490697D01*
X2042930Y2490619D01*
X2042652Y2490278D01*
X2042471Y2490200D01*
X2042000Y2490294D01*
X2041122Y2490120D01*
X2041000Y2490038D01*
X2040878Y2490120D01*
X2040000Y2490294D01*
X2039122Y2490120D01*
X2039000Y2490038D01*
X2038878Y2490120D01*
X2038000Y2490294D01*
X2037122Y2490120D01*
X2037000Y2490038D01*
X2036878Y2490120D01*
X2036000Y2490294D01*
X2035122Y2490120D01*
X2034378Y2489622D01*
X2033880Y2488878D01*
X2033706Y2488000D01*
X2033880Y2487122D01*
X2034000Y2486943D01*
Y2485557D01*
X2033880Y2485378D01*
X2033706Y2484500D01*
X2033880Y2483622D01*
X2034000Y2483443D01*
Y2449000D01*
X2035000Y2448000D01*
X2042500D01*
X2042971Y2447529D01*
Y2446282D01*
X2042915Y2446000D01*
X2042971Y2445718D01*
Y2443782D01*
X2042915Y2443500D01*
X2042561Y2443000D01*
X2035500D01*
X2035114Y2442614D01*
X2034378Y2442122D01*
X2033886Y2441386D01*
X2033500Y2441000D01*
X2033000D01*
Y2435000D01*
X2031500D01*
Y2410500D01*
X2025500Y2404500D01*
X2001500Y2404500D01*
X1998500Y2407500D01*
X1998060Y2436126D01*
X1933000Y2464931D01*
X1933000Y2508500D01*
X1950000D01*
X1950000Y2523822D01*
X1981000D01*
X1982000Y2522822D01*
D02*
G37*
G36*
X1766411Y2721725D02*
X1765913Y2721676D01*
X1765570Y2722807D01*
X1765107Y2723673D01*
X1765385Y2724193D01*
X1765728Y2725324D01*
X1765844Y2726500D01*
X1765728Y2727676D01*
X1765385Y2728807D01*
X1764828Y2729850D01*
X1764078Y2730763D01*
X1763165Y2731513D01*
X1762122Y2732070D01*
X1760991Y2732413D01*
X1759815Y2732529D01*
X1758639Y2732413D01*
X1757508Y2732070D01*
X1756907Y2731749D01*
X1756307Y2732070D01*
X1755176Y2732413D01*
X1754000Y2732529D01*
X1752824Y2732413D01*
X1751693Y2732070D01*
X1750650Y2731513D01*
X1749737Y2730763D01*
X1748987Y2729850D01*
X1748430Y2728807D01*
X1748087Y2727676D01*
X1747971Y2726500D01*
X1748087Y2725324D01*
X1748430Y2724193D01*
X1748800Y2723500D01*
X1748430Y2722807D01*
X1748087Y2721676D01*
X1747971Y2720500D01*
X1748087Y2719324D01*
X1748430Y2718193D01*
X1748987Y2717150D01*
X1749737Y2716237D01*
X1750650Y2715487D01*
X1751693Y2714930D01*
X1752824Y2714587D01*
X1753705Y2714500D01*
X1753681Y2714000D01*
X1695000D01*
Y2692500D01*
X1695000Y2684500D01*
X1668579Y2684500D01*
X1668102Y2684891D01*
X1666981Y2685490D01*
X1665765Y2685859D01*
X1664500Y2685984D01*
X1663421Y2685878D01*
X1662921Y2686216D01*
Y2713378D01*
X1634500D01*
Y2729035D01*
X1634883Y2729357D01*
X1635000Y2729337D01*
Y2776500D01*
X1611500Y2800000D01*
X1496978D01*
Y2676000D01*
X1501478Y2671500D01*
X1520500Y2671500D01*
X1520500Y2598000D01*
X1427168Y2598000D01*
X1426995Y2598469D01*
X1427067Y2598531D01*
X1428230Y2599892D01*
X1429166Y2601419D01*
X1429851Y2603073D01*
X1430269Y2604814D01*
X1430409Y2606598D01*
X1430269Y2608383D01*
X1429851Y2610124D01*
X1429166Y2611778D01*
X1428230Y2613305D01*
X1427067Y2614666D01*
X1425706Y2615829D01*
X1424180Y2616764D01*
X1422526Y2617449D01*
X1420785Y2617867D01*
X1419000Y2618008D01*
X1417215Y2617867D01*
X1415474Y2617449D01*
X1413820Y2616764D01*
X1412294Y2615829D01*
X1410933Y2614666D01*
X1409770Y2613305D01*
X1408834Y2611778D01*
X1408149Y2610124D01*
X1407731Y2608383D01*
X1407591Y2606598D01*
X1407731Y2604814D01*
X1408149Y2603073D01*
X1408834Y2601419D01*
X1409770Y2599892D01*
X1410933Y2598531D01*
X1411005Y2598469D01*
X1410832Y2598000D01*
X1358035Y2598000D01*
Y2812562D01*
X1358489Y2812772D01*
X1358678Y2812610D01*
X1360231Y2811658D01*
X1361913Y2810961D01*
X1363684Y2810536D01*
X1365500Y2810393D01*
X1367316Y2810536D01*
X1369087Y2810961D01*
X1370769Y2811658D01*
X1372322Y2812610D01*
X1373707Y2813793D01*
X1374890Y2815178D01*
X1375842Y2816731D01*
X1376539Y2818413D01*
X1376964Y2820184D01*
X1377107Y2822000D01*
X1376964Y2823816D01*
X1376539Y2825587D01*
X1375842Y2827269D01*
X1374890Y2828822D01*
X1373707Y2830207D01*
X1373368Y2830496D01*
X1373542Y2830965D01*
X1632299D01*
Y2803756D01*
X1662921D01*
Y2830965D01*
X1766411D01*
X1766411Y2721725D01*
D02*
G37*
G36*
X2213965Y2829035D02*
Y2631834D01*
X2213514Y2631620D01*
X2213223Y2631858D01*
X2211589Y2632732D01*
X2209816Y2633269D01*
X2207972Y2633451D01*
X2206129Y2633269D01*
X2204356Y2632732D01*
X2202722Y2631858D01*
X2201290Y2630683D01*
X2200114Y2629251D01*
X2199241Y2627617D01*
X2198703Y2625844D01*
X2198521Y2624000D01*
X2198703Y2622156D01*
X2199241Y2620383D01*
X2200114Y2618749D01*
X2201290Y2617317D01*
X2202722Y2616142D01*
X2204356Y2615268D01*
X2206129Y2614731D01*
X2207972Y2614549D01*
X2209816Y2614731D01*
X2211589Y2615268D01*
X2213223Y2616142D01*
X2213514Y2616380D01*
X2213965Y2616166D01*
Y2604500D01*
X2119475Y2604500D01*
X2118850Y2605013D01*
X2117807Y2605570D01*
X2116676Y2605913D01*
X2115500Y2606029D01*
X2114324Y2605913D01*
X2113193Y2605570D01*
X2112150Y2605013D01*
X2111525Y2604500D01*
X2034500Y2604500D01*
X2014000Y2577000D01*
X1999000Y2577000D01*
Y2625500D01*
X1999000Y2675500D01*
X1990499Y2684000D01*
X1982201D01*
Y2713744D01*
X1951579D01*
Y2684000D01*
X1854000Y2684000D01*
X1838000Y2700000D01*
Y2727436D01*
X1838500Y2727562D01*
X1838987Y2726650D01*
X1839737Y2725737D01*
X1840650Y2724987D01*
X1841693Y2724430D01*
X1842824Y2724087D01*
X1844000Y2723971D01*
X1845176Y2724087D01*
X1846307Y2724430D01*
X1847000Y2724800D01*
X1847693Y2724430D01*
X1848824Y2724087D01*
X1850000Y2723971D01*
X1851176Y2724087D01*
X1852307Y2724430D01*
X1852750Y2724667D01*
X1853193Y2724430D01*
X1854324Y2724087D01*
X1855500Y2723971D01*
X1856676Y2724087D01*
X1857807Y2724430D01*
X1858850Y2724987D01*
X1859763Y2725737D01*
X1860513Y2726650D01*
X1861070Y2727693D01*
X1861413Y2728824D01*
X1861529Y2730000D01*
X1861413Y2731176D01*
X1861070Y2732307D01*
X1860700Y2733000D01*
X1861070Y2733693D01*
X1861413Y2734824D01*
X1861529Y2736000D01*
X1861413Y2737176D01*
X1861070Y2738307D01*
X1860513Y2739350D01*
X1859763Y2740263D01*
X1858850Y2741013D01*
X1857807Y2741570D01*
X1856676Y2741913D01*
X1855500Y2742029D01*
X1854324Y2741913D01*
X1853193Y2741570D01*
X1852750Y2741333D01*
X1852307Y2741570D01*
X1851176Y2741913D01*
X1850000Y2742029D01*
X1848824Y2741913D01*
X1847693Y2741570D01*
X1847000Y2741200D01*
X1846307Y2741570D01*
X1845176Y2741913D01*
X1844000Y2742029D01*
X1842824Y2741913D01*
X1841693Y2741570D01*
X1840650Y2741013D01*
X1839737Y2740263D01*
X1838987Y2739350D01*
X1838500Y2738438D01*
X1838000Y2738564D01*
Y2743000D01*
X1873500Y2743000D01*
X1911500Y2781000D01*
X1918500Y2788000D01*
Y2830965D01*
X1943732D01*
X1943946Y2830514D01*
X1943609Y2830102D01*
X1943010Y2828981D01*
X1942641Y2827765D01*
X1942516Y2826500D01*
X1942641Y2825235D01*
X1943010Y2824019D01*
X1943609Y2822898D01*
X1944415Y2821915D01*
X1945398Y2821109D01*
X1946519Y2820510D01*
X1947735Y2820141D01*
X1949000Y2820016D01*
X1950265Y2820141D01*
X1951079Y2820387D01*
X1951579Y2820017D01*
Y2804122D01*
X1982201D01*
Y2830965D01*
X2031288D01*
X2031312Y2830466D01*
X2030235Y2830359D01*
X2029019Y2829990D01*
X2027898Y2829391D01*
X2026915Y2828585D01*
X2026109Y2827602D01*
X2025510Y2826481D01*
X2025141Y2825265D01*
X2025016Y2824000D01*
X2025141Y2822735D01*
X2025510Y2821519D01*
X2026109Y2820398D01*
X2026915Y2819415D01*
X2027116Y2819250D01*
Y2818750D01*
X2026915Y2818585D01*
X2026109Y2817602D01*
X2025510Y2816481D01*
X2025141Y2815265D01*
X2025016Y2814000D01*
X2025141Y2812735D01*
X2025510Y2811519D01*
X2026109Y2810398D01*
X2026915Y2809415D01*
X2027898Y2808609D01*
X2029019Y2808010D01*
X2030235Y2807641D01*
X2031500Y2807516D01*
X2032765Y2807641D01*
X2033981Y2808010D01*
X2035102Y2808609D01*
X2036085Y2809415D01*
X2036250Y2809616D01*
X2036750D01*
X2036915Y2809415D01*
X2037898Y2808609D01*
X2039019Y2808010D01*
X2040235Y2807641D01*
X2041500Y2807516D01*
X2042765Y2807641D01*
X2043981Y2808010D01*
X2045102Y2808609D01*
X2046085Y2809415D01*
X2046250Y2809616D01*
X2046750D01*
X2046915Y2809415D01*
X2047898Y2808609D01*
X2049019Y2808010D01*
X2050235Y2807641D01*
X2051500Y2807516D01*
X2052765Y2807641D01*
X2053981Y2808010D01*
X2055102Y2808609D01*
X2056085Y2809415D01*
X2056250Y2809616D01*
X2056750D01*
X2056915Y2809415D01*
X2057898Y2808609D01*
X2059019Y2808010D01*
X2060235Y2807641D01*
X2061500Y2807516D01*
X2062765Y2807641D01*
X2063981Y2808010D01*
X2065102Y2808609D01*
X2066085Y2809415D01*
X2066250Y2809616D01*
X2066750D01*
X2066915Y2809415D01*
X2067898Y2808609D01*
X2069019Y2808010D01*
X2070235Y2807641D01*
X2071500Y2807516D01*
X2072765Y2807641D01*
X2073981Y2808010D01*
X2075102Y2808609D01*
X2076085Y2809415D01*
X2076891Y2810398D01*
X2077490Y2811519D01*
X2077859Y2812735D01*
X2077984Y2814000D01*
X2077859Y2815265D01*
X2077490Y2816481D01*
X2077150Y2817118D01*
X2077407Y2817547D01*
X2077953D01*
Y2830453D01*
X2065047D01*
Y2829907D01*
X2064618Y2829650D01*
X2063981Y2829990D01*
X2062765Y2830359D01*
X2061688Y2830466D01*
X2061712Y2830965D01*
X2212035D01*
X2213965Y2829035D01*
D02*
G37*
%LPC*%
G36*
X1618500Y2493991D02*
X1617338Y2493838D01*
X1616254Y2493390D01*
X1615324Y2492676D01*
X1614610Y2491746D01*
X1614162Y2490662D01*
X1614009Y2489500D01*
X1614162Y2488338D01*
X1614610Y2487254D01*
X1615324Y2486324D01*
X1616254Y2485611D01*
X1617338Y2485162D01*
X1618500Y2485009D01*
X1619662Y2485162D01*
X1620746Y2485611D01*
X1621676Y2486324D01*
X1622389Y2487254D01*
X1622838Y2488338D01*
X1622991Y2489500D01*
X1622838Y2490662D01*
X1622389Y2491746D01*
X1621676Y2492676D01*
X1620746Y2493390D01*
X1619662Y2493838D01*
X1618500Y2493991D01*
D02*
G37*
G36*
X1612500Y2443534D02*
X1611456Y2443397D01*
X1610483Y2442994D01*
X1609647Y2442353D01*
X1609006Y2441517D01*
X1608603Y2440544D01*
X1608466Y2439500D01*
X1608603Y2438456D01*
X1609006Y2437483D01*
X1609647Y2436647D01*
X1610483Y2436006D01*
X1611456Y2435603D01*
X1612500Y2435465D01*
X1613544Y2435603D01*
X1614517Y2436006D01*
X1615353Y2436647D01*
X1615994Y2437483D01*
X1616397Y2438456D01*
X1616534Y2439500D01*
X1616397Y2440544D01*
X1615994Y2441517D01*
X1615353Y2442353D01*
X1614517Y2442994D01*
X1613544Y2443397D01*
X1612500Y2443534D01*
D02*
G37*
G36*
X1567500Y2432026D02*
X1566717Y2431923D01*
X1565987Y2431620D01*
X1565360Y2431140D01*
X1564880Y2430513D01*
X1564577Y2429783D01*
X1564474Y2429000D01*
X1564577Y2428217D01*
X1564880Y2427487D01*
X1565360Y2426860D01*
X1565987Y2426380D01*
X1566717Y2426077D01*
X1567500Y2425974D01*
X1568283Y2426077D01*
X1569013Y2426380D01*
X1569640Y2426860D01*
X1570121Y2427487D01*
X1570423Y2428217D01*
X1570526Y2429000D01*
X1570423Y2429783D01*
X1570121Y2430513D01*
X1569640Y2431140D01*
X1569013Y2431620D01*
X1568283Y2431923D01*
X1567500Y2432026D01*
D02*
G37*
G36*
X1569000Y2455026D02*
X1568217Y2454923D01*
X1567487Y2454621D01*
X1566860Y2454140D01*
X1566380Y2453513D01*
X1566077Y2452783D01*
X1565974Y2452000D01*
X1566077Y2451217D01*
X1566380Y2450487D01*
X1566860Y2449860D01*
X1567487Y2449380D01*
X1568217Y2449077D01*
X1569000Y2448974D01*
X1569783Y2449077D01*
X1570513Y2449380D01*
X1571140Y2449860D01*
X1571620Y2450487D01*
X1571923Y2451217D01*
X1572026Y2452000D01*
X1571923Y2452783D01*
X1571620Y2453513D01*
X1571140Y2454140D01*
X1570513Y2454621D01*
X1569783Y2454923D01*
X1569000Y2455026D01*
D02*
G37*
G36*
X1615500Y2454535D02*
X1614456Y2454397D01*
X1613483Y2453994D01*
X1612647Y2453353D01*
X1612006Y2452517D01*
X1611956Y2452397D01*
X1611384Y2452321D01*
X1611140Y2452640D01*
X1610513Y2453120D01*
X1609783Y2453423D01*
X1609000Y2453526D01*
X1608217Y2453423D01*
X1607487Y2453120D01*
X1606860Y2452640D01*
X1606380Y2452013D01*
X1606077Y2451283D01*
X1605974Y2450500D01*
X1606077Y2449717D01*
X1606380Y2448987D01*
X1606860Y2448360D01*
X1607487Y2447879D01*
X1608217Y2447577D01*
X1609000Y2447474D01*
X1609783Y2447577D01*
X1610513Y2447879D01*
X1611140Y2448360D01*
X1611384Y2448679D01*
X1611956Y2448603D01*
X1612006Y2448483D01*
X1612647Y2447647D01*
X1613483Y2447006D01*
X1614456Y2446603D01*
X1615500Y2446465D01*
X1616544Y2446603D01*
X1617517Y2447006D01*
X1618353Y2447647D01*
X1618994Y2448483D01*
X1619397Y2449456D01*
X1619534Y2450500D01*
X1619397Y2451544D01*
X1618994Y2452517D01*
X1618353Y2453353D01*
X1617517Y2453994D01*
X1616544Y2454397D01*
X1615500Y2454535D01*
D02*
G37*
G36*
X1603000Y2427036D02*
X1601530Y2426892D01*
X1600116Y2426463D01*
X1598813Y2425766D01*
X1597671Y2424829D01*
X1596734Y2423687D01*
X1596037Y2422384D01*
X1595609Y2420970D01*
X1595464Y2419500D01*
X1595609Y2418030D01*
X1596037Y2416616D01*
X1596734Y2415313D01*
X1597671Y2414171D01*
X1598813Y2413234D01*
X1600116Y2412537D01*
X1601530Y2412108D01*
X1603000Y2411964D01*
X1604470Y2412108D01*
X1605884Y2412537D01*
X1607187Y2413234D01*
X1608329Y2414171D01*
X1609266Y2415313D01*
X1609963Y2416616D01*
X1610391Y2418030D01*
X1610536Y2419500D01*
X1610391Y2420970D01*
X1609963Y2422384D01*
X1609266Y2423687D01*
X1608329Y2424829D01*
X1607187Y2425766D01*
X1605884Y2426463D01*
X1604470Y2426892D01*
X1603000Y2427036D01*
D02*
G37*
G36*
X1576500Y2472526D02*
X1575717Y2472423D01*
X1574987Y2472120D01*
X1574360Y2471640D01*
X1573880Y2471013D01*
X1573577Y2470283D01*
X1573474Y2469500D01*
X1573577Y2468717D01*
X1573880Y2467987D01*
X1574360Y2467360D01*
X1574987Y2466879D01*
X1575717Y2466577D01*
X1576500Y2466474D01*
X1577283Y2466577D01*
X1578013Y2466879D01*
X1578640Y2467360D01*
X1579121Y2467987D01*
X1579423Y2468717D01*
X1579526Y2469500D01*
X1579423Y2470283D01*
X1579121Y2471013D01*
X1578640Y2471640D01*
X1578013Y2472120D01*
X1577283Y2472423D01*
X1576500Y2472526D01*
D02*
G37*
G36*
X1587500Y2505036D02*
X1586030Y2504892D01*
X1584616Y2504463D01*
X1583313Y2503766D01*
X1582171Y2502829D01*
X1581234Y2501687D01*
X1580537Y2500384D01*
X1580109Y2498970D01*
X1579964Y2497500D01*
X1580109Y2496030D01*
X1580537Y2494616D01*
X1581234Y2493313D01*
X1582171Y2492171D01*
X1583313Y2491234D01*
X1584616Y2490537D01*
X1586030Y2490108D01*
X1587500Y2489964D01*
X1588970Y2490108D01*
X1590384Y2490537D01*
X1591687Y2491234D01*
X1592829Y2492171D01*
X1593766Y2493313D01*
X1594463Y2494616D01*
X1594891Y2496030D01*
X1595036Y2497500D01*
X1594891Y2498970D01*
X1594463Y2500384D01*
X1593766Y2501687D01*
X1592829Y2502829D01*
X1591687Y2503766D01*
X1590384Y2504463D01*
X1588970Y2504892D01*
X1587500Y2505036D01*
D02*
G37*
G36*
X2104000Y2394529D02*
X2102824Y2394413D01*
X2101693Y2394070D01*
X2100650Y2393513D01*
X2099737Y2392763D01*
X2098987Y2391850D01*
X2098430Y2390807D01*
X2098087Y2389676D01*
X2097971Y2388500D01*
X2098087Y2387324D01*
X2098430Y2386193D01*
X2098987Y2385150D01*
X2099737Y2384237D01*
X2100650Y2383487D01*
X2101693Y2382930D01*
X2102824Y2382587D01*
X2104000Y2382471D01*
X2105176Y2382587D01*
X2106307Y2382930D01*
X2107350Y2383487D01*
X2108263Y2384237D01*
X2109013Y2385150D01*
X2109570Y2386193D01*
X2109913Y2387324D01*
X2110029Y2388500D01*
X2109913Y2389676D01*
X2109570Y2390807D01*
X2109013Y2391850D01*
X2108263Y2392763D01*
X2107350Y2393513D01*
X2106307Y2394070D01*
X2105176Y2394413D01*
X2104000Y2394529D01*
D02*
G37*
G36*
X1423000Y2430008D02*
X1421215Y2429867D01*
X1419474Y2429449D01*
X1417820Y2428764D01*
X1416294Y2427829D01*
X1414933Y2426666D01*
X1413770Y2425305D01*
X1412834Y2423778D01*
X1412149Y2422124D01*
X1411731Y2420383D01*
X1411591Y2418598D01*
X1411731Y2416814D01*
X1412149Y2415073D01*
X1412834Y2413419D01*
X1413770Y2411892D01*
X1414933Y2410531D01*
X1416294Y2409368D01*
X1417820Y2408433D01*
X1419474Y2407748D01*
X1421215Y2407330D01*
X1423000Y2407189D01*
X1424785Y2407330D01*
X1426526Y2407748D01*
X1428180Y2408433D01*
X1429706Y2409368D01*
X1431067Y2410531D01*
X1432230Y2411892D01*
X1433166Y2413419D01*
X1433851Y2415073D01*
X1434269Y2416814D01*
X1434409Y2418598D01*
X1434269Y2420383D01*
X1433851Y2422124D01*
X1433166Y2423778D01*
X1432230Y2425305D01*
X1431067Y2426666D01*
X1429706Y2427829D01*
X1428180Y2428764D01*
X1426526Y2429449D01*
X1424785Y2429867D01*
X1423000Y2430008D01*
D02*
G37*
G36*
X2185992Y2429390D02*
X2184207Y2429249D01*
X2182467Y2428831D01*
X2180812Y2428146D01*
X2179286Y2427210D01*
X2177925Y2426048D01*
X2176762Y2424686D01*
X2175826Y2423160D01*
X2175141Y2421506D01*
X2174723Y2419765D01*
X2174583Y2417980D01*
X2174723Y2416195D01*
X2175141Y2414455D01*
X2175826Y2412801D01*
X2176762Y2411274D01*
X2177925Y2409913D01*
X2179286Y2408750D01*
X2180812Y2407815D01*
X2182467Y2407129D01*
X2184207Y2406712D01*
X2185992Y2406571D01*
X2187777Y2406712D01*
X2189518Y2407129D01*
X2191172Y2407815D01*
X2192698Y2408750D01*
X2194060Y2409913D01*
X2195222Y2411274D01*
X2196158Y2412801D01*
X2196843Y2414455D01*
X2197261Y2416195D01*
X2197401Y2417980D01*
X2197261Y2419765D01*
X2196843Y2421506D01*
X2196158Y2423160D01*
X2195222Y2424686D01*
X2194060Y2426048D01*
X2192698Y2427210D01*
X2191172Y2428146D01*
X2189518Y2428831D01*
X2187777Y2429249D01*
X2185992Y2429390D01*
D02*
G37*
G36*
X2191500Y2401358D02*
X2189097Y2401169D01*
X2186754Y2400607D01*
X2184527Y2399684D01*
X2182473Y2398425D01*
X2180640Y2396860D01*
X2179075Y2395027D01*
X2177816Y2392973D01*
X2176893Y2390746D01*
X2176331Y2388403D01*
X2176142Y2386000D01*
X2176331Y2383597D01*
X2176893Y2381254D01*
X2177816Y2379027D01*
X2179075Y2376973D01*
X2180640Y2375140D01*
X2182473Y2373575D01*
X2184527Y2372316D01*
X2186754Y2371393D01*
X2189097Y2370831D01*
X2191500Y2370642D01*
X2193903Y2370831D01*
X2196246Y2371393D01*
X2198473Y2372316D01*
X2200527Y2373575D01*
X2202360Y2375140D01*
X2203925Y2376973D01*
X2205184Y2379027D01*
X2206107Y2381254D01*
X2206669Y2383597D01*
X2206858Y2386000D01*
X2206669Y2388403D01*
X2206107Y2390746D01*
X2205184Y2392973D01*
X2203925Y2395027D01*
X2202360Y2396860D01*
X2200527Y2398425D01*
X2198473Y2399684D01*
X2196246Y2400607D01*
X2193903Y2401169D01*
X2191500Y2401358D01*
D02*
G37*
G36*
X1413937Y2335839D02*
X1399063D01*
Y2320965D01*
X1413937D01*
Y2335839D01*
D02*
G37*
G36*
X2074437Y2327839D02*
X2059563D01*
Y2312965D01*
X2074437D01*
Y2327839D01*
D02*
G37*
G36*
X2096500Y2318451D02*
X2094656Y2318269D01*
X2092883Y2317732D01*
X2091249Y2316858D01*
X2089817Y2315683D01*
X2088642Y2314251D01*
X2087768Y2312617D01*
X2087231Y2310844D01*
X2087049Y2309000D01*
X2087231Y2307156D01*
X2087768Y2305383D01*
X2088642Y2303749D01*
X2089817Y2302317D01*
X2091249Y2301142D01*
X2092883Y2300268D01*
X2094656Y2299731D01*
X2096500Y2299549D01*
X2098344Y2299731D01*
X2100117Y2300268D01*
X2101751Y2301142D01*
X2103183Y2302317D01*
X2104358Y2303749D01*
X2105232Y2305383D01*
X2105769Y2307156D01*
X2105951Y2309000D01*
X2105769Y2310844D01*
X2105232Y2312617D01*
X2104358Y2314251D01*
X2103183Y2315683D01*
X2101751Y2316858D01*
X2100117Y2317732D01*
X2098344Y2318269D01*
X2096500Y2318451D01*
D02*
G37*
G36*
X1525500Y2399858D02*
X1523097Y2399669D01*
X1520754Y2399107D01*
X1518527Y2398184D01*
X1516473Y2396925D01*
X1514640Y2395360D01*
X1513075Y2393527D01*
X1511816Y2391473D01*
X1510893Y2389246D01*
X1510331Y2386903D01*
X1510142Y2384500D01*
X1510331Y2382097D01*
X1510893Y2379754D01*
X1511816Y2377527D01*
X1513075Y2375473D01*
X1514640Y2373640D01*
X1516473Y2372075D01*
X1518527Y2370816D01*
X1520754Y2369893D01*
X1523097Y2369331D01*
X1525500Y2369142D01*
X1527903Y2369331D01*
X1530246Y2369893D01*
X1532473Y2370816D01*
X1534527Y2372075D01*
X1536360Y2373640D01*
X1537925Y2375473D01*
X1539184Y2377527D01*
X1540107Y2379754D01*
X1540669Y2382097D01*
X1540858Y2384500D01*
X1540669Y2386903D01*
X1540107Y2389246D01*
X1539184Y2391473D01*
X1537925Y2393527D01*
X1536360Y2395360D01*
X1534527Y2396925D01*
X1532473Y2398184D01*
X1530246Y2399107D01*
X1527903Y2399669D01*
X1525500Y2399858D01*
D02*
G37*
G36*
X2096500Y2377616D02*
X2094656Y2377435D01*
X2092883Y2376897D01*
X2091249Y2376024D01*
X2089817Y2374848D01*
X2088642Y2373416D01*
X2087768Y2371782D01*
X2087231Y2370009D01*
X2087049Y2368165D01*
X2087231Y2366322D01*
X2087768Y2364549D01*
X2088642Y2362915D01*
X2089817Y2361482D01*
X2091249Y2360307D01*
X2092883Y2359434D01*
X2094656Y2358896D01*
X2096500Y2358714D01*
X2098344Y2358896D01*
X2100117Y2359434D01*
X2101751Y2360307D01*
X2103183Y2361482D01*
X2104358Y2362915D01*
X2105232Y2364549D01*
X2105769Y2366322D01*
X2105951Y2368165D01*
X2105769Y2370009D01*
X2105232Y2371782D01*
X2104358Y2373416D01*
X2103183Y2374848D01*
X2101751Y2376024D01*
X2100117Y2376897D01*
X2098344Y2377435D01*
X2096500Y2377616D01*
D02*
G37*
G36*
X1478795Y2370798D02*
X1476952Y2370616D01*
X1475179Y2370078D01*
X1473545Y2369205D01*
X1472112Y2368029D01*
X1470937Y2366597D01*
X1470064Y2364963D01*
X1469526Y2363190D01*
X1469344Y2361346D01*
X1469526Y2359503D01*
X1470064Y2357730D01*
X1470937Y2356096D01*
X1472112Y2354664D01*
X1473545Y2353488D01*
X1475179Y2352615D01*
X1476952Y2352077D01*
X1478795Y2351895D01*
X1480639Y2352077D01*
X1482412Y2352615D01*
X1484046Y2353488D01*
X1485478Y2354664D01*
X1486654Y2356096D01*
X1487527Y2357730D01*
X1488065Y2359503D01*
X1488246Y2361346D01*
X1488065Y2363190D01*
X1487527Y2364963D01*
X1486654Y2366597D01*
X1485478Y2368029D01*
X1484046Y2369205D01*
X1482412Y2370078D01*
X1480639Y2370616D01*
X1478795Y2370798D01*
D02*
G37*
G36*
Y2429963D02*
X1476952Y2429781D01*
X1475179Y2429243D01*
X1473545Y2428370D01*
X1472112Y2427195D01*
X1470937Y2425763D01*
X1470064Y2424129D01*
X1469526Y2422356D01*
X1469344Y2420512D01*
X1469526Y2418668D01*
X1470064Y2416895D01*
X1470937Y2415261D01*
X1472112Y2413829D01*
X1473545Y2412654D01*
X1475179Y2411780D01*
X1476952Y2411242D01*
X1478795Y2411061D01*
X1480639Y2411242D01*
X1482412Y2411780D01*
X1484046Y2412654D01*
X1485478Y2413829D01*
X1486654Y2415261D01*
X1487527Y2416895D01*
X1488065Y2418668D01*
X1488246Y2420512D01*
X1488065Y2422356D01*
X1487527Y2424129D01*
X1486654Y2425763D01*
X1485478Y2427195D01*
X1484046Y2428370D01*
X1482412Y2429243D01*
X1480639Y2429781D01*
X1478795Y2429963D01*
D02*
G37*
G36*
X2147500Y2426984D02*
X2146235Y2426859D01*
X2145019Y2426490D01*
X2143898Y2425891D01*
X2142915Y2425085D01*
X2142109Y2424102D01*
X2141510Y2422981D01*
X2141141Y2421765D01*
X2141016Y2420500D01*
X2141141Y2419235D01*
X2141510Y2418019D01*
X2142109Y2416898D01*
X2142915Y2415915D01*
X2143898Y2415109D01*
X2145019Y2414510D01*
X2146235Y2414141D01*
X2147500Y2414016D01*
X2148765Y2414141D01*
X2149981Y2414510D01*
X2151102Y2415109D01*
X2152085Y2415915D01*
X2152891Y2416898D01*
X2153490Y2418019D01*
X2153859Y2419235D01*
X2153984Y2420500D01*
X2153859Y2421765D01*
X2153490Y2422981D01*
X2152891Y2424102D01*
X2152085Y2425085D01*
X2151102Y2425891D01*
X2149981Y2426490D01*
X2148765Y2426859D01*
X2147500Y2426984D01*
D02*
G37*
G36*
X1437437Y2311437D02*
X1422563D01*
Y2296563D01*
X1437437D01*
Y2311437D01*
D02*
G37*
G36*
X1455870Y2158500D02*
X1436870D01*
Y2139500D01*
X1455870D01*
Y2158500D01*
D02*
G37*
G36*
X2012000Y2158000D02*
X1993000D01*
Y2139000D01*
X2012000D01*
Y2158000D01*
D02*
G37*
G36*
X1836000Y2140968D02*
X1834735Y2140844D01*
X1833519Y2140475D01*
X1832398Y2139875D01*
X1831415Y2139069D01*
X1831250Y2138868D01*
X1830750D01*
X1830585Y2139069D01*
X1829602Y2139875D01*
X1828481Y2140475D01*
X1827265Y2140844D01*
X1826000Y2140968D01*
X1824735Y2140844D01*
X1823519Y2140475D01*
X1822398Y2139875D01*
X1821415Y2139069D01*
X1820609Y2138087D01*
X1820010Y2136966D01*
X1819641Y2135749D01*
X1819516Y2134484D01*
Y2132516D01*
X1819641Y2131251D01*
X1820010Y2130034D01*
X1820609Y2128913D01*
X1821415Y2127931D01*
X1822398Y2127124D01*
X1823519Y2126525D01*
X1824735Y2126156D01*
X1826000Y2126032D01*
X1827265Y2126156D01*
X1828481Y2126525D01*
X1829602Y2127124D01*
X1830585Y2127931D01*
X1830750Y2128132D01*
X1831250D01*
X1831415Y2127931D01*
X1832398Y2127124D01*
X1833519Y2126525D01*
X1834735Y2126156D01*
X1836000Y2126032D01*
X1837265Y2126156D01*
X1838481Y2126525D01*
X1839118Y2126866D01*
X1839547Y2126609D01*
Y2126063D01*
X1852453D01*
Y2140937D01*
X1839547D01*
Y2140391D01*
X1839118Y2140134D01*
X1838481Y2140475D01*
X1837265Y2140844D01*
X1836000Y2140968D01*
D02*
G37*
G36*
X2152000Y2158500D02*
X2133000D01*
Y2139500D01*
X2152000D01*
Y2158500D01*
D02*
G37*
G36*
X1808000Y2159473D02*
X1806542Y2159329D01*
X1805140Y2158904D01*
X1803848Y2158214D01*
X1802716Y2157284D01*
X1801786Y2156152D01*
X1801096Y2154860D01*
X1800671Y2153458D01*
X1800527Y2152000D01*
X1800671Y2150542D01*
X1801096Y2149140D01*
X1801786Y2147848D01*
X1802716Y2146716D01*
X1803848Y2145786D01*
X1805140Y2145096D01*
X1806542Y2144671D01*
X1808000Y2144527D01*
X1809458Y2144671D01*
X1810860Y2145096D01*
X1812152Y2145786D01*
X1813284Y2146716D01*
X1814214Y2147848D01*
X1814904Y2149140D01*
X1815329Y2150542D01*
X1815473Y2152000D01*
X1815329Y2153458D01*
X1814904Y2154860D01*
X1814214Y2156152D01*
X1813284Y2157284D01*
X1812152Y2158214D01*
X1810860Y2158904D01*
X1809458Y2159329D01*
X1808000Y2159473D01*
D02*
G37*
G36*
X1788000D02*
X1786542Y2159329D01*
X1785140Y2158904D01*
X1783848Y2158214D01*
X1782716Y2157284D01*
X1781786Y2156152D01*
X1781096Y2154860D01*
X1780671Y2153458D01*
X1780527Y2152000D01*
X1780671Y2150542D01*
X1781096Y2149140D01*
X1781786Y2147848D01*
X1782716Y2146716D01*
X1783848Y2145786D01*
X1785140Y2145096D01*
X1786542Y2144671D01*
X1788000Y2144527D01*
X1789458Y2144671D01*
X1790860Y2145096D01*
X1792152Y2145786D01*
X1793284Y2146716D01*
X1794214Y2147848D01*
X1794904Y2149140D01*
X1795329Y2150542D01*
X1795473Y2152000D01*
X1795329Y2153458D01*
X1794904Y2154860D01*
X1794214Y2156152D01*
X1793284Y2157284D01*
X1792152Y2158214D01*
X1790860Y2158904D01*
X1789458Y2159329D01*
X1788000Y2159473D01*
D02*
G37*
G36*
X1595870Y2159000D02*
X1576870D01*
Y2140000D01*
X1595870D01*
Y2159000D01*
D02*
G37*
G36*
X1888500Y2136484D02*
X1887235Y2136359D01*
X1886019Y2135990D01*
X1884898Y2135391D01*
X1883915Y2134585D01*
X1883109Y2133602D01*
X1882510Y2132481D01*
X1882141Y2131265D01*
X1882016Y2130000D01*
X1882141Y2128735D01*
X1882510Y2127519D01*
X1883109Y2126398D01*
X1883915Y2125415D01*
X1884898Y2124609D01*
X1886019Y2124010D01*
X1887235Y2123641D01*
X1888500Y2123516D01*
X1889765Y2123641D01*
X1890981Y2124010D01*
X1892102Y2124609D01*
X1893085Y2125415D01*
X1893891Y2126398D01*
X1894490Y2127519D01*
X1894859Y2128735D01*
X1894984Y2130000D01*
X1894859Y2131265D01*
X1894490Y2132481D01*
X1893891Y2133602D01*
X1893085Y2134585D01*
X1892102Y2135391D01*
X1890981Y2135990D01*
X1889765Y2136359D01*
X1888500Y2136484D01*
D02*
G37*
G36*
X1810500Y2105378D02*
X1809235Y2105253D01*
X1808019Y2104884D01*
X1806898Y2104285D01*
X1805915Y2103479D01*
X1805109Y2102496D01*
X1804510Y2101375D01*
X1804141Y2100159D01*
X1804016Y2098894D01*
X1804141Y2097629D01*
X1804510Y2096412D01*
X1805109Y2095291D01*
X1805915Y2094309D01*
X1806898Y2093502D01*
X1808019Y2092903D01*
X1809235Y2092534D01*
X1810500Y2092410D01*
X1811765Y2092534D01*
X1812981Y2092903D01*
X1814102Y2093502D01*
X1815085Y2094309D01*
X1815891Y2095291D01*
X1816490Y2096412D01*
X1816859Y2097629D01*
X1816984Y2098894D01*
X1816859Y2100159D01*
X1816490Y2101375D01*
X1815891Y2102496D01*
X1815085Y2103479D01*
X1814102Y2104285D01*
X1812981Y2104884D01*
X1811765Y2105253D01*
X1810500Y2105378D01*
D02*
G37*
G36*
X1854500Y2109484D02*
X1853235Y2109359D01*
X1852019Y2108990D01*
X1850898Y2108391D01*
X1849915Y2107585D01*
X1849109Y2106602D01*
X1848510Y2105481D01*
X1848141Y2104265D01*
X1848016Y2103000D01*
X1848141Y2101735D01*
X1848510Y2100519D01*
X1849109Y2099398D01*
X1849915Y2098415D01*
X1850898Y2097609D01*
X1852019Y2097010D01*
X1853235Y2096641D01*
X1854500Y2096516D01*
X1855765Y2096641D01*
X1856981Y2097010D01*
X1858102Y2097609D01*
X1859085Y2098415D01*
X1859891Y2099398D01*
X1860490Y2100519D01*
X1860606Y2100901D01*
X1861106Y2100827D01*
Y2091087D01*
X1878933D01*
Y2108913D01*
X1861106D01*
Y2105173D01*
X1860606Y2105099D01*
X1860490Y2105481D01*
X1859891Y2106602D01*
X1859085Y2107585D01*
X1858102Y2108391D01*
X1856981Y2108990D01*
X1855765Y2109359D01*
X1854500Y2109484D01*
D02*
G37*
G36*
X2177500Y2098484D02*
X2176235Y2098359D01*
X2175019Y2097990D01*
X2173898Y2097391D01*
X2172915Y2096585D01*
X2172109Y2095602D01*
X2171510Y2094481D01*
X2171141Y2093265D01*
X2171016Y2092000D01*
X2171141Y2090735D01*
X2171510Y2089519D01*
X2172109Y2088398D01*
X2172915Y2087415D01*
X2173898Y2086609D01*
X2175019Y2086010D01*
X2176235Y2085641D01*
X2177500Y2085516D01*
X2178765Y2085641D01*
X2179981Y2086010D01*
X2181102Y2086609D01*
X2182085Y2087415D01*
X2182891Y2088398D01*
X2183490Y2089519D01*
X2183859Y2090735D01*
X2183984Y2092000D01*
X2183859Y2093265D01*
X2183490Y2094481D01*
X2182891Y2095602D01*
X2182085Y2096585D01*
X2181102Y2097391D01*
X2179981Y2097990D01*
X2178765Y2098359D01*
X2177500Y2098484D01*
D02*
G37*
G36*
X1830500Y2105378D02*
X1829235Y2105253D01*
X1828019Y2104884D01*
X1826898Y2104285D01*
X1825915Y2103479D01*
X1825109Y2102496D01*
X1824510Y2101375D01*
X1824141Y2100159D01*
X1824016Y2098894D01*
X1824141Y2097629D01*
X1824510Y2096412D01*
X1825109Y2095291D01*
X1825915Y2094309D01*
X1826898Y2093502D01*
X1828019Y2092903D01*
X1829235Y2092534D01*
X1830500Y2092410D01*
X1831765Y2092534D01*
X1832981Y2092903D01*
X1834102Y2093502D01*
X1835085Y2094309D01*
X1835891Y2095291D01*
X1836490Y2096412D01*
X1836859Y2097629D01*
X1836984Y2098894D01*
X1836859Y2100159D01*
X1836490Y2101375D01*
X1835891Y2102496D01*
X1835085Y2103479D01*
X1834102Y2104285D01*
X1832981Y2104884D01*
X1831765Y2105253D01*
X1830500Y2105378D01*
D02*
G37*
G36*
X1799500Y2129984D02*
X1798235Y2129859D01*
X1797019Y2129490D01*
X1795898Y2128891D01*
X1794915Y2128085D01*
X1794109Y2127102D01*
X1793510Y2125981D01*
X1793141Y2124765D01*
X1793016Y2123500D01*
X1793141Y2122235D01*
X1793510Y2121019D01*
X1794109Y2119898D01*
X1794915Y2118915D01*
X1795898Y2118109D01*
X1797019Y2117510D01*
X1798235Y2117141D01*
X1799500Y2117016D01*
X1800765Y2117141D01*
X1801981Y2117510D01*
X1803102Y2118109D01*
X1804085Y2118915D01*
X1804891Y2119898D01*
X1805490Y2121019D01*
X1805859Y2122235D01*
X1805984Y2123500D01*
X1805859Y2124765D01*
X1805490Y2125981D01*
X1804891Y2127102D01*
X1804085Y2128085D01*
X1803102Y2128891D01*
X1801981Y2129490D01*
X1800765Y2129859D01*
X1799500Y2129984D01*
D02*
G37*
G36*
X1703933Y2117598D02*
X1686106D01*
Y2099772D01*
X1703933D01*
Y2117598D01*
D02*
G37*
G36*
X1769980Y2117641D02*
X1768233Y2117469D01*
X1766553Y2116960D01*
X1765004Y2116132D01*
X1763647Y2115018D01*
X1762533Y2113661D01*
X1761706Y2112112D01*
X1761196Y2110432D01*
X1761024Y2108685D01*
X1761196Y2106938D01*
X1761706Y2105257D01*
X1762533Y2103709D01*
X1763647Y2102352D01*
X1765004Y2101238D01*
X1766553Y2100410D01*
X1768233Y2099901D01*
X1769980Y2099729D01*
X1771728Y2099901D01*
X1773408Y2100410D01*
X1774956Y2101238D01*
X1776314Y2102352D01*
X1777427Y2103709D01*
X1778255Y2105257D01*
X1778765Y2106938D01*
X1778937Y2108685D01*
X1778765Y2110432D01*
X1778255Y2112112D01*
X1777427Y2113661D01*
X1776314Y2115018D01*
X1774956Y2116132D01*
X1773408Y2116960D01*
X1771728Y2117469D01*
X1769980Y2117641D01*
D02*
G37*
G36*
X2096500Y2272029D02*
X2095324Y2271913D01*
X2094193Y2271570D01*
X2093150Y2271013D01*
X2092237Y2270263D01*
X2091487Y2269350D01*
X2090930Y2268307D01*
X2090587Y2267176D01*
X2090471Y2266000D01*
X2090587Y2264824D01*
X2090930Y2263693D01*
X2091487Y2262650D01*
X2092237Y2261737D01*
X2093150Y2260987D01*
X2094193Y2260430D01*
X2095324Y2260087D01*
X2096500Y2259971D01*
X2097676Y2260087D01*
X2098807Y2260430D01*
X2099850Y2260987D01*
X2100763Y2261737D01*
X2101513Y2262650D01*
X2102070Y2263693D01*
X2102413Y2264824D01*
X2102529Y2266000D01*
X2102413Y2267176D01*
X2102070Y2268307D01*
X2101513Y2269350D01*
X2100763Y2270263D01*
X2099850Y2271013D01*
X2098807Y2271570D01*
X2097676Y2271913D01*
X2096500Y2272029D01*
D02*
G37*
G36*
X2006000Y2269484D02*
X2004735Y2269359D01*
X2003519Y2268990D01*
X2002398Y2268391D01*
X2001415Y2267585D01*
X2000609Y2266602D01*
X2000010Y2265481D01*
X1999641Y2264265D01*
X1999516Y2263000D01*
X1999641Y2261735D01*
X2000010Y2260519D01*
X2000609Y2259398D01*
X2001415Y2258415D01*
X2002398Y2257609D01*
X2003519Y2257010D01*
X2004735Y2256641D01*
X2006000Y2256516D01*
X2007265Y2256641D01*
X2008481Y2257010D01*
X2009602Y2257609D01*
X2010585Y2258415D01*
X2011391Y2259398D01*
X2011990Y2260519D01*
X2012359Y2261735D01*
X2012484Y2263000D01*
X2012359Y2264265D01*
X2011990Y2265481D01*
X2011391Y2266602D01*
X2010585Y2267585D01*
X2009602Y2268391D01*
X2008481Y2268990D01*
X2007265Y2269359D01*
X2006000Y2269484D01*
D02*
G37*
G36*
X2111000Y2260529D02*
X2109824Y2260413D01*
X2108693Y2260070D01*
X2107650Y2259513D01*
X2106737Y2258763D01*
X2105987Y2257850D01*
X2105430Y2256807D01*
X2105087Y2255676D01*
X2104971Y2254500D01*
X2105087Y2253324D01*
X2105430Y2252193D01*
X2105987Y2251150D01*
X2106737Y2250237D01*
X2107650Y2249487D01*
X2108693Y2248930D01*
X2109824Y2248587D01*
X2111000Y2248471D01*
X2112176Y2248587D01*
X2113307Y2248930D01*
X2114350Y2249487D01*
X2115263Y2250237D01*
X2116013Y2251150D01*
X2116570Y2252193D01*
X2116913Y2253324D01*
X2117029Y2254500D01*
X2116913Y2255676D01*
X2116570Y2256807D01*
X2116013Y2257850D01*
X2115263Y2258763D01*
X2114350Y2259513D01*
X2113307Y2260070D01*
X2112176Y2260413D01*
X2111000Y2260529D01*
D02*
G37*
G36*
X2074437Y2288339D02*
X2059563D01*
Y2273465D01*
X2074437D01*
Y2288339D01*
D02*
G37*
G36*
X1413937Y2296339D02*
X1399063D01*
Y2281465D01*
X1413937D01*
Y2296339D01*
D02*
G37*
G36*
X2033937Y2288937D02*
X2019063D01*
Y2274063D01*
X2033937D01*
Y2288937D01*
D02*
G37*
G36*
X2150000Y2275029D02*
X2148824Y2274913D01*
X2147693Y2274570D01*
X2146650Y2274013D01*
X2146500Y2273890D01*
X2146350Y2274013D01*
X2145307Y2274570D01*
X2144176Y2274913D01*
X2143000Y2275029D01*
X2141824Y2274913D01*
X2140693Y2274570D01*
X2140000Y2274200D01*
X2139307Y2274570D01*
X2138176Y2274913D01*
X2137000Y2275029D01*
X2135824Y2274913D01*
X2134693Y2274570D01*
X2133650Y2274013D01*
X2132737Y2273263D01*
X2131987Y2272350D01*
X2131430Y2271307D01*
X2131087Y2270176D01*
X2130971Y2269000D01*
X2131087Y2267824D01*
X2131430Y2266693D01*
X2131987Y2265650D01*
X2132110Y2265500D01*
X2131987Y2265350D01*
X2131430Y2264307D01*
X2131087Y2263176D01*
X2130971Y2262000D01*
X2131087Y2260824D01*
X2131413Y2259750D01*
X2131087Y2258676D01*
X2130971Y2257500D01*
X2131087Y2256324D01*
X2131430Y2255193D01*
X2131987Y2254150D01*
X2132737Y2253237D01*
X2133650Y2252487D01*
X2134693Y2251930D01*
X2135824Y2251587D01*
X2137000Y2251471D01*
X2138176Y2251587D01*
X2139307Y2251930D01*
X2139794Y2252190D01*
X2140650Y2251487D01*
X2141693Y2250930D01*
X2142824Y2250587D01*
X2144000Y2250471D01*
X2145176Y2250587D01*
X2146164Y2250886D01*
X2146650Y2250487D01*
X2147693Y2249930D01*
X2148824Y2249587D01*
X2150000Y2249471D01*
X2151176Y2249587D01*
X2152307Y2249930D01*
X2153350Y2250487D01*
X2154263Y2251237D01*
X2155013Y2252150D01*
X2155570Y2253193D01*
X2155913Y2254324D01*
X2156029Y2255500D01*
X2155913Y2256676D01*
X2155570Y2257807D01*
X2155066Y2258750D01*
X2155570Y2259693D01*
X2155913Y2260824D01*
X2156029Y2262000D01*
X2155913Y2263176D01*
X2155570Y2264307D01*
X2155013Y2265350D01*
X2154889Y2265500D01*
X2155013Y2265650D01*
X2155570Y2266693D01*
X2155913Y2267824D01*
X2156029Y2269000D01*
X2155913Y2270176D01*
X2155570Y2271307D01*
X2155013Y2272350D01*
X2154263Y2273263D01*
X2153350Y2274013D01*
X2152307Y2274570D01*
X2151176Y2274913D01*
X2150000Y2275029D01*
D02*
G37*
G36*
X2191500Y2264858D02*
X2189097Y2264669D01*
X2186754Y2264107D01*
X2184527Y2263184D01*
X2182473Y2261925D01*
X2180640Y2260360D01*
X2179075Y2258527D01*
X2177816Y2256473D01*
X2176893Y2254246D01*
X2176331Y2251903D01*
X2176142Y2249500D01*
X2176331Y2247097D01*
X2176893Y2244754D01*
X2177816Y2242527D01*
X2179075Y2240473D01*
X2180640Y2238640D01*
X2182473Y2237075D01*
X2184527Y2235816D01*
X2186754Y2234893D01*
X2189097Y2234331D01*
X2191500Y2234142D01*
X2193903Y2234331D01*
X2196246Y2234893D01*
X2198473Y2235816D01*
X2200527Y2237075D01*
X2202360Y2238640D01*
X2203925Y2240473D01*
X2205184Y2242527D01*
X2206107Y2244754D01*
X2206669Y2247097D01*
X2206858Y2249500D01*
X2206669Y2251903D01*
X2206107Y2254246D01*
X2205184Y2256473D01*
X2203925Y2258527D01*
X2202360Y2260360D01*
X2200527Y2261925D01*
X2198473Y2263184D01*
X2196246Y2264107D01*
X2193903Y2264669D01*
X2191500Y2264858D01*
D02*
G37*
G36*
X1681000Y2176484D02*
X1679735Y2176359D01*
X1678519Y2175990D01*
X1677398Y2175391D01*
X1676415Y2174585D01*
X1675609Y2173602D01*
X1675010Y2172481D01*
X1674641Y2171265D01*
X1674516Y2170000D01*
X1674641Y2168735D01*
X1675010Y2167519D01*
X1675609Y2166398D01*
X1676415Y2165415D01*
X1677398Y2164609D01*
X1678519Y2164010D01*
X1679735Y2163641D01*
X1681000Y2163516D01*
X1682265Y2163641D01*
X1683481Y2164010D01*
X1684602Y2164609D01*
X1685585Y2165415D01*
X1686391Y2166398D01*
X1686990Y2167519D01*
X1687359Y2168735D01*
X1687484Y2170000D01*
X1687359Y2171265D01*
X1686990Y2172481D01*
X1686391Y2173602D01*
X1685585Y2174585D01*
X1684602Y2175391D01*
X1683481Y2175990D01*
X1682265Y2176359D01*
X1681000Y2176484D01*
D02*
G37*
G36*
X1720213Y2169313D02*
X1702387D01*
Y2151487D01*
X1720213D01*
Y2169313D01*
D02*
G37*
G36*
X1748800Y2169357D02*
X1747053Y2169184D01*
X1745373Y2168675D01*
X1743824Y2167847D01*
X1742467Y2166733D01*
X1741353Y2165376D01*
X1740525Y2163828D01*
X1740016Y2162147D01*
X1739844Y2160400D01*
X1740016Y2158653D01*
X1740525Y2156973D01*
X1741353Y2155424D01*
X1742467Y2154067D01*
X1743824Y2152953D01*
X1745373Y2152125D01*
X1747053Y2151616D01*
X1748800Y2151443D01*
X1750547Y2151616D01*
X1752228Y2152125D01*
X1753776Y2152953D01*
X1755133Y2154067D01*
X1756247Y2155424D01*
X1757075Y2156973D01*
X1757584Y2158653D01*
X1757756Y2160400D01*
X1757584Y2162147D01*
X1757075Y2163828D01*
X1756247Y2165376D01*
X1755133Y2166733D01*
X1753776Y2167847D01*
X1752228Y2168675D01*
X1750547Y2169184D01*
X1748800Y2169357D01*
D02*
G37*
G36*
X2200936Y2206582D02*
X2199189Y2206410D01*
X2197509Y2205901D01*
X2195960Y2205073D01*
X2194603Y2203959D01*
X2193489Y2202602D01*
X2192661Y2201053D01*
X2192152Y2199373D01*
X2191980Y2197626D01*
X2192152Y2195879D01*
X2192661Y2194198D01*
X2193489Y2192650D01*
X2194603Y2191293D01*
X2195960Y2190179D01*
X2197509Y2189351D01*
X2199189Y2188842D01*
X2200936Y2188670D01*
X2202684Y2188842D01*
X2204364Y2189351D01*
X2205912Y2190179D01*
X2207269Y2191293D01*
X2208383Y2192650D01*
X2209211Y2194198D01*
X2209721Y2195879D01*
X2209893Y2197626D01*
X2209721Y2199373D01*
X2209211Y2201053D01*
X2208383Y2202602D01*
X2207269Y2203959D01*
X2205912Y2205073D01*
X2204364Y2205901D01*
X2202684Y2206410D01*
X2200936Y2206582D01*
D02*
G37*
G36*
X1525500Y2263358D02*
X1523097Y2263169D01*
X1520754Y2262607D01*
X1518527Y2261684D01*
X1516473Y2260425D01*
X1514640Y2258860D01*
X1513075Y2257027D01*
X1511816Y2254973D01*
X1510893Y2252746D01*
X1510331Y2250403D01*
X1510142Y2248000D01*
X1510331Y2245597D01*
X1510893Y2243254D01*
X1511816Y2241027D01*
X1513075Y2238973D01*
X1514640Y2237140D01*
X1516473Y2235575D01*
X1518527Y2234316D01*
X1520754Y2233393D01*
X1523097Y2232831D01*
X1525500Y2232642D01*
X1527903Y2232831D01*
X1530246Y2233393D01*
X1532473Y2234316D01*
X1534527Y2235575D01*
X1536360Y2237140D01*
X1537925Y2238973D01*
X1539184Y2241027D01*
X1540107Y2243254D01*
X1540669Y2245597D01*
X1540858Y2248000D01*
X1540669Y2250403D01*
X1540107Y2252746D01*
X1539184Y2254973D01*
X1537925Y2257027D01*
X1536360Y2258860D01*
X1534527Y2260425D01*
X1532473Y2261684D01*
X1530246Y2262607D01*
X1527903Y2263169D01*
X1525500Y2263358D01*
D02*
G37*
G36*
X2177500Y2234484D02*
X2176235Y2234359D01*
X2175019Y2233990D01*
X2173898Y2233391D01*
X2172915Y2232585D01*
X2172109Y2231602D01*
X2171510Y2230481D01*
X2171141Y2229265D01*
X2171016Y2228000D01*
X2171141Y2226735D01*
X2171510Y2225519D01*
X2172109Y2224398D01*
X2172915Y2223415D01*
X2173898Y2222609D01*
X2175019Y2222010D01*
X2176235Y2221641D01*
X2177500Y2221516D01*
X2178765Y2221641D01*
X2179981Y2222010D01*
X2181102Y2222609D01*
X2182085Y2223415D01*
X2182891Y2224398D01*
X2183490Y2225519D01*
X2183859Y2226735D01*
X2183984Y2228000D01*
X2183859Y2229265D01*
X2183490Y2230481D01*
X2182891Y2231602D01*
X2182085Y2232585D01*
X2181102Y2233391D01*
X2179981Y2233990D01*
X2178765Y2234359D01*
X2177500Y2234484D01*
D02*
G37*
G36*
X2209850Y2226520D02*
X2192023D01*
Y2208693D01*
X2209850D01*
Y2226520D01*
D02*
G37*
G36*
X1422000Y2563508D02*
X1420215Y2563367D01*
X1418474Y2562949D01*
X1416820Y2562264D01*
X1415294Y2561329D01*
X1413933Y2560166D01*
X1412770Y2558805D01*
X1411834Y2557278D01*
X1411149Y2555624D01*
X1410731Y2553883D01*
X1410591Y2552098D01*
X1410731Y2550314D01*
X1411149Y2548573D01*
X1411834Y2546919D01*
X1412770Y2545392D01*
X1413933Y2544031D01*
X1415294Y2542868D01*
X1416820Y2541933D01*
X1418474Y2541248D01*
X1420215Y2540830D01*
X1422000Y2540689D01*
X1423785Y2540830D01*
X1425526Y2541248D01*
X1427180Y2541933D01*
X1428706Y2542868D01*
X1430068Y2544031D01*
X1431230Y2545392D01*
X1432166Y2546919D01*
X1432851Y2548573D01*
X1433269Y2550314D01*
X1433409Y2552098D01*
X1433269Y2553883D01*
X1432851Y2555624D01*
X1432166Y2557278D01*
X1431230Y2558805D01*
X1430068Y2560166D01*
X1428706Y2561329D01*
X1427180Y2562264D01*
X1425526Y2562949D01*
X1423785Y2563367D01*
X1422000Y2563508D01*
D02*
G37*
G36*
X2053902Y2549890D02*
X2033122D01*
Y2529110D01*
X2053902D01*
Y2549890D01*
D02*
G37*
G36*
X1473402Y2540890D02*
X1452622D01*
Y2520110D01*
X1473402D01*
Y2540890D01*
D02*
G37*
G36*
X2154937Y2557437D02*
X2140063D01*
Y2542563D01*
X2154937D01*
Y2557437D01*
D02*
G37*
G36*
X1447500Y2509607D02*
X1445684Y2509464D01*
X1443913Y2509039D01*
X1442231Y2508342D01*
X1440678Y2507390D01*
X1439293Y2506207D01*
X1438110Y2504822D01*
X1437158Y2503269D01*
X1436461Y2501587D01*
X1436036Y2499816D01*
X1435893Y2498000D01*
X1436036Y2496184D01*
X1436461Y2494413D01*
X1437158Y2492731D01*
X1438110Y2491178D01*
X1439293Y2489793D01*
X1440678Y2488610D01*
X1442231Y2487658D01*
X1443913Y2486961D01*
X1445684Y2486536D01*
X1447500Y2486393D01*
X1449316Y2486536D01*
X1451087Y2486961D01*
X1452769Y2487658D01*
X1454322Y2488610D01*
X1455707Y2489793D01*
X1456890Y2491178D01*
X1457842Y2492731D01*
X1458539Y2494413D01*
X1458964Y2496184D01*
X1459107Y2498000D01*
X1458964Y2499816D01*
X1458539Y2501587D01*
X1457842Y2503269D01*
X1456890Y2504822D01*
X1455707Y2506207D01*
X1454322Y2507390D01*
X1452769Y2508342D01*
X1451087Y2509039D01*
X1449316Y2509464D01*
X1447500Y2509607D01*
D02*
G37*
G36*
X2154937Y2523937D02*
X2140063D01*
Y2509063D01*
X2154937D01*
Y2523937D01*
D02*
G37*
G36*
X2185000Y2530653D02*
X2183215Y2530513D01*
X2181474Y2530095D01*
X2179820Y2529410D01*
X2178294Y2528474D01*
X2176933Y2527312D01*
X2175770Y2525950D01*
X2174834Y2524424D01*
X2174149Y2522770D01*
X2173731Y2521029D01*
X2173591Y2519244D01*
X2173731Y2517459D01*
X2174149Y2515718D01*
X2174834Y2514064D01*
X2175770Y2512538D01*
X2176933Y2511177D01*
X2178294Y2510014D01*
X2179820Y2509078D01*
X2181474Y2508393D01*
X2183215Y2507975D01*
X2185000Y2507835D01*
X2186785Y2507975D01*
X2188526Y2508393D01*
X2190180Y2509078D01*
X2191706Y2510014D01*
X2193068Y2511177D01*
X2194230Y2512538D01*
X2195166Y2514064D01*
X2195851Y2515718D01*
X2196269Y2517459D01*
X2196409Y2519244D01*
X2196269Y2521029D01*
X2195851Y2522770D01*
X2195166Y2524424D01*
X2194230Y2525950D01*
X2193068Y2527312D01*
X2191706Y2528474D01*
X2190180Y2529410D01*
X2188526Y2530095D01*
X2186785Y2530513D01*
X2185000Y2530653D01*
D02*
G37*
G36*
X1406637Y2515437D02*
X1391763D01*
Y2500563D01*
X1406637D01*
Y2515437D01*
D02*
G37*
G36*
X1594500Y2735035D02*
X1593456Y2734897D01*
X1592483Y2734494D01*
X1591647Y2733853D01*
X1591006Y2733017D01*
X1590603Y2732044D01*
X1590563Y2731744D01*
X1590102Y2731553D01*
X1590013Y2731620D01*
X1589283Y2731923D01*
X1588500Y2732026D01*
X1587717Y2731923D01*
X1586987Y2731620D01*
X1586360Y2731140D01*
X1585880Y2730513D01*
X1585577Y2729783D01*
X1585474Y2729000D01*
X1585577Y2728217D01*
X1585880Y2727487D01*
X1586360Y2726860D01*
X1586987Y2726380D01*
X1587717Y2726077D01*
X1588500Y2725974D01*
X1589283Y2726077D01*
X1590013Y2726380D01*
X1590640Y2726860D01*
X1591121Y2727487D01*
X1591265Y2727835D01*
X1591309Y2727871D01*
X1591866Y2727979D01*
X1592483Y2727506D01*
X1593456Y2727103D01*
X1594500Y2726966D01*
X1595544Y2727103D01*
X1596517Y2727506D01*
X1597353Y2728147D01*
X1597994Y2728983D01*
X1598397Y2729956D01*
X1598534Y2731000D01*
X1598397Y2732044D01*
X1597994Y2733017D01*
X1597353Y2733853D01*
X1596517Y2734494D01*
X1595544Y2734897D01*
X1594500Y2735035D01*
D02*
G37*
G36*
X1542500Y2737535D02*
X1541456Y2737397D01*
X1540483Y2736994D01*
X1539647Y2736353D01*
X1539006Y2735517D01*
X1538603Y2734544D01*
X1538465Y2733500D01*
X1538603Y2732456D01*
X1539006Y2731483D01*
X1539647Y2730647D01*
X1540483Y2730006D01*
X1541456Y2729603D01*
X1542500Y2729465D01*
X1543544Y2729603D01*
X1544517Y2730006D01*
X1545353Y2730647D01*
X1545994Y2731483D01*
X1546397Y2732456D01*
X1546535Y2733500D01*
X1546397Y2734544D01*
X1545994Y2735517D01*
X1545353Y2736353D01*
X1544517Y2736994D01*
X1543544Y2737397D01*
X1542500Y2737535D01*
D02*
G37*
G36*
X1555000Y2761035D02*
X1553956Y2760897D01*
X1552983Y2760494D01*
X1552147Y2759853D01*
X1551506Y2759017D01*
X1551103Y2758044D01*
X1550965Y2757000D01*
X1551103Y2755956D01*
X1551506Y2754983D01*
X1552147Y2754147D01*
X1552983Y2753506D01*
X1553956Y2753103D01*
X1555000Y2752966D01*
X1556044Y2753103D01*
X1557017Y2753506D01*
X1557853Y2754147D01*
X1558494Y2754983D01*
X1558897Y2755956D01*
X1559035Y2757000D01*
X1558897Y2758044D01*
X1558494Y2759017D01*
X1557853Y2759853D01*
X1557017Y2760494D01*
X1556044Y2760897D01*
X1555000Y2761035D01*
D02*
G37*
G36*
X1544500Y2718035D02*
X1543456Y2717897D01*
X1542483Y2717494D01*
X1541647Y2716853D01*
X1541006Y2716017D01*
X1540603Y2715044D01*
X1540466Y2714000D01*
X1540603Y2712956D01*
X1541006Y2711983D01*
X1541647Y2711147D01*
X1542483Y2710506D01*
X1543456Y2710103D01*
X1544500Y2709966D01*
X1545544Y2710103D01*
X1546517Y2710506D01*
X1547353Y2711147D01*
X1547994Y2711983D01*
X1548397Y2712956D01*
X1548534Y2714000D01*
X1548397Y2715044D01*
X1547994Y2716017D01*
X1547353Y2716853D01*
X1546517Y2717494D01*
X1545544Y2717897D01*
X1544500Y2718035D01*
D02*
G37*
G36*
X1556500Y2792491D02*
X1555338Y2792338D01*
X1554254Y2791890D01*
X1553324Y2791176D01*
X1552610Y2790246D01*
X1552162Y2789162D01*
X1552009Y2788000D01*
X1552162Y2786838D01*
X1552610Y2785754D01*
X1553324Y2784824D01*
X1554254Y2784110D01*
X1555338Y2783662D01*
X1556500Y2783509D01*
X1557662Y2783662D01*
X1558746Y2784110D01*
X1559676Y2784824D01*
X1560390Y2785754D01*
X1560838Y2786838D01*
X1560991Y2788000D01*
X1560838Y2789162D01*
X1560390Y2790246D01*
X1559676Y2791176D01*
X1558746Y2791890D01*
X1557662Y2792338D01*
X1556500Y2792491D01*
D02*
G37*
G36*
X1582500Y2787036D02*
X1581030Y2786892D01*
X1579616Y2786463D01*
X1578313Y2785766D01*
X1577171Y2784829D01*
X1576234Y2783687D01*
X1575537Y2782384D01*
X1575109Y2780970D01*
X1574964Y2779500D01*
X1575109Y2778030D01*
X1575537Y2776616D01*
X1576234Y2775313D01*
X1577171Y2774171D01*
X1578313Y2773234D01*
X1579616Y2772537D01*
X1581030Y2772108D01*
X1582500Y2771964D01*
X1583970Y2772108D01*
X1585384Y2772537D01*
X1586687Y2773234D01*
X1587829Y2774171D01*
X1588766Y2775313D01*
X1589463Y2776616D01*
X1589892Y2778030D01*
X1590036Y2779500D01*
X1589892Y2780970D01*
X1589463Y2782384D01*
X1588766Y2783687D01*
X1587829Y2784829D01*
X1586687Y2785766D01*
X1585384Y2786463D01*
X1583970Y2786892D01*
X1582500Y2787036D01*
D02*
G37*
G36*
X1654500Y2676534D02*
X1653456Y2676397D01*
X1652483Y2675994D01*
X1651647Y2675353D01*
X1651006Y2674517D01*
X1650603Y2673544D01*
X1650466Y2672500D01*
X1650603Y2671456D01*
X1651006Y2670483D01*
X1651647Y2669647D01*
X1652483Y2669006D01*
X1653456Y2668603D01*
X1654500Y2668465D01*
X1655544Y2668603D01*
X1656517Y2669006D01*
X1657353Y2669647D01*
X1657994Y2670483D01*
X1658397Y2671456D01*
X1658534Y2672500D01*
X1658397Y2673544D01*
X1657994Y2674517D01*
X1657353Y2675353D01*
X1656517Y2675994D01*
X1655544Y2676397D01*
X1654500Y2676534D01*
D02*
G37*
G36*
X1566500Y2693117D02*
X1564624Y2692932D01*
X1562820Y2692385D01*
X1561157Y2691496D01*
X1559700Y2690300D01*
X1558504Y2688843D01*
X1557615Y2687180D01*
X1557068Y2685376D01*
X1556883Y2683500D01*
X1557068Y2681624D01*
X1557615Y2679820D01*
X1558504Y2678157D01*
X1559700Y2676700D01*
X1561157Y2675504D01*
X1562820Y2674615D01*
X1564624Y2674068D01*
X1566500Y2673883D01*
X1568376Y2674068D01*
X1570180Y2674615D01*
X1571843Y2675504D01*
X1573300Y2676700D01*
X1574496Y2678157D01*
X1575385Y2679820D01*
X1575932Y2681624D01*
X1576117Y2683500D01*
X1575932Y2685376D01*
X1575385Y2687180D01*
X1574496Y2688843D01*
X1573300Y2690300D01*
X1571843Y2691496D01*
X1570180Y2692385D01*
X1568376Y2692932D01*
X1566500Y2693117D01*
D02*
G37*
G36*
X1575000Y2700035D02*
X1573956Y2699897D01*
X1572983Y2699494D01*
X1572147Y2698853D01*
X1571506Y2698017D01*
X1571103Y2697044D01*
X1570965Y2696000D01*
X1571103Y2694956D01*
X1571506Y2693983D01*
X1572147Y2693147D01*
X1572983Y2692506D01*
X1573956Y2692103D01*
X1575000Y2691965D01*
X1576044Y2692103D01*
X1577017Y2692506D01*
X1577853Y2693147D01*
X1578494Y2693983D01*
X1578897Y2694956D01*
X1579035Y2696000D01*
X1578897Y2697044D01*
X1578494Y2698017D01*
X1577853Y2698853D01*
X1577017Y2699494D01*
X1576044Y2699897D01*
X1575000Y2700035D01*
D02*
G37*
G36*
X1602500Y2696536D02*
X1601030Y2696391D01*
X1599616Y2695963D01*
X1598313Y2695266D01*
X1597171Y2694329D01*
X1596234Y2693187D01*
X1595537Y2691884D01*
X1595109Y2690470D01*
X1594964Y2689000D01*
X1595109Y2687530D01*
X1595537Y2686116D01*
X1596234Y2684813D01*
X1597171Y2683671D01*
X1598313Y2682734D01*
X1599616Y2682037D01*
X1601030Y2681609D01*
X1602500Y2681464D01*
X1603970Y2681609D01*
X1605384Y2682037D01*
X1606687Y2682734D01*
X1607829Y2683671D01*
X1608766Y2684813D01*
X1609463Y2686116D01*
X1609892Y2687530D01*
X1610036Y2689000D01*
X1609892Y2690470D01*
X1609463Y2691884D01*
X1608766Y2693187D01*
X1607829Y2694329D01*
X1606687Y2695266D01*
X1605384Y2695963D01*
X1603970Y2696391D01*
X1602500Y2696536D01*
D02*
G37*
G36*
X1682500Y2661535D02*
X1681456Y2661397D01*
X1680483Y2660994D01*
X1679647Y2660353D01*
X1679006Y2659517D01*
X1678603Y2658544D01*
X1678465Y2657500D01*
X1678603Y2656456D01*
X1679006Y2655483D01*
X1679647Y2654647D01*
X1680483Y2654006D01*
X1681456Y2653603D01*
X1682500Y2653465D01*
X1683544Y2653603D01*
X1684517Y2654006D01*
X1685353Y2654647D01*
X1685994Y2655483D01*
X1686397Y2656456D01*
X1686535Y2657500D01*
X1686397Y2658544D01*
X1685994Y2659517D01*
X1685353Y2660353D01*
X1684517Y2660994D01*
X1683544Y2661397D01*
X1682500Y2661535D01*
D02*
G37*
G36*
X1915835Y2607536D02*
X1914365Y2607392D01*
X1912951Y2606963D01*
X1911648Y2606266D01*
X1910506Y2605329D01*
X1909569Y2604187D01*
X1908873Y2602884D01*
X1908444Y2601470D01*
X1908299Y2600000D01*
X1908444Y2598530D01*
X1908873Y2597116D01*
X1909569Y2595813D01*
X1910506Y2594671D01*
X1911648Y2593734D01*
X1912951Y2593037D01*
X1914365Y2592608D01*
X1915835Y2592464D01*
X1917306Y2592608D01*
X1918719Y2593037D01*
X1920022Y2593734D01*
X1921164Y2594671D01*
X1922102Y2595813D01*
X1922798Y2597116D01*
X1923227Y2598530D01*
X1923372Y2600000D01*
X1923227Y2601470D01*
X1922798Y2602884D01*
X1922102Y2604187D01*
X1921164Y2605329D01*
X1920022Y2606266D01*
X1918719Y2606963D01*
X1917306Y2607392D01*
X1915835Y2607536D01*
D02*
G37*
G36*
X1849500Y2671034D02*
X1848456Y2670897D01*
X1847483Y2670494D01*
X1846647Y2669853D01*
X1846006Y2669017D01*
X1845603Y2668044D01*
X1845465Y2667000D01*
X1845603Y2665956D01*
X1846006Y2664983D01*
X1846647Y2664147D01*
X1847483Y2663506D01*
X1848456Y2663103D01*
X1849500Y2662966D01*
X1850544Y2663103D01*
X1851517Y2663506D01*
X1852353Y2664147D01*
X1852994Y2664983D01*
X1853397Y2665956D01*
X1853535Y2667000D01*
X1853397Y2668044D01*
X1852994Y2669017D01*
X1852353Y2669853D01*
X1851517Y2670494D01*
X1850544Y2670897D01*
X1849500Y2671034D01*
D02*
G37*
G36*
X1903000Y2676536D02*
X1901530Y2676391D01*
X1900116Y2675963D01*
X1898813Y2675266D01*
X1897671Y2674329D01*
X1896734Y2673187D01*
X1896037Y2671884D01*
X1895609Y2670470D01*
X1895464Y2669000D01*
X1895609Y2667530D01*
X1896037Y2666116D01*
X1896734Y2664813D01*
X1897671Y2663671D01*
X1898813Y2662734D01*
X1900116Y2662037D01*
X1901530Y2661609D01*
X1903000Y2661464D01*
X1904470Y2661609D01*
X1905884Y2662037D01*
X1907187Y2662734D01*
X1908329Y2663671D01*
X1909266Y2664813D01*
X1909963Y2666116D01*
X1910391Y2667530D01*
X1910536Y2669000D01*
X1910391Y2670470D01*
X1909963Y2671884D01*
X1909266Y2673187D01*
X1908329Y2674329D01*
X1907187Y2675266D01*
X1905884Y2675963D01*
X1904470Y2676391D01*
X1903000Y2676536D01*
D02*
G37*
G36*
X1948378Y2640526D02*
X1947595Y2640423D01*
X1946865Y2640121D01*
X1946238Y2639640D01*
X1945757Y2639013D01*
X1945455Y2638283D01*
X1945352Y2637500D01*
X1945455Y2636717D01*
X1945757Y2635987D01*
X1946238Y2635360D01*
X1946865Y2634879D01*
X1947595Y2634577D01*
X1948378Y2634474D01*
X1949161Y2634577D01*
X1949891Y2634879D01*
X1950517Y2635360D01*
X1950998Y2635987D01*
X1951301Y2636717D01*
X1951404Y2637500D01*
X1951301Y2638283D01*
X1950998Y2639013D01*
X1950517Y2639640D01*
X1949891Y2640121D01*
X1949161Y2640423D01*
X1948378Y2640526D01*
D02*
G37*
G36*
X1911000Y2644026D02*
X1910217Y2643923D01*
X1909487Y2643620D01*
X1908860Y2643140D01*
X1908380Y2642513D01*
X1908077Y2641783D01*
X1907974Y2641000D01*
X1908077Y2640217D01*
X1908380Y2639487D01*
X1908860Y2638860D01*
X1909277Y2638540D01*
X1909506Y2638017D01*
X1909103Y2637044D01*
X1908965Y2636000D01*
X1909103Y2634956D01*
X1909506Y2633983D01*
X1910147Y2633147D01*
X1910983Y2632506D01*
X1911956Y2632103D01*
X1913000Y2631965D01*
X1914044Y2632103D01*
X1915017Y2632506D01*
X1915853Y2633147D01*
X1916494Y2633983D01*
X1916897Y2634956D01*
X1917035Y2636000D01*
X1916897Y2637044D01*
X1916494Y2638017D01*
X1915853Y2638853D01*
X1915017Y2639494D01*
X1914289Y2639795D01*
X1913923Y2640217D01*
X1914026Y2641000D01*
X1913923Y2641783D01*
X1913621Y2642513D01*
X1913140Y2643140D01*
X1912513Y2643620D01*
X1911783Y2643923D01*
X1911000Y2644026D01*
D02*
G37*
G36*
X1884500Y2637535D02*
X1883456Y2637397D01*
X1882483Y2636994D01*
X1881647Y2636353D01*
X1881006Y2635517D01*
X1880603Y2634544D01*
X1880466Y2633500D01*
X1880603Y2632456D01*
X1881006Y2631483D01*
X1881647Y2630647D01*
X1882483Y2630006D01*
X1883456Y2629603D01*
X1884500Y2629465D01*
X1885544Y2629603D01*
X1886517Y2630006D01*
X1887353Y2630647D01*
X1887994Y2631483D01*
X1888397Y2632456D01*
X1888535Y2633500D01*
X1888397Y2634544D01*
X1887994Y2635517D01*
X1887353Y2636353D01*
X1886517Y2636994D01*
X1885544Y2637397D01*
X1884500Y2637535D01*
D02*
G37*
G36*
X1946378Y2666526D02*
X1945595Y2666423D01*
X1944865Y2666121D01*
X1944238Y2665640D01*
X1943757Y2665013D01*
X1943455Y2664283D01*
X1943352Y2663500D01*
X1943455Y2662717D01*
X1943757Y2661987D01*
X1944238Y2661360D01*
X1944865Y2660880D01*
X1945595Y2660577D01*
X1946378Y2660474D01*
X1947161Y2660577D01*
X1947891Y2660880D01*
X1948517Y2661360D01*
X1948998Y2661987D01*
X1949301Y2662717D01*
X1949404Y2663500D01*
X1949301Y2664283D01*
X1948998Y2665013D01*
X1948517Y2665640D01*
X1947891Y2666121D01*
X1947161Y2666423D01*
X1946378Y2666526D01*
D02*
G37*
G36*
X2013500Y2425536D02*
X2012030Y2425392D01*
X2010616Y2424963D01*
X2009313Y2424266D01*
X2008171Y2423329D01*
X2007234Y2422187D01*
X2006537Y2420884D01*
X2006108Y2419470D01*
X2005964Y2418000D01*
X2006108Y2416530D01*
X2006537Y2415116D01*
X2007234Y2413813D01*
X2008171Y2412671D01*
X2009313Y2411734D01*
X2010616Y2411037D01*
X2012030Y2410608D01*
X2013500Y2410464D01*
X2014970Y2410608D01*
X2016384Y2411037D01*
X2017687Y2411734D01*
X2018829Y2412671D01*
X2019766Y2413813D01*
X2020463Y2415116D01*
X2020892Y2416530D01*
X2021036Y2418000D01*
X2020892Y2419470D01*
X2020463Y2420884D01*
X2019766Y2422187D01*
X2018829Y2423329D01*
X2017687Y2424266D01*
X2016384Y2424963D01*
X2014970Y2425392D01*
X2013500Y2425536D01*
D02*
G37*
G36*
X1969000Y2477035D02*
X1967956Y2476897D01*
X1966983Y2476494D01*
X1966147Y2475853D01*
X1965506Y2475017D01*
X1965103Y2474044D01*
X1964965Y2473000D01*
X1965103Y2471956D01*
X1965506Y2470983D01*
X1966147Y2470147D01*
X1966983Y2469506D01*
X1967956Y2469103D01*
X1969000Y2468966D01*
X1969129Y2468982D01*
X1969482Y2468629D01*
X1969465Y2468500D01*
X1969603Y2467456D01*
X1970006Y2466483D01*
X1970647Y2465647D01*
X1971483Y2465006D01*
X1972456Y2464603D01*
X1973500Y2464466D01*
X1974544Y2464603D01*
X1975517Y2465006D01*
X1976353Y2465647D01*
X1976994Y2466483D01*
X1977397Y2467456D01*
X1977534Y2468500D01*
X1977397Y2469544D01*
X1976994Y2470517D01*
X1976353Y2471353D01*
X1975517Y2471994D01*
X1974544Y2472397D01*
X1973500Y2472535D01*
X1973371Y2472518D01*
X1973018Y2472871D01*
X1973034Y2473000D01*
X1972897Y2474044D01*
X1972494Y2475017D01*
X1971853Y2475853D01*
X1971017Y2476494D01*
X1970044Y2476897D01*
X1969000Y2477035D01*
D02*
G37*
G36*
X2017000Y2471026D02*
X2016217Y2470923D01*
X2015487Y2470621D01*
X2014860Y2470140D01*
X2014380Y2469513D01*
X2014077Y2468783D01*
X2013974Y2468000D01*
X2014077Y2467217D01*
X2014380Y2466487D01*
X2014860Y2465860D01*
X2015487Y2465380D01*
X2016217Y2465077D01*
X2017000Y2464974D01*
X2017783Y2465077D01*
X2018513Y2465380D01*
X2019140Y2465860D01*
X2019621Y2466487D01*
X2019923Y2467217D01*
X2020026Y2468000D01*
X2019923Y2468783D01*
X2019621Y2469513D01*
X2019140Y2470140D01*
X2018513Y2470621D01*
X2017783Y2470923D01*
X2017000Y2471026D01*
D02*
G37*
G36*
X1950000Y2484274D02*
X1949282Y2484179D01*
X1948613Y2483902D01*
X1948039Y2483461D01*
X1947807Y2483160D01*
X1947193D01*
X1946961Y2483461D01*
X1946387Y2483902D01*
X1945718Y2484179D01*
X1945000Y2484274D01*
X1944282Y2484179D01*
X1943613Y2483902D01*
X1943039Y2483461D01*
X1942807Y2483160D01*
X1942193D01*
X1941961Y2483461D01*
X1941387Y2483902D01*
X1940718Y2484179D01*
X1940000Y2484274D01*
X1939282Y2484179D01*
X1938613Y2483902D01*
X1938039Y2483461D01*
X1937598Y2482887D01*
X1937321Y2482218D01*
X1937226Y2481500D01*
X1937321Y2480782D01*
X1937598Y2480113D01*
X1938039Y2479539D01*
X1938340Y2479307D01*
Y2478693D01*
X1938039Y2478461D01*
X1937598Y2477887D01*
X1937321Y2477218D01*
X1937226Y2476500D01*
X1937321Y2475782D01*
X1937598Y2475113D01*
X1938039Y2474539D01*
X1938340Y2474307D01*
Y2473693D01*
X1938039Y2473461D01*
X1937598Y2472887D01*
X1937321Y2472218D01*
X1937226Y2471500D01*
X1937321Y2470782D01*
X1937598Y2470113D01*
X1938039Y2469539D01*
X1938613Y2469098D01*
X1939282Y2468821D01*
X1940000Y2468726D01*
X1940718Y2468821D01*
X1941387Y2469098D01*
X1941961Y2469539D01*
X1942193Y2469840D01*
X1942807D01*
X1943039Y2469539D01*
X1943613Y2469098D01*
X1944282Y2468821D01*
X1945000Y2468726D01*
X1945718Y2468821D01*
X1946387Y2469098D01*
X1946961Y2469539D01*
X1947193Y2469840D01*
X1947807D01*
X1948039Y2469539D01*
X1948613Y2469098D01*
X1949282Y2468821D01*
X1950000Y2468726D01*
X1950718Y2468821D01*
X1951387Y2469098D01*
X1951961Y2469539D01*
X1952402Y2470113D01*
X1952679Y2470782D01*
X1952774Y2471500D01*
X1952679Y2472218D01*
X1952402Y2472887D01*
X1951961Y2473461D01*
X1951660Y2473693D01*
Y2474307D01*
X1951961Y2474539D01*
X1952402Y2475113D01*
X1952679Y2475782D01*
X1952774Y2476500D01*
X1952679Y2477218D01*
X1952402Y2477887D01*
X1951961Y2478461D01*
X1951660Y2478693D01*
Y2479307D01*
X1951961Y2479539D01*
X1952402Y2480113D01*
X1952679Y2480782D01*
X1952774Y2481500D01*
X1952679Y2482218D01*
X1952402Y2482887D01*
X1951961Y2483461D01*
X1951387Y2483902D01*
X1950718Y2484179D01*
X1950000Y2484274D01*
D02*
G37*
G36*
X2017500Y2493526D02*
X2016717Y2493423D01*
X2015987Y2493121D01*
X2015360Y2492640D01*
X2014879Y2492013D01*
X2014577Y2491283D01*
X2014474Y2490500D01*
X2014577Y2489717D01*
X2014879Y2488987D01*
X2015360Y2488360D01*
X2015987Y2487880D01*
X2016717Y2487577D01*
X2017500Y2487474D01*
X2018283Y2487577D01*
X2019013Y2487880D01*
X2019640Y2488360D01*
X2020120Y2488987D01*
X2020423Y2489717D01*
X2020526Y2490500D01*
X2020423Y2491283D01*
X2020120Y2492013D01*
X2019640Y2492640D01*
X2019013Y2493121D01*
X2018283Y2493423D01*
X2017500Y2493526D01*
D02*
G37*
G36*
X1966000Y2515036D02*
X1964530Y2514891D01*
X1963116Y2514463D01*
X1961813Y2513766D01*
X1960671Y2512829D01*
X1959734Y2511687D01*
X1959037Y2510384D01*
X1958608Y2508970D01*
X1958526Y2508130D01*
X1958464Y2507500D01*
X1958608Y2506030D01*
X1959037Y2504616D01*
X1959734Y2503313D01*
X1960671Y2502171D01*
X1961813Y2501234D01*
X1963116Y2500537D01*
X1964530Y2500109D01*
X1966000Y2499964D01*
X1967470Y2500109D01*
X1968884Y2500537D01*
X1970187Y2501234D01*
X1971329Y2502171D01*
X1972266Y2503313D01*
X1972963Y2504616D01*
X1973392Y2506030D01*
X1973536Y2507500D01*
X1973392Y2508970D01*
X1972963Y2510384D01*
X1972266Y2511687D01*
X1971329Y2512829D01*
X1970187Y2513766D01*
X1968884Y2514463D01*
X1967470Y2514891D01*
X1966000Y2515036D01*
D02*
G37*
G36*
X1665000Y2772529D02*
X1663824Y2772413D01*
X1662693Y2772070D01*
X1661650Y2771513D01*
X1660737Y2770763D01*
X1659987Y2769850D01*
X1659430Y2768807D01*
X1659087Y2767676D01*
X1658971Y2766500D01*
X1659087Y2765324D01*
X1659430Y2764193D01*
X1659987Y2763150D01*
X1660737Y2762237D01*
X1661650Y2761487D01*
X1662693Y2760930D01*
X1663824Y2760587D01*
X1665000Y2760471D01*
X1666176Y2760587D01*
X1667307Y2760930D01*
X1668350Y2761487D01*
X1669263Y2762237D01*
X1670013Y2763150D01*
X1670570Y2764193D01*
X1670913Y2765324D01*
X1671029Y2766500D01*
X1670913Y2767676D01*
X1670570Y2768807D01*
X1670013Y2769850D01*
X1669263Y2770763D01*
X1668350Y2771513D01*
X1667307Y2772070D01*
X1666176Y2772413D01*
X1665000Y2772529D01*
D02*
G37*
G36*
X1448000Y2777107D02*
X1446184Y2776964D01*
X1444413Y2776539D01*
X1442731Y2775842D01*
X1441178Y2774890D01*
X1439793Y2773707D01*
X1438610Y2772322D01*
X1437658Y2770769D01*
X1436961Y2769087D01*
X1436536Y2767316D01*
X1436393Y2765500D01*
X1436536Y2763684D01*
X1436961Y2761913D01*
X1437658Y2760231D01*
X1438610Y2758678D01*
X1439793Y2757293D01*
X1441178Y2756110D01*
X1442731Y2755158D01*
X1444413Y2754461D01*
X1446184Y2754036D01*
X1448000Y2753893D01*
X1449816Y2754036D01*
X1451587Y2754461D01*
X1453269Y2755158D01*
X1454822Y2756110D01*
X1456207Y2757293D01*
X1457390Y2758678D01*
X1458342Y2760231D01*
X1459039Y2761913D01*
X1459464Y2763684D01*
X1459607Y2765500D01*
X1459464Y2767316D01*
X1459039Y2769087D01*
X1458342Y2770769D01*
X1457390Y2772322D01*
X1456207Y2773707D01*
X1454822Y2774890D01*
X1453269Y2775842D01*
X1451587Y2776539D01*
X1449816Y2776964D01*
X1448000Y2777107D01*
D02*
G37*
G36*
X1373937Y2724437D02*
X1359063D01*
Y2709563D01*
X1373937D01*
Y2724437D01*
D02*
G37*
G36*
X1418000Y2751508D02*
X1416215Y2751367D01*
X1414474Y2750949D01*
X1412820Y2750264D01*
X1411294Y2749329D01*
X1409933Y2748166D01*
X1408770Y2746805D01*
X1407834Y2745278D01*
X1407149Y2743624D01*
X1406731Y2741883D01*
X1406591Y2740098D01*
X1406731Y2738314D01*
X1407149Y2736573D01*
X1407834Y2734919D01*
X1408770Y2733392D01*
X1409933Y2732031D01*
X1411294Y2730868D01*
X1412820Y2729933D01*
X1414474Y2729248D01*
X1416215Y2728830D01*
X1418000Y2728689D01*
X1419785Y2728830D01*
X1421526Y2729248D01*
X1423180Y2729933D01*
X1424706Y2730868D01*
X1426068Y2732031D01*
X1427230Y2733392D01*
X1428166Y2734919D01*
X1428851Y2736573D01*
X1429269Y2738314D01*
X1429409Y2740098D01*
X1429269Y2741883D01*
X1428851Y2743624D01*
X1428166Y2745278D01*
X1427230Y2746805D01*
X1426068Y2748166D01*
X1424706Y2749329D01*
X1423180Y2750264D01*
X1421526Y2750949D01*
X1419785Y2751367D01*
X1418000Y2751508D01*
D02*
G37*
G36*
X1407437Y2724437D02*
X1392563D01*
Y2709563D01*
X1407437D01*
Y2724437D01*
D02*
G37*
G36*
X1376937Y2806437D02*
X1362063D01*
Y2791563D01*
X1376937D01*
Y2806437D01*
D02*
G37*
G36*
X1468839Y2829937D02*
X1453965D01*
Y2815063D01*
X1468839D01*
Y2829937D01*
D02*
G37*
G36*
X1429339D02*
X1414465D01*
Y2815063D01*
X1429339D01*
Y2829937D01*
D02*
G37*
G36*
X1494500Y2826984D02*
X1493235Y2826859D01*
X1492019Y2826490D01*
X1490898Y2825891D01*
X1490352Y2825444D01*
D01*
X1489915Y2825085D01*
X1489109Y2824102D01*
X1488510Y2822981D01*
X1488141Y2821765D01*
X1488016Y2820500D01*
X1488141Y2819235D01*
X1488510Y2818019D01*
X1489109Y2816898D01*
X1489915Y2815915D01*
X1490898Y2815109D01*
X1492019Y2814510D01*
X1493235Y2814141D01*
X1494500Y2814016D01*
X1495765Y2814141D01*
X1496981Y2814510D01*
X1498102Y2815109D01*
X1499085Y2815915D01*
X1499891Y2816898D01*
X1500490Y2818019D01*
X1500859Y2819235D01*
X1500984Y2820500D01*
X1500859Y2821765D01*
X1500490Y2822981D01*
X1499891Y2824102D01*
X1499085Y2825085D01*
X1498102Y2825891D01*
X1496981Y2826490D01*
X1495765Y2826859D01*
X1494500Y2826984D01*
D02*
G37*
G36*
X1692000Y2789484D02*
X1690735Y2789359D01*
X1689519Y2788990D01*
X1688398Y2788391D01*
X1687415Y2787585D01*
X1686609Y2786602D01*
X1686010Y2785481D01*
X1685641Y2784265D01*
X1685516Y2783000D01*
X1685641Y2781735D01*
X1686010Y2780519D01*
X1686609Y2779398D01*
X1687415Y2778415D01*
X1688398Y2777609D01*
X1689519Y2777010D01*
X1690735Y2776641D01*
X1692000Y2776516D01*
X1693265Y2776641D01*
X1694481Y2777010D01*
X1695602Y2777609D01*
X1696585Y2778415D01*
X1697391Y2779398D01*
X1697990Y2780519D01*
X1698359Y2781735D01*
X1698484Y2783000D01*
X1698359Y2784265D01*
X1697990Y2785481D01*
X1697391Y2786602D01*
X1696585Y2787585D01*
X1695602Y2788391D01*
X1694481Y2788990D01*
X1693265Y2789359D01*
X1692000Y2789484D01*
D02*
G37*
G36*
X1727000D02*
X1725735Y2789359D01*
X1724519Y2788990D01*
X1723398Y2788391D01*
X1722415Y2787585D01*
X1721609Y2786602D01*
X1721010Y2785481D01*
X1720641Y2784265D01*
X1720516Y2783000D01*
X1720641Y2781735D01*
X1721010Y2780519D01*
X1721609Y2779398D01*
X1722415Y2778415D01*
X1723398Y2777609D01*
X1724519Y2777010D01*
X1725735Y2776641D01*
X1727000Y2776516D01*
X1728265Y2776641D01*
X1729481Y2777010D01*
X1730602Y2777609D01*
X1731585Y2778415D01*
X1732391Y2779398D01*
X1732990Y2780519D01*
X1733359Y2781735D01*
X1733484Y2783000D01*
X1733359Y2784265D01*
X1732990Y2785481D01*
X1732391Y2786602D01*
X1731585Y2787585D01*
X1730602Y2788391D01*
X1729481Y2788990D01*
X1728265Y2789359D01*
X1727000Y2789484D01*
D02*
G37*
G36*
X1758500Y2790984D02*
X1757235Y2790859D01*
X1756019Y2790490D01*
X1754898Y2789891D01*
X1753915Y2789085D01*
X1753109Y2788102D01*
X1752510Y2786981D01*
X1752141Y2785765D01*
X1752016Y2784500D01*
X1752141Y2783235D01*
X1752510Y2782019D01*
X1753109Y2780898D01*
X1753915Y2779915D01*
X1754898Y2779109D01*
X1756019Y2778510D01*
X1757235Y2778141D01*
X1758500Y2778016D01*
X1759765Y2778141D01*
X1760981Y2778510D01*
X1762102Y2779109D01*
X1763085Y2779915D01*
X1763891Y2780898D01*
X1764490Y2782019D01*
X1764859Y2783235D01*
X1764984Y2784500D01*
X1764859Y2785765D01*
X1764490Y2786981D01*
X1763891Y2788102D01*
X1763085Y2789085D01*
X1762102Y2789891D01*
X1760981Y2790490D01*
X1759765Y2790859D01*
X1758500Y2790984D01*
D02*
G37*
G36*
X1741000Y2789984D02*
X1739735Y2789859D01*
X1738519Y2789490D01*
X1737398Y2788891D01*
X1736415Y2788085D01*
X1735609Y2787102D01*
X1735010Y2785981D01*
X1734641Y2784765D01*
X1734516Y2783500D01*
X1734641Y2782235D01*
X1735010Y2781019D01*
X1735609Y2779898D01*
X1736415Y2778915D01*
X1737398Y2778109D01*
X1738519Y2777510D01*
X1739735Y2777141D01*
X1741000Y2777016D01*
X1742265Y2777141D01*
X1743481Y2777510D01*
X1744602Y2778109D01*
X1745585Y2778915D01*
X1746391Y2779898D01*
X1746990Y2781019D01*
X1747359Y2782235D01*
X1747484Y2783500D01*
X1747359Y2784765D01*
X1746990Y2785981D01*
X1746391Y2787102D01*
X1745585Y2788085D01*
X1744602Y2788891D01*
X1743481Y2789490D01*
X1742265Y2789859D01*
X1741000Y2789984D01*
D02*
G37*
G36*
X1487528Y2624451D02*
X1485684Y2624269D01*
X1483911Y2623732D01*
X1482277Y2622858D01*
X1480845Y2621683D01*
X1479669Y2620251D01*
X1478796Y2618617D01*
X1478258Y2616844D01*
X1478076Y2615000D01*
X1478258Y2613156D01*
X1478796Y2611383D01*
X1479669Y2609749D01*
X1480845Y2608317D01*
X1482277Y2607142D01*
X1483911Y2606268D01*
X1485684Y2605731D01*
X1487528Y2605549D01*
X1489371Y2605731D01*
X1491144Y2606268D01*
X1492778Y2607142D01*
X1494210Y2608317D01*
X1495386Y2609749D01*
X1496259Y2611383D01*
X1496797Y2613156D01*
X1496979Y2615000D01*
X1496797Y2616844D01*
X1496259Y2618617D01*
X1495386Y2620251D01*
X1494210Y2621683D01*
X1492778Y2622858D01*
X1491144Y2623732D01*
X1489371Y2624269D01*
X1487528Y2624451D01*
D02*
G37*
G36*
X1473402Y2670390D02*
X1452622D01*
Y2649610D01*
X1473402D01*
Y2670390D01*
D02*
G37*
G36*
X2142937Y2762437D02*
X2128063D01*
Y2747563D01*
X2142937D01*
Y2762437D01*
D02*
G37*
G36*
X1997937Y2763535D02*
X1983063D01*
Y2748661D01*
X1997937D01*
Y2763535D01*
D02*
G37*
G36*
Y2724035D02*
X1983063D01*
Y2709161D01*
X1997937D01*
Y2724035D01*
D02*
G37*
G36*
X2195902Y2722909D02*
X2194117Y2722769D01*
X2192376Y2722351D01*
X2190722Y2721666D01*
X2189195Y2720730D01*
X2187834Y2719567D01*
X2186671Y2718206D01*
X2185736Y2716680D01*
X2185051Y2715026D01*
X2184633Y2713285D01*
X2184492Y2711500D01*
X2184633Y2709715D01*
X2185051Y2707974D01*
X2185736Y2706320D01*
X2186671Y2704794D01*
X2187834Y2703432D01*
X2189195Y2702270D01*
X2190722Y2701334D01*
X2192376Y2700649D01*
X2194117Y2700231D01*
X2195902Y2700091D01*
X2197686Y2700231D01*
X2199427Y2700649D01*
X2201081Y2701334D01*
X2202608Y2702270D01*
X2203969Y2703432D01*
X2205132Y2704794D01*
X2206067Y2706320D01*
X2206752Y2707974D01*
X2207170Y2709715D01*
X2207311Y2711500D01*
X2207170Y2713285D01*
X2206752Y2715026D01*
X2206067Y2716680D01*
X2205132Y2718206D01*
X2203969Y2719567D01*
X2202608Y2720730D01*
X2201081Y2721666D01*
X2199427Y2722351D01*
X2197686Y2722769D01*
X2195902Y2722909D01*
D02*
G37*
G36*
X2062402Y2721909D02*
X2060617Y2721769D01*
X2058876Y2721351D01*
X2057222Y2720666D01*
X2055695Y2719730D01*
X2054334Y2718567D01*
X2053171Y2717206D01*
X2052236Y2715680D01*
X2051551Y2714026D01*
X2051133Y2712285D01*
X2050992Y2710500D01*
X2051133Y2708715D01*
X2051551Y2706974D01*
X2052236Y2705320D01*
X2053171Y2703794D01*
X2054334Y2702432D01*
X2055695Y2701270D01*
X2057222Y2700334D01*
X2058876Y2699649D01*
X2060617Y2699231D01*
X2062402Y2699091D01*
X2064186Y2699231D01*
X2065927Y2699649D01*
X2067581Y2700334D01*
X2069108Y2701270D01*
X2070469Y2702432D01*
X2071632Y2703794D01*
X2072567Y2705320D01*
X2073252Y2706974D01*
X2073670Y2708715D01*
X2073811Y2710500D01*
X2073670Y2712285D01*
X2073252Y2714026D01*
X2072567Y2715680D01*
X2071632Y2717206D01*
X2070469Y2718567D01*
X2069108Y2719730D01*
X2067581Y2720666D01*
X2065927Y2721351D01*
X2064186Y2721769D01*
X2062402Y2721909D01*
D02*
G37*
G36*
X2200000Y2829607D02*
X2198184Y2829464D01*
X2196413Y2829039D01*
X2194731Y2828342D01*
X2193178Y2827390D01*
X2191793Y2826207D01*
X2190610Y2824822D01*
X2189658Y2823269D01*
X2188961Y2821587D01*
X2188536Y2819816D01*
X2188393Y2818000D01*
X2188536Y2816184D01*
X2188961Y2814413D01*
X2189658Y2812731D01*
X2190610Y2811178D01*
X2191793Y2809793D01*
X2193178Y2808610D01*
X2194731Y2807658D01*
X2196413Y2806961D01*
X2198184Y2806536D01*
X2200000Y2806393D01*
X2201816Y2806536D01*
X2203587Y2806961D01*
X2205269Y2807658D01*
X2206822Y2808610D01*
X2208207Y2809793D01*
X2209390Y2811178D01*
X2210342Y2812731D01*
X2211039Y2814413D01*
X2211464Y2816184D01*
X2211607Y2818000D01*
X2211464Y2819816D01*
X2211039Y2821587D01*
X2210342Y2823269D01*
X2209390Y2824822D01*
X2208207Y2826207D01*
X2206822Y2827390D01*
X2205269Y2828342D01*
X2203587Y2829039D01*
X2201816Y2829464D01*
X2200000Y2829607D01*
D02*
G37*
G36*
X2142000Y2823984D02*
X2140735Y2823859D01*
X2139519Y2823490D01*
X2138398Y2822891D01*
X2137415Y2822085D01*
X2136609Y2821102D01*
X2136010Y2819981D01*
X2135641Y2818765D01*
X2135516Y2817500D01*
X2135641Y2816235D01*
X2136010Y2815019D01*
X2136609Y2813898D01*
X2137415Y2812915D01*
X2138398Y2812109D01*
X2139519Y2811510D01*
X2140735Y2811141D01*
X2142000Y2811016D01*
X2143265Y2811141D01*
X2144481Y2811510D01*
X2145602Y2812109D01*
X2146585Y2812915D01*
X2147391Y2813898D01*
X2147990Y2815019D01*
X2148359Y2816235D01*
X2148484Y2817500D01*
X2148359Y2818765D01*
X2147990Y2819981D01*
X2147391Y2821102D01*
X2146585Y2822085D01*
X2145602Y2822891D01*
X2144481Y2823490D01*
X2143265Y2823859D01*
X2142000Y2823984D01*
D02*
G37*
G36*
X2016937Y2787437D02*
X2002063D01*
Y2772563D01*
X2016937D01*
Y2787437D01*
D02*
G37*
G36*
X2142937Y2795937D02*
X2128063D01*
Y2781063D01*
X2142937D01*
Y2795937D01*
D02*
G37*
G36*
X2068028Y2633451D02*
X2066184Y2633269D01*
X2064411Y2632732D01*
X2062777Y2631858D01*
X2061345Y2630683D01*
X2060169Y2629251D01*
X2059296Y2627617D01*
X2058758Y2625844D01*
X2058577Y2624000D01*
X2058758Y2622156D01*
X2059296Y2620383D01*
X2060169Y2618749D01*
X2061345Y2617317D01*
X2062777Y2616142D01*
X2064411Y2615268D01*
X2066184Y2614731D01*
X2068028Y2614549D01*
X2069871Y2614731D01*
X2071644Y2615268D01*
X2073278Y2616142D01*
X2074710Y2617317D01*
X2075886Y2618749D01*
X2076759Y2620383D01*
X2077297Y2622156D01*
X2077479Y2624000D01*
X2077297Y2625844D01*
X2076759Y2627617D01*
X2075886Y2629251D01*
X2074710Y2630683D01*
X2073278Y2631858D01*
X2071644Y2632732D01*
X2069871Y2633269D01*
X2068028Y2633451D01*
D02*
G37*
G36*
X1899000Y2705529D02*
X1897824Y2705413D01*
X1896693Y2705070D01*
X1895650Y2704513D01*
X1894737Y2703763D01*
X1893987Y2702850D01*
X1893430Y2701807D01*
X1893087Y2700676D01*
X1892971Y2699500D01*
X1893087Y2698324D01*
X1893430Y2697193D01*
X1893987Y2696150D01*
X1894737Y2695237D01*
X1895650Y2694487D01*
X1896693Y2693930D01*
X1897824Y2693587D01*
X1899000Y2693471D01*
X1900176Y2693587D01*
X1901307Y2693930D01*
X1902350Y2694487D01*
X1903263Y2695237D01*
X1904013Y2696150D01*
X1904570Y2697193D01*
X1904913Y2698324D01*
X1905029Y2699500D01*
X1904913Y2700676D01*
X1904570Y2701807D01*
X1904013Y2702850D01*
X1903263Y2703763D01*
X1902350Y2704513D01*
X1901307Y2705070D01*
X1900176Y2705413D01*
X1899000Y2705529D01*
D02*
G37*
G36*
X2053902Y2679390D02*
X2033122D01*
Y2658610D01*
X2053902D01*
Y2679390D01*
D02*
G37*
%LPD*%
D13*
X1771000Y2278500D02*
D03*
Y2494500D02*
D03*
X1810500Y2088894D02*
D03*
D65*
X1794000Y2733500D02*
X1794500D01*
X1949571Y2569000D02*
X1972500D01*
X1949071Y2568500D02*
X1949571Y2569000D01*
X1949000Y2568500D02*
X1949071D01*
X1938500Y2558000D02*
X1949000Y2568500D01*
X1938500Y2553500D02*
Y2558000D01*
X1690000Y2469000D02*
Y2512000D01*
X1684000Y2518000D02*
X1690000Y2512000D01*
X1684000Y2518000D02*
X1701500Y2535500D01*
X1668500Y2601500D02*
X1670500Y2603500D01*
X1682500D02*
X1691000Y2595000D01*
Y2582500D02*
Y2595000D01*
Y2582500D02*
X1694000Y2579500D01*
X1685071Y2653000D02*
X1689000D01*
X1684571Y2652500D02*
X1685071Y2653000D01*
X1680429Y2652500D02*
X1684571D01*
X1679929Y2653000D02*
X1680429Y2652500D01*
X1673929Y2653000D02*
X1679929D01*
X1673429Y2653500D02*
X1673929Y2653000D01*
X1771000Y2255429D02*
Y2278500D01*
X1658000Y2235500D02*
X1751071D01*
X1771000Y2255429D01*
X1760000Y2313000D02*
Y2561000D01*
X1870000Y2378500D02*
X1887000Y2395500D01*
X1870000Y2369000D02*
Y2378500D01*
X1887000Y2395500D02*
X1893000D01*
X1904000Y2406500D01*
X1811000Y2347500D02*
X1821500Y2337000D01*
X1775500Y2345000D02*
X1778000Y2347500D01*
X1811000D01*
X1821500Y2326500D02*
Y2337000D01*
X1612000Y2267500D02*
Y2268500D01*
X1615000Y2271500D01*
Y2294000D01*
X1725500Y2278500D02*
X1760000Y2313000D01*
X1725500Y2258000D02*
Y2278500D01*
X1718000Y2250500D02*
X1725500Y2258000D01*
X1650500Y2250500D02*
X1718000D01*
X1626000Y2226000D02*
X1650500Y2250500D01*
X1886000Y2511000D02*
X1895000Y2520000D01*
Y2623000D01*
X1877500Y2511000D02*
X1886000D01*
X1871000Y2504500D02*
X1877500Y2511000D01*
X1771500Y2711000D02*
X1794000Y2733500D01*
X1760000Y2561000D02*
X1789500Y2590500D01*
X1771000Y2278500D02*
Y2288500D01*
X1670500Y2603500D02*
X1682500D01*
X1628500Y2628000D02*
X1706000D01*
X1728500Y2605500D01*
X1694000Y2545500D02*
Y2579500D01*
Y2545500D02*
X1701500Y2538000D01*
X1871000Y2494500D02*
Y2504500D01*
X1864390Y2698933D02*
X1896457Y2731000D01*
X1881500Y2670500D02*
X1893000Y2659000D01*
X1856000Y2670500D02*
X1881500D01*
X1852000Y2674500D02*
X1856000Y2670500D01*
X1841000Y2494500D02*
Y2504500D01*
Y2508500D01*
X1838000Y2511500D02*
X1841000Y2508500D01*
X1831500Y2511500D02*
X1838000D01*
X1804000Y2539000D02*
X1831500Y2511500D01*
X1804000Y2539000D02*
Y2590000D01*
X1788500Y2605500D02*
X1804000Y2590000D01*
X1728500Y2605500D02*
X1788500D01*
X1957000Y2561000D02*
X1959000D01*
X1982500Y2537500D01*
X1997000D01*
X2014500Y2520000D01*
X1972500Y2569000D02*
X1977000Y2564500D01*
X1581000Y2675500D02*
X1628500Y2628000D01*
X1732500Y2108685D02*
X1733500Y2109685D01*
X1896457Y2731000D02*
X2092500D01*
X2153000Y2670500D01*
Y2654000D02*
Y2670500D01*
X1808488Y2681000D02*
X1814988Y2674500D01*
X1852000D01*
X1678000Y2450500D02*
X1687000D01*
X1696500Y2460000D01*
X1696000Y2460500D02*
X1696500Y2460000D01*
X1696000Y2460500D02*
Y2463000D01*
X1690000Y2469000D02*
X1696000Y2463000D01*
X1701500Y2535500D02*
Y2538000D01*
X1621500Y2688500D02*
X1656500Y2653500D01*
X1664000D01*
X1673429D01*
D66*
X1896000Y2221000D02*
X1904500Y2212500D01*
Y2203000D02*
Y2212500D01*
X1839000Y2425000D02*
X1852000Y2438000D01*
X1915000Y2558500D02*
X1916000Y2557500D01*
Y2532669D02*
Y2557500D01*
X1911138Y2527807D02*
X1916000Y2532669D01*
X1911138Y2524193D02*
Y2527807D01*
Y2524193D02*
X1911500Y2523831D01*
Y2514000D02*
Y2523831D01*
X1905953Y2508453D02*
X1911500Y2514000D01*
X1887000Y2535000D02*
X1888000Y2536000D01*
X1883500Y2535000D02*
X1887000D01*
X1855953Y2507453D02*
X1883500Y2535000D01*
X1855953Y2479453D02*
Y2507453D01*
X1850000Y2472500D02*
Y2473500D01*
X1855953Y2479453D01*
X1852000Y2438000D02*
X1852500D01*
X1851000D02*
X1852000D01*
X1905953Y2491453D02*
Y2508453D01*
X1852500Y2438000D02*
X1905953Y2491453D01*
X1858750Y2435750D02*
X1912547Y2489547D01*
X1842500Y2419500D02*
X1858750Y2435750D01*
Y2428250D02*
Y2435750D01*
Y2428250D02*
X1882740Y2404260D01*
X1818500Y2306500D02*
X1820500Y2308500D01*
X1810500Y2306500D02*
X1818500D01*
X1803500Y2313500D02*
X1810500Y2306500D01*
X1803500Y2313500D02*
Y2336500D01*
X1797500Y2342500D02*
X1803500Y2336500D01*
X1787500Y2351500D02*
X1818136D01*
X1820136Y2349500D01*
X1779500Y2359000D02*
X1780000D01*
X1787500Y2351500D01*
X1822500Y2349500D02*
X1828453Y2343547D01*
X1820136Y2349500D02*
X1822500D01*
X1745136Y2327636D02*
X1752500Y2335000D01*
X1745136Y2327500D02*
Y2327636D01*
X1639500Y2279500D02*
X1697136D01*
X1745136Y2327500D01*
X1638004Y2300000D02*
X1703500D01*
X1637052Y2299047D02*
X1638004Y2300000D01*
X1632948Y2299047D02*
X1637052D01*
X1631996Y2300000D02*
X1632948Y2299047D01*
X1629000Y2300000D02*
X1631996D01*
X1625000Y2304000D02*
X1629000Y2300000D01*
X1703500D02*
X1731000Y2327500D01*
X1828453Y2336136D02*
Y2343547D01*
X1830500Y2321000D02*
Y2334089D01*
X1828453Y2336136D02*
X1830500Y2334089D01*
X1827500Y2318000D02*
X1830500Y2321000D01*
X1821500Y2318000D02*
X1827500D01*
X1690000Y2372000D02*
X1725500Y2336500D01*
X1690000Y2372000D02*
Y2431996D01*
X1725500Y2336500D02*
X1729500D01*
X1625000Y2294000D02*
X1639500Y2279500D01*
X1776000Y2401500D02*
X1778000D01*
X1796000Y2419500D01*
X1842500D01*
X1912547Y2489547D02*
X1913051D01*
X1920000Y2496496D01*
Y2532500D01*
X1922000Y2534500D01*
Y2537500D01*
X1776500Y2411000D02*
X1790500Y2425000D01*
X1839000D01*
D67*
X1686500Y2797000D02*
X1708067Y2818567D01*
X1634055Y2797000D02*
X1686500D01*
X1620055Y2811000D02*
X1634055Y2797000D01*
X1733500Y2109685D02*
X1736815Y2113000D01*
X1708067Y2818567D02*
X1750110D01*
X1878000Y2118500D02*
X1890000Y2106500D01*
X1733500Y2109685D02*
Y2200000D01*
X1718315Y2094500D02*
X1732500Y2108685D01*
X1979000Y2102000D02*
X2071500D01*
X2100630Y2131130D01*
X1890000Y2100000D02*
Y2106500D01*
X1974500D02*
X1979000Y2102000D01*
X1955630Y2125370D02*
X1974500Y2106500D01*
X1463012Y2623500D02*
X1472000D01*
X1495500Y2647000D01*
X1467000Y2808000D02*
X1618500Y2807500D01*
X1620055Y2811000D01*
X1437130Y2179130D02*
Y2251630D01*
Y2179130D02*
X1447500Y2189500D01*
X1597000D01*
X1681106Y2105394D01*
Y2099751D02*
Y2105394D01*
Y2099751D02*
X1686357Y2094500D01*
X1718315D01*
X1787500Y2113000D02*
X1878000D01*
X1736815D02*
X1752500D01*
X1763000Y2123500D01*
X1777000D01*
X1787500Y2113000D01*
X1437130Y2251630D02*
X1450500Y2265000D01*
X1456500Y2259000D02*
Y2265000D01*
Y2271000D01*
Y2277000D01*
X1450500D02*
X1456500D01*
X1955630Y2125370D02*
Y2153000D01*
X1890000Y2106500D02*
X1974500D01*
X2100630Y2131130D02*
Y2153000D01*
D68*
X1794500Y2733500D02*
X1814000D01*
X1878000Y2113000D02*
Y2118500D01*
Y2152000D01*
X1848500D02*
X1868000D01*
X1878000D01*
X1814000Y2733500D02*
X1821000Y2726500D01*
Y2723000D02*
Y2726500D01*
X1848500Y2152000D02*
X1850000Y2153500D01*
X1808000Y2165000D02*
X1815437D01*
X1822000Y2153500D02*
X1850000D01*
X1815437Y2160063D02*
X1822000Y2153500D01*
X1815437Y2160063D02*
Y2165000D01*
D72*
X1934000Y2219000D02*
X1935500Y2220500D01*
X1934000Y2210500D02*
Y2219000D01*
X1948500Y2265000D02*
Y2287760D01*
X1935000Y2251500D02*
X1948500Y2265000D01*
X1926500Y2251500D02*
X1935000D01*
X1896000Y2221000D02*
X1926500Y2251500D01*
X1738500Y2221000D02*
X1896000D01*
X1723500Y2206000D02*
X1738500Y2221000D01*
X1723500Y2200000D02*
Y2206000D01*
X1935500Y2220500D02*
Y2244000D01*
D74*
X1651110Y2697567D02*
X1651203Y2697474D01*
D76*
X1754500Y2291000D02*
X1768000Y2304500D01*
X1754500Y2246000D02*
Y2291000D01*
X1768000Y2491500D02*
X1771000Y2494500D01*
X1768000Y2304500D02*
Y2491500D01*
D77*
X2209500Y2173000D02*
D03*
X1362500Y2264500D02*
D03*
X1771000Y2288500D02*
D03*
X1625000Y2304000D02*
D03*
Y2294000D02*
D03*
X1615000D02*
D03*
X1841000Y2494500D02*
D03*
Y2504500D02*
D03*
X1871000Y2494500D02*
D03*
Y2504500D02*
D03*
X2169000Y2817500D02*
D03*
X1820500Y2088894D02*
D03*
Y2098894D02*
D03*
X1830500Y2088894D02*
D03*
X1840500D02*
D03*
Y2098894D02*
D03*
X1904500Y2203000D02*
D03*
X1404500Y2805500D02*
D03*
X1808488Y2681000D02*
D03*
X1699480Y2616000D02*
D03*
D78*
X1868000Y2152000D02*
D03*
X1878000D02*
D03*
X1789500Y2590500D02*
D03*
X1723500Y2200000D02*
D03*
X1733500D02*
D03*
D84*
X2014500Y2520000D02*
D03*
D85*
X1956000Y2517500D02*
D03*
X1976000D02*
D03*
Y2497500D02*
D03*
X1956000D02*
D03*
X1905835Y2610000D02*
D03*
X1925835D02*
D03*
Y2590000D02*
D03*
X1905835D02*
D03*
X1572500Y2789500D02*
D03*
X1592500D02*
D03*
Y2769500D02*
D03*
X1572500D02*
D03*
X1613000Y2429500D02*
D03*
Y2409500D02*
D03*
X1593000D02*
D03*
Y2429500D02*
D03*
X1577500Y2487500D02*
D03*
X1597500D02*
D03*
Y2507500D02*
D03*
X1577500D02*
D03*
X1592500Y2679000D02*
D03*
X1612500D02*
D03*
Y2699000D02*
D03*
X1592500D02*
D03*
X1893000Y2659000D02*
D03*
X1913000D02*
D03*
Y2679000D02*
D03*
X1893000D02*
D03*
X2003500Y2408000D02*
D03*
X2023500D02*
D03*
Y2428000D02*
D03*
X2003500D02*
D03*
D86*
X1407000Y2149000D02*
D03*
X1547000Y2149500D02*
D03*
X2103130Y2149000D02*
D03*
X1963130Y2148500D02*
D03*
D87*
X1369500Y2779000D02*
D03*
X2009500Y2760000D02*
D03*
D89*
X1890000Y2100000D02*
D03*
X1732500Y2108685D02*
D03*
D91*
X1463012Y2623500D02*
D03*
Y2569000D02*
D03*
X2043512Y2632500D02*
D03*
Y2578000D02*
D03*
D95*
X2046500Y2281500D02*
D03*
X1450000Y2304000D02*
D03*
D96*
X1750110Y2818567D02*
D03*
X1647610Y2698067D02*
D03*
X1864390Y2698933D02*
D03*
D101*
X2137000Y2257500D02*
D03*
X2144000Y2256500D02*
D03*
X1844000Y2736000D02*
D03*
X1850000D02*
D03*
X1794500Y2733500D02*
D03*
X1938500Y2553500D02*
D03*
X1668500Y2601500D02*
D03*
X1689000Y2653000D02*
D03*
X1850000Y2472500D02*
D03*
X2063500Y2253500D02*
D03*
Y2259500D02*
D03*
X1934000Y2210500D02*
D03*
X1754500Y2246000D02*
D03*
X1851000Y2438000D02*
D03*
X1870000Y2369000D02*
D03*
X1904000Y2406500D02*
D03*
X1882740Y2404260D02*
D03*
X1820500Y2308500D02*
D03*
X1797500Y2342500D02*
D03*
X1779500Y2359000D02*
D03*
X1775500Y2345000D02*
D03*
X1821500Y2326500D02*
D03*
Y2318000D02*
D03*
X1729500Y2336500D02*
D03*
X1731000Y2327500D02*
D03*
X1752500Y2335000D02*
D03*
X1776000Y2401500D02*
D03*
X1922000Y2537500D02*
D03*
X1776500Y2411000D02*
D03*
X1915000Y2558500D02*
D03*
X1888000Y2536000D02*
D03*
X1690000Y2431996D02*
D03*
X1771500Y2711000D02*
D03*
X1754000Y2720500D02*
D03*
X1760000D02*
D03*
X1754000Y2726500D02*
D03*
X1957000Y2561000D02*
D03*
X1977000Y2564500D02*
D03*
X1948500Y2287760D02*
D03*
X2063500Y2265500D02*
D03*
X2069500D02*
D03*
X1456500Y2277000D02*
D03*
Y2259000D02*
D03*
X1450500Y2271000D02*
D03*
Y2277000D02*
D03*
X1759815Y2726500D02*
D03*
X1658000Y2235500D02*
D03*
X1456500Y2271000D02*
D03*
X1450500Y2265000D02*
D03*
X1456500D02*
D03*
X1451000Y2259000D02*
D03*
X2150000Y2255500D02*
D03*
Y2262000D02*
D03*
X2143000D02*
D03*
X2137000D02*
D03*
Y2269000D02*
D03*
X2143000D02*
D03*
X2150000D02*
D03*
X2069500Y2259500D02*
D03*
Y2247500D02*
D03*
Y2253500D02*
D03*
X2063500Y2247500D02*
D03*
X1844000Y2730000D02*
D03*
X1850000D02*
D03*
X1855500Y2736000D02*
D03*
Y2730000D02*
D03*
X1821000Y2723000D02*
D03*
X1678000Y2450500D02*
D03*
X1696000Y2463000D02*
D03*
X1684000Y2518000D02*
D03*
X1701500Y2538000D02*
D03*
X1664000Y2653500D02*
D03*
X1935500Y2244000D02*
D03*
D102*
X1488500Y2505500D02*
D03*
X1483500D02*
D03*
X1478500D02*
D03*
X2151500Y2620500D02*
D03*
X2156500D02*
D03*
X2146500D02*
D03*
X2156500Y2631500D02*
D03*
Y2626000D02*
D03*
X2161500D02*
D03*
X2151500Y2631500D02*
D03*
Y2626000D02*
D03*
X2161500Y2620500D02*
D03*
X2156500Y2637000D02*
D03*
X2161500Y2631500D02*
D03*
X2146500Y2626000D02*
D03*
X1452000Y2710500D02*
D03*
X1463500D02*
D03*
X1458000D02*
D03*
X1463000Y2705500D02*
D03*
X1457500D02*
D03*
X1452000D02*
D03*
X1489500Y2684500D02*
D03*
Y2695500D02*
D03*
Y2690000D02*
D03*
X1494500Y2695500D02*
D03*
X1452000Y2701000D02*
D03*
X1457500D02*
D03*
X1463000D02*
D03*
X1468500D02*
D03*
X1474000D02*
D03*
X1479500D02*
D03*
X1452000Y2695500D02*
D03*
X1457500D02*
D03*
X1463000D02*
D03*
X1468500D02*
D03*
X1474000D02*
D03*
X1479500D02*
D03*
X1452000Y2690000D02*
D03*
X1457500D02*
D03*
X1463000D02*
D03*
X1468500D02*
D03*
X1474000D02*
D03*
X1479500D02*
D03*
X1452000Y2684500D02*
D03*
X1457500D02*
D03*
X1463000D02*
D03*
X1468500D02*
D03*
X1474000D02*
D03*
X1479500D02*
D03*
X1484500Y2701000D02*
D03*
Y2695500D02*
D03*
Y2690000D02*
D03*
Y2684500D02*
D03*
X1464000Y2501000D02*
D03*
Y2496000D02*
D03*
Y2491000D02*
D03*
Y2486000D02*
D03*
Y2481000D02*
D03*
Y2476000D02*
D03*
Y2471000D02*
D03*
Y2466000D02*
D03*
Y2461000D02*
D03*
Y2506000D02*
D03*
X1488500Y2501000D02*
D03*
Y2496000D02*
D03*
Y2491000D02*
D03*
Y2486000D02*
D03*
Y2481000D02*
D03*
Y2476000D02*
D03*
Y2471000D02*
D03*
Y2466000D02*
D03*
Y2461000D02*
D03*
X1483500Y2501000D02*
D03*
Y2496000D02*
D03*
Y2491000D02*
D03*
Y2486000D02*
D03*
Y2481000D02*
D03*
Y2476000D02*
D03*
Y2471000D02*
D03*
Y2466000D02*
D03*
Y2461000D02*
D03*
X1478500Y2501000D02*
D03*
Y2496000D02*
D03*
Y2491000D02*
D03*
Y2486000D02*
D03*
Y2481000D02*
D03*
Y2476000D02*
D03*
Y2471000D02*
D03*
Y2466000D02*
D03*
Y2461000D02*
D03*
X1473500Y2501000D02*
D03*
Y2496000D02*
D03*
Y2491000D02*
D03*
Y2486000D02*
D03*
Y2481000D02*
D03*
Y2476000D02*
D03*
Y2471000D02*
D03*
Y2466000D02*
D03*
Y2461000D02*
D03*
X1468500Y2506000D02*
D03*
Y2461000D02*
D03*
Y2466000D02*
D03*
Y2471000D02*
D03*
Y2476000D02*
D03*
Y2481000D02*
D03*
Y2486000D02*
D03*
Y2491000D02*
D03*
Y2496000D02*
D03*
Y2501000D02*
D03*
X1473500Y2506000D02*
D03*
X2114500Y2443000D02*
D03*
X2119500D02*
D03*
X2109500D02*
D03*
X2104500Y2438000D02*
D03*
Y2433000D02*
D03*
Y2428000D02*
D03*
Y2423000D02*
D03*
Y2418000D02*
D03*
Y2413000D02*
D03*
Y2408000D02*
D03*
Y2403000D02*
D03*
Y2398000D02*
D03*
Y2443000D02*
D03*
X2109500Y2398000D02*
D03*
Y2403000D02*
D03*
Y2408000D02*
D03*
Y2413000D02*
D03*
Y2418000D02*
D03*
Y2423000D02*
D03*
Y2428000D02*
D03*
Y2433000D02*
D03*
Y2438000D02*
D03*
X2114500Y2398000D02*
D03*
Y2403000D02*
D03*
Y2408000D02*
D03*
Y2413000D02*
D03*
Y2418000D02*
D03*
Y2423000D02*
D03*
Y2428000D02*
D03*
Y2433000D02*
D03*
Y2438000D02*
D03*
X2119500Y2398000D02*
D03*
Y2403000D02*
D03*
Y2408000D02*
D03*
Y2413000D02*
D03*
Y2418000D02*
D03*
Y2423000D02*
D03*
Y2428000D02*
D03*
Y2433000D02*
D03*
Y2438000D02*
D03*
X2124500Y2398000D02*
D03*
Y2403000D02*
D03*
Y2408000D02*
D03*
Y2413000D02*
D03*
Y2418000D02*
D03*
Y2423000D02*
D03*
Y2428000D02*
D03*
Y2433000D02*
D03*
Y2438000D02*
D03*
Y2443000D02*
D03*
X2100000D02*
D03*
Y2398000D02*
D03*
Y2403000D02*
D03*
Y2408000D02*
D03*
Y2413000D02*
D03*
Y2418000D02*
D03*
Y2423000D02*
D03*
Y2428000D02*
D03*
Y2433000D02*
D03*
Y2438000D02*
D03*
X2141000Y2620500D02*
D03*
X2135500D02*
D03*
X2130000D02*
D03*
X2124500D02*
D03*
X2119000D02*
D03*
X2141000Y2626000D02*
D03*
X2135500D02*
D03*
X2130000D02*
D03*
X2124500D02*
D03*
X2119000D02*
D03*
X2146500Y2631500D02*
D03*
X2141000D02*
D03*
X2135500D02*
D03*
X2130000D02*
D03*
X2124500D02*
D03*
X2119000D02*
D03*
X2146500Y2637000D02*
D03*
X2141000D02*
D03*
X2135500D02*
D03*
X2130000D02*
D03*
X2124500D02*
D03*
X2119000D02*
D03*
X2146500Y2642500D02*
D03*
X2141000D02*
D03*
X2135500D02*
D03*
X2130000D02*
D03*
X2124500D02*
D03*
X2119000D02*
D03*
X2146500Y2648000D02*
D03*
X2141000D02*
D03*
X2135500D02*
D03*
X2130000D02*
D03*
X2124500D02*
D03*
X2119000D02*
D03*
X2151500D02*
D03*
Y2642500D02*
D03*
Y2637000D02*
D03*
X2156500Y2648000D02*
D03*
Y2642500D02*
D03*
X2119000Y2652500D02*
D03*
X2124500D02*
D03*
X2130000D02*
D03*
X2135500D02*
D03*
X2141000D02*
D03*
X2146500D02*
D03*
X2161500Y2637000D02*
D03*
Y2642500D02*
D03*
Y2648000D02*
D03*
X1468500Y2710500D02*
D03*
Y2705500D02*
D03*
X1474000Y2710500D02*
D03*
Y2705500D02*
D03*
X1479500Y2710500D02*
D03*
X1484500Y2705500D02*
D03*
X1479500D02*
D03*
X1494500Y2684500D02*
D03*
Y2690000D02*
D03*
D103*
X1919878Y2614500D02*
D03*
X1915378Y2617000D02*
D03*
X1585000Y2447000D02*
D03*
Y2450000D02*
D03*
X1589500Y2445500D02*
D03*
X1588000Y2447000D02*
D03*
X1586500Y2445500D02*
D03*
X1585000Y2453000D02*
D03*
X1591000Y2447000D02*
D03*
X1589500Y2448500D02*
D03*
X1592500Y2445500D02*
D03*
X1588000Y2450000D02*
D03*
X1586500Y2448500D02*
D03*
X1585000Y2456000D02*
D03*
X1591000Y2450000D02*
D03*
X1589500Y2451500D02*
D03*
X1592500Y2448500D02*
D03*
X1588000Y2453000D02*
D03*
X1586500Y2451500D02*
D03*
X1591000Y2453000D02*
D03*
X1589500Y2454500D02*
D03*
X1592500Y2451500D02*
D03*
X1588000Y2456000D02*
D03*
X1586500Y2454500D02*
D03*
X1583300Y2411300D02*
D03*
X1583400Y2413100D02*
D03*
X1583100Y2407400D02*
D03*
Y2409600D02*
D03*
X1584000Y2415000D02*
D03*
X1558000Y2447000D02*
D03*
X1556000D02*
D03*
X1554000D02*
D03*
X1560000Y2449000D02*
D03*
Y2451000D02*
D03*
Y2453000D02*
D03*
Y2455000D02*
D03*
Y2457000D02*
D03*
X1558000Y2449000D02*
D03*
Y2451000D02*
D03*
Y2453000D02*
D03*
Y2455000D02*
D03*
Y2457000D02*
D03*
X1556000Y2449000D02*
D03*
Y2451000D02*
D03*
Y2453000D02*
D03*
Y2455000D02*
D03*
Y2457000D02*
D03*
X1554000Y2449000D02*
D03*
Y2451000D02*
D03*
Y2453000D02*
D03*
Y2455000D02*
D03*
Y2457000D02*
D03*
Y2461000D02*
D03*
Y2459000D02*
D03*
X1556000D02*
D03*
X1558000D02*
D03*
X1556000Y2461000D02*
D03*
X1926878Y2636500D02*
D03*
X1935878Y2637000D02*
D03*
X1933378Y2644000D02*
D03*
Y2640000D02*
D03*
Y2634000D02*
D03*
X1930878Y2632000D02*
D03*
X1928378Y2634000D02*
D03*
X1930378Y2637221D02*
D03*
X1928378Y2640000D02*
D03*
X1930378Y2642000D02*
D03*
X1928378Y2644000D02*
D03*
X1571633Y2738912D02*
D03*
X1569633Y2736912D02*
D03*
X1569412Y2731912D02*
D03*
Y2727912D02*
D03*
X1566912Y2729912D02*
D03*
X1564912Y2727912D02*
D03*
X1562912Y2729912D02*
D03*
X1564912Y2731912D02*
D03*
X1562912Y2734412D02*
D03*
X1566912Y2738912D02*
D03*
Y2734912D02*
D03*
X1564912Y2736912D02*
D03*
X1562912Y2738912D02*
D03*
X1591500Y2464500D02*
D03*
X1599000Y2472000D02*
D03*
X1590000Y2466000D02*
D03*
X1581000Y2415000D02*
D03*
X1578000D02*
D03*
X1575000D02*
D03*
X1576500Y2413500D02*
D03*
X1575000Y2412000D02*
D03*
X1576500Y2410500D02*
D03*
X1575000Y2409000D02*
D03*
X1576500Y2407500D02*
D03*
X1591000Y2456000D02*
D03*
X1592500Y2454500D02*
D03*
X1997500D02*
D03*
Y2451500D02*
D03*
Y2448500D02*
D03*
X1996000Y2447000D02*
D03*
Y2450000D02*
D03*
Y2453000D02*
D03*
X1994500Y2454500D02*
D03*
Y2451500D02*
D03*
Y2448500D02*
D03*
X1993000Y2447000D02*
D03*
Y2450000D02*
D03*
Y2453000D02*
D03*
X1991500Y2454500D02*
D03*
Y2451500D02*
D03*
Y2448500D02*
D03*
X1990000Y2447000D02*
D03*
Y2450000D02*
D03*
Y2453000D02*
D03*
X1988500Y2454500D02*
D03*
Y2451500D02*
D03*
Y2448500D02*
D03*
X1987000Y2447000D02*
D03*
Y2450000D02*
D03*
Y2453000D02*
D03*
X1985500Y2454500D02*
D03*
Y2451500D02*
D03*
Y2448500D02*
D03*
X2001000Y2462500D02*
D03*
X1998000D02*
D03*
X1999500Y2464000D02*
D03*
X2001000Y2465500D02*
D03*
X2002500Y2467000D02*
D03*
X2001000Y2468500D02*
D03*
X1995000D02*
D03*
X1996500Y2470000D02*
D03*
X2002500D02*
D03*
X2001000Y2471500D02*
D03*
X1998000D02*
D03*
X1995000D02*
D03*
X1996500Y2473000D02*
D03*
X1999500D02*
D03*
X2002500D02*
D03*
X2001000Y2474500D02*
D03*
X1998000D02*
D03*
X1995000D02*
D03*
X1985500Y2484500D02*
D03*
X1988500D02*
D03*
X1991500D02*
D03*
X1994500D02*
D03*
X1993000Y2483000D02*
D03*
X1990000D02*
D03*
X1987000D02*
D03*
X1994500Y2487500D02*
D03*
X1993000Y2486000D02*
D03*
X1990000D02*
D03*
X1987000D02*
D03*
X1993000Y2489000D02*
D03*
X1994500Y2490500D02*
D03*
X1991500D02*
D03*
X1574412Y2748912D02*
D03*
X1576912D02*
D03*
X1579412D02*
D03*
X1581912D02*
D03*
X1584412D02*
D03*
X1586912D02*
D03*
X1589412D02*
D03*
Y2750912D02*
D03*
X1586912D02*
D03*
X1584412D02*
D03*
X1581912D02*
D03*
X1579412D02*
D03*
X1576912D02*
D03*
X1574412D02*
D03*
X1589412Y2753412D02*
D03*
X1586912D02*
D03*
X1584412D02*
D03*
X1581912D02*
D03*
X1579412D02*
D03*
X1576912D02*
D03*
X1574412D02*
D03*
X1589412Y2755912D02*
D03*
X1586912D02*
D03*
X1584412D02*
D03*
X1581912D02*
D03*
X1579412D02*
D03*
X1576912D02*
D03*
X1574412D02*
D03*
X1589412Y2758412D02*
D03*
X1586912D02*
D03*
X1584412D02*
D03*
X1581912D02*
D03*
X1579412D02*
D03*
X1576912D02*
D03*
X1574412D02*
D03*
X1589412Y2760912D02*
D03*
X1586912D02*
D03*
X1584412D02*
D03*
X1581912D02*
D03*
X1579412D02*
D03*
X1576912D02*
D03*
X1574412D02*
D03*
X1915378Y2614500D02*
D03*
X1922378Y2619500D02*
D03*
Y2617000D02*
D03*
Y2614500D02*
D03*
X1919878Y2619500D02*
D03*
Y2617000D02*
D03*
X1917378D02*
D03*
Y2614500D02*
D03*
X2040209Y2480697D02*
D03*
Y2478197D02*
D03*
Y2475697D02*
D03*
Y2473197D02*
D03*
Y2470697D02*
D03*
Y2468197D02*
D03*
X2057709Y2493197D02*
D03*
Y2490697D02*
D03*
Y2488197D02*
D03*
Y2485697D02*
D03*
Y2483197D02*
D03*
Y2480697D02*
D03*
Y2478197D02*
D03*
Y2475697D02*
D03*
Y2473197D02*
D03*
Y2470697D02*
D03*
Y2468197D02*
D03*
X2055209Y2493197D02*
D03*
Y2490697D02*
D03*
Y2488197D02*
D03*
Y2485697D02*
D03*
Y2483197D02*
D03*
Y2480697D02*
D03*
Y2478197D02*
D03*
Y2475697D02*
D03*
Y2473197D02*
D03*
Y2470697D02*
D03*
Y2468197D02*
D03*
X2052709Y2493197D02*
D03*
Y2490697D02*
D03*
Y2488197D02*
D03*
Y2485697D02*
D03*
Y2483197D02*
D03*
Y2480697D02*
D03*
Y2478197D02*
D03*
Y2475697D02*
D03*
Y2473197D02*
D03*
Y2470697D02*
D03*
Y2468197D02*
D03*
X2050209Y2493197D02*
D03*
Y2490697D02*
D03*
Y2488197D02*
D03*
Y2485697D02*
D03*
Y2483197D02*
D03*
Y2480697D02*
D03*
Y2478197D02*
D03*
Y2475697D02*
D03*
Y2473197D02*
D03*
Y2470697D02*
D03*
Y2468197D02*
D03*
X2047709Y2493197D02*
D03*
Y2490697D02*
D03*
Y2488197D02*
D03*
Y2485697D02*
D03*
Y2483197D02*
D03*
Y2480697D02*
D03*
Y2478197D02*
D03*
Y2475697D02*
D03*
Y2473197D02*
D03*
Y2470697D02*
D03*
Y2468197D02*
D03*
X2045209Y2493197D02*
D03*
Y2490697D02*
D03*
Y2488197D02*
D03*
Y2485697D02*
D03*
Y2483197D02*
D03*
Y2480697D02*
D03*
Y2478197D02*
D03*
Y2475697D02*
D03*
Y2473197D02*
D03*
Y2470697D02*
D03*
Y2468197D02*
D03*
X2042709Y2480697D02*
D03*
Y2478197D02*
D03*
Y2475697D02*
D03*
Y2473197D02*
D03*
Y2470697D02*
D03*
Y2468197D02*
D03*
X1972709Y2600500D02*
D03*
Y2598000D02*
D03*
Y2595500D02*
D03*
Y2593000D02*
D03*
Y2590500D02*
D03*
Y2588000D02*
D03*
X1990209Y2613000D02*
D03*
Y2610500D02*
D03*
Y2608000D02*
D03*
Y2605500D02*
D03*
Y2603000D02*
D03*
Y2600500D02*
D03*
Y2598000D02*
D03*
Y2595500D02*
D03*
Y2593000D02*
D03*
Y2590500D02*
D03*
Y2588000D02*
D03*
X1987709Y2613000D02*
D03*
Y2610500D02*
D03*
Y2608000D02*
D03*
Y2605500D02*
D03*
Y2603000D02*
D03*
Y2600500D02*
D03*
Y2598000D02*
D03*
Y2595500D02*
D03*
Y2593000D02*
D03*
Y2590500D02*
D03*
Y2588000D02*
D03*
X1985209Y2613000D02*
D03*
Y2610500D02*
D03*
Y2608000D02*
D03*
Y2605500D02*
D03*
Y2603000D02*
D03*
Y2600500D02*
D03*
Y2598000D02*
D03*
Y2595500D02*
D03*
Y2593000D02*
D03*
Y2590500D02*
D03*
Y2588000D02*
D03*
X1982709Y2613000D02*
D03*
Y2610500D02*
D03*
Y2608000D02*
D03*
Y2605500D02*
D03*
Y2603000D02*
D03*
Y2600500D02*
D03*
Y2598000D02*
D03*
Y2595500D02*
D03*
Y2593000D02*
D03*
Y2590500D02*
D03*
Y2588000D02*
D03*
X1980209Y2613000D02*
D03*
Y2610500D02*
D03*
Y2608000D02*
D03*
Y2605500D02*
D03*
Y2603000D02*
D03*
Y2600500D02*
D03*
Y2598000D02*
D03*
Y2595500D02*
D03*
Y2593000D02*
D03*
Y2590500D02*
D03*
Y2588000D02*
D03*
X1977709Y2608000D02*
D03*
Y2605500D02*
D03*
Y2603000D02*
D03*
Y2600500D02*
D03*
Y2598000D02*
D03*
Y2595500D02*
D03*
Y2593000D02*
D03*
Y2590500D02*
D03*
Y2588000D02*
D03*
X1975209Y2600500D02*
D03*
Y2598000D02*
D03*
Y2595500D02*
D03*
Y2593000D02*
D03*
Y2590500D02*
D03*
Y2588000D02*
D03*
X1972709Y2649500D02*
D03*
Y2647000D02*
D03*
Y2644500D02*
D03*
Y2642000D02*
D03*
Y2639500D02*
D03*
Y2637000D02*
D03*
X1990209Y2662000D02*
D03*
Y2659500D02*
D03*
Y2657000D02*
D03*
Y2654500D02*
D03*
Y2652000D02*
D03*
Y2649500D02*
D03*
Y2647000D02*
D03*
Y2644500D02*
D03*
Y2642000D02*
D03*
Y2639500D02*
D03*
Y2637000D02*
D03*
X1987709Y2662000D02*
D03*
Y2659500D02*
D03*
Y2657000D02*
D03*
Y2654500D02*
D03*
Y2652000D02*
D03*
Y2649500D02*
D03*
Y2647000D02*
D03*
Y2644500D02*
D03*
Y2642000D02*
D03*
Y2639500D02*
D03*
Y2637000D02*
D03*
X1985209Y2662000D02*
D03*
Y2659500D02*
D03*
Y2657000D02*
D03*
Y2654500D02*
D03*
Y2652000D02*
D03*
Y2649500D02*
D03*
Y2647000D02*
D03*
Y2644500D02*
D03*
Y2642000D02*
D03*
Y2639500D02*
D03*
Y2637000D02*
D03*
X1982709Y2662000D02*
D03*
Y2659500D02*
D03*
Y2657000D02*
D03*
Y2654500D02*
D03*
Y2652000D02*
D03*
Y2649500D02*
D03*
Y2647000D02*
D03*
Y2644500D02*
D03*
Y2642000D02*
D03*
Y2639500D02*
D03*
Y2637000D02*
D03*
X1980209Y2662000D02*
D03*
Y2659500D02*
D03*
Y2657000D02*
D03*
Y2654500D02*
D03*
Y2652000D02*
D03*
Y2649500D02*
D03*
Y2647000D02*
D03*
Y2644500D02*
D03*
Y2642000D02*
D03*
Y2639500D02*
D03*
Y2637000D02*
D03*
X1977709Y2662000D02*
D03*
Y2659500D02*
D03*
Y2657000D02*
D03*
Y2654500D02*
D03*
Y2652000D02*
D03*
Y2649500D02*
D03*
Y2647000D02*
D03*
Y2644500D02*
D03*
Y2642000D02*
D03*
Y2639500D02*
D03*
Y2637000D02*
D03*
X1975209Y2649500D02*
D03*
Y2647000D02*
D03*
Y2644500D02*
D03*
Y2642000D02*
D03*
Y2639500D02*
D03*
Y2637000D02*
D03*
X1524291Y2771303D02*
D03*
Y2773803D02*
D03*
Y2776303D02*
D03*
Y2778803D02*
D03*
Y2781303D02*
D03*
Y2783803D02*
D03*
X1506791Y2758803D02*
D03*
Y2761303D02*
D03*
Y2763803D02*
D03*
Y2766303D02*
D03*
Y2768803D02*
D03*
Y2771303D02*
D03*
Y2773803D02*
D03*
Y2776303D02*
D03*
Y2778803D02*
D03*
Y2781303D02*
D03*
Y2783803D02*
D03*
X1509291Y2758803D02*
D03*
Y2761303D02*
D03*
Y2763803D02*
D03*
Y2766303D02*
D03*
Y2768803D02*
D03*
Y2771303D02*
D03*
Y2773803D02*
D03*
Y2776303D02*
D03*
Y2778803D02*
D03*
Y2781303D02*
D03*
Y2783803D02*
D03*
X1511791Y2758803D02*
D03*
Y2761303D02*
D03*
Y2763803D02*
D03*
Y2766303D02*
D03*
Y2768803D02*
D03*
Y2771303D02*
D03*
Y2773803D02*
D03*
Y2776303D02*
D03*
Y2778803D02*
D03*
Y2781303D02*
D03*
Y2783803D02*
D03*
X1514291Y2758803D02*
D03*
Y2761303D02*
D03*
Y2763803D02*
D03*
Y2766303D02*
D03*
Y2768803D02*
D03*
Y2771303D02*
D03*
Y2773803D02*
D03*
Y2776303D02*
D03*
Y2778803D02*
D03*
Y2781303D02*
D03*
Y2783803D02*
D03*
X1516791Y2758803D02*
D03*
Y2761303D02*
D03*
Y2763803D02*
D03*
Y2766303D02*
D03*
Y2768803D02*
D03*
Y2771303D02*
D03*
Y2773803D02*
D03*
Y2776303D02*
D03*
Y2778803D02*
D03*
Y2781303D02*
D03*
Y2783803D02*
D03*
X1519291Y2758803D02*
D03*
Y2761303D02*
D03*
Y2763803D02*
D03*
Y2766303D02*
D03*
Y2768803D02*
D03*
Y2771303D02*
D03*
Y2773803D02*
D03*
Y2776303D02*
D03*
Y2778803D02*
D03*
Y2781303D02*
D03*
Y2783803D02*
D03*
X1521791Y2771303D02*
D03*
Y2773803D02*
D03*
Y2776303D02*
D03*
Y2778803D02*
D03*
Y2781303D02*
D03*
Y2783803D02*
D03*
X1547402Y2439303D02*
D03*
Y2441803D02*
D03*
Y2444303D02*
D03*
Y2446803D02*
D03*
Y2449303D02*
D03*
Y2451803D02*
D03*
X1529902Y2426803D02*
D03*
Y2429303D02*
D03*
Y2431803D02*
D03*
Y2434303D02*
D03*
Y2436803D02*
D03*
Y2439303D02*
D03*
Y2441803D02*
D03*
Y2444303D02*
D03*
Y2446803D02*
D03*
Y2449303D02*
D03*
Y2451803D02*
D03*
X1532402Y2426803D02*
D03*
Y2429303D02*
D03*
Y2431803D02*
D03*
Y2434303D02*
D03*
Y2436803D02*
D03*
Y2439303D02*
D03*
Y2441803D02*
D03*
Y2444303D02*
D03*
Y2446803D02*
D03*
Y2449303D02*
D03*
Y2451803D02*
D03*
X1534902Y2426803D02*
D03*
Y2429303D02*
D03*
Y2431803D02*
D03*
Y2434303D02*
D03*
Y2436803D02*
D03*
Y2439303D02*
D03*
Y2441803D02*
D03*
Y2444303D02*
D03*
Y2446803D02*
D03*
Y2449303D02*
D03*
Y2451803D02*
D03*
X1537402Y2426803D02*
D03*
Y2429303D02*
D03*
Y2431803D02*
D03*
Y2434303D02*
D03*
Y2436803D02*
D03*
Y2439303D02*
D03*
Y2441803D02*
D03*
Y2444303D02*
D03*
Y2446803D02*
D03*
Y2449303D02*
D03*
Y2451803D02*
D03*
X1539902Y2426803D02*
D03*
Y2429303D02*
D03*
Y2431803D02*
D03*
Y2434303D02*
D03*
Y2436803D02*
D03*
Y2439303D02*
D03*
Y2441803D02*
D03*
Y2444303D02*
D03*
Y2446803D02*
D03*
Y2449303D02*
D03*
Y2451803D02*
D03*
X1542402Y2426803D02*
D03*
Y2429303D02*
D03*
Y2431803D02*
D03*
Y2434303D02*
D03*
Y2436803D02*
D03*
Y2439303D02*
D03*
Y2441803D02*
D03*
Y2444303D02*
D03*
Y2446803D02*
D03*
Y2449303D02*
D03*
Y2451803D02*
D03*
X1544902Y2439303D02*
D03*
Y2441803D02*
D03*
Y2444303D02*
D03*
Y2446803D02*
D03*
Y2449303D02*
D03*
Y2451803D02*
D03*
X1547402Y2486591D02*
D03*
Y2489091D02*
D03*
Y2491591D02*
D03*
Y2494091D02*
D03*
Y2496591D02*
D03*
Y2499091D02*
D03*
X1529902Y2474091D02*
D03*
Y2476591D02*
D03*
Y2479091D02*
D03*
Y2481591D02*
D03*
Y2484091D02*
D03*
Y2486591D02*
D03*
Y2489091D02*
D03*
Y2491591D02*
D03*
Y2494091D02*
D03*
Y2496591D02*
D03*
Y2499091D02*
D03*
X1532402Y2474091D02*
D03*
Y2476591D02*
D03*
Y2479091D02*
D03*
Y2481591D02*
D03*
Y2484091D02*
D03*
Y2486591D02*
D03*
Y2489091D02*
D03*
Y2491591D02*
D03*
Y2494091D02*
D03*
Y2496591D02*
D03*
Y2499091D02*
D03*
X1534902Y2474091D02*
D03*
Y2476591D02*
D03*
Y2479091D02*
D03*
Y2481591D02*
D03*
Y2484091D02*
D03*
Y2486591D02*
D03*
Y2489091D02*
D03*
Y2491591D02*
D03*
Y2494091D02*
D03*
Y2496591D02*
D03*
Y2499091D02*
D03*
X1537402Y2474091D02*
D03*
Y2476591D02*
D03*
Y2479091D02*
D03*
Y2481591D02*
D03*
Y2484091D02*
D03*
Y2486591D02*
D03*
Y2489091D02*
D03*
Y2491591D02*
D03*
Y2494091D02*
D03*
Y2496591D02*
D03*
Y2499091D02*
D03*
X1539902Y2474091D02*
D03*
Y2476591D02*
D03*
Y2479091D02*
D03*
Y2481591D02*
D03*
Y2484091D02*
D03*
Y2486591D02*
D03*
Y2489091D02*
D03*
Y2491591D02*
D03*
Y2494091D02*
D03*
Y2496591D02*
D03*
Y2499091D02*
D03*
X1542402Y2474091D02*
D03*
Y2476591D02*
D03*
Y2479091D02*
D03*
Y2481591D02*
D03*
Y2484091D02*
D03*
Y2486591D02*
D03*
Y2489091D02*
D03*
Y2491591D02*
D03*
Y2494091D02*
D03*
Y2496591D02*
D03*
Y2499091D02*
D03*
X1544902Y2486591D02*
D03*
Y2489091D02*
D03*
Y2491591D02*
D03*
Y2494091D02*
D03*
Y2496591D02*
D03*
Y2499091D02*
D03*
X1579500Y2412000D02*
D03*
X1579000Y2409500D02*
D03*
X1593000Y2466000D02*
D03*
X1594500Y2464500D02*
D03*
X1596000Y2466000D02*
D03*
X1597500Y2464500D02*
D03*
X1600000D02*
D03*
X1590000Y2469000D02*
D03*
X1591500Y2467500D02*
D03*
X1590000Y2472000D02*
D03*
X1594500Y2467500D02*
D03*
X1591500Y2473500D02*
D03*
Y2470500D02*
D03*
X1593000Y2469000D02*
D03*
X1601500Y2468000D02*
D03*
X1547000Y2432000D02*
D03*
X1548500D02*
D03*
X1550000D02*
D03*
X1581200Y2409500D02*
D03*
X1581400Y2411300D02*
D03*
X1579000Y2407600D02*
D03*
X1581100Y2407400D02*
D03*
X1581400Y2413200D02*
D03*
X1596200Y2472800D02*
D03*
X1531500Y2744500D02*
D03*
Y2742000D02*
D03*
Y2739500D02*
D03*
Y2737000D02*
D03*
Y2734500D02*
D03*
Y2732000D02*
D03*
X1534000Y2744500D02*
D03*
Y2742000D02*
D03*
Y2739500D02*
D03*
Y2737000D02*
D03*
Y2734500D02*
D03*
Y2732000D02*
D03*
X1536500Y2744500D02*
D03*
Y2742000D02*
D03*
Y2739500D02*
D03*
Y2737000D02*
D03*
Y2734500D02*
D03*
Y2732000D02*
D03*
X2029500Y2474000D02*
D03*
X2031500Y2472000D02*
D03*
X2029500D02*
D03*
X2027500D02*
D03*
Y2470000D02*
D03*
Y2468000D02*
D03*
Y2466000D02*
D03*
Y2464000D02*
D03*
X2029500Y2470000D02*
D03*
Y2468000D02*
D03*
Y2466000D02*
D03*
Y2464000D02*
D03*
Y2462000D02*
D03*
X2031500Y2470000D02*
D03*
Y2468000D02*
D03*
Y2466000D02*
D03*
Y2464000D02*
D03*
Y2462000D02*
D03*
X2033500Y2470000D02*
D03*
Y2468000D02*
D03*
Y2466000D02*
D03*
Y2464000D02*
D03*
Y2462000D02*
D03*
X2029500Y2460000D02*
D03*
X2031500D02*
D03*
X2033500Y2472000D02*
D03*
X2031500Y2474000D02*
D03*
X1999500Y2470000D02*
D03*
X1997500Y2468500D02*
D03*
X1999500Y2467000D02*
D03*
X1998000Y2465500D02*
D03*
X1996500Y2464000D02*
D03*
X2002500D02*
D03*
X1995000Y2462500D02*
D03*
X2003500D02*
D03*
X1996500Y2467000D02*
D03*
X1995000Y2465500D02*
D03*
X1985500Y2490500D02*
D03*
X1988500D02*
D03*
X1990000Y2488500D02*
D03*
X1978000Y2610500D02*
D03*
Y2613000D02*
D03*
X2040209Y2433500D02*
D03*
Y2431000D02*
D03*
Y2428500D02*
D03*
Y2426000D02*
D03*
Y2423500D02*
D03*
Y2421000D02*
D03*
X2057709Y2446000D02*
D03*
Y2443500D02*
D03*
Y2441000D02*
D03*
Y2438500D02*
D03*
Y2436000D02*
D03*
Y2433500D02*
D03*
Y2431000D02*
D03*
Y2428500D02*
D03*
Y2426000D02*
D03*
Y2423500D02*
D03*
Y2421000D02*
D03*
X2055209Y2446000D02*
D03*
Y2443500D02*
D03*
Y2441000D02*
D03*
Y2438500D02*
D03*
Y2436000D02*
D03*
Y2433500D02*
D03*
Y2431000D02*
D03*
Y2428500D02*
D03*
Y2426000D02*
D03*
Y2423500D02*
D03*
Y2421000D02*
D03*
X2052709Y2446000D02*
D03*
Y2443500D02*
D03*
Y2441000D02*
D03*
Y2438500D02*
D03*
Y2436000D02*
D03*
Y2433500D02*
D03*
Y2431000D02*
D03*
Y2428500D02*
D03*
Y2426000D02*
D03*
Y2423500D02*
D03*
Y2421000D02*
D03*
X2050209Y2446000D02*
D03*
Y2443500D02*
D03*
Y2441000D02*
D03*
Y2438500D02*
D03*
Y2436000D02*
D03*
Y2433500D02*
D03*
Y2431000D02*
D03*
Y2428500D02*
D03*
Y2426000D02*
D03*
Y2423500D02*
D03*
Y2421000D02*
D03*
X2047709Y2446000D02*
D03*
Y2443500D02*
D03*
Y2441000D02*
D03*
Y2438500D02*
D03*
Y2436000D02*
D03*
Y2433500D02*
D03*
Y2431000D02*
D03*
Y2428500D02*
D03*
Y2426000D02*
D03*
Y2423500D02*
D03*
Y2421000D02*
D03*
X2045209Y2446000D02*
D03*
Y2433500D02*
D03*
Y2431000D02*
D03*
Y2428500D02*
D03*
Y2426000D02*
D03*
Y2423500D02*
D03*
Y2421000D02*
D03*
X2042709Y2433500D02*
D03*
Y2431000D02*
D03*
Y2428500D02*
D03*
Y2426000D02*
D03*
Y2423500D02*
D03*
Y2421000D02*
D03*
X2045209Y2443500D02*
D03*
Y2438500D02*
D03*
Y2436000D02*
D03*
Y2441000D02*
D03*
X1966500Y2632000D02*
D03*
X1964000D02*
D03*
X1961500D02*
D03*
X1959000D02*
D03*
X1964000Y2627000D02*
D03*
X1966500Y2634500D02*
D03*
X1964000D02*
D03*
X1961500D02*
D03*
X1959000D02*
D03*
X1966500Y2627000D02*
D03*
Y2637000D02*
D03*
X1964000D02*
D03*
X1961500D02*
D03*
X1959000D02*
D03*
X1966500Y2629500D02*
D03*
Y2639500D02*
D03*
X1964000D02*
D03*
X1961500D02*
D03*
X1959000D02*
D03*
X1964000Y2629500D02*
D03*
X1966500Y2642000D02*
D03*
X1961500D02*
D03*
X1966500Y2644500D02*
D03*
X1961500Y2629500D02*
D03*
X1964000Y2642000D02*
D03*
X1524402Y2719303D02*
D03*
Y2721803D02*
D03*
Y2724303D02*
D03*
Y2726803D02*
D03*
Y2729303D02*
D03*
Y2731803D02*
D03*
X1506902Y2706803D02*
D03*
Y2709303D02*
D03*
Y2711803D02*
D03*
Y2714303D02*
D03*
Y2716803D02*
D03*
Y2719303D02*
D03*
Y2721803D02*
D03*
Y2724303D02*
D03*
Y2726803D02*
D03*
Y2729303D02*
D03*
Y2731803D02*
D03*
X1509402Y2706803D02*
D03*
Y2709303D02*
D03*
Y2711803D02*
D03*
Y2714303D02*
D03*
Y2716803D02*
D03*
Y2719303D02*
D03*
Y2721803D02*
D03*
Y2724303D02*
D03*
Y2726803D02*
D03*
Y2729303D02*
D03*
Y2731803D02*
D03*
X1511902Y2706803D02*
D03*
Y2709303D02*
D03*
Y2711803D02*
D03*
Y2714303D02*
D03*
Y2716803D02*
D03*
Y2719303D02*
D03*
Y2721803D02*
D03*
Y2724303D02*
D03*
Y2726803D02*
D03*
Y2729303D02*
D03*
Y2731803D02*
D03*
X1514402Y2706803D02*
D03*
Y2709303D02*
D03*
Y2711803D02*
D03*
Y2714303D02*
D03*
Y2716803D02*
D03*
Y2719303D02*
D03*
Y2721803D02*
D03*
Y2724303D02*
D03*
Y2726803D02*
D03*
Y2729303D02*
D03*
Y2731803D02*
D03*
X1516902Y2706803D02*
D03*
Y2709303D02*
D03*
Y2711803D02*
D03*
Y2714303D02*
D03*
Y2716803D02*
D03*
Y2719303D02*
D03*
Y2721803D02*
D03*
Y2724303D02*
D03*
Y2726803D02*
D03*
Y2729303D02*
D03*
Y2731803D02*
D03*
X1519402Y2706803D02*
D03*
Y2709303D02*
D03*
Y2711803D02*
D03*
Y2714303D02*
D03*
Y2716803D02*
D03*
Y2719303D02*
D03*
Y2721803D02*
D03*
Y2724303D02*
D03*
Y2726803D02*
D03*
Y2729303D02*
D03*
Y2731803D02*
D03*
X1521902Y2719303D02*
D03*
Y2721803D02*
D03*
Y2724303D02*
D03*
Y2726803D02*
D03*
Y2729303D02*
D03*
Y2731803D02*
D03*
M02*
