G04 Layer_Color=128*
%FSLAX25Y25*%
%MOIN*%
G70*
G01*
G75*
%ADD10R,0.05118X0.05905*%
%ADD12R,0.05905X0.05118*%
%ADD14R,0.04331X0.05512*%
%ADD21R,0.06693X0.04331*%
%ADD23R,0.06299X0.07874*%
%ADD26R,0.12992X0.05512*%
%ADD27R,0.15748X0.07874*%
%ADD33R,0.06693X0.05118*%
%ADD34R,0.05118X0.06693*%
%ADD37R,0.04331X0.06693*%
%ADD44R,0.06102X0.02362*%
%ADD46R,0.07874X0.11811*%
%ADD47R,0.11811X0.07874*%
%ADD51R,0.07874X0.15748*%
%ADD53R,0.21654X0.11811*%
%ADD108R,0.02756X0.03543*%
%ADD109R,0.03543X0.02756*%
%ADD110R,0.19685X0.23622*%
%ADD111R,0.23622X0.19685*%
%ADD112R,0.11614X0.06614*%
%ADD113R,0.11614X0.30000*%
%ADD114R,0.14000X0.96500*%
%ADD115R,0.05800X0.26100*%
%ADD116R,0.05300X0.26600*%
%ADD117R,0.05500X0.23500*%
%ADD118R,0.06614X0.11614*%
%ADD119R,0.30000X0.11614*%
%ADD120R,0.06000X0.26000*%
%ADD121R,0.06000X0.25000*%
%ADD122R,0.05512X0.12992*%
D10*
X1847760Y2449000D02*
D03*
X1855240D02*
D03*
X1864260Y2357500D02*
D03*
X1871740D02*
D03*
X1620020Y2274000D02*
D03*
X1627500D02*
D03*
X1842260Y2532500D02*
D03*
X1849740D02*
D03*
X1907260Y2580500D02*
D03*
X1914740D02*
D03*
X1922260D02*
D03*
X1929740D02*
D03*
X1929760Y2572000D02*
D03*
X1937240D02*
D03*
X1937760Y2588500D02*
D03*
X1945240D02*
D03*
X1804760Y2481000D02*
D03*
X1812240D02*
D03*
X1968260Y2544000D02*
D03*
X1975740D02*
D03*
X1690240Y2633500D02*
D03*
X1682760D02*
D03*
D12*
X1843000Y2572240D02*
D03*
Y2564760D02*
D03*
X1851000Y2590740D02*
D03*
Y2583260D02*
D03*
X1959500Y2332260D02*
D03*
Y2339740D02*
D03*
X1790000Y2466240D02*
D03*
Y2458760D02*
D03*
X1565000Y2473760D02*
D03*
Y2481240D02*
D03*
X1564500Y2442240D02*
D03*
Y2434760D02*
D03*
X1533000Y2758260D02*
D03*
Y2765740D02*
D03*
X1533500Y2725240D02*
D03*
Y2717760D02*
D03*
X2023000Y2446740D02*
D03*
Y2439260D02*
D03*
X2023500Y2477260D02*
D03*
Y2484740D02*
D03*
X1962500Y2613240D02*
D03*
Y2605760D02*
D03*
X1963000Y2646260D02*
D03*
Y2653740D02*
D03*
D14*
X1683047Y2652500D02*
D03*
X1688953D02*
D03*
D21*
X1851500Y2573815D02*
D03*
Y2563185D02*
D03*
X1842500Y2591815D02*
D03*
Y2581185D02*
D03*
D23*
X1664661Y2276500D02*
D03*
X1647339D02*
D03*
X1664661Y2397000D02*
D03*
X1647339D02*
D03*
X1664661Y2383611D02*
D03*
X1647339D02*
D03*
X1664661Y2370222D02*
D03*
X1647339D02*
D03*
X1664661Y2356833D02*
D03*
X1647339D02*
D03*
X1664661Y2343444D02*
D03*
X1647339D02*
D03*
X1664661Y2330056D02*
D03*
X1647339D02*
D03*
X1664661Y2316667D02*
D03*
X1647339D02*
D03*
X1664661Y2303278D02*
D03*
X1647339D02*
D03*
X1664661Y2289889D02*
D03*
X1647339D02*
D03*
D26*
X1779500Y2612480D02*
D03*
Y2597520D02*
D03*
X1437400Y2525980D02*
D03*
Y2511020D02*
D03*
X1422400Y2525980D02*
D03*
Y2511020D02*
D03*
X2176500Y2507480D02*
D03*
Y2492520D02*
D03*
X2192000Y2507980D02*
D03*
Y2493020D02*
D03*
X1750500Y2653520D02*
D03*
Y2668480D02*
D03*
D27*
X1369500Y2799000D02*
D03*
Y2779000D02*
D03*
X1366500Y2717000D02*
D03*
X1400000D02*
D03*
X1399200Y2508000D02*
D03*
X1365700D02*
D03*
X2009500Y2760000D02*
D03*
Y2780000D02*
D03*
D33*
X1658000Y2236000D02*
D03*
Y2244000D02*
D03*
X1907878Y2621500D02*
D03*
Y2629500D02*
D03*
X1619000Y2479500D02*
D03*
Y2471500D02*
D03*
X2098000Y2266000D02*
D03*
Y2258000D02*
D03*
Y2239500D02*
D03*
Y2247500D02*
D03*
D34*
X1590912Y2710912D02*
D03*
X1582912D02*
D03*
X1633500Y2259500D02*
D03*
X1641500D02*
D03*
X1977000Y2489000D02*
D03*
X1969000D02*
D03*
D37*
X1841685Y2553500D02*
D03*
X1852315D02*
D03*
X1840685Y2543000D02*
D03*
X1851315D02*
D03*
D44*
X1641075Y2232543D02*
D03*
Y2237563D02*
D03*
Y2242583D02*
D03*
Y2247602D02*
D03*
X1619815D02*
D03*
Y2242583D02*
D03*
Y2237563D02*
D03*
Y2232543D02*
D03*
X2116425Y2259957D02*
D03*
Y2254937D02*
D03*
Y2249917D02*
D03*
Y2244898D02*
D03*
X2137685D02*
D03*
Y2249917D02*
D03*
Y2254937D02*
D03*
Y2259957D02*
D03*
D46*
X1406500Y2328402D02*
D03*
Y2288902D02*
D03*
X1990500Y2716598D02*
D03*
Y2756098D02*
D03*
X2067000Y2320402D02*
D03*
Y2280902D02*
D03*
D47*
X1461402Y2822500D02*
D03*
X1421902D02*
D03*
D51*
X2135500Y2755000D02*
D03*
Y2788500D02*
D03*
X2147500Y2550000D02*
D03*
Y2516500D02*
D03*
X1450000Y2304000D02*
D03*
X1430000D02*
D03*
D53*
X1369500Y2604500D02*
D03*
Y2626500D02*
D03*
X2147500Y2473500D02*
D03*
Y2495500D02*
D03*
D108*
X1900925Y2637500D02*
D03*
X1906831D02*
D03*
X1625953Y2463500D02*
D03*
X1620047D02*
D03*
X1956047Y2489000D02*
D03*
X1961953D02*
D03*
D109*
X1575500Y2706547D02*
D03*
Y2712453D02*
D03*
D110*
X2062402Y2710500D02*
D03*
X2195902Y2711500D02*
D03*
D111*
X1418000Y2740098D02*
D03*
X1419000Y2606598D02*
D03*
X1422000Y2552098D02*
D03*
X1423000Y2418598D02*
D03*
X2185992Y2417980D02*
D03*
X2185000Y2519244D02*
D03*
D112*
X1483702Y2512109D02*
D03*
X1513209D02*
D03*
X2104000Y2388000D02*
D03*
X2074492D02*
D03*
X2122008Y2609791D02*
D03*
X2092500D02*
D03*
D113*
X1483800Y2491400D02*
D03*
X1513308D02*
D03*
X2103902Y2408709D02*
D03*
X2074394D02*
D03*
X2121909Y2630500D02*
D03*
X2092402D02*
D03*
D114*
X1536000Y2462500D02*
D03*
X1512500Y2745500D02*
D03*
X2051500Y2457500D02*
D03*
X1984000Y2625500D02*
D03*
D115*
X1536000Y2469000D02*
D03*
D116*
X1545500Y2498000D02*
D03*
X1546000Y2451000D02*
D03*
D117*
X1522000Y2782000D02*
D03*
Y2729500D02*
D03*
D118*
X1443791Y2694402D02*
D03*
Y2723909D02*
D03*
D119*
X1464500Y2694500D02*
D03*
Y2724008D02*
D03*
D120*
X2042000Y2422500D02*
D03*
X1974000Y2590000D02*
D03*
D121*
X2041500Y2470000D02*
D03*
X1974000Y2639000D02*
D03*
D122*
X2126520Y2716000D02*
D03*
X2141480D02*
D03*
X2126520Y2699000D02*
D03*
X2141480D02*
D03*
M02*
