G04 Layer_Color=255*
%FSLAX25Y25*%
%MOIN*%
G70*
G01*
G75*
%ADD10R,0.05118X0.05905*%
%ADD12R,0.05905X0.05118*%
%ADD13R,0.05905X0.05905*%
%ADD14R,0.04331X0.05512*%
%ADD16R,0.05905X0.05905*%
%ADD21R,0.06693X0.04331*%
%ADD23R,0.06299X0.07874*%
%ADD26R,0.12992X0.05512*%
%ADD27R,0.15748X0.07874*%
%ADD33R,0.06693X0.05118*%
%ADD34R,0.05118X0.06693*%
%ADD37R,0.04331X0.06693*%
%ADD44R,0.06102X0.02362*%
%ADD46R,0.07874X0.11811*%
%ADD47R,0.11811X0.07874*%
%ADD51R,0.07874X0.15748*%
%ADD53R,0.21654X0.11811*%
%ADD77C,0.05905*%
%ADD78C,0.07874*%
%ADD79O,0.03937X0.07874*%
%ADD80O,0.03937X0.07874*%
%ADD81O,0.07874X0.03937*%
%ADD82O,0.07874X0.03937*%
%ADD83C,0.06693*%
%ADD84C,0.04724*%
%ADD85C,0.08000*%
%ADD86C,0.12000*%
%ADD87R,0.07874X0.07874*%
%ADD88R,0.10827X0.10827*%
%ADD89C,0.10827*%
%ADD90R,0.12000X0.12000*%
%ADD91R,0.13780X0.13780*%
%ADD92C,0.11811*%
%ADD93R,0.10827X0.10827*%
%ADD94C,0.19685*%
%ADD95R,0.07874X0.07874*%
%ADD96R,0.23622X0.23622*%
%ADD97C,0.15748*%
%ADD98O,0.05905X0.07874*%
%ADD99R,0.05905X0.07874*%
%ADD100C,0.23622*%
%ADD108R,0.02756X0.03543*%
%ADD109R,0.03543X0.02756*%
%ADD110R,0.19685X0.23622*%
%ADD111R,0.23622X0.19685*%
%ADD112R,0.11614X0.06614*%
%ADD113R,0.11614X0.30000*%
%ADD114R,0.14000X0.96500*%
%ADD115R,0.05800X0.26100*%
%ADD116R,0.05300X0.26600*%
%ADD117R,0.05500X0.23500*%
%ADD118R,0.06614X0.11614*%
%ADD119R,0.30000X0.11614*%
%ADD120R,0.06000X0.26000*%
%ADD121R,0.06000X0.25000*%
%ADD122R,0.05512X0.12992*%
D10*
X1847760Y2449000D02*
D03*
X1855240D02*
D03*
X1864260Y2357500D02*
D03*
X1871740D02*
D03*
X1620020Y2274000D02*
D03*
X1627500D02*
D03*
X1842260Y2532500D02*
D03*
X1849740D02*
D03*
X1907260Y2580500D02*
D03*
X1914740D02*
D03*
X1922260D02*
D03*
X1929740D02*
D03*
X1929760Y2572000D02*
D03*
X1937240D02*
D03*
X1937760Y2588500D02*
D03*
X1945240D02*
D03*
X1804760Y2481000D02*
D03*
X1812240D02*
D03*
X1968260Y2544000D02*
D03*
X1975740D02*
D03*
X1690240Y2633500D02*
D03*
X1682760D02*
D03*
D12*
X1843000Y2572240D02*
D03*
Y2564760D02*
D03*
X1851000Y2590740D02*
D03*
Y2583260D02*
D03*
X1959500Y2332260D02*
D03*
Y2339740D02*
D03*
X1790000Y2466240D02*
D03*
Y2458760D02*
D03*
X1565000Y2473760D02*
D03*
Y2481240D02*
D03*
X1564500Y2442240D02*
D03*
Y2434760D02*
D03*
X1533000Y2758260D02*
D03*
Y2765740D02*
D03*
X1533500Y2725240D02*
D03*
Y2717760D02*
D03*
X2023000Y2446740D02*
D03*
Y2439260D02*
D03*
X2023500Y2477260D02*
D03*
Y2484740D02*
D03*
X1962500Y2613240D02*
D03*
Y2605760D02*
D03*
X1963000Y2646260D02*
D03*
Y2653740D02*
D03*
D13*
X1771000Y2278500D02*
D03*
X2071500Y2824000D02*
D03*
X1771000Y2494500D02*
D03*
X1830079Y2592528D02*
D03*
X1810500Y2088894D02*
D03*
D14*
X1683047Y2652500D02*
D03*
X1688953D02*
D03*
D16*
X1625000Y2384000D02*
D03*
X1615000D02*
D03*
D21*
X1851500Y2573815D02*
D03*
Y2563185D02*
D03*
X1842500Y2591815D02*
D03*
Y2581185D02*
D03*
D23*
X1664661Y2276500D02*
D03*
X1647339D02*
D03*
X1664661Y2397000D02*
D03*
X1647339D02*
D03*
X1664661Y2383611D02*
D03*
X1647339D02*
D03*
X1664661Y2370222D02*
D03*
X1647339D02*
D03*
X1664661Y2356833D02*
D03*
X1647339D02*
D03*
X1664661Y2343444D02*
D03*
X1647339D02*
D03*
X1664661Y2330056D02*
D03*
X1647339D02*
D03*
X1664661Y2316667D02*
D03*
X1647339D02*
D03*
X1664661Y2303278D02*
D03*
X1647339D02*
D03*
X1664661Y2289889D02*
D03*
X1647339D02*
D03*
D26*
X1779500Y2612480D02*
D03*
Y2597520D02*
D03*
X1437400Y2525980D02*
D03*
Y2511020D02*
D03*
X1422400Y2525980D02*
D03*
Y2511020D02*
D03*
X2176500Y2507480D02*
D03*
Y2492520D02*
D03*
X2192000Y2507980D02*
D03*
Y2493020D02*
D03*
X1750500Y2653520D02*
D03*
Y2668480D02*
D03*
D27*
X1369500Y2799000D02*
D03*
Y2779000D02*
D03*
X1366500Y2717000D02*
D03*
X1400000D02*
D03*
X1399200Y2508000D02*
D03*
X1365700D02*
D03*
X2009500Y2760000D02*
D03*
Y2780000D02*
D03*
D33*
X1658000Y2236000D02*
D03*
Y2244000D02*
D03*
X1907878Y2621500D02*
D03*
Y2629500D02*
D03*
X1619000Y2479500D02*
D03*
Y2471500D02*
D03*
X2098000Y2266000D02*
D03*
Y2258000D02*
D03*
Y2239500D02*
D03*
Y2247500D02*
D03*
D34*
X1590912Y2710912D02*
D03*
X1582912D02*
D03*
X1633500Y2259500D02*
D03*
X1641500D02*
D03*
X1977000Y2489000D02*
D03*
X1969000D02*
D03*
D37*
X1841685Y2553500D02*
D03*
X1852315D02*
D03*
X1840685Y2543000D02*
D03*
X1851315D02*
D03*
D44*
X1641075Y2232543D02*
D03*
Y2237563D02*
D03*
Y2242583D02*
D03*
Y2247602D02*
D03*
X1619815D02*
D03*
Y2242583D02*
D03*
Y2237563D02*
D03*
Y2232543D02*
D03*
X2116425Y2259957D02*
D03*
Y2254937D02*
D03*
Y2249917D02*
D03*
Y2244898D02*
D03*
X2137685D02*
D03*
Y2249917D02*
D03*
Y2254937D02*
D03*
Y2259957D02*
D03*
D46*
X1406500Y2328402D02*
D03*
Y2288902D02*
D03*
X1990500Y2716598D02*
D03*
Y2756098D02*
D03*
X2067000Y2320402D02*
D03*
Y2280902D02*
D03*
D47*
X1461402Y2822500D02*
D03*
X1421902D02*
D03*
D51*
X2135500Y2755000D02*
D03*
Y2788500D02*
D03*
X2147500Y2550000D02*
D03*
Y2516500D02*
D03*
X1450000Y2304000D02*
D03*
X1430000D02*
D03*
D53*
X1369500Y2604500D02*
D03*
Y2626500D02*
D03*
X2147500Y2473500D02*
D03*
Y2495500D02*
D03*
D77*
X2013000Y2534500D02*
D03*
X1681500Y2573500D02*
D03*
X1930500Y2540500D02*
D03*
X1775000Y2388000D02*
D03*
X1804500Y2521500D02*
D03*
X1943500Y2513500D02*
D03*
X1684500Y2593500D02*
D03*
X2027500Y2523500D02*
D03*
X1733000Y2542000D02*
D03*
X1947500Y2353500D02*
D03*
X1991500Y2346000D02*
D03*
X1664500Y2679500D02*
D03*
X1990500Y2283000D02*
D03*
X1989500Y2338000D02*
D03*
X1858000Y2605500D02*
D03*
X1840000Y2369000D02*
D03*
X1906000Y2569000D02*
D03*
X1618500Y2489500D02*
D03*
X1660500Y2447500D02*
D03*
X1639500Y2524500D02*
D03*
X1701500Y2488000D02*
D03*
X1597165Y2373444D02*
D03*
Y2363389D02*
D03*
Y2353333D02*
D03*
Y2303056D02*
D03*
Y2313111D02*
D03*
Y2323167D02*
D03*
Y2293000D02*
D03*
Y2333222D02*
D03*
Y2383500D02*
D03*
Y2343278D02*
D03*
X2177500Y2092000D02*
D03*
Y2228000D02*
D03*
X2147500Y2420500D02*
D03*
X2209500Y2173000D02*
D03*
X1365000Y2394000D02*
D03*
X1362500Y2264500D02*
D03*
X1771000Y2288500D02*
D03*
X1781000Y2278500D02*
D03*
Y2288500D02*
D03*
X1791000Y2278500D02*
D03*
Y2288500D02*
D03*
X1801000Y2278500D02*
D03*
Y2288500D02*
D03*
X1811000Y2278500D02*
D03*
Y2288500D02*
D03*
X1821000Y2278500D02*
D03*
Y2288500D02*
D03*
X1831000Y2278500D02*
D03*
Y2288500D02*
D03*
X1841000Y2278500D02*
D03*
Y2288500D02*
D03*
X1851000Y2278500D02*
D03*
Y2288500D02*
D03*
X1861000Y2278500D02*
D03*
Y2288500D02*
D03*
X1871000Y2278500D02*
D03*
Y2288500D02*
D03*
X1881000Y2278500D02*
D03*
Y2288500D02*
D03*
X1891000Y2278500D02*
D03*
Y2288500D02*
D03*
X1901000Y2278500D02*
D03*
Y2288500D02*
D03*
X1911000Y2278500D02*
D03*
Y2288500D02*
D03*
X1921000Y2278500D02*
D03*
Y2288500D02*
D03*
X1635000Y2384000D02*
D03*
X1625000Y2374000D02*
D03*
X1635000D02*
D03*
X1625000Y2364000D02*
D03*
X1635000D02*
D03*
X1625000Y2354000D02*
D03*
X1635000D02*
D03*
X1625000Y2344000D02*
D03*
X1635000D02*
D03*
X1625000Y2334000D02*
D03*
X1635000D02*
D03*
X1625000Y2324000D02*
D03*
X1635000D02*
D03*
X1625000Y2314000D02*
D03*
X1635000D02*
D03*
X1625000Y2304000D02*
D03*
X1635000D02*
D03*
X1625000Y2294000D02*
D03*
X1635000D02*
D03*
X1615000Y2364000D02*
D03*
Y2294000D02*
D03*
Y2304000D02*
D03*
Y2314000D02*
D03*
Y2324000D02*
D03*
Y2334000D02*
D03*
Y2344000D02*
D03*
Y2354000D02*
D03*
Y2374000D02*
D03*
X2031500Y2814000D02*
D03*
Y2824000D02*
D03*
X2041500Y2814000D02*
D03*
Y2824000D02*
D03*
X2051500Y2814000D02*
D03*
Y2824000D02*
D03*
X2061500Y2814000D02*
D03*
Y2824000D02*
D03*
X2071500Y2814000D02*
D03*
X1771000Y2504500D02*
D03*
X1781000Y2494500D02*
D03*
Y2504500D02*
D03*
X1791000Y2494500D02*
D03*
Y2504500D02*
D03*
X1801000Y2494500D02*
D03*
Y2504500D02*
D03*
X1811000Y2494500D02*
D03*
Y2504500D02*
D03*
X1821000Y2494500D02*
D03*
Y2504500D02*
D03*
X1831000Y2494500D02*
D03*
Y2504500D02*
D03*
X1841000Y2494500D02*
D03*
Y2504500D02*
D03*
X1851000Y2494500D02*
D03*
Y2504500D02*
D03*
X1861000Y2494500D02*
D03*
Y2504500D02*
D03*
X1871000Y2494500D02*
D03*
Y2504500D02*
D03*
X1881000Y2494500D02*
D03*
Y2504500D02*
D03*
X1891000Y2494500D02*
D03*
Y2504500D02*
D03*
X1901000Y2494500D02*
D03*
Y2504500D02*
D03*
X1911000Y2494500D02*
D03*
Y2504500D02*
D03*
X1860000Y2533472D02*
D03*
Y2543315D02*
D03*
Y2553157D02*
D03*
Y2563000D02*
D03*
Y2572842D02*
D03*
Y2582685D02*
D03*
Y2592528D02*
D03*
X1830079Y2533472D02*
D03*
Y2543315D02*
D03*
Y2553157D02*
D03*
Y2563000D02*
D03*
Y2572842D02*
D03*
Y2582685D02*
D03*
X1799500Y2123500D02*
D03*
X1888500Y2130000D02*
D03*
X1758500Y2784500D02*
D03*
X1887500Y2595000D02*
D03*
X1715000Y2654500D02*
D03*
X1876000Y2757500D02*
D03*
X1821500Y2253000D02*
D03*
X2142000Y2817500D02*
D03*
X1949000Y2826500D02*
D03*
X2006000Y2263000D02*
D03*
X1854500Y2103000D02*
D03*
X1727000Y2783000D02*
D03*
X1741000Y2783500D02*
D03*
X1874500Y2616000D02*
D03*
X1611000Y2508000D02*
D03*
X2034500Y2406000D02*
D03*
X1967000Y2444000D02*
D03*
X1607500Y2399500D02*
D03*
X2169000Y2817500D02*
D03*
X1681000Y2170000D02*
D03*
X1692000Y2783000D02*
D03*
X1494500Y2820500D02*
D03*
X1556500Y2788000D02*
D03*
X1550500Y2677500D02*
D03*
X1810500Y2098894D02*
D03*
X1820500Y2088894D02*
D03*
Y2098894D02*
D03*
X1830500Y2088894D02*
D03*
Y2098894D02*
D03*
X1840500Y2088894D02*
D03*
Y2098894D02*
D03*
X1904500Y2203000D02*
D03*
X1696500Y2516500D02*
D03*
X1646500Y2217000D02*
D03*
X1362000Y2339000D02*
D03*
X1404500Y2805500D02*
D03*
X1808488Y2700980D02*
D03*
Y2681000D02*
D03*
Y2651669D02*
D03*
Y2641630D02*
D03*
X1679500Y2616000D02*
D03*
X1699480D02*
D03*
X1728811D02*
D03*
X1738850D02*
D03*
D78*
X1878000Y2212000D02*
D03*
X1868000D02*
D03*
X1808000D02*
D03*
X1788000D02*
D03*
Y2152000D02*
D03*
X1808000D02*
D03*
X1868000D02*
D03*
X1878000D02*
D03*
X1740000Y2676500D02*
D03*
Y2647000D02*
D03*
X1770000D02*
D03*
Y2676500D02*
D03*
X1789500Y2590500D02*
D03*
Y2620000D02*
D03*
X1759500D02*
D03*
Y2590500D02*
D03*
X1723500Y2200000D02*
D03*
X1733500D02*
D03*
X1743500D02*
D03*
D79*
X1903500Y2471500D02*
D03*
D80*
X1908500D02*
D03*
X1913500D02*
D03*
D81*
X1971000Y2264000D02*
D03*
X1736000Y2441000D02*
D03*
X1706000Y2331000D02*
D03*
X1684500Y2284500D02*
D03*
X1928000Y2405000D02*
D03*
X1839000Y2452500D02*
D03*
X1926000Y2445000D02*
D03*
X1960500Y2409000D02*
D03*
X1728000Y2405500D02*
D03*
X1854000Y2349500D02*
D03*
D82*
X1971000Y2259000D02*
D03*
Y2254000D02*
D03*
X1736000Y2446000D02*
D03*
Y2451000D02*
D03*
X1706000Y2336000D02*
D03*
Y2341000D02*
D03*
X1684500Y2289500D02*
D03*
Y2294500D02*
D03*
X1928000Y2395000D02*
D03*
Y2400000D02*
D03*
X1839000Y2447500D02*
D03*
Y2442500D02*
D03*
X1926000Y2440000D02*
D03*
Y2435000D02*
D03*
X1960500Y2404000D02*
D03*
Y2399000D02*
D03*
X1728000Y2410500D02*
D03*
Y2415500D02*
D03*
X1854000Y2354500D02*
D03*
Y2359500D02*
D03*
D83*
X1656500Y2261618D02*
D03*
X1711618D02*
D03*
Y2206500D02*
D03*
X1656500D02*
D03*
D84*
X1726500Y2557000D02*
D03*
X1736500D02*
D03*
X1746500D02*
D03*
X1925500Y2526000D02*
D03*
X1915500D02*
D03*
X1905500D02*
D03*
X1948000Y2534500D02*
D03*
X1958000D02*
D03*
X1968000D02*
D03*
X1994500Y2520000D02*
D03*
X2004500D02*
D03*
X2014500D02*
D03*
X1987000Y2323500D02*
D03*
X1977000D02*
D03*
X1967000D02*
D03*
X1987000Y2301500D02*
D03*
X1977000D02*
D03*
X1967000D02*
D03*
X1640000Y2485500D02*
D03*
X1650000D02*
D03*
X1660000D02*
D03*
X1641000Y2463500D02*
D03*
X1651000D02*
D03*
X1661000D02*
D03*
X1645000Y2565000D02*
D03*
X1655000D02*
D03*
X1665000D02*
D03*
X1645000Y2543000D02*
D03*
X1655000D02*
D03*
X1665000D02*
D03*
D85*
X1956000Y2517500D02*
D03*
X1976000D02*
D03*
Y2497500D02*
D03*
X1956000D02*
D03*
X1905835Y2610000D02*
D03*
X1925835D02*
D03*
Y2590000D02*
D03*
X1905835D02*
D03*
X1572500Y2789500D02*
D03*
X1592500D02*
D03*
Y2769500D02*
D03*
X1572500D02*
D03*
X1613000Y2429500D02*
D03*
Y2409500D02*
D03*
X1593000D02*
D03*
Y2429500D02*
D03*
X1577500Y2487500D02*
D03*
X1597500D02*
D03*
Y2507500D02*
D03*
X1577500D02*
D03*
X1592500Y2679000D02*
D03*
X1612500D02*
D03*
Y2699000D02*
D03*
X1592500D02*
D03*
X1893000Y2659000D02*
D03*
X1913000D02*
D03*
Y2679000D02*
D03*
X1893000D02*
D03*
X2003500Y2408000D02*
D03*
X2023500D02*
D03*
Y2428000D02*
D03*
X2003500D02*
D03*
D86*
X1966000Y2507500D02*
D03*
X1407000Y2149000D02*
D03*
X1915835Y2600000D02*
D03*
X1582500Y2779500D02*
D03*
X1603000Y2419500D02*
D03*
X1587500Y2497500D02*
D03*
X1602500Y2689000D02*
D03*
X1903000Y2669000D02*
D03*
X1547000Y2149500D02*
D03*
X2103130Y2149000D02*
D03*
X1963130Y2148500D02*
D03*
X2013500Y2418000D02*
D03*
D87*
X1369500Y2799000D02*
D03*
Y2779000D02*
D03*
X1461402Y2822500D02*
D03*
X1421902D02*
D03*
X1366500Y2717000D02*
D03*
X1400000D02*
D03*
X1399200Y2508000D02*
D03*
X1365700D02*
D03*
X2009500Y2760000D02*
D03*
Y2780000D02*
D03*
D88*
X1870020Y2100000D02*
D03*
X1695020Y2108685D02*
D03*
X1711300Y2160400D02*
D03*
D89*
X1890000Y2100000D02*
D03*
X1732500Y2108685D02*
D03*
X1769980D02*
D03*
X1748800Y2160400D02*
D03*
X2200936Y2197626D02*
D03*
D90*
X1446370Y2149000D02*
D03*
X1586370Y2149500D02*
D03*
X2142500Y2149000D02*
D03*
X2002500Y2148500D02*
D03*
D91*
X1463012Y2623500D02*
D03*
Y2660000D02*
D03*
Y2569000D02*
D03*
Y2530500D02*
D03*
X2043512Y2632500D02*
D03*
Y2669000D02*
D03*
Y2578000D02*
D03*
Y2539500D02*
D03*
D92*
X1627472Y2575000D02*
D03*
X1487528D02*
D03*
Y2615000D02*
D03*
X1627472D02*
D03*
X1478795Y2361346D02*
D03*
Y2420512D02*
D03*
X2096500Y2309000D02*
D03*
Y2368165D02*
D03*
X2207972Y2584000D02*
D03*
X2068028D02*
D03*
Y2624000D02*
D03*
X2207972D02*
D03*
D93*
X2200936Y2217606D02*
D03*
D94*
X1830000Y2819500D02*
D03*
X1793000D02*
D03*
Y2780500D02*
D03*
X1830000D02*
D03*
D95*
X1406500Y2328402D02*
D03*
Y2288902D02*
D03*
X2135500Y2755000D02*
D03*
Y2788500D02*
D03*
X2147500Y2550000D02*
D03*
Y2516500D02*
D03*
X2046500Y2281500D02*
D03*
X2026500D02*
D03*
X1450000Y2304000D02*
D03*
X1430000D02*
D03*
X1990500Y2716598D02*
D03*
Y2756098D02*
D03*
X2067000Y2320402D02*
D03*
Y2280902D02*
D03*
D96*
X1750110Y2818567D02*
D03*
Y2698567D02*
D03*
X1647610Y2698067D02*
D03*
Y2819067D02*
D03*
X1864390Y2698933D02*
D03*
Y2818933D02*
D03*
X1966890Y2819433D02*
D03*
Y2698433D02*
D03*
D97*
X2062402Y2710500D02*
D03*
X2195902Y2711500D02*
D03*
X1418000Y2740098D02*
D03*
X1419000Y2606598D02*
D03*
X1422000Y2552098D02*
D03*
X1423000Y2418598D02*
D03*
X2185992Y2417980D02*
D03*
X2185000Y2519244D02*
D03*
D98*
X1826000Y2133500D02*
D03*
X1836000D02*
D03*
D99*
X1846000D02*
D03*
D100*
X1525500Y2248000D02*
D03*
Y2384500D02*
D03*
X2191500Y2386000D02*
D03*
Y2249500D02*
D03*
D108*
X1900925Y2637500D02*
D03*
X1906831D02*
D03*
X1625953Y2463500D02*
D03*
X1620047D02*
D03*
X1956047Y2489000D02*
D03*
X1961953D02*
D03*
D109*
X1575500Y2706547D02*
D03*
Y2712453D02*
D03*
D110*
X2062402Y2710500D02*
D03*
X2195902Y2711500D02*
D03*
D111*
X1418000Y2740098D02*
D03*
X1419000Y2606598D02*
D03*
X1422000Y2552098D02*
D03*
X1423000Y2418598D02*
D03*
X2185992Y2417980D02*
D03*
X2185000Y2519244D02*
D03*
D112*
X1483702Y2512109D02*
D03*
X1513209D02*
D03*
X2104000Y2388000D02*
D03*
X2074492D02*
D03*
X2122008Y2609791D02*
D03*
X2092500D02*
D03*
D113*
X1483800Y2491400D02*
D03*
X1513308D02*
D03*
X2103902Y2408709D02*
D03*
X2074394D02*
D03*
X2121909Y2630500D02*
D03*
X2092402D02*
D03*
D114*
X1536000Y2462500D02*
D03*
X1512500Y2745500D02*
D03*
X2051500Y2457500D02*
D03*
X1984000Y2625500D02*
D03*
D115*
X1536000Y2469000D02*
D03*
D116*
X1545500Y2498000D02*
D03*
X1546000Y2451000D02*
D03*
D117*
X1522000Y2782000D02*
D03*
Y2729500D02*
D03*
D118*
X1443791Y2694402D02*
D03*
Y2723909D02*
D03*
D119*
X1464500Y2694500D02*
D03*
Y2724008D02*
D03*
D120*
X2042000Y2422500D02*
D03*
X1974000Y2590000D02*
D03*
D121*
X2041500Y2470000D02*
D03*
X1974000Y2639000D02*
D03*
D122*
X2126520Y2716000D02*
D03*
X2141480D02*
D03*
X2126520Y2699000D02*
D03*
X2141480D02*
D03*
M02*
