M48
;Layer_Color=9474304
;FILE_FORMAT=2:5
INCH,TZ
T25F00S00C0.20000
%
G90
G05
T25
G00X2219982Y2069447
M15
G01X2221890Y2070036
G01X2223644Y2070993
G01X2225172Y2072280
G01X2226414Y2073844
G01X2227320Y2075624
G01X2227854Y2077549
G01X2228000Y2079249
G01X2228000Y2835000
G01X2227800Y2836988
G01X2227210Y2838896
G01X2226252Y2840649
G01X2224965Y2842176
G01X2223400Y2843417
G01X2221619Y2844322
G01X2219694Y2844856
G01X2218000Y2845000
G01X1354000Y2845000
G01X1352012Y2844800
G01X1350104Y2844210
G01X1348352Y2843252
G01X1346824Y2841965
G01X1345583Y2840400
G01X1344678Y2838619
G01X1344144Y2836694
G01X1344000Y2835000
G01X1344000Y2079748
G01X1344200Y2077761
G01X1344790Y2075853
G01X1345748Y2074100
G01X1347035Y2072573
G01X1348600Y2071332
G01X1350381Y2070426
G01X1352306Y2069893
G01X1353994Y2069749
G01X2217994Y2069249
G01X2219982Y2069447
M16
M17
M30
