G04 Layer_Physical_Order=5*
G04 Layer_Color=16711680*
%FSLAX25Y25*%
%MOIN*%
G70*
G01*
G75*
%ADD10R,0.05118X0.05905*%
%ADD12R,0.05905X0.05118*%
%ADD13R,0.05905X0.05905*%
%ADD14R,0.04331X0.05512*%
%ADD16R,0.05905X0.05905*%
%ADD21R,0.06693X0.04331*%
%ADD23R,0.06299X0.07874*%
%ADD26R,0.12992X0.05512*%
%ADD27R,0.15748X0.07874*%
%ADD33R,0.06693X0.05118*%
%ADD34R,0.05118X0.06693*%
%ADD37R,0.04331X0.06693*%
%ADD44R,0.06102X0.02362*%
%ADD46R,0.07874X0.11811*%
%ADD47R,0.11811X0.07874*%
%ADD51R,0.07874X0.15748*%
%ADD53R,0.21654X0.11811*%
%ADD64C,0.08000*%
%ADD65C,0.03000*%
%ADD66C,0.02000*%
%ADD67C,0.10000*%
%ADD68C,0.05000*%
%ADD69C,0.20000*%
%ADD71C,0.15000*%
%ADD72C,0.04000*%
%ADD74C,0.01500*%
%ADD77C,0.05905*%
%ADD78C,0.07874*%
%ADD79O,0.03937X0.07874*%
%ADD80O,0.03937X0.07874*%
%ADD81O,0.07874X0.03937*%
%ADD82O,0.07874X0.03937*%
%ADD83C,0.06693*%
%ADD84C,0.04724*%
%ADD85C,0.08000*%
%ADD86C,0.12000*%
%ADD87R,0.07874X0.07874*%
%ADD88R,0.10827X0.10827*%
%ADD89C,0.10827*%
%ADD90R,0.12000X0.12000*%
%ADD91R,0.13780X0.13780*%
%ADD92C,0.11811*%
%ADD93R,0.10827X0.10827*%
%ADD94C,0.19685*%
%ADD95R,0.07874X0.07874*%
%ADD96R,0.23622X0.23622*%
%ADD97C,0.15748*%
%ADD98O,0.05905X0.07874*%
%ADD99R,0.05905X0.07874*%
%ADD100C,0.23622*%
%ADD101C,0.05000*%
%ADD102C,0.03500*%
%ADD103C,0.01500*%
%ADD104C,0.03000*%
%ADD105C,0.02500*%
%ADD106C,0.01968*%
%ADD108R,0.02756X0.03543*%
%ADD109R,0.03543X0.02756*%
%ADD110R,0.19685X0.23622*%
%ADD111R,0.23622X0.19685*%
%ADD112R,0.11614X0.06614*%
%ADD113R,0.11614X0.30000*%
%ADD114R,0.14000X0.96500*%
%ADD115R,0.05800X0.26100*%
%ADD116R,0.05300X0.26600*%
%ADD117R,0.05500X0.23500*%
%ADD118R,0.06614X0.11614*%
%ADD119R,0.30000X0.11614*%
%ADD120R,0.06000X0.26000*%
%ADD121R,0.06000X0.25000*%
%ADD122R,0.05512X0.12992*%
%ADD123C,0.12000*%
%ADD124C,0.06000*%
G36*
X1568000Y2454833D02*
X1567487Y2454621D01*
X1566860Y2454140D01*
X1566380Y2453513D01*
X1566077Y2452783D01*
X1565974Y2452000D01*
X1566077Y2451217D01*
X1566380Y2450487D01*
X1566860Y2449860D01*
X1567487Y2449380D01*
X1568000Y2449167D01*
Y2444001D01*
X1568000Y2444000D01*
Y2440500D01*
X1567000Y2439500D01*
X1559000Y2439500D01*
X1552500Y2446000D01*
X1552500Y2458000D01*
X1552500D01*
X1552500Y2470700D01*
X1562167Y2476500D01*
X1568000D01*
Y2454833D01*
D02*
G37*
G36*
X1474395Y2508000D02*
Y2505302D01*
X1489500D01*
Y2459500D01*
X1461655Y2459500D01*
X1461158Y2507645D01*
X1461510Y2508000D01*
X1474395Y2508000D01*
D02*
G37*
G36*
X2034500Y2480000D02*
Y2444000D01*
X2034000Y2443500D01*
X2021500Y2443500D01*
X2020000Y2445000D01*
Y2479000D01*
X2021000Y2480000D01*
X2034500Y2480000D01*
D02*
G37*
G36*
X2120500Y2445500D02*
X2128146D01*
X2128500Y2445146D01*
X2128500Y2443000D01*
X2128500Y2397000D01*
X2125000Y2393500D01*
X2113307Y2393500D01*
Y2394807D01*
X2096500D01*
X2096500Y2443986D01*
X2097159Y2444646D01*
X2097510Y2445000D01*
X2097514D01*
X2098014Y2445500D01*
X2120500Y2445500D01*
D02*
G37*
G36*
X1951500Y2466000D02*
X1945500Y2460000D01*
X1930000D01*
Y2466000D01*
X1934500Y2470500D01*
Y2473500D01*
Y2479500D01*
X1939500Y2484500D01*
X1951500D01*
Y2466000D01*
D02*
G37*
G36*
X2042915Y2488197D02*
X2042971Y2487915D01*
Y2485979D01*
X2042915Y2485697D01*
X2042971Y2485415D01*
Y2484529D01*
X2042905D01*
X2042757Y2484500D01*
X2042607D01*
X2042467Y2484442D01*
X2042320Y2484413D01*
X2042195Y2484329D01*
X2042122Y2484299D01*
X2042000Y2484275D01*
X2041878Y2484299D01*
X2041805Y2484329D01*
X2041680Y2484413D01*
X2041533Y2484442D01*
X2041393Y2484500D01*
X2041243D01*
X2041095Y2484529D01*
X2040905D01*
X2040757Y2484500D01*
X2040607D01*
X2040467Y2484442D01*
X2040320Y2484413D01*
X2040195Y2484329D01*
X2040122Y2484299D01*
X2040000Y2484275D01*
X2039878Y2484299D01*
X2039805Y2484329D01*
X2039680Y2484413D01*
X2039532Y2484442D01*
X2039393Y2484500D01*
X2039243D01*
X2039095Y2484529D01*
X2038905D01*
X2038757Y2484500D01*
X2038607D01*
X2038467Y2484442D01*
X2038320Y2484413D01*
X2038194Y2484329D01*
X2038055Y2484272D01*
X2038022Y2484249D01*
X2037915Y2484228D01*
X2037790Y2484145D01*
X2037650Y2484087D01*
X2037564Y2484000D01*
X2037000D01*
Y2484000D01*
X2036500Y2484000D01*
X2034500Y2482000D01*
X2020500D01*
Y2488500D01*
X2042465D01*
X2042915Y2488197D01*
D02*
G37*
G36*
X2202000Y2561000D02*
X2202000Y2509000D01*
X2197500Y2504500D01*
X2170500D01*
X2161000Y2514000D01*
Y2538000D01*
X2159000Y2540000D01*
X2144500D01*
X2140000Y2544500D01*
Y2562500D01*
X2143500Y2565500D01*
X2197500D01*
X2202000Y2561000D01*
D02*
G37*
G36*
X1568000Y2483400D02*
Y2478500D01*
X1566784Y2478029D01*
X1562167D01*
X1562055Y2478007D01*
X1561942Y2478013D01*
X1561906Y2478000D01*
X1545029Y2478000D01*
Y2482850D01*
X1548853D01*
X1549438Y2482967D01*
X1549934Y2483298D01*
X1550002Y2483400D01*
X1553000D01*
X1568000Y2483400D01*
D02*
G37*
G36*
X2085500Y2491000D02*
X2085500Y2393500D01*
X2083799D01*
Y2394807D01*
X2065185D01*
Y2393500D01*
X2050500D01*
X2044500Y2399500D01*
Y2409000D01*
X2039000D01*
Y2435500D01*
X2044000D01*
X2044500Y2436000D01*
Y2444667D01*
Y2462500D01*
X2039000D01*
X2038500Y2463000D01*
Y2482815D01*
X2038683Y2482851D01*
X2038905Y2483000D01*
X2039095D01*
X2039317Y2482851D01*
X2040000Y2482716D01*
X2040683Y2482851D01*
X2040905Y2483000D01*
X2041095D01*
X2041317Y2482851D01*
X2042000Y2482716D01*
X2042683Y2482851D01*
X2042905Y2483000D01*
X2044500D01*
Y2491439D01*
Y2506000D01*
X2070500D01*
X2085500Y2491000D01*
D02*
G37*
G36*
X1626500Y2258000D02*
Y2242689D01*
X1626366Y2242244D01*
X1621579D01*
X1621120Y2242434D01*
X1619815Y2242606D01*
X1618510Y2242434D01*
X1618051Y2242244D01*
X1613264D01*
Y2242030D01*
X1602500D01*
X1601586Y2241910D01*
X1600735Y2241557D01*
X1600660Y2241500D01*
X1547000D01*
Y2239000D01*
X1541000Y2233000D01*
X1514500D01*
X1510000Y2238000D01*
Y2238500D01*
Y2258500D01*
X1519000Y2265000D01*
X1619500D01*
X1626500Y2258000D01*
D02*
G37*
G36*
X2158000Y2267500D02*
X2158000Y2253500D01*
X2132000D01*
X2131500Y2254000D01*
Y2271500D01*
X2132000Y2272500D01*
X2153000Y2272500D01*
X2158000Y2267500D01*
D02*
G37*
G36*
X1650437Y2203319D02*
X1650780Y2202678D01*
X1651635Y2201635D01*
X1652678Y2200780D01*
X1653319Y2200437D01*
X1675348Y2178408D01*
X1726848D01*
Y2115578D01*
X1726167Y2115018D01*
X1725053Y2113661D01*
X1724225Y2112112D01*
X1723716Y2110432D01*
X1723544Y2108685D01*
X1723716Y2106938D01*
X1724225Y2105257D01*
X1725053Y2103709D01*
X1726167Y2102352D01*
X1726848Y2101792D01*
Y2085908D01*
X1724848Y2083908D01*
X1387848D01*
X1383848Y2087908D01*
X1383848Y2131408D01*
X1376348Y2138908D01*
X1358035D01*
Y2223408D01*
X1630349D01*
X1650437Y2203319D01*
D02*
G37*
G36*
X1613264Y2237902D02*
X1618051D01*
X1618510Y2237711D01*
X1619815Y2237539D01*
X1621120Y2237711D01*
X1621579Y2237902D01*
X1624598D01*
X1626500Y2236000D01*
X1626500Y2227256D01*
X1628256Y2225500D01*
X1629885Y2223871D01*
X1629693Y2223410D01*
X1599000Y2223500D01*
Y2235000D01*
X1602500Y2238500D01*
X1613264D01*
Y2237902D01*
D02*
G37*
G36*
X2203000Y2494000D02*
Y2357500D01*
X2172500D01*
Y2425000D01*
X2136500Y2461000D01*
X2136500Y2479500D01*
X2161000Y2479500D01*
X2169500Y2488000D01*
Y2499000D01*
X2198000Y2499000D01*
X2203000Y2494000D01*
D02*
G37*
G36*
X1567500Y2437500D02*
Y2432500D01*
X1566005Y2431628D01*
X1565987Y2431620D01*
X1565971Y2431608D01*
X1564929Y2431000D01*
X1544930Y2431000D01*
X1544613Y2431386D01*
X1544696Y2431803D01*
X1544521Y2432681D01*
X1544500Y2432713D01*
Y2433394D01*
X1544521Y2433425D01*
X1544696Y2434303D01*
X1544521Y2435181D01*
X1544500Y2435213D01*
Y2435894D01*
X1544521Y2435925D01*
X1544536Y2436000D01*
X1551500D01*
X1555500Y2437500D01*
X1567500Y2437500D01*
D02*
G37*
G36*
X2043000Y2437000D02*
X2042520Y2436520D01*
X2039000D01*
X2038902Y2436500D01*
X2034500D01*
X2034000Y2436000D01*
X2018500D01*
Y2441500D01*
X2043000D01*
Y2437000D01*
D02*
G37*
G36*
X1444300Y2509131D02*
X1443913Y2509039D01*
X1442231Y2508342D01*
X1440678Y2507390D01*
X1439293Y2506207D01*
X1438110Y2504822D01*
X1437158Y2503269D01*
X1436461Y2501587D01*
X1436036Y2499816D01*
X1435893Y2498000D01*
X1436036Y2496184D01*
X1436461Y2494413D01*
X1437158Y2492731D01*
X1438110Y2491178D01*
X1439293Y2489793D01*
X1440678Y2488610D01*
X1442231Y2487658D01*
X1443913Y2486961D01*
X1444300Y2486869D01*
X1444300Y2409000D01*
X1411500Y2409000D01*
X1411500Y2513997D01*
X1444300Y2513997D01*
Y2509131D01*
D02*
G37*
G36*
X1548853Y2484380D02*
X1543500D01*
Y2474845D01*
Y2471300D01*
X1548265D01*
X1548565Y2471000D01*
X1548566D01*
X1548919Y2470646D01*
X1548919Y2469839D01*
X1548919Y2451637D01*
X1548839D01*
Y2437683D01*
X1542933D01*
X1542933Y2428099D01*
X1543027Y2428049D01*
X1543100Y2427992D01*
Y2424600D01*
X1548627D01*
X1549000Y2424227D01*
Y2424227D01*
X1549000Y2424227D01*
X1549000Y2423419D01*
X1549000Y2414581D01*
X1549000D01*
X1548919Y2414500D01*
X1542933D01*
Y2414500D01*
X1531021Y2414500D01*
X1507800Y2414500D01*
X1507800Y2446600D01*
X1507700Y2476500D01*
X1507800Y2476600D01*
X1507800D01*
Y2505302D01*
X1522517D01*
Y2506300D01*
X1529000Y2506300D01*
Y2511000D01*
X1548853Y2511000D01*
X1548853Y2484380D01*
D02*
G37*
G36*
X2129000Y2733000D02*
Y2692000D01*
X2126000Y2689000D01*
X2070000D01*
X2058000Y2699000D01*
Y2725000D01*
X2069000Y2736000D01*
X2126000D01*
X2129000Y2733000D01*
D02*
G37*
G36*
X2206500Y2689500D02*
X2141000Y2689500D01*
X2138000Y2692500D01*
X2138000Y2733500D01*
X2140000Y2735500D01*
X2206500D01*
X2206500Y2689500D01*
D02*
G37*
G36*
X2100500Y2656000D02*
Y2616598D01*
X2083193D01*
Y2613193D01*
X2077500Y2607500D01*
X2035582Y2607500D01*
X2011582Y2577000D01*
X1985795Y2577000D01*
X1985500Y2577029D01*
X1985000Y2577414D01*
Y2674000D01*
X2033122D01*
Y2658610D01*
X2053902D01*
Y2674000D01*
X2082500D01*
X2100500Y2656000D01*
D02*
G37*
G36*
X1489500Y2702500D02*
X1497500D01*
Y2684043D01*
X1450589D01*
X1450038Y2684595D01*
X1450091Y2685094D01*
X1450598D01*
Y2698974D01*
Y2703709D01*
X1449500D01*
Y2711000D01*
X1451000Y2712500D01*
X1479500D01*
X1489500Y2702500D01*
D02*
G37*
G36*
X1553500Y2748000D02*
Y2738000D01*
X1537500Y2722000D01*
X1537099D01*
X1537000Y2722020D01*
X1530500D01*
X1530483Y2722016D01*
X1530466Y2722019D01*
X1530000Y2722293D01*
X1530000Y2760000D01*
X1541500D01*
X1553500Y2748000D01*
D02*
G37*
G36*
X1536000Y2763000D02*
X1528500D01*
X1528500Y2761000D01*
X1524500Y2757000D01*
X1521854Y2757000D01*
X1521500Y2757354D01*
Y2768500D01*
X1536000D01*
Y2763000D01*
D02*
G37*
G36*
X1508990Y2787141D02*
X1506951Y2717000D01*
X1499000D01*
Y2707000D01*
X1491000D01*
X1481000Y2717000D01*
X1450598D01*
Y2733216D01*
X1450000D01*
X1450000Y2754081D01*
X1451587Y2754461D01*
X1453269Y2755158D01*
X1454822Y2756110D01*
X1456207Y2757293D01*
X1457390Y2758678D01*
X1458342Y2760231D01*
X1459039Y2761913D01*
X1459464Y2763684D01*
X1459607Y2765500D01*
X1459464Y2767316D01*
X1459039Y2769087D01*
X1458342Y2770769D01*
X1457390Y2772322D01*
X1456207Y2773707D01*
X1454822Y2774890D01*
X1453269Y2775842D01*
X1451587Y2776539D01*
X1450000Y2776920D01*
X1450000Y2787500D01*
X1508641Y2787500D01*
X1508990Y2787141D01*
D02*
G37*
G36*
X1539500Y2716500D02*
Y2705000D01*
X1521500D01*
Y2711500D01*
Y2712000D01*
Y2716500D01*
X1521750Y2716750D01*
X1525750D01*
Y2717000D01*
X1529000Y2717000D01*
X1530500Y2721000D01*
X1537000D01*
X1539500Y2716500D01*
D02*
G37*
G36*
X1975924Y2657000D02*
X1976000Y2656620D01*
Y2654880D01*
X1975924Y2654500D01*
X1976000Y2654120D01*
Y2653000D01*
X1969000Y2653000D01*
X1967000Y2651000D01*
X1959854Y2651000D01*
X1959500Y2651353D01*
X1959500Y2657500D01*
X1975525Y2657500D01*
X1975924Y2657000D01*
D02*
G37*
G36*
X1975500Y2608146D02*
Y2604000D01*
X1970000D01*
Y2604000D01*
X1968500D01*
X1967000Y2602500D01*
X1959354Y2602500D01*
X1959000Y2602853D01*
X1959000Y2608146D01*
X1959353Y2608500D01*
X1975146Y2608500D01*
X1975500Y2608146D01*
D02*
G37*
G36*
X1967000Y2648000D02*
Y2611000D01*
X1966000Y2610000D01*
X1957500D01*
Y2647667D01*
X1959500Y2649000D01*
X1966000D01*
X1967000Y2648000D01*
D02*
G37*
G36*
X1456000Y2544500D02*
X1468500Y2544500D01*
X1474000Y2539000D01*
X1474500D01*
Y2520500D01*
X1387500D01*
X1387000Y2521000D01*
Y2561500D01*
X1439000D01*
X1456000Y2544500D01*
D02*
G37*
G36*
X1435500Y2616500D02*
X1435500Y2597000D01*
X1358035Y2597000D01*
Y2616500D01*
X1435500Y2616500D01*
D02*
G37*
G36*
X2164500Y2655500D02*
X2164500Y2615500D01*
X2131315Y2615500D01*
Y2616598D01*
X2114750D01*
Y2655500D01*
X2164500Y2655500D01*
D02*
G37*
G36*
X1406500Y2695000D02*
X1406500Y2631000D01*
X1358035Y2631000D01*
Y2695000D01*
X1406500Y2695000D01*
D02*
G37*
%LPC*%
G36*
X1547000Y2159046D02*
X1545138Y2158862D01*
X1543347Y2158319D01*
X1541696Y2157437D01*
X1540250Y2156250D01*
X1539063Y2154803D01*
X1538181Y2153153D01*
X1537637Y2151362D01*
X1537454Y2149500D01*
X1537637Y2147638D01*
X1538181Y2145847D01*
X1539063Y2144197D01*
X1540250Y2142750D01*
X1541696Y2141563D01*
X1543347Y2140681D01*
X1545138Y2140137D01*
X1547000Y2139954D01*
X1548862Y2140137D01*
X1550653Y2140681D01*
X1552304Y2141563D01*
X1553750Y2142750D01*
X1554937Y2144197D01*
X1555819Y2145847D01*
X1556363Y2147638D01*
X1556546Y2149500D01*
X1556363Y2151362D01*
X1555819Y2153153D01*
X1554937Y2154803D01*
X1553750Y2156250D01*
X1552304Y2157437D01*
X1550653Y2158319D01*
X1548862Y2158862D01*
X1547000Y2159046D01*
D02*
G37*
G36*
X1407000Y2158546D02*
X1405138Y2158363D01*
X1403347Y2157819D01*
X1401696Y2156937D01*
X1400250Y2155750D01*
X1399063Y2154304D01*
X1398181Y2152653D01*
X1397637Y2150862D01*
X1397454Y2149000D01*
X1397637Y2147138D01*
X1398181Y2145347D01*
X1399063Y2143697D01*
X1400250Y2142250D01*
X1401696Y2141063D01*
X1403347Y2140181D01*
X1405138Y2139638D01*
X1407000Y2139454D01*
X1408862Y2139638D01*
X1410653Y2140181D01*
X1412304Y2141063D01*
X1413750Y2142250D01*
X1414937Y2143697D01*
X1415819Y2145347D01*
X1416363Y2147138D01*
X1416546Y2149000D01*
X1416363Y2150862D01*
X1415819Y2152653D01*
X1414937Y2154304D01*
X1413750Y2155750D01*
X1412304Y2156937D01*
X1410653Y2157819D01*
X1408862Y2158363D01*
X1407000Y2158546D01*
D02*
G37*
G36*
X2068028Y2633451D02*
X2066184Y2633269D01*
X2064411Y2632732D01*
X2062777Y2631858D01*
X2061345Y2630683D01*
X2060169Y2629251D01*
X2059296Y2627617D01*
X2058758Y2625844D01*
X2058577Y2624000D01*
X2058758Y2622156D01*
X2059296Y2620383D01*
X2060169Y2618749D01*
X2061345Y2617317D01*
X2062777Y2616142D01*
X2064411Y2615268D01*
X2066184Y2614731D01*
X2068028Y2614549D01*
X2069871Y2614731D01*
X2071644Y2615268D01*
X2073278Y2616142D01*
X2074710Y2617317D01*
X2075886Y2618749D01*
X2076759Y2620383D01*
X2077297Y2622156D01*
X2077479Y2624000D01*
X2077297Y2625844D01*
X2076759Y2627617D01*
X2075886Y2629251D01*
X2074710Y2630683D01*
X2073278Y2631858D01*
X2071644Y2632732D01*
X2069871Y2633269D01*
X2068028Y2633451D01*
D02*
G37*
G36*
X2053902Y2642890D02*
X2033122D01*
Y2622110D01*
X2053902D01*
Y2642890D01*
D02*
G37*
G36*
X1542500Y2737030D02*
X1541586Y2736910D01*
X1540735Y2736557D01*
X1540004Y2735996D01*
X1539443Y2735265D01*
X1539090Y2734414D01*
X1538970Y2733500D01*
X1539090Y2732586D01*
X1539443Y2731735D01*
X1540004Y2731004D01*
X1540735Y2730443D01*
X1541586Y2730090D01*
X1542500Y2729970D01*
X1543414Y2730090D01*
X1544265Y2730443D01*
X1544996Y2731004D01*
X1545557Y2731735D01*
X1545910Y2732586D01*
X1546030Y2733500D01*
X1545910Y2734414D01*
X1545557Y2735265D01*
X1544996Y2735996D01*
X1544265Y2736557D01*
X1543414Y2736910D01*
X1542500Y2737030D01*
D02*
G37*
%LPD*%
D10*
X1847760Y2449000D02*
D03*
X1855240D02*
D03*
X1864260Y2357500D02*
D03*
X1871740D02*
D03*
X1620020Y2274000D02*
D03*
X1627500D02*
D03*
X1842260Y2532500D02*
D03*
X1849740D02*
D03*
X1907260Y2580500D02*
D03*
X1914740D02*
D03*
X1922260D02*
D03*
X1929740D02*
D03*
X1929760Y2572000D02*
D03*
X1937240D02*
D03*
X1937760Y2588500D02*
D03*
X1945240D02*
D03*
X1804760Y2481000D02*
D03*
X1812240D02*
D03*
X1968260Y2544000D02*
D03*
X1975740D02*
D03*
X1690240Y2633500D02*
D03*
X1682760D02*
D03*
D12*
X1843000Y2572240D02*
D03*
Y2564760D02*
D03*
X1851000Y2590740D02*
D03*
Y2583260D02*
D03*
X1959500Y2332260D02*
D03*
Y2339740D02*
D03*
X1790000Y2466240D02*
D03*
Y2458760D02*
D03*
X1565000Y2473760D02*
D03*
Y2481240D02*
D03*
X1564500Y2442240D02*
D03*
Y2434760D02*
D03*
X1533000Y2758260D02*
D03*
Y2765740D02*
D03*
X1533500Y2725240D02*
D03*
Y2717760D02*
D03*
X2023000Y2446740D02*
D03*
Y2439260D02*
D03*
X2023500Y2477260D02*
D03*
Y2484740D02*
D03*
X1962500Y2613240D02*
D03*
Y2605760D02*
D03*
X1963000Y2646260D02*
D03*
Y2653740D02*
D03*
D13*
X1771000Y2278500D02*
D03*
X2071500Y2824000D02*
D03*
X1771000Y2494500D02*
D03*
X1830079Y2592528D02*
D03*
X1810500Y2088894D02*
D03*
D14*
X1683047Y2652500D02*
D03*
X1688953D02*
D03*
D16*
X1625000Y2384000D02*
D03*
X1615000D02*
D03*
D21*
X1851500Y2573815D02*
D03*
Y2563185D02*
D03*
X1842500Y2591815D02*
D03*
Y2581185D02*
D03*
D23*
X1664661Y2276500D02*
D03*
X1647339D02*
D03*
X1664661Y2397000D02*
D03*
X1647339D02*
D03*
X1664661Y2383611D02*
D03*
X1647339D02*
D03*
X1664661Y2370222D02*
D03*
X1647339D02*
D03*
X1664661Y2356833D02*
D03*
X1647339D02*
D03*
X1664661Y2343444D02*
D03*
X1647339D02*
D03*
X1664661Y2330056D02*
D03*
X1647339D02*
D03*
X1664661Y2316667D02*
D03*
X1647339D02*
D03*
X1664661Y2303278D02*
D03*
X1647339D02*
D03*
X1664661Y2289889D02*
D03*
X1647339D02*
D03*
D26*
X1779500Y2612480D02*
D03*
Y2597520D02*
D03*
X1437400Y2525980D02*
D03*
Y2511020D02*
D03*
X1422400Y2525980D02*
D03*
Y2511020D02*
D03*
X2176500Y2507480D02*
D03*
Y2492520D02*
D03*
X2192000Y2507980D02*
D03*
Y2493020D02*
D03*
X1750500Y2653520D02*
D03*
Y2668480D02*
D03*
D27*
X1369500Y2799000D02*
D03*
Y2779000D02*
D03*
X1366500Y2717000D02*
D03*
X1400000D02*
D03*
X1399200Y2508000D02*
D03*
X1365700D02*
D03*
X2009500Y2760000D02*
D03*
Y2780000D02*
D03*
D33*
X1658000Y2236000D02*
D03*
Y2244000D02*
D03*
X1907878Y2621500D02*
D03*
Y2629500D02*
D03*
X1619000Y2479500D02*
D03*
Y2471500D02*
D03*
X2098000Y2266000D02*
D03*
Y2258000D02*
D03*
Y2239500D02*
D03*
Y2247500D02*
D03*
D34*
X1590912Y2710912D02*
D03*
X1582912D02*
D03*
X1633500Y2259500D02*
D03*
X1641500D02*
D03*
X1977000Y2489000D02*
D03*
X1969000D02*
D03*
D37*
X1841685Y2553500D02*
D03*
X1852315D02*
D03*
X1840685Y2543000D02*
D03*
X1851315D02*
D03*
D44*
X1641075Y2232543D02*
D03*
Y2237563D02*
D03*
Y2242583D02*
D03*
Y2247602D02*
D03*
X1619815D02*
D03*
Y2242583D02*
D03*
Y2237563D02*
D03*
Y2232543D02*
D03*
X2116425Y2259957D02*
D03*
Y2254937D02*
D03*
Y2249917D02*
D03*
Y2244898D02*
D03*
X2137685D02*
D03*
Y2249917D02*
D03*
Y2254937D02*
D03*
Y2259957D02*
D03*
D46*
X1406500Y2328402D02*
D03*
Y2288902D02*
D03*
X1990500Y2716598D02*
D03*
Y2756098D02*
D03*
X2067000Y2320402D02*
D03*
Y2280902D02*
D03*
D47*
X1461402Y2822500D02*
D03*
X1421902D02*
D03*
D51*
X2135500Y2755000D02*
D03*
Y2788500D02*
D03*
X2147500Y2550000D02*
D03*
Y2516500D02*
D03*
X1450000Y2304000D02*
D03*
X1430000D02*
D03*
D53*
X1369500Y2604500D02*
D03*
Y2626500D02*
D03*
X2147500Y2473500D02*
D03*
Y2495500D02*
D03*
D64*
X2187500Y2245500D02*
X2191500Y2249500D01*
X2137685Y2244898D02*
Y2245500D01*
X2176500Y2495520D02*
X2192000D01*
X1870020Y2111520D02*
Y2119480D01*
Y2100000D02*
Y2111520D01*
X1856000Y2133500D02*
X1870020Y2119480D01*
X1846000Y2133500D02*
X1856000D01*
X1836000D02*
Y2148000D01*
X1878000Y2190000D01*
Y2212000D01*
X2026500Y2281500D02*
Y2291500D01*
X2036500Y2301500D01*
X2054500D01*
X2067000Y2289000D01*
Y2280902D02*
Y2289000D01*
D65*
X1689500Y2637480D02*
Y2652500D01*
X1690240Y2624760D02*
X1700000Y2615000D01*
X1963000Y2613740D02*
Y2646260D01*
X1528791Y2461791D02*
X1536000Y2469000D01*
X1973000Y2589000D02*
X1974000Y2590000D01*
X1945740Y2589000D02*
X1973000D01*
X2036500Y2486500D02*
X2041500D01*
X2034269Y2484269D02*
X2036500Y2486500D01*
X1900500Y2580500D02*
X1907260D01*
X1914740D02*
X1922260D01*
X1929740D02*
X1929760Y2580480D01*
Y2572000D02*
Y2580480D01*
X1937240Y2587980D02*
X1937760Y2588500D01*
X1937240Y2572000D02*
Y2587980D01*
X1945240Y2588500D02*
X1945740Y2589000D01*
X1798500Y2362000D02*
X1843000D01*
X1795000Y2358500D02*
X1798500Y2362000D01*
X1795000Y2358500D02*
Y2370000D01*
X1843000Y2362000D02*
X1857500Y2376500D01*
X1795000Y2370000D02*
X1806500Y2381500D01*
X1799000Y2514000D02*
X1800000Y2515000D01*
X1786500Y2514000D02*
X1799000D01*
X1777500Y2523000D02*
X1786500Y2514000D01*
X1680020Y2615000D02*
X1682760Y2617740D01*
X1519101Y2518000D02*
X1605500D01*
X1986500Y2348500D02*
Y2349500D01*
X1978500Y2340500D02*
X1986500Y2348500D01*
X1960260Y2340500D02*
X1978500D01*
X1857500Y2376500D02*
X1882000D01*
X1491000Y2522500D02*
X1613500D01*
X1625500Y2510500D01*
X1483702Y2515202D02*
X1491000Y2522500D01*
X1681500Y2658500D02*
X1682500Y2657500D01*
X1644500Y2658500D02*
X1681500D01*
X1640500Y2662500D02*
X1644500Y2658500D01*
X1639500Y2662500D02*
X1640500D01*
X1702000Y2665000D02*
X1705000Y2662000D01*
X1690000Y2665000D02*
X1702000D01*
X1682500Y2657500D02*
X1690000Y2665000D01*
X1837000Y2228000D02*
X2068500D01*
X1895500Y2450500D02*
Y2452000D01*
Y2450500D02*
X1899740Y2446260D01*
X1825500Y2480000D02*
X1931000D01*
X1818500Y2487000D02*
X1825500Y2480000D01*
X1931000D02*
X1940000Y2489000D01*
X1744000Y2522500D02*
X1744500Y2523000D01*
X1777500D01*
X1899740Y2409669D02*
Y2446260D01*
X1899000Y2408929D02*
X1899740Y2409669D01*
X1899000Y2393500D02*
Y2408929D01*
X1882000Y2376500D02*
X1899000Y2393500D01*
X1878929Y2359500D02*
X1879000D01*
Y2360500D01*
X1876929Y2357500D02*
X1878929Y2359500D01*
X1871740Y2357500D02*
X1876929D01*
X1861260Y2354500D02*
X1864260Y2357500D01*
X1854000Y2354500D02*
X1861260D01*
X1795000Y2356500D02*
Y2358500D01*
X1728118Y2261618D02*
X1764500Y2298000D01*
X1802000D01*
X1711618Y2261618D02*
X1728118D01*
X1656500D02*
X1711618D01*
X1806500Y2381500D02*
X1817000D01*
X1888000Y2530500D02*
Y2536000D01*
X1872500Y2515000D02*
X1888000Y2530500D01*
X1800000Y2515000D02*
X1872500D01*
X1859500Y2504500D02*
X1866000Y2511000D01*
X1895000Y2631575D02*
X1900925Y2637500D01*
X1895000Y2520000D02*
Y2631575D01*
X1886000Y2511000D02*
X1895000Y2520000D01*
X1866000Y2511000D02*
X1886000D01*
X1861000Y2504500D02*
X1863000D01*
X1859500D02*
X1861000D01*
X1985500Y2571000D02*
X1988000D01*
X1993500Y2565500D01*
Y2544000D02*
Y2565500D01*
X1868500Y2587500D02*
Y2667500D01*
X1863685Y2582685D02*
X1868500Y2587500D01*
X1860000Y2582685D02*
X1863685D01*
X1860000Y2572842D02*
X1861843D01*
X1859425Y2583260D02*
X1860000Y2582685D01*
X1851000Y2583260D02*
X1859425D01*
X1848925Y2581185D02*
X1851000Y2583260D01*
X1842500Y2581185D02*
X1848925D01*
X1858213Y2590740D02*
X1860000Y2592528D01*
X1851000Y2590740D02*
X1858213D01*
X1849925Y2591815D02*
X1851000Y2590740D01*
X1842500Y2591815D02*
X1849925D01*
X1899000Y2698000D02*
Y2699500D01*
X1868500Y2667500D02*
X1899000Y2698000D01*
X1809000Y2466500D02*
X1812500Y2470000D01*
X1803929Y2466500D02*
X1809000D01*
X1802929Y2467500D02*
X1803929Y2466500D01*
X1791260Y2467500D02*
X1802929D01*
X1790000Y2466240D02*
X1791260Y2467500D01*
X1813500Y2487000D02*
X1818500D01*
X1811000Y2489500D02*
X1813500Y2487000D01*
X1811000Y2489500D02*
Y2494500D01*
Y2504500D01*
X1632953Y2470500D02*
X1780500D01*
X1801000Y2491000D01*
Y2494500D01*
Y2504500D01*
X1673000Y2557000D02*
X1689000D01*
X1975740Y2544000D02*
X1993500D01*
X1969000Y2489000D02*
X1969000Y2489000D01*
X1961953Y2489000D02*
X1969000D01*
X1940000D02*
X1956047D01*
X1941500Y2304500D02*
Y2332500D01*
X1930000Y2322000D02*
X1931000D01*
X1941500Y2332500D01*
Y2343000D01*
Y2304500D02*
X1948500Y2297500D01*
Y2287760D02*
Y2297500D01*
X1982500Y2353500D02*
X1986500Y2349500D01*
X1959500Y2339740D02*
X1960260Y2340500D01*
X1959500Y2331000D02*
X1967000Y2323500D01*
X1959500Y2331000D02*
Y2332260D01*
X1812500Y2470000D02*
Y2479500D01*
X1806000Y2471500D02*
Y2476500D01*
X1804760Y2477740D02*
X1806000Y2476500D01*
X1804760Y2477740D02*
Y2481000D01*
X1905835Y2610000D02*
X1907878Y2612042D01*
Y2621500D01*
X1463512Y2623500D02*
X1466512Y2626500D01*
X1641500Y2248028D02*
Y2259500D01*
X1641075Y2232543D02*
X1655043D01*
X1658000Y2235500D01*
X1654472Y2248028D02*
X1658000Y2244500D01*
X1641500Y2248028D02*
X1654472D01*
X1577355Y2487645D02*
X1577500Y2487500D01*
X1619815Y2242583D02*
Y2244500D01*
Y2235000D02*
Y2237563D01*
X1513598Y2461791D02*
X1528791D01*
X1590912Y2710912D02*
X1600588D01*
X1612500Y2699000D01*
X1690240Y2633500D02*
Y2636740D01*
Y2624760D02*
Y2633500D01*
X1682760Y2617740D02*
Y2633500D01*
X1689500Y2637480D02*
X1690240Y2636740D01*
X2098000Y2247500D02*
X2105500D01*
X2108102Y2244898D01*
X2116425D01*
X2098000Y2247500D02*
Y2258000D01*
Y2266000D02*
X2110382D01*
X2116425Y2259957D01*
X2098000Y2239500D02*
X2122000D01*
X2125000Y2242500D01*
Y2249000D01*
X2124000Y2250000D02*
X2125000Y2249000D01*
X2116508Y2250000D02*
X2124000D01*
X2116425Y2249917D02*
X2116508Y2250000D01*
X1831000Y2278500D02*
Y2288500D01*
Y2234000D02*
Y2278500D01*
X2088000Y2247500D02*
X2098000D01*
X2111000Y2254500D02*
X2111437Y2254937D01*
X2116425D01*
X1831000Y2234000D02*
X1837000Y2228000D01*
X2068500D02*
X2088000Y2247500D01*
X2031029Y2484269D02*
X2034269D01*
X1962500Y2613240D02*
X1963000Y2613740D01*
X1483702Y2512109D02*
Y2515202D01*
X1513209Y2512109D02*
X1519101Y2518000D01*
X1605500D02*
X1607500Y2516000D01*
X1608500D01*
X1625953Y2463500D02*
X1632953Y2470500D01*
X1535000Y2679000D02*
X1597500Y2616500D01*
X1448500Y2679000D02*
X1535000D01*
X1443791Y2683709D02*
X1448500Y2679000D01*
X1443791Y2683709D02*
Y2694402D01*
X1665000Y2565000D02*
X1673000Y2557000D01*
X1482500Y2491600D02*
X1484300Y2493400D01*
X2118500Y2428600D02*
X2120300Y2430400D01*
X1977000Y2489000D02*
X1987000D01*
D66*
X1546000Y2434000D02*
X1553500D01*
X1658000Y2244500D02*
X1733000D01*
X1789500Y2350500D02*
Y2416000D01*
X1779500Y2426000D02*
X1789500Y2416000D01*
X1680020Y2615000D02*
Y2617738D01*
X1870020Y2111520D02*
X1888500Y2130000D01*
X1632500Y2231000D02*
Y2236000D01*
Y2231000D02*
X1646500Y2217000D01*
X1638000Y2226000D02*
X1725500D01*
X1788500Y2457000D02*
X1790000Y2458500D01*
X1575412Y2712500D02*
X1581324D01*
X1550500Y2677500D02*
Y2690500D01*
X1773500Y2253500D02*
X1791000Y2271000D01*
X1753000Y2253500D02*
X1773500D01*
X1725500Y2226000D02*
X1753000Y2253500D01*
X1748136Y2259636D02*
X1766636D01*
X1733000Y2244500D02*
X1748136Y2259636D01*
X1781000Y2274000D02*
Y2278500D01*
X1766636Y2259636D02*
X1781000Y2274000D01*
X1791000Y2271000D02*
Y2278500D01*
Y2280257D02*
Y2288500D01*
X1855240Y2449000D02*
X1862000Y2455760D01*
Y2458500D01*
X1846260Y2447500D02*
X1847760Y2449000D01*
X1839000Y2447500D02*
X1846260D01*
X1875740Y2411260D02*
X1887000D01*
X1851000Y2436000D02*
X1875740Y2411260D01*
X1851000Y2436000D02*
Y2438000D01*
X1859000Y2407000D02*
Y2416000D01*
X1842000Y2433000D02*
X1859000Y2416000D01*
X2071992Y2385500D02*
X2074492Y2388000D01*
X1992500Y2385500D02*
X2071992D01*
X1987500Y2380500D02*
X1992500Y2385500D01*
X1880000Y2354500D02*
X1881000D01*
X1875500Y2350000D02*
X1880000Y2354500D01*
X1875500Y2339500D02*
Y2350000D01*
Y2339500D02*
X1891000Y2324000D01*
X1903500D01*
X1918000Y2309500D01*
Y2301000D02*
Y2309500D01*
X1887000Y2411260D02*
X1894000Y2404260D01*
X1738000Y2388000D02*
X1746000Y2380000D01*
X1772250D01*
X1775750Y2376500D01*
X1697500Y2401500D02*
X1767000D01*
X1673000Y2377000D02*
X1697500Y2401500D01*
X1767000D02*
X1776500Y2411000D01*
X1714500Y2389500D02*
X1720500D01*
X1751000Y2359000D01*
X1779500D01*
X1710607Y2370000D02*
X1754500Y2326107D01*
X1708107Y2370000D02*
X1710607D01*
X1702107Y2376000D02*
X1708107Y2370000D01*
X1696000Y2376000D02*
X1702107D01*
X1729500Y2374000D02*
X1758500Y2345000D01*
X1712500Y2374000D02*
X1729500D01*
X1710500Y2376000D02*
X1712500Y2374000D01*
X1709500Y2376000D02*
X1710500D01*
X1773000Y2398500D02*
X1776000Y2401500D01*
X1703500Y2398500D02*
X1773000D01*
X1680500Y2375500D02*
X1703500Y2398500D01*
X1886500Y2304000D02*
X1900000Y2317500D01*
X1805107Y2305500D02*
X1806607Y2304000D01*
X1886500D01*
X1789500Y2350500D02*
X1797500Y2342500D01*
X1772000Y2426000D02*
X1779500D01*
X1769260Y2423260D02*
X1772000Y2426000D01*
X1737000Y2423260D02*
X1769260D01*
X1798893Y2305500D02*
X1805107D01*
X1798393Y2305000D02*
X1798893Y2305500D01*
X1794500Y2305000D02*
X1798393D01*
X1787000Y2312500D02*
X1794500Y2305000D01*
X1805364Y2301000D02*
X1918000D01*
X1803864Y2302500D02*
X1805364Y2301000D01*
X1800136Y2302500D02*
X1803864D01*
X1799136Y2301500D02*
X1800136Y2302500D01*
X1772000Y2301500D02*
X1799136D01*
X1751500Y2322000D02*
X1772000Y2301500D01*
X1703000Y2433000D02*
X1842000D01*
X1701500Y2434500D02*
X1703000Y2433000D01*
X1746500Y2352500D02*
X1774500Y2324500D01*
X1777500D01*
X1735500Y2323000D02*
X1747000D01*
X1733000Y2320500D02*
X1735500Y2323000D01*
X1686000Y2365500D02*
X1710864D01*
X1751500Y2324864D01*
X1754500Y2326000D02*
X1768000Y2312500D01*
X1754500Y2326000D02*
Y2326107D01*
X1751500Y2322000D02*
Y2324864D01*
X1710240Y2320500D02*
X1733000D01*
X1758500Y2345000D02*
X1775500D01*
X1737500Y2352500D02*
X1746500D01*
X1768000Y2312500D02*
X1787000D01*
X1680500Y2361000D02*
Y2375500D01*
Y2361000D02*
X1683000Y2358500D01*
Y2336000D02*
Y2358500D01*
X1673000Y2333000D02*
Y2377000D01*
Y2333000D02*
X1675000Y2331000D01*
X1676000D01*
X1945000Y2440000D02*
X1973500Y2468500D01*
X1945000Y2416500D02*
Y2440000D01*
X1821000Y2278500D02*
Y2288500D01*
X2122008Y2606508D02*
Y2609791D01*
X2115500Y2600000D02*
X2122008Y2606508D01*
X2092500Y2609791D02*
X2094500Y2607791D01*
Y2594000D02*
Y2607791D01*
X1984000Y2380500D02*
X1987500D01*
X2104000Y2388000D02*
Y2388500D01*
X1781000Y2278500D02*
Y2288500D01*
X1906831Y2630547D02*
X1907878Y2629500D01*
X1906831Y2630547D02*
Y2637500D01*
X1582912Y2710178D02*
X1583912Y2709178D01*
X1582912Y2710178D02*
Y2710912D01*
X1597500Y2487500D02*
X1605500Y2479500D01*
X1619000D01*
Y2471500D02*
X1620047Y2470453D01*
Y2463500D02*
Y2470453D01*
X2017000Y2468000D02*
X2017500Y2467500D01*
X1727000Y2668000D02*
Y2783000D01*
X1782965Y2699465D02*
X1808158D01*
X1550500Y2690500D02*
X1572500Y2712500D01*
X1575412D01*
Y2717912D01*
X1581324Y2712500D02*
X1582912Y2710912D01*
X1633500Y2245500D02*
Y2259500D01*
Y2245500D02*
X1636417Y2242583D01*
X1641075D01*
X1634063Y2237563D02*
X1641075D01*
X1632500Y2236000D02*
X1634063Y2237563D01*
X1613000Y2463500D02*
X1620047D01*
X1609000Y2450500D02*
Y2459500D01*
X1613000Y2463500D01*
X1553500Y2434000D02*
X1555855Y2436355D01*
X1575000Y2706047D02*
X1575500Y2706547D01*
X1575000Y2696000D02*
Y2706047D01*
X1768000Y2684500D02*
X1782965Y2699465D01*
X1736000Y2684500D02*
X1768000D01*
X1734000Y2686500D02*
X1736000Y2684500D01*
X1734000Y2686500D02*
Y2776500D01*
X1741000Y2783500D01*
X1577412Y2717912D02*
X1588500Y2729000D01*
X1575412Y2717912D02*
X1577412D01*
X2031000Y2446240D02*
X2031029Y2446269D01*
X1969000Y2473000D02*
Y2489000D01*
X1906831Y2637500D02*
X1910331Y2641000D01*
X1911000D01*
X1727000Y2668000D02*
X1732000Y2663000D01*
X2031029Y2446269D02*
Y2474000D01*
Y2476789D01*
D67*
X1629000Y2439500D02*
X1637000D01*
X1612500D02*
X1626000D01*
X2165980Y2473500D02*
X2184000Y2491520D01*
X1400000Y2688500D02*
Y2717000D01*
X1399200Y2508000D02*
Y2532200D01*
X1422000Y2548500D02*
Y2552098D01*
X1416902Y2412500D02*
X1423000Y2418598D01*
X1396000Y2684500D02*
X1400000Y2688500D01*
X2147500Y2473500D02*
X2165980D01*
X2147500Y2550000D02*
X2179902D01*
X2147500Y2495500D02*
Y2516500D01*
Y2457098D02*
Y2473500D01*
X2179902Y2550000D02*
X2183500Y2553598D01*
X1406500Y2288902D02*
Y2292500D01*
X1418000Y2304000D01*
X1430000D01*
D68*
X2037000Y2830500D02*
X2081000D01*
X2037000D02*
X2037047Y2830453D01*
X2081000Y2830500D02*
X2086500Y2825000D01*
X2196902Y2716000D02*
X2201402Y2711500D01*
X2141480Y2716000D02*
X2196902D01*
X2176500Y2510480D02*
X2192000D01*
X1530000Y2247500D02*
X1541500Y2259000D01*
X1777500Y2201500D02*
X1788000Y2212000D01*
X1777500Y2131894D02*
Y2201500D01*
Y2131894D02*
X1810500Y2098894D01*
X1823000Y2691000D02*
X1848000Y2716000D01*
X1823000Y2635500D02*
Y2691000D01*
X1848000Y2716000D02*
X1922500D01*
X1742500Y2514000D02*
X1772500D01*
X1773500Y2515000D01*
X2083000Y2811000D02*
X2086500Y2814500D01*
X2074500Y2811000D02*
X2083000D01*
X2071500Y2814000D02*
X2074500Y2811000D01*
X2086500Y2814500D02*
Y2825000D01*
X2026453Y2830453D02*
X2037047D01*
X2020500Y2824500D02*
X2026453Y2830453D01*
X2020500Y2814000D02*
Y2824500D01*
X1922500Y2716000D02*
X2020500Y2814000D01*
X1790500Y2572000D02*
X1826000Y2607500D01*
X1844000D01*
X1848000Y2611500D01*
X1807500Y2620000D02*
X1823000Y2635500D01*
X1789500Y2620000D02*
X1807500D01*
X1782980Y2597020D02*
X1789500Y2590500D01*
X1781480Y2611980D02*
X1789500Y2620000D01*
X1610500Y2259000D02*
X1619815Y2249685D01*
Y2244500D02*
Y2247602D01*
Y2249685D01*
Y2154055D02*
X1620870Y2153000D01*
X1619815Y2154055D02*
Y2232543D01*
Y2235000D01*
X1541500Y2259000D02*
X1610500D01*
X2176500Y2510480D02*
X2183500Y2517480D01*
X2067902Y2710500D02*
X2121020D01*
X2126520Y2716000D01*
Y2699000D02*
Y2716000D01*
X2141480Y2699000D02*
Y2716000D01*
X1740000Y2647000D02*
X1746020Y2653020D01*
X1774500Y2611980D02*
X1781480D01*
X1746020Y2653020D02*
X1753500D01*
X1774500Y2597020D02*
X1782980D01*
D69*
X1756500Y2725000D02*
Y2739000D01*
X1793000Y2780500D02*
Y2819500D01*
Y2775500D02*
Y2780500D01*
X1756500Y2739000D02*
X1793000Y2775500D01*
D71*
X2146500Y2341000D02*
X2191500Y2386000D01*
X2087598Y2341000D02*
X2146500D01*
X2067000Y2320402D02*
X2087598Y2341000D01*
D72*
X2031000Y2438760D02*
X2040760D01*
X2159500Y2594500D02*
X2213500Y2648500D01*
X2128500Y2594500D02*
X2159500D01*
X2048638Y2514638D02*
X2128500Y2594500D01*
X1845075Y2572315D02*
X1859472D01*
X1941000Y2524500D02*
X1978900D01*
X1988762Y2514638D01*
X1928000Y2511500D02*
X1941000Y2524500D01*
X1908000Y2511500D02*
X1928000D01*
X1704000Y2564000D02*
X1802500D01*
X1675500Y2592500D02*
X1704000Y2564000D01*
X1675500Y2592500D02*
Y2602500D01*
X1668000Y2610000D02*
X1675500Y2602500D01*
X1656500Y2610000D02*
X1668000D01*
X1802500Y2564000D02*
X1813342Y2553157D01*
X1425000Y2705118D02*
X1443791Y2723909D01*
X1425000Y2687000D02*
Y2705118D01*
Y2687000D02*
X1439500Y2672500D01*
X2213500Y2648500D02*
Y2781000D01*
X1988762Y2514638D02*
X2048638D01*
X1830500Y2098894D02*
Y2104000D01*
X1815500Y2119000D02*
X1830500Y2104000D01*
X1815500Y2119000D02*
Y2140000D01*
X1819000Y2143500D01*
Y2214500D01*
X1803000Y2230500D02*
X1819000Y2214500D01*
X1770000Y2230500D02*
X1803000D01*
X1754500Y2246000D02*
X1770000Y2230500D01*
X1802000Y2317000D02*
X1822000Y2337000D01*
X1774260Y2317000D02*
X1802000D01*
X1822000Y2337000D02*
Y2354000D01*
X1661000Y2276500D02*
X1664661D01*
X1654063Y2269563D02*
X1661000Y2276500D01*
X1639437Y2269563D02*
X1654063D01*
X1635000Y2274000D02*
X1639437Y2269563D01*
X1644500Y2397000D02*
X1647339D01*
X1635000Y2387500D02*
X1644500Y2397000D01*
X1635000Y2385000D02*
Y2387500D01*
X1834500Y2682000D02*
X1849500Y2667000D01*
X1834500Y2682000D02*
Y2694000D01*
X1678000Y2423000D02*
Y2450500D01*
Y2423000D02*
X1685000Y2416000D01*
X1635000Y2335000D02*
X1642394D01*
X1635000Y2325000D02*
X1639005D01*
X1635616Y2315000D02*
X1647339Y2303278D01*
X1635000Y2315000D02*
X1635616D01*
X1635000Y2304287D02*
X1642946Y2296341D01*
X1635000Y2294000D02*
Y2295000D01*
Y2288839D02*
Y2294000D01*
X1615000Y2384000D02*
Y2385000D01*
Y2374000D02*
Y2384000D01*
Y2364000D02*
Y2374000D01*
Y2354000D02*
Y2364000D01*
Y2344000D02*
Y2354000D01*
Y2334000D02*
Y2344000D01*
Y2324000D02*
Y2334000D01*
Y2314000D02*
Y2324000D01*
Y2304000D02*
Y2314000D01*
Y2294000D02*
Y2304000D01*
Y2280500D02*
Y2294000D01*
X1635000Y2355000D02*
X1645505D01*
X1635000Y2345000D02*
X1645783D01*
X1635000Y2375000D02*
X1643611Y2383611D01*
X1635000Y2365000D02*
X1640222Y2370222D01*
X1615000Y2280500D02*
X1620020Y2275480D01*
Y2274000D02*
Y2275480D01*
X1627500Y2274000D02*
X1635000D01*
X1664661Y2383611D02*
Y2397000D01*
Y2370222D02*
Y2383611D01*
Y2356833D02*
Y2370222D01*
Y2343444D02*
Y2356833D01*
Y2330056D02*
Y2343444D01*
Y2316667D02*
Y2330056D01*
Y2303278D02*
Y2316667D01*
Y2289889D02*
Y2303278D01*
Y2276500D02*
Y2289889D01*
X1635000Y2288839D02*
X1647339Y2276500D01*
Y2289889D02*
Y2292661D01*
X1643659Y2296341D02*
X1647339Y2292661D01*
X1642946Y2296341D02*
X1643659D01*
X1635000Y2304287D02*
Y2305000D01*
X1639005Y2325000D02*
X1647339Y2316667D01*
X1642394Y2335000D02*
X1647339Y2330056D01*
X1645783Y2345000D02*
X1647339Y2343444D01*
X1645505Y2355000D02*
X1647339Y2356833D01*
X1640222Y2370222D02*
X1647339D01*
X1643611Y2383611D02*
X1647339D01*
X1760020Y2668480D02*
X1763000Y2665500D01*
Y2636500D02*
Y2665500D01*
Y2636500D02*
X1767500Y2632000D01*
X1772980Y2597020D02*
X1774500D01*
X1767500Y2602500D02*
X1772980Y2597020D01*
X1767500Y2602500D02*
Y2632000D01*
X2031500Y2814000D02*
X2043000Y2802500D01*
X2192000D01*
X2213500Y2781000D01*
X1901000Y2504500D02*
X1908000Y2511500D01*
X1901000Y2494500D02*
Y2504500D01*
X1746500Y2557000D02*
X1760500Y2543000D01*
Y2536000D02*
Y2543000D01*
Y2536000D02*
X1766500Y2529500D01*
X1840685Y2543000D02*
X1842260Y2541425D01*
Y2532500D02*
Y2541425D01*
X1849740Y2532500D02*
X1851315Y2534075D01*
Y2543000D01*
Y2543870D01*
X1841685Y2553500D02*
X1851315Y2543870D01*
X1830079Y2553157D02*
X1840236Y2543000D01*
X1840685D01*
X1860000Y2561931D02*
Y2563000D01*
X1856089Y2558020D02*
X1860000Y2561931D01*
X1855520Y2558020D02*
X1856089D01*
X1852315Y2554815D02*
X1855520Y2558020D01*
X1852315Y2553500D02*
Y2554815D01*
X1841685Y2561445D02*
X1843000Y2562760D01*
X1841685Y2553500D02*
Y2561445D01*
X1722500Y2589000D02*
X1727000Y2584500D01*
X1722500Y2589000D02*
Y2709000D01*
X1665000Y2766500D02*
X1722500Y2709000D01*
X1813342Y2553157D02*
X1830079D01*
X1639500Y2627000D02*
X1656500Y2610000D01*
X1606500Y2627000D02*
X1639500D01*
X1859472Y2572315D02*
X1860000Y2572842D01*
X1861000Y2494500D02*
Y2504500D01*
X1968000Y2543740D02*
X1968260Y2544000D01*
X1968000Y2534500D02*
Y2543740D01*
X1740000Y2676500D02*
X1748520Y2667980D01*
X1750500Y2668480D02*
X1760020D01*
X1711300Y2160400D02*
X1724900D01*
X1439500Y2672500D02*
X1526500D01*
X1597000Y2602000D01*
X1620000D01*
X1748520Y2667980D02*
X1753500D01*
X1843000Y2562760D02*
X1850425D01*
D74*
X1746500Y2552500D02*
Y2557000D01*
X1736000Y2542000D02*
X1746500Y2552500D01*
X1733000Y2542000D02*
X1736000D01*
D77*
X2013000Y2534500D02*
D03*
X1681500Y2573500D02*
D03*
X1930500Y2540500D02*
D03*
X1775000Y2388000D02*
D03*
X1804500Y2521500D02*
D03*
X1943500Y2513500D02*
D03*
X1684500Y2593500D02*
D03*
X2027500Y2523500D02*
D03*
X1733000Y2542000D02*
D03*
X1947500Y2353500D02*
D03*
X1991500Y2346000D02*
D03*
X1664500Y2679500D02*
D03*
X1990500Y2283000D02*
D03*
X1989500Y2338000D02*
D03*
X1858000Y2605500D02*
D03*
X1840000Y2369000D02*
D03*
X1906000Y2569000D02*
D03*
X1618500Y2489500D02*
D03*
X1660500Y2447500D02*
D03*
X1639500Y2524500D02*
D03*
X1701500Y2488000D02*
D03*
X1597165Y2373444D02*
D03*
Y2363389D02*
D03*
Y2353333D02*
D03*
Y2303056D02*
D03*
Y2313111D02*
D03*
Y2323167D02*
D03*
Y2293000D02*
D03*
Y2333222D02*
D03*
Y2383500D02*
D03*
Y2343278D02*
D03*
X2177500Y2092000D02*
D03*
Y2228000D02*
D03*
X2147500Y2420500D02*
D03*
X2209500Y2173000D02*
D03*
X1365000Y2394000D02*
D03*
X1362500Y2264500D02*
D03*
X1771000Y2288500D02*
D03*
X1781000Y2278500D02*
D03*
Y2288500D02*
D03*
X1791000Y2278500D02*
D03*
Y2288500D02*
D03*
X1801000Y2278500D02*
D03*
Y2288500D02*
D03*
X1811000Y2278500D02*
D03*
Y2288500D02*
D03*
X1821000Y2278500D02*
D03*
Y2288500D02*
D03*
X1831000Y2278500D02*
D03*
Y2288500D02*
D03*
X1841000Y2278500D02*
D03*
Y2288500D02*
D03*
X1851000Y2278500D02*
D03*
Y2288500D02*
D03*
X1861000Y2278500D02*
D03*
Y2288500D02*
D03*
X1871000Y2278500D02*
D03*
Y2288500D02*
D03*
X1881000Y2278500D02*
D03*
Y2288500D02*
D03*
X1891000Y2278500D02*
D03*
Y2288500D02*
D03*
X1901000Y2278500D02*
D03*
Y2288500D02*
D03*
X1911000Y2278500D02*
D03*
Y2288500D02*
D03*
X1921000Y2278500D02*
D03*
Y2288500D02*
D03*
X1635000Y2384000D02*
D03*
X1625000Y2374000D02*
D03*
X1635000D02*
D03*
X1625000Y2364000D02*
D03*
X1635000D02*
D03*
X1625000Y2354000D02*
D03*
X1635000D02*
D03*
X1625000Y2344000D02*
D03*
X1635000D02*
D03*
X1625000Y2334000D02*
D03*
X1635000D02*
D03*
X1625000Y2324000D02*
D03*
X1635000D02*
D03*
X1625000Y2314000D02*
D03*
X1635000D02*
D03*
X1625000Y2304000D02*
D03*
X1635000D02*
D03*
X1625000Y2294000D02*
D03*
X1635000D02*
D03*
X1615000Y2364000D02*
D03*
Y2294000D02*
D03*
Y2304000D02*
D03*
Y2314000D02*
D03*
Y2324000D02*
D03*
Y2334000D02*
D03*
Y2344000D02*
D03*
Y2354000D02*
D03*
Y2374000D02*
D03*
X2031500Y2814000D02*
D03*
Y2824000D02*
D03*
X2041500Y2814000D02*
D03*
Y2824000D02*
D03*
X2051500Y2814000D02*
D03*
Y2824000D02*
D03*
X2061500Y2814000D02*
D03*
Y2824000D02*
D03*
X2071500Y2814000D02*
D03*
X1771000Y2504500D02*
D03*
X1781000Y2494500D02*
D03*
Y2504500D02*
D03*
X1791000Y2494500D02*
D03*
Y2504500D02*
D03*
X1801000Y2494500D02*
D03*
Y2504500D02*
D03*
X1811000Y2494500D02*
D03*
Y2504500D02*
D03*
X1821000Y2494500D02*
D03*
Y2504500D02*
D03*
X1831000Y2494500D02*
D03*
Y2504500D02*
D03*
X1841000Y2494500D02*
D03*
Y2504500D02*
D03*
X1851000Y2494500D02*
D03*
Y2504500D02*
D03*
X1861000Y2494500D02*
D03*
Y2504500D02*
D03*
X1871000Y2494500D02*
D03*
Y2504500D02*
D03*
X1881000Y2494500D02*
D03*
Y2504500D02*
D03*
X1891000Y2494500D02*
D03*
Y2504500D02*
D03*
X1901000Y2494500D02*
D03*
Y2504500D02*
D03*
X1911000Y2494500D02*
D03*
Y2504500D02*
D03*
X1860000Y2533472D02*
D03*
Y2543315D02*
D03*
Y2553157D02*
D03*
Y2563000D02*
D03*
Y2572842D02*
D03*
Y2582685D02*
D03*
Y2592528D02*
D03*
X1830079Y2533472D02*
D03*
Y2543315D02*
D03*
Y2553157D02*
D03*
Y2563000D02*
D03*
Y2572842D02*
D03*
Y2582685D02*
D03*
X1799500Y2123500D02*
D03*
X1888500Y2130000D02*
D03*
X1758500Y2784500D02*
D03*
X1887500Y2595000D02*
D03*
X1715000Y2654500D02*
D03*
X1876000Y2757500D02*
D03*
X1821500Y2253000D02*
D03*
X2142000Y2817500D02*
D03*
X1949000Y2826500D02*
D03*
X2006000Y2263000D02*
D03*
X1854500Y2103000D02*
D03*
X1727000Y2783000D02*
D03*
X1741000Y2783500D02*
D03*
X1874500Y2616000D02*
D03*
X1611000Y2508000D02*
D03*
X2034500Y2406000D02*
D03*
X1967000Y2444000D02*
D03*
X1607500Y2399500D02*
D03*
X2169000Y2817500D02*
D03*
X1681000Y2170000D02*
D03*
X1692000Y2783000D02*
D03*
X1494500Y2820500D02*
D03*
X1556500Y2788000D02*
D03*
X1550500Y2677500D02*
D03*
X1810500Y2098894D02*
D03*
X1820500Y2088894D02*
D03*
Y2098894D02*
D03*
X1830500Y2088894D02*
D03*
Y2098894D02*
D03*
X1840500Y2088894D02*
D03*
Y2098894D02*
D03*
X1904500Y2203000D02*
D03*
X1696500Y2516500D02*
D03*
X1646500Y2217000D02*
D03*
X1362000Y2339000D02*
D03*
X1404500Y2805500D02*
D03*
X1808488Y2700980D02*
D03*
Y2681000D02*
D03*
Y2651669D02*
D03*
Y2641630D02*
D03*
X1679500Y2616000D02*
D03*
X1699480D02*
D03*
X1728811D02*
D03*
X1738850D02*
D03*
D78*
X1878000Y2212000D02*
D03*
X1868000D02*
D03*
X1808000D02*
D03*
X1788000D02*
D03*
Y2152000D02*
D03*
X1808000D02*
D03*
X1868000D02*
D03*
X1878000D02*
D03*
X1740000Y2676500D02*
D03*
Y2647000D02*
D03*
X1770000D02*
D03*
Y2676500D02*
D03*
X1789500Y2590500D02*
D03*
Y2620000D02*
D03*
X1759500D02*
D03*
Y2590500D02*
D03*
X1723500Y2200000D02*
D03*
X1733500D02*
D03*
X1743500D02*
D03*
D79*
X1903500Y2471500D02*
D03*
D80*
X1908500D02*
D03*
X1913500D02*
D03*
D81*
X1971000Y2264000D02*
D03*
X1736000Y2441000D02*
D03*
X1706000Y2331000D02*
D03*
X1684500Y2284500D02*
D03*
X1928000Y2405000D02*
D03*
X1839000Y2452500D02*
D03*
X1926000Y2445000D02*
D03*
X1960500Y2409000D02*
D03*
X1728000Y2405500D02*
D03*
X1854000Y2349500D02*
D03*
D82*
X1971000Y2259000D02*
D03*
Y2254000D02*
D03*
X1736000Y2446000D02*
D03*
Y2451000D02*
D03*
X1706000Y2336000D02*
D03*
Y2341000D02*
D03*
X1684500Y2289500D02*
D03*
Y2294500D02*
D03*
X1928000Y2395000D02*
D03*
Y2400000D02*
D03*
X1839000Y2447500D02*
D03*
Y2442500D02*
D03*
X1926000Y2440000D02*
D03*
Y2435000D02*
D03*
X1960500Y2404000D02*
D03*
Y2399000D02*
D03*
X1728000Y2410500D02*
D03*
Y2415500D02*
D03*
X1854000Y2354500D02*
D03*
Y2359500D02*
D03*
D83*
X1656500Y2261618D02*
D03*
X1711618D02*
D03*
Y2206500D02*
D03*
X1656500D02*
D03*
D84*
X1726500Y2557000D02*
D03*
X1736500D02*
D03*
X1746500D02*
D03*
X1925500Y2526000D02*
D03*
X1915500D02*
D03*
X1905500D02*
D03*
X1948000Y2534500D02*
D03*
X1958000D02*
D03*
X1968000D02*
D03*
X1994500Y2520000D02*
D03*
X2004500D02*
D03*
X2014500D02*
D03*
X1987000Y2323500D02*
D03*
X1977000D02*
D03*
X1967000D02*
D03*
X1987000Y2301500D02*
D03*
X1977000D02*
D03*
X1967000D02*
D03*
X1640000Y2485500D02*
D03*
X1650000D02*
D03*
X1660000D02*
D03*
X1641000Y2463500D02*
D03*
X1651000D02*
D03*
X1661000D02*
D03*
X1645000Y2565000D02*
D03*
X1655000D02*
D03*
X1665000D02*
D03*
X1645000Y2543000D02*
D03*
X1655000D02*
D03*
X1665000D02*
D03*
D85*
X1956000Y2517500D02*
D03*
X1976000D02*
D03*
Y2497500D02*
D03*
X1956000D02*
D03*
X1905835Y2610000D02*
D03*
X1925835D02*
D03*
Y2590000D02*
D03*
X1905835D02*
D03*
X1572500Y2789500D02*
D03*
X1592500D02*
D03*
Y2769500D02*
D03*
X1572500D02*
D03*
X1613000Y2429500D02*
D03*
Y2409500D02*
D03*
X1593000D02*
D03*
Y2429500D02*
D03*
X1577500Y2487500D02*
D03*
X1597500D02*
D03*
Y2507500D02*
D03*
X1577500D02*
D03*
X1592500Y2679000D02*
D03*
X1612500D02*
D03*
Y2699000D02*
D03*
X1592500D02*
D03*
X1893000Y2659000D02*
D03*
X1913000D02*
D03*
Y2679000D02*
D03*
X1893000D02*
D03*
X2003500Y2408000D02*
D03*
X2023500D02*
D03*
Y2428000D02*
D03*
X2003500D02*
D03*
D86*
X1966000Y2507500D02*
D03*
X1407000Y2149000D02*
D03*
X1915835Y2600000D02*
D03*
X1582500Y2779500D02*
D03*
X1603000Y2419500D02*
D03*
X1587500Y2497500D02*
D03*
X1602500Y2689000D02*
D03*
X1903000Y2669000D02*
D03*
X1547000Y2149500D02*
D03*
X2103130Y2149000D02*
D03*
X1963130Y2148500D02*
D03*
X2013500Y2418000D02*
D03*
D87*
X1369500Y2799000D02*
D03*
Y2779000D02*
D03*
X1461402Y2822500D02*
D03*
X1421902D02*
D03*
X1366500Y2717000D02*
D03*
X1400000D02*
D03*
X1399200Y2508000D02*
D03*
X1365700D02*
D03*
X2009500Y2760000D02*
D03*
Y2780000D02*
D03*
D88*
X1870020Y2100000D02*
D03*
X1695020Y2108685D02*
D03*
X1711300Y2160400D02*
D03*
D89*
X1890000Y2100000D02*
D03*
X1732500Y2108685D02*
D03*
X1769980D02*
D03*
X1748800Y2160400D02*
D03*
X2200936Y2197626D02*
D03*
D90*
X1446370Y2149000D02*
D03*
X1586370Y2149500D02*
D03*
X2142500Y2149000D02*
D03*
X2002500Y2148500D02*
D03*
D91*
X1463012Y2623500D02*
D03*
Y2660000D02*
D03*
Y2569000D02*
D03*
Y2530500D02*
D03*
X2043512Y2632500D02*
D03*
Y2669000D02*
D03*
Y2578000D02*
D03*
Y2539500D02*
D03*
D92*
X1627472Y2575000D02*
D03*
X1487528D02*
D03*
Y2615000D02*
D03*
X1627472D02*
D03*
X1478795Y2361346D02*
D03*
Y2420512D02*
D03*
X2096500Y2309000D02*
D03*
Y2368165D02*
D03*
X2207972Y2584000D02*
D03*
X2068028D02*
D03*
Y2624000D02*
D03*
X2207972D02*
D03*
D93*
X2200936Y2217606D02*
D03*
D94*
X1830000Y2819500D02*
D03*
X1793000D02*
D03*
Y2780500D02*
D03*
X1830000D02*
D03*
D95*
X1406500Y2328402D02*
D03*
Y2288902D02*
D03*
X2135500Y2755000D02*
D03*
Y2788500D02*
D03*
X2147500Y2550000D02*
D03*
Y2516500D02*
D03*
X2046500Y2281500D02*
D03*
X2026500D02*
D03*
X1450000Y2304000D02*
D03*
X1430000D02*
D03*
X1990500Y2716598D02*
D03*
Y2756098D02*
D03*
X2067000Y2320402D02*
D03*
Y2280902D02*
D03*
D96*
X1750110Y2818567D02*
D03*
Y2698567D02*
D03*
X1647610Y2698067D02*
D03*
Y2819067D02*
D03*
X1864390Y2698933D02*
D03*
Y2818933D02*
D03*
X1966890Y2819433D02*
D03*
Y2698433D02*
D03*
D97*
X2062402Y2710500D02*
D03*
X2195902Y2711500D02*
D03*
X1418000Y2740098D02*
D03*
X1419000Y2606598D02*
D03*
X1422000Y2552098D02*
D03*
X1423000Y2418598D02*
D03*
X2185992Y2417980D02*
D03*
X2185000Y2519244D02*
D03*
D98*
X1826000Y2133500D02*
D03*
X1836000D02*
D03*
D99*
X1846000D02*
D03*
D100*
X1525500Y2248000D02*
D03*
Y2384500D02*
D03*
X2191500Y2386000D02*
D03*
Y2249500D02*
D03*
D101*
X2137000Y2257500D02*
D03*
X2144000Y2256500D02*
D03*
X1777500Y2733000D02*
D03*
X1844000Y2736000D02*
D03*
X1850000D02*
D03*
X1794500Y2733500D02*
D03*
X1947000Y2573500D02*
D03*
X1900500Y2580500D02*
D03*
X1938500Y2553500D02*
D03*
X1784000Y2365000D02*
D03*
X1785000Y2394500D02*
D03*
X1668500Y2601500D02*
D03*
X1689000Y2653000D02*
D03*
X1850000Y2472500D02*
D03*
X2063500Y2253500D02*
D03*
Y2259500D02*
D03*
X1950500Y2222500D02*
D03*
X1934000Y2210500D02*
D03*
X1754500Y2246000D02*
D03*
X1895500Y2452000D02*
D03*
X1862000Y2458500D02*
D03*
X1776000Y2421000D02*
D03*
X1839000Y2472000D02*
D03*
X1745000Y2481000D02*
D03*
X1744000Y2522500D02*
D03*
X1786000Y2427500D02*
D03*
X1864500Y2431000D02*
D03*
X1883500Y2432260D02*
D03*
X1891000Y2446500D02*
D03*
X1851000Y2438000D02*
D03*
X1870000Y2369000D02*
D03*
X1904000Y2406500D02*
D03*
X1859000Y2407000D02*
D03*
X1879000Y2360500D02*
D03*
X1846000Y2329500D02*
D03*
X1954000Y2258000D02*
D03*
X1920000Y2368000D02*
D03*
X1881000Y2354500D02*
D03*
X1894000Y2404260D02*
D03*
X1882740D02*
D03*
X1911500Y2363000D02*
D03*
X1882000Y2376500D02*
D03*
X1894740Y2411740D02*
D03*
X1882260Y2346500D02*
D03*
X1902760D02*
D03*
X1775750Y2376500D02*
D03*
X1738000Y2388000D02*
D03*
X1714500Y2389500D02*
D03*
X1709500Y2376000D02*
D03*
X1820500Y2308500D02*
D03*
X1797500Y2342500D02*
D03*
X1779500Y2359000D02*
D03*
X1795000Y2356500D02*
D03*
X1737000Y2423260D02*
D03*
X1701500Y2434500D02*
D03*
X1784000Y2330500D02*
D03*
X1777500Y2324500D02*
D03*
X1747000Y2323000D02*
D03*
X1710240Y2320500D02*
D03*
X1703000Y2295500D02*
D03*
X1790500Y2250500D02*
D03*
X1802000Y2298000D02*
D03*
X1775500Y2345000D02*
D03*
X1776500Y2333500D02*
D03*
X1774260Y2317000D02*
D03*
X1776000Y2308000D02*
D03*
X1821500Y2326500D02*
D03*
Y2318000D02*
D03*
X1729500Y2336500D02*
D03*
X1744000Y2317000D02*
D03*
X1737500Y2352500D02*
D03*
X1732000Y2253000D02*
D03*
X1731000Y2327500D02*
D03*
X1752500Y2335000D02*
D03*
X1776000Y2401500D02*
D03*
X1683000Y2336000D02*
D03*
X1922000Y2537500D02*
D03*
X1675000Y2331000D02*
D03*
X1776500Y2411000D02*
D03*
X1884500Y2518500D02*
D03*
X1915000Y2558500D02*
D03*
X1832953Y2338000D02*
D03*
X1900000Y2317500D02*
D03*
X1822000Y2354000D02*
D03*
X1817000Y2381500D02*
D03*
X1856000D02*
D03*
X1818500Y2405000D02*
D03*
X1945000Y2416500D02*
D03*
X1655000Y2633500D02*
D03*
X1824000Y2713500D02*
D03*
X1834500Y2694000D02*
D03*
X1844847Y2634500D02*
D03*
X1883000Y2241000D02*
D03*
X1863500Y2241500D02*
D03*
X1888000Y2536000D02*
D03*
X1900000Y2554000D02*
D03*
X1800000Y2515000D02*
D03*
X1742500Y2514000D02*
D03*
X1685000Y2416000D02*
D03*
X1696500Y2357000D02*
D03*
X1707000Y2521500D02*
D03*
X1690000Y2431996D02*
D03*
X1709421Y2581740D02*
D03*
X1696000Y2376000D02*
D03*
X1686000Y2365500D02*
D03*
X1918000Y2301000D02*
D03*
X1867500Y2320000D02*
D03*
X1775500Y2703500D02*
D03*
X1771500Y2711000D02*
D03*
X1754000Y2720500D02*
D03*
X1760000D02*
D03*
X1754000Y2726500D02*
D03*
X1773500Y2515000D02*
D03*
X1790500Y2572000D02*
D03*
X1777500Y2549000D02*
D03*
X1848000Y2611500D02*
D03*
X1705000Y2640000D02*
D03*
X1985500Y2571000D02*
D03*
X1766500Y2529500D02*
D03*
X1727000Y2584500D02*
D03*
X1665000Y2766500D02*
D03*
X1606500Y2627000D02*
D03*
X1875500Y2536500D02*
D03*
X1882000Y2539500D02*
D03*
X1850425Y2562760D02*
D03*
X1922500Y2491000D02*
D03*
X1869500Y2551500D02*
D03*
X1881000Y2565000D02*
D03*
X1899000Y2699500D02*
D03*
X1689000Y2557000D02*
D03*
X1957000Y2561000D02*
D03*
X1993500Y2544000D02*
D03*
X1977000Y2564500D02*
D03*
X2115500Y2600000D02*
D03*
X2094500Y2594000D02*
D03*
X1930000Y2322000D02*
D03*
X1933000Y2335500D02*
D03*
X1948500Y2287760D02*
D03*
X1982500Y2353500D02*
D03*
X1941500Y2343000D02*
D03*
X1953000Y2306000D02*
D03*
X1984000Y2380500D02*
D03*
X2104000Y2388500D02*
D03*
X1812500Y2479500D02*
D03*
X1612500Y2439500D02*
D03*
X1790000Y2458500D02*
D03*
X1806000Y2471500D02*
D03*
X2063500Y2265500D02*
D03*
X2069500D02*
D03*
X1456500Y2277000D02*
D03*
Y2259000D02*
D03*
X1450500Y2271000D02*
D03*
Y2277000D02*
D03*
X1759815Y2726500D02*
D03*
X1658000Y2235500D02*
D03*
Y2244500D02*
D03*
X1456500Y2271000D02*
D03*
X1450500Y2265000D02*
D03*
X1456500D02*
D03*
X1451000Y2259000D02*
D03*
X1615500Y2450500D02*
D03*
X1555000Y2757000D02*
D03*
X1544500Y2714000D02*
D03*
X1542500Y2733500D02*
D03*
X1575000Y2696000D02*
D03*
X1705000Y2662000D02*
D03*
X2150000Y2255500D02*
D03*
Y2262000D02*
D03*
X2143000D02*
D03*
X2137000D02*
D03*
Y2269000D02*
D03*
X2143000D02*
D03*
X2150000D02*
D03*
X2069500Y2259500D02*
D03*
Y2247500D02*
D03*
Y2253500D02*
D03*
X2063500Y2247500D02*
D03*
X2096500Y2266000D02*
D03*
X2111000Y2254500D02*
D03*
X1594500Y2731000D02*
D03*
X1639500Y2662500D02*
D03*
X1654500Y2672500D02*
D03*
X1969000Y2473000D02*
D03*
X1973500Y2468500D02*
D03*
X1844000Y2730000D02*
D03*
X1850000D02*
D03*
X1855500Y2736000D02*
D03*
Y2730000D02*
D03*
X1821000Y2723000D02*
D03*
X1913000Y2636000D02*
D03*
X1884500Y2633500D02*
D03*
X1849500Y2667000D02*
D03*
X1732000Y2663000D02*
D03*
X1812500Y2243500D02*
D03*
X1625500Y2510500D02*
D03*
X1608500Y2516000D02*
D03*
X1670000Y2501260D02*
D03*
X1697500Y2478000D02*
D03*
X1597500Y2616500D02*
D03*
X1663000Y2620000D02*
D03*
X1620000Y2602000D02*
D03*
X1677500Y2580760D02*
D03*
X1700500Y2550000D02*
D03*
X1678000Y2450500D02*
D03*
X1684598Y2481902D02*
D03*
X1696000Y2463000D02*
D03*
X1684000Y2518000D02*
D03*
X1701500Y2538000D02*
D03*
X1664000Y2653500D02*
D03*
X1682500Y2657500D02*
D03*
X1935500Y2244000D02*
D03*
D102*
X1488500Y2505500D02*
D03*
X1483500D02*
D03*
X1478500D02*
D03*
X2151500Y2620500D02*
D03*
X2156500D02*
D03*
X2146500D02*
D03*
X2156500Y2631500D02*
D03*
Y2626000D02*
D03*
X2161500D02*
D03*
X2151500Y2631500D02*
D03*
Y2626000D02*
D03*
X2161500Y2620500D02*
D03*
X2156500Y2637000D02*
D03*
X2161500Y2631500D02*
D03*
X2146500Y2626000D02*
D03*
X1452000Y2710500D02*
D03*
X1463500D02*
D03*
X1458000D02*
D03*
X1463000Y2705500D02*
D03*
X1457500D02*
D03*
X1452000D02*
D03*
X1489500Y2684500D02*
D03*
Y2695500D02*
D03*
Y2690000D02*
D03*
X1494500Y2695500D02*
D03*
X1452000Y2701000D02*
D03*
X1457500D02*
D03*
X1463000D02*
D03*
X1468500D02*
D03*
X1474000D02*
D03*
X1479500D02*
D03*
X1452000Y2695500D02*
D03*
X1457500D02*
D03*
X1463000D02*
D03*
X1468500D02*
D03*
X1474000D02*
D03*
X1479500D02*
D03*
X1452000Y2690000D02*
D03*
X1457500D02*
D03*
X1463000D02*
D03*
X1468500D02*
D03*
X1474000D02*
D03*
X1479500D02*
D03*
X1452000Y2684500D02*
D03*
X1457500D02*
D03*
X1463000D02*
D03*
X1468500D02*
D03*
X1474000D02*
D03*
X1479500D02*
D03*
X1484500Y2701000D02*
D03*
Y2695500D02*
D03*
Y2690000D02*
D03*
Y2684500D02*
D03*
X1464000Y2501000D02*
D03*
Y2496000D02*
D03*
Y2491000D02*
D03*
Y2486000D02*
D03*
Y2481000D02*
D03*
Y2476000D02*
D03*
Y2471000D02*
D03*
Y2466000D02*
D03*
Y2461000D02*
D03*
Y2506000D02*
D03*
X1488500Y2501000D02*
D03*
Y2496000D02*
D03*
Y2491000D02*
D03*
Y2486000D02*
D03*
Y2481000D02*
D03*
Y2476000D02*
D03*
Y2471000D02*
D03*
Y2466000D02*
D03*
Y2461000D02*
D03*
X1483500Y2501000D02*
D03*
Y2496000D02*
D03*
Y2491000D02*
D03*
Y2486000D02*
D03*
Y2481000D02*
D03*
Y2476000D02*
D03*
Y2471000D02*
D03*
Y2466000D02*
D03*
Y2461000D02*
D03*
X1478500Y2501000D02*
D03*
Y2496000D02*
D03*
Y2491000D02*
D03*
Y2486000D02*
D03*
Y2481000D02*
D03*
Y2476000D02*
D03*
Y2471000D02*
D03*
Y2466000D02*
D03*
Y2461000D02*
D03*
X1473500Y2501000D02*
D03*
Y2496000D02*
D03*
Y2491000D02*
D03*
Y2486000D02*
D03*
Y2481000D02*
D03*
Y2476000D02*
D03*
Y2471000D02*
D03*
Y2466000D02*
D03*
Y2461000D02*
D03*
X1468500Y2506000D02*
D03*
Y2461000D02*
D03*
Y2466000D02*
D03*
Y2471000D02*
D03*
Y2476000D02*
D03*
Y2481000D02*
D03*
Y2486000D02*
D03*
Y2491000D02*
D03*
Y2496000D02*
D03*
Y2501000D02*
D03*
X1473500Y2506000D02*
D03*
X2114500Y2443000D02*
D03*
X2119500D02*
D03*
X2109500D02*
D03*
X2104500Y2438000D02*
D03*
Y2433000D02*
D03*
Y2428000D02*
D03*
Y2423000D02*
D03*
Y2418000D02*
D03*
Y2413000D02*
D03*
Y2408000D02*
D03*
Y2403000D02*
D03*
Y2398000D02*
D03*
Y2443000D02*
D03*
X2109500Y2398000D02*
D03*
Y2403000D02*
D03*
Y2408000D02*
D03*
Y2413000D02*
D03*
Y2418000D02*
D03*
Y2423000D02*
D03*
Y2428000D02*
D03*
Y2433000D02*
D03*
Y2438000D02*
D03*
X2114500Y2398000D02*
D03*
Y2403000D02*
D03*
Y2408000D02*
D03*
Y2413000D02*
D03*
Y2418000D02*
D03*
Y2423000D02*
D03*
Y2428000D02*
D03*
Y2433000D02*
D03*
Y2438000D02*
D03*
X2119500Y2398000D02*
D03*
Y2403000D02*
D03*
Y2408000D02*
D03*
Y2413000D02*
D03*
Y2418000D02*
D03*
Y2423000D02*
D03*
Y2428000D02*
D03*
Y2433000D02*
D03*
Y2438000D02*
D03*
X2124500Y2398000D02*
D03*
Y2403000D02*
D03*
Y2408000D02*
D03*
Y2413000D02*
D03*
Y2418000D02*
D03*
Y2423000D02*
D03*
Y2428000D02*
D03*
Y2433000D02*
D03*
Y2438000D02*
D03*
Y2443000D02*
D03*
X2100000D02*
D03*
Y2398000D02*
D03*
Y2403000D02*
D03*
Y2408000D02*
D03*
Y2413000D02*
D03*
Y2418000D02*
D03*
Y2423000D02*
D03*
Y2428000D02*
D03*
Y2433000D02*
D03*
Y2438000D02*
D03*
X2141000Y2620500D02*
D03*
X2135500D02*
D03*
X2130000D02*
D03*
X2124500D02*
D03*
X2119000D02*
D03*
X2141000Y2626000D02*
D03*
X2135500D02*
D03*
X2130000D02*
D03*
X2124500D02*
D03*
X2119000D02*
D03*
X2146500Y2631500D02*
D03*
X2141000D02*
D03*
X2135500D02*
D03*
X2130000D02*
D03*
X2124500D02*
D03*
X2119000D02*
D03*
X2146500Y2637000D02*
D03*
X2141000D02*
D03*
X2135500D02*
D03*
X2130000D02*
D03*
X2124500D02*
D03*
X2119000D02*
D03*
X2146500Y2642500D02*
D03*
X2141000D02*
D03*
X2135500D02*
D03*
X2130000D02*
D03*
X2124500D02*
D03*
X2119000D02*
D03*
X2146500Y2648000D02*
D03*
X2141000D02*
D03*
X2135500D02*
D03*
X2130000D02*
D03*
X2124500D02*
D03*
X2119000D02*
D03*
X2151500D02*
D03*
Y2642500D02*
D03*
Y2637000D02*
D03*
X2156500Y2648000D02*
D03*
Y2642500D02*
D03*
X2119000Y2652500D02*
D03*
X2124500D02*
D03*
X2130000D02*
D03*
X2135500D02*
D03*
X2141000D02*
D03*
X2146500D02*
D03*
X2161500Y2637000D02*
D03*
Y2642500D02*
D03*
Y2648000D02*
D03*
X1468500Y2710500D02*
D03*
Y2705500D02*
D03*
X1474000Y2710500D02*
D03*
Y2705500D02*
D03*
X1479500Y2710500D02*
D03*
X1484500Y2705500D02*
D03*
X1479500D02*
D03*
X1494500Y2684500D02*
D03*
Y2690000D02*
D03*
D103*
X1545500Y2482000D02*
D03*
X1547500Y2482500D02*
D03*
X1549500D02*
D03*
X1545500Y2480000D02*
D03*
X1547500Y2479000D02*
D03*
X1549500D02*
D03*
X1919878Y2614500D02*
D03*
X1915378Y2617000D02*
D03*
X1585000Y2447000D02*
D03*
Y2450000D02*
D03*
X1589500Y2445500D02*
D03*
X1588000Y2447000D02*
D03*
X1586500Y2445500D02*
D03*
X1585000Y2453000D02*
D03*
X1591000Y2447000D02*
D03*
X1589500Y2448500D02*
D03*
X1592500Y2445500D02*
D03*
X1588000Y2450000D02*
D03*
X1586500Y2448500D02*
D03*
X1585000Y2456000D02*
D03*
X1591000Y2450000D02*
D03*
X1589500Y2451500D02*
D03*
X1592500Y2448500D02*
D03*
X1588000Y2453000D02*
D03*
X1586500Y2451500D02*
D03*
X1591000Y2453000D02*
D03*
X1589500Y2454500D02*
D03*
X1592500Y2451500D02*
D03*
X1588000Y2456000D02*
D03*
X1586500Y2454500D02*
D03*
X1583300Y2411300D02*
D03*
X1583400Y2413100D02*
D03*
X1583100Y2407400D02*
D03*
Y2409600D02*
D03*
X1584000Y2415000D02*
D03*
X1523000Y2712000D02*
D03*
X1558000Y2447000D02*
D03*
X1556000D02*
D03*
X1554000D02*
D03*
X1560000Y2449000D02*
D03*
Y2451000D02*
D03*
Y2453000D02*
D03*
Y2455000D02*
D03*
Y2457000D02*
D03*
X1558000Y2449000D02*
D03*
Y2451000D02*
D03*
Y2453000D02*
D03*
Y2455000D02*
D03*
Y2457000D02*
D03*
X1556000Y2449000D02*
D03*
Y2451000D02*
D03*
Y2453000D02*
D03*
Y2455000D02*
D03*
Y2457000D02*
D03*
X1554000Y2449000D02*
D03*
Y2451000D02*
D03*
Y2453000D02*
D03*
Y2455000D02*
D03*
Y2457000D02*
D03*
Y2461000D02*
D03*
Y2459000D02*
D03*
X1556000D02*
D03*
X1558000D02*
D03*
X1556000Y2461000D02*
D03*
X1926878Y2636500D02*
D03*
X1935878Y2637000D02*
D03*
X1933378Y2644000D02*
D03*
Y2640000D02*
D03*
Y2634000D02*
D03*
X1930878Y2632000D02*
D03*
X1928378Y2634000D02*
D03*
X1930378Y2637221D02*
D03*
X1928378Y2640000D02*
D03*
X1930378Y2642000D02*
D03*
X1928378Y2644000D02*
D03*
X1571633Y2738912D02*
D03*
X1569633Y2736912D02*
D03*
X1569412Y2731912D02*
D03*
Y2727912D02*
D03*
X1566912Y2729912D02*
D03*
X1564912Y2727912D02*
D03*
X1562912Y2729912D02*
D03*
X1564912Y2731912D02*
D03*
X1562912Y2734412D02*
D03*
X1566912Y2738912D02*
D03*
Y2734912D02*
D03*
X1564912Y2736912D02*
D03*
X1562912Y2738912D02*
D03*
X1591500Y2464500D02*
D03*
X1599000Y2472000D02*
D03*
X1590000Y2466000D02*
D03*
X1581000Y2415000D02*
D03*
X1578000D02*
D03*
X1575000D02*
D03*
X1576500Y2413500D02*
D03*
X1575000Y2412000D02*
D03*
X1576500Y2410500D02*
D03*
X1575000Y2409000D02*
D03*
X1576500Y2407500D02*
D03*
X1591000Y2456000D02*
D03*
X1592500Y2454500D02*
D03*
X1997500D02*
D03*
Y2451500D02*
D03*
Y2448500D02*
D03*
X1996000Y2447000D02*
D03*
Y2450000D02*
D03*
Y2453000D02*
D03*
X1994500Y2454500D02*
D03*
Y2451500D02*
D03*
Y2448500D02*
D03*
X1993000Y2447000D02*
D03*
Y2450000D02*
D03*
Y2453000D02*
D03*
X1991500Y2454500D02*
D03*
Y2451500D02*
D03*
Y2448500D02*
D03*
X1990000Y2447000D02*
D03*
Y2450000D02*
D03*
Y2453000D02*
D03*
X1988500Y2454500D02*
D03*
Y2451500D02*
D03*
Y2448500D02*
D03*
X1987000Y2447000D02*
D03*
Y2450000D02*
D03*
Y2453000D02*
D03*
X1985500Y2454500D02*
D03*
Y2451500D02*
D03*
Y2448500D02*
D03*
X2001000Y2462500D02*
D03*
X1998000D02*
D03*
X1999500Y2464000D02*
D03*
X2001000Y2465500D02*
D03*
X2002500Y2467000D02*
D03*
X2001000Y2468500D02*
D03*
X1995000D02*
D03*
X1996500Y2470000D02*
D03*
X2002500D02*
D03*
X2001000Y2471500D02*
D03*
X1998000D02*
D03*
X1995000D02*
D03*
X1996500Y2473000D02*
D03*
X1999500D02*
D03*
X2002500D02*
D03*
X2001000Y2474500D02*
D03*
X1998000D02*
D03*
X1995000D02*
D03*
X1985500Y2484500D02*
D03*
X1988500D02*
D03*
X1991500D02*
D03*
X1994500D02*
D03*
X1993000Y2483000D02*
D03*
X1990000D02*
D03*
X1987000D02*
D03*
X1994500Y2487500D02*
D03*
X1993000Y2486000D02*
D03*
X1990000D02*
D03*
X1987000D02*
D03*
X1993000Y2489000D02*
D03*
X1994500Y2490500D02*
D03*
X1991500D02*
D03*
X1574412Y2748912D02*
D03*
X1576912D02*
D03*
X1579412D02*
D03*
X1581912D02*
D03*
X1584412D02*
D03*
X1586912D02*
D03*
X1589412D02*
D03*
Y2750912D02*
D03*
X1586912D02*
D03*
X1584412D02*
D03*
X1581912D02*
D03*
X1579412D02*
D03*
X1576912D02*
D03*
X1574412D02*
D03*
X1589412Y2753412D02*
D03*
X1586912D02*
D03*
X1584412D02*
D03*
X1581912D02*
D03*
X1579412D02*
D03*
X1576912D02*
D03*
X1574412D02*
D03*
X1589412Y2755912D02*
D03*
X1586912D02*
D03*
X1584412D02*
D03*
X1581912D02*
D03*
X1579412D02*
D03*
X1576912D02*
D03*
X1574412D02*
D03*
X1589412Y2758412D02*
D03*
X1586912D02*
D03*
X1584412D02*
D03*
X1581912D02*
D03*
X1579412D02*
D03*
X1576912D02*
D03*
X1574412D02*
D03*
X1589412Y2760912D02*
D03*
X1586912D02*
D03*
X1584412D02*
D03*
X1581912D02*
D03*
X1579412D02*
D03*
X1576912D02*
D03*
X1574412D02*
D03*
X1915378Y2614500D02*
D03*
X1922378Y2619500D02*
D03*
Y2617000D02*
D03*
Y2614500D02*
D03*
X1919878Y2619500D02*
D03*
Y2617000D02*
D03*
X1917378D02*
D03*
Y2614500D02*
D03*
X2040209Y2480697D02*
D03*
Y2478197D02*
D03*
Y2475697D02*
D03*
Y2473197D02*
D03*
Y2470697D02*
D03*
Y2468197D02*
D03*
X2057709Y2493197D02*
D03*
Y2490697D02*
D03*
Y2488197D02*
D03*
Y2485697D02*
D03*
Y2483197D02*
D03*
Y2480697D02*
D03*
Y2478197D02*
D03*
Y2475697D02*
D03*
Y2473197D02*
D03*
Y2470697D02*
D03*
Y2468197D02*
D03*
X2055209Y2493197D02*
D03*
Y2490697D02*
D03*
Y2488197D02*
D03*
Y2485697D02*
D03*
Y2483197D02*
D03*
Y2480697D02*
D03*
Y2478197D02*
D03*
Y2475697D02*
D03*
Y2473197D02*
D03*
Y2470697D02*
D03*
Y2468197D02*
D03*
X2052709Y2493197D02*
D03*
Y2490697D02*
D03*
Y2488197D02*
D03*
Y2485697D02*
D03*
Y2483197D02*
D03*
Y2480697D02*
D03*
Y2478197D02*
D03*
Y2475697D02*
D03*
Y2473197D02*
D03*
Y2470697D02*
D03*
Y2468197D02*
D03*
X2050209Y2493197D02*
D03*
Y2490697D02*
D03*
Y2488197D02*
D03*
Y2485697D02*
D03*
Y2483197D02*
D03*
Y2480697D02*
D03*
Y2478197D02*
D03*
Y2475697D02*
D03*
Y2473197D02*
D03*
Y2470697D02*
D03*
Y2468197D02*
D03*
X2047709Y2493197D02*
D03*
Y2490697D02*
D03*
Y2488197D02*
D03*
Y2485697D02*
D03*
Y2483197D02*
D03*
Y2480697D02*
D03*
Y2478197D02*
D03*
Y2475697D02*
D03*
Y2473197D02*
D03*
Y2470697D02*
D03*
Y2468197D02*
D03*
X2045209Y2493197D02*
D03*
Y2490697D02*
D03*
Y2488197D02*
D03*
Y2485697D02*
D03*
Y2483197D02*
D03*
Y2480697D02*
D03*
Y2478197D02*
D03*
Y2475697D02*
D03*
Y2473197D02*
D03*
Y2470697D02*
D03*
Y2468197D02*
D03*
X2042709Y2480697D02*
D03*
Y2478197D02*
D03*
Y2475697D02*
D03*
Y2473197D02*
D03*
Y2470697D02*
D03*
Y2468197D02*
D03*
X1972709Y2600500D02*
D03*
Y2598000D02*
D03*
Y2595500D02*
D03*
Y2593000D02*
D03*
Y2590500D02*
D03*
Y2588000D02*
D03*
X1990209Y2613000D02*
D03*
Y2610500D02*
D03*
Y2608000D02*
D03*
Y2605500D02*
D03*
Y2603000D02*
D03*
Y2600500D02*
D03*
Y2598000D02*
D03*
Y2595500D02*
D03*
Y2593000D02*
D03*
Y2590500D02*
D03*
Y2588000D02*
D03*
X1987709Y2613000D02*
D03*
Y2610500D02*
D03*
Y2608000D02*
D03*
Y2605500D02*
D03*
Y2603000D02*
D03*
Y2600500D02*
D03*
Y2598000D02*
D03*
Y2595500D02*
D03*
Y2593000D02*
D03*
Y2590500D02*
D03*
Y2588000D02*
D03*
X1985209Y2613000D02*
D03*
Y2610500D02*
D03*
Y2608000D02*
D03*
Y2605500D02*
D03*
Y2603000D02*
D03*
Y2600500D02*
D03*
Y2598000D02*
D03*
Y2595500D02*
D03*
Y2593000D02*
D03*
Y2590500D02*
D03*
Y2588000D02*
D03*
X1982709Y2613000D02*
D03*
Y2610500D02*
D03*
Y2608000D02*
D03*
Y2605500D02*
D03*
Y2603000D02*
D03*
Y2600500D02*
D03*
Y2598000D02*
D03*
Y2595500D02*
D03*
Y2593000D02*
D03*
Y2590500D02*
D03*
Y2588000D02*
D03*
X1980209Y2613000D02*
D03*
Y2610500D02*
D03*
Y2608000D02*
D03*
Y2605500D02*
D03*
Y2603000D02*
D03*
Y2600500D02*
D03*
Y2598000D02*
D03*
Y2595500D02*
D03*
Y2593000D02*
D03*
Y2590500D02*
D03*
Y2588000D02*
D03*
X1977709Y2608000D02*
D03*
Y2605500D02*
D03*
Y2603000D02*
D03*
Y2600500D02*
D03*
Y2598000D02*
D03*
Y2595500D02*
D03*
Y2593000D02*
D03*
Y2590500D02*
D03*
Y2588000D02*
D03*
X1975209Y2600500D02*
D03*
Y2598000D02*
D03*
Y2595500D02*
D03*
Y2593000D02*
D03*
Y2590500D02*
D03*
Y2588000D02*
D03*
X1972709Y2649500D02*
D03*
Y2647000D02*
D03*
Y2644500D02*
D03*
Y2642000D02*
D03*
Y2639500D02*
D03*
Y2637000D02*
D03*
X1990209Y2662000D02*
D03*
Y2659500D02*
D03*
Y2657000D02*
D03*
Y2654500D02*
D03*
Y2652000D02*
D03*
Y2649500D02*
D03*
Y2647000D02*
D03*
Y2644500D02*
D03*
Y2642000D02*
D03*
Y2639500D02*
D03*
Y2637000D02*
D03*
X1987709Y2662000D02*
D03*
Y2659500D02*
D03*
Y2657000D02*
D03*
Y2654500D02*
D03*
Y2652000D02*
D03*
Y2649500D02*
D03*
Y2647000D02*
D03*
Y2644500D02*
D03*
Y2642000D02*
D03*
Y2639500D02*
D03*
Y2637000D02*
D03*
X1985209Y2662000D02*
D03*
Y2659500D02*
D03*
Y2657000D02*
D03*
Y2654500D02*
D03*
Y2652000D02*
D03*
Y2649500D02*
D03*
Y2647000D02*
D03*
Y2644500D02*
D03*
Y2642000D02*
D03*
Y2639500D02*
D03*
Y2637000D02*
D03*
X1982709Y2662000D02*
D03*
Y2659500D02*
D03*
Y2657000D02*
D03*
Y2654500D02*
D03*
Y2652000D02*
D03*
Y2649500D02*
D03*
Y2647000D02*
D03*
Y2644500D02*
D03*
Y2642000D02*
D03*
Y2639500D02*
D03*
Y2637000D02*
D03*
X1980209Y2662000D02*
D03*
Y2659500D02*
D03*
Y2657000D02*
D03*
Y2654500D02*
D03*
Y2652000D02*
D03*
Y2649500D02*
D03*
Y2647000D02*
D03*
Y2644500D02*
D03*
Y2642000D02*
D03*
Y2639500D02*
D03*
Y2637000D02*
D03*
X1977709Y2662000D02*
D03*
Y2659500D02*
D03*
Y2657000D02*
D03*
Y2654500D02*
D03*
Y2652000D02*
D03*
Y2649500D02*
D03*
Y2647000D02*
D03*
Y2644500D02*
D03*
Y2642000D02*
D03*
Y2639500D02*
D03*
Y2637000D02*
D03*
X1975209Y2649500D02*
D03*
Y2647000D02*
D03*
Y2644500D02*
D03*
Y2642000D02*
D03*
Y2639500D02*
D03*
Y2637000D02*
D03*
X1524291Y2771303D02*
D03*
Y2773803D02*
D03*
Y2776303D02*
D03*
Y2778803D02*
D03*
Y2781303D02*
D03*
Y2783803D02*
D03*
X1506791Y2758803D02*
D03*
Y2761303D02*
D03*
Y2763803D02*
D03*
Y2766303D02*
D03*
Y2768803D02*
D03*
Y2771303D02*
D03*
Y2773803D02*
D03*
Y2776303D02*
D03*
Y2778803D02*
D03*
Y2781303D02*
D03*
Y2783803D02*
D03*
X1509291Y2758803D02*
D03*
Y2761303D02*
D03*
Y2763803D02*
D03*
Y2766303D02*
D03*
Y2768803D02*
D03*
Y2771303D02*
D03*
Y2773803D02*
D03*
Y2776303D02*
D03*
Y2778803D02*
D03*
Y2781303D02*
D03*
Y2783803D02*
D03*
X1511791Y2758803D02*
D03*
Y2761303D02*
D03*
Y2763803D02*
D03*
Y2766303D02*
D03*
Y2768803D02*
D03*
Y2771303D02*
D03*
Y2773803D02*
D03*
Y2776303D02*
D03*
Y2778803D02*
D03*
Y2781303D02*
D03*
Y2783803D02*
D03*
X1514291Y2758803D02*
D03*
Y2761303D02*
D03*
Y2763803D02*
D03*
Y2766303D02*
D03*
Y2768803D02*
D03*
Y2771303D02*
D03*
Y2773803D02*
D03*
Y2776303D02*
D03*
Y2778803D02*
D03*
Y2781303D02*
D03*
Y2783803D02*
D03*
X1516791Y2758803D02*
D03*
Y2761303D02*
D03*
Y2763803D02*
D03*
Y2766303D02*
D03*
Y2768803D02*
D03*
Y2771303D02*
D03*
Y2773803D02*
D03*
Y2776303D02*
D03*
Y2778803D02*
D03*
Y2781303D02*
D03*
Y2783803D02*
D03*
X1519291Y2758803D02*
D03*
Y2761303D02*
D03*
Y2763803D02*
D03*
Y2766303D02*
D03*
Y2768803D02*
D03*
Y2771303D02*
D03*
Y2773803D02*
D03*
Y2776303D02*
D03*
Y2778803D02*
D03*
Y2781303D02*
D03*
Y2783803D02*
D03*
X1521791Y2771303D02*
D03*
Y2773803D02*
D03*
Y2776303D02*
D03*
Y2778803D02*
D03*
Y2781303D02*
D03*
Y2783803D02*
D03*
X1547402Y2439303D02*
D03*
Y2441803D02*
D03*
Y2444303D02*
D03*
Y2446803D02*
D03*
Y2449303D02*
D03*
Y2451803D02*
D03*
X1529902Y2426803D02*
D03*
Y2429303D02*
D03*
Y2431803D02*
D03*
Y2434303D02*
D03*
Y2436803D02*
D03*
Y2439303D02*
D03*
Y2441803D02*
D03*
Y2444303D02*
D03*
Y2446803D02*
D03*
Y2449303D02*
D03*
Y2451803D02*
D03*
X1532402Y2426803D02*
D03*
Y2429303D02*
D03*
Y2431803D02*
D03*
Y2434303D02*
D03*
Y2436803D02*
D03*
Y2439303D02*
D03*
Y2441803D02*
D03*
Y2444303D02*
D03*
Y2446803D02*
D03*
Y2449303D02*
D03*
Y2451803D02*
D03*
X1534902Y2426803D02*
D03*
Y2429303D02*
D03*
Y2431803D02*
D03*
Y2434303D02*
D03*
Y2436803D02*
D03*
Y2439303D02*
D03*
Y2441803D02*
D03*
Y2444303D02*
D03*
Y2446803D02*
D03*
Y2449303D02*
D03*
Y2451803D02*
D03*
X1537402Y2426803D02*
D03*
Y2429303D02*
D03*
Y2431803D02*
D03*
Y2434303D02*
D03*
Y2436803D02*
D03*
Y2439303D02*
D03*
Y2441803D02*
D03*
Y2444303D02*
D03*
Y2446803D02*
D03*
Y2449303D02*
D03*
Y2451803D02*
D03*
X1539902Y2426803D02*
D03*
Y2429303D02*
D03*
Y2431803D02*
D03*
Y2434303D02*
D03*
Y2436803D02*
D03*
Y2439303D02*
D03*
Y2441803D02*
D03*
Y2444303D02*
D03*
Y2446803D02*
D03*
Y2449303D02*
D03*
Y2451803D02*
D03*
X1542402Y2426803D02*
D03*
Y2429303D02*
D03*
Y2431803D02*
D03*
Y2434303D02*
D03*
Y2436803D02*
D03*
Y2439303D02*
D03*
Y2441803D02*
D03*
Y2444303D02*
D03*
Y2446803D02*
D03*
Y2449303D02*
D03*
Y2451803D02*
D03*
X1544902Y2439303D02*
D03*
Y2441803D02*
D03*
Y2444303D02*
D03*
Y2446803D02*
D03*
Y2449303D02*
D03*
Y2451803D02*
D03*
X1547402Y2486591D02*
D03*
Y2489091D02*
D03*
Y2491591D02*
D03*
Y2494091D02*
D03*
Y2496591D02*
D03*
Y2499091D02*
D03*
X1529902Y2474091D02*
D03*
Y2476591D02*
D03*
Y2479091D02*
D03*
Y2481591D02*
D03*
Y2484091D02*
D03*
Y2486591D02*
D03*
Y2489091D02*
D03*
Y2491591D02*
D03*
Y2494091D02*
D03*
Y2496591D02*
D03*
Y2499091D02*
D03*
X1532402Y2474091D02*
D03*
Y2476591D02*
D03*
Y2479091D02*
D03*
Y2481591D02*
D03*
Y2484091D02*
D03*
Y2486591D02*
D03*
Y2489091D02*
D03*
Y2491591D02*
D03*
Y2494091D02*
D03*
Y2496591D02*
D03*
Y2499091D02*
D03*
X1534902Y2474091D02*
D03*
Y2476591D02*
D03*
Y2479091D02*
D03*
Y2481591D02*
D03*
Y2484091D02*
D03*
Y2486591D02*
D03*
Y2489091D02*
D03*
Y2491591D02*
D03*
Y2494091D02*
D03*
Y2496591D02*
D03*
Y2499091D02*
D03*
X1537402Y2474091D02*
D03*
Y2476591D02*
D03*
Y2479091D02*
D03*
Y2481591D02*
D03*
Y2484091D02*
D03*
Y2486591D02*
D03*
Y2489091D02*
D03*
Y2491591D02*
D03*
Y2494091D02*
D03*
Y2496591D02*
D03*
Y2499091D02*
D03*
X1539902Y2474091D02*
D03*
Y2476591D02*
D03*
Y2479091D02*
D03*
Y2481591D02*
D03*
Y2484091D02*
D03*
Y2486591D02*
D03*
Y2489091D02*
D03*
Y2491591D02*
D03*
Y2494091D02*
D03*
Y2496591D02*
D03*
Y2499091D02*
D03*
X1542402Y2474091D02*
D03*
Y2476591D02*
D03*
Y2479091D02*
D03*
Y2481591D02*
D03*
Y2484091D02*
D03*
Y2486591D02*
D03*
Y2489091D02*
D03*
Y2491591D02*
D03*
Y2494091D02*
D03*
Y2496591D02*
D03*
Y2499091D02*
D03*
X1544902Y2486591D02*
D03*
Y2489091D02*
D03*
Y2491591D02*
D03*
Y2494091D02*
D03*
Y2496591D02*
D03*
Y2499091D02*
D03*
X1579500Y2412000D02*
D03*
X1579000Y2409500D02*
D03*
X1593000Y2466000D02*
D03*
X1594500Y2464500D02*
D03*
X1596000Y2466000D02*
D03*
X1597500Y2464500D02*
D03*
X1600000D02*
D03*
X1590000Y2469000D02*
D03*
X1591500Y2467500D02*
D03*
X1590000Y2472000D02*
D03*
X1594500Y2467500D02*
D03*
X1591500Y2473500D02*
D03*
Y2470500D02*
D03*
X1593000Y2469000D02*
D03*
X1601500Y2468000D02*
D03*
X1548500Y2435500D02*
D03*
X1545000Y2434000D02*
D03*
Y2432000D02*
D03*
X1547000D02*
D03*
X1548500D02*
D03*
X1550000D02*
D03*
X1546000Y2435500D02*
D03*
X1550500D02*
D03*
X1551500Y2479000D02*
D03*
Y2482500D02*
D03*
X1581200Y2409500D02*
D03*
X1581400Y2411300D02*
D03*
X1579000Y2407600D02*
D03*
X1581100Y2407400D02*
D03*
X1581400Y2413200D02*
D03*
X1596200Y2472800D02*
D03*
X1525500Y2712000D02*
D03*
X1528000D02*
D03*
X1526000Y2767500D02*
D03*
X1524000D02*
D03*
X1522000D02*
D03*
Y2765500D02*
D03*
X1523500Y2764000D02*
D03*
X1525500D02*
D03*
X1528000D02*
D03*
Y2767500D02*
D03*
X1531500Y2744500D02*
D03*
Y2742000D02*
D03*
Y2739500D02*
D03*
Y2737000D02*
D03*
Y2734500D02*
D03*
Y2732000D02*
D03*
X1534000Y2744500D02*
D03*
Y2742000D02*
D03*
Y2739500D02*
D03*
Y2737000D02*
D03*
Y2734500D02*
D03*
Y2732000D02*
D03*
X1536500Y2744500D02*
D03*
Y2742000D02*
D03*
Y2739500D02*
D03*
Y2737000D02*
D03*
Y2734500D02*
D03*
Y2732000D02*
D03*
X2042000Y2437500D02*
D03*
X2040000D02*
D03*
X2038000D02*
D03*
X2036000D02*
D03*
Y2440500D02*
D03*
X2038000D02*
D03*
X2040000D02*
D03*
X2042000Y2439500D02*
D03*
X2036000Y2488000D02*
D03*
Y2484500D02*
D03*
X2038000D02*
D03*
X2040000D02*
D03*
X2042000D02*
D03*
X2038000Y2488000D02*
D03*
X2040000D02*
D03*
X2042000D02*
D03*
X2029500Y2474000D02*
D03*
X2031500Y2472000D02*
D03*
X2029500D02*
D03*
X2027500D02*
D03*
Y2470000D02*
D03*
Y2468000D02*
D03*
Y2466000D02*
D03*
Y2464000D02*
D03*
X2029500Y2470000D02*
D03*
Y2468000D02*
D03*
Y2466000D02*
D03*
Y2464000D02*
D03*
Y2462000D02*
D03*
X2031500Y2470000D02*
D03*
Y2468000D02*
D03*
Y2466000D02*
D03*
Y2464000D02*
D03*
Y2462000D02*
D03*
X2033500Y2470000D02*
D03*
Y2468000D02*
D03*
Y2466000D02*
D03*
Y2464000D02*
D03*
Y2462000D02*
D03*
X2029500Y2460000D02*
D03*
X2031500D02*
D03*
X2033500Y2472000D02*
D03*
X2031500Y2474000D02*
D03*
X1999500Y2470000D02*
D03*
X1997500Y2468500D02*
D03*
X1999500Y2467000D02*
D03*
X1998000Y2465500D02*
D03*
X1996500Y2464000D02*
D03*
X2002500D02*
D03*
X1995000Y2462500D02*
D03*
X2003500D02*
D03*
X1996500Y2467000D02*
D03*
X1995000Y2465500D02*
D03*
X1985500Y2490500D02*
D03*
X1988500D02*
D03*
X1990000Y2488500D02*
D03*
X1522500Y2714000D02*
D03*
X1978000Y2610500D02*
D03*
Y2613000D02*
D03*
X1968000Y2607500D02*
D03*
X1970500D02*
D03*
X1972500D02*
D03*
X1968000Y2604500D02*
D03*
X1970500Y2605000D02*
D03*
X1972500D02*
D03*
X1974500D02*
D03*
Y2607500D02*
D03*
X1964500Y2604000D02*
D03*
Y2607500D02*
D03*
X1961500Y2604000D02*
D03*
Y2607500D02*
D03*
X1967500Y2656500D02*
D03*
X1969500D02*
D03*
X1971500D02*
D03*
X1973500D02*
D03*
X1967500Y2652000D02*
D03*
X1969000Y2653000D02*
D03*
X1971000Y2653500D02*
D03*
X1973500D02*
D03*
X1975000Y2655000D02*
D03*
X2040209Y2433500D02*
D03*
Y2431000D02*
D03*
Y2428500D02*
D03*
Y2426000D02*
D03*
Y2423500D02*
D03*
Y2421000D02*
D03*
X2057709Y2446000D02*
D03*
Y2443500D02*
D03*
Y2441000D02*
D03*
Y2438500D02*
D03*
Y2436000D02*
D03*
Y2433500D02*
D03*
Y2431000D02*
D03*
Y2428500D02*
D03*
Y2426000D02*
D03*
Y2423500D02*
D03*
Y2421000D02*
D03*
X2055209Y2446000D02*
D03*
Y2443500D02*
D03*
Y2441000D02*
D03*
Y2438500D02*
D03*
Y2436000D02*
D03*
Y2433500D02*
D03*
Y2431000D02*
D03*
Y2428500D02*
D03*
Y2426000D02*
D03*
Y2423500D02*
D03*
Y2421000D02*
D03*
X2052709Y2446000D02*
D03*
Y2443500D02*
D03*
Y2441000D02*
D03*
Y2438500D02*
D03*
Y2436000D02*
D03*
Y2433500D02*
D03*
Y2431000D02*
D03*
Y2428500D02*
D03*
Y2426000D02*
D03*
Y2423500D02*
D03*
Y2421000D02*
D03*
X2050209Y2446000D02*
D03*
Y2443500D02*
D03*
Y2441000D02*
D03*
Y2438500D02*
D03*
Y2436000D02*
D03*
Y2433500D02*
D03*
Y2431000D02*
D03*
Y2428500D02*
D03*
Y2426000D02*
D03*
Y2423500D02*
D03*
Y2421000D02*
D03*
X2047709Y2446000D02*
D03*
Y2443500D02*
D03*
Y2441000D02*
D03*
Y2438500D02*
D03*
Y2436000D02*
D03*
Y2433500D02*
D03*
Y2431000D02*
D03*
Y2428500D02*
D03*
Y2426000D02*
D03*
Y2423500D02*
D03*
Y2421000D02*
D03*
X2045209Y2446000D02*
D03*
Y2433500D02*
D03*
Y2431000D02*
D03*
Y2428500D02*
D03*
Y2426000D02*
D03*
Y2423500D02*
D03*
Y2421000D02*
D03*
X2042709Y2433500D02*
D03*
Y2431000D02*
D03*
Y2428500D02*
D03*
Y2426000D02*
D03*
Y2423500D02*
D03*
Y2421000D02*
D03*
X2045209Y2443500D02*
D03*
Y2438500D02*
D03*
Y2436000D02*
D03*
Y2441000D02*
D03*
X1966500Y2632000D02*
D03*
X1964000D02*
D03*
X1961500D02*
D03*
X1959000D02*
D03*
X1964000Y2627000D02*
D03*
X1966500Y2634500D02*
D03*
X1964000D02*
D03*
X1961500D02*
D03*
X1959000D02*
D03*
X1966500Y2627000D02*
D03*
Y2637000D02*
D03*
X1964000D02*
D03*
X1961500D02*
D03*
X1959000D02*
D03*
X1966500Y2629500D02*
D03*
Y2639500D02*
D03*
X1964000D02*
D03*
X1961500D02*
D03*
X1959000D02*
D03*
X1964000Y2629500D02*
D03*
X1966500Y2642000D02*
D03*
X1961500D02*
D03*
X1966500Y2644500D02*
D03*
X1961500Y2629500D02*
D03*
X1964000Y2642000D02*
D03*
X1524402Y2719303D02*
D03*
Y2721803D02*
D03*
Y2724303D02*
D03*
Y2726803D02*
D03*
Y2729303D02*
D03*
Y2731803D02*
D03*
X1506902Y2706803D02*
D03*
Y2709303D02*
D03*
Y2711803D02*
D03*
Y2714303D02*
D03*
Y2716803D02*
D03*
Y2719303D02*
D03*
Y2721803D02*
D03*
Y2724303D02*
D03*
Y2726803D02*
D03*
Y2729303D02*
D03*
Y2731803D02*
D03*
X1509402Y2706803D02*
D03*
Y2709303D02*
D03*
Y2711803D02*
D03*
Y2714303D02*
D03*
Y2716803D02*
D03*
Y2719303D02*
D03*
Y2721803D02*
D03*
Y2724303D02*
D03*
Y2726803D02*
D03*
Y2729303D02*
D03*
Y2731803D02*
D03*
X1511902Y2706803D02*
D03*
Y2709303D02*
D03*
Y2711803D02*
D03*
Y2714303D02*
D03*
Y2716803D02*
D03*
Y2719303D02*
D03*
Y2721803D02*
D03*
Y2724303D02*
D03*
Y2726803D02*
D03*
Y2729303D02*
D03*
Y2731803D02*
D03*
X1514402Y2706803D02*
D03*
Y2709303D02*
D03*
Y2711803D02*
D03*
Y2714303D02*
D03*
Y2716803D02*
D03*
Y2719303D02*
D03*
Y2721803D02*
D03*
Y2724303D02*
D03*
Y2726803D02*
D03*
Y2729303D02*
D03*
Y2731803D02*
D03*
X1516902Y2706803D02*
D03*
Y2709303D02*
D03*
Y2711803D02*
D03*
Y2714303D02*
D03*
Y2716803D02*
D03*
Y2719303D02*
D03*
Y2721803D02*
D03*
Y2724303D02*
D03*
Y2726803D02*
D03*
Y2729303D02*
D03*
Y2731803D02*
D03*
X1519402Y2706803D02*
D03*
Y2709303D02*
D03*
Y2711803D02*
D03*
Y2714303D02*
D03*
Y2716803D02*
D03*
Y2719303D02*
D03*
Y2721803D02*
D03*
Y2724303D02*
D03*
Y2726803D02*
D03*
Y2729303D02*
D03*
Y2731803D02*
D03*
X1521902Y2719303D02*
D03*
Y2721803D02*
D03*
Y2724303D02*
D03*
Y2726803D02*
D03*
Y2729303D02*
D03*
Y2731803D02*
D03*
X1524500Y2715000D02*
D03*
X1526500D02*
D03*
X1528500D02*
D03*
D104*
X1569000Y2452000D02*
D03*
X1946378Y2663500D02*
D03*
X1948378Y2637500D02*
D03*
X1567500Y2429000D02*
D03*
X2017500Y2490500D02*
D03*
X2017000Y2468000D02*
D03*
X1609000Y2450500D02*
D03*
X1588500Y2729000D02*
D03*
X1576500Y2469500D02*
D03*
X1911000Y2641000D02*
D03*
D105*
X1629500Y2441500D02*
D03*
X1626500D02*
D03*
X1623500D02*
D03*
X1629000Y2436000D02*
D03*
X1626000D02*
D03*
X1622500D02*
D03*
X1631000Y2439000D02*
D03*
X1628000D02*
D03*
X1625000D02*
D03*
X1622000D02*
D03*
X1945000Y2481500D02*
D03*
X1940000D02*
D03*
X1947500Y2474000D02*
D03*
X1940000Y2476500D02*
D03*
X1945000Y2471500D02*
D03*
X1940000D02*
D03*
X1942500Y2479000D02*
D03*
Y2474000D02*
D03*
X1947500Y2479000D02*
D03*
X1950000Y2481500D02*
D03*
Y2476500D02*
D03*
Y2471500D02*
D03*
X1945000Y2476500D02*
D03*
D106*
X1651165Y2512331D02*
D03*
Y2508000D02*
D03*
X1654606Y2595331D02*
D03*
X1658937D02*
D03*
X1654606Y2591000D02*
D03*
X1658937D02*
D03*
X1654606Y2586669D02*
D03*
X1658937D02*
D03*
X2006665Y2553169D02*
D03*
X2002335D02*
D03*
X2006665Y2557500D02*
D03*
X2002335D02*
D03*
X2006665Y2561831D02*
D03*
X2002335D02*
D03*
X1968331Y2369937D02*
D03*
Y2365606D02*
D03*
X1964000Y2369937D02*
D03*
Y2365606D02*
D03*
X1959669Y2369937D02*
D03*
Y2365606D02*
D03*
X1646835Y2512331D02*
D03*
Y2508000D02*
D03*
Y2503669D02*
D03*
X1651165D02*
D03*
D108*
X1900925Y2637500D02*
D03*
X1906831D02*
D03*
X1625953Y2463500D02*
D03*
X1620047D02*
D03*
X1956047Y2489000D02*
D03*
X1961953D02*
D03*
D109*
X1575500Y2706547D02*
D03*
Y2712453D02*
D03*
D110*
X2062402Y2710500D02*
D03*
X2195902Y2711500D02*
D03*
D111*
X1418000Y2740098D02*
D03*
X1419000Y2606598D02*
D03*
X1422000Y2552098D02*
D03*
X1423000Y2418598D02*
D03*
X2185992Y2417980D02*
D03*
X2185000Y2519244D02*
D03*
D112*
X1483702Y2512109D02*
D03*
X1513209D02*
D03*
X2104000Y2388000D02*
D03*
X2074492D02*
D03*
X2122008Y2609791D02*
D03*
X2092500D02*
D03*
D113*
X1483800Y2491400D02*
D03*
X1513308D02*
D03*
X2103902Y2408709D02*
D03*
X2074394D02*
D03*
X2121909Y2630500D02*
D03*
X2092402D02*
D03*
D114*
X1536000Y2462500D02*
D03*
X1512500Y2745500D02*
D03*
X2051500Y2457500D02*
D03*
X1984000Y2625500D02*
D03*
D115*
X1536000Y2469000D02*
D03*
D116*
X1545500Y2498000D02*
D03*
X1546000Y2451000D02*
D03*
D117*
X1522000Y2782000D02*
D03*
Y2729500D02*
D03*
D118*
X1443791Y2694402D02*
D03*
Y2723909D02*
D03*
D119*
X1464500Y2694500D02*
D03*
Y2724008D02*
D03*
D120*
X2042000Y2422500D02*
D03*
X1974000Y2590000D02*
D03*
D121*
X2041500Y2470000D02*
D03*
X1974000Y2639000D02*
D03*
D122*
X2126520Y2716000D02*
D03*
X2141480D02*
D03*
X2126520Y2699000D02*
D03*
X2141480D02*
D03*
D123*
X2137685Y2245500D02*
X2187500D01*
D124*
X1790000Y2458500D02*
X1818000D01*
X1626000Y2439500D02*
X1629000D01*
X1818000Y2458500D02*
X1824500Y2465000D01*
X1866692Y2463000D02*
X1931500D01*
X1864692Y2465000D02*
X1866692Y2463000D01*
X1824500Y2465000D02*
X1864692D01*
X1931500Y2463000D02*
X1940000Y2471500D01*
X1699192Y2457000D02*
X1788500D01*
X1698692Y2456500D02*
X1699192Y2457000D01*
X1693308Y2456500D02*
X1698692D01*
X1692808Y2457000D02*
X1693308Y2456500D01*
X1654500Y2457000D02*
X1692808D01*
X1637000Y2439500D02*
X1654500Y2457000D01*
M02*
