M48
;Layer_Color=9474304
;FILE_FORMAT=2:5
INCH,TZ
;TYPE=PLATED
T1F00S00C0.00787
T2F00S00C0.01200
T3F00S00C0.02000
T4F00S00C0.02500
T5F00S00C0.02756
T6F00S00C0.02800
T7F00S00C0.03000
T8F00S00C0.03150
T9F00S00C0.03543
T10F00S00C0.03937
T11F00S00C0.04331
T12F00S00C0.04500
T13F00S00C0.04528
T14F00S00C0.04724
T15F00S00C0.05118
T16F00S00C0.05906
T17F00S00C0.06000
T18F00S00C0.06299
T19F00S00C0.07000
T20F00S00C0.07874
T21F00S00C0.08661
T22F00S00C0.12598
T23F00S00C0.15748
T24F00S00C0.16142
%
T01
X1968331Y2369937
Y2365606
X1964000
Y2369937
X1959669
Y2365606
X1651165Y2503669
Y2508000
Y2512331
X1646835
Y2508000
Y2503669
X1654606Y2586669
Y2591000
Y2595331
X1658937
Y2591000
Y2586669
X2002335Y2561831
Y2557500
Y2553169
X2006665
Y2557500
Y2561831
T02
X2057709Y2493197
Y2490697
Y2488197
Y2485697
Y2483197
Y2480697
Y2478197
Y2475697
Y2473197
Y2470697
Y2468197
X2055209
Y2470697
Y2473197
Y2475697
Y2478197
Y2480697
Y2483197
Y2485697
Y2488197
Y2490697
Y2493197
X2052709
Y2490697
Y2488197
Y2485697
Y2483197
Y2480697
Y2478197
Y2475697
Y2473197
Y2470697
Y2468197
X2050209
Y2470697
Y2473197
Y2475697
Y2478197
Y2480697
Y2483197
Y2485697
Y2488197
Y2490697
Y2493197
X2047709
Y2490697
Y2488197
Y2485697
Y2483197
Y2480697
Y2478197
Y2475697
Y2473197
Y2470697
Y2468197
X2045209
Y2470697
Y2473197
Y2475697
Y2478197
Y2480697
Y2483197
Y2485697
Y2488197
Y2490697
Y2493197
X2042000Y2488000
X2040000
X2038000
X2036000
Y2484500
X2038000
X2040000
X2042000
X2042709Y2480697
X2040209
Y2478197
Y2475697
Y2473197
Y2470697
Y2468197
X2042709
Y2470697
Y2473197
Y2475697
Y2478197
X2033500Y2472000
X2031500
Y2470000
Y2468000
Y2466000
Y2464000
Y2462000
X2033500
Y2464000
Y2466000
Y2468000
Y2470000
X2031500Y2474000
Y2460000
X2036000Y2440500
X2038000
X2040000
Y2437500
X2042000
Y2439500
X2045209Y2438500
X2047709
X2050209
X2052709
X2055209
X2057709
Y2441000
Y2443500
Y2446000
X2055209
Y2443500
Y2441000
X2052709
Y2443500
Y2446000
X2050209
Y2443500
Y2441000
X2047709
Y2443500
Y2446000
X2045209
Y2443500
Y2441000
Y2436000
X2047709
X2050209
X2052709
X2055209
X2057709
Y2433500
Y2431000
Y2428500
Y2426000
Y2423500
Y2421000
X2055209
Y2423500
Y2426000
Y2428500
Y2431000
Y2433500
X2052709
Y2431000
Y2428500
Y2426000
Y2423500
Y2421000
X2050209
Y2423500
Y2426000
Y2428500
Y2431000
Y2433500
X2047709
Y2431000
Y2428500
Y2426000
Y2423500
Y2421000
X2045209
Y2423500
Y2426000
Y2428500
Y2431000
Y2433500
X2042709
X2040209
Y2431000
Y2428500
Y2426000
Y2423500
Y2421000
X2042709
Y2423500
Y2426000
Y2428500
Y2431000
X2038000Y2437500
X2036000
X2029500Y2460000
Y2462000
Y2464000
X2027500
Y2466000
Y2468000
Y2470000
Y2472000
X2029500
Y2474000
Y2470000
Y2468000
Y2466000
X2002500Y2467000
X2001000Y2465500
Y2462500
X2003500
X2002500Y2464000
X1999500
X1998000Y2462500
Y2465500
X1999500Y2467000
X2001000Y2468500
X2002500Y2470000
X2001000Y2471500
X1998000
X1996500Y2470000
X1997500Y2468500
X1995000
Y2471500
X1996500Y2473000
X1999500
X2002500
X2001000Y2474500
X1998000
X1995000
X1999500Y2470000
X1996500Y2467000
Y2464000
X1995000Y2462500
Y2465500
X1994500Y2454500
X1997500
Y2451500
Y2448500
X1996000Y2447000
Y2450000
Y2453000
X1994500Y2451500
Y2448500
X1993000Y2447000
Y2450000
Y2453000
X1991500Y2454500
Y2451500
Y2448500
X1990000Y2447000
Y2450000
Y2453000
X1988500Y2454500
Y2451500
Y2448500
X1987000Y2447000
Y2450000
Y2453000
X1985500Y2454500
Y2451500
Y2448500
Y2484500
X1988500
X1991500
X1994500
X1993000Y2483000
X1990000
X1987000
Y2486000
X1990000
Y2488500
X1993000Y2489000
X1994500Y2487500
X1993000Y2486000
X1994500Y2490500
X1991500
X1988500
X1985500
X1599000Y2472000
X1596200Y2472800
X1591500Y2473500
X1590000Y2472000
Y2469000
Y2466000
X1591500Y2464500
X1593000Y2466000
X1594500Y2464500
X1596000Y2466000
X1597500Y2464500
X1600000
X1601500Y2468000
X1594500Y2467500
X1591500
Y2470500
X1593000Y2469000
X1591000Y2456000
Y2453000
Y2450000
Y2447000
X1589500Y2445500
X1588000Y2447000
X1585000
Y2450000
Y2453000
Y2456000
X1588000
Y2453000
Y2450000
X1589500Y2448500
X1586500
Y2445500
X1592500
Y2448500
Y2451500
X1589500
X1586500
Y2454500
X1589500
X1592500
X1584000Y2415000
X1583400Y2413100
X1583300Y2411300
X1583100Y2409600
X1581200Y2409500
X1581400Y2411300
Y2413200
X1581000Y2415000
X1578000
X1575000
X1576500Y2413500
X1575000Y2412000
X1576500Y2410500
X1575000Y2409000
X1576500Y2407500
X1579000Y2407600
Y2409500
X1579500Y2412000
X1581100Y2407400
X1583100
X1550000Y2432000
X1548500
X1547000
X1545000
Y2434000
X1546000Y2435500
X1548500
X1550500
X1547402Y2439303
Y2441803
Y2444303
Y2446803
Y2449303
Y2451803
X1544902
X1542402
X1539902
X1537402
X1534902
X1532402
X1529902
Y2449303
Y2446803
Y2444303
Y2441803
Y2439303
Y2436803
Y2434303
Y2431803
Y2429303
Y2426803
X1532402
Y2429303
Y2431803
Y2434303
Y2436803
Y2439303
Y2441803
Y2444303
Y2446803
Y2449303
X1534902
Y2446803
Y2444303
Y2441803
Y2439303
Y2436803
Y2434303
Y2431803
Y2429303
Y2426803
X1537402
Y2429303
Y2431803
Y2434303
Y2436803
Y2439303
Y2441803
Y2444303
Y2446803
Y2449303
X1539902
Y2446803
Y2444303
Y2441803
Y2439303
Y2436803
Y2434303
Y2431803
Y2429303
Y2426803
X1542402
Y2429303
Y2431803
Y2434303
Y2436803
Y2439303
Y2441803
Y2444303
Y2446803
Y2449303
X1544902
Y2446803
Y2444303
Y2441803
Y2439303
X1554000Y2447000
X1556000
X1558000
Y2449000
X1560000
Y2451000
Y2453000
Y2455000
Y2457000
X1558000
Y2455000
Y2453000
Y2451000
X1556000
Y2449000
X1554000
Y2451000
Y2453000
X1556000
Y2455000
Y2457000
X1554000
Y2455000
Y2459000
Y2461000
X1556000
Y2459000
X1558000
X1551500Y2479000
X1549500
X1547500
X1545500Y2480000
Y2482000
X1547500Y2482500
X1549500
X1551500
X1547402Y2486591
Y2489091
Y2491591
Y2494091
Y2496591
Y2499091
X1544902
X1542402
X1539902
X1537402
X1534902
X1532402
X1529902
Y2496591
Y2494091
Y2491591
Y2489091
Y2486591
Y2484091
Y2481591
Y2479091
Y2476591
Y2474091
X1532402
Y2476591
Y2479091
Y2481591
Y2484091
Y2486591
Y2489091
Y2491591
Y2494091
Y2496591
X1534902
Y2494091
Y2491591
Y2489091
Y2486591
Y2484091
Y2481591
Y2479091
Y2476591
Y2474091
X1537402
Y2476591
Y2479091
Y2481591
Y2484091
Y2486591
Y2489091
Y2491591
Y2494091
Y2496591
X1539902
Y2494091
Y2491591
Y2489091
Y2486591
Y2484091
Y2481591
Y2479091
Y2476591
Y2474091
X1542402
Y2476591
Y2479091
Y2481591
Y2484091
Y2486591
Y2489091
Y2491591
Y2494091
Y2496591
X1544902
Y2494091
Y2491591
Y2489091
Y2486591
X1915378Y2614500
X1917378
X1919878
X1922378
Y2617000
Y2619500
X1919878
Y2617000
X1917378
X1915378
X1928378Y2634000
X1926878Y2636500
X1930378Y2637221
X1928378Y2640000
X1930378Y2642000
X1928378Y2644000
X1933378
Y2640000
X1935878Y2637000
X1933378Y2634000
X1930878Y2632000
X1959000
X1961500
X1964000
X1966500
Y2634500
X1964000
X1961500
X1959000
Y2637000
X1961500
X1964000
X1966500
Y2639500
X1964000
X1961500
X1959000
X1961500Y2642000
X1964000
X1966500
Y2644500
X1972709
Y2647000
Y2649500
X1975209
X1977709
X1980209
X1982709
X1985209
X1987709
X1990209
Y2652000
Y2654500
X1987709
Y2652000
X1985209
Y2654500
X1982709
Y2652000
X1980209
Y2654500
X1977709
Y2652000
Y2647000
X1980209
X1982709
X1985209
X1987709
X1990209
Y2644500
Y2642000
Y2639500
Y2637000
X1987709
Y2639500
Y2642000
Y2644500
X1985209
Y2642000
Y2639500
Y2637000
X1982709
Y2639500
Y2642000
Y2644500
X1980209
Y2642000
Y2639500
Y2637000
X1977709
Y2639500
Y2642000
Y2644500
X1975209
Y2647000
Y2642000
X1972709
Y2639500
Y2637000
X1975209
Y2639500
X1973500Y2653500
X1971000
X1969000Y2653000
X1967500Y2652000
X1975000Y2655000
X1966500Y2629500
Y2627000
X1964000
Y2629500
X1961500
Y2607500
X1964500
X1968000
X1970500
X1972500
X1974500
Y2605000
X1972500
X1970500
X1968000Y2604500
X1964500Y2604000
X1961500
X1972709Y2600500
Y2598000
Y2595500
Y2593000
Y2590500
Y2588000
X1975209
X1977709
X1980209
X1982709
X1985209
X1987709
X1990209
Y2590500
Y2593000
Y2595500
Y2598000
Y2600500
Y2603000
Y2605500
Y2608000
Y2610500
Y2613000
X1987709
Y2610500
Y2608000
Y2605500
Y2603000
Y2600500
Y2598000
Y2595500
Y2593000
Y2590500
X1985209
Y2593000
Y2595500
Y2598000
Y2600500
Y2603000
Y2605500
Y2608000
Y2610500
Y2613000
X1982709
Y2610500
Y2608000
Y2605500
Y2603000
Y2600500
Y2598000
Y2595500
Y2593000
Y2590500
X1980209
Y2593000
Y2595500
Y2598000
Y2600500
Y2603000
Y2605500
Y2608000
Y2610500
X1978000
Y2613000
X1980209
X1977709Y2608000
Y2605500
Y2603000
Y2600500
Y2598000
Y2595500
Y2593000
Y2590500
X1975209
Y2593000
Y2595500
Y2598000
Y2600500
X1973500Y2656500
X1971500
X1969500
X1967500
X1977709Y2657000
X1980209
X1982709
X1985209
X1987709
X1990209
Y2659500
Y2662000
X1987709
Y2659500
X1985209
Y2662000
X1982709
Y2659500
X1980209
Y2662000
X1977709
Y2659500
X1569412Y2727912
Y2731912
X1566912Y2729912
X1564912Y2727912
X1562912Y2729912
X1564912Y2731912
X1562912Y2734412
X1566912Y2734912
Y2738912
X1564912Y2736912
X1562912Y2738912
X1571633
X1569633Y2736912
X1574412Y2748912
Y2750912
X1576912
Y2748912
X1579412
Y2750912
X1581912
Y2748912
X1584412
Y2750912
X1586912
Y2748912
X1589412
Y2750912
Y2753412
X1586912
X1584412
X1581912
X1579412
X1576912
X1574412
Y2755912
X1576912
X1579412
X1581912
X1584412
X1586912
X1589412
Y2758412
X1586912
X1584412
X1581912
X1579412
X1576912
X1574412
Y2760912
X1576912
X1579412
X1581912
X1584412
X1586912
X1589412
X1528000Y2764000
X1525500
X1523500
X1522000Y2765500
Y2767500
X1524000
X1526000
X1528000
X1524291Y2771303
Y2773803
Y2776303
Y2778803
Y2781303
Y2783803
X1521791
X1519291
X1516791
X1514291
X1511791
X1509291
X1506791
Y2781303
Y2778803
Y2776303
Y2773803
Y2771303
Y2768803
Y2766303
Y2763803
Y2761303
Y2758803
X1509291
Y2761303
Y2763803
Y2766303
Y2768803
Y2771303
Y2773803
Y2776303
Y2778803
Y2781303
X1511791
Y2778803
Y2776303
Y2773803
Y2771303
Y2768803
Y2766303
Y2763803
Y2761303
Y2758803
X1514291
Y2761303
Y2763803
Y2766303
Y2768803
Y2771303
Y2773803
Y2776303
Y2778803
Y2781303
X1516791
Y2778803
Y2776303
Y2773803
Y2771303
Y2768803
Y2766303
Y2763803
Y2761303
Y2758803
X1519291
Y2761303
Y2763803
Y2766303
Y2768803
Y2771303
Y2773803
Y2776303
Y2778803
Y2781303
X1521791
Y2778803
Y2776303
Y2773803
Y2771303
X1531500Y2744500
Y2742000
Y2739500
Y2737000
Y2734500
Y2732000
X1534000
Y2734500
Y2737000
Y2739500
Y2742000
Y2744500
X1536500
Y2742000
Y2739500
Y2737000
Y2734500
Y2732000
X1524402Y2731803
Y2729303
Y2726803
Y2724303
Y2721803
Y2719303
X1521902
X1519402
X1516902
X1514402
X1511902
X1509402
X1506902
Y2716803
Y2714303
Y2711803
Y2709303
Y2706803
X1509402
Y2709303
Y2711803
Y2714303
Y2716803
X1511902
Y2714303
Y2711803
Y2709303
Y2706803
X1514402
Y2709303
Y2711803
Y2714303
Y2716803
X1516902
Y2714303
Y2711803
Y2709303
Y2706803
X1519402
Y2709303
Y2711803
Y2714303
Y2716803
Y2721803
X1516902
X1514402
X1511902
X1509402
X1506902
Y2724303
Y2726803
Y2729303
Y2731803
X1509402
Y2729303
Y2726803
Y2724303
X1511902
Y2726803
Y2729303
Y2731803
X1514402
Y2729303
Y2726803
Y2724303
X1516902
Y2726803
Y2729303
Y2731803
X1519402
Y2729303
Y2726803
Y2724303
X1521902
Y2721803
Y2726803
Y2729303
Y2731803
X1522500Y2714000
X1523000Y2712000
X1525500
X1528000
X1528500Y2715000
X1526500
X1524500
T03
X2017500Y2490500
X2017000Y2468000
X1950000Y2471500
X1947500Y2474000
X1945000Y2471500
X1940000
Y2476500
Y2481500
X1945000
X1942500Y2479000
Y2474000
X1945000Y2476500
X1947500Y2479000
X1950000Y2481500
Y2476500
X1629500Y2441500
X1626500
X1623500
X1625000Y2439000
X1628000
X1631000
X1629000Y2436000
X1626000
X1622500
X1622000Y2439000
X1609000Y2450500
X1569000Y2452000
X1567500Y2429000
X1576500Y2469500
X1911000Y2641000
X1948378Y2637500
X1946378Y2663500
X1588500Y2729000
T04
X2124500Y2443000
X2119500
X2114500
X2109500
X2104500
X2100000
Y2438000
X2104500
Y2433000
X2100000
Y2428000
X2104500
Y2423000
X2100000
Y2418000
X2104500
Y2413000
X2100000
Y2408000
X2104500
Y2403000
X2100000
Y2398000
X2104500
X2109500
Y2403000
Y2408000
Y2413000
Y2418000
Y2423000
Y2428000
Y2433000
Y2438000
X2114500
Y2433000
Y2428000
Y2423000
Y2418000
Y2413000
Y2408000
Y2403000
Y2398000
X2119500
Y2403000
Y2408000
Y2413000
Y2418000
Y2423000
Y2428000
Y2433000
Y2438000
X2124500
Y2433000
Y2428000
Y2423000
Y2418000
Y2413000
Y2408000
Y2403000
Y2398000
X1488500Y2461000
Y2466000
Y2471000
Y2476000
Y2481000
Y2486000
Y2491000
Y2496000
X1483500
Y2491000
Y2486000
Y2481000
Y2476000
Y2471000
Y2466000
Y2461000
X1478500
Y2466000
Y2471000
Y2476000
Y2481000
Y2486000
Y2491000
Y2496000
X1473500
Y2491000
Y2486000
Y2481000
Y2476000
Y2471000
Y2466000
Y2461000
X1468500
X1464000
Y2466000
X1468500
Y2471000
X1464000
Y2476000
X1468500
Y2481000
X1464000
Y2486000
X1468500
Y2491000
X1464000
Y2496000
X1468500
Y2501000
X1464000
Y2506000
X1468500
X1473500
Y2501000
X1478500
Y2505500
X1483500
Y2501000
X1488500
Y2505500
X2119000Y2620500
X2124500
X2130000
X2135500
X2141000
X2146500
X2151500
X2156500
X2161500
Y2626000
X2156500
X2151500
X2146500
X2141000
X2135500
X2130000
X2124500
X2119000
Y2631500
X2124500
X2130000
X2135500
X2141000
X2146500
X2151500
X2156500
X2161500
Y2637000
X2156500
X2151500
X2146500
X2141000
X2135500
X2130000
X2124500
X2119000
Y2642500
X2124500
X2130000
X2135500
X2141000
X2146500
X2151500
X2156500
X2161500
Y2648000
X2156500
X2151500
X2146500
Y2652500
X2141000
Y2648000
X2135500
Y2652500
X2130000
Y2648000
X2124500
Y2652500
X2119000
Y2648000
X1494500Y2684500
X1489500
X1484500
X1479500
Y2690000
X1484500
X1489500
X1494500
Y2695500
X1489500
X1484500
X1479500
Y2701000
Y2705500
Y2710500
X1474000
Y2705500
Y2701000
X1468500
Y2705500
Y2710500
X1463500
X1458000
X1457500Y2705500
Y2701000
X1452000
Y2705500
Y2710500
Y2695500
X1457500
X1463000
Y2701000
Y2705500
X1468500Y2695500
X1474000
Y2690000
X1468500
X1463000
X1457500
X1452000
Y2684500
X1457500
X1463000
X1468500
X1474000
X1484500Y2701000
Y2705500
T05
X1711618Y2261618
X1656500
Y2206500
X1711618
X1967000Y2301500
X1977000
X1987000
Y2323500
X1977000
X1967000
X1661000Y2463500
X1651000
X1641000
X1640000Y2485500
X1650000
X1660000
X1655000Y2543000
X1645000
X1665000
Y2565000
X1655000
X1645000
X1679500Y2616000
X1699480
X1728811
X1738850
X1736500Y2557000
X1726500
X1746500
X1808488Y2641630
Y2651669
X1905500Y2526000
X1915500
X1925500
X1948000Y2534500
X1958000
X1968000
X1994500Y2520000
X2004500
X2014500
X1808488Y2681000
Y2700980
T06
X1450500Y2277000
X1456500
Y2271000
X1450500
Y2265000
X1456500
Y2259000
X1451000
X1658000Y2244500
Y2235500
X1703000Y2295500
X1710240Y2320500
X1683000Y2336000
X1675000Y2331000
X1731000Y2327500
X1729500Y2336500
X1752500Y2335000
X1747000Y2323000
X1744000Y2317000
X1774260
X1777500Y2324500
X1776500Y2333500
X1784000Y2330500
X1797500Y2342500
X1832953Y2338000
X1846000Y2329500
X1821500Y2326500
Y2318000
X1820500Y2308500
X1802000Y2298000
X1776000Y2308000
X1790500Y2250500
X1812500Y2243500
X1863500Y2241500
X1867500Y2320000
X1754500Y2246000
X1732000Y2253000
X1883000Y2241000
X1935500Y2244000
X1954000Y2258000
X1948500Y2287760
X1953000Y2306000
X1930000Y2322000
X1933000Y2335500
X1941500Y2343000
X1918000Y2301000
X1900000Y2317500
X1934000Y2210500
X1950500Y2222500
X2063500Y2247500
Y2253500
Y2259500
Y2265500
X2069500
Y2259500
Y2253500
Y2247500
X2096500Y2266000
X2111000Y2254500
X2137000Y2257500
Y2262000
X2143000
X2144000Y2256500
X2150000Y2255500
Y2262000
Y2269000
X2143000
X2137000
X2104000Y2388500
X1984000Y2380500
X1982500Y2353500
X1920000Y2368000
X1911500Y2363000
X1902760Y2346500
X1882260
X1881000Y2354500
X1879000Y2360500
X1882000Y2376500
X1882740Y2404260
X1894000
X1894740Y2411740
X1904000Y2406500
X1883500Y2432260
X1891000Y2446500
X1895500Y2452000
X1922500Y2491000
X1969000Y2473000
X1973500Y2468500
X1945000Y2416500
X1864500Y2431000
X1851000Y2438000
X1862000Y2458500
X1850000Y2472500
X1839000Y2472000
X1806000Y2471500
X1812500Y2479500
X1790000Y2458500
X1786000Y2427500
X1776000Y2421000
X1776500Y2411000
X1776000Y2401500
X1785000Y2394500
X1775750Y2376500
X1784000Y2365000
X1779500Y2359000
X1795000Y2356500
X1822000Y2354000
X1817000Y2381500
X1818500Y2405000
X1859000Y2407000
X1856000Y2381500
X1870000Y2369000
X1775500Y2345000
X1737500Y2352500
X1738000Y2388000
X1737000Y2423260
X1745000Y2481000
X1697500Y2478000
X1696000Y2463000
X1684598Y2481902
X1678000Y2450500
X1690000Y2431996
X1701500Y2434500
X1685000Y2416000
X1696000Y2376000
X1709500
X1714500Y2389500
X1696500Y2357000
X1686000Y2365500
X1612500Y2439500
X1615500Y2450500
X1625500Y2510500
X1608500Y2516000
X1670000Y2501260
X1684000Y2518000
X1707000Y2521500
X1701500Y2538000
X1700500Y2550000
X1689000Y2557000
X1677500Y2580760
X1668500Y2601500
X1663000Y2620000
X1655000Y2633500
X1664000Y2653500
X1689000Y2653000
X1705000Y2640000
X1709421Y2581740
X1620000Y2602000
X1597500Y2616500
X1606500Y2627000
X1727000Y2584500
X1790500Y2572000
X1777500Y2549000
X1766500Y2529500
X1773500Y2515000
X1800000
X1742500Y2514000
X1744000Y2522500
X1850425Y2562760
X1869500Y2551500
X1848000Y2611500
X1844847Y2634500
X1884500Y2633500
X1913000Y2636000
X1900500Y2580500
X1900000Y2554000
X1915000Y2558500
X1922000Y2537500
X1938500Y2553500
X1957000Y2561000
X1947000Y2573500
X1977000Y2564500
X1985500Y2571000
X1993500Y2544000
X1888000Y2536000
X1882000Y2539500
X1875500Y2536500
X1884500Y2518500
X1881000Y2565000
X2094500Y2594000
X2115500Y2600000
X1899000Y2699500
X1834500Y2694000
X1824000Y2713500
X1821000Y2723000
X1844000Y2730000
Y2736000
X1850000
X1855500
Y2730000
X1850000
X1794500Y2733500
X1777500Y2733000
X1759815Y2726500
X1754000
Y2720500
X1760000
X1771500Y2711000
X1775500Y2703500
X1732000Y2663000
X1849500Y2667000
X1705000Y2662000
X1682500Y2657500
X1654500Y2672500
X1639500Y2662500
X1575000Y2696000
X1594500Y2731000
X1665000Y2766500
X1555000Y2757000
X1542500Y2733500
X1544500Y2714000
T07
X1770000Y2647000
X1740000
X1759500Y2620000
Y2590500
X1789500
Y2620000
X1770000Y2676500
X1740000
T08
X1878000Y2152000
X1868000
X1808000
X1788000
Y2212000
X1808000
X1868000
X1878000
T09
X1840500Y2098894
X1830500
X1820500
X1810500
Y2088894
X1820500
X1830500
X1840500
X1684500Y2284500
Y2289500
Y2294500
X1635000Y2294000
Y2304000
Y2314000
Y2324000
Y2334000
X1625000
Y2324000
Y2314000
Y2304000
Y2294000
X1615000
Y2304000
Y2314000
Y2324000
Y2334000
X1706000Y2336000
Y2331000
Y2341000
X1771000Y2288500
Y2278500
X1781000
Y2288500
X1791000
Y2278500
X1801000
Y2288500
X1811000
Y2278500
X1821000
Y2288500
X1831000
Y2278500
X1841000
Y2288500
X1851000
Y2278500
X1861000
Y2288500
X1871000
Y2278500
X1881000
Y2288500
X1891000
Y2278500
X1901000
Y2288500
X1911000
Y2278500
X1921000
Y2288500
X1971000Y2264000
Y2259000
Y2254000
X1960500Y2399000
Y2404000
Y2409000
X1928000Y2405000
Y2400000
Y2395000
X1926000Y2435000
Y2440000
Y2445000
X1913500Y2471500
X1908500
X1903500
X1901000Y2494500
X1891000
X1881000
X1911000
X1871000
X1861000
X1851000
X1841000
X1831000
X1821000
X1811000
X1801000
X1791000
X1781000
X1771000
X1736000Y2451000
Y2446000
Y2441000
X1728000Y2415500
Y2410500
Y2405500
X1839000Y2442500
Y2447500
Y2452500
X1854000Y2359500
Y2354500
Y2349500
X1635000Y2354000
Y2364000
Y2374000
Y2384000
X1625000
Y2374000
Y2364000
Y2354000
Y2344000
X1635000
X1615000
Y2354000
Y2364000
Y2374000
Y2384000
X1771000Y2504500
X1781000
X1791000
X1801000
X1811000
X1821000
X1831000
X1841000
X1851000
X1861000
X1871000
X1860000Y2533472
Y2543315
Y2553157
Y2563000
Y2572842
Y2582685
Y2592528
X1830079
Y2582685
Y2572842
Y2563000
Y2553157
Y2543315
Y2533472
X1881000Y2504500
X1891000
X1901000
X1911000
X2031500Y2814000
Y2824000
X2041500
Y2814000
X2051500
Y2824000
X2061500
Y2814000
X2071500
Y2824000
T10
X1406500Y2328402
Y2288902
X2067000Y2280902
Y2320402
X1990500Y2716598
Y2756098
X1461402Y2822500
X1421902
T11
X1890000Y2100000
X1870020
X1846000Y2133500
X1836000
X1826000
X2096500Y2309000
X2200936Y2217606
Y2197626
X2096500Y2368165
X1478795Y2361346
Y2420512
T12
X1976000Y2497500
X1956000
X2003500Y2428000
Y2408000
X2023500
Y2428000
X1613000Y2429500
Y2409500
X1593000
Y2429500
X1597500Y2487500
X1577500
Y2507500
X1597500
X1956000Y2517500
X1976000
X1925835Y2590000
Y2610000
X1905835
Y2590000
X1913000Y2659000
X1893000
Y2679000
X1913000
X1612500
X1592500
Y2699000
X1612500
X1592500Y2769500
Y2789500
X1572500
Y2769500
T13
X1743500Y2200000
X1733500
X1723500
T14
X2209500Y2173000
X2177500Y2092000
X1888500Y2130000
X1854500Y2103000
X1799500Y2123500
X1681000Y2170000
X1362500Y2264500
X1362000Y2339000
X1597165Y2343278
Y2333222
Y2323167
Y2313111
Y2303056
Y2293000
X1646500Y2217000
X1821500Y2253000
X1904500Y2203000
X2006000Y2263000
X1990500Y2283000
X1989500Y2338000
X2177500Y2228000
X2147500Y2420500
X2034500Y2406000
X1991500Y2346000
X1947500Y2353500
X1967000Y2444000
X1840000Y2369000
X1775000Y2388000
X1701500Y2488000
X1660500Y2447500
X1618500Y2489500
X1607500Y2399500
X1597165Y2383500
Y2373444
Y2363389
Y2353333
X1365000Y2394000
X1611000Y2508000
X1639500Y2524500
X1696500Y2516500
X1681500Y2573500
X1684500Y2593500
X1715000Y2654500
X1733000Y2542000
X1804500Y2521500
X1858000Y2605500
X1874500Y2616000
X1887500Y2595000
X1906000Y2569000
X1930500Y2540500
X1943500Y2513500
X2013000Y2534500
X2027500Y2523500
X1876000Y2757500
X1758500Y2784500
X1741000Y2783500
X1727000Y2783000
X1692000
X1664500Y2679500
X1550500Y2677500
X1556500Y2788000
X1404500Y2805500
X1494500Y2820500
X1949000Y2826500
X2142000Y2817500
X2169000
T15
X1748800Y2160400
X1732500Y2108685
X1769980
X1695020
X1711300Y2160400
T16
X2185992Y2417980
X1423000Y2418598
X1422000Y2552098
X1419000Y2606598
X1487528Y2615000
Y2575000
X1627472
Y2615000
X2068028Y2624000
Y2584000
X2185000Y2519244
X2207972Y2584000
Y2624000
X2195902Y2711500
X2062402Y2710500
X1830000Y2780500
X1793000
X1418000Y2740098
X1793000Y2819500
X1830000
T17
X2142500Y2149000
X2103130
X2002500Y2148500
X1963130
X1586370Y2149500
X1547000
X1446370Y2149000
X1407000
T18
X1430000Y2304000
X1450000
X2026500Y2281500
X2046500
X1399200Y2508000
X1365700
X2147500Y2516500
Y2550000
X2135500Y2755000
Y2788500
X2009500Y2780000
Y2760000
X1400000Y2717000
X1366500
X1369500Y2779000
Y2799000
T19
X2013500Y2418000
X1603000Y2419500
X1587500Y2497500
X1966000Y2507500
X1915835Y2600000
X1903000Y2669000
X1602500Y2689000
X1582500Y2779500
T20
X1463012Y2623500
X2043512Y2632500
Y2669000
X1463012Y2660000
T21
X1463012Y2569000
Y2530500
X2043512Y2539500
Y2578000
T22
X1966890Y2698433
X1864390Y2698933
X1750110Y2698567
X1647610Y2698067
Y2819067
X1750110Y2818567
X1864390Y2818933
X1966890Y2819433
T23
X1525500Y2248000
X2191500Y2249500
Y2386000
X1525500Y2384500
T24
X2202000Y2116000
X1365500Y2094000
X1964500Y2427500
X1579500Y2384000
X1447500Y2498000
X1884000Y2607500
X2078000Y2518500
X1566500Y2683500
X1448000Y2765500
X1365500Y2822000
X2200000Y2818000
M30
