G04 Layer_Color=16711935*
%FSLAX25Y25*%
%MOIN*%
G70*
G01*
G75*
%ADD126C,0.00787*%
%ADD128C,0.00394*%
D126*
X1899954Y2477484D02*
G03*
X1917046Y2477484I8546J-5984D01*
G01*
X1976984Y2267546D02*
G03*
X1976984Y2250454I-5984J-8546D01*
G01*
X1730016Y2437454D02*
G03*
X1730016Y2454546I5984J8546D01*
G01*
X1700016Y2327454D02*
G03*
X1700016Y2344546I5984J8546D01*
G01*
X1678516Y2280954D02*
G03*
X1678516Y2298046I5984J8546D01*
G01*
X1933984Y2408546D02*
G03*
X1933984Y2391454I-5984J-8546D01*
G01*
X1844984Y2456046D02*
G03*
X1844984Y2438954I-5984J-8546D01*
G01*
X1931984Y2448546D02*
G03*
X1931984Y2431454I-5984J-8546D01*
G01*
X1966484Y2412546D02*
G03*
X1966484Y2395454I-5984J-8546D01*
G01*
X1722016Y2401954D02*
G03*
X1722016Y2419046I5984J8546D01*
G01*
X1848016Y2345954D02*
G03*
X1848016Y2363046I5984J8546D01*
G01*
X1899954Y2477484D02*
X1917046D01*
X1976984Y2250454D02*
Y2267546D01*
X1730016Y2437454D02*
Y2454546D01*
X1700016Y2327454D02*
Y2344546D01*
X1678516Y2280954D02*
Y2298046D01*
X1933984Y2391454D02*
Y2408546D01*
X1844984Y2438954D02*
Y2456046D01*
X1931984Y2431454D02*
Y2448546D01*
X1966484Y2395454D02*
Y2412546D01*
X1722016Y2401954D02*
Y2419046D01*
X1848016Y2345954D02*
Y2363046D01*
D128*
X1857327Y2454941D02*
G03*
X1857327Y2454941I-1969J0D01*
G01*
X1877827Y2374669D02*
G03*
X1877827Y2374669I-1969J0D01*
G01*
X1824610Y2387831D02*
G03*
X1824610Y2387831I-1969J0D01*
G01*
X1770071Y2525701D02*
G03*
X1770071Y2525701I-1969J0D01*
G01*
X1885366Y2541929D02*
G03*
X1885366Y2541929I-1969J0D01*
G01*
X1956039Y2564398D02*
G03*
X1956039Y2564398I-1969J0D01*
G01*
X2010799Y2551201D02*
G03*
X2010799Y2551201I-1969J0D01*
G01*
X1940571Y2309571D02*
G03*
X1940571Y2309571I-1969J0D01*
G01*
X1972268Y2372102D02*
G03*
X1972268Y2372102I-1969J0D01*
G01*
X1800638Y2335142D02*
G03*
X1800638Y2335142I-1969J0D01*
G01*
X1646638Y2514299D02*
G03*
X1646638Y2514299I-1969J0D01*
G01*
X1690366Y2482429D02*
G03*
X1690366Y2482429I-1969J0D01*
G01*
X1654409Y2597299D02*
G03*
X1654409Y2597299I-1969J0D01*
G01*
X1694866Y2558429D02*
G03*
X1694866Y2558429I-1969J0D01*
G01*
X1681669Y2649646D02*
Y2655354D01*
X1690331Y2649646D02*
Y2655354D01*
X1681669Y2649646D02*
X1690331D01*
X1681669Y2655354D02*
X1690331D01*
X1854831Y2476646D02*
Y2482354D01*
X1846169Y2476646D02*
Y2482354D01*
Y2476646D02*
X1854831D01*
X1846169Y2482354D02*
X1854831D01*
X1851815Y2451398D02*
X1891185D01*
X1851815Y2467146D02*
X1891185D01*
X1851815Y2451398D02*
Y2467146D01*
X1891185Y2451398D02*
Y2467146D01*
X1876831Y2395646D02*
Y2401354D01*
X1868169Y2395646D02*
Y2401354D01*
Y2395646D02*
X1876831D01*
X1868169Y2401354D02*
X1876831D01*
X1872315Y2371126D02*
X1911685D01*
X1872315Y2386874D02*
X1911685D01*
X1872315Y2371126D02*
Y2386874D01*
X1911685Y2371126D02*
Y2386874D01*
X1786815Y2391374D02*
X1826185D01*
X1786815Y2375626D02*
X1826185D01*
Y2391374D01*
X1786815Y2375626D02*
Y2391374D01*
X1813831Y2359146D02*
Y2364854D01*
X1805169Y2359146D02*
Y2364854D01*
Y2359146D02*
X1813831D01*
X1805169Y2364854D02*
X1813831D01*
X1853146Y2388831D02*
X1858854D01*
X1853146Y2380169D02*
X1858854D01*
Y2388831D01*
X1853146Y2380169D02*
Y2388831D01*
X1831996Y2380257D02*
X1844004D01*
X1831996Y2387146D02*
X1844004D01*
X1831996Y2380257D02*
Y2387146D01*
X1844004Y2380257D02*
Y2387146D01*
X1648323Y2281815D02*
X1663677D01*
X1648323Y2271185D02*
X1663677D01*
Y2281815D01*
X1648323Y2271185D02*
Y2281815D01*
Y2402315D02*
X1663677D01*
X1648323Y2391685D02*
X1663677D01*
Y2402315D01*
X1648323Y2391685D02*
Y2402315D01*
Y2388926D02*
X1663677D01*
X1648323Y2378296D02*
X1663677D01*
Y2388926D01*
X1648323Y2378296D02*
Y2388926D01*
Y2375537D02*
X1663677D01*
X1648323Y2364907D02*
X1663677D01*
Y2375537D01*
X1648323Y2364907D02*
Y2375537D01*
Y2362148D02*
X1663677D01*
X1648323Y2351518D02*
X1663677D01*
Y2362148D01*
X1648323Y2351518D02*
Y2362148D01*
Y2348759D02*
X1663677D01*
X1648323Y2338129D02*
X1663677D01*
Y2348759D01*
X1648323Y2338129D02*
Y2348759D01*
Y2335371D02*
X1663677D01*
X1648323Y2324741D02*
X1663677D01*
Y2335371D01*
X1648323Y2324741D02*
Y2335371D01*
Y2321982D02*
X1663677D01*
X1648323Y2311352D02*
X1663677D01*
Y2321982D01*
X1648323Y2311352D02*
Y2321982D01*
Y2308593D02*
X1663677D01*
X1648323Y2297963D02*
X1663677D01*
Y2308593D01*
X1648323Y2297963D02*
Y2308593D01*
Y2295204D02*
X1663677D01*
X1648323Y2284574D02*
X1663677D01*
Y2295204D01*
X1648323Y2284574D02*
Y2295204D01*
X1727685Y2514823D02*
Y2530177D01*
X1738315Y2514823D02*
Y2530177D01*
X1727685Y2514823D02*
X1738315D01*
X1727685Y2530177D02*
X1738315D01*
X1740646Y2524169D02*
X1746354D01*
X1740646Y2532831D02*
X1746354D01*
X1740646Y2524169D02*
Y2532831D01*
X1746354Y2524169D02*
Y2532831D01*
X1755898Y2541842D02*
X1771646D01*
X1755898Y2522157D02*
X1771646D01*
X1755898D02*
Y2541842D01*
X1771646Y2522157D02*
Y2541842D01*
X1840307Y2549957D02*
Y2557043D01*
X1853693Y2549957D02*
Y2557043D01*
X1840307Y2549957D02*
X1853693D01*
X1840307Y2557043D02*
X1853693D01*
X1813957Y2560307D02*
Y2573693D01*
X1821043Y2560307D02*
Y2573693D01*
X1813957Y2560307D02*
X1821043D01*
X1813957Y2573693D02*
X1821043D01*
X1803457Y2531807D02*
X1810543D01*
X1803457Y2545193D02*
X1810543D01*
X1803457Y2531807D02*
Y2545193D01*
X1810543Y2531807D02*
Y2545193D01*
X1839307Y2539457D02*
Y2546543D01*
X1852693Y2539457D02*
Y2546543D01*
X1839307Y2539457D02*
X1852693D01*
X1839307Y2546543D02*
X1852693D01*
X1927685Y2494323D02*
Y2509677D01*
X1938315Y2494323D02*
Y2509677D01*
X1927685Y2494323D02*
X1938315D01*
X1927685Y2509677D02*
X1938315D01*
X1891831Y2562646D02*
Y2568354D01*
X1883169Y2562646D02*
Y2568354D01*
Y2562646D02*
X1891831D01*
X1883169Y2568354D02*
X1891831D01*
X1847957Y2575193D02*
X1855043D01*
X1847957Y2561807D02*
X1855043D01*
X1847957D02*
Y2575193D01*
X1855043Y2561807D02*
Y2575193D01*
X1867256Y2529724D02*
Y2545473D01*
X1886941Y2529724D02*
Y2545473D01*
X1867256Y2529724D02*
X1886941D01*
X1867256Y2545473D02*
X1886941D01*
X1838957Y2593193D02*
X1846043D01*
X1838957Y2579807D02*
X1846043D01*
X1838957D02*
Y2593193D01*
X1846043Y2579807D02*
Y2593193D01*
X1901323Y2540185D02*
X1916677D01*
X1901323Y2550815D02*
X1916677D01*
Y2540185D02*
Y2550815D01*
X1901323Y2540185D02*
Y2550815D01*
X1900823Y2553185D02*
X1916177D01*
X1900823Y2563815D02*
X1916177D01*
Y2553185D02*
Y2563815D01*
X1900823Y2553185D02*
Y2563815D01*
X1963331Y2578146D02*
Y2583854D01*
X1954669Y2578146D02*
Y2583854D01*
Y2578146D02*
X1963331D01*
X1954669Y2583854D02*
X1963331D01*
X1950528Y2548256D02*
X1966276D01*
X1950528Y2567941D02*
X1966276D01*
Y2548256D02*
Y2567941D01*
X1950528Y2548256D02*
Y2567941D01*
X2000169Y2540146D02*
Y2545854D01*
X2008831Y2540146D02*
Y2545854D01*
X2000169D02*
X2008831D01*
X2000169Y2540146D02*
X2008831D01*
X2012374Y2547658D02*
Y2567343D01*
X1996626Y2547658D02*
Y2567343D01*
Y2547658D02*
X2012374D01*
X1996626Y2567343D02*
X2012374D01*
X1917823Y2355815D02*
X1933177D01*
X1917823Y2345185D02*
X1933177D01*
X1917823D02*
Y2355815D01*
X1933177Y2345185D02*
Y2355815D01*
X1939323Y2281315D02*
X1954677D01*
X1939323Y2270685D02*
X1954677D01*
X1939323D02*
Y2281315D01*
X1954677Y2270685D02*
Y2281315D01*
X1924669Y2332646D02*
Y2338354D01*
X1933331Y2332646D02*
Y2338354D01*
X1924669D02*
X1933331D01*
X1924669Y2332646D02*
X1933331D01*
X1954744Y2306027D02*
Y2321776D01*
X1935059Y2306027D02*
Y2321776D01*
X1954744D01*
X1935059Y2306027D02*
X1954744D01*
X1977146Y2357669D02*
X1982854D01*
X1977146Y2366331D02*
X1982854D01*
X1977146Y2357669D02*
Y2366331D01*
X1982854Y2357669D02*
Y2366331D01*
X1954157Y2375646D02*
X1973842D01*
X1954157Y2359898D02*
X1973842D01*
Y2375646D01*
X1954157Y2359898D02*
Y2375646D01*
X1772807Y2614449D02*
X1786193D01*
X1772807Y2595551D02*
X1786193D01*
X1772807D02*
Y2614449D01*
X1786193Y2595551D02*
Y2614449D01*
X1737307Y2609449D02*
X1750693D01*
X1737307Y2590551D02*
X1750693D01*
Y2609449D01*
X1737307Y2590551D02*
Y2609449D01*
X1384193Y2666551D02*
Y2685449D01*
X1370807Y2666551D02*
Y2685449D01*
X1384193D01*
X1370807Y2666551D02*
X1384193D01*
X1430707Y2509051D02*
Y2527949D01*
X1444093Y2509051D02*
Y2527949D01*
X1430707D02*
X1444093D01*
X1430707Y2509051D02*
X1444093D01*
X1369693Y2666551D02*
Y2685449D01*
X1356307Y2666551D02*
Y2685449D01*
X1369693D01*
X1356307Y2666551D02*
X1369693D01*
X1415707Y2509051D02*
Y2527949D01*
X1429093Y2509051D02*
Y2527949D01*
X1415707D02*
X1429093D01*
X1415707Y2509051D02*
X1429093D01*
X1952189Y2630044D02*
X1954834Y2632689D01*
X1956922Y2625311D02*
X1959566Y2627956D01*
X1954834Y2632689D02*
X1959566Y2627956D01*
X1952189Y2630044D02*
X1956922Y2625311D01*
X1948689Y2626044D02*
X1951334Y2628689D01*
X1953422Y2621311D02*
X1956067Y2623956D01*
X1951334Y2628689D02*
X1956067Y2623956D01*
X1948689Y2626044D02*
X1953422Y2621311D01*
X1959189Y2616044D02*
X1961834Y2618689D01*
X1963922Y2611311D02*
X1966566Y2613956D01*
X1961834Y2618689D02*
X1966566Y2613956D01*
X1959189Y2616044D02*
X1963922Y2611311D01*
X1900531Y2635630D02*
X1907224D01*
X1900531Y2639370D02*
X1907224D01*
X1900531Y2635630D02*
Y2639370D01*
X1907224Y2635630D02*
Y2639370D01*
X1577370Y2706153D02*
Y2712846D01*
X1573630Y2706153D02*
Y2712846D01*
Y2706153D02*
X1577370D01*
X1573630Y2712846D02*
X1577370D01*
X1534456Y2753223D02*
X1537101Y2755868D01*
X1529723Y2757956D02*
X1532368Y2760601D01*
X1529723Y2757956D02*
X1534456Y2753223D01*
X1532368Y2760601D02*
X1537101Y2755868D01*
X1543456Y2740223D02*
X1546101Y2742868D01*
X1538723Y2744956D02*
X1541368Y2747601D01*
X1538723Y2744956D02*
X1543456Y2740223D01*
X1541368Y2747601D02*
X1546101Y2742868D01*
X1547456Y2744223D02*
X1550101Y2746868D01*
X1542723Y2748956D02*
X1545368Y2751601D01*
X1542723Y2748956D02*
X1547456Y2744223D01*
X1545368Y2751601D02*
X1550101Y2746868D01*
X1619654Y2465370D02*
X1626347D01*
X1619654Y2461630D02*
X1626347D01*
Y2465370D01*
X1619654Y2461630D02*
Y2465370D01*
X1568544Y2457811D02*
X1571189Y2460456D01*
X1563811Y2462544D02*
X1566456Y2465189D01*
X1563811Y2462544D02*
X1568544Y2457811D01*
X1566456Y2465189D02*
X1571189Y2460456D01*
X1547456Y2724601D02*
X1550101Y2721956D01*
X1542723Y2719868D02*
X1545368Y2717223D01*
X1550101Y2721956D01*
X1542723Y2719868D02*
X1547456Y2724601D01*
X2015311Y2459044D02*
X2017956Y2461689D01*
X2020044Y2454311D02*
X2022689Y2456956D01*
X2017956Y2461689D02*
X2022689Y2456956D01*
X2015311Y2459044D02*
X2020044Y2454311D01*
X1948189Y2646456D02*
X1950834Y2643811D01*
X1952922Y2651189D02*
X1955566Y2648544D01*
X1948189Y2646456D02*
X1952922Y2651189D01*
X1950834Y2643811D02*
X1955566Y2648544D01*
X1834169Y2655146D02*
Y2660854D01*
X1842831Y2655146D02*
Y2660854D01*
X1834169D02*
X1842831D01*
X1834169Y2655146D02*
X1842831D01*
X1794169Y2199146D02*
Y2204854D01*
X1802831Y2199146D02*
Y2204854D01*
X1794169D02*
X1802831D01*
X1794169Y2199146D02*
X1802831D01*
X1789957Y2682807D02*
X1797043D01*
X1789957Y2696193D02*
X1797043D01*
X1789957Y2682807D02*
Y2696193D01*
X1797043Y2682807D02*
Y2696193D01*
X1845693Y2689457D02*
Y2696543D01*
X1832307Y2689457D02*
Y2696543D01*
Y2689457D02*
X1845693D01*
X1832307Y2696543D02*
X1845693D01*
X2027311Y2488456D02*
X2029956Y2485811D01*
X2032044Y2493189D02*
X2034689Y2490544D01*
X2027311Y2488456D02*
X2032044Y2493189D01*
X2029956Y2485811D02*
X2034689Y2490544D01*
X2015811Y2478456D02*
X2018456Y2475811D01*
X2020544Y2483189D02*
X2023189Y2480544D01*
X2015811Y2478456D02*
X2020544Y2483189D01*
X2018456Y2475811D02*
X2023189Y2480544D01*
X2019311Y2474456D02*
X2021956Y2471811D01*
X2024044Y2479189D02*
X2026689Y2476544D01*
X2019311Y2474456D02*
X2024044Y2479189D01*
X2021956Y2471811D02*
X2026689Y2476544D01*
X2026811Y2448544D02*
X2031544Y2443811D01*
X2029456Y2451189D02*
X2034189Y2446456D01*
X2031544Y2443811D02*
X2034189Y2446456D01*
X2026811Y2448544D02*
X2029456Y2451189D01*
X1566044Y2448189D02*
X1568689Y2445544D01*
X1561311Y2443456D02*
X1563956Y2440811D01*
X1568689Y2445544D01*
X1561311Y2443456D02*
X1566044Y2448189D01*
X1569544Y2444189D02*
X1572189Y2441544D01*
X1564811Y2439456D02*
X1567456Y2436811D01*
X1572189Y2441544D01*
X1564811Y2439456D02*
X1569544Y2444189D01*
X1558544Y2434189D02*
X1561189Y2431544D01*
X1553811Y2429456D02*
X1556456Y2426811D01*
X1561189Y2431544D01*
X1553811Y2429456D02*
X1558544Y2434189D01*
X2018811Y2463044D02*
X2023544Y2458311D01*
X2021456Y2465689D02*
X2026189Y2460956D01*
X2023544Y2458311D02*
X2026189Y2460956D01*
X2018811Y2463044D02*
X2021456Y2465689D01*
X1556956Y2476689D02*
X1561689Y2471956D01*
X1554311Y2474044D02*
X1559044Y2469311D01*
X1554311Y2474044D02*
X1556956Y2476689D01*
X1559044Y2469311D02*
X1561689Y2471956D01*
X1811307Y2448457D02*
X1824693D01*
X1811307Y2455543D02*
X1824693D01*
Y2448457D02*
Y2455543D01*
X1811307Y2448457D02*
Y2455543D01*
X1798169Y2449146D02*
X1806831D01*
X1798169Y2454854D02*
X1806831D01*
Y2449146D02*
Y2454854D01*
X1798169Y2449146D02*
Y2454854D01*
X1839169Y2208354D02*
X1847831D01*
X1839169Y2202646D02*
X1847831D01*
X1839169D02*
Y2208354D01*
X1847831Y2202646D02*
Y2208354D01*
X1538811Y2723956D02*
X1543544Y2728689D01*
X1541456Y2721311D02*
X1546189Y2726044D01*
X1538811Y2723956D02*
X1541456Y2721311D01*
X1543544Y2728689D02*
X1546189Y2726044D01*
X1954834Y2639811D02*
X1959566Y2644544D01*
X1952189Y2642456D02*
X1956922Y2647189D01*
X1959566Y2644544D01*
X1952189Y2642456D02*
X1954834Y2639811D01*
X1531311Y2709956D02*
X1536044Y2714689D01*
X1533956Y2707311D02*
X1538689Y2712044D01*
X1531311Y2709956D02*
X1533956Y2707311D01*
X1536044Y2714689D02*
X1538689Y2712044D01*
X1961834Y2654311D02*
X1966566Y2659044D01*
X1959189Y2656956D02*
X1963922Y2661689D01*
X1966566Y2659044D01*
X1959189Y2656956D02*
X1961834Y2654311D01*
X1825669Y2335146D02*
Y2340854D01*
X1834331Y2335146D02*
Y2340854D01*
X1825669D02*
X1834331D01*
X1825669Y2335146D02*
X1834331D01*
X1795126Y2299315D02*
Y2338685D01*
X1810874Y2299315D02*
Y2338685D01*
X1795126D02*
X1810874D01*
X1795126Y2299315D02*
X1810874D01*
X1565044Y2454311D02*
X1567689Y2456956D01*
X1560311Y2459044D02*
X1562956Y2461689D01*
X1560311Y2459044D02*
X1565044Y2454311D01*
X1562956Y2461689D02*
X1567689Y2456956D01*
X1557354Y2494968D02*
X1569165D01*
X1557354Y2500480D02*
X1569165D01*
X1557354Y2494968D02*
Y2500480D01*
X1569165Y2494968D02*
Y2500480D01*
X1557744Y2407594D02*
Y2419406D01*
X1563256Y2407594D02*
Y2419406D01*
X1557744D02*
X1563256D01*
X1557744Y2407594D02*
X1563256D01*
X1779807Y2647051D02*
X1793193D01*
X1779807Y2665949D02*
X1793193D01*
X1779807Y2647051D02*
Y2665949D01*
X1793193Y2647051D02*
Y2665949D01*
X1535594Y2767744D02*
X1547406D01*
X1535594Y2773256D02*
X1547406D01*
X1535594Y2767744D02*
Y2773256D01*
X1547406Y2767744D02*
Y2773256D01*
X1540375Y2699273D02*
X1548727Y2707625D01*
X1544273Y2695375D02*
X1552625Y2703727D01*
X1548727Y2707625D02*
X1552625Y2703727D01*
X1540375Y2699273D02*
X1544273Y2695375D01*
X1955654Y2487130D02*
X1962346D01*
X1955654Y2490870D02*
X1962346D01*
X1955654Y2487130D02*
Y2490870D01*
X1962346Y2487130D02*
Y2490870D01*
X1692193Y2674457D02*
Y2681543D01*
X1678807Y2674457D02*
Y2681543D01*
Y2674457D02*
X1692193D01*
X1678807Y2681543D02*
X1692193D01*
X2169807Y2490551D02*
Y2509449D01*
X2183193Y2490551D02*
Y2509449D01*
X2169807D02*
X2183193D01*
X2169807Y2490551D02*
X2183193D01*
X2185307Y2491051D02*
Y2509949D01*
X2198693Y2491051D02*
Y2509949D01*
X2185307D02*
X2198693D01*
X2185307Y2491051D02*
X2198693D01*
X2020244Y2435094D02*
Y2446906D01*
X2025756Y2435094D02*
Y2446906D01*
X2020244D02*
X2025756D01*
X2020244Y2435094D02*
X2025756D01*
X2031256Y2497594D02*
Y2509406D01*
X2025744Y2497594D02*
Y2509406D01*
Y2497594D02*
X2031256D01*
X2025744Y2509406D02*
X2031256D01*
X1948875Y2597773D02*
X1957227Y2606125D01*
X1952773Y2593876D02*
X1961124Y2602227D01*
X1957227Y2606125D02*
X1961124Y2602227D01*
X1948875Y2597773D02*
X1952773Y2593876D01*
X1953049Y2675625D02*
X1961400Y2667273D01*
X1949151Y2671727D02*
X1957503Y2663375D01*
X1961400Y2667273D01*
X1949151Y2671727D02*
X1953049Y2675625D01*
X2124551Y2709307D02*
X2143449D01*
X2124551Y2722693D02*
X2143449D01*
X2124551Y2709307D02*
Y2722693D01*
X2143449Y2709307D02*
Y2722693D01*
X2124551Y2692307D02*
X2143449D01*
X2124551Y2705693D02*
X2143449D01*
X2124551Y2692307D02*
Y2705693D01*
X2143449Y2692307D02*
Y2705693D01*
X1743807Y2651551D02*
X1757193D01*
X1743807Y2670449D02*
X1757193D01*
Y2651551D02*
Y2670449D01*
X1743807Y2651551D02*
Y2670449D01*
X1641126Y2498158D02*
Y2517842D01*
X1656874Y2498158D02*
Y2517842D01*
X1641126D02*
X1656874D01*
X1641126Y2498158D02*
X1656874D01*
X1672256Y2470224D02*
Y2485973D01*
X1691941Y2470224D02*
Y2485973D01*
X1672256Y2470224D02*
X1691941D01*
X1672256Y2485973D02*
X1691941D01*
X1694146Y2469169D02*
X1699854D01*
X1694146Y2477831D02*
X1699854D01*
X1694146Y2469169D02*
Y2477831D01*
X1699854Y2469169D02*
Y2477831D01*
X1703185Y2453661D02*
Y2469016D01*
X1713815Y2453661D02*
Y2469016D01*
X1703185Y2453661D02*
X1713815D01*
X1703185Y2469016D02*
X1713815D01*
X1660831Y2521146D02*
Y2526854D01*
X1652169Y2521146D02*
Y2526854D01*
Y2521146D02*
X1660831D01*
X1652169Y2526854D02*
X1660831D01*
X1648898Y2581157D02*
Y2600842D01*
X1664646Y2581157D02*
Y2600842D01*
X1648898D02*
X1664646D01*
X1648898Y2581157D02*
X1664646D01*
X1663331Y2603646D02*
Y2609354D01*
X1654669Y2603646D02*
Y2609354D01*
Y2603646D02*
X1663331D01*
X1654669Y2609354D02*
X1663331D01*
X1700693Y2603457D02*
Y2610543D01*
X1687307Y2603457D02*
Y2610543D01*
Y2603457D02*
X1700693D01*
X1687307Y2610543D02*
X1700693D01*
X1676756Y2546224D02*
Y2561972D01*
X1696441Y2546224D02*
Y2561972D01*
X1676756Y2546224D02*
X1696441D01*
X1676756Y2561972D02*
X1696441D01*
X1714815Y2565323D02*
Y2580677D01*
X1704185Y2565323D02*
Y2580677D01*
X1714815D01*
X1704185Y2565323D02*
X1714815D01*
X1698146Y2542169D02*
X1703854D01*
X1698146Y2550831D02*
X1703854D01*
X1698146Y2542169D02*
Y2550831D01*
X1703854Y2542169D02*
Y2550831D01*
X1714815Y2492323D02*
Y2507677D01*
X1704185Y2492323D02*
Y2507677D01*
X1714815D01*
X1704185Y2492323D02*
X1714815D01*
X1706685Y2528323D02*
Y2543677D01*
X1717315Y2528323D02*
Y2543677D01*
X1706685Y2528323D02*
X1717315D01*
X1706685Y2543677D02*
X1717315D01*
M02*
