G04 Layer_Physical_Order=1*
G04 Layer_Color=255*
%FSLAX25Y25*%
%MOIN*%
G70*
G01*
G75*
%ADD10R,0.05118X0.05905*%
G04:AMPARAMS|DCode=11|XSize=51.18mil|YSize=59.05mil|CornerRadius=0mil|HoleSize=0mil|Usage=FLASHONLY|Rotation=135.000|XOffset=0mil|YOffset=0mil|HoleType=Round|Shape=Rectangle|*
%AMROTATEDRECTD11*
4,1,4,0.03897,0.00278,-0.00278,-0.03897,-0.03897,-0.00278,0.00278,0.03897,0.03897,0.00278,0.0*
%
%ADD11ROTATEDRECTD11*%

%ADD12R,0.05905X0.05118*%
%ADD13R,0.05905X0.05905*%
%ADD14R,0.04331X0.05512*%
%ADD15R,0.02362X0.06102*%
%ADD16R,0.05905X0.05905*%
%ADD17R,0.05512X0.04331*%
%ADD18R,0.02362X0.03937*%
%ADD19R,0.07874X0.06299*%
%ADD20R,0.05709X0.02362*%
%ADD21R,0.06693X0.04331*%
%ADD22R,0.02362X0.05709*%
%ADD23R,0.06299X0.07874*%
%ADD24R,0.09567X0.12480*%
%ADD25R,0.12480X0.09567*%
%ADD26R,0.12992X0.05512*%
%ADD27R,0.15748X0.07874*%
%ADD28R,0.07874X0.13386*%
%ADD29R,0.13386X0.07874*%
G04:AMPARAMS|DCode=30|XSize=35.43mil|YSize=27.56mil|CornerRadius=0mil|HoleSize=0mil|Usage=FLASHONLY|Rotation=45.000|XOffset=0mil|YOffset=0mil|HoleType=Round|Shape=Rectangle|*
%AMROTATEDRECTD30*
4,1,4,-0.00278,-0.02227,-0.02227,-0.00278,0.00278,0.02227,0.02227,0.00278,-0.00278,-0.02227,0.0*
%
%ADD30ROTATEDRECTD30*%

G04:AMPARAMS|DCode=31|XSize=37.4mil|YSize=27.56mil|CornerRadius=0mil|HoleSize=0mil|Usage=FLASHONLY|Rotation=225.000|XOffset=0mil|YOffset=0mil|HoleType=Round|Shape=Rectangle|*
%AMROTATEDRECTD31*
4,1,4,0.00348,0.02297,0.02297,0.00348,-0.00348,-0.02297,-0.02297,-0.00348,0.00348,0.02297,0.0*
%
%ADD31ROTATEDRECTD31*%

G04:AMPARAMS|DCode=32|XSize=21.65mil|YSize=27.56mil|CornerRadius=0mil|HoleSize=0mil|Usage=FLASHONLY|Rotation=225.000|XOffset=0mil|YOffset=0mil|HoleType=Round|Shape=Rectangle|*
%AMROTATEDRECTD32*
4,1,4,-0.00209,0.01740,0.01740,-0.00209,0.00209,-0.01740,-0.01740,0.00209,-0.00209,0.01740,0.0*
%
%ADD32ROTATEDRECTD32*%

%ADD33R,0.06693X0.05118*%
%ADD34R,0.05118X0.06693*%
%ADD35R,0.09842X0.09842*%
G04:AMPARAMS|DCode=36|XSize=35.43mil|YSize=27.56mil|CornerRadius=0mil|HoleSize=0mil|Usage=FLASHONLY|Rotation=315.000|XOffset=0mil|YOffset=0mil|HoleType=Round|Shape=Rectangle|*
%AMROTATEDRECTD36*
4,1,4,-0.02227,0.00278,-0.00278,0.02227,0.02227,-0.00278,0.00278,-0.02227,-0.02227,0.00278,0.0*
%
%ADD36ROTATEDRECTD36*%

%ADD37R,0.04331X0.06693*%
%ADD38R,0.05512X0.05000*%
%ADD39R,0.18898X0.18583*%
%ADD40R,0.05000X0.05512*%
%ADD41R,0.18583X0.18898*%
G04:AMPARAMS|DCode=42|XSize=37.4mil|YSize=27.56mil|CornerRadius=0mil|HoleSize=0mil|Usage=FLASHONLY|Rotation=135.000|XOffset=0mil|YOffset=0mil|HoleType=Round|Shape=Rectangle|*
%AMROTATEDRECTD42*
4,1,4,0.02297,-0.00348,0.00348,-0.02297,-0.02297,0.00348,-0.00348,0.02297,0.02297,-0.00348,0.0*
%
%ADD42ROTATEDRECTD42*%

G04:AMPARAMS|DCode=43|XSize=21.65mil|YSize=27.56mil|CornerRadius=0mil|HoleSize=0mil|Usage=FLASHONLY|Rotation=135.000|XOffset=0mil|YOffset=0mil|HoleType=Round|Shape=Rectangle|*
%AMROTATEDRECTD43*
4,1,4,0.01740,0.00209,-0.00209,-0.01740,-0.01740,-0.00209,0.00209,0.01740,0.01740,0.00209,0.0*
%
%ADD43ROTATEDRECTD43*%

%ADD44R,0.06102X0.02362*%
%ADD45R,0.10787X0.14961*%
%ADD46R,0.07874X0.11811*%
%ADD47R,0.11811X0.07874*%
%ADD48R,0.03937X0.05905*%
%ADD49R,0.02756X0.05905*%
%ADD50R,0.31496X0.23622*%
%ADD51R,0.07874X0.15748*%
%ADD52R,0.11811X0.15748*%
%ADD53R,0.21654X0.11811*%
%ADD54R,0.09842X0.09842*%
%ADD55R,0.04331X0.04331*%
%ADD56R,0.04331X0.24016*%
%ADD57R,0.06102X0.02362*%
%ADD58R,0.02559X0.03937*%
%ADD59R,0.03937X0.02559*%
G04:AMPARAMS|DCode=60|XSize=25.59mil|YSize=39.37mil|CornerRadius=0mil|HoleSize=0mil|Usage=FLASHONLY|Rotation=45.000|XOffset=0mil|YOffset=0mil|HoleType=Round|Shape=Rectangle|*
%AMROTATEDRECTD60*
4,1,4,0.00487,-0.02297,-0.02297,0.00487,-0.00487,0.02297,0.02297,-0.00487,0.00487,-0.02297,0.0*
%
%ADD60ROTATEDRECTD60*%

%ADD61R,0.01968X0.07874*%
G04:AMPARAMS|DCode=62|XSize=25.59mil|YSize=39.37mil|CornerRadius=0mil|HoleSize=0mil|Usage=FLASHONLY|Rotation=315.000|XOffset=0mil|YOffset=0mil|HoleType=Round|Shape=Rectangle|*
%AMROTATEDRECTD62*
4,1,4,-0.02297,-0.00487,0.00487,0.02297,0.02297,0.00487,-0.00487,-0.02297,-0.02297,-0.00487,0.0*
%
%ADD62ROTATEDRECTD62*%

%ADD63R,0.07874X0.01968*%
%ADD64C,0.08000*%
%ADD65C,0.03000*%
%ADD66C,0.02000*%
%ADD67C,0.10000*%
%ADD68C,0.05000*%
%ADD69C,0.20000*%
%ADD70C,0.17000*%
%ADD71C,0.15000*%
%ADD72C,0.04000*%
%ADD73C,0.02500*%
%ADD74C,0.01500*%
%ADD75C,0.01000*%
%ADD76C,0.03500*%
%ADD77C,0.05905*%
%ADD78C,0.07874*%
%ADD79O,0.03937X0.07874*%
%ADD80O,0.03937X0.07874*%
%ADD81O,0.07874X0.03937*%
%ADD82O,0.07874X0.03937*%
%ADD83C,0.06693*%
%ADD84C,0.04724*%
%ADD85C,0.08000*%
%ADD86C,0.12000*%
%ADD87R,0.07874X0.07874*%
%ADD88R,0.10827X0.10827*%
%ADD89C,0.10827*%
%ADD90R,0.12000X0.12000*%
%ADD91R,0.13780X0.13780*%
%ADD92C,0.11811*%
%ADD93R,0.10827X0.10827*%
%ADD94C,0.19685*%
%ADD95R,0.07874X0.07874*%
%ADD96R,0.23622X0.23622*%
%ADD97C,0.15748*%
%ADD98O,0.05905X0.07874*%
%ADD99R,0.05905X0.07874*%
%ADD100C,0.23622*%
%ADD101C,0.05000*%
%ADD102C,0.03500*%
%ADD103C,0.01500*%
%ADD104C,0.03000*%
%ADD105C,0.02500*%
%ADD106C,0.01968*%
G36*
X1579000Y2480269D02*
Y2464480D01*
X1578500Y2463980D01*
X1577000Y2462480D01*
X1571682D01*
X1571081Y2463081D01*
X1570585Y2463413D01*
X1570122Y2463505D01*
X1569866Y2463761D01*
X1569545Y2463439D01*
X1569415Y2463413D01*
X1568919Y2463081D01*
X1568318Y2462480D01*
X1566500D01*
X1565323Y2461304D01*
X1562191Y2464436D01*
X1561958Y2464204D01*
X1558208Y2467953D01*
X1555118Y2464863D01*
X1553500Y2466480D01*
Y2466980D01*
X1560000Y2473480D01*
X1567500Y2480980D01*
X1578289D01*
X1579000Y2480269D01*
D02*
G37*
G36*
X1979500Y2486646D02*
X1979500Y2486500D01*
X1987250Y2478750D01*
X1987500Y2479000D01*
X2012000D01*
X2013000Y2478000D01*
Y2476605D01*
X2012469Y2476074D01*
X2011917Y2475247D01*
X2011839Y2474855D01*
X2010983Y2474000D01*
X2005484D01*
Y2477291D01*
X1991697D01*
Y2474500D01*
X1980000D01*
X1977500Y2477000D01*
X1969262Y2477000D01*
X1969000Y2477035D01*
X1968738Y2477000D01*
X1962000Y2477000D01*
X1962000Y2470413D01*
X1961647Y2470059D01*
X1955153Y2470059D01*
X1954654Y2469559D01*
X1953654D01*
Y2468559D01*
X1948095Y2463000D01*
X1933500Y2463000D01*
Y2484000D01*
X1964000D01*
X1967000Y2487000D01*
X1979146D01*
X1979500Y2486646D01*
D02*
G37*
G36*
X2031011Y2480511D02*
X2025500Y2475000D01*
X2022975Y2477526D01*
X2023207Y2478000D01*
X2024000D01*
X2028500Y2482500D01*
X2029022D01*
X2031011Y2480511D01*
D02*
G37*
G36*
X2023000Y2474000D02*
Y2473500D01*
Y2464500D01*
X2017000Y2458500D01*
X2014198Y2461302D01*
X2014081Y2461477D01*
X2013772Y2461786D01*
Y2463315D01*
X2012243D01*
X2011977Y2463581D01*
X2011802Y2463698D01*
X2011500Y2464000D01*
X2011000Y2464500D01*
X2006006D01*
X2006000Y2464506D01*
Y2472000D01*
X2010500D01*
X2010971Y2472471D01*
X2010983D01*
X2011569Y2472587D01*
X2012065Y2472919D01*
X2012158Y2473012D01*
X2013772D01*
Y2475214D01*
X2014081Y2475523D01*
X2014198Y2475698D01*
X2015000Y2476500D01*
Y2477000D01*
Y2478000D01*
X2017000Y2480000D01*
X2023000Y2474000D01*
D02*
G37*
G36*
X1520500Y2507000D02*
X1520500Y2452000D01*
X1520500D01*
X1520500Y2404500D01*
X1550000Y2404500D01*
Y2366000D01*
X1515500Y2366000D01*
X1490000Y2391500D01*
X1358035Y2391500D01*
Y2452000D01*
X1493000Y2452000D01*
X1495000Y2454000D01*
Y2507000D01*
X1520500Y2507000D01*
D02*
G37*
G36*
X1583000Y2489500D02*
X1604000Y2468500D01*
X1622500D01*
X1630500Y2460500D01*
Y2453500D01*
X1619000Y2453500D01*
X1618500Y2454000D01*
X1615500Y2457000D01*
X1612507D01*
X1611975Y2457355D01*
X1611000Y2457549D01*
X1606951D01*
X1606500Y2458000D01*
X1575047D01*
X1575045Y2458001D01*
X1574810Y2458353D01*
X1574500Y2458663D01*
Y2460500D01*
X1581500D01*
X1582500Y2461500D01*
Y2469000D01*
Y2470000D01*
X1580529Y2471971D01*
Y2480269D01*
X1580500Y2480417D01*
Y2480500D01*
X1580479Y2480521D01*
X1580413Y2480854D01*
X1580081Y2481351D01*
X1579370Y2482062D01*
X1578874Y2482393D01*
X1578540Y2482460D01*
X1577500Y2483500D01*
X1577000Y2484000D01*
X1568500Y2484000D01*
X1568500Y2484500D01*
Y2486437D01*
Y2490000D01*
X1582500D01*
X1583000Y2489500D01*
D02*
G37*
G36*
X1809248Y2465532D02*
X1807969Y2464252D01*
Y2457067D01*
X1803835D01*
X1803835Y2464252D01*
X1802555Y2465532D01*
Y2475177D01*
X1809248D01*
Y2465532D01*
D02*
G37*
G36*
X1553363Y2478500D02*
X1545000D01*
X1544500Y2479000D01*
Y2483000D01*
X1553363D01*
Y2478500D01*
D02*
G37*
G36*
X1452622Y2576000D02*
Y2558610D01*
X1473402D01*
Y2576000D01*
X1477803Y2576000D01*
X1478139Y2575629D01*
X1478076Y2575000D01*
X1478258Y2573156D01*
X1478796Y2571383D01*
X1479669Y2569749D01*
X1480845Y2568317D01*
X1482277Y2567142D01*
X1483911Y2566268D01*
X1485684Y2565731D01*
X1487528Y2565549D01*
X1489371Y2565731D01*
X1491144Y2566268D01*
X1492778Y2567142D01*
X1494210Y2568317D01*
X1495386Y2569749D01*
X1496259Y2571383D01*
X1496797Y2573156D01*
X1496979Y2575000D01*
X1496917Y2575629D01*
X1497252Y2576000D01*
X1520500Y2575999D01*
X1520500Y2521500D01*
X1391500Y2521500D01*
Y2576000D01*
X1452622Y2576000D01*
D02*
G37*
G36*
X2058689Y2587000D02*
X2058987Y2586598D01*
X2058758Y2585844D01*
X2058577Y2584000D01*
X2058758Y2582156D01*
X2059296Y2580383D01*
X2060169Y2578749D01*
X2061345Y2577317D01*
X2062777Y2576142D01*
X2064411Y2575268D01*
X2066184Y2574731D01*
X2068028Y2574549D01*
X2069871Y2574731D01*
X2071644Y2575268D01*
X2073278Y2576142D01*
X2074710Y2577317D01*
X2075886Y2578749D01*
X2076759Y2580383D01*
X2077297Y2582156D01*
X2077479Y2584000D01*
X2077297Y2585844D01*
X2077068Y2586598D01*
X2077366Y2587000D01*
X2198634Y2587000D01*
X2198932Y2586598D01*
X2198703Y2585844D01*
X2198521Y2584000D01*
X2198703Y2582156D01*
X2199241Y2580383D01*
X2200114Y2578749D01*
X2201290Y2577317D01*
X2202722Y2576142D01*
X2204356Y2575268D01*
X2206129Y2574731D01*
X2207972Y2574549D01*
X2209816Y2574731D01*
X2211589Y2575268D01*
X2213223Y2576142D01*
X2213514Y2576380D01*
X2213965Y2576166D01*
Y2509000D01*
X2157500Y2509000D01*
Y2527250D01*
X2154937D01*
Y2527874D01*
X2140063D01*
Y2527250D01*
X2128000D01*
X2085571Y2527250D01*
X2084822Y2527890D01*
X2083269Y2528842D01*
X2081587Y2529539D01*
X2079816Y2529964D01*
X2078000Y2530107D01*
X2076184Y2529964D01*
X2074413Y2529539D01*
X2072731Y2528842D01*
X2071178Y2527890D01*
X2070428Y2527250D01*
X2034517Y2527250D01*
X2031577Y2531258D01*
X2031000Y2534000D01*
X2031001Y2583001D01*
X2032660Y2584660D01*
X2033122Y2584469D01*
Y2567610D01*
X2053902D01*
Y2587000D01*
X2058689D01*
D02*
G37*
G36*
X1990757Y2665701D02*
X1990757Y2587701D01*
X1989579D01*
Y2586819D01*
X1971272D01*
Y2588276D01*
X1971028Y2588520D01*
Y2602925D01*
X1976583D01*
Y2604071D01*
X1976934D01*
Y2635024D01*
X1976241Y2635716D01*
X1971028D01*
Y2651201D01*
X1971272D01*
Y2651370D01*
X1976934D01*
X1976934Y2665347D01*
X1977287Y2665701D01*
X1990757Y2665701D01*
D02*
G37*
G36*
X2035000Y2506000D02*
X2027621Y2504982D01*
X2027244Y2505311D01*
Y2506280D01*
X2020307D01*
Y2504000D01*
X2010000D01*
X2004500Y2498500D01*
X2005000Y2498000D01*
Y2481500D01*
X1986663D01*
X1984000Y2484163D01*
Y2492000D01*
X2000000Y2507000D01*
X2001500Y2508500D01*
X2035000D01*
Y2506000D01*
D02*
G37*
G36*
X2043000Y2484000D02*
X2035000D01*
Y2488500D01*
X2043000D01*
Y2484000D01*
D02*
G37*
G36*
X1548839Y2499695D02*
X1548853Y2499681D01*
Y2484165D01*
X1548098D01*
X1547500Y2484284D01*
X1546902Y2484165D01*
X1543528D01*
Y2484130D01*
X1542947D01*
Y2471166D01*
X1548474Y2471166D01*
X1548828Y2470813D01*
X1548828Y2470005D01*
X1548828Y2453188D01*
X1543813D01*
X1544016Y2452984D01*
X1548839D01*
Y2437433D01*
X1542933D01*
Y2425622D01*
X1542811Y2425500D01*
X1529000D01*
Y2500000D01*
X1530532D01*
Y2500272D01*
X1548839D01*
Y2499695D01*
D02*
G37*
G36*
X2025000Y2489000D02*
X2026000Y2490000D01*
X2028500Y2490000D01*
X2031222Y2487278D01*
X2029292Y2484865D01*
X2029234Y2484862D01*
X2029234D01*
X2028872Y2484500D01*
X2028000Y2484500D01*
X2025123Y2481623D01*
X2024809Y2481936D01*
X2021687Y2478813D01*
X2017000Y2483500D01*
X2007000D01*
Y2498000D01*
X2009000Y2500000D01*
X2014000D01*
X2025000Y2489000D01*
D02*
G37*
G36*
X1384000Y2292730D02*
X1383970Y2292500D01*
Y2275000D01*
X1358035D01*
Y2384000D01*
X1384000D01*
Y2292730D01*
D02*
G37*
G36*
X1462500Y2281000D02*
X1476000D01*
X1476500Y2280500D01*
Y2248000D01*
Y2233000D01*
X1387500D01*
X1387500Y2271685D01*
X1387831D01*
Y2292500D01*
X1399063Y2292500D01*
Y2281465D01*
Y2279811D01*
X1413937D01*
Y2281465D01*
Y2292500D01*
X1451000Y2292500D01*
X1462500Y2281000D01*
D02*
G37*
G36*
X1490000Y2315291D02*
X1470551D01*
Y2314500D01*
X1469500D01*
X1469500Y2332000D01*
X1432000Y2369500D01*
Y2384000D01*
X1490000D01*
Y2315291D01*
D02*
G37*
G36*
X2087660Y2233043D02*
X2017831D01*
Y2256583D01*
X2017037D01*
Y2272500D01*
X2019063D01*
Y2270126D01*
X2033937D01*
Y2272500D01*
X2057500D01*
X2058000Y2273000D01*
X2059563D01*
Y2271811D01*
X2074437D01*
Y2273000D01*
X2087660D01*
X2087660Y2233043D01*
D02*
G37*
G36*
X1641138Y2213362D02*
X1641915Y2212415D01*
X1642862Y2211638D01*
X1649931Y2204569D01*
X1650144Y2203867D01*
X1650780Y2202678D01*
X1651635Y2201635D01*
X1652678Y2200780D01*
X1653867Y2200144D01*
X1654569Y2199931D01*
X1676000Y2178500D01*
X1727500D01*
Y2116112D01*
X1726167Y2115018D01*
X1725053Y2113661D01*
X1724225Y2112112D01*
X1723716Y2110432D01*
X1723544Y2108685D01*
X1723716Y2106938D01*
X1724225Y2105257D01*
X1725053Y2103709D01*
X1726167Y2102352D01*
X1727500Y2101258D01*
Y2086000D01*
X1725500Y2084000D01*
X1388500D01*
X1384500Y2088000D01*
X1384500Y2131500D01*
X1377000Y2139000D01*
Y2223500D01*
X1631000D01*
X1641138Y2213362D01*
D02*
G37*
G36*
X2167000Y2267500D02*
X2167000Y2242500D01*
X2175043Y2234457D01*
X2174878Y2233915D01*
X2173898Y2233391D01*
X2172915Y2232585D01*
X2172109Y2231602D01*
X2171510Y2230481D01*
X2171141Y2229265D01*
X2171016Y2228000D01*
X2171141Y2226735D01*
X2171510Y2225519D01*
X2172109Y2224398D01*
X2172915Y2223415D01*
X2173898Y2222609D01*
X2175019Y2222010D01*
X2176235Y2221641D01*
X2177500Y2221516D01*
X2178765Y2221641D01*
X2179981Y2222010D01*
X2180899Y2222500D01*
X2181102Y2222609D01*
X2182085Y2223415D01*
X2182891Y2224398D01*
X2183415Y2225378D01*
X2183957Y2225543D01*
X2190047Y2219453D01*
X2189859Y2218990D01*
X2189500Y2218984D01*
Y2165658D01*
X2189500Y2125000D01*
X2189500Y2125000D01*
Y2090500D01*
X2183000Y2084000D01*
X1845478Y2084000D01*
X1845242Y2084500D01*
X1845891Y2085291D01*
X1846490Y2086412D01*
X1846859Y2087629D01*
X1846984Y2088894D01*
X1846859Y2090159D01*
X1846490Y2091375D01*
X1845891Y2092496D01*
X1845085Y2093479D01*
X1844884Y2093644D01*
Y2094144D01*
X1845085Y2094309D01*
X1845891Y2095291D01*
X1846490Y2096412D01*
X1846859Y2097629D01*
X1846984Y2098894D01*
X1846859Y2100159D01*
X1846490Y2101375D01*
X1845891Y2102496D01*
X1845085Y2103479D01*
X1844102Y2104285D01*
X1842981Y2104884D01*
X1841765Y2105253D01*
X1840500Y2105378D01*
X1839235Y2105253D01*
X1838019Y2104884D01*
X1836898Y2104285D01*
X1835915Y2103479D01*
X1835750Y2103277D01*
X1835250D01*
X1835085Y2103479D01*
X1834102Y2104285D01*
X1832981Y2104884D01*
X1831765Y2105253D01*
X1830500Y2105378D01*
X1829235Y2105253D01*
X1828019Y2104884D01*
X1826898Y2104285D01*
X1825915Y2103479D01*
X1825750Y2103277D01*
X1825250D01*
X1825085Y2103479D01*
X1824102Y2104285D01*
X1822981Y2104884D01*
X1821765Y2105253D01*
X1820500Y2105378D01*
X1819235Y2105253D01*
X1818019Y2104884D01*
X1816898Y2104285D01*
X1815915Y2103479D01*
X1815750Y2103277D01*
X1815250D01*
X1815085Y2103479D01*
X1814102Y2104285D01*
X1812981Y2104884D01*
X1811765Y2105253D01*
X1810500Y2105378D01*
X1809235Y2105253D01*
X1808019Y2104884D01*
X1806898Y2104285D01*
X1805915Y2103479D01*
X1805109Y2102496D01*
X1804510Y2101375D01*
X1804141Y2100159D01*
X1804016Y2098894D01*
X1804141Y2097629D01*
X1804510Y2096412D01*
X1804850Y2095775D01*
X1804593Y2095346D01*
X1804047D01*
Y2084000D01*
X1745500Y2084000D01*
X1740000Y2089500D01*
X1740000Y2103808D01*
X1740775Y2105257D01*
X1741284Y2106938D01*
X1741456Y2108685D01*
X1741284Y2110432D01*
X1740775Y2112112D01*
X1740000Y2113562D01*
X1740000Y2174636D01*
X1744111Y2178000D01*
X1748500Y2178000D01*
X1924500Y2178000D01*
X1969000Y2222500D01*
X2126000Y2222500D01*
Y2267000D01*
X2131500Y2272500D01*
X2162000Y2272500D01*
X2167000Y2267500D01*
D02*
G37*
G36*
X1546500Y2294500D02*
Y2238000D01*
X1540500Y2233000D01*
X1539000Y2233000D01*
X1514000D01*
X1500086Y2233000D01*
Y2290500D01*
X1476000D01*
X1474000Y2292500D01*
Y2311461D01*
X1493890D01*
Y2311500D01*
X1529500D01*
X1546500Y2294500D01*
D02*
G37*
G36*
X2213965Y2373466D02*
X2189500Y2349000D01*
X2154500Y2349000D01*
X2154500Y2349000D01*
X2091000D01*
X2087500Y2352500D01*
X2087500Y2372500D01*
X2090500Y2375500D01*
X2094000Y2379000D01*
X2140500D01*
X2140500Y2448000D01*
X2128000Y2460500D01*
X2100000Y2460500D01*
X2087000Y2447500D01*
X2087000Y2411000D01*
X2067000D01*
Y2421500D01*
X2067000Y2503000D01*
X2213965Y2503000D01*
Y2373466D01*
D02*
G37*
G36*
X2043000Y2441500D02*
X2043000Y2437000D01*
X2035000D01*
Y2441500D01*
X2043000Y2441500D01*
D02*
G37*
G36*
X1632500Y2438000D02*
X1629000Y2434500D01*
X1615301Y2434500D01*
X1614436Y2434858D01*
X1613000Y2435048D01*
X1611564Y2434858D01*
X1610699Y2434500D01*
X1607500Y2434500D01*
X1602500Y2439500D01*
X1577500D01*
X1575000Y2442000D01*
Y2442852D01*
X1575029Y2443000D01*
X1575029Y2445007D01*
X1575519Y2445500D01*
X1582016D01*
Y2442709D01*
X1595803D01*
Y2445500D01*
X1616500D01*
X1622000Y2451000D01*
X1632500D01*
X1632500Y2438000D01*
D02*
G37*
G36*
X1572000Y2460000D02*
Y2459000D01*
X1573728Y2457272D01*
Y2456685D01*
X1574315D01*
X1575500Y2455500D01*
X1581494D01*
X1581500Y2455494D01*
Y2448354D01*
X1581146Y2448000D01*
X1575500Y2448000D01*
X1574488Y2446988D01*
X1573728D01*
Y2446228D01*
X1573500Y2446000D01*
X1573500Y2443000D01*
X1571000Y2440500D01*
X1570646Y2440354D01*
X1564000Y2447000D01*
Y2456000D01*
X1570000Y2462000D01*
X1572000Y2460000D01*
D02*
G37*
G36*
X1967000Y2465000D02*
X1971497Y2465000D01*
X1972456Y2464603D01*
X1973500Y2464466D01*
X1974544Y2464603D01*
X1974547Y2464604D01*
X1974603Y2464566D01*
X1975579Y2464372D01*
X1979194D01*
X1979715Y2463851D01*
X1980542Y2463299D01*
X1981365Y2463135D01*
X1982000Y2462500D01*
X2010895D01*
X2013000Y2460395D01*
Y2460246D01*
X2012564Y2459809D01*
X2013000Y2459373D01*
Y2457000D01*
X2007000D01*
X2006500Y2456500D01*
X2005500Y2455500D01*
X2005500Y2440760D01*
X2005681Y2440608D01*
Y2440047D01*
X2006348D01*
X2008191Y2438500D01*
X2010165Y2438500D01*
X2020116D01*
X2020500Y2438116D01*
Y2435500D01*
X1999500D01*
X1955000Y2463000D01*
Y2467874D01*
X1955066Y2467974D01*
X1955072Y2468000D01*
X1964000D01*
X1967000Y2465000D01*
D02*
G37*
G36*
X1585000Y2437000D02*
X1585000Y2405500D01*
X1571000Y2405500D01*
X1568500Y2408000D01*
Y2410720D01*
X1568693D01*
Y2416279D01*
X1568500D01*
Y2417500D01*
X1578500D01*
X1579500Y2418500D01*
Y2437000D01*
X1585000Y2437000D01*
D02*
G37*
G36*
X2058500Y2497000D02*
X2058500Y2419000D01*
X2039590D01*
X2038772Y2419819D01*
Y2435370D01*
X2044677D01*
Y2447181D01*
Y2466323D01*
X2043984Y2467016D01*
X2038772D01*
Y2482567D01*
X2044677D01*
X2044677Y2496646D01*
X2045031Y2497000D01*
X2058500Y2497000D01*
D02*
G37*
G36*
X1570500Y2437000D02*
X1577500D01*
Y2422500D01*
X1576500Y2421500D01*
X1568500D01*
X1554000Y2436000D01*
X1555952Y2437952D01*
X1559266Y2434638D01*
X1560128Y2435500D01*
X1561000D01*
X1566500Y2441000D01*
X1570500Y2437000D01*
D02*
G37*
G36*
X1550412Y2745912D02*
X1550912D01*
Y2744412D01*
X1550517Y2742044D01*
X1551698Y2737912D01*
X1553412Y2737912D01*
X1558912D01*
Y2729412D01*
X1553412D01*
X1552400Y2728400D01*
X1551640D01*
Y2727641D01*
X1550912Y2726912D01*
Y2722912D01*
X1548912Y2720912D01*
X1542412Y2727412D01*
Y2741412D01*
X1548167Y2747647D01*
X1548667Y2747657D01*
X1550412Y2745912D01*
D02*
G37*
G36*
X1621500Y2727696D02*
X1621778Y2727723D01*
X1628500Y2721000D01*
X1628500Y2682000D01*
X1635000Y2680500D01*
X1652000Y2665500D01*
X1652000Y2659000D01*
X1650000Y2657000D01*
X1640500D01*
X1633000Y2664500D01*
X1620000Y2677500D01*
Y2706000D01*
X1612000Y2714000D01*
X1585500D01*
X1581000Y2718500D01*
Y2720000D01*
X1557500D01*
X1553000Y2724500D01*
Y2727500D01*
X1553500Y2728000D01*
X1559892D01*
Y2726412D01*
X1559928Y2726234D01*
Y2725121D01*
X1572715D01*
Y2726314D01*
X1572854Y2726522D01*
X1572932Y2726912D01*
Y2728000D01*
X1586161D01*
X1586698Y2727198D01*
X1587525Y2726645D01*
X1588500Y2726451D01*
X1589475Y2726645D01*
X1590302Y2727198D01*
X1590839Y2728000D01*
X1592660D01*
X1592735Y2727943D01*
X1593586Y2727590D01*
X1594500Y2727470D01*
X1595414Y2727590D01*
X1596265Y2727943D01*
X1596340Y2728000D01*
X1621500D01*
Y2727696D01*
D02*
G37*
G36*
X1858393Y2738491D02*
X1858500Y2738391D01*
Y2727500D01*
X1843000D01*
X1841000Y2729500D01*
X1841000Y2737402D01*
X1851736D01*
Y2738500D01*
X1858349D01*
X1858393Y2738491D01*
D02*
G37*
G36*
X1752764Y2728256D02*
Y2728256D01*
X1764000D01*
Y2717500D01*
X1750500D01*
Y2727970D01*
X1750635D01*
X1750921Y2728008D01*
X1751210Y2728017D01*
X1751376Y2728067D01*
X1751379Y2728068D01*
X1751452Y2728075D01*
X1751462Y2728079D01*
X1751548Y2728090D01*
X1751815Y2728201D01*
X1752092Y2728285D01*
X1752219Y2728364D01*
X1752264Y2728381D01*
X1752764Y2728256D01*
D02*
G37*
G36*
X2211500Y2715500D02*
Y2675500D01*
X2202000Y2666000D01*
X2066000Y2666000D01*
X2057500Y2657500D01*
X2033000Y2657500D01*
X2033000Y2675000D01*
X2047500Y2689500D01*
X2160000Y2689500D01*
X2192500Y2722000D01*
X2205000Y2722000D01*
X2211500Y2715500D01*
D02*
G37*
G36*
X1664000Y2800000D02*
X1507102Y2800000D01*
X1499500Y2800000D01*
X1497000Y2795625D01*
X1497000Y2707354D01*
X1496646Y2707000D01*
X1491500Y2707000D01*
X1491500Y2713000D01*
X1481000Y2723500D01*
X1444000D01*
X1398500Y2678000D01*
X1358035D01*
Y2760884D01*
X1358251Y2760987D01*
X1358035Y2761144D01*
Y2766035D01*
X1362000Y2770000D01*
X1377081D01*
X1380346Y2771563D01*
X1380874D01*
Y2771816D01*
X1382000Y2772355D01*
Y2778324D01*
X1426903Y2815063D01*
X1431622D01*
Y2818924D01*
X1446340Y2830965D01*
X1664000D01*
X1664000Y2800000D01*
D02*
G37*
G36*
X1529500Y2711500D02*
X1522000Y2711500D01*
X1521500Y2712000D01*
Y2716000D01*
X1529500D01*
Y2711500D01*
D02*
G37*
G36*
X1527500Y2786500D02*
Y2769520D01*
X1526132D01*
X1526033Y2769500D01*
X1525728D01*
Y2769433D01*
X1519823D01*
Y2757622D01*
D01*
Y2756677D01*
X1521000Y2755500D01*
X1527500D01*
Y2718500D01*
X1526433Y2717433D01*
X1520248D01*
Y2703748D01*
X1520000Y2703500D01*
X1506000D01*
X1505500Y2704000D01*
Y2788000D01*
X1526000D01*
X1527500Y2786500D01*
D02*
G37*
G36*
X1909500Y2793000D02*
X1905500Y2789000D01*
X1855000D01*
X1852500Y2791500D01*
X1852500Y2830965D01*
X1909500D01*
Y2793000D01*
D02*
G37*
G36*
X1982500Y2789500D02*
X1922000D01*
X1920000Y2791500D01*
Y2830965D01*
X1982500D01*
Y2789500D01*
D02*
G37*
G36*
X1528500Y2768000D02*
Y2763354D01*
X1528146Y2763000D01*
X1522500Y2763000D01*
X1521500Y2764000D01*
X1521500Y2767500D01*
X1522414Y2768414D01*
X1525728D01*
X1526118Y2768491D01*
X1526132Y2768500D01*
X1528000D01*
X1528500Y2768000D01*
D02*
G37*
G36*
X1609412Y2757912D02*
Y2730912D01*
X1600912D01*
X1600412Y2730412D01*
X1590824Y2740000D01*
X1571912Y2740000D01*
X1571912Y2726912D01*
X1571412Y2726412D01*
X1560912D01*
Y2739412D01*
X1559912Y2740412D01*
X1553065D01*
X1552874Y2740874D01*
X1552912Y2740912D01*
Y2742412D01*
X1558912D01*
X1561959Y2745459D01*
X1562731D01*
Y2746231D01*
X1563912Y2747412D01*
Y2760412D01*
X1565912Y2763912D01*
X1603412D01*
X1609412Y2757912D01*
D02*
G37*
G36*
X1859000Y2764000D02*
X1859000Y2742344D01*
X1858624Y2742014D01*
X1858500Y2742030D01*
X1841500D01*
X1841500Y2753500D01*
X1836500Y2758500D01*
X1836500Y2771146D01*
X1836854Y2771500D01*
X1851500D01*
X1859000Y2764000D01*
D02*
G37*
G36*
X2184500Y2761500D02*
X2184500Y2731000D01*
X2151500Y2698000D01*
X2041500Y2698000D01*
X2025000Y2681500D01*
X2025000Y2604000D01*
X2009500Y2588500D01*
X1999500D01*
Y2675000D01*
X1990500Y2684000D01*
X1945500D01*
X1939500Y2690000D01*
Y2711000D01*
X1971000Y2742500D01*
X2022000Y2742500D01*
X2045500Y2766000D01*
X2180000Y2766000D01*
X2184500Y2761500D01*
D02*
G37*
G36*
X1838000Y2670500D02*
Y2653500D01*
X1838500Y2653000D01*
X1846000D01*
X1847500Y2654500D01*
X1848000Y2654000D01*
X1872998D01*
X1872998Y2654000D01*
X1892672Y2654000D01*
X1893000Y2653957D01*
X1893328Y2654000D01*
X1903378Y2654000D01*
X1912378D01*
X1915878Y2650500D01*
X1943378D01*
X1945378Y2648500D01*
X1945386Y2644929D01*
X1945207Y2644662D01*
X1945173Y2644489D01*
X1938378Y2644500D01*
Y2646000D01*
X1937862Y2646516D01*
Y2646791D01*
X1937587D01*
X1937378Y2647000D01*
X1924878D01*
Y2646000D01*
X1923378Y2644500D01*
X1913378D01*
X1912378Y2643500D01*
X1911246D01*
X1911000Y2643549D01*
X1910754Y2643500D01*
X1903378D01*
Y2641000D01*
X1900378Y2638000D01*
X1872854Y2638000D01*
X1872854Y2638000D01*
X1871000D01*
X1864500Y2644500D01*
X1838000D01*
X1832500Y2650000D01*
Y2671000D01*
X1837500D01*
X1838000Y2670500D01*
D02*
G37*
G36*
X1934916Y2667538D02*
X1934878Y2667500D01*
Y2666500D01*
Y2653500D01*
X1933378Y2652000D01*
X1917878D01*
X1916378Y2653500D01*
Y2659500D01*
X1918878Y2664000D01*
X1922878Y2668000D01*
X1934725D01*
X1934916Y2667538D01*
D02*
G37*
G36*
X1975914Y2657146D02*
X1975914Y2653354D01*
X1975561Y2653000D01*
X1970000Y2653000D01*
X1966962Y2649962D01*
X1966500Y2650153D01*
X1966500Y2657500D01*
X1975561Y2657500D01*
X1975914Y2657146D01*
D02*
G37*
G36*
X1975500Y2608146D02*
Y2604000D01*
X1968500Y2604000D01*
X1967000Y2602500D01*
X1960854Y2602500D01*
X1960500Y2602854D01*
X1960500Y2608146D01*
X1960854Y2608500D01*
X1975146Y2608500D01*
X1975500Y2608146D01*
D02*
G37*
G36*
X1956378Y2642000D02*
Y2631000D01*
X1951378Y2626000D01*
X1948878D01*
Y2629500D01*
X1946149Y2632228D01*
Y2632815D01*
X1945563D01*
X1944878Y2633500D01*
X1942378D01*
X1941378Y2634500D01*
X1939378D01*
Y2642000D01*
Y2642500D01*
X1944378D01*
X1945390Y2643512D01*
X1946149D01*
Y2644272D01*
X1949878Y2648000D01*
X1950378D01*
X1956378Y2642000D01*
D02*
G37*
G36*
X1936878Y2632902D02*
X1939378Y2630401D01*
X1939378Y2617500D01*
Y2607500D01*
X1903878Y2607500D01*
X1888500Y2622878D01*
Y2633500D01*
X1910509Y2633500D01*
X1911235Y2632943D01*
X1912086Y2632590D01*
X1913000Y2632470D01*
X1913914Y2632590D01*
X1914765Y2632943D01*
X1915491Y2633500D01*
X1916287D01*
X1916787Y2633472D01*
X1916787Y2633472D01*
X1924890D01*
Y2633500D01*
X1936279Y2633500D01*
X1936878Y2632902D01*
D02*
G37*
G36*
X1520000Y2671500D02*
X1520000Y2597500D01*
X1358035Y2597500D01*
Y2671500D01*
X1520000Y2671500D01*
D02*
G37*
G36*
X1752000Y2711000D02*
X1765471D01*
X1765587Y2709824D01*
X1765930Y2708693D01*
X1766487Y2707650D01*
X1766500Y2707635D01*
Y2686500D01*
X1765000Y2685000D01*
X1702855Y2684503D01*
X1702500Y2684855D01*
Y2689000D01*
Y2724000D01*
X1704000Y2725500D01*
X1737500D01*
X1752000Y2711000D01*
D02*
G37*
G36*
X1763000Y2732598D02*
X1752764D01*
Y2732395D01*
X1751693Y2732070D01*
X1750650Y2731513D01*
X1750635Y2731500D01*
X1695000D01*
X1695000Y2685500D01*
X1666950D01*
X1665765Y2685859D01*
X1664500Y2685984D01*
X1663235Y2685859D01*
X1662050Y2685500D01*
X1635500D01*
Y2751000D01*
X1763000D01*
Y2732598D01*
D02*
G37*
G36*
X1947878Y2665500D02*
X1954878Y2658500D01*
X1960378D01*
X1962878Y2656000D01*
Y2655500D01*
X1962378D01*
X1960280Y2653403D01*
X1960086Y2653597D01*
X1956723Y2650234D01*
X1956918Y2650040D01*
X1953878Y2647000D01*
X1949878Y2651000D01*
X1944320D01*
X1944099Y2651221D01*
X1943768Y2651442D01*
X1943378Y2651520D01*
X1938358D01*
X1936878Y2653000D01*
Y2666500D01*
X1946878D01*
X1947878Y2665500D01*
D02*
G37*
G36*
X1692248Y2662032D02*
X1690969Y2660752D01*
Y2653567D01*
X1686835D01*
X1686835Y2660752D01*
X1685555Y2662032D01*
Y2671677D01*
X1692248D01*
Y2662032D01*
D02*
G37*
G36*
X1844748Y2673532D02*
X1843468Y2672252D01*
Y2665067D01*
X1839335D01*
X1839335Y2672252D01*
X1838055Y2673532D01*
Y2683177D01*
X1844748D01*
Y2673532D01*
D02*
G37*
%LPC*%
G36*
X1407000Y2158546D02*
X1405138Y2158363D01*
X1403347Y2157819D01*
X1401696Y2156937D01*
X1400250Y2155750D01*
X1399063Y2154304D01*
X1398181Y2152653D01*
X1397637Y2150862D01*
X1397454Y2149000D01*
X1397637Y2147138D01*
X1398181Y2145347D01*
X1399063Y2143697D01*
X1400250Y2142250D01*
X1401696Y2141063D01*
X1403347Y2140181D01*
X1405138Y2139638D01*
X1407000Y2139454D01*
X1408862Y2139638D01*
X1410653Y2140181D01*
X1412304Y2141063D01*
X1413750Y2142250D01*
X1414937Y2143697D01*
X1415819Y2145347D01*
X1416363Y2147138D01*
X1416546Y2149000D01*
X1416363Y2150862D01*
X1415819Y2152653D01*
X1414937Y2154304D01*
X1413750Y2155750D01*
X1412304Y2156937D01*
X1410653Y2157819D01*
X1408862Y2158363D01*
X1407000Y2158546D01*
D02*
G37*
G36*
X1547000Y2159046D02*
X1545138Y2158862D01*
X1543347Y2158319D01*
X1541696Y2157437D01*
X1540250Y2156250D01*
X1539063Y2154803D01*
X1538181Y2153153D01*
X1537637Y2151362D01*
X1537454Y2149500D01*
X1537637Y2147638D01*
X1538181Y2145847D01*
X1539063Y2144197D01*
X1540250Y2142750D01*
X1541696Y2141563D01*
X1543347Y2140681D01*
X1545138Y2140137D01*
X1547000Y2139954D01*
X1548862Y2140137D01*
X1550653Y2140681D01*
X1552304Y2141563D01*
X1553750Y2142750D01*
X1554937Y2144197D01*
X1555819Y2145847D01*
X1556363Y2147638D01*
X1556546Y2149500D01*
X1556363Y2151362D01*
X1555819Y2153153D01*
X1554937Y2154803D01*
X1553750Y2156250D01*
X1552304Y2157437D01*
X1550653Y2158319D01*
X1548862Y2158862D01*
X1547000Y2159046D01*
D02*
G37*
G36*
X1836000Y2140968D02*
X1834735Y2140844D01*
X1833519Y2140475D01*
X1832398Y2139875D01*
X1831415Y2139069D01*
X1830609Y2138087D01*
X1830010Y2136966D01*
X1829641Y2135749D01*
X1829516Y2134484D01*
Y2132516D01*
X1829641Y2131251D01*
X1830010Y2130034D01*
X1830609Y2128913D01*
X1831415Y2127931D01*
X1832398Y2127124D01*
X1833519Y2126525D01*
X1834735Y2126156D01*
X1836000Y2126032D01*
X1837265Y2126156D01*
X1838481Y2126525D01*
X1839118Y2126866D01*
X1839547Y2126609D01*
Y2126063D01*
X1852453D01*
Y2140937D01*
X1839547D01*
Y2140391D01*
X1839118Y2140134D01*
X1838481Y2140475D01*
X1837265Y2140844D01*
X1836000Y2140968D01*
D02*
G37*
G36*
X1963130Y2158046D02*
X1961268Y2157862D01*
X1959477Y2157319D01*
X1957826Y2156437D01*
X1956380Y2155250D01*
X1955193Y2153803D01*
X1954311Y2152153D01*
X1953767Y2150362D01*
X1953584Y2148500D01*
X1953767Y2146638D01*
X1954311Y2144847D01*
X1955193Y2143196D01*
X1956380Y2141750D01*
X1957826Y2140563D01*
X1959477Y2139681D01*
X1961268Y2139137D01*
X1963130Y2138954D01*
X1964992Y2139137D01*
X1966783Y2139681D01*
X1968433Y2140563D01*
X1969880Y2141750D01*
X1971067Y2143196D01*
X1971949Y2144847D01*
X1972492Y2146638D01*
X1972676Y2148500D01*
X1972492Y2150362D01*
X1971949Y2152153D01*
X1971067Y2153803D01*
X1969880Y2155250D01*
X1968433Y2156437D01*
X1966783Y2157319D01*
X1964992Y2157862D01*
X1963130Y2158046D01*
D02*
G37*
G36*
X1888500Y2136484D02*
X1887235Y2136359D01*
X1886019Y2135990D01*
X1884898Y2135391D01*
X1883915Y2134585D01*
X1883109Y2133602D01*
X1882510Y2132481D01*
X1882141Y2131265D01*
X1882016Y2130000D01*
X1882141Y2128735D01*
X1882510Y2127519D01*
X1883109Y2126398D01*
X1883915Y2125415D01*
X1884898Y2124609D01*
X1886019Y2124010D01*
X1887235Y2123641D01*
X1888500Y2123516D01*
X1889765Y2123641D01*
X1890981Y2124010D01*
X1892102Y2124609D01*
X1893085Y2125415D01*
X1893891Y2126398D01*
X1894490Y2127519D01*
X1894859Y2128735D01*
X1894984Y2130000D01*
X1894859Y2131265D01*
X1894490Y2132481D01*
X1893891Y2133602D01*
X1893085Y2134585D01*
X1892102Y2135391D01*
X1890981Y2135990D01*
X1889765Y2136359D01*
X1888500Y2136484D01*
D02*
G37*
G36*
X1890000Y2108957D02*
X1888253Y2108784D01*
X1886572Y2108275D01*
X1885024Y2107447D01*
X1883667Y2106333D01*
X1882553Y2104976D01*
X1881725Y2103428D01*
X1881216Y2101747D01*
X1881043Y2100000D01*
X1881216Y2098253D01*
X1881725Y2096572D01*
X1882553Y2095024D01*
X1883667Y2093667D01*
X1885024Y2092553D01*
X1886572Y2091725D01*
X1888253Y2091216D01*
X1890000Y2091043D01*
X1891747Y2091216D01*
X1893427Y2091725D01*
X1894976Y2092553D01*
X1896333Y2093667D01*
X1897447Y2095024D01*
X1898275Y2096572D01*
X1898784Y2098253D01*
X1898956Y2100000D01*
X1898784Y2101747D01*
X1898275Y2103428D01*
X1897447Y2104976D01*
X1896333Y2106333D01*
X1894976Y2107447D01*
X1893427Y2108275D01*
X1891747Y2108784D01*
X1890000Y2108957D01*
D02*
G37*
G36*
X1854500Y2109484D02*
X1853235Y2109359D01*
X1852019Y2108990D01*
X1850898Y2108391D01*
X1849915Y2107585D01*
X1849109Y2106602D01*
X1848510Y2105481D01*
X1848141Y2104265D01*
X1848016Y2103000D01*
X1848141Y2101735D01*
X1848510Y2100519D01*
X1849109Y2099398D01*
X1849915Y2098415D01*
X1850898Y2097609D01*
X1852019Y2097010D01*
X1853235Y2096641D01*
X1854500Y2096516D01*
X1855765Y2096641D01*
X1856981Y2097010D01*
X1858102Y2097609D01*
X1859085Y2098415D01*
X1859891Y2099398D01*
X1860490Y2100519D01*
X1860606Y2100901D01*
X1861106Y2100827D01*
Y2091087D01*
X1878933D01*
Y2108913D01*
X1861106D01*
Y2105173D01*
X1860606Y2105099D01*
X1860490Y2105481D01*
X1859891Y2106602D01*
X1859085Y2107585D01*
X1858102Y2108391D01*
X1856981Y2108990D01*
X1855765Y2109359D01*
X1854500Y2109484D01*
D02*
G37*
G36*
X1799500Y2129984D02*
X1798235Y2129859D01*
X1797019Y2129490D01*
X1795898Y2128891D01*
X1794915Y2128085D01*
X1794109Y2127102D01*
X1793510Y2125981D01*
X1793141Y2124765D01*
X1793016Y2123500D01*
X1793141Y2122235D01*
X1793510Y2121019D01*
X1794109Y2119898D01*
X1794915Y2118915D01*
X1795898Y2118109D01*
X1797019Y2117510D01*
X1798235Y2117141D01*
X1799500Y2117016D01*
X1800765Y2117141D01*
X1801981Y2117510D01*
X1803102Y2118109D01*
X1804085Y2118915D01*
X1804891Y2119898D01*
X1805490Y2121019D01*
X1805859Y2122235D01*
X1805984Y2123500D01*
X1805859Y2124765D01*
X1805490Y2125981D01*
X1804891Y2127102D01*
X1804085Y2128085D01*
X1803102Y2128891D01*
X1801981Y2129490D01*
X1800765Y2129859D01*
X1799500Y2129984D01*
D02*
G37*
G36*
X2103130Y2158546D02*
X2101268Y2158363D01*
X2099477Y2157819D01*
X2097827Y2156937D01*
X2096380Y2155750D01*
X2095193Y2154304D01*
X2094311Y2152653D01*
X2093767Y2150862D01*
X2093584Y2149000D01*
X2093767Y2147138D01*
X2094311Y2145347D01*
X2095193Y2143697D01*
X2096380Y2142250D01*
X2097827Y2141063D01*
X2099477Y2140181D01*
X2101268Y2139638D01*
X2103130Y2139454D01*
X2104992Y2139638D01*
X2106783Y2140181D01*
X2108433Y2141063D01*
X2109880Y2142250D01*
X2111067Y2143697D01*
X2111949Y2145347D01*
X2112493Y2147138D01*
X2112676Y2149000D01*
X2112493Y2150862D01*
X2111949Y2152653D01*
X2111067Y2154304D01*
X2109880Y2155750D01*
X2108433Y2156937D01*
X2106783Y2157819D01*
X2104992Y2158363D01*
X2103130Y2158546D01*
D02*
G37*
G36*
X1788000Y2159473D02*
X1786542Y2159329D01*
X1785140Y2158904D01*
X1783848Y2158214D01*
X1782716Y2157284D01*
X1781786Y2156152D01*
X1781096Y2154860D01*
X1780671Y2153458D01*
X1780527Y2152000D01*
X1780671Y2150542D01*
X1781096Y2149140D01*
X1781786Y2147848D01*
X1782716Y2146716D01*
X1783848Y2145786D01*
X1785140Y2145096D01*
X1786542Y2144671D01*
X1788000Y2144527D01*
X1789458Y2144671D01*
X1790860Y2145096D01*
X1792152Y2145786D01*
X1793284Y2146716D01*
X1794214Y2147848D01*
X1794904Y2149140D01*
X1795329Y2150542D01*
X1795473Y2152000D01*
X1795329Y2153458D01*
X1794904Y2154860D01*
X1794214Y2156152D01*
X1793284Y2157284D01*
X1792152Y2158214D01*
X1790860Y2158904D01*
X1789458Y2159329D01*
X1788000Y2159473D01*
D02*
G37*
G36*
X1878000D02*
X1876542Y2159329D01*
X1875140Y2158904D01*
X1873848Y2158214D01*
X1873000Y2157517D01*
X1872152Y2158214D01*
X1870860Y2158904D01*
X1869458Y2159329D01*
X1868000Y2159473D01*
X1866542Y2159329D01*
X1865140Y2158904D01*
X1863848Y2158214D01*
X1862716Y2157284D01*
X1861786Y2156152D01*
X1861096Y2154860D01*
X1860671Y2153458D01*
X1860527Y2152000D01*
X1860671Y2150542D01*
X1861096Y2149140D01*
X1861786Y2147848D01*
X1862716Y2146716D01*
X1863848Y2145786D01*
X1865140Y2145096D01*
X1866542Y2144671D01*
X1868000Y2144527D01*
X1869458Y2144671D01*
X1870860Y2145096D01*
X1872152Y2145786D01*
X1873000Y2146483D01*
X1873848Y2145786D01*
X1875140Y2145096D01*
X1876542Y2144671D01*
X1878000Y2144527D01*
X1879458Y2144671D01*
X1880860Y2145096D01*
X1882152Y2145786D01*
X1883284Y2146716D01*
X1884214Y2147848D01*
X1884904Y2149140D01*
X1885329Y2150542D01*
X1885473Y2152000D01*
X1885329Y2153458D01*
X1884904Y2154860D01*
X1884214Y2156152D01*
X1883284Y2157284D01*
X1882152Y2158214D01*
X1880860Y2158904D01*
X1879458Y2159329D01*
X1878000Y2159473D01*
D02*
G37*
G36*
X1808000D02*
X1806542Y2159329D01*
X1805140Y2158904D01*
X1803848Y2158214D01*
X1802716Y2157284D01*
X1801786Y2156152D01*
X1801096Y2154860D01*
X1800671Y2153458D01*
X1800527Y2152000D01*
X1800671Y2150542D01*
X1801096Y2149140D01*
X1801786Y2147848D01*
X1802716Y2146716D01*
X1803848Y2145786D01*
X1805140Y2145096D01*
X1806542Y2144671D01*
X1808000Y2144527D01*
X1809458Y2144671D01*
X1810860Y2145096D01*
X1812152Y2145786D01*
X1813284Y2146716D01*
X1814214Y2147848D01*
X1814904Y2149140D01*
X1815329Y2150542D01*
X1815473Y2152000D01*
X1815329Y2153458D01*
X1814904Y2154860D01*
X1814214Y2156152D01*
X1813284Y2157284D01*
X1812152Y2158214D01*
X1810860Y2158904D01*
X1809458Y2159329D01*
X1808000Y2159473D01*
D02*
G37*
G36*
X1411374Y2724437D02*
X1388626D01*
Y2709563D01*
X1411374D01*
Y2724437D01*
D02*
G37*
G36*
X1448000Y2777107D02*
X1446184Y2776964D01*
X1444413Y2776539D01*
X1442731Y2775842D01*
X1441178Y2774890D01*
X1439793Y2773707D01*
X1438610Y2772322D01*
X1437658Y2770769D01*
X1436961Y2769087D01*
X1436536Y2767316D01*
X1436393Y2765500D01*
X1436536Y2763684D01*
X1436961Y2761913D01*
X1437658Y2760231D01*
X1438610Y2758678D01*
X1439793Y2757293D01*
X1441178Y2756110D01*
X1442731Y2755158D01*
X1444413Y2754461D01*
X1446184Y2754036D01*
X1448000Y2753893D01*
X1449816Y2754036D01*
X1451587Y2754461D01*
X1453269Y2755158D01*
X1454822Y2756110D01*
X1456207Y2757293D01*
X1457390Y2758678D01*
X1458342Y2760231D01*
X1459039Y2761913D01*
X1459464Y2763684D01*
X1459607Y2765500D01*
X1459464Y2767316D01*
X1459039Y2769087D01*
X1458342Y2770769D01*
X1457390Y2772322D01*
X1456207Y2773707D01*
X1454822Y2774890D01*
X1453269Y2775842D01*
X1451587Y2776539D01*
X1449816Y2776964D01*
X1448000Y2777107D01*
D02*
G37*
G36*
X1473402Y2633890D02*
X1452622D01*
Y2613110D01*
X1473402D01*
Y2633890D01*
D02*
G37*
G36*
X1487528Y2624451D02*
X1485684Y2624269D01*
X1483911Y2623732D01*
X1482277Y2622858D01*
X1480845Y2621683D01*
X1479669Y2620251D01*
X1478796Y2618617D01*
X1478258Y2616844D01*
X1478076Y2615000D01*
X1478258Y2613156D01*
X1478796Y2611383D01*
X1479669Y2609749D01*
X1480845Y2608317D01*
X1482277Y2607142D01*
X1483911Y2606268D01*
X1485684Y2605731D01*
X1487528Y2605549D01*
X1489371Y2605731D01*
X1491144Y2606268D01*
X1492778Y2607142D01*
X1494210Y2608317D01*
X1495386Y2609749D01*
X1496259Y2611383D01*
X1496797Y2613156D01*
X1496979Y2615000D01*
X1496797Y2616844D01*
X1496259Y2618617D01*
X1495386Y2620251D01*
X1494210Y2621683D01*
X1492778Y2622858D01*
X1491144Y2623732D01*
X1489371Y2624269D01*
X1487528Y2624451D01*
D02*
G37*
%LPD*%
D10*
X1977260Y2275500D02*
D03*
X1984740D02*
D03*
X1860260Y2479000D02*
D03*
X1867740D02*
D03*
X1816760Y2428500D02*
D03*
X1824240D02*
D03*
X1901760Y2437500D02*
D03*
X1909240D02*
D03*
X1948740Y2425500D02*
D03*
X1941260D02*
D03*
X1955020Y2387500D02*
D03*
X1962500D02*
D03*
X1694760Y2403000D02*
D03*
X1702240D02*
D03*
X1702760Y2320500D02*
D03*
X1710240D02*
D03*
X1690240Y2306000D02*
D03*
X1682760D02*
D03*
X1835240Y2327000D02*
D03*
X1827760D02*
D03*
X1835240Y2309500D02*
D03*
X1827760D02*
D03*
X1782240Y2316500D02*
D03*
X1774760D02*
D03*
X1841740Y2401000D02*
D03*
X1834260D02*
D03*
X1804760Y2414500D02*
D03*
X1812240D02*
D03*
X1810260Y2405000D02*
D03*
X1817740D02*
D03*
X1882240Y2242000D02*
D03*
X1874760D02*
D03*
X1774260Y2515000D02*
D03*
X1781740D02*
D03*
X1785760Y2524500D02*
D03*
X1793240D02*
D03*
X1785760Y2533000D02*
D03*
X1793240D02*
D03*
X1654240Y2768000D02*
D03*
X1646760D02*
D03*
X1927740Y2483000D02*
D03*
X1920260D02*
D03*
X1883760Y2557000D02*
D03*
X1891240D02*
D03*
X1901260Y2728500D02*
D03*
X1908740D02*
D03*
X1909760Y2719500D02*
D03*
X1917240D02*
D03*
X1917760Y2728500D02*
D03*
X1925240D02*
D03*
X1925760Y2719500D02*
D03*
X1933240D02*
D03*
X1929260Y2551000D02*
D03*
X1936740D02*
D03*
X1955260Y2573000D02*
D03*
X1962740D02*
D03*
X1992740Y2536000D02*
D03*
X1985260D02*
D03*
X1940760Y2287500D02*
D03*
X1948240D02*
D03*
X1975240Y2339000D02*
D03*
X1967760D02*
D03*
X1967760Y2348000D02*
D03*
X1975240D02*
D03*
X1874240Y2250500D02*
D03*
X1866760D02*
D03*
X1858240Y2268500D02*
D03*
X1850760D02*
D03*
X1936638Y2614000D02*
D03*
X1944118D02*
D03*
X1566652Y2749412D02*
D03*
X1559172D02*
D03*
X1556260Y2714500D02*
D03*
X1563740D02*
D03*
X1892240Y2302000D02*
D03*
X1884760D02*
D03*
X2002260Y2486500D02*
D03*
X2009740D02*
D03*
X1581740Y2434000D02*
D03*
X1574260D02*
D03*
X1583240Y2477000D02*
D03*
X1575760D02*
D03*
X1932138Y2663500D02*
D03*
X1939618D02*
D03*
X2002260Y2444500D02*
D03*
X2009740D02*
D03*
X1711480Y2353500D02*
D03*
X1704000D02*
D03*
X1725760Y2464000D02*
D03*
X1733240D02*
D03*
X1679760Y2196500D02*
D03*
X1687240D02*
D03*
X1739740Y2251500D02*
D03*
X1732260D02*
D03*
X1698260Y2678000D02*
D03*
X1705740D02*
D03*
X1857240Y2658000D02*
D03*
X1849760D02*
D03*
X1857240Y2242500D02*
D03*
X1849760D02*
D03*
X1903260Y2300000D02*
D03*
X1910740D02*
D03*
X1928240Y2260000D02*
D03*
X1920760D02*
D03*
X1866740Y2299500D02*
D03*
X1859260D02*
D03*
X1693740Y2458000D02*
D03*
X1686260D02*
D03*
X1693740Y2448500D02*
D03*
X1686260D02*
D03*
X1697740Y2534000D02*
D03*
X1690260D02*
D03*
X1697740Y2525500D02*
D03*
X1690260D02*
D03*
D11*
X1902645Y2455855D02*
D03*
X1897355Y2461145D02*
D03*
D12*
X1719500Y2576760D02*
D03*
Y2584240D02*
D03*
X1865000Y2438240D02*
D03*
Y2430760D02*
D03*
X1883500Y2439740D02*
D03*
Y2432260D02*
D03*
X1874500Y2438240D02*
D03*
Y2430760D02*
D03*
X1911500Y2426740D02*
D03*
Y2419260D02*
D03*
X1894000Y2411740D02*
D03*
Y2404260D02*
D03*
X1858500Y2332260D02*
D03*
Y2339740D02*
D03*
X1954000Y2250260D02*
D03*
Y2257740D02*
D03*
X1884500Y2411740D02*
D03*
Y2404260D02*
D03*
X1892000Y2354240D02*
D03*
Y2346760D02*
D03*
X1902500Y2354240D02*
D03*
Y2346760D02*
D03*
X1882000Y2354240D02*
D03*
Y2346760D02*
D03*
X1737500Y2395740D02*
D03*
Y2388260D02*
D03*
Y2430740D02*
D03*
Y2423260D02*
D03*
X1703000Y2287760D02*
D03*
Y2295240D02*
D03*
X1776500Y2324760D02*
D03*
Y2332240D02*
D03*
Y2308740D02*
D03*
Y2301260D02*
D03*
X1943500Y2415740D02*
D03*
Y2408260D02*
D03*
X1928500Y2380240D02*
D03*
Y2372760D02*
D03*
X1745500Y2504760D02*
D03*
Y2512240D02*
D03*
X1817500Y2536260D02*
D03*
Y2543740D02*
D03*
X1528500Y2681260D02*
D03*
Y2688740D02*
D03*
X1519500Y2688740D02*
D03*
Y2681260D02*
D03*
X1510000Y2681260D02*
D03*
Y2688740D02*
D03*
X1647000Y2775760D02*
D03*
Y2783240D02*
D03*
X1638500Y2768260D02*
D03*
Y2775740D02*
D03*
Y2783760D02*
D03*
Y2791240D02*
D03*
X1891500Y2519260D02*
D03*
Y2526740D02*
D03*
X1872500Y2585260D02*
D03*
Y2592740D02*
D03*
X1925500Y2559260D02*
D03*
Y2566740D02*
D03*
X1977500Y2572240D02*
D03*
Y2564760D02*
D03*
X1939000Y2567260D02*
D03*
Y2574740D02*
D03*
X1985000Y2552740D02*
D03*
Y2545260D02*
D03*
X1917000Y2334740D02*
D03*
Y2327260D02*
D03*
X1929000Y2298760D02*
D03*
Y2306240D02*
D03*
X1941500Y2341240D02*
D03*
Y2333760D02*
D03*
X1929000Y2314260D02*
D03*
Y2321740D02*
D03*
X1823500Y2685760D02*
D03*
Y2693240D02*
D03*
X1859000Y2250760D02*
D03*
Y2258240D02*
D03*
X1841000Y2259260D02*
D03*
Y2266740D02*
D03*
X1876500Y2309240D02*
D03*
Y2301760D02*
D03*
X1537000Y2673260D02*
D03*
Y2680740D02*
D03*
X1705000Y2669740D02*
D03*
Y2662260D02*
D03*
X1856500Y2672260D02*
D03*
Y2679740D02*
D03*
X1841500Y2242760D02*
D03*
Y2250240D02*
D03*
X1850000Y2250760D02*
D03*
Y2258240D02*
D03*
X1901000Y2260000D02*
D03*
Y2267480D02*
D03*
X1911000Y2260260D02*
D03*
Y2267740D02*
D03*
X1867000Y2318980D02*
D03*
Y2311500D02*
D03*
X1670000Y2516760D02*
D03*
Y2524240D02*
D03*
Y2501260D02*
D03*
Y2508740D02*
D03*
X1689500Y2500260D02*
D03*
Y2507740D02*
D03*
X1675000Y2459740D02*
D03*
Y2452260D02*
D03*
X1699000Y2507740D02*
D03*
Y2500260D02*
D03*
X1679500Y2501260D02*
D03*
Y2508740D02*
D03*
X1677500Y2596260D02*
D03*
Y2603740D02*
D03*
Y2580760D02*
D03*
Y2588240D02*
D03*
X1699000Y2581740D02*
D03*
Y2574260D02*
D03*
X1689500Y2574260D02*
D03*
Y2581740D02*
D03*
X1679500Y2534240D02*
D03*
Y2526760D02*
D03*
D13*
X1847890Y2428000D02*
D03*
X1834110D02*
D03*
X1709890Y2415000D02*
D03*
X1696110D02*
D03*
X1890890Y2480000D02*
D03*
X1877110D02*
D03*
X1771000Y2278500D02*
D03*
X2071500Y2824000D02*
D03*
X1771000Y2494500D02*
D03*
X1830079Y2592528D02*
D03*
X1810500Y2088894D02*
D03*
D14*
X1853453Y2479500D02*
D03*
X1847547D02*
D03*
X1875453Y2398500D02*
D03*
X1869547D02*
D03*
X1812453Y2362000D02*
D03*
X1806547D02*
D03*
X1890453Y2565500D02*
D03*
X1884547D02*
D03*
X1961953Y2581000D02*
D03*
X1956047D02*
D03*
X2001547Y2543000D02*
D03*
X2007453D02*
D03*
X1926047Y2335500D02*
D03*
X1931953D02*
D03*
X1835547Y2658000D02*
D03*
X1841453D02*
D03*
X1795547Y2202000D02*
D03*
X1801453D02*
D03*
X1805453Y2452000D02*
D03*
X1799547D02*
D03*
X1840547Y2205500D02*
D03*
X1846453D02*
D03*
X1827047Y2338000D02*
D03*
X1832953D02*
D03*
X1659453Y2524000D02*
D03*
X1653547D02*
D03*
X1661953Y2606500D02*
D03*
X1656047D02*
D03*
D15*
X1854000Y2448543D02*
D03*
X1859000D02*
D03*
X1864000D02*
D03*
X1869000D02*
D03*
X1874000D02*
D03*
X1879000D02*
D03*
X1884000D02*
D03*
X1889000D02*
D03*
X1854000Y2470000D02*
D03*
X1859000D02*
D03*
X1864000D02*
D03*
X1869000D02*
D03*
X1874000D02*
D03*
X1879000D02*
D03*
X1884000D02*
D03*
X1889000D02*
D03*
X1874500Y2368272D02*
D03*
X1879500D02*
D03*
X1884500D02*
D03*
X1889500D02*
D03*
X1894500D02*
D03*
X1899500D02*
D03*
X1904500D02*
D03*
X1909500D02*
D03*
X1874500Y2389728D02*
D03*
X1879500D02*
D03*
X1884500D02*
D03*
X1889500D02*
D03*
X1894500D02*
D03*
X1899500D02*
D03*
X1904500D02*
D03*
X1909500D02*
D03*
X1824000Y2394228D02*
D03*
X1819000D02*
D03*
X1814000D02*
D03*
X1809000D02*
D03*
X1804000D02*
D03*
X1799000D02*
D03*
X1794000D02*
D03*
X1789000D02*
D03*
X1824000Y2372772D02*
D03*
X1819000D02*
D03*
X1814000D02*
D03*
X1809000D02*
D03*
X1804000D02*
D03*
X1799000D02*
D03*
X1794000D02*
D03*
X1789000D02*
D03*
D16*
X1939000Y2437610D02*
D03*
Y2451390D02*
D03*
X1978500Y2408890D02*
D03*
Y2395110D02*
D03*
X1870500Y2356000D02*
D03*
Y2342220D02*
D03*
X1985500Y2244610D02*
D03*
Y2258390D02*
D03*
X1723000Y2440110D02*
D03*
Y2453890D02*
D03*
X1692500Y2329610D02*
D03*
Y2343390D02*
D03*
X1668000Y2291110D02*
D03*
Y2304890D02*
D03*
X1940000Y2380610D02*
D03*
Y2394390D02*
D03*
X1625000Y2384000D02*
D03*
X1615000D02*
D03*
D17*
X1856000Y2387453D02*
D03*
Y2381547D02*
D03*
X1743500Y2525547D02*
D03*
Y2531453D02*
D03*
X1980000Y2359047D02*
D03*
Y2364953D02*
D03*
X1697000Y2470547D02*
D03*
Y2476453D02*
D03*
X1701000Y2543547D02*
D03*
Y2549453D02*
D03*
D18*
X1834260Y2378288D02*
D03*
X1838000D02*
D03*
X1841740D02*
D03*
Y2389115D02*
D03*
X1834260D02*
D03*
D19*
X1733000Y2513839D02*
D03*
Y2531161D02*
D03*
X1933000Y2493339D02*
D03*
Y2510661D02*
D03*
X1708500Y2452677D02*
D03*
Y2470000D02*
D03*
X1709500Y2581661D02*
D03*
Y2564339D02*
D03*
Y2508661D02*
D03*
Y2491339D02*
D03*
X1712000Y2527339D02*
D03*
Y2544661D02*
D03*
D20*
X1753043Y2539500D02*
D03*
Y2534500D02*
D03*
Y2529500D02*
D03*
Y2524500D02*
D03*
X1774500Y2539500D02*
D03*
Y2534500D02*
D03*
Y2529500D02*
D03*
Y2524500D02*
D03*
X1969130Y2550598D02*
D03*
Y2555598D02*
D03*
Y2560598D02*
D03*
Y2565598D02*
D03*
X1947673Y2550598D02*
D03*
Y2555598D02*
D03*
Y2560598D02*
D03*
Y2565598D02*
D03*
X2015228Y2550000D02*
D03*
Y2555000D02*
D03*
Y2560000D02*
D03*
Y2565000D02*
D03*
X1993772Y2550000D02*
D03*
Y2555000D02*
D03*
Y2560000D02*
D03*
Y2565000D02*
D03*
X1638272Y2515500D02*
D03*
Y2510500D02*
D03*
Y2505500D02*
D03*
Y2500500D02*
D03*
X1659728Y2515500D02*
D03*
Y2510500D02*
D03*
Y2505500D02*
D03*
Y2500500D02*
D03*
X1646043Y2598500D02*
D03*
Y2593500D02*
D03*
Y2588500D02*
D03*
Y2583500D02*
D03*
X1667500Y2598500D02*
D03*
Y2593500D02*
D03*
Y2588500D02*
D03*
Y2583500D02*
D03*
D21*
X1817500Y2561685D02*
D03*
Y2572315D02*
D03*
X1807000Y2533185D02*
D03*
Y2543815D02*
D03*
X1793500Y2684185D02*
D03*
Y2694815D02*
D03*
D22*
X1869598Y2526870D02*
D03*
X1874598D02*
D03*
X1879598D02*
D03*
X1884598D02*
D03*
X1869598Y2548327D02*
D03*
X1874598D02*
D03*
X1879598D02*
D03*
X1884598D02*
D03*
X1952402Y2324630D02*
D03*
X1947402D02*
D03*
X1942402D02*
D03*
X1937402D02*
D03*
X1952402Y2303173D02*
D03*
X1947402D02*
D03*
X1942402D02*
D03*
X1937402D02*
D03*
X1971500Y2378500D02*
D03*
X1966500D02*
D03*
X1961500D02*
D03*
X1956500D02*
D03*
X1971500Y2357043D02*
D03*
X1966500D02*
D03*
X1961500D02*
D03*
X1956500D02*
D03*
X1674598Y2467370D02*
D03*
X1679598D02*
D03*
X1684598D02*
D03*
X1689598D02*
D03*
X1674598Y2488827D02*
D03*
X1679598D02*
D03*
X1684598D02*
D03*
X1689598D02*
D03*
X1679098Y2543370D02*
D03*
X1684098D02*
D03*
X1689098D02*
D03*
X1694098D02*
D03*
X1679098Y2564827D02*
D03*
X1684098D02*
D03*
X1689098D02*
D03*
X1694098D02*
D03*
D23*
X1917661Y2545500D02*
D03*
X1900339D02*
D03*
X1917161Y2558500D02*
D03*
X1899839D02*
D03*
X1916839Y2350500D02*
D03*
X1934161D02*
D03*
X1938339Y2276000D02*
D03*
X1955661D02*
D03*
D24*
X2004500Y2557500D02*
D03*
X1649000Y2508000D02*
D03*
X1656772Y2591000D02*
D03*
D25*
X1964000Y2367772D02*
D03*
D26*
X1744000Y2607480D02*
D03*
Y2592520D02*
D03*
X1377500Y2683480D02*
D03*
Y2668520D02*
D03*
X1363000Y2683480D02*
D03*
Y2668520D02*
D03*
X1786500Y2649020D02*
D03*
Y2663980D02*
D03*
D27*
X1369500Y2799000D02*
D03*
Y2779000D02*
D03*
X1366500Y2717000D02*
D03*
X1400000D02*
D03*
X1399200Y2508000D02*
D03*
X1365700D02*
D03*
X2009500Y2760000D02*
D03*
Y2780000D02*
D03*
D28*
X1852958Y2190500D02*
D03*
X1834848D02*
D03*
X1905848Y2821500D02*
D03*
X1923958D02*
D03*
X1905848Y2800500D02*
D03*
X1923958D02*
D03*
X1707652Y2696000D02*
D03*
X1689542D02*
D03*
X1707652Y2717000D02*
D03*
X1689542D02*
D03*
D29*
X2055500Y2236152D02*
D03*
Y2218042D02*
D03*
X2073000Y2236152D02*
D03*
Y2218042D02*
D03*
X1394500Y2237652D02*
D03*
Y2219542D02*
D03*
X1468500Y2238152D02*
D03*
Y2220042D02*
D03*
D30*
X1953790Y2631088D02*
D03*
X1957966Y2626912D02*
D03*
X1950290Y2627088D02*
D03*
X1954466Y2622912D02*
D03*
X1960790Y2617088D02*
D03*
X1964966Y2612912D02*
D03*
X1535500Y2754824D02*
D03*
X1531324Y2759000D02*
D03*
X1544500Y2741824D02*
D03*
X1540324Y2746000D02*
D03*
X1548500Y2745824D02*
D03*
X1544324Y2750000D02*
D03*
X1569588Y2459412D02*
D03*
X1565412Y2463588D02*
D03*
X2016912Y2460088D02*
D03*
X2021088Y2455912D02*
D03*
X2032588Y2445412D02*
D03*
X2028412Y2449588D02*
D03*
X2024588Y2459912D02*
D03*
X2020412Y2464088D02*
D03*
X1555912Y2475088D02*
D03*
X1560088Y2470912D02*
D03*
X1566088Y2455912D02*
D03*
X1561912Y2460088D02*
D03*
D31*
X1960992Y2623556D02*
D03*
X1541026Y2752968D02*
D03*
X2028886Y2480444D02*
D03*
X1559614Y2439056D02*
D03*
D32*
X1958069Y2620634D02*
D03*
X1538104Y2750046D02*
D03*
X2031808Y2483366D02*
D03*
X1556692Y2436134D02*
D03*
D33*
X1794500Y2725500D02*
D03*
Y2733500D02*
D03*
X1893878Y2631000D02*
D03*
Y2639000D02*
D03*
X1809500Y2746000D02*
D03*
Y2738000D02*
D03*
X1625500Y2456000D02*
D03*
Y2448000D02*
D03*
X1837000Y2635000D02*
D03*
Y2627000D02*
D03*
X1604412Y2732912D02*
D03*
Y2724912D02*
D03*
X1958500Y2465500D02*
D03*
Y2473500D02*
D03*
D34*
X1792000Y2713500D02*
D03*
X1784000D02*
D03*
X1811500Y2722500D02*
D03*
X1819500D02*
D03*
X1749000Y2214500D02*
D03*
X1741000D02*
D03*
X1730500Y2215500D02*
D03*
X1722500D02*
D03*
X1654000Y2620500D02*
D03*
X1662000D02*
D03*
D35*
X1612500Y2462500D02*
D03*
Y2440500D02*
D03*
X1590912Y2741912D02*
D03*
Y2719912D02*
D03*
X1974500Y2460000D02*
D03*
Y2482000D02*
D03*
X1907878Y2626500D02*
D03*
Y2648500D02*
D03*
D36*
X1548500Y2723000D02*
D03*
X1544324Y2718824D02*
D03*
X1949790Y2645412D02*
D03*
X1953966Y2649588D02*
D03*
X2028912Y2487412D02*
D03*
X2033088Y2491588D02*
D03*
X2017412Y2477412D02*
D03*
X2021588Y2481588D02*
D03*
X2020912Y2473412D02*
D03*
X2025088Y2477588D02*
D03*
X1567088Y2446588D02*
D03*
X1562912Y2442412D02*
D03*
X1570588Y2442588D02*
D03*
X1566412Y2438412D02*
D03*
X1559588Y2432588D02*
D03*
X1555412Y2428412D02*
D03*
X1540412Y2722912D02*
D03*
X1544588Y2727088D02*
D03*
X1957966Y2645588D02*
D03*
X1953790Y2641412D02*
D03*
X1532912Y2708912D02*
D03*
X1537088Y2713088D02*
D03*
X1964966Y2660088D02*
D03*
X1960790Y2655912D02*
D03*
D37*
X1844315Y2693000D02*
D03*
X1833685D02*
D03*
X1823315Y2452000D02*
D03*
X1812685D02*
D03*
X1690815Y2678000D02*
D03*
X1680185D02*
D03*
X1699315Y2607000D02*
D03*
X1688685D02*
D03*
D38*
X1479366Y2317461D02*
D03*
X1487634D02*
D03*
D39*
X1483500Y2302500D02*
D03*
D40*
X1390000Y2288768D02*
D03*
Y2280500D02*
D03*
X2020000Y2239500D02*
D03*
Y2247768D02*
D03*
X2098500Y2292268D02*
D03*
Y2284000D02*
D03*
D41*
X1375039Y2284634D02*
D03*
X2005039Y2243634D02*
D03*
X2113461Y2288134D02*
D03*
D42*
X1558556Y2463535D02*
D03*
X1537856Y2719026D02*
D03*
X2027944Y2456614D02*
D03*
X1960434Y2649886D02*
D03*
D43*
X1555634Y2466458D02*
D03*
X1540778Y2716104D02*
D03*
X2030866Y2453692D02*
D03*
X1957512Y2652808D02*
D03*
D44*
X1987961Y2475693D02*
D03*
Y2470673D02*
D03*
Y2465653D02*
D03*
Y2460634D02*
D03*
X2009221D02*
D03*
Y2465653D02*
D03*
Y2470673D02*
D03*
Y2475693D02*
D03*
X1599539Y2444307D02*
D03*
Y2449327D02*
D03*
Y2454346D02*
D03*
Y2459366D02*
D03*
X1578279D02*
D03*
Y2454346D02*
D03*
Y2449327D02*
D03*
Y2444307D02*
D03*
X1823925Y2732043D02*
D03*
Y2737063D02*
D03*
Y2742083D02*
D03*
Y2747102D02*
D03*
X1845185D02*
D03*
Y2742083D02*
D03*
Y2737063D02*
D03*
Y2732043D02*
D03*
X1759315Y2737957D02*
D03*
Y2732937D02*
D03*
Y2727917D02*
D03*
Y2722898D02*
D03*
X1780575D02*
D03*
Y2727917D02*
D03*
Y2732937D02*
D03*
Y2737957D02*
D03*
X1576951Y2726219D02*
D03*
Y2731239D02*
D03*
Y2736259D02*
D03*
Y2741278D02*
D03*
X1555692D02*
D03*
Y2736259D02*
D03*
Y2731239D02*
D03*
Y2726219D02*
D03*
X1920839Y2645693D02*
D03*
Y2640673D02*
D03*
Y2635653D02*
D03*
Y2630634D02*
D03*
X1942098D02*
D03*
Y2635653D02*
D03*
Y2640673D02*
D03*
Y2645693D02*
D03*
D45*
X1998591Y2468311D02*
D03*
X1588909Y2451689D02*
D03*
X1566321Y2733601D02*
D03*
X1931468Y2638311D02*
D03*
D46*
X1406500Y2328402D02*
D03*
Y2289216D02*
D03*
X1990500Y2716598D02*
D03*
Y2755783D02*
D03*
X2067000Y2320402D02*
D03*
Y2281216D02*
D03*
D47*
X1461402Y2822500D02*
D03*
X1422217D02*
D03*
D48*
X1682996Y2656520D02*
D03*
X1694807D02*
D03*
X1688508Y2667937D02*
D03*
X1799996Y2460020D02*
D03*
X1811807D02*
D03*
X1805508Y2471437D02*
D03*
X1835496Y2668020D02*
D03*
X1847307D02*
D03*
X1841008Y2679437D02*
D03*
D49*
X1682996Y2668724D02*
D03*
X1694807D02*
D03*
X1799996Y2472224D02*
D03*
X1811807D02*
D03*
X1835496Y2680224D02*
D03*
X1847307D02*
D03*
D50*
X2007756Y2364358D02*
D03*
X2064756D02*
D03*
X1387756Y2372358D02*
D03*
X1444756D02*
D03*
D51*
X2135500Y2755000D02*
D03*
Y2788500D02*
D03*
X2147500Y2550000D02*
D03*
Y2516500D02*
D03*
X2046500Y2281500D02*
D03*
X2026500D02*
D03*
X2046500D02*
D03*
X2026500D02*
D03*
X1450000Y2304000D02*
D03*
X1430000D02*
D03*
D52*
X1478795Y2372346D02*
D03*
X1479295Y2409347D02*
D03*
X2096500Y2320000D02*
D03*
X2097000Y2357000D02*
D03*
D53*
X1370000Y2445000D02*
D03*
Y2467000D02*
D03*
X2202000Y2759000D02*
D03*
Y2781000D02*
D03*
D54*
X1787000Y2190000D02*
D03*
X1809000D02*
D03*
D55*
X2053624Y2480697D02*
D03*
X2040917Y2492232D02*
D03*
Y2486287D02*
D03*
X1986124Y2600500D02*
D03*
X1973417Y2612035D02*
D03*
Y2606091D02*
D03*
X1986124Y2649500D02*
D03*
X1973417Y2661035D02*
D03*
Y2655091D02*
D03*
X1510876Y2771303D02*
D03*
X1523583Y2759768D02*
D03*
Y2765713D02*
D03*
X1533986Y2439303D02*
D03*
X1546693Y2427768D02*
D03*
Y2433713D02*
D03*
X1533986Y2486591D02*
D03*
X1546693Y2475055D02*
D03*
Y2481000D02*
D03*
X2053624Y2433500D02*
D03*
X2040917Y2445035D02*
D03*
Y2439091D02*
D03*
X1510986Y2719303D02*
D03*
X1523693Y2707768D02*
D03*
Y2713713D02*
D03*
D56*
X2069500Y2480697D02*
D03*
X2002000Y2600500D02*
D03*
Y2649500D02*
D03*
X1495000Y2771303D02*
D03*
X1518110Y2439303D02*
D03*
Y2486591D02*
D03*
X2069500Y2433500D02*
D03*
X1495110Y2719303D02*
D03*
D57*
X1792272Y2336500D02*
D03*
Y2331500D02*
D03*
Y2326500D02*
D03*
Y2321500D02*
D03*
Y2316500D02*
D03*
Y2311500D02*
D03*
Y2306500D02*
D03*
Y2301500D02*
D03*
X1813728Y2336500D02*
D03*
Y2331500D02*
D03*
Y2326500D02*
D03*
Y2321500D02*
D03*
Y2316500D02*
D03*
Y2311500D02*
D03*
Y2306500D02*
D03*
Y2301500D02*
D03*
D58*
X1559520Y2493000D02*
D03*
X1567000D02*
D03*
X1563260Y2502449D02*
D03*
X1537760Y2765776D02*
D03*
X1545240D02*
D03*
X1541500Y2775224D02*
D03*
D59*
X1555776Y2417240D02*
D03*
Y2409760D02*
D03*
X1565224Y2413500D02*
D03*
X2018276Y2444740D02*
D03*
Y2437260D02*
D03*
X2027724Y2441000D02*
D03*
X2033224Y2499760D02*
D03*
Y2507240D02*
D03*
X2023776Y2503500D02*
D03*
D60*
X1545804Y2707485D02*
D03*
X1540515Y2702196D02*
D03*
X1549841Y2698159D02*
D03*
X1954304Y2605985D02*
D03*
X1949015Y2600696D02*
D03*
X1958341Y2596659D02*
D03*
D61*
X1650000Y2663205D02*
D03*
X1655000D02*
D03*
X1660000D02*
D03*
X1665000D02*
D03*
Y2638795D02*
D03*
X1660000D02*
D03*
X1655000D02*
D03*
X1650000D02*
D03*
D62*
X1961261Y2670196D02*
D03*
X1955972Y2675485D02*
D03*
X1951935Y2666159D02*
D03*
D63*
X1876205Y2640000D02*
D03*
Y2635000D02*
D03*
Y2630000D02*
D03*
Y2625000D02*
D03*
X1851795D02*
D03*
Y2630000D02*
D03*
Y2635000D02*
D03*
Y2640000D02*
D03*
D64*
X2191000Y2247500D02*
Y2269500D01*
X1849000Y2746000D02*
Y2760000D01*
X1848500Y2745500D02*
X1849000Y2746000D01*
X2005000Y2361602D02*
X2007756Y2364358D01*
X2172366Y2288134D02*
X2191000Y2269500D01*
X2113461Y2288134D02*
X2172366D01*
X1990500Y2774500D02*
X1996000Y2780000D01*
X2009500D01*
X1990500Y2755783D02*
Y2756098D01*
Y2774500D01*
X2065784Y2281216D02*
X2067000D01*
D65*
X1689008Y2653500D02*
Y2674437D01*
X1930250Y2664250D02*
X1941485Y2675485D01*
X1931468Y2638311D02*
X1939146Y2630634D01*
X1910378Y2626500D02*
X1919878Y2617000D01*
X1820500Y2723500D02*
X1823925Y2726925D01*
X1781075Y2737957D02*
X1790043D01*
X1794500Y2733500D01*
X1776417Y2727917D02*
X1780575D01*
X1773000Y2724500D02*
X1776417Y2727917D01*
X1777500Y2733000D02*
X1777563Y2732937D01*
X1785925Y2725500D02*
X1794500D01*
X1783323Y2722898D02*
X1785925Y2725500D01*
X1801500Y2728500D02*
Y2743000D01*
Y2728500D02*
X1807500Y2722500D01*
X1495000Y2708500D02*
Y2719500D01*
X1557597Y2750987D02*
Y2757000D01*
X1535500Y2752314D02*
X1539643Y2748172D01*
X1535500Y2752314D02*
Y2754824D01*
X1539978Y2748172D02*
X1540324Y2747825D01*
X1539643Y2748172D02*
X1539978D01*
X1540324Y2746000D02*
Y2747825D01*
X1950378Y2627000D02*
Y2627676D01*
X1647705Y2662500D02*
X1648500Y2661705D01*
X1950000Y2581000D02*
X1956047D01*
X1947000Y2573500D02*
Y2578000D01*
X1950000Y2581000D01*
X1998006Y2545766D02*
X1998394Y2546154D01*
X1985000Y2545260D02*
X1997500D01*
X1891500Y2526740D02*
Y2557500D01*
X1891240Y2564713D02*
Y2566740D01*
X1854000Y2470000D02*
Y2478953D01*
X1928740Y2341240D02*
X1941500D01*
X1852950Y2331000D02*
X1858500D01*
X1696130Y2543370D02*
X1701000Y2538500D01*
X1691000Y2581740D02*
Y2594500D01*
X1659453Y2524500D02*
X1669740D01*
X1677240D01*
X1659453D02*
X1659728Y2524224D01*
Y2515500D02*
Y2524224D01*
X1718740Y2216760D02*
X1722000Y2213500D01*
X1690864Y2467370D02*
X1690864Y2468636D01*
X1690000Y2469500D02*
X1690864Y2468636D01*
X1945000Y2587000D02*
X1961500D01*
X1939000Y2581000D02*
X1945000Y2587000D01*
X1939000Y2574740D02*
Y2581000D01*
X1679000Y2574500D02*
X1684098Y2569402D01*
X1672500Y2574500D02*
X1679000D01*
X1667500Y2579500D02*
X1672500Y2574500D01*
X1684098Y2564827D02*
Y2569402D01*
X1938500Y2552760D02*
Y2553500D01*
X1936740Y2551000D02*
X1938500Y2552760D01*
X1685250Y2517250D02*
X1689500Y2513000D01*
Y2507740D02*
Y2513000D01*
X1784000Y2365000D02*
X1786500D01*
X1787500Y2364000D01*
X1798000D01*
X1800000Y2362000D01*
X1806547D01*
X1809500Y2404240D02*
Y2406000D01*
X1809000Y2404740D02*
X1809500Y2404240D01*
X1785000Y2394500D02*
X1785272Y2394228D01*
X1789000D01*
X1809000D02*
Y2404740D01*
X1677685Y2679500D02*
X1679685Y2677500D01*
X1947402Y2332500D02*
Y2339902D01*
Y2324630D02*
Y2332500D01*
X1980299Y2344059D02*
X1987500Y2351260D01*
X1980299Y2344012D02*
Y2344059D01*
X1978835Y2342547D02*
X1980299Y2344012D01*
X1978787Y2342547D02*
X1978835D01*
X1975240Y2339000D02*
X1978787Y2342547D01*
X1987500Y2351260D02*
Y2361000D01*
X1664500Y2679500D02*
X1677685D01*
X1929000Y2312760D02*
X1939740D01*
X1836820Y2372180D02*
Y2373820D01*
Y2372180D02*
X1840000Y2369000D01*
X1838000Y2375000D02*
Y2378288D01*
X1884500Y2368272D02*
Y2376500D01*
X1731000Y2252000D02*
X1732000Y2253000D01*
X1679598Y2476500D02*
Y2488827D01*
Y2467370D02*
Y2476500D01*
X1660500Y2463000D02*
X1661000Y2463500D01*
X1660500Y2447500D02*
Y2463000D01*
X1653547Y2524000D02*
Y2532047D01*
Y2523547D02*
Y2524000D01*
Y2532047D02*
X1655000Y2533500D01*
Y2543000D01*
X1626000Y2384000D02*
Y2389453D01*
X1777500Y2324760D02*
X1783740D01*
X1708579Y2507740D02*
X1709500Y2508661D01*
X1716339D01*
X1709500Y2484000D02*
Y2491339D01*
X1776000Y2310740D02*
X1776500D01*
X1639500Y2662500D02*
X1647705D01*
X1604412Y2724912D02*
X1624500Y2704824D01*
Y2683500D02*
Y2704824D01*
Y2683500D02*
X1627500Y2680500D01*
X1635000D01*
X1650000Y2665500D01*
Y2663205D02*
Y2665500D01*
X1577000Y2714500D02*
X1592500Y2699000D01*
X1563740Y2714500D02*
X1577000D01*
X1834500Y2692795D02*
Y2694000D01*
X1833000Y2693295D02*
X1834000Y2692295D01*
X1834500Y2692795D01*
X1950000Y2222000D02*
X1950500Y2222500D01*
X1811000Y2228000D02*
X2104000D01*
X1798500Y2222000D02*
X1950000D01*
X1771000Y2249500D02*
X1798500Y2222000D01*
X1771000Y2249500D02*
Y2278500D01*
X1912968Y2472032D02*
X1913500Y2471500D01*
X1912968Y2472032D02*
Y2476082D01*
X1909050Y2480000D02*
X1912968Y2476082D01*
X1890890Y2480000D02*
X1909050D01*
X1876110Y2479000D02*
X1877110Y2480000D01*
X1867740Y2479000D02*
X1876110D01*
X1859760Y2479500D02*
X1860260Y2479000D01*
X1853453Y2479500D02*
X1859760D01*
X1899050Y2437500D02*
X1901760D01*
X1874500Y2412950D02*
X1899050Y2437500D01*
X1874500Y2412950D02*
Y2430760D01*
X1909240Y2440000D02*
Y2443710D01*
X1916920Y2451390D01*
X1939000D01*
X1895500Y2452000D02*
Y2452500D01*
X1896000Y2453000D01*
X1689500Y2596500D02*
X1691000Y2594500D01*
X1867000Y2456050D02*
Y2457000D01*
X1864000Y2453050D02*
X1867000Y2456050D01*
Y2457000D02*
X1869000Y2459000D01*
X1864000Y2448543D02*
Y2453050D01*
X1799996Y2472224D02*
Y2479496D01*
X1811807Y2460020D02*
X1821000D01*
X1785000Y2420000D02*
X1808307D01*
X1781000Y2424000D02*
X1785000Y2420000D01*
X1781000Y2424000D02*
Y2429571D01*
X1808307Y2420000D02*
X1809819Y2418488D01*
X1812760Y2432500D02*
X1816760Y2428500D01*
X1809819Y2416921D02*
X1812240Y2414500D01*
X1809819Y2416921D02*
Y2418488D01*
X1781000Y2429571D02*
X1783929Y2432500D01*
X1812760D01*
X1853453Y2479500D02*
X1854000Y2478953D01*
X1744000Y2522500D02*
Y2525047D01*
X1860547Y2398997D02*
X1874500Y2412950D01*
X1879000Y2459000D02*
X1890000D01*
X1896000Y2453000D01*
X1884000Y2448543D02*
Y2454000D01*
X1879000Y2459000D02*
X1884000Y2454000D01*
X1869000Y2459000D02*
X1879000D01*
X1870000Y2369000D02*
X1870728Y2368272D01*
X1874500D01*
X1904000Y2406500D02*
X1905000Y2407500D01*
Y2412760D01*
X1911500Y2419260D01*
X1936390Y2435000D02*
X1939000Y2437610D01*
X1926000Y2435000D02*
X1936390D01*
X1922000Y2440000D02*
X1926000D01*
X1911500Y2429500D02*
X1922000Y2440000D01*
X1911500Y2426740D02*
Y2429500D01*
X1860547Y2387453D02*
Y2398997D01*
X1847740Y2407000D02*
X1859000D01*
X1841740Y2401000D02*
X1847740Y2407000D01*
X1928500Y2372760D02*
X1944760D01*
X1947500Y2375500D01*
Y2383000D01*
X1952000Y2387500D01*
X1955020D01*
X1962500D02*
X1963000D01*
X1970610Y2395110D01*
X1978500D01*
X1976390Y2408890D02*
X1978500D01*
X1966500Y2399000D02*
X1976390Y2408890D01*
X1960500Y2399000D02*
X1966500D01*
X1955500Y2404000D02*
X1960500D01*
X1953000Y2406500D02*
X1955500Y2404000D01*
X1953000Y2406500D02*
Y2421240D01*
X1948740Y2425500D02*
X1953000Y2421240D01*
X1932000Y2425500D02*
X1941260D01*
X1904500Y2398000D02*
X1932000Y2425500D01*
X1904500Y2389728D02*
Y2398000D01*
X1879000Y2367772D02*
X1879500Y2368272D01*
X1879000Y2360500D02*
Y2367772D01*
X1879579Y2349181D02*
X1882000Y2346760D01*
X1877693Y2349181D02*
X1879579D01*
X1877693D02*
Y2349500D01*
X1854000D02*
X1877693D01*
X1854000Y2359500D02*
X1854531Y2358969D01*
X1860437D01*
X1863405Y2356000D01*
X1870500D01*
X1868020Y2339740D02*
X1870500Y2342220D01*
X1858500Y2339740D02*
X1868020D01*
X1865000Y2331000D02*
X1886000D01*
X1863740Y2332260D02*
X1865000Y2331000D01*
X1858500Y2332260D02*
X1863740D01*
X1886000Y2331000D02*
X1892000Y2337000D01*
X1838950Y2345000D02*
X1852950Y2331000D01*
X1830500Y2345000D02*
X1838950D01*
X1879500Y2384500D02*
X1884500Y2379500D01*
X1899500Y2381000D02*
Y2389728D01*
X1948240Y2268260D02*
Y2287500D01*
Y2268260D02*
X1948500Y2268000D01*
X1966712D01*
X1967181Y2268468D01*
X1970228D01*
X1977260Y2275500D01*
X1874500Y2397547D02*
X1875453Y2398500D01*
X1860547Y2387453D02*
X1862823Y2389728D01*
X1874500D01*
Y2397547D01*
X1882000Y2377000D02*
X1884500Y2379500D01*
X1882000Y2376500D02*
Y2377000D01*
X1898000Y2379500D02*
X1899500Y2381000D01*
X1884500Y2379500D02*
X1898000D01*
X1899500Y2381000D02*
X1904500Y2376000D01*
Y2368272D02*
Y2376000D01*
X1879500Y2384500D02*
Y2389728D01*
X1827047Y2338000D02*
Y2341547D01*
X1830500Y2345000D01*
X1892000Y2337000D02*
Y2346760D01*
X1804000Y2329000D02*
Y2343500D01*
X1795000Y2352500D02*
X1804000Y2343500D01*
X1795000Y2352500D02*
Y2356500D01*
X1723000Y2528000D02*
X1728000Y2523000D01*
X1713000Y2538000D02*
X1721750Y2529250D01*
X1729563Y2438177D02*
X1737000Y2430740D01*
X1729563Y2438177D02*
Y2442851D01*
X1732181Y2445469D01*
X1735468D01*
X1736000Y2446000D01*
X1731000Y2451000D02*
X1736000D01*
X1723000Y2443000D02*
X1731000Y2451000D01*
X1723000Y2440110D02*
Y2443000D01*
X1733240Y2459240D02*
Y2464000D01*
X1727890Y2453890D02*
X1733240Y2459240D01*
X1723000Y2453890D02*
X1727890D01*
X1716339Y2437839D02*
Y2508661D01*
X1703000Y2424500D02*
X1716339Y2437839D01*
X1802000Y2298000D02*
X1803000D01*
X1804000Y2299000D01*
X1813728Y2301500D02*
X1817500D01*
X1668000Y2291110D02*
X1672500D01*
X1681650Y2304890D02*
X1682760Y2306000D01*
X1668000Y2304890D02*
X1681650D01*
X1684500Y2289500D02*
X1694500D01*
X1696240Y2287760D01*
X1703000D01*
X1675000Y2294500D02*
X1684500D01*
X1672500Y2292000D02*
X1675000Y2294500D01*
X1672500Y2291110D02*
Y2292000D01*
X1776500Y2332240D02*
Y2333500D01*
X1767500Y2306000D02*
X1772000Y2301500D01*
X1767500Y2306000D02*
Y2327500D01*
X1821500Y2326500D02*
X1822000Y2327000D01*
X1827760D01*
X1776500Y2308740D02*
X1784240D01*
X1767500Y2327500D02*
X1772240Y2332240D01*
X1804000Y2299000D02*
Y2311500D01*
X1740000Y2214500D02*
X1741000D01*
X1731500D02*
X1740000D01*
X1730500Y2215500D02*
X1731500Y2214500D01*
X1685000Y2206500D02*
X1711618D01*
X1679760Y2201260D02*
X1685000Y2206500D01*
X1679760Y2196500D02*
Y2201260D01*
X1656500Y2206500D02*
X1662000D01*
X1672000Y2196500D01*
X1679760D01*
X1722000Y2201500D02*
Y2213500D01*
Y2201500D02*
X1723500Y2200000D01*
X1917661Y2541839D02*
X1922000Y2537500D01*
X1917661Y2541839D02*
Y2545500D01*
X1884500Y2518500D02*
X1890740D01*
X1915000Y2558500D02*
X1917161D01*
X1835240Y2309500D02*
Y2327000D01*
Y2335713D01*
X1832953Y2338000D02*
X1835240Y2335713D01*
X1781240Y2316500D02*
X1782240D01*
X1792272D01*
X1787000Y2311500D02*
X1792272D01*
X1784240Y2308740D02*
X1787000Y2311500D01*
Y2321500D02*
X1792272D01*
X1783740Y2324760D02*
X1787000Y2321500D01*
X1791772Y2311000D02*
X1792272Y2311500D01*
X1819000Y2386571D02*
X1822000Y2383571D01*
X1819000Y2386571D02*
Y2394228D01*
X1822000Y2382540D02*
X1830540Y2374000D01*
X1822000Y2382540D02*
Y2383571D01*
X1814000Y2384500D02*
X1817000Y2381500D01*
X1814000Y2384500D02*
Y2394228D01*
X1804000Y2329000D02*
X1806500Y2331500D01*
X1801500Y2326500D02*
X1804000Y2329000D01*
Y2311500D02*
Y2329000D01*
Y2311500D02*
X1813728D01*
X1799000Y2306500D02*
X1804000Y2311500D01*
X1792272Y2306500D02*
X1799000D01*
X1806500Y2331500D02*
X1813728D01*
X1792272Y2326500D02*
X1801500D01*
X1846788Y2378288D02*
X1850047Y2381547D01*
X1842000Y2378288D02*
X1846788D01*
X1830540Y2374000D02*
X1831863D01*
X1832043Y2373820D01*
X1836820D01*
X1838000Y2375000D01*
X1834260Y2401000D02*
Y2402740D01*
X1822500Y2414500D02*
X1834260Y2402740D01*
X1812240Y2414500D02*
X1822500D01*
X1804000Y2394228D02*
Y2413740D01*
X1804760Y2414500D01*
X1661047Y2424500D02*
X1703000D01*
X1626000Y2389453D02*
X1661047Y2424500D01*
X1625000Y2384000D02*
X1626000D01*
X1935240Y2400000D02*
X1943500Y2408260D01*
X1928000Y2400000D02*
X1935240D01*
X1928000Y2395000D02*
X1939390D01*
X1940000Y2394390D01*
X1939630Y2380240D02*
X1940000Y2380610D01*
X1928500Y2380240D02*
X1939630D01*
X1926047Y2338547D02*
Y2370307D01*
X1928500Y2372760D01*
X1890740Y2518500D02*
X1891500Y2519260D01*
X1834000Y2681721D02*
Y2689500D01*
X1882240Y2242000D02*
X1883000Y2241240D01*
X1884598Y2532598D02*
X1888000Y2536000D01*
X1884598Y2526870D02*
Y2532598D01*
X1774260Y2515000D02*
Y2524260D01*
X1800000Y2515000D02*
X1827000D01*
X1791000D02*
X1800000D01*
X1744000Y2525047D02*
X1744547Y2524500D01*
X1926047Y2338547D02*
X1928740Y2341240D01*
X1899000Y2698500D02*
X1901260Y2700760D01*
X1827953Y2674047D02*
X1841453D01*
X1977500Y2572240D02*
X1978740Y2571000D01*
X1985500D01*
X1891240Y2557000D02*
Y2564713D01*
X1899240Y2574740D02*
X1939000D01*
X1891240Y2566740D02*
X1899240Y2574740D01*
X1874500Y2548441D02*
X1874530Y2548311D01*
X1872500Y2585260D02*
X1874000D01*
X1871000D02*
X1872500D01*
X1871000Y2558500D02*
Y2585260D01*
Y2558500D02*
X1874500Y2555000D01*
Y2548441D02*
Y2555000D01*
X1728000Y2523000D02*
X1740953D01*
X1701500Y2538000D02*
X1713000D01*
X1774260Y2524260D02*
X1774500Y2524500D01*
X1827000Y2515000D02*
X1841000Y2529000D01*
Y2551000D01*
X1830079Y2561921D02*
X1841000Y2551000D01*
X1830079Y2561921D02*
Y2563000D01*
X1781740Y2515000D02*
X1791000D01*
X1793240Y2517240D01*
Y2524500D01*
X1744547D02*
X1753043D01*
X1774500Y2534500D02*
X1780500D01*
X1782000Y2533000D01*
X1785760D01*
X1783000Y2524500D02*
X1785760D01*
X1778000Y2529500D02*
X1783000Y2524500D01*
X1774500Y2529500D02*
X1778000D01*
X1766500D02*
X1774000D01*
X1828764Y2561685D02*
X1830079Y2563000D01*
X1817500Y2561685D02*
X1828764D01*
X1875500Y2536500D02*
Y2540000D01*
X1877000Y2541500D01*
Y2541571D01*
X1879598Y2544169D01*
Y2548327D01*
X1882000Y2539500D02*
Y2540000D01*
X1890453Y2565500D02*
X1891240Y2564713D01*
X1920260Y2483000D02*
Y2488760D01*
X1922500Y2491000D01*
X1882000Y2540000D02*
X1884598Y2542598D01*
Y2548327D01*
Y2556161D01*
X1883760Y2557000D02*
X1884598Y2556161D01*
X1883260Y2557500D02*
X1883760Y2557000D01*
X1891370Y2526870D02*
X1891500Y2526740D01*
X1884598Y2526870D02*
X1891370D01*
X1859421Y2572842D02*
X1860000D01*
X1899000Y2698500D02*
Y2699500D01*
X1901260Y2700760D02*
Y2728500D01*
X1689000Y2557000D02*
Y2564728D01*
X1948075Y2561000D02*
X1957000D01*
X1947673Y2560598D02*
X1948075Y2561000D01*
X1968000Y2549468D02*
X1969130Y2550598D01*
X1968000Y2534500D02*
Y2549468D01*
X1998006Y2545766D02*
X2000772Y2543000D01*
X1997500Y2545260D02*
X1998006Y2545766D01*
X2000772Y2543000D02*
X2001547D01*
X1994547Y2550000D02*
X1998394Y2546154D01*
X1917661Y2545500D02*
X1923760D01*
X1929260Y2551000D01*
X1917161Y2558500D02*
X1917921Y2559260D01*
X1925500D01*
X1938480Y2566740D02*
X1939000Y2567260D01*
X1925500Y2566740D02*
X1938480D01*
X1961500Y2586000D02*
Y2587000D01*
Y2586000D02*
X1961953Y2585547D01*
Y2581000D02*
Y2585547D01*
X1939000Y2567260D02*
X1940661Y2565598D01*
X1947673D01*
X1955260Y2563260D02*
Y2573000D01*
X1961953Y2581000D02*
X1962740Y2580213D01*
Y2573000D02*
Y2580213D01*
X1973240Y2572240D02*
X1977500D01*
X1963500D02*
X1973240D01*
X1962740Y2573000D02*
X1963500Y2572240D01*
X1969130Y2568130D02*
X1973240Y2572240D01*
X1969130Y2565598D02*
Y2568130D01*
X1980500Y2536000D02*
X1985260D01*
X1976000Y2540500D02*
X1980500Y2536000D01*
X1976000Y2540500D02*
Y2549000D01*
X1979740Y2552740D01*
X1985000D01*
X1993772Y2550000D02*
X1994547D01*
X1925984Y2329984D02*
X1937724D01*
X1923260Y2327260D02*
X1925984Y2329984D01*
X1937724D02*
X1941500Y2333760D01*
X1917000Y2327260D02*
X1923260D01*
X1933000Y2335047D02*
Y2335500D01*
X1926047Y2335500D02*
Y2338547D01*
X1929000Y2306240D02*
X1934335D01*
X1937402Y2290858D02*
X1940760Y2287500D01*
X1937402Y2290858D02*
Y2303173D01*
X1980000Y2356000D02*
Y2359047D01*
Y2356000D02*
X1982500Y2353500D01*
X1983547Y2364953D02*
X1987500Y2361000D01*
X1947402Y2339902D02*
X1956500Y2349000D01*
Y2357043D01*
X1942402Y2303173D02*
Y2310098D01*
X1939740Y2312760D02*
X1942402Y2310098D01*
X1933012Y2320240D02*
X1937402Y2324630D01*
X1934335Y2306240D02*
X1937402Y2303173D01*
X1942402Y2298598D02*
Y2303173D01*
Y2298598D02*
X1944500Y2296500D01*
X1962500D01*
X1967000Y2301000D01*
Y2301500D01*
X1952402Y2324630D02*
X1953531Y2323500D01*
X1967000D01*
X1947402Y2303173D02*
Y2324630D01*
X1980000Y2364953D02*
X1983547D01*
X1967760Y2348000D02*
X1967760Y2348000D01*
X1967760Y2339000D02*
Y2348000D01*
X1966500Y2349260D02*
Y2357043D01*
Y2349260D02*
X1967760Y2348000D01*
X1971500Y2357043D02*
X1975240Y2353303D01*
Y2348000D02*
Y2353303D01*
X1956500Y2378500D02*
X1961500D01*
X1971500Y2357043D02*
X1977996D01*
X1980000Y2359047D01*
X1977228Y2367772D02*
X1980000Y2365000D01*
Y2364953D02*
Y2365000D01*
X1953000Y2378500D02*
X1956500D01*
X1953000Y2369500D02*
Y2378500D01*
Y2369500D02*
X1954728Y2367772D01*
X1777000Y2713500D02*
X1784000D01*
X1773000Y2717500D02*
X1777000Y2713500D01*
X1773000Y2717500D02*
Y2724500D01*
X1679685Y2672035D02*
Y2677500D01*
X1795547Y2198547D02*
Y2202000D01*
Y2204453D01*
X1788000Y2212000D02*
X1795547Y2204453D01*
X1808000Y2208547D02*
Y2212000D01*
X1801453Y2202000D02*
X1808000Y2208547D01*
X1801453Y2202000D02*
X1809000Y2194453D01*
X1733500Y2205000D02*
X1740000Y2211500D01*
X1733500Y2200000D02*
Y2205000D01*
X1743500Y2200000D02*
X1748000Y2204500D01*
X1823315Y2451000D02*
Y2452000D01*
X1796500Y2452000D02*
X1799547D01*
X1790000Y2458500D02*
X1796500Y2452000D01*
X1928378Y2619500D02*
X1933878Y2614000D01*
X1951368Y2655000D02*
X1955368Y2651000D01*
X1941693Y2655000D02*
X1951368D01*
X1939618Y2663500D02*
X1946378D01*
X1953790Y2637500D02*
Y2641412D01*
Y2631088D02*
Y2637500D01*
X1948378D02*
X1953790D01*
X1941693Y2655000D02*
Y2659685D01*
X1939618Y2661760D02*
X1941693Y2659685D01*
X1939618Y2661760D02*
Y2663500D01*
X1921878Y2655000D02*
X1931063D01*
X1932138Y2656075D01*
Y2663500D01*
X1957966Y2647417D02*
X1960434Y2649886D01*
X1957966Y2645588D02*
Y2647417D01*
X1893878Y2631000D02*
X1898378Y2626500D01*
X1907878D01*
X1936638Y2614000D02*
X1937933Y2612705D01*
X1922378Y2619500D02*
X1928378D01*
X1933878Y2614000D02*
X1936638D01*
X1910378Y2626500D02*
X1911685D01*
X1907878D02*
X1910378D01*
X1950378Y2627676D02*
Y2630122D01*
Y2627676D02*
X1953790Y2631088D01*
X1950290Y2627588D02*
X1950378Y2627676D01*
X1946185Y2634315D02*
X1950378Y2630122D01*
X1946063Y2634315D02*
X1946185D01*
X1945378Y2635000D02*
X1946063Y2634315D01*
X1942752Y2635000D02*
X1945378D01*
X1942098Y2635653D02*
X1942752Y2635000D01*
X1942098Y2635653D02*
Y2640673D01*
X1945051D01*
X1949790Y2645412D01*
X1953790Y2641412D01*
X1950290Y2627088D02*
Y2627588D01*
X1957966Y2626912D02*
X1960992Y2623886D01*
Y2623556D02*
Y2623886D01*
X1932563Y2626685D02*
X1933878Y2628000D01*
X1915819Y2630634D02*
X1920839D01*
X1911685Y2626500D02*
X1915819Y2630634D01*
X1932563Y2618075D02*
Y2626685D01*
Y2618075D02*
X1936638Y2614000D01*
X1535500Y2754824D02*
X1539588Y2758912D01*
X1557597Y2750987D02*
X1559172Y2749412D01*
X1541356Y2752968D02*
X1544324Y2750000D01*
X1541026Y2752968D02*
X1541356D01*
X1599412Y2719912D02*
X1604412Y2724912D01*
X1576951Y2726219D02*
X1583259Y2719912D01*
X2024588Y2459912D02*
X2027886Y2456614D01*
X2027944D01*
X1556692Y2435484D02*
X1559588Y2432588D01*
X1559614Y2439114D02*
X1562912Y2442412D01*
X1772000Y2737500D02*
Y2739250D01*
X1759630Y2735815D02*
X1759815Y2736000D01*
X1805453Y2452000D02*
X1806453Y2451000D01*
X1689542Y2717000D02*
Y2731542D01*
X1686000Y2739000D02*
X1691500Y2733500D01*
X1689542Y2731542D02*
X1691500Y2733500D01*
X1693815Y2735815D01*
X1679685Y2672035D02*
X1682996Y2668724D01*
X1686000Y2739000D02*
Y2777000D01*
X1692000Y2783000D01*
X1772000Y2737500D02*
X1776563Y2732937D01*
X1758500Y2773000D02*
Y2784500D01*
X1928811Y2635653D02*
X1930378Y2637221D01*
X1931468Y2638311D01*
X1777563Y2732937D02*
X1780575D01*
X1781075D01*
X1676500Y2662228D02*
X1682996Y2668724D01*
X1554768Y2427768D02*
X1555412Y2428412D01*
X1546693Y2427768D02*
X1554768D01*
X1555776Y2417240D02*
Y2428049D01*
X1555412Y2428412D02*
X1555776Y2428049D01*
Y2409760D02*
X1558000Y2407535D01*
X1568035D01*
X1546726Y2475088D02*
X1555912D01*
X1546693Y2475055D02*
X1546726Y2475088D01*
X1555912D02*
Y2489392D01*
X1559520Y2493000D01*
X1567000D02*
X1572000D01*
X1577500Y2487500D01*
X1552500Y2707000D02*
X1559240D01*
X1545240Y2765776D02*
X1561364D01*
X1568227Y2758912D01*
X1559240Y2707000D02*
X1563000Y2710760D01*
Y2714000D01*
X1658000Y2244000D02*
Y2244500D01*
X1553088Y2758912D02*
X1555000Y2757000D01*
X1539588Y2758912D02*
X1553088D01*
X1555692Y2724308D02*
Y2726219D01*
Y2724308D02*
X1558500Y2721500D01*
X1572232D01*
X1576951Y2726219D01*
X1544544Y2697404D02*
X1549085Y2692863D01*
X1551571D01*
X1555137Y2696429D01*
Y2698915D01*
X1540515Y2702196D02*
X1544446D01*
X1544544Y2702098D01*
X1552500Y2701552D02*
X1555137Y2698915D01*
X1552500Y2701552D02*
Y2707000D01*
X1544544Y2697404D02*
Y2702098D01*
X1590912Y2719912D02*
X1599412D01*
X1583259D02*
X1590912D01*
X1688953Y2670500D02*
Y2677138D01*
X1691315Y2678500D02*
X1697760D01*
X1690815Y2678000D02*
X1691315Y2678500D01*
X1694807Y2668724D02*
X1701724D01*
X1705740Y2672740D02*
Y2678000D01*
X1828000Y2788500D02*
Y2797500D01*
X1801000Y2278500D02*
Y2288500D01*
X2108000Y2232000D02*
Y2252500D01*
X2110000Y2254500D01*
X2111000D01*
X1665000Y2627500D02*
Y2635795D01*
X2018276Y2444740D02*
Y2444780D01*
X2030729D02*
X2030768Y2444740D01*
X2031916D01*
X2032588Y2445412D01*
X1781075Y2722898D02*
X1783323D01*
X1794500Y2725500D02*
X1797500Y2722500D01*
X1801500Y2743000D02*
X1804500Y2746000D01*
X1809500D01*
X1797500Y2722500D02*
X1807500D01*
X1811500D01*
X1823925Y2726925D02*
Y2732043D01*
X1809500Y2746000D02*
X1815500D01*
X1816602Y2747102D01*
X1823925D01*
X1915835Y2600000D02*
X1937500D01*
X1946540Y2609040D01*
X1946476D02*
X1946540D01*
X1946476D02*
X1951436Y2614000D01*
X1933878Y2628000D02*
X1936976D01*
X1939610Y2630634D01*
X1939146D02*
X1939610D01*
X1942098D01*
X1925835Y2590000D02*
X1938319D01*
X1949015Y2600696D01*
X1941485Y2675485D02*
X1955972D01*
X2018276Y2444780D02*
X2030729D01*
X1876205Y2625000D02*
X1890835D01*
X1905835Y2610000D01*
X1793500Y2684185D02*
X1805303D01*
X1808488Y2681000D01*
X1813248Y2685760D01*
X1823500D01*
X1841008Y2679437D02*
Y2683008D01*
X1835547Y2658000D02*
Y2667969D01*
X1835496Y2668020D02*
X1835547Y2667969D01*
X1841453Y2658000D02*
Y2674047D01*
X1823500Y2678500D02*
Y2685760D01*
Y2678500D02*
X1827953Y2674047D01*
X1853740Y2672260D02*
X1856500D01*
X1851953Y2674047D02*
X1853740Y2672260D01*
X1841453Y2674047D02*
X1851953D01*
X1847307Y2680224D02*
X1856016D01*
X1856500Y2679740D01*
X1857240Y2658000D02*
X1861500D01*
X1856500Y2679740D02*
X1861760D01*
X1861500Y2658000D02*
X1865500Y2662000D01*
Y2676000D01*
X1861760Y2679740D02*
X1865500Y2676000D01*
X1834000Y2681721D02*
X1835496Y2680224D01*
X1841008Y2683008D02*
X1844500Y2686500D01*
Y2691685D01*
X1876205Y2640000D02*
X1886500D01*
X1858240Y2259000D02*
Y2268500D01*
Y2259000D02*
X1859000Y2258240D01*
X2104000Y2228000D02*
X2108000Y2232000D01*
X1801000Y2238000D02*
Y2278500D01*
Y2238000D02*
X1811000Y2228000D01*
X1625500Y2510500D02*
X1638272D01*
X1608500Y2516000D02*
X1637772D01*
X1638272Y2515500D01*
X1669740Y2524500D02*
X1670000Y2524240D01*
X1659728Y2510500D02*
X1669500D01*
X1670000Y2511000D01*
Y2516760D01*
X1649000Y2508000D02*
X1650000Y2507000D01*
X1689500Y2488925D02*
Y2500260D01*
Y2488925D02*
X1689598Y2488827D01*
X1659728Y2500500D02*
X1662047D01*
X1664547Y2498000D01*
Y2497665D02*
Y2498000D01*
Y2497665D02*
X1667212Y2495000D01*
X1677000D01*
X1679598Y2492402D01*
Y2488827D02*
Y2492402D01*
X1665056Y2491500D02*
X1665556Y2491000D01*
X1666000D01*
X1668173Y2488827D01*
X1674598D01*
X1653500Y2491500D02*
X1665056D01*
X1650000Y2488000D02*
X1653500Y2491500D01*
X1650000Y2485500D02*
Y2488000D01*
X1686260Y2458000D02*
Y2461740D01*
X1684598Y2463402D02*
X1686260Y2461740D01*
X1684598Y2463402D02*
Y2467370D01*
X1661000Y2463500D02*
X1664870Y2467370D01*
X1674598D01*
Y2460142D02*
Y2467370D01*
Y2460142D02*
X1675000Y2459740D01*
X1689500Y2500260D02*
X1699000D01*
X1699000Y2500260D01*
X1701953Y2476453D02*
X1709500Y2484000D01*
X1699000Y2507740D02*
X1708579D01*
X1686260Y2448500D02*
Y2458000D01*
X1679500Y2500000D02*
Y2501260D01*
Y2500000D02*
X1684598Y2494902D01*
Y2488827D02*
Y2494902D01*
X1670000Y2524240D02*
X1678260D01*
X1654000Y2617500D02*
Y2620500D01*
X1663000Y2621500D02*
Y2625500D01*
X1665000Y2627500D01*
X1642272Y2602000D02*
X1645772Y2598500D01*
X1620000Y2602000D02*
X1642272D01*
X1654000Y2617500D02*
X1661453Y2610047D01*
Y2607000D02*
Y2610047D01*
Y2607000D02*
X1661953Y2606500D01*
X1664000D01*
X1667500Y2603000D01*
X1670240Y2603740D02*
X1677500D01*
X1667500Y2579500D02*
Y2583500D01*
X1684000Y2564728D02*
X1684098Y2564827D01*
X1684000Y2543468D02*
X1684098Y2543370D01*
X1677500Y2603740D02*
X1682260D01*
X1689500Y2596500D01*
Y2565228D02*
Y2574260D01*
X1689098Y2564827D02*
X1689500Y2565228D01*
X1694098Y2564827D02*
Y2567098D01*
X1699000Y2572000D01*
Y2574260D01*
X1699315Y2614315D02*
X1700000Y2615000D01*
X1699315Y2607000D02*
Y2614315D01*
X1684598Y2481902D02*
Y2488827D01*
X1689598Y2467370D02*
X1690000D01*
X1690864Y2466136D02*
X1692740Y2464260D01*
X1695240D01*
X1690864Y2466136D02*
Y2467370D01*
X1690864Y2470547D02*
X1697000D01*
X1690864Y2468636D02*
Y2468636D01*
X1689598Y2467370D02*
Y2469098D01*
X1690864Y2469703D02*
Y2470364D01*
X1689598Y2469098D02*
X1690000Y2469500D01*
X1690864Y2470364D01*
X1690864Y2468636D02*
X1690864Y2469703D01*
Y2470364D02*
Y2470547D01*
X1695240Y2464260D02*
X1696000Y2463500D01*
Y2463000D02*
Y2463500D01*
X1689098Y2535161D02*
X1690260Y2534000D01*
X1689098Y2535161D02*
Y2543370D01*
X1689000Y2564728D02*
X1689098Y2564827D01*
X1684000Y2543468D02*
Y2564728D01*
X1679500Y2508740D02*
Y2521240D01*
X1684000Y2518000D02*
Y2518500D01*
X1678260Y2524240D02*
X1684000Y2518500D01*
X1679500Y2534240D02*
Y2542969D01*
X1679098Y2543370D02*
X1679500Y2542969D01*
X1677240Y2524500D02*
X1679500Y2526760D01*
X1665000Y2543000D02*
X1678728D01*
X1679098Y2543370D01*
X1690260Y2525500D02*
Y2534000D01*
X1694098Y2543370D02*
X1696130D01*
X1701000Y2538500D02*
Y2543547D01*
Y2538500D02*
X1701500Y2538000D01*
X1609500Y2593500D02*
X1645272D01*
X1605000Y2598000D02*
X1609500Y2593500D01*
X1605000Y2598000D02*
Y2609000D01*
X1597500Y2616500D02*
X1605000Y2609000D01*
X1676500Y2621539D02*
X1680020Y2618020D01*
X1676500Y2621539D02*
Y2661228D01*
X1787000Y2190000D02*
X1795547Y2198547D01*
X1748000Y2204500D02*
Y2215500D01*
X1809000Y2190000D02*
Y2194453D01*
X1568035Y2407535D02*
X1574000Y2413500D01*
X1575000Y2409000D02*
X1576500Y2407500D01*
X1579000Y2409500D02*
Y2410000D01*
X1581600Y2409900D02*
X1582500Y2409000D01*
X1580250Y2411250D02*
X1581600Y2409900D01*
X1579000Y2410000D02*
X1580250Y2411250D01*
X1574000Y2413500D02*
X1576500D01*
X1579500Y2412000D02*
X1580250Y2411250D01*
X1584000Y2415000D01*
X1740000Y2211500D02*
Y2214500D01*
X1772000Y2301500D02*
X1792272D01*
X1772240Y2332240D02*
X1776500D01*
X1806453Y2451000D02*
X1812685D01*
X1590000Y2472000D02*
X1591500Y2473500D01*
X1650000Y2488000D02*
Y2503669D01*
X1850047Y2381547D02*
X1856000D01*
X1964000Y2367772D02*
X1977228D01*
D66*
X1665000Y2653500D02*
Y2660205D01*
X1664000Y2652500D02*
X1665000Y2653500D01*
X1566321Y2733601D02*
X1569633Y2736912D01*
X2011315Y2486500D02*
Y2496000D01*
X2005984Y2475693D02*
Y2476620D01*
X1991197Y2475693D02*
Y2477791D01*
X1960500Y2473500D02*
Y2477000D01*
X1606500Y2440500D02*
X1612500D01*
X1618000D01*
X1611000Y2455000D02*
X1615500Y2450500D01*
X1600193Y2455000D02*
X1611000D01*
X1599539Y2454346D02*
X1600193Y2455000D01*
X1567139Y2463639D02*
X1575760Y2472260D01*
X1559588Y2470412D02*
X1565412Y2464588D01*
Y2463639D02*
X1567139D01*
X1569588Y2459412D02*
X1578279Y2450720D01*
X1567676Y2446588D02*
Y2452000D01*
Y2446588D02*
X1570588Y2443676D01*
X1575760Y2472260D02*
Y2477000D01*
X1558556Y2463386D02*
X1558614D01*
X1561912Y2460088D01*
X1523707Y2759965D02*
X1524672Y2759000D01*
X1924075Y2645693D02*
Y2647791D01*
X1938862Y2645693D02*
Y2646620D01*
X1544500Y2727000D02*
X1548739Y2731239D01*
X1544500Y2727000D02*
X1548500Y2723000D01*
X1544500Y2727000D02*
Y2733500D01*
X1772500Y2356272D02*
X1792272Y2336500D01*
X1772500Y2356272D02*
Y2362500D01*
X1775750Y2365750D01*
X1618500Y2287500D02*
X1625000Y2294000D01*
X1610500Y2287500D02*
X1618500D01*
X1605000Y2293000D02*
X1610500Y2287500D01*
X1597165Y2293000D02*
X1605000D01*
X1884500Y2389728D02*
Y2404260D01*
X1620047Y2319047D02*
X1625000Y2324000D01*
X1609953Y2319047D02*
X1620047D01*
X1605833Y2323167D02*
X1609953Y2319047D01*
X1597165Y2323167D02*
X1605833D01*
X1776000Y2308500D02*
X1776500Y2309000D01*
X1825000Y2713500D02*
X1858500D01*
X1824000D02*
X1825000D01*
X1858500D02*
X1876000Y2731000D01*
Y2757500D01*
X1837000Y2601000D02*
Y2627000D01*
X1862500Y2613500D02*
Y2635000D01*
X1851500Y2472500D02*
X1854000Y2470000D01*
X1850000Y2472500D02*
X1851500D01*
X1544648Y2713500D02*
X1547148Y2716000D01*
X1544324Y2718824D02*
X1547148Y2716000D01*
X1544000Y2713500D02*
X1544648D01*
X1907500Y2471500D02*
X1908500Y2470500D01*
X1896855Y2460645D02*
Y2462145D01*
X1902645Y2455855D02*
X1908500Y2461711D01*
X1902145Y2455355D02*
X1902645Y2455855D01*
X1908500Y2461711D02*
Y2470500D01*
X1920000Y2474000D02*
X1925000D01*
X1908500Y2485500D02*
X1920000Y2474000D01*
X1839000Y2485500D02*
X1908500D01*
X1883500Y2439740D02*
X1894240D01*
X1869547Y2400344D02*
X1880943Y2411740D01*
X1884500D01*
X1889000Y2470000D02*
X1896855Y2462145D01*
X1925500Y2471000D02*
Y2474000D01*
X1894240Y2439740D02*
X1925500Y2471000D01*
X1699260Y2574000D02*
X1718500D01*
X1719500Y2575000D01*
Y2576760D01*
Y2584240D02*
Y2591000D01*
X1716000Y2594500D02*
X1719500Y2591000D01*
X1691000Y2594500D02*
X1716000D01*
X1699000Y2574260D02*
X1699260Y2574000D01*
X1859000Y2453000D02*
X1862000Y2456000D01*
Y2458500D01*
X1811807Y2472224D02*
Y2479807D01*
X1859000Y2448543D02*
Y2453000D01*
X1807257Y2426000D02*
X1812257Y2421000D01*
X1787500Y2426000D02*
X1807257D01*
X1786000Y2427500D02*
X1787500Y2426000D01*
X1776000Y2429521D02*
X1783979Y2437500D01*
X1825500D02*
X1831500Y2443500D01*
X1783979Y2437500D02*
X1825500D01*
X1776000Y2421000D02*
Y2429521D01*
X1812257Y2421000D02*
X1854000D01*
X1833610Y2428500D02*
X1834110Y2428000D01*
X1824240Y2428500D02*
X1833610D01*
X1847890Y2428000D02*
Y2432110D01*
X1839000Y2441000D02*
X1847890Y2432110D01*
X1839000Y2441000D02*
Y2442500D01*
X1858500Y2425500D02*
Y2435500D01*
X1854000Y2421000D02*
X1858500Y2425500D01*
Y2435500D02*
X1861240Y2438240D01*
X1789500Y2580500D02*
Y2590500D01*
X1770500Y2561500D02*
X1789500Y2580500D01*
X1770500Y2547500D02*
Y2561500D01*
Y2547500D02*
X1774500Y2543500D01*
Y2539500D02*
Y2543500D01*
X1861240Y2438240D02*
X1865000D01*
X1869000Y2445000D02*
Y2448543D01*
X1865000Y2441000D02*
X1869000Y2445000D01*
X1865000Y2438240D02*
Y2441000D01*
X1879000Y2444240D02*
Y2448543D01*
Y2444240D02*
X1883500Y2439740D01*
X1875000Y2438240D02*
Y2440500D01*
X1874000Y2441500D02*
Y2448543D01*
Y2441500D02*
X1875000Y2440500D01*
X1831500Y2443500D02*
Y2478000D01*
X1839000Y2485500D01*
X1925500Y2474000D02*
X1927740Y2476240D01*
Y2483000D01*
X1869547Y2398500D02*
Y2400344D01*
X1973500Y2388500D02*
X2104000D01*
X1966500Y2381500D02*
X1973500Y2388500D01*
X1966500Y2378500D02*
Y2381500D01*
X1869000Y2326500D02*
X1876500Y2319000D01*
X1852500Y2326500D02*
X1869000D01*
X1849500Y2329500D02*
X1852500Y2326500D01*
X1876500Y2309240D02*
Y2319000D01*
X1846000Y2329500D02*
X1849500D01*
X1894500Y2361000D02*
Y2368272D01*
X1899500Y2362000D02*
Y2368272D01*
X1882000Y2357000D02*
X1889500Y2364500D01*
X1920000Y2368000D02*
Y2382500D01*
X1912772Y2389728D02*
X1920000Y2382500D01*
X1909500Y2389728D02*
X1912772D01*
X1966500Y2259000D02*
X1971000D01*
X1957760Y2250260D02*
X1966500Y2259000D01*
X1954000Y2250260D02*
X1957760D01*
X1971000Y2254000D02*
X1980390Y2244610D01*
X1985500D01*
X1984740Y2275500D02*
X1985500Y2274740D01*
Y2258390D02*
Y2274740D01*
X1882740Y2404260D02*
X1884500D01*
Y2411740D02*
X1894000D01*
X1894740D01*
X1894000Y2404260D02*
X1894500Y2403760D01*
Y2389728D02*
Y2403760D01*
X1882000Y2346760D02*
X1882260Y2346500D01*
X1889500Y2364500D02*
Y2368272D01*
X1913098Y2354240D02*
X1916839Y2350500D01*
X1902500Y2354240D02*
X1913098D01*
X1899500Y2362000D02*
X1902500Y2359000D01*
Y2354240D02*
Y2359000D01*
X1892000Y2358500D02*
X1894500Y2361000D01*
X1892000Y2354240D02*
Y2358500D01*
X1775750Y2365750D02*
Y2376500D01*
X1736760Y2388260D02*
X1737500D01*
Y2395740D02*
Y2407000D01*
X1734000Y2410500D02*
X1737500Y2407000D01*
X1728000Y2410500D02*
X1734000D01*
X1727500Y2415000D02*
X1728000Y2415500D01*
X1709890Y2415000D02*
X1727500D01*
X1702240Y2403000D02*
Y2406260D01*
X1696110Y2412390D02*
X1702240Y2406260D01*
X1696110Y2412390D02*
Y2415000D01*
X1737500Y2352500D02*
Y2377000D01*
X1703000Y2411500D02*
X1737500Y2377000D01*
X1703000Y2411500D02*
Y2424500D01*
X1813728Y2306500D02*
X1814228Y2306000D01*
X1818000D01*
X1820500Y2308500D01*
X1690996Y2431996D02*
X1704323Y2445323D01*
X1788000Y2331500D02*
X1792272D01*
X1787000Y2330500D02*
X1788000Y2331500D01*
X1784000Y2330500D02*
X1787000D01*
X1698500Y2324760D02*
X1702760Y2320500D01*
X1698500Y2324760D02*
Y2331081D01*
X1703419Y2336000D01*
X1706000D01*
X1702500Y2341000D02*
X1706000D01*
X1692500Y2331000D02*
X1702500Y2341000D01*
X1692500Y2329610D02*
Y2331000D01*
X1702610Y2353500D02*
X1704000D01*
X1692500Y2343390D02*
X1702610Y2353500D01*
X1817500Y2298500D02*
Y2301500D01*
X1790500Y2250500D02*
X1795953Y2255953D01*
Y2290457D01*
X1798948Y2293453D01*
X1812453D01*
X1817500Y2298500D01*
X1776000Y2308000D02*
Y2308500D01*
X1827760Y2309500D02*
Y2311740D01*
X1821500Y2318000D02*
X1827760Y2311740D01*
X1683000Y2327000D02*
Y2336000D01*
X1675000Y2319000D02*
X1683000Y2327000D01*
X1631000Y2319000D02*
X1675000D01*
X1626000Y2314000D02*
X1631000Y2319000D01*
X1625000Y2314000D02*
X1626000D01*
X1673047Y2329047D02*
X1675000Y2331000D01*
X1632948Y2329047D02*
X1673047D01*
X1627901Y2324000D02*
X1632948Y2329047D01*
X1625000Y2324000D02*
X1627901D01*
X1900000Y2317500D02*
Y2326461D01*
X1813728Y2316500D02*
X1820760D01*
X1813728Y2326500D02*
X1821500D01*
X1944240Y2415740D02*
X1945000Y2416500D01*
X1943500Y2415740D02*
X1944240D01*
X1831500Y2720000D02*
Y2735000D01*
X1825000Y2713500D02*
X1831500Y2720000D01*
X1844847Y2634500D02*
X1847000D01*
X1842500Y2640000D02*
X1851795D01*
X1837500Y2635000D02*
X1842500Y2640000D01*
X1847000Y2634500D02*
X1847500Y2635000D01*
X1851795D01*
X1878000Y2574636D02*
X1880636Y2572000D01*
X1888000D01*
X1878000Y2574636D02*
Y2598000D01*
X1862500Y2613500D02*
X1878000Y2598000D01*
X1678453Y2338953D02*
X1696500Y2357000D01*
X1629953Y2338953D02*
X1678453D01*
X1625000Y2334000D02*
X1629953Y2338953D01*
X1704323Y2445323D02*
Y2448500D01*
X1690000Y2431996D02*
X1690996D01*
X1692000Y2372000D02*
X1696000Y2376000D01*
X1692000Y2363000D02*
Y2372000D01*
X1687953Y2358953D02*
X1692000Y2363000D01*
X1629953Y2358953D02*
X1687953D01*
X1625000Y2354000D02*
X1629953Y2358953D01*
X1900000Y2326461D02*
X1916539Y2343000D01*
X1917000Y2342539D01*
X1625000Y2364000D02*
X1629953Y2368953D01*
X1637052D01*
X1640504Y2365500D01*
X1686000D01*
X1918000Y2301000D02*
X1920240Y2298760D01*
X1929000D01*
X1775500Y2703500D02*
Y2706000D01*
X1777654Y2708154D01*
X1792000Y2712766D02*
Y2713500D01*
X1787387Y2708154D02*
X1792000Y2712766D01*
X1777654Y2708154D02*
X1787387D01*
X1829437Y2737063D02*
X1831500Y2735000D01*
X1823925Y2737063D02*
X1829437D01*
X1890453Y2565500D02*
Y2569547D01*
X1888000Y2572000D02*
X1890453Y2569547D01*
X1857500Y2640000D02*
X1862500Y2635000D01*
X1851795Y2640000D02*
X1857500D01*
X1985000Y2552740D02*
X1987260Y2555000D01*
X1993772D01*
X2033500Y2600000D02*
X2115500D01*
X2022500Y2589000D02*
X2033500Y2600000D01*
X2022500Y2556500D02*
Y2589000D01*
X2021000Y2555000D02*
X2022500Y2556500D01*
X2015228Y2555000D02*
X2021000D01*
X2026000Y2585000D02*
X2035000Y2594000D01*
X2094500D01*
X2026000Y2554000D02*
Y2585000D01*
X2022000Y2550000D02*
X2026000Y2554000D01*
X2015228Y2550000D02*
X2022000D01*
X1941500Y2333760D02*
X1942402Y2332858D01*
Y2324630D02*
Y2332858D01*
X1971500Y2378500D02*
X1973500Y2380500D01*
X1984000D01*
X1812114Y2479500D02*
X1812500D01*
X1811807Y2479807D02*
X1812114Y2479500D01*
X1566088Y2455912D02*
Y2455912D01*
X1566000Y2456000D02*
X1566088Y2455912D01*
X1571633Y2738912D02*
X1573999Y2741278D01*
X1569633Y2736912D02*
X1571633Y2738912D01*
X1938862Y2645693D02*
X1942098D01*
X1937691Y2647791D02*
X1938862Y2646620D01*
X1924075Y2647791D02*
X1937691D01*
X1920839Y2645693D02*
X1924075D01*
X1918031Y2648500D02*
X1920839Y2645693D01*
X1907878Y2648500D02*
X1918031D01*
X1903378D02*
X1907878D01*
X1544500Y2734412D02*
Y2741824D01*
X1574786Y2741278D02*
X1576951D01*
X1573999D02*
X1574786D01*
X1566652Y2749412D02*
X1574786Y2741278D01*
X1566652Y2749412D02*
X1568227Y2750987D01*
Y2758912D01*
X1544500Y2727000D02*
X1544500Y2727000D01*
X1544500Y2741824D02*
X1550066Y2736259D01*
X1555692D01*
X1544500Y2741824D02*
X1548500Y2745824D01*
X1590912Y2741912D02*
X1599912Y2732912D01*
X1604412D01*
X1548739Y2731239D02*
X1555692D01*
X1540778Y2716104D02*
X1543499Y2718824D01*
X1544324D01*
X1537856Y2719026D02*
Y2720356D01*
X2010122Y2505437D02*
X2017563D01*
X1987787Y2470500D02*
X1987961Y2470673D01*
X1566088Y2455912D02*
X1569588Y2459412D01*
X1566088Y2455912D02*
X1566088Y2455912D01*
X2015000Y2490500D02*
X2017500D01*
X2000685Y2496000D02*
X2002260Y2494425D01*
X1974500Y2482000D02*
X1981654D01*
X2005984Y2475693D02*
X2009221D01*
X2004813Y2477791D02*
X2005984Y2476620D01*
X1991197Y2477791D02*
X2004813D01*
X1987961Y2475693D02*
X1991197D01*
X1981654Y2482000D02*
X1987961Y2475693D01*
X2017412Y2477412D02*
X2017500Y2477500D01*
X2014272Y2474272D02*
X2017412Y2477412D01*
X2020912Y2473912D01*
X2017412Y2477412D02*
X2017412Y2477412D01*
X2014272Y2473683D02*
Y2474272D01*
X2011262Y2470673D02*
X2014272Y2473683D01*
X2009221Y2470673D02*
X2011262D01*
X2009221Y2465653D02*
Y2470673D01*
Y2465653D02*
X2011346D01*
X2016912Y2460088D01*
Y2460588D01*
X2020412Y2464088D01*
X2020912Y2464588D01*
Y2473412D01*
Y2473912D01*
X2011315Y2486500D02*
X2016676D01*
X2009740D02*
X2011315D01*
X2016676D02*
X2021588Y2481588D01*
X2023088D02*
X2028912Y2487412D01*
X2021588Y2481588D02*
X2023088D01*
X2000685Y2496000D02*
X2010122Y2505437D01*
X2028912Y2486263D02*
Y2487412D01*
Y2486263D02*
X2031808Y2483366D01*
X2028886Y2480444D02*
X2029629Y2481186D01*
X2026030Y2477588D02*
X2028886Y2480444D01*
X2025088Y2477588D02*
X2026030D01*
X2030866Y2453042D02*
Y2453692D01*
X2021088Y2455912D02*
X2027412Y2449588D01*
X2018227Y2455912D02*
X2021088D01*
X2003185Y2444575D02*
Y2460634D01*
Y2444575D02*
X2003500Y2444260D01*
X1577500Y2487500D02*
Y2507500D01*
X1597500D01*
Y2487500D02*
Y2507500D01*
X1589634Y2479634D02*
X1597500Y2487500D01*
X1593000Y2409500D02*
Y2429500D01*
X1613000D01*
Y2409500D02*
Y2429500D01*
X1593000Y2409500D02*
X1613000D01*
X1591630D02*
X1593000D01*
X1618000Y2440500D02*
X1625500Y2448000D01*
X1619000Y2462500D02*
X1625500Y2456000D01*
X1612500Y2462500D02*
X1619000D01*
X1599539Y2459366D02*
X1602673Y2462500D01*
X1583240Y2470075D02*
Y2477000D01*
X1565412Y2463639D02*
Y2464588D01*
Y2463588D02*
Y2463639D01*
X1570824Y2434000D02*
X1574260D01*
X1572685Y2425000D02*
Y2432685D01*
X1567176Y2425000D02*
X1572685D01*
X1559588Y2432588D02*
X1567176Y2425000D01*
X1559588Y2432588D02*
X1565412Y2438412D01*
X1566412D01*
X1570824Y2434000D01*
X1583315Y2417815D02*
Y2432425D01*
X1566088Y2455912D02*
X1567676Y2454324D01*
X1566088Y2455912D02*
Y2455912D01*
X1555634Y2466458D02*
X1559588Y2470412D01*
X1704500Y2687500D02*
X1711000D01*
X1772000Y2739250D02*
Y2759500D01*
X1799547Y2452000D02*
Y2459571D01*
X1805453Y2452000D02*
Y2459484D01*
X1758500Y2773000D02*
X1772000Y2759500D01*
X1805453Y2459484D02*
X1805469Y2459500D01*
X1581063Y2415563D02*
X1583315Y2417815D01*
X1588909Y2459366D02*
Y2464405D01*
X1583240Y2470075D02*
X1588909Y2464405D01*
X1602673Y2462500D02*
X1612500D01*
X1531324Y2759340D02*
X1537760Y2765776D01*
X1531324Y2759000D02*
Y2759340D01*
X1549148Y2714000D02*
X1555760D01*
X1556260Y2714500D01*
X1524672Y2759000D02*
X1531324D01*
X1599539Y2449327D02*
X1608327D01*
X1609000Y2450000D01*
Y2450500D01*
X1599539Y2444307D02*
X1602693D01*
X1606500Y2440500D01*
X2002260Y2486500D02*
Y2494425D01*
X1537088Y2713088D02*
X1537763D01*
X1540778Y2716104D01*
X1537856Y2720356D02*
X1540324Y2722824D01*
X1578279Y2444307D02*
X1581087Y2441500D01*
X1596732D01*
X1599539Y2444307D01*
X1556260Y2714500D02*
Y2716760D01*
X1555692Y2741278D02*
X1560550D01*
X1565500Y2746228D01*
Y2748260D01*
X1566652Y2749412D01*
X1544965Y2708324D02*
X1545804Y2707485D01*
X1544000Y2713500D02*
X1544500Y2714000D01*
X1547148Y2716000D02*
X1549148Y2714000D01*
X1588478Y2729000D02*
X1588500D01*
X1576951Y2731239D02*
X1586239D01*
X1588478Y2729000D01*
X1576951Y2736259D02*
X1583895D01*
X1585162Y2734991D01*
X1591009D01*
X1594500Y2731500D01*
Y2731000D02*
Y2731500D01*
X1650000Y2624500D02*
X1654000Y2620500D01*
X1650000Y2624500D02*
Y2635795D01*
X1655000Y2660205D02*
Y2663205D01*
X1654500Y2672500D02*
X1655000Y2672000D01*
Y2663205D02*
Y2672000D01*
X2017563Y2505437D02*
X2019366Y2507240D01*
X2033224D01*
X2033724D01*
X2010000Y2445240D02*
Y2447685D01*
X2018227Y2455912D01*
X2003500Y2443500D02*
Y2444260D01*
Y2428000D02*
X2023500D01*
X2003500Y2408000D02*
Y2428000D01*
Y2408000D02*
X2023500D01*
X2003500Y2428000D02*
Y2434760D01*
X2001000Y2437260D02*
X2003500Y2434760D01*
X2001000Y2437260D02*
X2018276D01*
X1979500Y2470500D02*
X1987787D01*
X1977000Y2473000D02*
X1979500Y2470500D01*
X1969000Y2473000D02*
X1977000D01*
X1960500Y2477000D02*
X1965500Y2482000D01*
X1974500D01*
X1981517Y2465653D02*
X1987961D01*
X1980250Y2466921D02*
X1981517Y2465653D01*
X1975579Y2466921D02*
X1980250D01*
X1974000Y2468500D02*
X1975579Y2466921D01*
X1973500Y2468500D02*
X1974000D01*
X2010000Y2445240D02*
X2010240Y2445000D01*
X2027412Y2449588D02*
X2030866Y2453042D01*
X1959907Y2611588D02*
X1963068D01*
X1963516Y2612035D01*
X1954304Y2605985D02*
X1959907Y2611588D01*
X1533360Y2708324D02*
X1544965D01*
X1533000Y2707965D02*
X1533360Y2708324D01*
X1911000Y2641000D02*
X1911327Y2640673D01*
X1920839D01*
X1892878Y2640000D02*
X1893878Y2639000D01*
X1913346Y2635653D02*
X1920839D01*
X1913000Y2636000D02*
X1913346Y2635653D01*
X1883000Y2635000D02*
X1884500Y2633500D01*
X1876205Y2635000D02*
X1883000D01*
X1837000D02*
X1837500D01*
X1837000Y2627000D02*
X1842000D01*
X1844000Y2625000D01*
X1851795D01*
X1893878Y2639000D02*
X1903378Y2648500D01*
X1732000Y2663000D02*
X1754000D01*
X1770000Y2647000D01*
X1664000Y2652500D02*
Y2653500D01*
X1569937Y2415563D02*
X1578000D01*
X1581063D01*
X1581232Y2459366D02*
X1588909Y2451689D01*
X1581232Y2459366D02*
X1588909D01*
X1583315Y2417815D02*
X1591630Y2409500D01*
X1588909Y2451689D02*
Y2459366D01*
X1599539D01*
X1576437Y2486437D02*
X1583240Y2479634D01*
X1589634D01*
X1973866Y2460634D02*
X1987961D01*
X2003185D01*
Y2463717D02*
X2006268Y2460634D01*
X2003185D02*
Y2463717D01*
D67*
X1530000Y2247500D02*
Y2283500D01*
X1534902Y2491591D02*
Y2494091D01*
Y2489091D02*
Y2491591D01*
Y2494091D02*
Y2494098D01*
Y2484091D02*
Y2486591D01*
Y2489091D01*
Y2479091D02*
Y2481591D01*
Y2476591D02*
Y2479091D01*
Y2481591D02*
Y2484091D01*
Y2474091D02*
Y2476591D01*
Y2449303D02*
Y2451803D01*
Y2446803D02*
Y2449303D01*
Y2444303D02*
Y2446803D01*
Y2451803D02*
Y2474091D01*
Y2439303D02*
Y2441803D01*
Y2444303D01*
Y2436803D02*
Y2439303D01*
Y2434303D02*
Y2436803D01*
Y2431803D02*
Y2434303D01*
X1514500Y2431500D02*
Y2497500D01*
X1427748Y2423347D02*
X1482795D01*
X1478795Y2420512D02*
X1498012D01*
X1497500Y2420000D02*
X1531500Y2386000D01*
X1482988Y2405488D02*
X1497500Y2420000D01*
X1423500Y2606598D02*
Y2641500D01*
X1375039Y2359642D02*
X1387756Y2372358D01*
X1375039Y2284634D02*
Y2359642D01*
X1482295Y2326205D02*
Y2375347D01*
X1423500Y2641500D02*
X1442000Y2660000D01*
X1463012D01*
X1419000Y2709000D02*
Y2740098D01*
X2201402Y2711500D02*
Y2758402D01*
X1651110Y2697567D02*
X1652677Y2696000D01*
X1365000Y2394000D02*
Y2412500D01*
X1366000Y2413500D02*
X1417902D01*
X1379000Y2799000D02*
X1402500Y2822500D01*
X1421902D01*
X1369500Y2799000D02*
X1379000D01*
X1422217Y2822500D02*
X1422500D01*
X1419000Y2606598D02*
X1423500D01*
X1392402D02*
X1419000D01*
X1452899Y2739500D02*
X1464500D01*
X1452828Y2739429D02*
X1452899Y2739500D01*
X1441172Y2739429D02*
X1452828D01*
X1441101Y2739500D02*
X1441172Y2739429D01*
X1423098Y2739500D02*
X1441101D01*
X1464500Y2761063D02*
X1474188D01*
X1464500Y2739500D02*
Y2761063D01*
X1756900Y2168500D02*
X1976500D01*
X1769980Y2113980D02*
Y2121520D01*
Y2108685D02*
Y2113980D01*
X1748800Y2160400D02*
X1756900Y2168500D01*
X1365700Y2471300D02*
X1370000Y2467000D01*
X1365700Y2471300D02*
Y2508000D01*
X1498012Y2420512D02*
X1500000Y2422500D01*
X1497500Y2420000D02*
X1498012Y2420512D01*
X1503512D01*
X1514500Y2431500D01*
X1371000Y2628000D02*
Y2664787D01*
Y2628000D02*
X1392402Y2606598D01*
X1443598Y2530500D02*
X1463000D01*
X1422000Y2552098D02*
X1443598Y2530500D01*
X1423000Y2418598D02*
X1427748Y2423347D01*
X1689542Y2696000D02*
Y2717000D01*
X1652677Y2696000D02*
X1689542D01*
X1707652D02*
Y2717000D01*
Y2696000D02*
X1709719Y2698067D01*
X1463012Y2660000D02*
X1463512D01*
X1483500Y2302500D02*
X1511000D01*
X1530000Y2283500D01*
X1476500Y2153000D02*
X1505500D01*
X1539000Y2119500D01*
X1587370D01*
X1620870Y2153000D01*
X1703900D01*
X1711300Y2160400D01*
Y2124965D02*
Y2160400D01*
X1695020Y2108685D02*
X1711300Y2124965D01*
X1748800Y2142700D02*
X1769980Y2121520D01*
X1748800Y2142700D02*
Y2160400D01*
X2023000Y2181000D02*
X2112000D01*
X1399200Y2529298D02*
X1422000Y2552098D01*
X1399200Y2508000D02*
Y2529298D01*
X1417902Y2413500D02*
X1423000Y2418598D01*
X1363000Y2683480D02*
X1377500D01*
X1393480D01*
X1419000Y2709000D01*
X1474188Y2761063D02*
X1478874Y2765749D01*
X2064756Y2354244D02*
Y2364358D01*
Y2354244D02*
X2094000Y2325000D01*
X2096295D01*
Y2323347D02*
Y2325000D01*
X2135500Y2788500D02*
X2194500D01*
X2202000Y2781000D01*
X2201402Y2758402D02*
X2202000Y2759000D01*
X1421902Y2822500D02*
X1422217D01*
X1450000Y2289500D02*
Y2295848D01*
Y2304000D01*
X2046500Y2273500D02*
Y2281500D01*
Y2273500D02*
X2054500Y2265500D01*
X2112000Y2181000D02*
X2140000Y2153000D01*
X1995000D02*
X2023000Y2181000D01*
X2140000Y2153000D02*
Y2257500D01*
X2138500Y2259000D02*
X2140000Y2257500D01*
X2054500Y2265500D02*
X2063500D01*
D68*
X1519291Y2778803D02*
X1521791Y2781303D01*
X1516791Y2776303D02*
X1519291Y2778803D01*
X1514291Y2773803D02*
X1516791Y2776303D01*
X1511791Y2771303D02*
X1514291Y2773803D01*
X1511791Y2768803D02*
Y2771303D01*
Y2766303D02*
Y2768803D01*
Y2761303D02*
Y2763803D01*
Y2766303D01*
X1444756Y2372358D02*
X1479307D01*
X1701000Y2524000D02*
X1707000D01*
X1699500Y2525500D02*
X1701000Y2524000D01*
X1697740Y2525500D02*
X1699500D01*
X1707000Y2521500D02*
Y2524000D01*
X1739370Y2615000D02*
X1744370Y2620000D01*
X1743020Y2590500D02*
X1759500D01*
X1741000Y2592520D02*
X1743020Y2590500D01*
X2097500Y2293268D02*
Y2323347D01*
X1745500Y2342000D02*
Y2504760D01*
X2086500Y2764500D02*
X2088000Y2766000D01*
Y2790000D01*
X2115500Y2817500D01*
X2142000D01*
X1878000Y2648500D02*
X1886500Y2640000D01*
X1849760Y2648500D02*
X1878000D01*
X1849760D02*
Y2652260D01*
X1846500Y2649000D02*
X1849760Y2652260D01*
X1838500Y2649000D02*
X1846500D01*
X1835547Y2651953D02*
X1838500Y2649000D01*
X1760500Y2238500D02*
X1787000Y2212000D01*
X1823315Y2452000D02*
Y2454685D01*
X1821000Y2457000D02*
X1823315Y2454685D01*
X1821000Y2457000D02*
Y2460020D01*
Y2479000D02*
Y2494500D01*
X2002000Y2673000D02*
X2027433Y2698433D01*
X1980835D02*
X2027433D01*
X2002000Y2649500D02*
Y2673000D01*
X1823315Y2449815D02*
Y2451000D01*
X1816500Y2443000D02*
X1823315Y2449815D01*
X1785000Y2443000D02*
X1816500D01*
X1761000Y2467000D02*
X1785000Y2443000D01*
X1776000Y2576000D02*
Y2607000D01*
X1760500Y2560500D02*
X1776000Y2576000D01*
X1760500Y2238500D02*
Y2560500D01*
X1731000Y2327500D02*
X1745500Y2342000D01*
X1742500Y2514000D02*
X1747260D01*
X1745500Y2512240D02*
X1747260Y2514000D01*
X1917000Y2342539D02*
Y2350339D01*
Y2334740D02*
Y2342539D01*
X2039500Y2710500D02*
X2062402D01*
X1781000Y2494500D02*
Y2504500D01*
X1771000Y2494500D02*
Y2504500D01*
X1738240Y2504760D02*
X1745500D01*
X1733000Y2510000D02*
X1738240Y2504760D01*
X1733000Y2510000D02*
Y2513839D01*
X1509402Y2706803D02*
X1510000Y2706205D01*
Y2688740D02*
Y2706205D01*
X1936142Y2716598D02*
X1990500D01*
X1821000Y2460020D02*
Y2479000D01*
Y2494500D02*
Y2504500D01*
X1933240Y2719500D02*
X1936142Y2716598D01*
X1916839Y2350500D02*
X1917000Y2350339D01*
X1789000Y2620000D02*
X1789500D01*
X1739370Y2612110D02*
X1744000Y2607480D01*
X1744370Y2620000D02*
X1759500D01*
X1729331Y2597669D02*
X1734480Y2592520D01*
X1741000D01*
X1745500Y2647000D02*
X1776000Y2616500D01*
X1740000Y2647000D02*
X1745500D01*
X1777520Y2649020D02*
X1786500D01*
X1775500Y2647000D02*
X1777520Y2649020D01*
X1770000Y2647000D02*
X1775500D01*
X1779520Y2663980D02*
X1786500D01*
X1770000Y2673500D02*
X1779520Y2663980D01*
X1770000Y2673500D02*
Y2676500D01*
X1786500Y2663980D02*
X1798020D01*
X1792000Y2649500D02*
X1793000D01*
X1789500Y2133500D02*
X1826000D01*
X1769980Y2113980D02*
X1789500Y2133500D01*
X1834348Y2190000D02*
X1834848Y2190500D01*
X1758000Y2200000D02*
X1768000Y2190000D01*
X1743500Y2200000D02*
X1758000D01*
X1954466Y2622488D02*
Y2622912D01*
X1959866Y2617088D02*
X1960790D01*
X1944118Y2614000D02*
X1951436D01*
X1371000Y2664787D02*
X1373240D01*
X2025961Y2249866D02*
Y2258134D01*
Y2249866D02*
X2030827Y2245000D01*
X1482295Y2375347D02*
Y2380000D01*
X1485000Y2320094D02*
Y2327500D01*
X1792000Y2713500D02*
X1794500Y2716000D01*
Y2725500D01*
X1479307Y2372358D02*
X1482295Y2375347D01*
X1770000Y2676500D02*
Y2677000D01*
X1787000Y2212000D02*
X1788000D01*
X2079421Y2245000D02*
Y2266000D01*
X2074303Y2485500D02*
X2081000D01*
X2069500Y2480697D02*
X2074303Y2485500D01*
X2069500Y2433500D02*
Y2480697D01*
X2097500Y2293268D02*
X2098500Y2292268D01*
Y2284000D02*
Y2292268D01*
X1954466Y2622488D02*
X1957195Y2619759D01*
X1951436Y2614000D02*
X1957195Y2619759D01*
X2002000Y2600500D02*
Y2649500D01*
X1957195Y2619759D02*
X1959866Y2617088D01*
X1864390Y2818933D02*
X1903281D01*
X1905848Y2821500D01*
Y2800500D02*
Y2821500D01*
X2027433Y2698433D02*
X2039500Y2710500D01*
X1980835Y2698433D02*
X1992000Y2709598D01*
X1966890Y2698433D02*
X1980835D01*
X2091000Y2710500D02*
X2135500Y2755000D01*
X2062402Y2710500D02*
X2091000D01*
X1798020Y2663980D02*
X1808488Y2653512D01*
Y2651669D02*
Y2653512D01*
X1793000Y2649500D02*
X1801000Y2641500D01*
X1808358D01*
X1808488Y2641630D01*
X1886500Y2640000D02*
X1892878D01*
X1849760Y2652760D02*
Y2658000D01*
X1911000Y2278500D02*
Y2288500D01*
X1921000Y2278500D02*
Y2288500D01*
Y2260240D02*
Y2278500D01*
X1920760Y2260000D02*
X1921000Y2260240D01*
X1911260Y2260000D02*
X1920760D01*
X1911000Y2260260D02*
X1911260Y2260000D01*
X1911000Y2267740D02*
Y2278500D01*
X1910740Y2300000D02*
X1911000Y2299740D01*
Y2288500D02*
Y2299740D01*
X1638272Y2500500D02*
Y2505500D01*
X1646500D01*
X1739370Y2612110D02*
Y2615000D01*
X1729331Y2597669D02*
Y2615000D01*
X1450000Y2295848D02*
X1471848Y2274000D01*
X1776000Y2607000D02*
X1789000Y2620000D01*
X1776000Y2607000D02*
Y2616500D01*
X1768000Y2190000D02*
X1787000D01*
X1809000D02*
X1834348D01*
X1646500Y2505500D02*
X1647917Y2506917D01*
X2030827Y2245000D02*
X2079421D01*
D69*
X1830000Y2779000D02*
X1849000Y2760000D01*
X1830000Y2780500D02*
Y2819500D01*
X2169402Y2679500D02*
X2201402Y2711500D01*
X2043512Y2668500D02*
X2054512Y2679500D01*
X2169402D01*
D70*
X2005000Y2243673D02*
Y2361602D01*
Y2243673D02*
X2005039Y2243634D01*
D71*
X2191000Y2384000D02*
Y2413598D01*
X2184500Y2420098D02*
X2191000Y2413598D01*
X1828000Y2788500D02*
X1829000Y2787500D01*
X2178346Y2371346D02*
X2191000Y2384000D01*
X2121346Y2371346D02*
X2178346D01*
X2107000Y2357000D02*
X2121346Y2371346D01*
X2097000Y2357000D02*
X2107000D01*
X2081000Y2485500D02*
X2152000D01*
X2152500Y2485000D02*
X2184500Y2453000D01*
Y2420098D02*
Y2453000D01*
X1830000Y2779000D02*
Y2780500D01*
D72*
X1531768Y2707768D02*
X1532912Y2708912D01*
X1523693Y2707768D02*
X1531768D01*
X1647012Y2587531D02*
X1653303D01*
X1646043Y2588500D02*
X1647012Y2587531D01*
X1691500Y2403000D02*
X1718740Y2375760D01*
X1947673Y2550598D02*
X1958000Y2540272D01*
Y2534500D02*
Y2540272D01*
X1806815Y2533000D02*
X1807000Y2533185D01*
X1804500Y2530685D02*
X1806815Y2533000D01*
X1804500Y2521500D02*
Y2530685D01*
X1677500Y2593500D02*
X1684500D01*
X1677500Y2588240D02*
Y2593500D01*
X1680020Y2615000D02*
Y2617020D01*
X1858000Y2594528D02*
X1860000Y2592528D01*
X1858000Y2594528D02*
Y2605500D01*
X1834260Y2386740D02*
Y2389115D01*
X1837000Y2601000D02*
X1839500D01*
X1827500D02*
X1837000D01*
X1814000Y2486000D02*
X1821000Y2479000D01*
X1537000Y2673260D02*
X1538713Y2671547D01*
X1934000Y2210500D02*
Y2211000D01*
X1839000Y2472000D02*
Y2476500D01*
X1842000Y2479500D01*
X1847547D01*
X1892240Y2289740D02*
Y2302000D01*
X1901000Y2297740D02*
X1903260Y2300000D01*
X1901000Y2288500D02*
Y2297740D01*
X1685000Y2409500D02*
X1691500Y2403000D01*
X1694760D01*
X1718740Y2350000D02*
Y2375760D01*
X1685000Y2409500D02*
Y2416000D01*
X1721750Y2529250D02*
X1723000Y2528000D01*
Y2482500D02*
Y2528000D01*
Y2482500D02*
X1725760Y2479740D01*
Y2464000D02*
Y2479740D01*
X1718740Y2300500D02*
Y2350000D01*
X1715240Y2353500D02*
X1718740Y2350000D01*
X1711480Y2353500D02*
X1715240D01*
X1718740Y2216760D02*
Y2291740D01*
Y2300500D01*
X1717000D02*
X1718740D01*
X1711500Y2306000D02*
X1717000Y2300500D01*
X1690240Y2306000D02*
X1711500D01*
X1718740Y2291740D02*
X1744000Y2317000D01*
X1739740Y2215760D02*
X1741000Y2214500D01*
X1739740Y2215760D02*
Y2251500D01*
X1720000Y2196500D02*
X1723500Y2200000D01*
X1687240Y2196500D02*
X1720000D01*
X1813728Y2336500D02*
X1815228Y2338000D01*
X1827047D01*
X1814000Y2362000D02*
X1821500D01*
X1812453D02*
X1814000D01*
X1822000Y2354000D01*
X1856000Y2387453D02*
X1860547D01*
X1863000Y2385000D01*
Y2378000D02*
Y2385000D01*
X1847000Y2362000D02*
X1863000Y2378000D01*
X1821500Y2362000D02*
X1847000D01*
X1812453Y2337776D02*
X1813728Y2336500D01*
X1812453Y2337776D02*
Y2362000D01*
X1847953Y2387453D02*
X1856000D01*
X1844500Y2384000D02*
X1847953Y2387453D01*
X1837000Y2384000D02*
X1844500D01*
X1834260Y2386740D02*
X1837000Y2384000D01*
X1824000Y2364500D02*
Y2372772D01*
X1821500Y2362000D02*
X1824000Y2364500D01*
X1841740Y2389115D02*
Y2401000D01*
X1834260Y2389115D02*
Y2401000D01*
X1857240Y2242500D02*
X1862500D01*
X1863500Y2241500D01*
X1874240Y2242520D02*
X1874760Y2242000D01*
X1874240Y2242520D02*
Y2250500D01*
X1901000Y2243500D02*
Y2260000D01*
X1891000Y2233500D02*
X1901000Y2243500D01*
X1827500Y2233500D02*
X1891000D01*
X1704323Y2448500D02*
X1707000D01*
X1708500Y2450000D01*
Y2452677D01*
X1709421Y2581740D02*
X1709500Y2581661D01*
X1899839Y2546000D02*
Y2553500D01*
X1782500Y2544000D02*
X1829394D01*
X1829134Y2543740D02*
X1829394Y2544000D01*
X1777500Y2549000D02*
X1782500Y2544000D01*
X1697000Y2639500D02*
Y2654327D01*
Y2634000D02*
Y2639500D01*
X1704500D01*
X1705000Y2640000D01*
X1872500Y2592740D02*
X1873000D01*
X1860213D02*
X1872500D01*
X1860000Y2592528D02*
X1860213Y2592740D01*
X1743500Y2531453D02*
Y2550000D01*
X1736500Y2557000D02*
X1743500Y2550000D01*
X1743209Y2531161D02*
X1743500Y2531453D01*
X1733000Y2531161D02*
X1743209D01*
X1793240Y2533000D02*
X1806815D01*
X1850425Y2562760D02*
Y2590075D01*
X1839500Y2601000D02*
X1850425Y2590075D01*
X1817500Y2591000D02*
X1827500Y2601000D01*
X1817500Y2572315D02*
Y2591000D01*
Y2543740D02*
X1829134D01*
X1817425Y2543815D02*
X1817500Y2543740D01*
X1807000Y2543815D02*
X1817425D01*
X1820287Y2533472D02*
X1830079D01*
X1817500Y2536260D02*
X1820287Y2533472D01*
X1814425Y2533185D02*
X1817500Y2536260D01*
X1807000Y2533185D02*
X1814425D01*
X1664000Y2766500D02*
X1665000D01*
X1662500Y2768000D02*
X1664000Y2766500D01*
X1654240Y2768000D02*
X1662500D01*
X1561953Y2671547D02*
X1606500Y2627000D01*
X1538713Y2671547D02*
X1561953D01*
X1536480Y2681260D02*
X1537000Y2680740D01*
X1528500Y2681260D02*
X1536480D01*
X1528500Y2688740D02*
X1528500Y2688740D01*
X1519500Y2688740D02*
X1528500D01*
X1519500Y2681260D02*
X1519500Y2681260D01*
X1510000Y2681260D02*
X1519500D01*
X1646500Y2768260D02*
X1646760Y2768000D01*
X1638500Y2768260D02*
X1646500D01*
X1638500Y2775740D02*
X1638520Y2775760D01*
X1647000D01*
X1646480Y2783760D02*
X1647000Y2783240D01*
X1638500Y2783760D02*
X1646480D01*
X1638000Y2803000D02*
X1638500Y2802500D01*
Y2791240D02*
Y2802500D01*
X1927740Y2483000D02*
Y2488240D01*
X1932839Y2493339D01*
X1933000D01*
X1928339Y2510661D02*
X1933000D01*
X1915500Y2523500D02*
X1928339Y2510661D01*
X1915500Y2523500D02*
Y2526000D01*
X1898760Y2519260D02*
X1905500Y2526000D01*
X1891500Y2519260D02*
X1898760D01*
X1925240Y2728500D02*
X1925760Y2727980D01*
Y2719500D02*
Y2727980D01*
X1917240Y2719500D02*
X1917760Y2720020D01*
Y2728500D01*
X1908740D02*
X1909760Y2727480D01*
Y2719500D02*
Y2727480D01*
X1899839Y2546000D02*
X1900339Y2545500D01*
X2007453Y2537453D02*
Y2543000D01*
X2006000Y2536000D02*
X2007453Y2537453D01*
X1992740Y2536000D02*
X2006000D01*
X2004500Y2550000D02*
X2007453Y2547047D01*
Y2543000D02*
Y2547047D01*
X2013228Y2567000D02*
X2015228Y2565000D01*
X2007228Y2567000D02*
X2013228D01*
X2004500Y2564272D02*
X2007228Y2567000D01*
X2015228Y2560000D02*
Y2565000D01*
X1951433Y2367772D02*
X1954728D01*
X1934161Y2350500D02*
X1951433Y2367772D01*
X1977000Y2288500D02*
Y2301500D01*
X1964500Y2276000D02*
X1977000Y2288500D01*
X1955661Y2276000D02*
X1964500D01*
X1929000Y2284500D02*
Y2298760D01*
Y2284500D02*
X1937500Y2276000D01*
X1938339D01*
X1868000Y2212000D02*
X1878000D01*
X1848000Y2205500D02*
X1861500D01*
X1846453D02*
X1848000D01*
X1861500D02*
X1868000Y2212000D01*
X1852958Y2190500D02*
Y2200542D01*
X1848000Y2205500D02*
X1852958Y2200542D01*
X1834848Y2199801D02*
X1840547Y2205500D01*
X1834848Y2190500D02*
Y2199801D01*
X1806500Y2486000D02*
X1814000D01*
X1799996Y2479496D02*
X1806500Y2486000D01*
X2033732Y2492232D02*
X2040917D01*
X2032588Y2445412D02*
X2040541D01*
X2040917Y2445035D01*
X2033088Y2491588D02*
X2033224Y2491724D01*
X2033732Y2492232D01*
X2033224Y2491724D02*
Y2499760D01*
Y2500260D01*
X1694807Y2656520D02*
X1697000Y2654327D01*
X1680020Y2617020D02*
X1697000Y2634000D01*
X1680020Y2617020D02*
Y2618020D01*
X1965913Y2661035D02*
X1973417D01*
X1961261Y2670196D02*
X1961304D01*
X1965913Y2665587D01*
Y2661035D02*
Y2665587D01*
X1963516Y2612035D02*
X1973417D01*
X1835547Y2651953D02*
Y2658000D01*
X1841000Y2266740D02*
Y2278500D01*
Y2259260D02*
X1848980D01*
X1850000Y2258240D01*
X1842020Y2250760D02*
X1850000D01*
X1841500Y2250240D02*
X1842020Y2250760D01*
X1841500Y2242760D02*
X1849500D01*
X1849760Y2242500D01*
X1841000Y2278500D02*
Y2288500D01*
X1851000Y2278500D02*
Y2288500D01*
Y2268740D02*
Y2278500D01*
X1850760Y2268500D02*
X1851000Y2268740D01*
X1866500Y2250760D02*
X1866760Y2250500D01*
X1874240D02*
X1874740Y2250000D01*
X1901000Y2278500D02*
Y2288500D01*
X1859000Y2250760D02*
X1866500D01*
X1901000Y2267480D02*
Y2278500D01*
X1817500Y2243500D02*
X1827500Y2233500D01*
X1812500Y2243500D02*
X1817500D01*
X1891000Y2288500D02*
X1892240Y2289740D01*
X1891000Y2278500D02*
Y2288500D01*
X1881000Y2278500D02*
Y2288500D01*
Y2298240D01*
X1876500Y2301760D02*
X1884520D01*
X1884760Y2302000D01*
X1881000Y2298240D02*
X1884520Y2301760D01*
X1867000Y2299760D02*
Y2311500D01*
X1866740Y2299500D02*
X1867000Y2299760D01*
X1866740Y2296260D02*
Y2299500D01*
Y2296260D02*
X1871000Y2292000D01*
Y2288500D02*
Y2292000D01*
Y2278500D02*
Y2288500D01*
X1861000Y2278500D02*
Y2288500D01*
Y2294500D01*
X1859260Y2296240D02*
X1861000Y2294500D01*
X1859260Y2296240D02*
Y2299500D01*
X1861000Y2278500D02*
X1868000Y2271500D01*
X1885500D01*
X1891000Y2277000D01*
Y2278500D01*
X1693740Y2448500D02*
X1704323D01*
X1708500Y2470000D02*
Y2473000D01*
X1705047Y2476453D02*
X1708500Y2473000D01*
X1701953Y2476453D02*
X1705047D01*
X1684000Y2615000D02*
X1688685Y2610315D01*
Y2607000D02*
Y2610315D01*
X1667500Y2593500D02*
X1674740D01*
X1663000Y2557000D02*
X1671272D01*
X1655000Y2565000D02*
X1663000Y2557000D01*
X1654000Y2584000D02*
X1655417Y2585417D01*
X1680020Y2615000D02*
X1684000D01*
X1701000Y2555839D02*
X1709500Y2564339D01*
X1699000Y2581740D02*
X1709421D01*
X1671272Y2557000D02*
X1679098Y2564827D01*
X1712000Y2544661D02*
Y2561839D01*
X1709500Y2564339D02*
X1712000Y2561839D01*
X1935500Y2244000D02*
Y2252740D01*
X1928240Y2260000D02*
X1935500Y2252740D01*
X1976500Y2168500D02*
X1984500D01*
X1995000Y2158000D01*
Y2153000D02*
Y2158000D01*
X1934000Y2211000D02*
X1976500Y2168500D01*
X1697000Y2476453D02*
X1701953D01*
X1645772Y2584000D02*
X1654000D01*
X1653303Y2587531D02*
X1655417Y2585417D01*
X1655547Y2595331D02*
Y2604000D01*
X1701000Y2550000D02*
Y2555839D01*
X1954728Y2367772D02*
X1964000D01*
X2004500Y2550000D02*
Y2557500D01*
Y2564272D01*
D73*
X1973339Y2560598D02*
X1977120Y2564380D01*
X1969130Y2560598D02*
X1973339D01*
X1947673Y2555598D02*
X1969130D01*
X1986434Y2565000D02*
X1993772D01*
X1977032Y2555598D02*
X1986434Y2565000D01*
X1969130Y2555598D02*
X1977032D01*
D74*
X2005000Y2526500D02*
X2013000Y2534500D01*
X1992500Y2526500D02*
X2005000D01*
X1985260Y2533740D02*
X1992500Y2526500D01*
X1985260Y2533740D02*
Y2536000D01*
X1937000Y2540500D02*
X1942750Y2546250D01*
Y2552185D01*
X1946163Y2555598D01*
X1947673D01*
X1930500Y2540500D02*
X1937000D01*
X1809000Y2388000D02*
Y2394228D01*
X1805000Y2384000D02*
X1809000Y2388000D01*
X1779000Y2384000D02*
X1805000D01*
X1775000Y2388000D02*
X1779000Y2384000D01*
X1739370Y2615000D02*
Y2630130D01*
X1947402Y2332500D02*
X1947902Y2332000D01*
X1978000D01*
X1981000Y2335000D01*
Y2337500D01*
X1989500Y2346000D01*
X1991500D01*
X1715000Y2654500D02*
X1739370Y2630130D01*
X1906000Y2569000D02*
X1908000Y2567000D01*
Y2528500D02*
Y2567000D01*
X1905500Y2526000D02*
X1908000Y2528500D01*
X1629000Y2476500D02*
X1679598D01*
X1618500Y2487000D02*
X1629000Y2476500D01*
X1618500Y2487000D02*
Y2489500D01*
X1923958Y2800500D02*
Y2821500D01*
X1964823D01*
X1966890Y2819433D01*
D75*
X1682760Y2534240D02*
X1685000Y2532000D01*
Y2522657D02*
Y2532000D01*
Y2522657D02*
X1691157Y2516500D01*
X1679500Y2534240D02*
X1682760D01*
X1691157Y2516500D02*
X1696500D01*
X1966500Y2357043D02*
Y2360000D01*
X1965012Y2361488D02*
X1966500Y2360000D01*
X1951488Y2361488D02*
X1965012D01*
X1947500Y2357500D02*
X1951488Y2361488D01*
X1947500Y2353500D02*
Y2357500D01*
X1650145Y2520000D02*
X1655284Y2514861D01*
X1644000Y2520000D02*
X1650145D01*
X1639500Y2524500D02*
X1644000Y2520000D01*
X1655284Y2513788D02*
Y2514861D01*
Y2513788D02*
X1658572Y2510500D01*
X1659728D01*
X1542500Y2733500D02*
X1543000Y2734000D01*
X2013240Y2441000D02*
X2020500D01*
X2031000Y2430500D01*
Y2421000D02*
Y2430500D01*
X2028000Y2418000D02*
X2031000Y2421000D01*
X2013500Y2418000D02*
X2028000D01*
X2009740Y2444500D02*
X2013240Y2441000D01*
D76*
X1823500Y2693240D02*
X1833000D01*
X1793500Y2694815D02*
X1803508D01*
X1809500Y2738000D02*
X1815010D01*
X1819093Y2742083D01*
X1823925D01*
X1803508Y2694815D02*
X1808488Y2699795D01*
Y2700980D01*
X1814968Y2694500D01*
X1822240D01*
X1823500Y2693240D01*
X1833000D02*
Y2693295D01*
D77*
X2013000Y2534500D02*
D03*
X1681500Y2573500D02*
D03*
X1930500Y2540500D02*
D03*
X1775000Y2388000D02*
D03*
X1804500Y2521500D02*
D03*
X1943500Y2513500D02*
D03*
X1684500Y2593500D02*
D03*
X2027500Y2523500D02*
D03*
X1733000Y2542000D02*
D03*
X1947500Y2353500D02*
D03*
X1991500Y2346000D02*
D03*
X1664500Y2679500D02*
D03*
X1990500Y2283000D02*
D03*
X1989500Y2338000D02*
D03*
X1858000Y2605500D02*
D03*
X1840000Y2369000D02*
D03*
X1906000Y2569000D02*
D03*
X1618500Y2489500D02*
D03*
X1660500Y2447500D02*
D03*
X1639500Y2524500D02*
D03*
X1701500Y2488000D02*
D03*
X1597165Y2373444D02*
D03*
Y2363389D02*
D03*
Y2353333D02*
D03*
Y2303056D02*
D03*
Y2313111D02*
D03*
Y2323167D02*
D03*
Y2293000D02*
D03*
Y2333222D02*
D03*
Y2383500D02*
D03*
Y2343278D02*
D03*
X2177500Y2092000D02*
D03*
Y2228000D02*
D03*
X2147500Y2420500D02*
D03*
X2209500Y2173000D02*
D03*
X1365000Y2394000D02*
D03*
X1362500Y2264500D02*
D03*
X1771000Y2288500D02*
D03*
X1781000Y2278500D02*
D03*
Y2288500D02*
D03*
X1791000Y2278500D02*
D03*
Y2288500D02*
D03*
X1801000Y2278500D02*
D03*
Y2288500D02*
D03*
X1811000Y2278500D02*
D03*
Y2288500D02*
D03*
X1821000Y2278500D02*
D03*
Y2288500D02*
D03*
X1831000Y2278500D02*
D03*
Y2288500D02*
D03*
X1841000Y2278500D02*
D03*
Y2288500D02*
D03*
X1851000Y2278500D02*
D03*
Y2288500D02*
D03*
X1861000Y2278500D02*
D03*
Y2288500D02*
D03*
X1871000Y2278500D02*
D03*
Y2288500D02*
D03*
X1881000Y2278500D02*
D03*
Y2288500D02*
D03*
X1891000Y2278500D02*
D03*
Y2288500D02*
D03*
X1901000Y2278500D02*
D03*
Y2288500D02*
D03*
X1911000Y2278500D02*
D03*
Y2288500D02*
D03*
X1921000Y2278500D02*
D03*
Y2288500D02*
D03*
X1635000Y2384000D02*
D03*
X1625000Y2374000D02*
D03*
X1635000D02*
D03*
X1625000Y2364000D02*
D03*
X1635000D02*
D03*
X1625000Y2354000D02*
D03*
X1635000D02*
D03*
X1625000Y2344000D02*
D03*
X1635000D02*
D03*
X1625000Y2334000D02*
D03*
X1635000D02*
D03*
X1625000Y2324000D02*
D03*
X1635000D02*
D03*
X1625000Y2314000D02*
D03*
X1635000D02*
D03*
X1625000Y2304000D02*
D03*
X1635000D02*
D03*
X1625000Y2294000D02*
D03*
X1635000D02*
D03*
X1615000Y2364000D02*
D03*
Y2294000D02*
D03*
Y2304000D02*
D03*
Y2314000D02*
D03*
Y2324000D02*
D03*
Y2334000D02*
D03*
Y2344000D02*
D03*
Y2354000D02*
D03*
Y2374000D02*
D03*
X2031500Y2814000D02*
D03*
Y2824000D02*
D03*
X2041500Y2814000D02*
D03*
Y2824000D02*
D03*
X2051500Y2814000D02*
D03*
Y2824000D02*
D03*
X2061500Y2814000D02*
D03*
Y2824000D02*
D03*
X2071500Y2814000D02*
D03*
X1771000Y2504500D02*
D03*
X1781000Y2494500D02*
D03*
Y2504500D02*
D03*
X1791000Y2494500D02*
D03*
Y2504500D02*
D03*
X1801000Y2494500D02*
D03*
Y2504500D02*
D03*
X1811000Y2494500D02*
D03*
Y2504500D02*
D03*
X1821000Y2494500D02*
D03*
Y2504500D02*
D03*
X1831000Y2494500D02*
D03*
Y2504500D02*
D03*
X1841000Y2494500D02*
D03*
Y2504500D02*
D03*
X1851000Y2494500D02*
D03*
Y2504500D02*
D03*
X1861000Y2494500D02*
D03*
Y2504500D02*
D03*
X1871000Y2494500D02*
D03*
Y2504500D02*
D03*
X1881000Y2494500D02*
D03*
Y2504500D02*
D03*
X1891000Y2494500D02*
D03*
Y2504500D02*
D03*
X1901000Y2494500D02*
D03*
Y2504500D02*
D03*
X1911000Y2494500D02*
D03*
Y2504500D02*
D03*
X1860000Y2533472D02*
D03*
Y2543315D02*
D03*
Y2553157D02*
D03*
Y2563000D02*
D03*
Y2572842D02*
D03*
Y2582685D02*
D03*
Y2592528D02*
D03*
X1830079Y2533472D02*
D03*
Y2543315D02*
D03*
Y2553157D02*
D03*
Y2563000D02*
D03*
Y2572842D02*
D03*
Y2582685D02*
D03*
X1799500Y2123500D02*
D03*
X1888500Y2130000D02*
D03*
X1758500Y2784500D02*
D03*
X1887500Y2595000D02*
D03*
X1715000Y2654500D02*
D03*
X1876000Y2757500D02*
D03*
X1821500Y2253000D02*
D03*
X2142000Y2817500D02*
D03*
X1949000Y2826500D02*
D03*
X2006000Y2263000D02*
D03*
X1854500Y2103000D02*
D03*
X1727000Y2783000D02*
D03*
X1741000Y2783500D02*
D03*
X1874500Y2616000D02*
D03*
X1611000Y2508000D02*
D03*
X2034500Y2406000D02*
D03*
X1967000Y2444000D02*
D03*
X1607500Y2399500D02*
D03*
X2169000Y2817500D02*
D03*
X1681000Y2170000D02*
D03*
X1692000Y2783000D02*
D03*
X1494500Y2820500D02*
D03*
X1556500Y2788000D02*
D03*
X1550500Y2677500D02*
D03*
X1810500Y2098894D02*
D03*
X1820500Y2088894D02*
D03*
Y2098894D02*
D03*
X1830500Y2088894D02*
D03*
Y2098894D02*
D03*
X1840500Y2088894D02*
D03*
Y2098894D02*
D03*
X1904500Y2203000D02*
D03*
X1696500Y2516500D02*
D03*
X1646500Y2217000D02*
D03*
X1362000Y2339000D02*
D03*
X1404500Y2805500D02*
D03*
X1808488Y2700980D02*
D03*
Y2681000D02*
D03*
Y2651669D02*
D03*
Y2641630D02*
D03*
X1679500Y2616000D02*
D03*
X1699480D02*
D03*
X1728811D02*
D03*
X1738850D02*
D03*
D78*
X1878000Y2212000D02*
D03*
X1868000D02*
D03*
X1808000D02*
D03*
X1788000D02*
D03*
Y2152000D02*
D03*
X1808000D02*
D03*
X1868000D02*
D03*
X1878000D02*
D03*
X1740000Y2676500D02*
D03*
Y2647000D02*
D03*
X1770000D02*
D03*
Y2676500D02*
D03*
X1789500Y2590500D02*
D03*
Y2620000D02*
D03*
X1759500D02*
D03*
Y2590500D02*
D03*
X1723500Y2200000D02*
D03*
X1733500D02*
D03*
X1743500D02*
D03*
D79*
X1903500Y2471500D02*
D03*
D80*
X1908500D02*
D03*
X1913500D02*
D03*
D81*
X1971000Y2264000D02*
D03*
X1736000Y2441000D02*
D03*
X1706000Y2331000D02*
D03*
X1684500Y2284500D02*
D03*
X1928000Y2405000D02*
D03*
X1839000Y2452500D02*
D03*
X1926000Y2445000D02*
D03*
X1960500Y2409000D02*
D03*
X1728000Y2405500D02*
D03*
X1854000Y2349500D02*
D03*
D82*
X1971000Y2259000D02*
D03*
Y2254000D02*
D03*
X1736000Y2446000D02*
D03*
Y2451000D02*
D03*
X1706000Y2336000D02*
D03*
Y2341000D02*
D03*
X1684500Y2289500D02*
D03*
Y2294500D02*
D03*
X1928000Y2395000D02*
D03*
Y2400000D02*
D03*
X1839000Y2447500D02*
D03*
Y2442500D02*
D03*
X1926000Y2440000D02*
D03*
Y2435000D02*
D03*
X1960500Y2404000D02*
D03*
Y2399000D02*
D03*
X1728000Y2410500D02*
D03*
Y2415500D02*
D03*
X1854000Y2354500D02*
D03*
Y2359500D02*
D03*
D83*
X1656500Y2261618D02*
D03*
X1711618D02*
D03*
Y2206500D02*
D03*
X1656500D02*
D03*
D84*
X1726500Y2557000D02*
D03*
X1736500D02*
D03*
X1746500D02*
D03*
X1925500Y2526000D02*
D03*
X1915500D02*
D03*
X1905500D02*
D03*
X1948000Y2534500D02*
D03*
X1958000D02*
D03*
X1968000D02*
D03*
X1994500Y2520000D02*
D03*
X2004500D02*
D03*
X2014500D02*
D03*
X1987000Y2323500D02*
D03*
X1977000D02*
D03*
X1967000D02*
D03*
X1987000Y2301500D02*
D03*
X1977000D02*
D03*
X1967000D02*
D03*
X1640000Y2485500D02*
D03*
X1650000D02*
D03*
X1660000D02*
D03*
X1641000Y2463500D02*
D03*
X1651000D02*
D03*
X1661000D02*
D03*
X1645000Y2565000D02*
D03*
X1655000D02*
D03*
X1665000D02*
D03*
X1645000Y2543000D02*
D03*
X1655000D02*
D03*
X1665000D02*
D03*
D85*
X1956000Y2517500D02*
D03*
X1976000D02*
D03*
Y2497500D02*
D03*
X1956000D02*
D03*
X1905835Y2610000D02*
D03*
X1925835D02*
D03*
Y2590000D02*
D03*
X1905835D02*
D03*
X1572500Y2789500D02*
D03*
X1592500D02*
D03*
Y2769500D02*
D03*
X1572500D02*
D03*
X1613000Y2429500D02*
D03*
Y2409500D02*
D03*
X1593000D02*
D03*
Y2429500D02*
D03*
X1577500Y2487500D02*
D03*
X1597500D02*
D03*
Y2507500D02*
D03*
X1577500D02*
D03*
X1592500Y2679000D02*
D03*
X1612500D02*
D03*
Y2699000D02*
D03*
X1592500D02*
D03*
X1893000Y2659000D02*
D03*
X1913000D02*
D03*
Y2679000D02*
D03*
X1893000D02*
D03*
X2003500Y2408000D02*
D03*
X2023500D02*
D03*
Y2428000D02*
D03*
X2003500D02*
D03*
D86*
X1966000Y2507500D02*
D03*
X1407000Y2149000D02*
D03*
X1915835Y2600000D02*
D03*
X1582500Y2779500D02*
D03*
X1603000Y2419500D02*
D03*
X1587500Y2497500D02*
D03*
X1602500Y2689000D02*
D03*
X1903000Y2669000D02*
D03*
X1547000Y2149500D02*
D03*
X2103130Y2149000D02*
D03*
X1963130Y2148500D02*
D03*
X2013500Y2418000D02*
D03*
D87*
X1369500Y2799000D02*
D03*
Y2779000D02*
D03*
X1461402Y2822500D02*
D03*
X1421902D02*
D03*
X1366500Y2717000D02*
D03*
X1400000D02*
D03*
X1399200Y2508000D02*
D03*
X1365700D02*
D03*
X2009500Y2760000D02*
D03*
Y2780000D02*
D03*
D88*
X1870020Y2100000D02*
D03*
X1695020Y2108685D02*
D03*
X1711300Y2160400D02*
D03*
D89*
X1890000Y2100000D02*
D03*
X1732500Y2108685D02*
D03*
X1769980D02*
D03*
X1748800Y2160400D02*
D03*
X2200936Y2197626D02*
D03*
D90*
X1446370Y2149000D02*
D03*
X1586370Y2149500D02*
D03*
X2142500Y2149000D02*
D03*
X2002500Y2148500D02*
D03*
D91*
X1463012Y2623500D02*
D03*
Y2660000D02*
D03*
Y2569000D02*
D03*
Y2530500D02*
D03*
X2043512Y2632500D02*
D03*
Y2669000D02*
D03*
Y2578000D02*
D03*
Y2539500D02*
D03*
D92*
X1627472Y2575000D02*
D03*
X1487528D02*
D03*
Y2615000D02*
D03*
X1627472D02*
D03*
X1478795Y2361346D02*
D03*
Y2420512D02*
D03*
X2096500Y2309000D02*
D03*
Y2368165D02*
D03*
X2207972Y2584000D02*
D03*
X2068028D02*
D03*
Y2624000D02*
D03*
X2207972D02*
D03*
D93*
X2200936Y2217606D02*
D03*
D94*
X1830000Y2819500D02*
D03*
X1793000D02*
D03*
Y2780500D02*
D03*
X1830000D02*
D03*
D95*
X1406500Y2328402D02*
D03*
Y2288902D02*
D03*
X2135500Y2755000D02*
D03*
Y2788500D02*
D03*
X2147500Y2550000D02*
D03*
Y2516500D02*
D03*
X2046500Y2281500D02*
D03*
X2026500D02*
D03*
X1450000Y2304000D02*
D03*
X1430000D02*
D03*
X1990500Y2716598D02*
D03*
Y2756098D02*
D03*
X2067000Y2320402D02*
D03*
Y2280902D02*
D03*
D96*
X1750110Y2818567D02*
D03*
Y2698567D02*
D03*
X1647610Y2698067D02*
D03*
Y2819067D02*
D03*
X1864390Y2698933D02*
D03*
Y2818933D02*
D03*
X1966890Y2819433D02*
D03*
Y2698433D02*
D03*
D97*
X2062402Y2710500D02*
D03*
X2195902Y2711500D02*
D03*
X1418000Y2740098D02*
D03*
X1419000Y2606598D02*
D03*
X1422000Y2552098D02*
D03*
X1423000Y2418598D02*
D03*
X2185992Y2417980D02*
D03*
X2185000Y2519244D02*
D03*
D98*
X1826000Y2133500D02*
D03*
X1836000D02*
D03*
D99*
X1846000D02*
D03*
D100*
X1525500Y2248000D02*
D03*
Y2384500D02*
D03*
X2191500Y2386000D02*
D03*
Y2249500D02*
D03*
D101*
X2137000Y2257500D02*
D03*
X2144000Y2256500D02*
D03*
X1777500Y2733000D02*
D03*
X1844000Y2736000D02*
D03*
X1850000D02*
D03*
X1794500Y2733500D02*
D03*
X1947000Y2573500D02*
D03*
X1900500Y2580500D02*
D03*
X1938500Y2553500D02*
D03*
X1784000Y2365000D02*
D03*
X1785000Y2394500D02*
D03*
X1668500Y2601500D02*
D03*
X1689000Y2653000D02*
D03*
X1850000Y2472500D02*
D03*
X2063500Y2253500D02*
D03*
Y2259500D02*
D03*
X1950500Y2222500D02*
D03*
X1934000Y2210500D02*
D03*
X1754500Y2246000D02*
D03*
X1895500Y2452000D02*
D03*
X1862000Y2458500D02*
D03*
X1776000Y2421000D02*
D03*
X1839000Y2472000D02*
D03*
X1745000Y2481000D02*
D03*
X1744000Y2522500D02*
D03*
X1786000Y2427500D02*
D03*
X1864500Y2431000D02*
D03*
X1883500Y2432260D02*
D03*
X1891000Y2446500D02*
D03*
X1851000Y2438000D02*
D03*
X1870000Y2369000D02*
D03*
X1904000Y2406500D02*
D03*
X1859000Y2407000D02*
D03*
X1879000Y2360500D02*
D03*
X1846000Y2329500D02*
D03*
X1954000Y2258000D02*
D03*
X1920000Y2368000D02*
D03*
X1881000Y2354500D02*
D03*
X1894000Y2404260D02*
D03*
X1882740D02*
D03*
X1911500Y2363000D02*
D03*
X1882000Y2376500D02*
D03*
X1894740Y2411740D02*
D03*
X1882260Y2346500D02*
D03*
X1902760D02*
D03*
X1775750Y2376500D02*
D03*
X1738000Y2388000D02*
D03*
X1714500Y2389500D02*
D03*
X1709500Y2376000D02*
D03*
X1820500Y2308500D02*
D03*
X1797500Y2342500D02*
D03*
X1779500Y2359000D02*
D03*
X1795000Y2356500D02*
D03*
X1737000Y2423260D02*
D03*
X1701500Y2434500D02*
D03*
X1784000Y2330500D02*
D03*
X1777500Y2324500D02*
D03*
X1747000Y2323000D02*
D03*
X1710240Y2320500D02*
D03*
X1703000Y2295500D02*
D03*
X1790500Y2250500D02*
D03*
X1802000Y2298000D02*
D03*
X1775500Y2345000D02*
D03*
X1776500Y2333500D02*
D03*
X1774260Y2317000D02*
D03*
X1776000Y2308000D02*
D03*
X1821500Y2326500D02*
D03*
Y2318000D02*
D03*
X1729500Y2336500D02*
D03*
X1744000Y2317000D02*
D03*
X1737500Y2352500D02*
D03*
X1732000Y2253000D02*
D03*
X1731000Y2327500D02*
D03*
X1752500Y2335000D02*
D03*
X1776000Y2401500D02*
D03*
X1683000Y2336000D02*
D03*
X1922000Y2537500D02*
D03*
X1675000Y2331000D02*
D03*
X1776500Y2411000D02*
D03*
X1884500Y2518500D02*
D03*
X1915000Y2558500D02*
D03*
X1832953Y2338000D02*
D03*
X1900000Y2317500D02*
D03*
X1822000Y2354000D02*
D03*
X1817000Y2381500D02*
D03*
X1856000D02*
D03*
X1818500Y2405000D02*
D03*
X1945000Y2416500D02*
D03*
X1655000Y2633500D02*
D03*
X1824000Y2713500D02*
D03*
X1834500Y2694000D02*
D03*
X1844847Y2634500D02*
D03*
X1883000Y2241000D02*
D03*
X1863500Y2241500D02*
D03*
X1888000Y2536000D02*
D03*
X1900000Y2554000D02*
D03*
X1800000Y2515000D02*
D03*
X1742500Y2514000D02*
D03*
X1685000Y2416000D02*
D03*
X1696500Y2357000D02*
D03*
X1707000Y2521500D02*
D03*
X1690000Y2431996D02*
D03*
X1709421Y2581740D02*
D03*
X1696000Y2376000D02*
D03*
X1686000Y2365500D02*
D03*
X1918000Y2301000D02*
D03*
X1867500Y2320000D02*
D03*
X1775500Y2703500D02*
D03*
X1771500Y2711000D02*
D03*
X1754000Y2720500D02*
D03*
X1760000D02*
D03*
X1754000Y2726500D02*
D03*
X1773500Y2515000D02*
D03*
X1790500Y2572000D02*
D03*
X1777500Y2549000D02*
D03*
X1848000Y2611500D02*
D03*
X1705000Y2640000D02*
D03*
X1985500Y2571000D02*
D03*
X1766500Y2529500D02*
D03*
X1727000Y2584500D02*
D03*
X1665000Y2766500D02*
D03*
X1606500Y2627000D02*
D03*
X1875500Y2536500D02*
D03*
X1882000Y2539500D02*
D03*
X1850425Y2562760D02*
D03*
X1922500Y2491000D02*
D03*
X1869500Y2551500D02*
D03*
X1881000Y2565000D02*
D03*
X1899000Y2699500D02*
D03*
X1689000Y2557000D02*
D03*
X1957000Y2561000D02*
D03*
X1993500Y2544000D02*
D03*
X1977000Y2564500D02*
D03*
X2115500Y2600000D02*
D03*
X2094500Y2594000D02*
D03*
X1930000Y2322000D02*
D03*
X1933000Y2335500D02*
D03*
X1948500Y2287760D02*
D03*
X1982500Y2353500D02*
D03*
X1941500Y2343000D02*
D03*
X1953000Y2306000D02*
D03*
X1984000Y2380500D02*
D03*
X2104000Y2388500D02*
D03*
X1812500Y2479500D02*
D03*
X1612500Y2439500D02*
D03*
X1790000Y2458500D02*
D03*
X1806000Y2471500D02*
D03*
X2063500Y2265500D02*
D03*
X2069500D02*
D03*
X1456500Y2277000D02*
D03*
Y2259000D02*
D03*
X1450500Y2271000D02*
D03*
Y2277000D02*
D03*
X1759815Y2726500D02*
D03*
X1658000Y2235500D02*
D03*
Y2244500D02*
D03*
X1456500Y2271000D02*
D03*
X1450500Y2265000D02*
D03*
X1456500D02*
D03*
X1451000Y2259000D02*
D03*
X1615500Y2450500D02*
D03*
X1555000Y2757000D02*
D03*
X1544500Y2714000D02*
D03*
X1542500Y2733500D02*
D03*
X1575000Y2696000D02*
D03*
X1705000Y2662000D02*
D03*
X2150000Y2255500D02*
D03*
Y2262000D02*
D03*
X2143000D02*
D03*
X2137000D02*
D03*
Y2269000D02*
D03*
X2143000D02*
D03*
X2150000D02*
D03*
X2069500Y2259500D02*
D03*
Y2247500D02*
D03*
Y2253500D02*
D03*
X2063500Y2247500D02*
D03*
X2096500Y2266000D02*
D03*
X2111000Y2254500D02*
D03*
X1594500Y2731000D02*
D03*
X1639500Y2662500D02*
D03*
X1654500Y2672500D02*
D03*
X1969000Y2473000D02*
D03*
X1973500Y2468500D02*
D03*
X1844000Y2730000D02*
D03*
X1850000D02*
D03*
X1855500Y2736000D02*
D03*
Y2730000D02*
D03*
X1821000Y2723000D02*
D03*
X1913000Y2636000D02*
D03*
X1884500Y2633500D02*
D03*
X1849500Y2667000D02*
D03*
X1732000Y2663000D02*
D03*
X1812500Y2243500D02*
D03*
X1625500Y2510500D02*
D03*
X1608500Y2516000D02*
D03*
X1670000Y2501260D02*
D03*
X1697500Y2478000D02*
D03*
X1597500Y2616500D02*
D03*
X1663000Y2620000D02*
D03*
X1620000Y2602000D02*
D03*
X1677500Y2580760D02*
D03*
X1700500Y2550000D02*
D03*
X1678000Y2450500D02*
D03*
X1684598Y2481902D02*
D03*
X1696000Y2463000D02*
D03*
X1684000Y2518000D02*
D03*
X1701500Y2538000D02*
D03*
X1664000Y2653500D02*
D03*
X1682500Y2657500D02*
D03*
X1935500Y2244000D02*
D03*
D102*
X1488500Y2505500D02*
D03*
X1483500D02*
D03*
X1478500D02*
D03*
X2151500Y2620500D02*
D03*
X2156500D02*
D03*
X2146500D02*
D03*
X2156500Y2631500D02*
D03*
Y2626000D02*
D03*
X2161500D02*
D03*
X2151500Y2631500D02*
D03*
Y2626000D02*
D03*
X2161500Y2620500D02*
D03*
X2156500Y2637000D02*
D03*
X2161500Y2631500D02*
D03*
X2146500Y2626000D02*
D03*
X1452000Y2710500D02*
D03*
X1463500D02*
D03*
X1458000D02*
D03*
X1463000Y2705500D02*
D03*
X1457500D02*
D03*
X1452000D02*
D03*
X1489500Y2684500D02*
D03*
Y2695500D02*
D03*
Y2690000D02*
D03*
X1494500Y2695500D02*
D03*
X1452000Y2701000D02*
D03*
X1457500D02*
D03*
X1463000D02*
D03*
X1468500D02*
D03*
X1474000D02*
D03*
X1479500D02*
D03*
X1452000Y2695500D02*
D03*
X1457500D02*
D03*
X1463000D02*
D03*
X1468500D02*
D03*
X1474000D02*
D03*
X1479500D02*
D03*
X1452000Y2690000D02*
D03*
X1457500D02*
D03*
X1463000D02*
D03*
X1468500D02*
D03*
X1474000D02*
D03*
X1479500D02*
D03*
X1452000Y2684500D02*
D03*
X1457500D02*
D03*
X1463000D02*
D03*
X1468500D02*
D03*
X1474000D02*
D03*
X1479500D02*
D03*
X1484500Y2701000D02*
D03*
Y2695500D02*
D03*
Y2690000D02*
D03*
Y2684500D02*
D03*
X1464000Y2501000D02*
D03*
Y2496000D02*
D03*
Y2491000D02*
D03*
Y2486000D02*
D03*
Y2481000D02*
D03*
Y2476000D02*
D03*
Y2471000D02*
D03*
Y2466000D02*
D03*
Y2461000D02*
D03*
Y2506000D02*
D03*
X1488500Y2501000D02*
D03*
Y2496000D02*
D03*
Y2491000D02*
D03*
Y2486000D02*
D03*
Y2481000D02*
D03*
Y2476000D02*
D03*
Y2471000D02*
D03*
Y2466000D02*
D03*
Y2461000D02*
D03*
X1483500Y2501000D02*
D03*
Y2496000D02*
D03*
Y2491000D02*
D03*
Y2486000D02*
D03*
Y2481000D02*
D03*
Y2476000D02*
D03*
Y2471000D02*
D03*
Y2466000D02*
D03*
Y2461000D02*
D03*
X1478500Y2501000D02*
D03*
Y2496000D02*
D03*
Y2491000D02*
D03*
Y2486000D02*
D03*
Y2481000D02*
D03*
Y2476000D02*
D03*
Y2471000D02*
D03*
Y2466000D02*
D03*
Y2461000D02*
D03*
X1473500Y2501000D02*
D03*
Y2496000D02*
D03*
Y2491000D02*
D03*
Y2486000D02*
D03*
Y2481000D02*
D03*
Y2476000D02*
D03*
Y2471000D02*
D03*
Y2466000D02*
D03*
Y2461000D02*
D03*
X1468500Y2506000D02*
D03*
Y2461000D02*
D03*
Y2466000D02*
D03*
Y2471000D02*
D03*
Y2476000D02*
D03*
Y2481000D02*
D03*
Y2486000D02*
D03*
Y2491000D02*
D03*
Y2496000D02*
D03*
Y2501000D02*
D03*
X1473500Y2506000D02*
D03*
X2114500Y2443000D02*
D03*
X2119500D02*
D03*
X2109500D02*
D03*
X2104500Y2438000D02*
D03*
Y2433000D02*
D03*
Y2428000D02*
D03*
Y2423000D02*
D03*
Y2418000D02*
D03*
Y2413000D02*
D03*
Y2408000D02*
D03*
Y2403000D02*
D03*
Y2398000D02*
D03*
Y2443000D02*
D03*
X2109500Y2398000D02*
D03*
Y2403000D02*
D03*
Y2408000D02*
D03*
Y2413000D02*
D03*
Y2418000D02*
D03*
Y2423000D02*
D03*
Y2428000D02*
D03*
Y2433000D02*
D03*
Y2438000D02*
D03*
X2114500Y2398000D02*
D03*
Y2403000D02*
D03*
Y2408000D02*
D03*
Y2413000D02*
D03*
Y2418000D02*
D03*
Y2423000D02*
D03*
Y2428000D02*
D03*
Y2433000D02*
D03*
Y2438000D02*
D03*
X2119500Y2398000D02*
D03*
Y2403000D02*
D03*
Y2408000D02*
D03*
Y2413000D02*
D03*
Y2418000D02*
D03*
Y2423000D02*
D03*
Y2428000D02*
D03*
Y2433000D02*
D03*
Y2438000D02*
D03*
X2124500Y2398000D02*
D03*
Y2403000D02*
D03*
Y2408000D02*
D03*
Y2413000D02*
D03*
Y2418000D02*
D03*
Y2423000D02*
D03*
Y2428000D02*
D03*
Y2433000D02*
D03*
Y2438000D02*
D03*
Y2443000D02*
D03*
X2100000D02*
D03*
Y2398000D02*
D03*
Y2403000D02*
D03*
Y2408000D02*
D03*
Y2413000D02*
D03*
Y2418000D02*
D03*
Y2423000D02*
D03*
Y2428000D02*
D03*
Y2433000D02*
D03*
Y2438000D02*
D03*
X2141000Y2620500D02*
D03*
X2135500D02*
D03*
X2130000D02*
D03*
X2124500D02*
D03*
X2119000D02*
D03*
X2141000Y2626000D02*
D03*
X2135500D02*
D03*
X2130000D02*
D03*
X2124500D02*
D03*
X2119000D02*
D03*
X2146500Y2631500D02*
D03*
X2141000D02*
D03*
X2135500D02*
D03*
X2130000D02*
D03*
X2124500D02*
D03*
X2119000D02*
D03*
X2146500Y2637000D02*
D03*
X2141000D02*
D03*
X2135500D02*
D03*
X2130000D02*
D03*
X2124500D02*
D03*
X2119000D02*
D03*
X2146500Y2642500D02*
D03*
X2141000D02*
D03*
X2135500D02*
D03*
X2130000D02*
D03*
X2124500D02*
D03*
X2119000D02*
D03*
X2146500Y2648000D02*
D03*
X2141000D02*
D03*
X2135500D02*
D03*
X2130000D02*
D03*
X2124500D02*
D03*
X2119000D02*
D03*
X2151500D02*
D03*
Y2642500D02*
D03*
Y2637000D02*
D03*
X2156500Y2648000D02*
D03*
Y2642500D02*
D03*
X2119000Y2652500D02*
D03*
X2124500D02*
D03*
X2130000D02*
D03*
X2135500D02*
D03*
X2141000D02*
D03*
X2146500D02*
D03*
X2161500Y2637000D02*
D03*
Y2642500D02*
D03*
Y2648000D02*
D03*
X1468500Y2710500D02*
D03*
Y2705500D02*
D03*
X1474000Y2710500D02*
D03*
Y2705500D02*
D03*
X1479500Y2710500D02*
D03*
X1484500Y2705500D02*
D03*
X1479500D02*
D03*
X1494500Y2684500D02*
D03*
Y2690000D02*
D03*
D103*
X1545500Y2482000D02*
D03*
X1547500Y2482500D02*
D03*
X1549500D02*
D03*
X1545500Y2480000D02*
D03*
X1547500Y2479000D02*
D03*
X1549500D02*
D03*
X1919878Y2614500D02*
D03*
X1915378Y2617000D02*
D03*
X1585000Y2447000D02*
D03*
Y2450000D02*
D03*
X1589500Y2445500D02*
D03*
X1588000Y2447000D02*
D03*
X1586500Y2445500D02*
D03*
X1585000Y2453000D02*
D03*
X1591000Y2447000D02*
D03*
X1589500Y2448500D02*
D03*
X1592500Y2445500D02*
D03*
X1588000Y2450000D02*
D03*
X1586500Y2448500D02*
D03*
X1585000Y2456000D02*
D03*
X1591000Y2450000D02*
D03*
X1589500Y2451500D02*
D03*
X1592500Y2448500D02*
D03*
X1588000Y2453000D02*
D03*
X1586500Y2451500D02*
D03*
X1591000Y2453000D02*
D03*
X1589500Y2454500D02*
D03*
X1592500Y2451500D02*
D03*
X1588000Y2456000D02*
D03*
X1586500Y2454500D02*
D03*
X1583300Y2411300D02*
D03*
X1583400Y2413100D02*
D03*
X1583100Y2407400D02*
D03*
Y2409600D02*
D03*
X1584000Y2415000D02*
D03*
X1523000Y2712000D02*
D03*
X1558000Y2447000D02*
D03*
X1556000D02*
D03*
X1554000D02*
D03*
X1560000Y2449000D02*
D03*
Y2451000D02*
D03*
Y2453000D02*
D03*
Y2455000D02*
D03*
Y2457000D02*
D03*
X1558000Y2449000D02*
D03*
Y2451000D02*
D03*
Y2453000D02*
D03*
Y2455000D02*
D03*
Y2457000D02*
D03*
X1556000Y2449000D02*
D03*
Y2451000D02*
D03*
Y2453000D02*
D03*
Y2455000D02*
D03*
Y2457000D02*
D03*
X1554000Y2449000D02*
D03*
Y2451000D02*
D03*
Y2453000D02*
D03*
Y2455000D02*
D03*
Y2457000D02*
D03*
Y2461000D02*
D03*
Y2459000D02*
D03*
X1556000D02*
D03*
X1558000D02*
D03*
X1556000Y2461000D02*
D03*
X1926878Y2636500D02*
D03*
X1935878Y2637000D02*
D03*
X1933378Y2644000D02*
D03*
Y2640000D02*
D03*
Y2634000D02*
D03*
X1930878Y2632000D02*
D03*
X1928378Y2634000D02*
D03*
X1930378Y2637221D02*
D03*
X1928378Y2640000D02*
D03*
X1930378Y2642000D02*
D03*
X1928378Y2644000D02*
D03*
X1571633Y2738912D02*
D03*
X1569633Y2736912D02*
D03*
X1569412Y2731912D02*
D03*
Y2727912D02*
D03*
X1566912Y2729912D02*
D03*
X1564912Y2727912D02*
D03*
X1562912Y2729912D02*
D03*
X1564912Y2731912D02*
D03*
X1562912Y2734412D02*
D03*
X1566912Y2738912D02*
D03*
Y2734912D02*
D03*
X1564912Y2736912D02*
D03*
X1562912Y2738912D02*
D03*
X1591500Y2464500D02*
D03*
X1599000Y2472000D02*
D03*
X1590000Y2466000D02*
D03*
X1581000Y2415000D02*
D03*
X1578000D02*
D03*
X1575000D02*
D03*
X1576500Y2413500D02*
D03*
X1575000Y2412000D02*
D03*
X1576500Y2410500D02*
D03*
X1575000Y2409000D02*
D03*
X1576500Y2407500D02*
D03*
X1591000Y2456000D02*
D03*
X1592500Y2454500D02*
D03*
X1997500D02*
D03*
Y2451500D02*
D03*
Y2448500D02*
D03*
X1996000Y2447000D02*
D03*
Y2450000D02*
D03*
Y2453000D02*
D03*
X1994500Y2454500D02*
D03*
Y2451500D02*
D03*
Y2448500D02*
D03*
X1993000Y2447000D02*
D03*
Y2450000D02*
D03*
Y2453000D02*
D03*
X1991500Y2454500D02*
D03*
Y2451500D02*
D03*
Y2448500D02*
D03*
X1990000Y2447000D02*
D03*
Y2450000D02*
D03*
Y2453000D02*
D03*
X1988500Y2454500D02*
D03*
Y2451500D02*
D03*
Y2448500D02*
D03*
X1987000Y2447000D02*
D03*
Y2450000D02*
D03*
Y2453000D02*
D03*
X1985500Y2454500D02*
D03*
Y2451500D02*
D03*
Y2448500D02*
D03*
X2001000Y2462500D02*
D03*
X1998000D02*
D03*
X1999500Y2464000D02*
D03*
X2001000Y2465500D02*
D03*
X2002500Y2467000D02*
D03*
X2001000Y2468500D02*
D03*
X1995000D02*
D03*
X1996500Y2470000D02*
D03*
X2002500D02*
D03*
X2001000Y2471500D02*
D03*
X1998000D02*
D03*
X1995000D02*
D03*
X1996500Y2473000D02*
D03*
X1999500D02*
D03*
X2002500D02*
D03*
X2001000Y2474500D02*
D03*
X1998000D02*
D03*
X1995000D02*
D03*
X1985500Y2484500D02*
D03*
X1988500D02*
D03*
X1991500D02*
D03*
X1994500D02*
D03*
X1993000Y2483000D02*
D03*
X1990000D02*
D03*
X1987000D02*
D03*
X1994500Y2487500D02*
D03*
X1993000Y2486000D02*
D03*
X1990000D02*
D03*
X1987000D02*
D03*
X1993000Y2489000D02*
D03*
X1994500Y2490500D02*
D03*
X1991500D02*
D03*
X1574412Y2748912D02*
D03*
X1576912D02*
D03*
X1579412D02*
D03*
X1581912D02*
D03*
X1584412D02*
D03*
X1586912D02*
D03*
X1589412D02*
D03*
Y2750912D02*
D03*
X1586912D02*
D03*
X1584412D02*
D03*
X1581912D02*
D03*
X1579412D02*
D03*
X1576912D02*
D03*
X1574412D02*
D03*
X1589412Y2753412D02*
D03*
X1586912D02*
D03*
X1584412D02*
D03*
X1581912D02*
D03*
X1579412D02*
D03*
X1576912D02*
D03*
X1574412D02*
D03*
X1589412Y2755912D02*
D03*
X1586912D02*
D03*
X1584412D02*
D03*
X1581912D02*
D03*
X1579412D02*
D03*
X1576912D02*
D03*
X1574412D02*
D03*
X1589412Y2758412D02*
D03*
X1586912D02*
D03*
X1584412D02*
D03*
X1581912D02*
D03*
X1579412D02*
D03*
X1576912D02*
D03*
X1574412D02*
D03*
X1589412Y2760912D02*
D03*
X1586912D02*
D03*
X1584412D02*
D03*
X1581912D02*
D03*
X1579412D02*
D03*
X1576912D02*
D03*
X1574412D02*
D03*
X1915378Y2614500D02*
D03*
X1922378Y2619500D02*
D03*
Y2617000D02*
D03*
Y2614500D02*
D03*
X1919878Y2619500D02*
D03*
Y2617000D02*
D03*
X1917378D02*
D03*
Y2614500D02*
D03*
X2040209Y2480697D02*
D03*
Y2478197D02*
D03*
Y2475697D02*
D03*
Y2473197D02*
D03*
Y2470697D02*
D03*
Y2468197D02*
D03*
X2057709Y2493197D02*
D03*
Y2490697D02*
D03*
Y2488197D02*
D03*
Y2485697D02*
D03*
Y2483197D02*
D03*
Y2480697D02*
D03*
Y2478197D02*
D03*
Y2475697D02*
D03*
Y2473197D02*
D03*
Y2470697D02*
D03*
Y2468197D02*
D03*
X2055209Y2493197D02*
D03*
Y2490697D02*
D03*
Y2488197D02*
D03*
Y2485697D02*
D03*
Y2483197D02*
D03*
Y2480697D02*
D03*
Y2478197D02*
D03*
Y2475697D02*
D03*
Y2473197D02*
D03*
Y2470697D02*
D03*
Y2468197D02*
D03*
X2052709Y2493197D02*
D03*
Y2490697D02*
D03*
Y2488197D02*
D03*
Y2485697D02*
D03*
Y2483197D02*
D03*
Y2480697D02*
D03*
Y2478197D02*
D03*
Y2475697D02*
D03*
Y2473197D02*
D03*
Y2470697D02*
D03*
Y2468197D02*
D03*
X2050209Y2493197D02*
D03*
Y2490697D02*
D03*
Y2488197D02*
D03*
Y2485697D02*
D03*
Y2483197D02*
D03*
Y2480697D02*
D03*
Y2478197D02*
D03*
Y2475697D02*
D03*
Y2473197D02*
D03*
Y2470697D02*
D03*
Y2468197D02*
D03*
X2047709Y2493197D02*
D03*
Y2490697D02*
D03*
Y2488197D02*
D03*
Y2485697D02*
D03*
Y2483197D02*
D03*
Y2480697D02*
D03*
Y2478197D02*
D03*
Y2475697D02*
D03*
Y2473197D02*
D03*
Y2470697D02*
D03*
Y2468197D02*
D03*
X2045209Y2493197D02*
D03*
Y2490697D02*
D03*
Y2488197D02*
D03*
Y2485697D02*
D03*
Y2483197D02*
D03*
Y2480697D02*
D03*
Y2478197D02*
D03*
Y2475697D02*
D03*
Y2473197D02*
D03*
Y2470697D02*
D03*
Y2468197D02*
D03*
X2042709Y2480697D02*
D03*
Y2478197D02*
D03*
Y2475697D02*
D03*
Y2473197D02*
D03*
Y2470697D02*
D03*
Y2468197D02*
D03*
X1972709Y2600500D02*
D03*
Y2598000D02*
D03*
Y2595500D02*
D03*
Y2593000D02*
D03*
Y2590500D02*
D03*
Y2588000D02*
D03*
X1990209Y2613000D02*
D03*
Y2610500D02*
D03*
Y2608000D02*
D03*
Y2605500D02*
D03*
Y2603000D02*
D03*
Y2600500D02*
D03*
Y2598000D02*
D03*
Y2595500D02*
D03*
Y2593000D02*
D03*
Y2590500D02*
D03*
Y2588000D02*
D03*
X1987709Y2613000D02*
D03*
Y2610500D02*
D03*
Y2608000D02*
D03*
Y2605500D02*
D03*
Y2603000D02*
D03*
Y2600500D02*
D03*
Y2598000D02*
D03*
Y2595500D02*
D03*
Y2593000D02*
D03*
Y2590500D02*
D03*
Y2588000D02*
D03*
X1985209Y2613000D02*
D03*
Y2610500D02*
D03*
Y2608000D02*
D03*
Y2605500D02*
D03*
Y2603000D02*
D03*
Y2600500D02*
D03*
Y2598000D02*
D03*
Y2595500D02*
D03*
Y2593000D02*
D03*
Y2590500D02*
D03*
Y2588000D02*
D03*
X1982709Y2613000D02*
D03*
Y2610500D02*
D03*
Y2608000D02*
D03*
Y2605500D02*
D03*
Y2603000D02*
D03*
Y2600500D02*
D03*
Y2598000D02*
D03*
Y2595500D02*
D03*
Y2593000D02*
D03*
Y2590500D02*
D03*
Y2588000D02*
D03*
X1980209Y2613000D02*
D03*
Y2610500D02*
D03*
Y2608000D02*
D03*
Y2605500D02*
D03*
Y2603000D02*
D03*
Y2600500D02*
D03*
Y2598000D02*
D03*
Y2595500D02*
D03*
Y2593000D02*
D03*
Y2590500D02*
D03*
Y2588000D02*
D03*
X1977709Y2608000D02*
D03*
Y2605500D02*
D03*
Y2603000D02*
D03*
Y2600500D02*
D03*
Y2598000D02*
D03*
Y2595500D02*
D03*
Y2593000D02*
D03*
Y2590500D02*
D03*
Y2588000D02*
D03*
X1975209Y2600500D02*
D03*
Y2598000D02*
D03*
Y2595500D02*
D03*
Y2593000D02*
D03*
Y2590500D02*
D03*
Y2588000D02*
D03*
X1972709Y2649500D02*
D03*
Y2647000D02*
D03*
Y2644500D02*
D03*
Y2642000D02*
D03*
Y2639500D02*
D03*
Y2637000D02*
D03*
X1990209Y2662000D02*
D03*
Y2659500D02*
D03*
Y2657000D02*
D03*
Y2654500D02*
D03*
Y2652000D02*
D03*
Y2649500D02*
D03*
Y2647000D02*
D03*
Y2644500D02*
D03*
Y2642000D02*
D03*
Y2639500D02*
D03*
Y2637000D02*
D03*
X1987709Y2662000D02*
D03*
Y2659500D02*
D03*
Y2657000D02*
D03*
Y2654500D02*
D03*
Y2652000D02*
D03*
Y2649500D02*
D03*
Y2647000D02*
D03*
Y2644500D02*
D03*
Y2642000D02*
D03*
Y2639500D02*
D03*
Y2637000D02*
D03*
X1985209Y2662000D02*
D03*
Y2659500D02*
D03*
Y2657000D02*
D03*
Y2654500D02*
D03*
Y2652000D02*
D03*
Y2649500D02*
D03*
Y2647000D02*
D03*
Y2644500D02*
D03*
Y2642000D02*
D03*
Y2639500D02*
D03*
Y2637000D02*
D03*
X1982709Y2662000D02*
D03*
Y2659500D02*
D03*
Y2657000D02*
D03*
Y2654500D02*
D03*
Y2652000D02*
D03*
Y2649500D02*
D03*
Y2647000D02*
D03*
Y2644500D02*
D03*
Y2642000D02*
D03*
Y2639500D02*
D03*
Y2637000D02*
D03*
X1980209Y2662000D02*
D03*
Y2659500D02*
D03*
Y2657000D02*
D03*
Y2654500D02*
D03*
Y2652000D02*
D03*
Y2649500D02*
D03*
Y2647000D02*
D03*
Y2644500D02*
D03*
Y2642000D02*
D03*
Y2639500D02*
D03*
Y2637000D02*
D03*
X1977709Y2662000D02*
D03*
Y2659500D02*
D03*
Y2657000D02*
D03*
Y2654500D02*
D03*
Y2652000D02*
D03*
Y2649500D02*
D03*
Y2647000D02*
D03*
Y2644500D02*
D03*
Y2642000D02*
D03*
Y2639500D02*
D03*
Y2637000D02*
D03*
X1975209Y2649500D02*
D03*
Y2647000D02*
D03*
Y2644500D02*
D03*
Y2642000D02*
D03*
Y2639500D02*
D03*
Y2637000D02*
D03*
X1524291Y2771303D02*
D03*
Y2773803D02*
D03*
Y2776303D02*
D03*
Y2778803D02*
D03*
Y2781303D02*
D03*
Y2783803D02*
D03*
X1506791Y2758803D02*
D03*
Y2761303D02*
D03*
Y2763803D02*
D03*
Y2766303D02*
D03*
Y2768803D02*
D03*
Y2771303D02*
D03*
Y2773803D02*
D03*
Y2776303D02*
D03*
Y2778803D02*
D03*
Y2781303D02*
D03*
Y2783803D02*
D03*
X1509291Y2758803D02*
D03*
Y2761303D02*
D03*
Y2763803D02*
D03*
Y2766303D02*
D03*
Y2768803D02*
D03*
Y2771303D02*
D03*
Y2773803D02*
D03*
Y2776303D02*
D03*
Y2778803D02*
D03*
Y2781303D02*
D03*
Y2783803D02*
D03*
X1511791Y2758803D02*
D03*
Y2761303D02*
D03*
Y2763803D02*
D03*
Y2766303D02*
D03*
Y2768803D02*
D03*
Y2771303D02*
D03*
Y2773803D02*
D03*
Y2776303D02*
D03*
Y2778803D02*
D03*
Y2781303D02*
D03*
Y2783803D02*
D03*
X1514291Y2758803D02*
D03*
Y2761303D02*
D03*
Y2763803D02*
D03*
Y2766303D02*
D03*
Y2768803D02*
D03*
Y2771303D02*
D03*
Y2773803D02*
D03*
Y2776303D02*
D03*
Y2778803D02*
D03*
Y2781303D02*
D03*
Y2783803D02*
D03*
X1516791Y2758803D02*
D03*
Y2761303D02*
D03*
Y2763803D02*
D03*
Y2766303D02*
D03*
Y2768803D02*
D03*
Y2771303D02*
D03*
Y2773803D02*
D03*
Y2776303D02*
D03*
Y2778803D02*
D03*
Y2781303D02*
D03*
Y2783803D02*
D03*
X1519291Y2758803D02*
D03*
Y2761303D02*
D03*
Y2763803D02*
D03*
Y2766303D02*
D03*
Y2768803D02*
D03*
Y2771303D02*
D03*
Y2773803D02*
D03*
Y2776303D02*
D03*
Y2778803D02*
D03*
Y2781303D02*
D03*
Y2783803D02*
D03*
X1521791Y2771303D02*
D03*
Y2773803D02*
D03*
Y2776303D02*
D03*
Y2778803D02*
D03*
Y2781303D02*
D03*
Y2783803D02*
D03*
X1547402Y2439303D02*
D03*
Y2441803D02*
D03*
Y2444303D02*
D03*
Y2446803D02*
D03*
Y2449303D02*
D03*
Y2451803D02*
D03*
X1529902Y2426803D02*
D03*
Y2429303D02*
D03*
Y2431803D02*
D03*
Y2434303D02*
D03*
Y2436803D02*
D03*
Y2439303D02*
D03*
Y2441803D02*
D03*
Y2444303D02*
D03*
Y2446803D02*
D03*
Y2449303D02*
D03*
Y2451803D02*
D03*
X1532402Y2426803D02*
D03*
Y2429303D02*
D03*
Y2431803D02*
D03*
Y2434303D02*
D03*
Y2436803D02*
D03*
Y2439303D02*
D03*
Y2441803D02*
D03*
Y2444303D02*
D03*
Y2446803D02*
D03*
Y2449303D02*
D03*
Y2451803D02*
D03*
X1534902Y2426803D02*
D03*
Y2429303D02*
D03*
Y2431803D02*
D03*
Y2434303D02*
D03*
Y2436803D02*
D03*
Y2439303D02*
D03*
Y2441803D02*
D03*
Y2444303D02*
D03*
Y2446803D02*
D03*
Y2449303D02*
D03*
Y2451803D02*
D03*
X1537402Y2426803D02*
D03*
Y2429303D02*
D03*
Y2431803D02*
D03*
Y2434303D02*
D03*
Y2436803D02*
D03*
Y2439303D02*
D03*
Y2441803D02*
D03*
Y2444303D02*
D03*
Y2446803D02*
D03*
Y2449303D02*
D03*
Y2451803D02*
D03*
X1539902Y2426803D02*
D03*
Y2429303D02*
D03*
Y2431803D02*
D03*
Y2434303D02*
D03*
Y2436803D02*
D03*
Y2439303D02*
D03*
Y2441803D02*
D03*
Y2444303D02*
D03*
Y2446803D02*
D03*
Y2449303D02*
D03*
Y2451803D02*
D03*
X1542402Y2426803D02*
D03*
Y2429303D02*
D03*
Y2431803D02*
D03*
Y2434303D02*
D03*
Y2436803D02*
D03*
Y2439303D02*
D03*
Y2441803D02*
D03*
Y2444303D02*
D03*
Y2446803D02*
D03*
Y2449303D02*
D03*
Y2451803D02*
D03*
X1544902Y2439303D02*
D03*
Y2441803D02*
D03*
Y2444303D02*
D03*
Y2446803D02*
D03*
Y2449303D02*
D03*
Y2451803D02*
D03*
X1547402Y2486591D02*
D03*
Y2489091D02*
D03*
Y2491591D02*
D03*
Y2494091D02*
D03*
Y2496591D02*
D03*
Y2499091D02*
D03*
X1529902Y2474091D02*
D03*
Y2476591D02*
D03*
Y2479091D02*
D03*
Y2481591D02*
D03*
Y2484091D02*
D03*
Y2486591D02*
D03*
Y2489091D02*
D03*
Y2491591D02*
D03*
Y2494091D02*
D03*
Y2496591D02*
D03*
Y2499091D02*
D03*
X1532402Y2474091D02*
D03*
Y2476591D02*
D03*
Y2479091D02*
D03*
Y2481591D02*
D03*
Y2484091D02*
D03*
Y2486591D02*
D03*
Y2489091D02*
D03*
Y2491591D02*
D03*
Y2494091D02*
D03*
Y2496591D02*
D03*
Y2499091D02*
D03*
X1534902Y2474091D02*
D03*
Y2476591D02*
D03*
Y2479091D02*
D03*
Y2481591D02*
D03*
Y2484091D02*
D03*
Y2486591D02*
D03*
Y2489091D02*
D03*
Y2491591D02*
D03*
Y2494091D02*
D03*
Y2496591D02*
D03*
Y2499091D02*
D03*
X1537402Y2474091D02*
D03*
Y2476591D02*
D03*
Y2479091D02*
D03*
Y2481591D02*
D03*
Y2484091D02*
D03*
Y2486591D02*
D03*
Y2489091D02*
D03*
Y2491591D02*
D03*
Y2494091D02*
D03*
Y2496591D02*
D03*
Y2499091D02*
D03*
X1539902Y2474091D02*
D03*
Y2476591D02*
D03*
Y2479091D02*
D03*
Y2481591D02*
D03*
Y2484091D02*
D03*
Y2486591D02*
D03*
Y2489091D02*
D03*
Y2491591D02*
D03*
Y2494091D02*
D03*
Y2496591D02*
D03*
Y2499091D02*
D03*
X1542402Y2474091D02*
D03*
Y2476591D02*
D03*
Y2479091D02*
D03*
Y2481591D02*
D03*
Y2484091D02*
D03*
Y2486591D02*
D03*
Y2489091D02*
D03*
Y2491591D02*
D03*
Y2494091D02*
D03*
Y2496591D02*
D03*
Y2499091D02*
D03*
X1544902Y2486591D02*
D03*
Y2489091D02*
D03*
Y2491591D02*
D03*
Y2494091D02*
D03*
Y2496591D02*
D03*
Y2499091D02*
D03*
X1579500Y2412000D02*
D03*
X1579000Y2409500D02*
D03*
X1593000Y2466000D02*
D03*
X1594500Y2464500D02*
D03*
X1596000Y2466000D02*
D03*
X1597500Y2464500D02*
D03*
X1600000D02*
D03*
X1590000Y2469000D02*
D03*
X1591500Y2467500D02*
D03*
X1590000Y2472000D02*
D03*
X1594500Y2467500D02*
D03*
X1591500Y2473500D02*
D03*
Y2470500D02*
D03*
X1593000Y2469000D02*
D03*
X1601500Y2468000D02*
D03*
X1548500Y2435500D02*
D03*
X1545000Y2434000D02*
D03*
Y2432000D02*
D03*
X1547000D02*
D03*
X1548500D02*
D03*
X1550000D02*
D03*
X1546000Y2435500D02*
D03*
X1550500D02*
D03*
X1551500Y2479000D02*
D03*
Y2482500D02*
D03*
X1581200Y2409500D02*
D03*
X1581400Y2411300D02*
D03*
X1579000Y2407600D02*
D03*
X1581100Y2407400D02*
D03*
X1581400Y2413200D02*
D03*
X1596200Y2472800D02*
D03*
X1525500Y2712000D02*
D03*
X1528000D02*
D03*
X1526000Y2767500D02*
D03*
X1524000D02*
D03*
X1522000D02*
D03*
Y2765500D02*
D03*
X1523500Y2764000D02*
D03*
X1525500D02*
D03*
X1528000D02*
D03*
Y2767500D02*
D03*
X1531500Y2744500D02*
D03*
Y2742000D02*
D03*
Y2739500D02*
D03*
Y2737000D02*
D03*
Y2734500D02*
D03*
Y2732000D02*
D03*
X1534000Y2744500D02*
D03*
Y2742000D02*
D03*
Y2739500D02*
D03*
Y2737000D02*
D03*
Y2734500D02*
D03*
Y2732000D02*
D03*
X1536500Y2744500D02*
D03*
Y2742000D02*
D03*
Y2739500D02*
D03*
Y2737000D02*
D03*
Y2734500D02*
D03*
Y2732000D02*
D03*
X2042000Y2437500D02*
D03*
X2040000D02*
D03*
X2038000D02*
D03*
X2036000D02*
D03*
Y2440500D02*
D03*
X2038000D02*
D03*
X2040000D02*
D03*
X2042000Y2439500D02*
D03*
X2036000Y2488000D02*
D03*
Y2484500D02*
D03*
X2038000D02*
D03*
X2040000D02*
D03*
X2042000D02*
D03*
X2038000Y2488000D02*
D03*
X2040000D02*
D03*
X2042000D02*
D03*
X2029500Y2474000D02*
D03*
X2031500Y2472000D02*
D03*
X2029500D02*
D03*
X2027500D02*
D03*
Y2470000D02*
D03*
Y2468000D02*
D03*
Y2466000D02*
D03*
Y2464000D02*
D03*
X2029500Y2470000D02*
D03*
Y2468000D02*
D03*
Y2466000D02*
D03*
Y2464000D02*
D03*
Y2462000D02*
D03*
X2031500Y2470000D02*
D03*
Y2468000D02*
D03*
Y2466000D02*
D03*
Y2464000D02*
D03*
Y2462000D02*
D03*
X2033500Y2470000D02*
D03*
Y2468000D02*
D03*
Y2466000D02*
D03*
Y2464000D02*
D03*
Y2462000D02*
D03*
X2029500Y2460000D02*
D03*
X2031500D02*
D03*
X2033500Y2472000D02*
D03*
X2031500Y2474000D02*
D03*
X1999500Y2470000D02*
D03*
X1997500Y2468500D02*
D03*
X1999500Y2467000D02*
D03*
X1998000Y2465500D02*
D03*
X1996500Y2464000D02*
D03*
X2002500D02*
D03*
X1995000Y2462500D02*
D03*
X2003500D02*
D03*
X1996500Y2467000D02*
D03*
X1995000Y2465500D02*
D03*
X1985500Y2490500D02*
D03*
X1988500D02*
D03*
X1990000Y2488500D02*
D03*
X1522500Y2714000D02*
D03*
X1978000Y2610500D02*
D03*
Y2613000D02*
D03*
X1968000Y2607500D02*
D03*
X1970500D02*
D03*
X1972500D02*
D03*
X1968000Y2604500D02*
D03*
X1970500Y2605000D02*
D03*
X1972500D02*
D03*
X1974500D02*
D03*
Y2607500D02*
D03*
X1964500Y2604000D02*
D03*
Y2607500D02*
D03*
X1961500Y2604000D02*
D03*
Y2607500D02*
D03*
X1967500Y2656500D02*
D03*
X1969500D02*
D03*
X1971500D02*
D03*
X1973500D02*
D03*
X1967500Y2652000D02*
D03*
X1969000Y2653000D02*
D03*
X1971000Y2653500D02*
D03*
X1973500D02*
D03*
X1975000Y2655000D02*
D03*
X2040209Y2433500D02*
D03*
Y2431000D02*
D03*
Y2428500D02*
D03*
Y2426000D02*
D03*
Y2423500D02*
D03*
Y2421000D02*
D03*
X2057709Y2446000D02*
D03*
Y2443500D02*
D03*
Y2441000D02*
D03*
Y2438500D02*
D03*
Y2436000D02*
D03*
Y2433500D02*
D03*
Y2431000D02*
D03*
Y2428500D02*
D03*
Y2426000D02*
D03*
Y2423500D02*
D03*
Y2421000D02*
D03*
X2055209Y2446000D02*
D03*
Y2443500D02*
D03*
Y2441000D02*
D03*
Y2438500D02*
D03*
Y2436000D02*
D03*
Y2433500D02*
D03*
Y2431000D02*
D03*
Y2428500D02*
D03*
Y2426000D02*
D03*
Y2423500D02*
D03*
Y2421000D02*
D03*
X2052709Y2446000D02*
D03*
Y2443500D02*
D03*
Y2441000D02*
D03*
Y2438500D02*
D03*
Y2436000D02*
D03*
Y2433500D02*
D03*
Y2431000D02*
D03*
Y2428500D02*
D03*
Y2426000D02*
D03*
Y2423500D02*
D03*
Y2421000D02*
D03*
X2050209Y2446000D02*
D03*
Y2443500D02*
D03*
Y2441000D02*
D03*
Y2438500D02*
D03*
Y2436000D02*
D03*
Y2433500D02*
D03*
Y2431000D02*
D03*
Y2428500D02*
D03*
Y2426000D02*
D03*
Y2423500D02*
D03*
Y2421000D02*
D03*
X2047709Y2446000D02*
D03*
Y2443500D02*
D03*
Y2441000D02*
D03*
Y2438500D02*
D03*
Y2436000D02*
D03*
Y2433500D02*
D03*
Y2431000D02*
D03*
Y2428500D02*
D03*
Y2426000D02*
D03*
Y2423500D02*
D03*
Y2421000D02*
D03*
X2045209Y2446000D02*
D03*
Y2433500D02*
D03*
Y2431000D02*
D03*
Y2428500D02*
D03*
Y2426000D02*
D03*
Y2423500D02*
D03*
Y2421000D02*
D03*
X2042709Y2433500D02*
D03*
Y2431000D02*
D03*
Y2428500D02*
D03*
Y2426000D02*
D03*
Y2423500D02*
D03*
Y2421000D02*
D03*
X2045209Y2443500D02*
D03*
Y2438500D02*
D03*
Y2436000D02*
D03*
Y2441000D02*
D03*
X1966500Y2632000D02*
D03*
X1964000D02*
D03*
X1961500D02*
D03*
X1959000D02*
D03*
X1964000Y2627000D02*
D03*
X1966500Y2634500D02*
D03*
X1964000D02*
D03*
X1961500D02*
D03*
X1959000D02*
D03*
X1966500Y2627000D02*
D03*
Y2637000D02*
D03*
X1964000D02*
D03*
X1961500D02*
D03*
X1959000D02*
D03*
X1966500Y2629500D02*
D03*
Y2639500D02*
D03*
X1964000D02*
D03*
X1961500D02*
D03*
X1959000D02*
D03*
X1964000Y2629500D02*
D03*
X1966500Y2642000D02*
D03*
X1961500D02*
D03*
X1966500Y2644500D02*
D03*
X1961500Y2629500D02*
D03*
X1964000Y2642000D02*
D03*
X1524402Y2719303D02*
D03*
Y2721803D02*
D03*
Y2724303D02*
D03*
Y2726803D02*
D03*
Y2729303D02*
D03*
Y2731803D02*
D03*
X1506902Y2706803D02*
D03*
Y2709303D02*
D03*
Y2711803D02*
D03*
Y2714303D02*
D03*
Y2716803D02*
D03*
Y2719303D02*
D03*
Y2721803D02*
D03*
Y2724303D02*
D03*
Y2726803D02*
D03*
Y2729303D02*
D03*
Y2731803D02*
D03*
X1509402Y2706803D02*
D03*
Y2709303D02*
D03*
Y2711803D02*
D03*
Y2714303D02*
D03*
Y2716803D02*
D03*
Y2719303D02*
D03*
Y2721803D02*
D03*
Y2724303D02*
D03*
Y2726803D02*
D03*
Y2729303D02*
D03*
Y2731803D02*
D03*
X1511902Y2706803D02*
D03*
Y2709303D02*
D03*
Y2711803D02*
D03*
Y2714303D02*
D03*
Y2716803D02*
D03*
Y2719303D02*
D03*
Y2721803D02*
D03*
Y2724303D02*
D03*
Y2726803D02*
D03*
Y2729303D02*
D03*
Y2731803D02*
D03*
X1514402Y2706803D02*
D03*
Y2709303D02*
D03*
Y2711803D02*
D03*
Y2714303D02*
D03*
Y2716803D02*
D03*
Y2719303D02*
D03*
Y2721803D02*
D03*
Y2724303D02*
D03*
Y2726803D02*
D03*
Y2729303D02*
D03*
Y2731803D02*
D03*
X1516902Y2706803D02*
D03*
Y2709303D02*
D03*
Y2711803D02*
D03*
Y2714303D02*
D03*
Y2716803D02*
D03*
Y2719303D02*
D03*
Y2721803D02*
D03*
Y2724303D02*
D03*
Y2726803D02*
D03*
Y2729303D02*
D03*
Y2731803D02*
D03*
X1519402Y2706803D02*
D03*
Y2709303D02*
D03*
Y2711803D02*
D03*
Y2714303D02*
D03*
Y2716803D02*
D03*
Y2719303D02*
D03*
Y2721803D02*
D03*
Y2724303D02*
D03*
Y2726803D02*
D03*
Y2729303D02*
D03*
Y2731803D02*
D03*
X1521902Y2719303D02*
D03*
Y2721803D02*
D03*
Y2724303D02*
D03*
Y2726803D02*
D03*
Y2729303D02*
D03*
Y2731803D02*
D03*
X1524500Y2715000D02*
D03*
X1526500D02*
D03*
X1528500D02*
D03*
D104*
X1569000Y2452000D02*
D03*
X1946378Y2663500D02*
D03*
X1948378Y2637500D02*
D03*
X1567500Y2429000D02*
D03*
X2017500Y2490500D02*
D03*
X2017000Y2468000D02*
D03*
X1609000Y2450500D02*
D03*
X1588500Y2729000D02*
D03*
X1576500Y2469500D02*
D03*
X1911000Y2641000D02*
D03*
D105*
X1629500Y2441500D02*
D03*
X1626500D02*
D03*
X1623500D02*
D03*
X1629000Y2436000D02*
D03*
X1626000D02*
D03*
X1622500D02*
D03*
X1631000Y2439000D02*
D03*
X1628000D02*
D03*
X1625000D02*
D03*
X1622000D02*
D03*
X1945000Y2481500D02*
D03*
X1940000D02*
D03*
X1947500Y2474000D02*
D03*
X1940000Y2476500D02*
D03*
X1945000Y2471500D02*
D03*
X1940000D02*
D03*
X1942500Y2479000D02*
D03*
Y2474000D02*
D03*
X1947500Y2479000D02*
D03*
X1950000Y2481500D02*
D03*
Y2476500D02*
D03*
Y2471500D02*
D03*
X1945000Y2476500D02*
D03*
D106*
X1651165Y2512331D02*
D03*
Y2508000D02*
D03*
X1654606Y2595331D02*
D03*
X1658937D02*
D03*
X1654606Y2591000D02*
D03*
X1658937D02*
D03*
X1654606Y2586669D02*
D03*
X1658937D02*
D03*
X2006665Y2553169D02*
D03*
X2002335D02*
D03*
X2006665Y2557500D02*
D03*
X2002335D02*
D03*
X2006665Y2561831D02*
D03*
X2002335D02*
D03*
X1968331Y2369937D02*
D03*
Y2365606D02*
D03*
X1964000Y2369937D02*
D03*
Y2365606D02*
D03*
X1959669Y2369937D02*
D03*
Y2365606D02*
D03*
X1646835Y2512331D02*
D03*
Y2508000D02*
D03*
Y2503669D02*
D03*
X1651165D02*
D03*
M02*
