%FSLAX25Y25*%
%MOIN*%
%SFA1B1*%

%IPPOS*%
%ADD19C,0.010000*%
%ADD48C,0.007870*%
%ADD49C,0.003940*%
%ADD50C,0.049370*%
%ADD51C,0.008000*%
%ADD52C,0.039370*%
%ADD53R,0.064960X0.021650*%
%LNcombined-1*%
%LPD*%
G54D19*
X192500Y575500D02*
X195000D01*
Y578000*
Y575500D02*
Y578000D01*
X182500Y588000D02*
X195000Y575500D01*
X182500Y588000D02*
Y613000D01*
X591500Y580000D02*
X594000D01*
X591500D02*
X594000D01*
X591500D02*
Y582000D01*
Y580000D02*
Y582000D01*
Y580000D02*
X604000Y592500D01*
Y617500*
X457000Y498500D02*
X458500D01*
Y500000*
Y498500D02*
Y500000D01*
X455500Y501500D02*
X458500Y498500D01*
X270500Y503500D02*
X272500D01*
X270500Y502000D02*
Y503500D01*
Y502000D02*
Y503500D01*
X272500Y501500*
X275500*
X438000D02*
X455500D01*
X275500D02*
X300500D01*
X585000Y505000D02*
Y859500D01*
X198000Y505000D02*
Y859000D01*
X100500Y505000D02*
X712000D01*
X100500Y497500D02*
X712000D01*
X179502Y616000D02*
X182834D01*
X184500Y617666*
X182834Y619332*
X179502*
X182001Y620998D02*
Y624331D01*
X184500Y630995D02*
Y633494D01*
X183667Y634327*
X182834Y633494*
Y631828*
X182001Y630995*
X181168Y631828*
Y634327*
Y639326D02*
Y636827D01*
X182001Y635993*
X183667*
X184500Y636827*
Y639326*
Y641825D02*
Y643491D01*
X183667Y644324*
X182001*
X181168Y643491*
Y641825*
X182001Y640992*
X183667*
X184500Y641825*
X181168Y645990D02*
X184500D01*
X182834*
X182001Y646823*
X181168Y647656*
Y648490*
X184500Y650989D02*
Y652655D01*
Y651822*
X181168*
Y650989*
X184500Y655154D02*
X181168D01*
Y657653*
X182001Y658486*
X184500*
X186166Y661819D02*
Y662652D01*
X185333Y663485*
X181168*
Y660985*
X182001Y660152*
X183667*
X184500Y660985*
Y663485*
X181168Y670982D02*
Y672648D01*
X182001Y673481*
X184500*
Y670982*
X183667Y670149*
X182834Y670982*
Y673481*
X184500Y675147D02*
Y676814D01*
Y675981*
X179502*
Y675147*
X184500Y680146D02*
Y681812D01*
X183667Y682645*
X182001*
X181168Y681812*
Y680146*
X182001Y679313*
X183667*
X184500Y680146*
Y684311D02*
X181168D01*
Y686810*
X182001Y687643*
X184500*
X186166Y690976D02*
Y691809D01*
X185333Y692642*
X181168*
Y690143*
X182001Y689310*
X183667*
X184500Y690143*
Y692642*
X180335Y700139D02*
X181168D01*
Y699306*
Y700973*
Y700139*
X183667*
X184500Y700973*
X179502Y703472D02*
X184500D01*
X182001*
X181168Y704305*
Y705971*
X182001Y706804*
X184500*
Y708470D02*
Y710136D01*
Y709303*
X181168*
Y708470*
X184500Y712635D02*
Y715135D01*
X183667Y715968*
X182834Y715135*
Y713468*
X182001Y712635*
X181168Y713468*
Y715968*
X184500Y722632D02*
Y724298D01*
Y723465*
X179502*
Y722632*
X184500Y726797D02*
Y728464D01*
Y727631*
X181168*
Y726797*
X184500Y730963D02*
X181168D01*
Y733462*
X182001Y734295*
X184500*
Y738460D02*
Y736794D01*
X183667Y735961*
X182001*
X181168Y736794*
Y738460*
X182001Y739293*
X182834*
Y735961*
X184500Y740960D02*
Y743459D01*
X183667Y744292*
X182834Y743459*
Y741793*
X182001Y740960*
X181168Y741793*
Y744292*
X601002Y620500D02*
X604334D01*
X606000Y622166*
X604334Y623832*
X601002*
X603501Y625498D02*
Y628831D01*
X606000Y635495D02*
Y637994D01*
X605167Y638827*
X604334Y637994*
Y636328*
X603501Y635495*
X602668Y636328*
Y638827*
Y643826D02*
Y641327D01*
X603501Y640493*
X605167*
X606000Y641327*
Y643826*
Y646325D02*
Y647991D01*
X605167Y648824*
X603501*
X602668Y647991*
Y646325*
X603501Y645492*
X605167*
X606000Y646325*
X602668Y650490D02*
X606000D01*
X604334*
X603501Y651323*
X602668Y652156*
Y652989*
X606000Y655489D02*
Y657155D01*
Y656322*
X602668*
Y655489*
X606000Y659654D02*
X602668D01*
Y662153*
X603501Y662986*
X606000*
X607666Y666319D02*
Y667152D01*
X606833Y667985*
X602668*
Y665485*
X603501Y664652*
X605167*
X606000Y665485*
Y667985*
X602668Y675482D02*
Y677148D01*
X603501Y677981*
X606000*
Y675482*
X605167Y674649*
X604334Y675482*
Y677981*
X606000Y679647D02*
Y681314D01*
Y680481*
X601002*
Y679647*
X606000Y684646D02*
Y686312D01*
X605167Y687145*
X603501*
X602668Y686312*
Y684646*
X603501Y683813*
X605167*
X606000Y684646*
Y688811D02*
X602668D01*
Y691310*
X603501Y692143*
X606000*
X607666Y695476D02*
Y696309D01*
X606833Y697142*
X602668*
Y694643*
X603501Y693810*
X605167*
X606000Y694643*
Y697142*
X601835Y704639D02*
X602668D01*
Y703806*
Y705473*
Y704639*
X605167*
X606000Y705473*
X601002Y707972D02*
X606000D01*
X603501*
X602668Y708805*
Y710471*
X603501Y711304*
X606000*
Y712970D02*
Y714636D01*
Y713803*
X602668*
Y712970*
X606000Y717135D02*
Y719635D01*
X605167Y720468*
X604334Y719635*
Y717968*
X603501Y717135*
X602668Y717968*
Y720468*
X606000Y727132D02*
Y728798D01*
Y727965*
X601002*
Y727132*
X606000Y731297D02*
Y732964D01*
Y732130*
X602668*
Y731297*
X606000Y735463D02*
X602668D01*
Y737962*
X603501Y738795*
X606000*
Y742960D02*
Y741294D01*
X605167Y740461*
X603501*
X602668Y741294*
Y742960*
X603501Y743793*
X604334*
Y740461*
X606000Y745460D02*
Y747959D01*
X605167Y748792*
X604334Y747959*
Y746293*
X603501Y745460*
X602668Y746293*
Y748792*
X303500Y504498D02*
Y501166D01*
X305166Y499500*
X306832Y501166*
Y504498*
X308498Y501999D02*
X311831D01*
X318495Y499500D02*
X320994D01*
X321827Y500333*
X320994Y501166*
X319328*
X318495Y501999*
X319328Y502832*
X321827*
X326826D02*
X324327D01*
X323494Y501999*
Y500333*
X324327Y499500*
X326826*
X329325D02*
X330991D01*
X331824Y500333*
Y501999*
X330991Y502832*
X329325*
X328492Y501999*
Y500333*
X329325Y499500*
X333490Y502832D02*
Y499500D01*
Y501166*
X334323Y501999*
X335156Y502832*
X335989*
X338489Y499500D02*
X340155D01*
X339322*
Y502832*
X338489*
X342654Y499500D02*
Y502832D01*
X345153*
X345986Y501999*
Y499500*
X349319Y497834D02*
X350151D01*
X350985Y498667*
Y502832*
X348485*
X347652Y501999*
Y500333*
X348485Y499500*
X350985*
X358482Y502832D02*
X360148D01*
X360981Y501999*
Y499500*
X358482*
X357649Y500333*
X358482Y501166*
X360981*
X362648Y499500D02*
X364314D01*
X363481*
Y504498*
X362648*
X367646Y499500D02*
X369312D01*
X370145Y500333*
Y501999*
X369312Y502832*
X367646*
X366813Y501999*
Y500333*
X367646Y499500*
X371811D02*
Y502832D01*
X374310*
X375144Y501999*
Y499500*
X378476Y497834D02*
X379309D01*
X380142Y498667*
Y502832*
X377643*
X376810Y501999*
Y500333*
X377643Y499500*
X380142*
X387639Y503665D02*
Y502832D01*
X386806*
X388473*
X387639*
Y500333*
X388473Y499500*
X390972Y504498D02*
Y499500D01*
Y501999*
X391805Y502832*
X393471*
X394304Y501999*
Y499500*
X398469D02*
X396803D01*
X395970Y500333*
Y501999*
X396803Y502832*
X398469*
X399302Y501999*
Y501166*
X395970*
X400968Y499500D02*
X403468D01*
X404301Y500333*
X403468Y501166*
X401801*
X400968Y501999*
X401801Y502832*
X404301*
X408466Y499500D02*
X406800D01*
X405967Y500333*
Y501999*
X406800Y502832*
X408466*
X409299Y501999*
Y501166*
X405967*
X415964Y499500D02*
X417630D01*
X416797*
Y504498*
X415964*
X420129Y499500D02*
X421795D01*
X420962*
Y502832*
X420129*
X424294Y499500D02*
Y502832D01*
X426793*
X427627Y501999*
Y499500*
X431792D02*
X430126D01*
X429293Y500333*
Y501999*
X430126Y502832*
X431792*
X432625Y501999*
Y501166*
X429293*
X434291Y499500D02*
X436790D01*
X437623Y500333*
X436790Y501166*
X435124*
X434291Y501999*
X435124Y502832*
X437623*
X514500Y725000D02*
D01*
X514465Y724998*
X514430Y724995*
X514396Y724989*
X514362Y724980*
X514328Y724969*
X514296Y724956*
X514265Y724941*
X514235Y724924*
X514206Y724904*
X514178Y724883*
X514152Y724859*
X514128Y724834*
X514105Y724807*
X514085Y724779*
X514066Y724750*
X514050Y724719*
X514036Y724687*
X514024Y724654*
X514014Y724620*
X514007Y724586*
X514002Y724552*
X514000Y724517*
Y724482*
X514002Y724447*
X514007Y724413*
X514014Y724379*
X514024Y724345*
X514036Y724312*
X514050Y724280*
X514066Y724250*
X514085Y724220*
X514105Y724192*
X514128Y724165*
X514152Y724140*
X514178Y724116*
X514206Y724095*
X514235Y724075*
X514265Y724058*
X514296Y724043*
X514328Y724030*
X514362Y724019*
X514396Y724010*
X514430Y724004*
X514465Y724001*
X514500Y724000*
X514534Y724001*
X514569Y724004*
X514603Y724010*
X514637Y724019*
X514671Y724030*
X514703Y724043*
X514734Y724058*
X514764Y724075*
X514793Y724095*
X514821Y724116*
X514847Y724140*
X514871Y724165*
X514894Y724192*
X514914Y724220*
X514933Y724250*
X514949Y724280*
X514963Y724312*
X514975Y724345*
X514985Y724379*
X514992Y724413*
X514997Y724447*
X514999Y724482*
Y724517*
X514997Y724552*
X514992Y724586*
X514985Y724620*
X514975Y724654*
X514963Y724687*
X514949Y724719*
X514933Y724750*
X514914Y724779*
X514894Y724807*
X514871Y724834*
X514847Y724859*
X514821Y724883*
X514793Y724904*
X514764Y724924*
X514734Y724941*
X514703Y724956*
X514671Y724969*
X514637Y724980*
X514603Y724989*
X514569Y724995*
X514534Y724998*
X514500Y725000*
X438500Y833590D02*
D01*
X438110Y833576*
X437722Y833535*
X437337Y833467*
X436959Y833373*
X436588Y833252*
X436226Y833106*
X435875Y832935*
X435537Y832740*
X435214Y832522*
X434906Y832282*
X434616Y832021*
X434345Y831740*
X434095Y831441*
X433865Y831125*
X433658Y830795*
X433475Y830450*
X433317Y830094*
X433183Y829727*
X433076Y829352*
X432994Y828970*
X432940Y828584*
X432913Y828195*
Y827804*
X432940Y827415*
X432994Y827029*
X433076Y826647*
X433183Y826272*
X433317Y825905*
X433475Y825549*
X433658Y825205*
X433865Y824874*
X434095Y824558*
X434345Y824259*
X434616Y823978*
X434906Y823717*
X435214Y823477*
X435537Y823259*
X435875Y823064*
X436226Y822893*
X436588Y822747*
X436959Y822626*
X437337Y822532*
X437722Y822464*
X438110Y822423*
X438500Y822410*
X438889Y822423*
X439277Y822464*
X439662Y822532*
X440040Y822626*
X440411Y822747*
X440773Y822893*
X441124Y823064*
X441462Y823259*
X441785Y823477*
X442093Y823717*
X442383Y823978*
X442654Y824259*
X442904Y824558*
X443134Y824874*
X443341Y825205*
X443524Y825549*
X443682Y825905*
X443816Y826272*
X443923Y826647*
X444005Y827029*
X444059Y827415*
X444086Y827804*
Y828195*
X444059Y828584*
X444005Y828970*
X443923Y829352*
X443816Y829727*
X443682Y830094*
X443524Y830450*
X443341Y830795*
X443134Y831125*
X442904Y831441*
X442654Y831740*
X442383Y832021*
X442093Y832282*
X441785Y832522*
X441462Y832740*
X441124Y832935*
X440773Y833106*
X440411Y833252*
X440040Y833373*
X439662Y833467*
X439277Y833535*
X438889Y833576*
X438500Y833590*
X464000Y833090D02*
D01*
X463610Y833076*
X463222Y833035*
X462837Y832967*
X462459Y832873*
X462088Y832752*
X461726Y832606*
X461375Y832435*
X461037Y832240*
X460714Y832022*
X460406Y831782*
X460116Y831521*
X459845Y831240*
X459595Y830941*
X459365Y830625*
X459158Y830295*
X458975Y829950*
X458817Y829594*
X458683Y829227*
X458576Y828852*
X458494Y828470*
X458440Y828084*
X458413Y827695*
Y827304*
X458440Y826915*
X458494Y826529*
X458576Y826147*
X458683Y825772*
X458817Y825405*
X458975Y825049*
X459158Y824705*
X459365Y824374*
X459595Y824058*
X459845Y823759*
X460116Y823478*
X460406Y823217*
X460714Y822977*
X461037Y822759*
X461375Y822564*
X461726Y822393*
X462088Y822247*
X462459Y822126*
X462837Y822032*
X463222Y821964*
X463610Y821923*
X464000Y821910*
X464389Y821923*
X464777Y821964*
X465162Y822032*
X465540Y822126*
X465911Y822247*
X466273Y822393*
X466624Y822564*
X466962Y822759*
X467285Y822977*
X467593Y823217*
X467883Y823478*
X468154Y823759*
X468404Y824058*
X468634Y824374*
X468841Y824705*
X469024Y825049*
X469182Y825405*
X469316Y825772*
X469423Y826147*
X469505Y826529*
X469559Y826915*
X469586Y827304*
Y827695*
X469559Y828084*
X469505Y828470*
X469423Y828852*
X469316Y829227*
X469182Y829594*
X469024Y829950*
X468841Y830295*
X468634Y830625*
X468404Y830941*
X468154Y831240*
X467883Y831521*
X467593Y831782*
X467285Y832022*
X466962Y832240*
X466624Y832435*
X466273Y832606*
X465911Y832752*
X465540Y832873*
X465162Y832967*
X464777Y833035*
X464389Y833076*
X464000Y833090*
X490000Y832590D02*
D01*
X489610Y832576*
X489222Y832535*
X488837Y832467*
X488459Y832373*
X488088Y832252*
X487726Y832106*
X487375Y831935*
X487037Y831740*
X486714Y831522*
X486406Y831282*
X486116Y831021*
X485845Y830740*
X485595Y830441*
X485365Y830125*
X485158Y829795*
X484975Y829450*
X484817Y829094*
X484683Y828727*
X484576Y828352*
X484494Y827970*
X484440Y827584*
X484413Y827195*
Y826804*
X484440Y826415*
X484494Y826029*
X484576Y825647*
X484683Y825272*
X484817Y824905*
X484975Y824549*
X485158Y824205*
X485365Y823874*
X485595Y823558*
X485845Y823259*
X486116Y822978*
X486406Y822717*
X486714Y822477*
X487037Y822259*
X487375Y822064*
X487726Y821893*
X488088Y821747*
X488459Y821626*
X488837Y821532*
X489222Y821464*
X489610Y821423*
X490000Y821410*
X490389Y821423*
X490777Y821464*
X491162Y821532*
X491540Y821626*
X491911Y821747*
X492273Y821893*
X492624Y822064*
X492962Y822259*
X493285Y822477*
X493593Y822717*
X493883Y822978*
X494154Y823259*
X494404Y823558*
X494634Y823874*
X494841Y824205*
X495024Y824549*
X495182Y824905*
X495316Y825272*
X495423Y825647*
X495505Y826029*
X495559Y826415*
X495586Y826804*
Y827195*
X495559Y827584*
X495505Y827970*
X495423Y828352*
X495316Y828727*
X495182Y829094*
X495024Y829450*
X494841Y829795*
X494634Y830125*
X494404Y830441*
X494154Y830740*
X493883Y831021*
X493593Y831282*
X493285Y831522*
X492962Y831740*
X492624Y831935*
X492273Y832106*
X491911Y832252*
X491540Y832373*
X491162Y832467*
X490777Y832535*
X490389Y832576*
X490000Y832590*
X530500Y727000D02*
X506500D01*
X530500Y726000D02*
Y727000D01*
X506500Y726000D02*
Y727000D01*
X530500Y714000D02*
Y715000D01*
Y714000D02*
X506500D01*
Y715000*
X496701Y716499D02*
X496201Y716000D01*
Y715000*
X496701Y714500*
X498700*
X499200Y715000*
Y716000*
X498700Y716499*
X497201Y717499D02*
X499200D01*
X498200*
X497701Y717999*
X497201Y718499*
Y718999*
X499200Y722497D02*
Y720498D01*
X497201Y722497*
X496701*
X496201Y721998*
Y720998*
X496701Y720498*
X505601Y701599D02*
X505101Y701099D01*
Y700100*
X505601Y699600*
X507600*
X508100Y700100*
Y701099*
X507600Y701599*
X508100Y702599D02*
X505101D01*
Y704099*
X505601Y704598*
X506601*
X507100Y704099*
Y702599*
Y703599D02*
X508100Y704598D01*
Y705598D02*
Y706598D01*
Y706098*
X505101*
X505601Y705598*
X499801Y752299D02*
X499301Y751799D01*
Y750800*
X499801Y750300*
X501800*
X502300Y750800*
Y751799*
X501800Y752299*
X500801*
Y751300*
X500301Y753799D02*
Y754799D01*
X500801Y755298*
X502300*
Y753799*
X501800Y753299*
X501300Y753799*
Y755298*
X499801Y756798D02*
X500301D01*
Y756298*
Y757298*
Y756798*
X501800*
X502300Y757298*
Y760297D02*
Y759297D01*
X501800Y758797*
X500801*
X500301Y759297*
Y760297*
X500801Y760797*
X501300*
Y758797*
X502800Y761796D02*
Y763796D01*
X499301Y764795D02*
X502300D01*
Y766295*
X501800Y766795*
X499801*
X499301Y766295*
Y764795*
X500301Y767794D02*
X502300D01*
X501300*
X500801Y768294*
X500301Y768794*
Y769294*
X502300Y770793D02*
Y771793D01*
Y771293*
X500301*
Y770793*
Y773293D02*
X502300Y774292D01*
X500301Y775292*
X502300Y777791D02*
Y776791D01*
X501800Y776292*
X500801*
X500301Y776791*
Y777791*
X500801Y778291*
X501300*
Y776292*
X500301Y779291D02*
X502300D01*
X501300*
X500801Y779790*
X500301Y780290*
Y780790*
X502300Y782290D02*
Y783289D01*
Y782790*
X499301*
X499801Y782290*
X296802Y789300D02*
X301800D01*
X302800Y790300*
Y792299*
X301800Y793299*
X296802*
X302800Y799297D02*
Y795298D01*
X298801Y799297*
X297802*
X296802Y798297*
Y796298*
X297802Y795298*
X424001Y524502D02*
Y530500D01*
X427000*
X428000Y529500*
Y527501*
X427000Y526501*
X424001*
X418003D02*
X421002D01*
X422002Y527501*
Y529500*
X421002Y530500*
X418003*
X415004D02*
Y525502D01*
Y527501*
X416004*
X414005*
X415004*
Y525502*
X414005Y524502*
X411005Y526501D02*
Y529500D01*
X410006Y530500*
X407007*
Y526501*
X405007Y530500D02*
X402008D01*
X401009Y529500*
X402008Y528501*
X404008*
X405007Y527501*
X404008Y526501*
X401009*
X396010Y530500D02*
X398010D01*
X399009Y529500*
Y527501*
X398010Y526501*
X396010*
X395011Y527501*
Y528501*
X399009*
X393011Y530500D02*
X391012D01*
X392012*
Y524502*
X393011Y525502*
X474952Y821950D02*
Y825949D01*
Y823949*
X480950*
Y827948D02*
Y829947D01*
Y828948*
X474952*
X475952Y827948*
X448952Y822450D02*
Y826449D01*
Y824449*
X454950*
Y832447D02*
Y828448D01*
X450951Y832447*
X449952*
X448952Y831447*
Y829448*
X449952Y828448*
X423452Y822950D02*
Y826949D01*
Y824949*
X429450*
X424452Y828948D02*
X423452Y829948D01*
Y831947*
X424452Y832947*
X425451*
X426451Y831947*
Y830947*
Y831947*
X427451Y832947*
X428450*
X429450Y831947*
Y829948*
X428450Y828948*
X552600Y794700D02*
X546602D01*
Y797699*
X547602Y798699*
X549601*
X550601Y797699*
Y794700*
X552600Y800698D02*
Y802697D01*
Y801698*
X546602*
X547602Y800698*
X511802Y605300D02*
X516800D01*
X517800Y606300*
Y608299*
X516800Y609299*
X511802*
X517800Y611298D02*
Y613297D01*
Y612298*
X511802*
X512802Y611298*
X488502Y545999D02*
X494500D01*
Y543000*
X493500Y542000*
X491501*
X490501Y543000*
Y545999*
Y551997D02*
Y548998D01*
X491501Y547998*
X493500*
X494500Y548998*
Y551997*
X490501Y553996D02*
X494500D01*
X492501*
X491501Y554996*
X490501Y555996*
Y556995*
X494500Y562993D02*
Y560994D01*
X493500Y559994*
X491501*
X490501Y560994*
Y562993*
X491501Y563993*
X492501*
Y559994*
X494500Y565992D02*
Y567992D01*
Y566992*
X488502*
Y565992*
X490501Y571990D02*
Y573990D01*
X491501Y574989*
X494500*
Y571990*
X493500Y570991*
X492501Y571990*
Y574989*
X490501Y576989D02*
X493500D01*
X494500Y577988*
Y580987*
X495500*
X496499Y579988*
Y578988*
X494500Y580987D02*
X490501D01*
X494500Y582987D02*
Y584986D01*
Y583986*
X488502*
X489502Y582987*
X566502Y671500D02*
X572500D01*
Y674499*
X571500Y675499*
X567502*
X566502Y674499*
Y671500*
X572500Y680497D02*
Y678498D01*
X571500Y677498*
X569501*
X568501Y678498*
Y680497*
X569501Y681497*
X570501*
Y677498*
X572500Y683496D02*
Y686495D01*
X571500Y687495*
X570501Y686495*
Y684496*
X569501Y683496*
X568501Y684496*
Y687495*
X572500Y689494D02*
Y691494D01*
Y690494*
X568501*
Y689494*
X574499Y696492D02*
Y697492D01*
X573500Y698491*
X568501*
Y695492*
X569501Y694493*
X571500*
X572500Y695492*
Y698491*
Y700491D02*
X568501D01*
Y703490*
X569501Y704489*
X572500*
Y709488D02*
Y707488D01*
X571500Y706489*
X569501*
X568501Y707488*
Y709488*
X569501Y710487*
X570501*
Y706489*
X566502Y716486D02*
X572500D01*
Y713486*
X571500Y712487*
X569501*
X568501Y713486*
Y716486*
X566502Y724483D02*
X572500D01*
Y727482*
X571500Y728482*
X570501*
X569501*
X568501Y727482*
Y724483*
Y730481D02*
X571500D01*
X572500Y731481*
Y734480*
X573500*
X574499Y733480*
Y732480*
X572500Y734480D02*
X568501D01*
X566502Y742477D02*
X572500D01*
Y745476*
X571500Y746476*
X567502*
X566502Y745476*
Y742477*
X572500Y751474D02*
Y749475D01*
X571500Y748475*
X569501*
X568501Y749475*
Y751474*
X569501Y752474*
X570501*
Y748475*
X566502Y754473D02*
X572500D01*
Y757472*
X571500Y758472*
X570501*
X569501*
X568501Y757472*
Y754473*
Y761471D02*
Y763470D01*
X569501Y764470*
X572500*
Y761471*
X571500Y760471*
X570501Y761471*
Y764470*
X572500Y766469D02*
X568501D01*
Y769468*
X569501Y770468*
X572500*
X574499Y772467D02*
Y773467D01*
X573500Y774467*
X568501*
Y779465D02*
Y781464D01*
X569501Y782464*
X572500*
Y779465*
X571500Y778465*
X570501Y779465*
Y782464*
X572500Y784464D02*
X568501D01*
Y787463*
X569501Y788462*
X572500*
X675500Y314500D02*
D01*
X675498Y314534*
X675495Y314569*
X675489Y314603*
X675480Y314637*
X675469Y314671*
X675456Y314703*
X675441Y314734*
X675424Y314764*
X675404Y314793*
X675383Y314821*
X675359Y314847*
X675334Y314871*
X675307Y314894*
X675279Y314914*
X675250Y314933*
X675219Y314949*
X675187Y314963*
X675154Y314975*
X675120Y314985*
X675086Y314992*
X675052Y314997*
X675017Y314999*
X674982*
X674947Y314997*
X674913Y314992*
X674879Y314985*
X674845Y314975*
X674812Y314963*
X674780Y314949*
X674750Y314933*
X674720Y314914*
X674692Y314894*
X674665Y314871*
X674640Y314847*
X674616Y314821*
X674595Y314793*
X674575Y314764*
X674558Y314734*
X674543Y314703*
X674530Y314671*
X674519Y314637*
X674510Y314603*
X674504Y314569*
X674501Y314534*
X674500Y314500*
X674501Y314465*
X674504Y314430*
X674510Y314396*
X674519Y314362*
X674530Y314328*
X674543Y314296*
X674558Y314265*
X674575Y314235*
X674595Y314206*
X674616Y314178*
X674640Y314152*
X674665Y314128*
X674692Y314105*
X674720Y314085*
X674750Y314066*
X674780Y314050*
X674812Y314036*
X674845Y314024*
X674879Y314014*
X674913Y314007*
X674947Y314002*
X674982Y314000*
X675017*
X675052Y314002*
X675086Y314007*
X675120Y314014*
X675154Y314024*
X675187Y314036*
X675219Y314050*
X675250Y314066*
X675279Y314085*
X675307Y314105*
X675334Y314128*
X675359Y314152*
X675383Y314178*
X675404Y314206*
X675424Y314235*
X675441Y314265*
X675456Y314296*
X675469Y314328*
X675480Y314362*
X675489Y314396*
X675495Y314430*
X675498Y314465*
X675500Y314500*
X706590Y457500D02*
D01*
X706576Y457889*
X706535Y458277*
X706467Y458662*
X706373Y459040*
X706252Y459411*
X706106Y459773*
X705935Y460124*
X705740Y460462*
X705522Y460785*
X705282Y461093*
X705021Y461383*
X704740Y461654*
X704441Y461904*
X704125Y462134*
X703795Y462341*
X703450Y462524*
X703094Y462682*
X702727Y462816*
X702352Y462923*
X701970Y463005*
X701584Y463059*
X701195Y463086*
X700804*
X700415Y463059*
X700029Y463005*
X699647Y462923*
X699272Y462816*
X698905Y462682*
X698549Y462524*
X698205Y462341*
X697874Y462134*
X697558Y461904*
X697259Y461654*
X696978Y461383*
X696717Y461093*
X696477Y460785*
X696259Y460462*
X696064Y460124*
X695893Y459773*
X695747Y459411*
X695626Y459040*
X695532Y458662*
X695464Y458277*
X695423Y457889*
X695410Y457500*
X695423Y457110*
X695464Y456722*
X695532Y456337*
X695626Y455959*
X695747Y455588*
X695893Y455226*
X696064Y454875*
X696259Y454537*
X696477Y454214*
X696717Y453906*
X696978Y453616*
X697259Y453345*
X697558Y453095*
X697874Y452865*
X698205Y452658*
X698549Y452475*
X698905Y452317*
X699272Y452183*
X699647Y452076*
X700029Y451994*
X700415Y451940*
X700804Y451913*
X701195*
X701584Y451940*
X701970Y451994*
X702352Y452076*
X702727Y452183*
X703094Y452317*
X703450Y452475*
X703795Y452658*
X704125Y452865*
X704441Y453095*
X704740Y453345*
X705021Y453616*
X705282Y453906*
X705522Y454214*
X705740Y454537*
X705935Y454875*
X706106Y455226*
X706252Y455588*
X706373Y455959*
X706467Y456337*
X706535Y456722*
X706576Y457110*
X706590Y457500*
X707590Y437500D02*
D01*
X707576Y437889*
X707535Y438277*
X707467Y438662*
X707373Y439040*
X707252Y439411*
X707106Y439773*
X706935Y440124*
X706740Y440462*
X706522Y440785*
X706282Y441093*
X706021Y441383*
X705740Y441654*
X705441Y441904*
X705125Y442134*
X704795Y442341*
X704450Y442524*
X704094Y442682*
X703727Y442816*
X703352Y442923*
X702970Y443005*
X702584Y443059*
X702195Y443086*
X701804*
X701415Y443059*
X701029Y443005*
X700647Y442923*
X700272Y442816*
X699905Y442682*
X699549Y442524*
X699205Y442341*
X698874Y442134*
X698558Y441904*
X698259Y441654*
X697978Y441383*
X697717Y441093*
X697477Y440785*
X697259Y440462*
X697064Y440124*
X696893Y439773*
X696747Y439411*
X696626Y439040*
X696532Y438662*
X696464Y438277*
X696423Y437889*
X696410Y437500*
X696423Y437110*
X696464Y436722*
X696532Y436337*
X696626Y435959*
X696747Y435588*
X696893Y435226*
X697064Y434875*
X697259Y434537*
X697477Y434214*
X697717Y433906*
X697978Y433616*
X698259Y433345*
X698558Y433095*
X698874Y432865*
X699205Y432658*
X699549Y432475*
X699905Y432317*
X700272Y432183*
X700647Y432076*
X701029Y431994*
X701415Y431940*
X701804Y431913*
X702195*
X702584Y431940*
X702970Y431994*
X703352Y432076*
X703727Y432183*
X704094Y432317*
X704450Y432475*
X704795Y432658*
X705125Y432865*
X705441Y433095*
X705740Y433345*
X706021Y433616*
X706282Y433906*
X706522Y434214*
X706740Y434537*
X706935Y434875*
X707106Y435226*
X707252Y435588*
X707373Y435959*
X707467Y436337*
X707535Y436722*
X707576Y437110*
X707590Y437500*
X708090Y413000D02*
D01*
X708076Y413389*
X708035Y413777*
X707967Y414162*
X707873Y414540*
X707752Y414911*
X707606Y415273*
X707435Y415624*
X707240Y415962*
X707022Y416285*
X706782Y416593*
X706521Y416883*
X706240Y417154*
X705941Y417404*
X705625Y417634*
X705295Y417841*
X704950Y418024*
X704594Y418182*
X704227Y418316*
X703852Y418423*
X703470Y418505*
X703084Y418559*
X702695Y418586*
X702304*
X701915Y418559*
X701529Y418505*
X701147Y418423*
X700772Y418316*
X700405Y418182*
X700049Y418024*
X699705Y417841*
X699374Y417634*
X699058Y417404*
X698759Y417154*
X698478Y416883*
X698217Y416593*
X697977Y416285*
X697759Y415962*
X697564Y415624*
X697393Y415273*
X697247Y414911*
X697126Y414540*
X697032Y414162*
X696964Y413777*
X696923Y413389*
X696910Y413000*
X696923Y412610*
X696964Y412222*
X697032Y411837*
X697126Y411459*
X697247Y411088*
X697393Y410726*
X697564Y410375*
X697759Y410037*
X697977Y409714*
X698217Y409406*
X698478Y409116*
X698759Y408845*
X699058Y408595*
X699374Y408365*
X699705Y408158*
X700049Y407975*
X700405Y407817*
X700772Y407683*
X701147Y407576*
X701529Y407494*
X701915Y407440*
X702304Y407413*
X702695*
X703084Y407440*
X703470Y407494*
X703852Y407576*
X704227Y407683*
X704594Y407817*
X704950Y407975*
X705295Y408158*
X705625Y408365*
X705941Y408595*
X706240Y408845*
X706521Y409116*
X706782Y409406*
X707022Y409714*
X707240Y410037*
X707435Y410375*
X707606Y410726*
X707752Y411088*
X707873Y411459*
X707967Y411837*
X708035Y412222*
X708076Y412610*
X708090Y413000*
X707590Y363000D02*
D01*
X707576Y363389*
X707535Y363777*
X707467Y364162*
X707373Y364540*
X707252Y364911*
X707106Y365273*
X706935Y365624*
X706740Y365962*
X706522Y366285*
X706282Y366593*
X706021Y366883*
X705740Y367154*
X705441Y367404*
X705125Y367634*
X704795Y367841*
X704450Y368024*
X704094Y368182*
X703727Y368316*
X703352Y368423*
X702970Y368505*
X702584Y368559*
X702195Y368586*
X701804*
X701415Y368559*
X701029Y368505*
X700647Y368423*
X700272Y368316*
X699905Y368182*
X699549Y368024*
X699205Y367841*
X698874Y367634*
X698558Y367404*
X698259Y367154*
X697978Y366883*
X697717Y366593*
X697477Y366285*
X697259Y365962*
X697064Y365624*
X696893Y365273*
X696747Y364911*
X696626Y364540*
X696532Y364162*
X696464Y363777*
X696423Y363389*
X696410Y363000*
X696423Y362610*
X696464Y362222*
X696532Y361837*
X696626Y361459*
X696747Y361088*
X696893Y360726*
X697064Y360375*
X697259Y360037*
X697477Y359714*
X697717Y359406*
X697978Y359116*
X698259Y358845*
X698558Y358595*
X698874Y358365*
X699205Y358158*
X699549Y357975*
X699905Y357817*
X700272Y357683*
X700647Y357576*
X701029Y357494*
X701415Y357440*
X701804Y357413*
X702195*
X702584Y357440*
X702970Y357494*
X703352Y357576*
X703727Y357683*
X704094Y357817*
X704450Y357975*
X704795Y358158*
X705125Y358365*
X705441Y358595*
X705740Y358845*
X706021Y359116*
X706282Y359406*
X706522Y359714*
X706740Y360037*
X706935Y360375*
X707106Y360726*
X707252Y361088*
X707373Y361459*
X707467Y361837*
X707535Y362222*
X707576Y362610*
X707590Y363000*
Y305500D02*
D01*
X707576Y305889*
X707535Y306277*
X707467Y306662*
X707373Y307040*
X707252Y307411*
X707106Y307773*
X706935Y308124*
X706740Y308462*
X706522Y308785*
X706282Y309093*
X706021Y309383*
X705740Y309654*
X705441Y309904*
X705125Y310134*
X704795Y310341*
X704450Y310524*
X704094Y310682*
X703727Y310816*
X703352Y310923*
X702970Y311005*
X702584Y311059*
X702195Y311086*
X701804*
X701415Y311059*
X701029Y311005*
X700647Y310923*
X700272Y310816*
X699905Y310682*
X699549Y310524*
X699205Y310341*
X698874Y310134*
X698558Y309904*
X698259Y309654*
X697978Y309383*
X697717Y309093*
X697477Y308785*
X697259Y308462*
X697064Y308124*
X696893Y307773*
X696747Y307411*
X696626Y307040*
X696532Y306662*
X696464Y306277*
X696423Y305889*
X696410Y305500*
X696423Y305110*
X696464Y304722*
X696532Y304337*
X696626Y303959*
X696747Y303588*
X696893Y303226*
X697064Y302875*
X697259Y302537*
X697477Y302214*
X697717Y301906*
X697978Y301616*
X698259Y301345*
X698558Y301095*
X698874Y300865*
X699205Y300658*
X699549Y300475*
X699905Y300317*
X700272Y300183*
X700647Y300076*
X701029Y299994*
X701415Y299940*
X701804Y299913*
X702195*
X702584Y299940*
X702970Y299994*
X703352Y300076*
X703727Y300183*
X704094Y300317*
X704450Y300475*
X704795Y300658*
X705125Y300865*
X705441Y301095*
X705740Y301345*
X706021Y301616*
X706282Y301906*
X706522Y302214*
X706740Y302537*
X706935Y302875*
X707106Y303226*
X707252Y303588*
X707373Y303959*
X707467Y304337*
X707535Y304722*
X707576Y305110*
X707590Y305500*
X709090Y236500D02*
D01*
X709076Y236889*
X709035Y237277*
X708967Y237662*
X708873Y238040*
X708752Y238411*
X708606Y238773*
X708435Y239124*
X708240Y239462*
X708022Y239785*
X707782Y240093*
X707521Y240383*
X707240Y240654*
X706941Y240904*
X706625Y241134*
X706295Y241341*
X705950Y241524*
X705594Y241682*
X705227Y241816*
X704852Y241923*
X704470Y242005*
X704084Y242059*
X703695Y242086*
X703304*
X702915Y242059*
X702529Y242005*
X702147Y241923*
X701772Y241816*
X701405Y241682*
X701049Y241524*
X700705Y241341*
X700374Y241134*
X700058Y240904*
X699759Y240654*
X699478Y240383*
X699217Y240093*
X698977Y239785*
X698759Y239462*
X698564Y239124*
X698393Y238773*
X698247Y238411*
X698126Y238040*
X698032Y237662*
X697964Y237277*
X697923Y236889*
X697910Y236500*
X697923Y236110*
X697964Y235722*
X698032Y235337*
X698126Y234959*
X698247Y234588*
X698393Y234226*
X698564Y233875*
X698759Y233537*
X698977Y233214*
X699217Y232906*
X699478Y232616*
X699759Y232345*
X700058Y232095*
X700374Y231865*
X700705Y231658*
X701049Y231475*
X701405Y231317*
X701772Y231183*
X702147Y231076*
X702529Y230994*
X702915Y230940*
X703304Y230913*
X703695*
X704084Y230940*
X704470Y230994*
X704852Y231076*
X705227Y231183*
X705594Y231317*
X705950Y231475*
X706295Y231658*
X706625Y231865*
X706941Y232095*
X707240Y232345*
X707521Y232616*
X707782Y232906*
X708022Y233214*
X708240Y233537*
X708435Y233875*
X708606Y234226*
X708752Y234588*
X708873Y234959*
X708967Y235337*
X709035Y235722*
X709076Y236110*
X709090Y236500*
X708090Y288000D02*
D01*
X708076Y288389*
X708035Y288777*
X707967Y289162*
X707873Y289540*
X707752Y289911*
X707606Y290273*
X707435Y290624*
X707240Y290962*
X707022Y291285*
X706782Y291593*
X706521Y291883*
X706240Y292154*
X705941Y292404*
X705625Y292634*
X705295Y292841*
X704950Y293024*
X704594Y293182*
X704227Y293316*
X703852Y293423*
X703470Y293505*
X703084Y293559*
X702695Y293586*
X702304*
X701915Y293559*
X701529Y293505*
X701147Y293423*
X700772Y293316*
X700405Y293182*
X700049Y293024*
X699705Y292841*
X699374Y292634*
X699058Y292404*
X698759Y292154*
X698478Y291883*
X698217Y291593*
X697977Y291285*
X697759Y290962*
X697564Y290624*
X697393Y290273*
X697247Y289911*
X697126Y289540*
X697032Y289162*
X696964Y288777*
X696923Y288389*
X696910Y288000*
X696923Y287610*
X696964Y287222*
X697032Y286837*
X697126Y286459*
X697247Y286088*
X697393Y285726*
X697564Y285375*
X697759Y285037*
X697977Y284714*
X698217Y284406*
X698478Y284116*
X698759Y283845*
X699058Y283595*
X699374Y283365*
X699705Y283158*
X700049Y282975*
X700405Y282817*
X700772Y282683*
X701147Y282576*
X701529Y282494*
X701915Y282440*
X702304Y282413*
X702695*
X703084Y282440*
X703470Y282494*
X703852Y282576*
X704227Y282683*
X704594Y282817*
X704950Y282975*
X705295Y283158*
X705625Y283365*
X705941Y283595*
X706240Y283845*
X706521Y284116*
X706782Y284406*
X707022Y284714*
X707240Y285037*
X707435Y285375*
X707606Y285726*
X707752Y286088*
X707873Y286459*
X707967Y286837*
X708035Y287222*
X708076Y287610*
X708090Y288000*
X709090Y387000D02*
D01*
X709076Y387389*
X709035Y387777*
X708967Y388162*
X708873Y388540*
X708752Y388911*
X708606Y389273*
X708435Y389624*
X708240Y389962*
X708022Y390285*
X707782Y390593*
X707521Y390883*
X707240Y391154*
X706941Y391404*
X706625Y391634*
X706295Y391841*
X705950Y392024*
X705594Y392182*
X705227Y392316*
X704852Y392423*
X704470Y392505*
X704084Y392559*
X703695Y392586*
X703304*
X702915Y392559*
X702529Y392505*
X702147Y392423*
X701772Y392316*
X701405Y392182*
X701049Y392024*
X700705Y391841*
X700374Y391634*
X700058Y391404*
X699759Y391154*
X699478Y390883*
X699217Y390593*
X698977Y390285*
X698759Y389962*
X698564Y389624*
X698393Y389273*
X698247Y388911*
X698126Y388540*
X698032Y388162*
X697964Y387777*
X697923Y387389*
X697910Y387000*
X697923Y386610*
X697964Y386222*
X698032Y385837*
X698126Y385459*
X698247Y385088*
X698393Y384726*
X698564Y384375*
X698759Y384037*
X698977Y383714*
X699217Y383406*
X699478Y383116*
X699759Y382845*
X700058Y382595*
X700374Y382365*
X700705Y382158*
X701049Y381975*
X701405Y381817*
X701772Y381683*
X702147Y381576*
X702529Y381494*
X702915Y381440*
X703304Y381413*
X703695*
X704084Y381440*
X704470Y381494*
X704852Y381576*
X705227Y381683*
X705594Y381817*
X705950Y381975*
X706295Y382158*
X706625Y382365*
X706941Y382595*
X707240Y382845*
X707521Y383116*
X707782Y383406*
X708022Y383714*
X708240Y384037*
X708435Y384375*
X708606Y384726*
X708752Y385088*
X708873Y385459*
X708967Y385837*
X709035Y386222*
X709076Y386610*
X709090Y387000*
X519500Y291500D02*
D01*
X519498Y291534*
X519495Y291569*
X519489Y291603*
X519480Y291637*
X519469Y291671*
X519456Y291703*
X519441Y291734*
X519424Y291764*
X519404Y291793*
X519383Y291821*
X519359Y291847*
X519334Y291871*
X519307Y291894*
X519279Y291914*
X519250Y291933*
X519219Y291949*
X519187Y291963*
X519154Y291975*
X519120Y291985*
X519086Y291992*
X519052Y291997*
X519017Y291999*
X518982*
X518947Y291997*
X518913Y291992*
X518879Y291985*
X518845Y291975*
X518812Y291963*
X518780Y291949*
X518750Y291933*
X518720Y291914*
X518692Y291894*
X518665Y291871*
X518640Y291847*
X518616Y291821*
X518595Y291793*
X518575Y291764*
X518558Y291734*
X518543Y291703*
X518530Y291671*
X518519Y291637*
X518510Y291603*
X518504Y291569*
X518501Y291534*
X518500Y291500*
X518501Y291465*
X518504Y291430*
X518510Y291396*
X518519Y291362*
X518530Y291328*
X518543Y291296*
X518558Y291265*
X518575Y291235*
X518595Y291206*
X518616Y291178*
X518640Y291152*
X518665Y291128*
X518692Y291105*
X518720Y291085*
X518750Y291066*
X518780Y291050*
X518812Y291036*
X518845Y291024*
X518879Y291014*
X518913Y291007*
X518947Y291002*
X518982Y291000*
X519017*
X519052Y291002*
X519086Y291007*
X519120Y291014*
X519154Y291024*
X519187Y291036*
X519219Y291050*
X519250Y291066*
X519279Y291085*
X519307Y291105*
X519334Y291128*
X519359Y291152*
X519383Y291178*
X519404Y291206*
X519424Y291235*
X519441Y291265*
X519456Y291296*
X519469Y291328*
X519480Y291362*
X519489Y291396*
X519495Y291430*
X519498Y291465*
X519500Y291500*
X512090Y461000D02*
D01*
X512076Y461389*
X512035Y461777*
X511967Y462162*
X511873Y462540*
X511752Y462911*
X511606Y463273*
X511435Y463624*
X511240Y463962*
X511022Y464285*
X510782Y464593*
X510521Y464883*
X510240Y465154*
X509941Y465404*
X509625Y465634*
X509295Y465841*
X508950Y466024*
X508594Y466182*
X508227Y466316*
X507852Y466423*
X507470Y466505*
X507084Y466559*
X506695Y466586*
X506304*
X505915Y466559*
X505529Y466505*
X505147Y466423*
X504772Y466316*
X504405Y466182*
X504049Y466024*
X503705Y465841*
X503374Y465634*
X503058Y465404*
X502759Y465154*
X502478Y464883*
X502217Y464593*
X501977Y464285*
X501759Y463962*
X501564Y463624*
X501393Y463273*
X501247Y462911*
X501126Y462540*
X501032Y462162*
X500964Y461777*
X500923Y461389*
X500910Y461000*
X500923Y460610*
X500964Y460222*
X501032Y459837*
X501126Y459459*
X501247Y459088*
X501393Y458726*
X501564Y458375*
X501759Y458037*
X501977Y457714*
X502217Y457406*
X502478Y457116*
X502759Y456845*
X503058Y456595*
X503374Y456365*
X503705Y456158*
X504049Y455975*
X504405Y455817*
X504772Y455683*
X505147Y455576*
X505529Y455494*
X505915Y455440*
X506304Y455413*
X506695*
X507084Y455440*
X507470Y455494*
X507852Y455576*
X508227Y455683*
X508594Y455817*
X508950Y455975*
X509295Y456158*
X509625Y456365*
X509941Y456595*
X510240Y456845*
X510521Y457116*
X510782Y457406*
X511022Y457714*
X511240Y458037*
X511435Y458375*
X511606Y458726*
X511752Y459088*
X511873Y459459*
X511967Y459837*
X512035Y460222*
X512076Y460610*
X512090Y461000*
X503500Y430000D02*
D01*
X503498Y430034*
X503495Y430069*
X503489Y430103*
X503480Y430137*
X503469Y430171*
X503456Y430203*
X503441Y430234*
X503424Y430264*
X503404Y430293*
X503383Y430321*
X503359Y430347*
X503334Y430371*
X503307Y430394*
X503279Y430414*
X503250Y430433*
X503219Y430449*
X503187Y430463*
X503154Y430475*
X503120Y430485*
X503086Y430492*
X503052Y430497*
X503017Y430499*
X502982*
X502947Y430497*
X502913Y430492*
X502879Y430485*
X502845Y430475*
X502812Y430463*
X502780Y430449*
X502750Y430433*
X502720Y430414*
X502692Y430394*
X502665Y430371*
X502640Y430347*
X502616Y430321*
X502595Y430293*
X502575Y430264*
X502558Y430234*
X502543Y430203*
X502530Y430171*
X502519Y430137*
X502510Y430103*
X502504Y430069*
X502501Y430034*
X502500Y430000*
X502501Y429965*
X502504Y429930*
X502510Y429896*
X502519Y429862*
X502530Y429828*
X502543Y429796*
X502558Y429765*
X502575Y429735*
X502595Y429706*
X502616Y429678*
X502640Y429652*
X502665Y429628*
X502692Y429605*
X502720Y429585*
X502750Y429566*
X502780Y429550*
X502812Y429536*
X502845Y429524*
X502879Y429514*
X502913Y429507*
X502947Y429502*
X502982Y429500*
X503017*
X503052Y429502*
X503086Y429507*
X503120Y429514*
X503154Y429524*
X503187Y429536*
X503219Y429550*
X503250Y429566*
X503279Y429585*
X503307Y429605*
X503334Y429628*
X503359Y429652*
X503383Y429678*
X503404Y429706*
X503424Y429735*
X503441Y429765*
X503456Y429796*
X503469Y429828*
X503480Y429862*
X503489Y429896*
X503495Y429930*
X503498Y429965*
X503500Y430000*
X527500Y333500D02*
D01*
X527498Y333534*
X527495Y333569*
X527489Y333603*
X527480Y333637*
X527469Y333671*
X527456Y333703*
X527441Y333734*
X527424Y333764*
X527404Y333793*
X527383Y333821*
X527359Y333847*
X527334Y333871*
X527307Y333894*
X527279Y333914*
X527250Y333933*
X527219Y333949*
X527187Y333963*
X527154Y333975*
X527120Y333985*
X527086Y333992*
X527052Y333997*
X527017Y333999*
X526982*
X526947Y333997*
X526913Y333992*
X526879Y333985*
X526845Y333975*
X526812Y333963*
X526780Y333949*
X526750Y333933*
X526720Y333914*
X526692Y333894*
X526665Y333871*
X526640Y333847*
X526616Y333821*
X526595Y333793*
X526575Y333764*
X526558Y333734*
X526543Y333703*
X526530Y333671*
X526519Y333637*
X526510Y333603*
X526504Y333569*
X526501Y333534*
X526500Y333500*
X526501Y333465*
X526504Y333430*
X526510Y333396*
X526519Y333362*
X526530Y333328*
X526543Y333296*
X526558Y333265*
X526575Y333235*
X526595Y333206*
X526616Y333178*
X526640Y333152*
X526665Y333128*
X526692Y333105*
X526720Y333085*
X526750Y333066*
X526780Y333050*
X526812Y333036*
X526845Y333024*
X526879Y333014*
X526913Y333007*
X526947Y333002*
X526982Y333000*
X527017*
X527052Y333002*
X527086Y333007*
X527120Y333014*
X527154Y333024*
X527187Y333036*
X527219Y333050*
X527250Y333066*
X527279Y333085*
X527307Y333105*
X527334Y333128*
X527359Y333152*
X527383Y333178*
X527404Y333206*
X527424Y333235*
X527441Y333265*
X527456Y333296*
X527469Y333328*
X527480Y333362*
X527489Y333396*
X527495Y333430*
X527498Y333465*
X527500Y333500*
X397500Y173000D02*
X417500D01*
Y313000*
X357500D02*
X417500D01*
X347500D02*
X357500D01*
X347500Y173000D02*
Y313000D01*
Y173000D02*
X397500D01*
X294843Y181158D02*
Y196906D01*
Y200842*
X233819D02*
X294843D01*
X233819Y181158D02*
Y200842D01*
Y181158D02*
X294843D01*
X302842Y253658D02*
Y269406D01*
Y273342*
X241819D02*
X302842D01*
X241819Y253658D02*
Y273342D01*
Y253658D02*
X302842D01*
X640000Y226500D02*
X682000D01*
X640000D02*
Y305500D01*
X682000*
Y228500D02*
Y305500D01*
Y226500D02*
Y228500D01*
X508500Y299500D02*
X509500D01*
X508500Y275500D02*
Y299500D01*
Y275500D02*
X509500D01*
X520500Y299500D02*
X521500D01*
X520500Y275500D02*
X521500D01*
Y299500*
X492500Y438000D02*
X493500D01*
X492500Y414000D02*
Y438000D01*
Y414000D02*
X493500D01*
X504500Y438000D02*
X505500D01*
X504500Y414000D02*
X505500D01*
Y438000*
X655500Y338000D02*
Y357000D01*
X664000*
Y338000D02*
Y357000D01*
X655500Y338000D02*
X664000D01*
X602500Y376000D02*
X617500D01*
Y356000D02*
Y376000D01*
X602500Y356000D02*
X617500D01*
X602500D02*
Y376000D01*
X556000Y349000D02*
Y368000D01*
X547500Y349000D02*
X556000D01*
X547500D02*
Y368000D01*
X556000*
X1069000Y274000D02*
X1070000Y273000D01*
X625000Y289500D02*
Y295498D01*
X627999*
X628999Y294498*
Y292499*
X627999Y291499*
X625000*
X626999D02*
X628999Y289500D01*
X633997D02*
Y295498D01*
X630998Y292499*
X634997*
X611500Y290500D02*
Y296498D01*
X614499*
X615499Y295498*
Y293499*
X614499Y292499*
X611500*
X613499D02*
X615499Y290500D01*
X617498Y295498D02*
X618498Y296498D01*
X620497*
X621497Y295498*
Y294499*
X620497Y293499*
X619497*
X620497*
X621497Y292499*
Y291500*
X620497Y290500*
X618498*
X617498Y291500*
X614999Y250998D02*
X613999Y251998D01*
X612000*
X611000Y250998*
Y247000*
X612000Y246000*
X613999*
X614999Y247000*
X616998Y251998D02*
X620997D01*
Y250998*
X616998Y247000*
Y246000*
X681999Y338498D02*
X680999Y339498D01*
X679000*
X678000Y338498*
Y334500*
X679000Y333500*
X680999*
X681999Y334500*
X683998Y333500D02*
X685997D01*
X684998*
Y339498*
X683998Y338498*
X691995Y333500D02*
Y339498D01*
X688996Y336499*
X692995*
X642999Y330498D02*
X641999Y331498D01*
X640000*
X639000Y330498*
Y326500*
X640000Y325500*
X641999*
X642999Y326500*
X644998Y325500D02*
X646997D01*
X645998*
Y331498*
X644998Y330498*
X653995Y331498D02*
X649996D01*
Y328499*
X651996Y329499*
X652995*
X653995Y328499*
Y326500*
X652995Y325500*
X650996*
X649996Y326500*
X682001Y356498D02*
X683001Y357498D01*
X685000*
X686000Y356498*
Y352500*
X685000Y351500*
X683001*
X682001Y352500*
X680002Y351500D02*
X678003D01*
X679002*
Y357498*
X680002Y356498*
X675004D02*
X674004Y357498D01*
X672005*
X671005Y356498*
Y355499*
X672005Y354499*
X673004*
X672005*
X671005Y353499*
Y352500*
X672005Y351500*
X674004*
X675004Y352500*
X580000Y450498D02*
X583999Y444500D01*
Y450498D02*
X580000Y444500D01*
X589997Y449498D02*
X588997Y450498D01*
X586998*
X585998Y449498*
Y445500*
X586998Y444500*
X588997*
X589997Y445500*
X591996Y444500D02*
X593996D01*
X592996*
Y450498*
X591996Y449498*
X578499Y489498D02*
X577499Y490498D01*
X575500*
X574500Y489498*
Y485500*
X575500Y484500*
X577499*
X578499Y485500*
X584497Y484500D02*
X580498D01*
X584497Y488499*
Y489498*
X583497Y490498*
X581498*
X580498Y489498*
X693500Y471998D02*
X697499D01*
X695499*
Y466000*
X699498D02*
Y471998D01*
X702497*
X703497Y470998*
Y468999*
X702497Y467999*
X699498*
X705496Y466000D02*
X707495D01*
X706496*
Y471998*
X705496Y470998*
X691500Y450998D02*
X695499D01*
X693499*
Y445000*
X697498D02*
Y450998D01*
X700497*
X701497Y449998*
Y447999*
X700497Y446999*
X697498*
X707495Y450998D02*
X705496Y449998D01*
X703496Y447999*
Y446000*
X704496Y445000*
X706495*
X707495Y446000*
Y446999*
X706495Y447999*
X703496*
X693000Y428498D02*
X696999D01*
X694999*
Y422500*
X698998D02*
Y428498D01*
X701997*
X702997Y427498*
Y425499*
X701997Y424499*
X698998*
X708995Y428498D02*
X704996D01*
Y425499*
X706995Y426499*
X707995*
X708995Y425499*
Y423500*
X707995Y422500*
X705996*
X704996Y423500*
X692500Y377498D02*
X696499D01*
X694499*
Y371500*
X698498D02*
Y377498D01*
X701497*
X702497Y376498*
Y374499*
X701497Y373499*
X698498*
X707495Y371500D02*
Y377498D01*
X704496Y374499*
X708495*
X691500Y318998D02*
X695499D01*
X693499*
Y313000*
X697498D02*
Y318998D01*
X700497*
X701497Y317998*
Y315999*
X700497Y314999*
X697498*
X703496Y318998D02*
X707495D01*
Y317998*
X703496Y314000*
Y313000*
X691500Y228498D02*
X695499D01*
X693499*
Y222500*
X697498D02*
Y228498D01*
X700497*
X701497Y227498*
Y225499*
X700497Y224499*
X697498*
X703496Y227498D02*
X704496Y228498D01*
X706495*
X707495Y227498*
Y226499*
X706495Y225499*
X707495Y224499*
Y223500*
X706495Y222500*
X704496*
X703496Y223500*
Y224499*
X704496Y225499*
X703496Y226499*
Y227498*
X704496Y225499D02*
X706495D01*
X690500Y281498D02*
X694499D01*
X692499*
Y275500*
X696498D02*
Y281498D01*
X699497*
X700497Y280498*
Y278499*
X699497Y277499*
X696498*
X702496Y280498D02*
X703496Y281498D01*
X705495*
X706495Y280498*
Y279499*
X705495Y278499*
X704495*
X705495*
X706495Y277499*
Y276500*
X705495Y275500*
X703496*
X702496Y276500*
X347950Y322449D02*
Y318450D01*
Y320449*
X348950Y321449*
X349949Y322449*
X350949*
X356947Y318450D02*
X354948D01*
X353948Y319450*
Y321449*
X354948Y322449*
X356947*
X357947Y321449*
Y320449*
X353948*
X359946Y318450D02*
X361946D01*
X360946*
Y324448*
X359946*
X365944Y322449D02*
X367944D01*
X368943Y321449*
Y318450*
X365944*
X364945Y319450*
X365944Y320449*
X368943*
X370943Y322449D02*
Y319450D01*
X371942Y318450*
X374941*
Y317450*
X373942Y316451*
X372942*
X374941Y318450D02*
Y322449D01*
X376941Y318450D02*
X378940D01*
X377940*
Y324448*
X376941Y323448*
X242300Y276800D02*
Y282798D01*
X244299Y280799*
X246299Y282798*
Y276800*
X249298D02*
X251297D01*
X252297Y277800*
Y279799*
X251297Y280799*
X249298*
X248298Y279799*
Y277800*
X249298Y276800*
X254296D02*
X257295D01*
X258295Y277800*
X257295Y278799*
X255296*
X254296Y279799*
X255296Y280799*
X258295*
X264293Y276800D02*
X260294D01*
X264293Y280799*
Y281798*
X263293Y282798*
X261294*
X260294Y281798*
X234300Y204300D02*
Y210298D01*
X236299Y208299*
X238299Y210298*
Y204300*
X241298D02*
X243297D01*
X244297Y205300*
Y207299*
X243297Y208299*
X241298*
X240298Y207299*
Y205300*
X241298Y204300*
X246296D02*
X249295D01*
X250295Y205300*
X249295Y206299*
X247296*
X246296Y207299*
X247296Y208299*
X250295*
X252294Y204300D02*
X254293D01*
X253294*
Y210298*
X252294Y209298*
X581599Y382398D02*
X580599Y383398D01*
X578600*
X577600Y382398*
Y378400*
X578600Y377400*
X580599*
X581599Y378400*
X583598Y382398D02*
X584598Y383398D01*
X586597*
X587597Y382398*
Y381399*
X586597Y380399*
X587597Y379399*
Y378400*
X586597Y377400*
X584598*
X583598Y378400*
Y379399*
X584598Y380399*
X583598Y381399*
Y382398*
X584598Y380399D02*
X586597D01*
X640500Y314998D02*
X644499D01*
X642499*
Y309000*
X646498Y314998D02*
Y310999D01*
X648497Y309000*
X650497Y310999*
Y314998*
X656495Y313998D02*
X655495Y314998D01*
X653496*
X652496Y313998*
Y312999*
X653496Y311999*
X655495*
X656495Y310999*
Y310000*
X655495Y309000*
X653496*
X652496Y310000*
X658494Y309000D02*
X660494D01*
X659494*
Y314998*
X658494Y313998*
X596150Y302350D02*
Y308348D01*
X599149*
X600149Y307348*
Y305349*
X599149Y304349*
X596150*
X598149D02*
X600149Y302350D01*
X604147Y300351D02*
X605147D01*
X606147Y301350*
Y306349*
X603148*
X602148Y305349*
Y303350*
X603148Y302350*
X606147*
X608146D02*
X610146D01*
X609146*
Y308348*
X608146Y307348*
X668699Y469698D02*
X667699Y470698D01*
X665700*
X664700Y469698*
Y465700*
X665700Y464700*
X667699*
X668699Y465700*
X670698Y469698D02*
X671698Y470698D01*
X673697*
X674697Y469698*
Y468699*
X673697Y467699*
X672697*
X673697*
X674697Y466699*
Y465700*
X673697Y464700*
X671698*
X670698Y465700*
X681699Y469198D02*
X680699Y470198D01*
X678700*
X677700Y469198*
Y465200*
X678700Y464200*
X680699*
X681699Y465200*
X686697Y464200D02*
Y470198D01*
X683698Y467199*
X687697*
X671599Y426598D02*
X670599Y427598D01*
X668600*
X667600Y426598*
Y422600*
X668600Y421600*
X670599*
X671599Y422600*
X677597Y427598D02*
X673598D01*
Y424599*
X675597Y425599*
X676597*
X677597Y424599*
Y422600*
X676597Y421600*
X674598*
X673598Y422600*
X687599Y425098D02*
X686599Y426098D01*
X684600*
X683600Y425098*
Y421100*
X684600Y420100*
X686599*
X687599Y421100*
X693597Y426098D02*
X691597Y425098D01*
X689598Y423099*
Y421100*
X690598Y420100*
X692597*
X693597Y421100*
Y422099*
X692597Y423099*
X689598*
X637599Y383398D02*
X636599Y384398D01*
X634600*
X633600Y383398*
Y379400*
X634600Y378400*
X636599*
X637599Y379400*
X639598D02*
X640598Y378400D01*
X642597*
X643597Y379400*
Y383398*
X642597Y384398*
X640598*
X639598Y383398*
Y382399*
X640598Y381399*
X643597*
X532599Y391401D02*
X532099Y390901D01*
X531100*
X530600Y391401*
Y393400*
X531100Y393900*
X532099*
X532599Y393400*
X533599Y393900D02*
X534599D01*
X534099*
Y390901*
X533599Y391401*
X536098D02*
X536598Y390901D01*
X537598*
X538098Y391401*
Y393400*
X537598Y393900*
X536598*
X536098Y393400*
Y391401*
X528999Y354801D02*
X528500Y354301D01*
X527500*
X527000Y354801*
Y356800*
X527500Y357300*
X528500*
X528999Y356800*
X529999Y357300D02*
X530999D01*
X530499*
Y354301*
X529999Y354801*
X532498Y357300D02*
X533498D01*
X532998*
Y354301*
X532498Y354801*
X579433Y359066D02*
X579100Y359399D01*
X578433*
X578100Y359066*
Y357733*
X578433Y357400*
X579100*
X579433Y357733*
X580099Y357400D02*
X580766D01*
X580433*
Y359399*
X580099Y359066*
X583098Y357400D02*
X581766D01*
X583098Y358733*
Y359066*
X582765Y359399*
X582099*
X581766Y359066*
X513266Y441232D02*
X512599Y441899D01*
X511266*
X510600Y441232*
Y438566*
X511266Y437900*
X512599*
X513266Y438566*
X514599Y437900D02*
Y441899D01*
X516598*
X517265Y441232*
Y439899*
X516598Y439233*
X514599*
X515932D02*
X517265Y437900D01*
X518597D02*
X519930D01*
X519264*
Y441899*
X518597Y441232*
X495666Y448632D02*
X494999Y449299D01*
X493666*
X493000Y448632*
Y445966*
X493666Y445300*
X494999*
X495666Y445966*
X496999Y447966D02*
Y445300D01*
Y446633*
X497665Y447299*
X498332Y447966*
X498998*
X503663Y445300D02*
X500997D01*
X503663Y447966*
Y448632*
X502997Y449299*
X501664*
X500997Y448632*
X531599Y304398D02*
X530599Y305398D01*
X528600*
X527600Y304398*
Y300400*
X528600Y299400*
X530599*
X531599Y300400*
X533598Y299400D02*
Y305398D01*
X536597*
X537597Y304398*
Y302399*
X536597Y301399*
X533598*
X535597D02*
X537597Y299400D01*
X539596Y304398D02*
X540596Y305398D01*
X542595*
X543595Y304398*
Y303399*
X542595Y302399*
X541596*
X542595*
X543595Y301399*
Y300400*
X542595Y299400*
X540596*
X539596Y300400*
X512999Y311798D02*
X511999Y312798D01*
X510000*
X509000Y311798*
Y307800*
X510000Y306800*
X511999*
X512999Y307800*
X514998Y310799D02*
Y306800D01*
Y308799*
X515998Y309799*
X516997Y310799*
X517997*
X523995Y306800D02*
Y312798D01*
X520996Y309799*
X524995*
X302500Y127000D02*
Y131998D01*
Y129999*
X301500*
X303499*
X302500*
Y131998*
X303499Y132998*
X306498Y130999D02*
Y128000D01*
X307498Y127000*
X310497*
Y130999*
X312496Y127000D02*
X315495D01*
X316495Y128000*
X315495Y128999*
X313496*
X312496Y129999*
X313496Y130999*
X316495*
X321494Y127000D02*
X319494D01*
X318495Y128000*
Y129999*
X319494Y130999*
X321494*
X322493Y129999*
Y128999*
X318495*
X324493Y127000D02*
X326492D01*
X325492*
Y132998*
X324493Y131998*
X549666Y274332D02*
X548999Y274999D01*
X547666*
X547000Y274332*
Y271666*
X547666Y271000*
X548999*
X549666Y271666*
Y272999*
X548333*
X551665Y273666D02*
X552998D01*
X553664Y272999*
Y271000*
X551665*
X550999Y271666*
X551665Y272333*
X553664*
X555664Y274332D02*
Y273666D01*
X554997*
X556330*
X555664*
Y271666*
X556330Y271000*
X560329D02*
X558996D01*
X558330Y271666*
Y272999*
X558996Y273666*
X560329*
X560995Y272999*
Y272333*
X558330*
X562328Y270334D02*
X564994D01*
X566327Y274999D02*
Y271000D01*
X568327*
X568993Y271666*
Y274332*
X568327Y274999*
X566327*
X570326Y273666D02*
Y271000D01*
Y272333*
X570992Y272999*
X571659Y273666*
X572325*
X574325Y271000D02*
X575657D01*
X574991*
Y273666*
X574325*
X577657D02*
X578990Y271000D01*
X580323Y273666*
X583655Y271000D02*
X582322D01*
X581656Y271666*
Y272999*
X582322Y273666*
X583655*
X584321Y272999*
Y272333*
X581656*
X585654Y273666D02*
Y271000D01*
Y272333*
X586321Y272999*
X586987Y273666*
X587653*
X592319Y271000D02*
X589653D01*
X592319Y273666*
Y274332*
X591652Y274999*
X590319*
X589653Y274332*
X619800Y474200D02*
Y480198D01*
X621799Y478199*
X623799Y480198*
Y474200*
X629797Y480198D02*
X625798D01*
Y474200*
X629797*
X625798Y477199D02*
X627797D01*
X635795Y480198D02*
X633795D01*
X634795*
Y475200*
X633795Y474200*
X632796*
X631796Y475200*
X637794Y474200D02*
X639793D01*
X638794*
Y480198*
X637794Y479198*
X597499Y385498D02*
X595500D01*
X594500Y384498*
Y380500*
X595500Y379500*
X597499*
X598499Y380500*
Y384498*
X597499Y385498*
X600498Y379500D02*
Y385498D01*
X603497*
X604497Y384498*
Y382499*
X603497Y381499*
X600498*
X606496Y385498D02*
X610495D01*
X608496*
Y379500*
X612494D02*
X614494D01*
X613494*
Y385498*
X612494Y384498*
X692500Y401998D02*
X696499D01*
X694499*
Y396000*
X698498D02*
Y401998D01*
X701497*
X702497Y400998*
Y398999*
X701497Y397999*
X698498*
X708495Y396000D02*
X704496D01*
X708495Y399999*
Y400998*
X707495Y401998*
X705496*
X704496Y400998*
X501450Y476048D02*
X505449D01*
X503449*
Y470050*
X507448D02*
Y476048D01*
X510447*
X511447Y475048*
Y473049*
X510447Y472049*
X507448*
X513446Y470050D02*
Y476048D01*
X516445*
X517445Y475048*
Y473049*
X516445Y472049*
X513446*
X515446D02*
X517445Y470050D01*
X523443Y476048D02*
X519444D01*
Y470050*
X523443*
X519444Y473049D02*
X521444D01*
X525442Y476048D02*
Y470050D01*
X529441*
X531440D02*
Y474049D01*
X533440Y476048*
X535439Y474049*
Y470050*
Y473049*
X531440*
X537438Y476048D02*
Y475048D01*
X539438Y473049*
X541437Y475048*
Y476048*
X539438Y473049D02*
Y470050D01*
X543436D02*
X545436D01*
X544436*
Y476048*
X543436Y475048*
X131800Y200198D02*
Y195200D01*
X132800Y194200*
X134799*
X135799Y195200*
Y200198*
X137798Y194200D02*
X139797D01*
X138798*
Y200198*
X137798Y199198*
X132300Y281198D02*
Y276200D01*
X133300Y275200*
X135299*
X136299Y276200*
Y281198*
X142297Y275200D02*
X138298D01*
X142297Y279199*
Y280198*
X141297Y281198*
X139298*
X138298Y280198*
X133800Y383198D02*
Y378200D01*
X134800Y377200*
X136799*
X137799Y378200*
Y383198*
X142797Y377200D02*
Y383198D01*
X139798Y380199*
X143797*
X282250Y479748D02*
Y474750D01*
X283250Y473750*
X285249*
X286249Y474750*
Y479748*
X292247D02*
X288248D01*
Y476749*
X290247Y477749*
X291247*
X292247Y476749*
Y474750*
X291247Y473750*
X289248*
X288248Y474750*
X541100Y371501D02*
Y374000D01*
X541600Y374500*
X542599*
X543099Y374000*
Y371501*
X546098D02*
X545099Y372001D01*
X544099Y373001*
Y374000*
X544599Y374500*
X545599*
X546098Y374000*
Y373500*
X545599Y373001*
X544099*
X658900Y366498D02*
Y361500D01*
X657900Y360500*
X655901*
X654901Y361500*
Y366498*
X652902D02*
X648903D01*
Y365498*
X652902Y361500*
Y360500*
X534499Y411499D02*
X533999Y411999D01*
X533000*
X532500Y411499*
Y409500*
X533000Y409000*
X533999*
X534499Y409500*
Y410499*
X533500*
X535999Y410999D02*
X536999D01*
X537498Y410499*
Y409000*
X535999*
X535499Y409500*
X535999Y410000*
X537498*
X538998Y411499D02*
Y410999D01*
X538498*
X539498*
X538998*
Y409500*
X539498Y409000*
X542497D02*
X541497D01*
X540997Y409500*
Y410499*
X541497Y410999*
X542497*
X542997Y410499*
Y410000*
X540997*
X543996Y408500D02*
X545996D01*
X546995Y411999D02*
Y409000D01*
X548495*
X548995Y409500*
Y411499*
X548495Y411999*
X546995*
X549994Y410999D02*
Y409000D01*
Y410000*
X550494Y410499*
X550994Y410999*
X551494*
X552993Y409000D02*
X553993D01*
X553493*
Y410999*
X552993*
X555493D02*
X556492Y409000D01*
X557492Y410999*
X559991Y409000D02*
X558991D01*
X558492Y409500*
Y410499*
X558991Y410999*
X559991*
X560491Y410499*
Y410000*
X558492*
X561491Y410999D02*
Y409000D01*
Y410000*
X561990Y410499*
X562490Y410999*
X562990*
X564490Y409000D02*
X565489D01*
X564990*
Y411999*
X564490Y411499*
X608099Y487598D02*
X607099Y488598D01*
X605100*
X604100Y487598*
Y483600*
X605100Y482600*
X607099*
X608099Y483600*
X610098Y482600D02*
X612097D01*
X611098*
Y488598*
X610098Y487598*
X684500Y172500D02*
Y178498D01*
X687499*
X688499Y177498*
Y175499*
X687499Y174499*
X684500*
X690498Y172500D02*
X692497D01*
X691498*
Y178498*
X690498Y177498*
X555600Y481400D02*
Y487398D01*
X558599*
X559599Y486398*
Y484399*
X558599Y483399*
X555600*
X557599D02*
X559599Y481400D01*
X561598D02*
X563597D01*
X562598*
Y487398*
X561598Y486398*
X603100Y438400D02*
Y444398D01*
X606099*
X607099Y443398*
Y441399*
X606099Y440399*
X603100*
X605099D02*
X607099Y438400D01*
X613097D02*
X609098D01*
X613097Y442399*
Y443398*
X612097Y444398*
X610098*
X609098Y443398*
X456750Y208248D02*
Y203250D01*
X457750Y202250*
X459749*
X460749Y203250*
Y208248*
X462748Y207248D02*
X463748Y208248D01*
X465747*
X466747Y207248*
Y206249*
X465747Y205249*
X464747*
X465747*
X466747Y204249*
Y203250*
X465747Y202250*
X463748*
X462748Y203250*
G54D48*
X527500Y708000D02*
X511500D01*
X527500Y699000D02*
Y708000D01*
Y699000D02*
X511500D01*
Y703500*
Y708000*
X576000Y839500D02*
X556000D01*
X576000Y799500D02*
X556000D01*
Y839500*
X576000Y799500D02*
Y839500D01*
X372933Y521004D02*
X352067D01*
X372933Y533996D02*
X352067D01*
X623000Y273500D02*
Y287500D01*
X630000*
Y273500D02*
Y287500D01*
X623000Y273500D02*
X629906D01*
X612000D02*
Y287500D01*
X619000*
Y273500D02*
Y287500D01*
X612000Y273500D02*
X618905D01*
X612000Y255000D02*
X616500D01*
X612000D02*
Y271000D01*
X621000*
Y255000D02*
Y271000D01*
X616500Y255000D02*
X621000D01*
X677752Y321425D02*
X684248D01*
X677752D02*
Y324575D01*
X684248Y321425D02*
Y324575D01*
X671500Y328500D02*
Y333000D01*
X655500D02*
X671500D01*
X655500Y324000D02*
Y333000D01*
Y324000D02*
X671500D01*
Y328500*
Y359000D02*
X676000D01*
X671500D02*
Y375000D01*
X680500*
Y359000D02*
Y375000D01*
X676000Y359000D02*
X680500D01*
X602595Y435000D02*
X609500D01*
X602500Y421000D02*
Y435000D01*
Y421000D02*
X609500D01*
Y435000*
X555000Y464000D02*
X561905D01*
X562000D02*
Y478000D01*
X555000D02*
X562000D01*
X555000Y464000D02*
Y478000D01*
X577000Y374000D02*
X581500D01*
X577000Y358000D02*
Y374000D01*
Y358000D02*
X586000D01*
Y374000*
X581500D02*
X586000D01*
X595500Y297000D02*
X609500D01*
Y290000D02*
Y297000D01*
X595500Y290000D02*
X609500D01*
X595500Y290094D02*
Y297000D01*
X673453Y408925D02*
Y412075D01*
X667547Y408925D02*
Y412075D01*
X689453Y407425D02*
Y410575D01*
X683547Y407425D02*
Y410575D01*
X536000Y280000D02*
Y296000D01*
X527000Y280000D02*
X536000D01*
X527000D02*
Y296000D01*
X531500*
X536000*
X519000Y418500D02*
Y434500D01*
X510000Y418500D02*
X519000D01*
X510000D02*
Y434500D01*
X514500*
X519000*
X577500Y354000D02*
X582000D01*
X577500Y338000D02*
Y354000D01*
Y338000D02*
X586500D01*
Y354000*
X582000D02*
X586500D01*
X529752Y340425D02*
X536248D01*
X529752D02*
Y343575D01*
X536248Y340425D02*
Y343575D01*
X530000Y371500D02*
X534500D01*
X530000D02*
Y387500D01*
X539000*
Y371500D02*
Y387500D01*
X534500Y371500D02*
X539000D01*
X633000Y375000D02*
X637500D01*
X633000Y359000D02*
Y375000D01*
Y359000D02*
X642000D01*
Y375000*
X637500D02*
X642000D01*
X609953Y469925D02*
Y473075D01*
X604047Y469925D02*
Y473075D01*
X303567Y137413D02*
X324433D01*
X303567Y151587D02*
X324433D01*
X627000Y157000D02*
Y177000D01*
X677000Y157000D02*
Y177000D01*
X627000Y157000D02*
X677000D01*
X627000Y177000D02*
X677000D01*
G54D49*
X506043Y749524D02*
Y778657D01*
X527697D02*
X506043D01*
X527697Y749524D02*
Y778657D01*
Y749524D02*
X506043D01*
X619012Y471000D02*
X658185D01*
X619012Y393638D02*
Y471000D01*
Y393638D02*
X658185D01*
Y471000*
X532842Y439039D02*
X561976D01*
X532842Y417386D02*
Y439039D01*
Y417386D02*
X561976D01*
Y439039*
X553933Y300728D02*
X583067D01*
Y279075D02*
Y300728D01*
X553933Y279075D02*
X583067D01*
X553933D02*
Y300728D01*
G54D50*
X482221Y541445D02*
X206630D01*
X482221D02*
Y777665D01*
X206630*
Y541445D02*
Y777665D01*
G54D51*
X558835Y840500D02*
X558002Y841333D01*
Y842999*
X558835Y843832*
X559668*
X560501Y842999*
X561334Y843832*
X562167*
X563000Y842999*
Y841333*
X562167Y840500*
X561334*
X560501Y841333*
X559668Y840500*
X558835*
X560501Y841333D02*
Y842999D01*
X568002Y840500D02*
Y843832D01*
X568835*
X572167Y840500*
X573000*
Y796500D02*
Y798166D01*
Y797333*
X568002*
X568835Y796500*
X563000Y797832D02*
Y794500D01*
X559668Y797832*
X558835*
X558002Y796999*
Y795333*
X558835Y794500*
X678668Y164000D02*
X682000D01*
X678668Y160668*
Y159835*
X679501Y159002*
X681167*
X682000Y159835*
X680000Y174000D02*
X678334D01*
X679167*
Y169002*
X680000Y169835*
X626000Y173167D02*
X625167Y174000D01*
X623501*
X622668Y173167*
Y169835*
X623501Y169002*
X625167*
X626000Y169835*
Y170668*
X625167Y171501*
X622668*
X626000Y164000D02*
X624334D01*
X625167*
Y159002*
X626000Y159835*
X621835D02*
X621002Y159002D01*
X619336*
X618502Y159835*
Y163167*
X619336Y164000*
X621002*
X621835Y163167*
Y159835*
G54D52*
X658500Y341000D03*
X606000Y372500D03*
X553000Y365000D03*
G54D53*
X680963Y322508D03*
X532962Y341508D03*
M02*