%FSLAX25Y25*%
%MOIN*%
%SFA1B1*%

%IPPOS*%
%ADD16C,0.030000*%
%ADD36C,0.040000*%
%ADD37C,0.200000*%
%ADD38C,0.196850*%
%ADD39C,0.070870*%
%ADD40R,0.059050X0.059050*%
%ADD41C,0.059050*%
%ADD42R,0.354330X0.354330*%
%ADD43R,0.472440X0.472440*%
%ADD44C,0.050000*%
%ADD45C,0.098420*%
%ADD46C,0.137800*%
%ADD47R,0.059050X0.059050*%
%LNcombined-1*%
%LPD*%
G36*
X466000Y247000D02*
X520000Y193000D01*
Y118500*
X133500*
X109500Y142500*
Y429500*
X135500Y466000*
X147253Y482500*
X466000*
Y247000*
G37*
%LNcombined-2*%
%LPC*%
G36*
X397500Y206462D02*
X395849Y206299D01*
X394262Y205818*
X392799Y205036*
X391516Y203983*
X390464Y202701*
X389682Y201238*
X389201Y199651*
X389038Y198000*
X389201Y196349*
X389682Y194762*
X390464Y193299*
X391516Y192016*
X392799Y190964*
X394262Y190182*
X395849Y189701*
X397500Y189538*
X399151Y189701*
X400738Y190182*
X402201Y190964*
X403483Y192016*
X404536Y193299*
X405318Y194762*
X405799Y196349*
X405962Y198000*
X405799Y199651*
X405318Y201238*
X404536Y202701*
X403483Y203983*
X402201Y205036*
X400738Y205818*
X399151Y206299*
X397500Y206462*
G37*
G36*
X466000Y202384D02*
X463906Y202219D01*
X461864Y201729*
X459924Y200925*
X458133Y199828*
X456536Y198464*
X455172Y196867*
X454075Y195076*
X453271Y193136*
X452781Y191094*
X452616Y189000*
X452781Y186906*
X453271Y184864*
X454075Y182924*
X455172Y181133*
X456536Y179536*
X458133Y178172*
X459924Y177075*
X461864Y176271*
X463906Y175781*
X466000Y175616*
X468094Y175781*
X470136Y176271*
X472076Y177075*
X473867Y178172*
X475464Y179536*
X476828Y181133*
X477925Y182924*
X478729Y184864*
X479219Y186906*
X479384Y189000*
X479219Y191094*
X478729Y193136*
X477925Y195076*
X476828Y196867*
X475464Y198464*
X473867Y199828*
X472076Y200925*
X470136Y201729*
X468094Y202219*
X466000Y202384*
G37*
G36*
X285000Y201422D02*
X283370Y201294D01*
X281780Y200912*
X280269Y200286*
X278874Y199432*
X277631Y198369*
X276569Y197126*
X275714Y195731*
X275088Y194220*
X274863Y193284*
X274349*
X274124Y194220*
X273499Y195731*
X272644Y197126*
X271582Y198369*
X270338Y199432*
X268944Y200286*
X267433Y200912*
X265843Y201294*
X264213Y201422*
X262582Y201294*
X260992Y200912*
X259481Y200286*
X258087Y199432*
X256843Y198369*
X255781Y197126*
X254927Y195731*
X254301Y194220*
X253919Y192630*
X253443*
X253061Y194220*
X252436Y195731*
X251581Y197126*
X250519Y198369*
X249275Y199432*
X247881Y200286*
X246370Y200912*
X244780Y201294*
X243150Y201422*
X241519Y201294*
X239929Y200912*
X238418Y200286*
X237024Y199432*
X235780Y198369*
X234718Y197126*
X233864Y195731*
X233238Y194220*
X232856Y192630*
X232728Y191000*
X232856Y189370*
X233238Y187779*
X233864Y186269*
X234718Y184874*
X235780Y183631*
X237024Y182569*
X238418Y181714*
X239929Y181088*
X241519Y180706*
X243150Y180578*
X244780Y180706*
X246370Y181088*
X247881Y181714*
X249275Y182569*
X250519Y183631*
X251581Y184874*
X252436Y186269*
X253061Y187779*
X253443Y189370*
X253919*
X254301Y187779*
X254927Y186269*
X255781Y184874*
X256843Y183631*
X258087Y182569*
X259481Y181714*
X260992Y181088*
X262582Y180706*
X264213Y180578*
X265843Y180706*
X267433Y181088*
X268944Y181714*
X270338Y182569*
X271582Y183631*
X272644Y184874*
X273499Y186269*
X274124Y187779*
X274349Y188716*
X274863*
X275088Y187779*
X275714Y186269*
X276569Y184874*
X277631Y183631*
X278874Y182569*
X280269Y181714*
X281780Y181088*
X283370Y180706*
X285000Y180578*
X286630Y180706*
X288221Y181088*
X289731Y181714*
X291126Y182569*
X292369Y183631*
X293431Y184874*
X294286Y186269*
X294912Y187779*
X295294Y189370*
X295422Y191000*
X295294Y192630*
X294912Y194220*
X294286Y195731*
X293431Y197126*
X292369Y198369*
X291126Y199432*
X289731Y200286*
X288221Y200912*
X286630Y201294*
X285000Y201422*
G37*
G36*
X180500Y238384D02*
X178406Y238219D01*
X176364Y237729*
X174424Y236925*
X172633Y235828*
X171036Y234464*
X169672Y232867*
X168575Y231076*
X167771Y229136*
X167281Y227094*
X167116Y225000*
X167281Y222906*
X167771Y220864*
X168575Y218924*
X169672Y217133*
X171036Y215536*
X172633Y214172*
X174424Y213075*
X176364Y212271*
X178406Y211781*
X180500Y211616*
X182594Y211781*
X184636Y212271*
X186576Y213075*
X188367Y214172*
X189964Y215536*
X191328Y217133*
X192425Y218924*
X193229Y220864*
X193719Y222906*
X193884Y225000*
X193719Y227094*
X193229Y229136*
X192425Y231076*
X191328Y232867*
X189964Y234464*
X188367Y235828*
X186576Y236925*
X184636Y237729*
X182594Y238219*
X180500Y238384*
G37*
G36*
X141500D02*
X139406Y238219D01*
X137364Y237729*
X135424Y236925*
X133633Y235828*
X132036Y234464*
X130672Y232867*
X129575Y231076*
X128771Y229136*
X128281Y227094*
X128116Y225000*
X128281Y222906*
X128771Y220864*
X129575Y218924*
X130672Y217133*
X132036Y215536*
X133633Y214172*
X135424Y213075*
X137364Y212271*
X139406Y211781*
X141500Y211616*
X143594Y211781*
X145636Y212271*
X147576Y213075*
X149367Y214172*
X150964Y215536*
X152328Y217133*
X153425Y218924*
X154229Y220864*
X154719Y222906*
X154884Y225000*
X154719Y227094*
X154229Y229136*
X153425Y231076*
X152328Y232867*
X150964Y234464*
X149367Y235828*
X147576Y236925*
X145636Y237729*
X143594Y238219*
X141500Y238384*
G37*
G36*
X180000Y157384D02*
X177906Y157219D01*
X175864Y156729*
X173924Y155925*
X172133Y154828*
X170536Y153464*
X169172Y151867*
X168075Y150076*
X167271Y148136*
X166781Y146094*
X166616Y144000*
X166781Y141906*
X167271Y139864*
X168075Y137924*
X169172Y136133*
X170536Y134536*
X172133Y133172*
X173924Y132075*
X175864Y131271*
X177906Y130781*
X180000Y130616*
X182094Y130781*
X184136Y131271*
X186076Y132075*
X187867Y133172*
X189464Y134536*
X190828Y136133*
X191925Y137924*
X192729Y139864*
X193219Y141906*
X193384Y144000*
X193219Y146094*
X192729Y148136*
X191925Y150076*
X190828Y151867*
X189464Y153464*
X187867Y154828*
X186076Y155925*
X184136Y156729*
X182094Y157219*
X180000Y157384*
G37*
G36*
X141000D02*
X138906Y157219D01*
X136864Y156729*
X134924Y155925*
X133133Y154828*
X131536Y153464*
X130172Y151867*
X129075Y150076*
X128271Y148136*
X127781Y146094*
X127616Y144000*
X127781Y141906*
X128271Y139864*
X129075Y137924*
X130172Y136133*
X131536Y134536*
X133133Y133172*
X134924Y132075*
X136864Y131271*
X138906Y130781*
X141000Y130616*
X143094Y130781*
X145136Y131271*
X147076Y132075*
X148867Y133172*
X150464Y134536*
X151828Y136133*
X152925Y137924*
X153729Y139864*
X154219Y141906*
X154384Y144000*
X154219Y146094*
X153729Y148136*
X152925Y150076*
X151828Y151867*
X150464Y153464*
X148867Y154828*
X147076Y155925*
X145136Y156729*
X143094Y157219*
X141000Y157384*
G37*
G36*
X466000Y163384D02*
X463906Y163219D01*
X461864Y162729*
X459924Y161925*
X458133Y160828*
X456536Y159464*
X455172Y157867*
X454075Y156076*
X453271Y154136*
X452781Y152094*
X452616Y150000*
X452781Y147906*
X453271Y145864*
X454075Y143924*
X455172Y142133*
X456536Y140536*
X458133Y139172*
X459924Y138075*
X461864Y137271*
X463906Y136781*
X466000Y136616*
X468094Y136781*
X470136Y137271*
X472076Y138075*
X473867Y139172*
X475464Y140536*
X476828Y142133*
X477925Y143924*
X478729Y145864*
X479219Y147906*
X479384Y150000*
X479219Y152094*
X478729Y154136*
X477925Y156076*
X476828Y157867*
X475464Y159464*
X473867Y160828*
X472076Y161925*
X470136Y162729*
X468094Y163219*
X466000Y163384*
G37*
G36*
X180000Y194384D02*
X177906Y194219D01*
X175864Y193729*
X173924Y192925*
X172133Y191828*
X170536Y190464*
X169172Y188867*
X168075Y187076*
X167271Y185136*
X166781Y183094*
X166616Y181000*
X166781Y178906*
X167271Y176864*
X168075Y174924*
X169172Y173133*
X170536Y171536*
X172133Y170172*
X173924Y169075*
X175864Y168271*
X177906Y167781*
X180000Y167616*
X182094Y167781*
X184136Y168271*
X186076Y169075*
X187867Y170172*
X189464Y171536*
X190828Y173133*
X191925Y174924*
X192729Y176864*
X193219Y178906*
X193384Y181000*
X193219Y183094*
X192729Y185136*
X191925Y187076*
X190828Y188867*
X189464Y190464*
X187867Y191828*
X186076Y192925*
X184136Y193729*
X182094Y194219*
X180000Y194384*
G37*
G36*
X141000D02*
X138906Y194219D01*
X136864Y193729*
X134924Y192925*
X133133Y191828*
X131536Y190464*
X130172Y188867*
X129075Y187076*
X128271Y185136*
X127781Y183094*
X127616Y181000*
X127781Y178906*
X128271Y176864*
X129075Y174924*
X130172Y173133*
X131536Y171536*
X133133Y170172*
X134924Y169075*
X136864Y168271*
X138906Y167781*
X141000Y167616*
X143094Y167781*
X145136Y168271*
X147076Y169075*
X148867Y170172*
X150464Y171536*
X151828Y173133*
X152925Y174924*
X153729Y176864*
X154219Y178906*
X154384Y181000*
X154219Y183094*
X153729Y185136*
X152925Y187076*
X151828Y188867*
X150464Y190464*
X148867Y191828*
X147076Y192925*
X145136Y193729*
X143094Y194219*
X141000Y194384*
G37*
G36*
X397500Y237171D02*
X395849Y237008D01*
X394262Y236526*
X392799Y235745*
X391516Y234692*
X390464Y233410*
X389682Y231947*
X389201Y230360*
X389038Y228709*
X389201Y227058*
X389682Y225470*
X390464Y224007*
X391516Y222725*
X392799Y221673*
X394262Y220891*
X395849Y220409*
X397500Y220247*
X399151Y220409*
X400738Y220891*
X402201Y221673*
X403483Y222725*
X404536Y224007*
X405318Y225470*
X405799Y227058*
X405962Y228709*
X405799Y230360*
X405318Y231947*
X404536Y233410*
X403483Y234692*
X402201Y235745*
X400738Y236526*
X399151Y237008*
X397500Y237171*
G37*
G36*
X143000Y377384D02*
X140906Y377219D01*
X138864Y376729*
X136924Y375925*
X135133Y374828*
X133536Y373464*
X132172Y371867*
X131075Y370076*
X130271Y368136*
X129781Y366094*
X129616Y364000*
X129781Y361906*
X130271Y359864*
X131075Y357924*
X132172Y356133*
X133536Y354536*
X135133Y353172*
X136924Y352075*
X138864Y351271*
X140906Y350781*
X143000Y350616*
X145094Y350781*
X147136Y351271*
X149076Y352075*
X150867Y353172*
X152464Y354536*
X153828Y356133*
X154925Y357924*
X155729Y359864*
X156219Y361906*
X156384Y364000*
X156219Y366094*
X155729Y368136*
X154925Y370076*
X153828Y371867*
X152464Y373464*
X150867Y374828*
X149076Y375925*
X147136Y376729*
X145094Y377219*
X143000Y377384*
G37*
G36*
X182000Y340384D02*
X179906Y340219D01*
X177864Y339729*
X175924Y338925*
X174133Y337828*
X172536Y336464*
X171172Y334867*
X170075Y333076*
X169271Y331136*
X168781Y329094*
X168616Y327000*
X168781Y324906*
X169271Y322864*
X170075Y320924*
X171172Y319133*
X172536Y317536*
X174133Y316172*
X175924Y315075*
X177864Y314271*
X179906Y313781*
X182000Y313616*
X184094Y313781*
X186136Y314271*
X188076Y315075*
X189867Y316172*
X191464Y317536*
X192828Y319133*
X193925Y320924*
X194729Y322864*
X195219Y324906*
X195384Y327000*
X195219Y329094*
X194729Y331136*
X193925Y333076*
X192828Y334867*
X191464Y336464*
X189867Y337828*
X188076Y338925*
X186136Y339729*
X184094Y340219*
X182000Y340384*
G37*
G36*
Y377384D02*
X179906Y377219D01*
X177864Y376729*
X175924Y375925*
X174133Y374828*
X172536Y373464*
X171172Y371867*
X170075Y370076*
X169271Y368136*
X168781Y366094*
X168616Y364000*
X168781Y361906*
X169271Y359864*
X170075Y357924*
X171172Y356133*
X172536Y354536*
X174133Y353172*
X175924Y352075*
X177864Y351271*
X179906Y350781*
X182000Y350616*
X184094Y350781*
X186136Y351271*
X188076Y352075*
X189867Y353172*
X191464Y354536*
X192828Y356133*
X193925Y357924*
X194729Y359864*
X195219Y361906*
X195384Y364000*
X195219Y366094*
X194729Y368136*
X193925Y370076*
X192828Y371867*
X191464Y373464*
X189867Y374828*
X188076Y375925*
X186136Y376729*
X184094Y377219*
X182000Y377384*
G37*
G36*
X291500Y473884D02*
X289406Y473719D01*
X287364Y473229*
X285424Y472425*
X283633Y471328*
X282036Y469964*
X280672Y468367*
X279575Y466576*
X278771Y464636*
X278281Y462594*
X278116Y460500*
X278281Y458406*
X278771Y456364*
X279575Y454424*
X280672Y452633*
X282036Y451036*
X283633Y449672*
X285424Y448575*
X287364Y447771*
X289406Y447281*
X291500Y447116*
X293594Y447281*
X295636Y447771*
X297576Y448575*
X299367Y449672*
X300964Y451036*
X302328Y452633*
X303425Y454424*
X304229Y456364*
X304719Y458406*
X304884Y460500*
X304719Y462594*
X304229Y464636*
X303425Y466576*
X302328Y468367*
X300964Y469964*
X299367Y471328*
X297576Y472425*
X295636Y473229*
X293594Y473719*
X291500Y473884*
G37*
G36*
Y434884D02*
X289406Y434719D01*
X287364Y434229*
X285424Y433425*
X283633Y432328*
X282036Y430964*
X280672Y429367*
X279575Y427576*
X278771Y425636*
X278281Y423594*
X278116Y421500*
X278281Y419406*
X278771Y417364*
X279575Y415424*
X280672Y413633*
X282036Y412036*
X283633Y410672*
X285424Y409575*
X287364Y408771*
X289406Y408281*
X291500Y408116*
X293594Y408281*
X295636Y408771*
X297576Y409575*
X299367Y410672*
X300964Y412036*
X302328Y413633*
X303425Y415424*
X304229Y417364*
X304719Y419406*
X304884Y421500*
X304719Y423594*
X304229Y425636*
X303425Y427576*
X302328Y429367*
X300964Y430964*
X299367Y432328*
X297576Y433425*
X295636Y434229*
X293594Y434719*
X291500Y434884*
G37*
G36*
X143000Y340384D02*
X140906Y340219D01*
X138864Y339729*
X136924Y338925*
X135133Y337828*
X133536Y336464*
X132172Y334867*
X131075Y333076*
X130271Y331136*
X129781Y329094*
X129616Y327000*
X129781Y324906*
X130271Y322864*
X131075Y320924*
X132172Y319133*
X133536Y317536*
X135133Y316172*
X136924Y315075*
X138864Y314271*
X140906Y313781*
X143000Y313616*
X145094Y313781*
X147136Y314271*
X149076Y315075*
X150867Y316172*
X152464Y317536*
X153828Y319133*
X154925Y320924*
X155729Y322864*
X156219Y324906*
X156384Y327000*
X156219Y329094*
X155729Y331136*
X154925Y333076*
X153828Y334867*
X152464Y336464*
X150867Y337828*
X149076Y338925*
X147136Y339729*
X145094Y340219*
X143000Y340384*
G37*
G36*
X180500Y275384D02*
X178406Y275219D01*
X176364Y274729*
X174424Y273925*
X172633Y272828*
X171036Y271464*
X169672Y269867*
X168575Y268076*
X167771Y266136*
X167281Y264094*
X167116Y262000*
X167281Y259906*
X167771Y257864*
X168575Y255924*
X169672Y254133*
X171036Y252536*
X172633Y251172*
X174424Y250075*
X176364Y249271*
X178406Y248781*
X180500Y248616*
X182594Y248781*
X184636Y249271*
X186576Y250075*
X188367Y251172*
X189964Y252536*
X191328Y254133*
X192425Y255924*
X193229Y257864*
X193719Y259906*
X193884Y262000*
X193719Y264094*
X193229Y266136*
X192425Y268076*
X191328Y269867*
X189964Y271464*
X188367Y272828*
X186576Y273925*
X184636Y274729*
X182594Y275219*
X180500Y275384*
G37*
G36*
X141500D02*
X139406Y275219D01*
X137364Y274729*
X135424Y273925*
X133633Y272828*
X132036Y271464*
X130672Y269867*
X129575Y268076*
X128771Y266136*
X128281Y264094*
X128116Y262000*
X128281Y259906*
X128771Y257864*
X129575Y255924*
X130672Y254133*
X132036Y252536*
X133633Y251172*
X135424Y250075*
X137364Y249271*
X139406Y248781*
X141500Y248616*
X143594Y248781*
X145636Y249271*
X147576Y250075*
X149367Y251172*
X150964Y252536*
X152328Y254133*
X153425Y255924*
X154229Y257864*
X154719Y259906*
X154884Y262000*
X154719Y264094*
X154229Y266136*
X153425Y268076*
X152328Y269867*
X150964Y271464*
X149367Y272828*
X147576Y273925*
X145636Y274729*
X143594Y275219*
X141500Y275384*
G37*
G36*
X397500Y276935D02*
X395849Y276772D01*
X394262Y276290*
X392799Y275508*
X391516Y274456*
X390464Y273174*
X389682Y271711*
X389201Y270123*
X389038Y268472*
X389201Y266822*
X389682Y265234*
X390464Y263771*
X391516Y262489*
X392799Y261437*
X394262Y260655*
X395849Y260173*
X397500Y260010*
X399151Y260173*
X400738Y260655*
X402201Y261437*
X403483Y262489*
X404536Y263771*
X405318Y265234*
X405799Y266822*
X405962Y268472*
X405799Y270123*
X405318Y271711*
X404536Y273174*
X403483Y274456*
X402201Y275508*
X400738Y276290*
X399151Y276772*
X397500Y276935*
G37*
G36*
X397106Y297013D02*
X395455Y296851D01*
X393868Y296369*
X392405Y295587*
X391123Y294535*
X390070Y293252*
X389288Y291789*
X388807Y290202*
X388644Y288551*
X388807Y286900*
X389288Y285313*
X390070Y283850*
X391123Y282568*
X392405Y281515*
X393868Y280733*
X395455Y280252*
X397106Y280089*
X398757Y280252*
X400345Y280733*
X401807Y281515*
X403090Y282568*
X404142Y283850*
X404924Y285313*
X405406Y286900*
X405568Y288551*
X405406Y290202*
X404924Y291789*
X404142Y293252*
X403090Y294535*
X401807Y295587*
X400345Y296369*
X398757Y296851*
X397106Y297013*
G37*
G36*
X293000Y273922D02*
X291370Y273794D01*
X289779Y273412*
X288269Y272786*
X286874Y271932*
X285631Y270869*
X284569Y269626*
X283714Y268231*
X283088Y266721*
X282863Y265784*
X282349*
X282124Y266721*
X281499Y268231*
X280644Y269626*
X279582Y270869*
X278338Y271932*
X276944Y272786*
X275433Y273412*
X273843Y273794*
X272213Y273922*
X270582Y273794*
X268992Y273412*
X267481Y272786*
X266087Y271932*
X264843Y270869*
X263781Y269626*
X262927Y268231*
X262301Y266721*
X261919Y265130*
X261443*
X261061Y266721*
X260436Y268231*
X259581Y269626*
X258519Y270869*
X257275Y271932*
X255881Y272786*
X254370Y273412*
X252780Y273794*
X251150Y273922*
X249519Y273794*
X247929Y273412*
X246418Y272786*
X245024Y271932*
X243780Y270869*
X242718Y269626*
X241864Y268231*
X241238Y266721*
X240856Y265130*
X240728Y263500*
X240856Y261870*
X241238Y260279*
X241864Y258769*
X242718Y257374*
X243780Y256131*
X245024Y255068*
X246418Y254214*
X247929Y253588*
X249519Y253206*
X251150Y253078*
X252780Y253206*
X254370Y253588*
X255881Y254214*
X257275Y255068*
X258519Y256131*
X259581Y257374*
X260436Y258769*
X261061Y260279*
X261443Y261870*
X261919*
X262301Y260279*
X262927Y258769*
X263781Y257374*
X264843Y256131*
X266087Y255068*
X267481Y254214*
X268992Y253588*
X270582Y253206*
X272213Y253078*
X273843Y253206*
X275433Y253588*
X276944Y254214*
X278338Y255068*
X279582Y256131*
X280644Y257374*
X281499Y258769*
X282124Y260279*
X282349Y261216*
X282863*
X283088Y260279*
X283714Y258769*
X284569Y257374*
X285631Y256131*
X286874Y255068*
X288269Y254214*
X289779Y253588*
X291370Y253206*
X293000Y253078*
X294630Y253206*
X296220Y253588*
X297731Y254214*
X299126Y255068*
X300369Y256131*
X301431Y257374*
X302286Y258769*
X302912Y260279*
X303294Y261870*
X303422Y263500*
X303294Y265130*
X302912Y266721*
X302286Y268231*
X301431Y269626*
X300369Y270869*
X299126Y271932*
X297731Y272786*
X296220Y273412*
X294630Y273794*
X293000Y273922*
G37*
%LNcombined-3*%
%LPD*%
G54D16*
X525000Y739000D02*
X532500Y746500D01*
X495500Y796000D02*
X464000Y827500D01*
X560500Y834000D02*
X561000Y834500D01*
X560500Y834000D02*
X502000D01*
X494000Y842000*
X452500*
X438500Y828000D02*
X452500Y842000D01*
X416079Y700500D02*
X487000Y771421D01*
Y786000*
X492000Y791000*
X517000D02*
X492000D01*
X532500Y746500D02*
Y790500D01*
X527000Y796000D02*
X495500D01*
X530500Y792500D02*
X551500Y813500D01*
Y818500*
X557500Y824500*
X561000D02*
X557500D01*
X532500Y790500D02*
X530500Y792500D01*
X527000Y796000*
X499500Y358500D02*
X551000Y410000D01*
X499500Y243000D02*
Y358500D01*
Y243000D02*
X543000Y199500D01*
X565500Y410000D02*
X575500Y420000D01*
X551000Y410000D02*
X565500D01*
X661000Y236500D02*
Y258500D01*
X637500Y282000D02*
X661000Y258500D01*
X637500Y282000D02*
Y343000D01*
X672000Y384000D02*
X675000Y387000D01*
X703500*
X590000Y204000D02*
Y368500D01*
Y204000D02*
X632000Y162000D01*
X571500Y430500D02*
Y431000D01*
Y430500D02*
X575500Y426500D01*
Y420000D02*
Y426500D01*
X544000Y323500D02*
X574000Y353500D01*
Y355000*
X543000Y148500D02*
Y199500D01*
X652000Y161000D02*
X672000Y141000D01*
X652000Y161000D02*
Y162000D01*
X543000Y148500D02*
X567500Y124000D01*
X668000*
X672000Y128000*
Y141000*
G54D36*
X628500Y368500D02*
X634000Y363000D01*
X702000*
G54D37*
X373500Y257000D02*
Y376500D01*
X328500Y421500D02*
X373500Y376500D01*
X328500Y421500D02*
Y460500D01*
X445000Y247000D02*
X503000Y189000D01*
X373500Y257000D02*
X383500Y247000D01*
X445000*
X503000Y150000D02*
Y189000D01*
G54D38*
X353000Y798500D03*
X316000D03*
Y837500D03*
X353000D03*
X570000Y651500D03*
Y614500D03*
X531000D03*
Y651500D03*
X328500Y421500D03*
X291500D03*
Y460500D03*
X328500D03*
X143000Y327000D03*
Y364000D03*
X182000D03*
Y327000D03*
X180500Y262000D03*
Y225000D03*
X141500D03*
Y262000D03*
X180000Y181000D03*
Y144000D03*
X141000D03*
Y181000D03*
X503000Y150000D03*
X466000D03*
Y189000D03*
X503000D03*
G54D39*
X438500Y828000D03*
X464000Y827500D03*
X490000Y827000D03*
X701000Y457500D03*
X702000Y437500D03*
X702500Y413000D03*
X702000Y363000D03*
Y305500D03*
X703500Y236500D03*
X702500Y288000D03*
X703500Y387000D03*
X506500Y461000D03*
G54D40*
X571000Y804500D03*
G54D41*
X561000Y804500D03*
X571000Y814500D03*
X561000D03*
X571000Y824500D03*
X561000D03*
X571000Y834500D03*
X561000D03*
X648343Y459386D03*
Y449346D03*
Y420016D03*
Y400035D03*
X672000Y162000D03*
X662000Y172000D03*
Y162000D03*
X652000Y172000D03*
Y162000D03*
X642000Y172000D03*
Y162000D03*
X632000Y172000D03*
Y162000D03*
G54D42*
X416079Y700500D03*
Y600500D03*
G54D43*
X246000Y708925D03*
Y600500D03*
G54D44*
X540500Y745500D03*
X525000Y739000D03*
X517000Y791000D03*
X505500Y326000D03*
X511500Y328500D03*
X514500Y335000D03*
X519000Y340500D03*
X513000Y343500D03*
X508000Y339000D03*
X506500Y332000D03*
X589500Y488000D03*
X551000Y415000D03*
X637500Y343000D03*
X672000Y384000D03*
X571500Y431000D03*
X544000Y323000D03*
X574000Y355000D03*
X549362Y292362D03*
X559000Y309000D03*
X590000Y368500D03*
X628500D03*
X546000Y393500D03*
X524500Y424500D03*
X571980Y468480D03*
X520890Y347610D03*
G54D45*
X397500Y198000D03*
Y228709D03*
Y268472D03*
X397106Y288551D03*
X661000Y236500D03*
X659000Y291618D03*
G54D46*
X243150Y191000D03*
X264213D03*
X285000D03*
X251150Y263500D03*
X272213D03*
X293000D03*
G54D47*
X672000Y172000D03*
M02*