%FSLAX25Y25*%
%MOIN*%
%SFA1B1*%

%IPPOS*%
%ADD49C,0.003940*%
%ADD86C,0.001970*%
%LNcombined-1*%
%LPD*%
G54D49*
X362500Y525531D02*
Y529468D01*
X364469Y527500D02*
X360531D01*
X679032Y323000D02*
X682969D01*
X681000Y321031D02*
Y324969D01*
X676374Y313945D02*
Y332055D01*
X685626Y313945D02*
Y332055D01*
X676374D02*
X685626D01*
X676374Y313945D02*
X685626D01*
X596512Y477850D02*
Y484150D01*
X585488Y477850D02*
Y484150D01*
Y477850D02*
X596512D01*
X585488Y484150D02*
X596512D01*
X589032Y481000D02*
X592969D01*
X591000Y479032D02*
Y482969D01*
X666760Y418374D02*
X674240D01*
X666760Y402626D02*
X674240D01*
Y418374*
X666760Y402626D02*
Y418374D01*
X670500Y408532D02*
Y412468D01*
X668532Y410500D02*
X672469D01*
X682760Y416874D02*
X690240D01*
X682760Y401126D02*
X690240D01*
Y416874*
X682760Y401126D02*
Y416874D01*
X686500Y407031D02*
Y410968D01*
X684531Y409000D02*
X688469D01*
X663850Y461512D02*
X670150D01*
X663850Y450488D02*
X670150D01*
Y461512*
X663850Y450488D02*
Y461512D01*
X667000Y454032D02*
Y457969D01*
X665031Y456000D02*
X668968D01*
X676850Y461012D02*
X683150D01*
X676850Y449988D02*
X683150D01*
Y461012*
X676850Y449988D02*
Y461012D01*
X680000Y453532D02*
Y457469D01*
X678031Y455500D02*
X681968D01*
X531032Y342000D02*
X534969D01*
X533000Y340032D02*
Y343969D01*
X528374Y332945D02*
Y351055D01*
X537626Y332945D02*
Y351055D01*
X528374D02*
X537626D01*
X528374Y332945D02*
X537626D01*
X603260Y479374D02*
X610740D01*
X603260Y463626D02*
X610740D01*
Y479374*
X603260Y463626D02*
Y479374D01*
X607000Y469531D02*
Y473468D01*
X605031Y471500D02*
X608968D01*
X312032Y144500D02*
X315968D01*
X314000Y142532D02*
Y146468D01*
G54D86*
X389862Y519626D02*
X335138D01*
X389862Y535374D02*
X335138D01*
X389862Y519626D02*
Y535374D01*
X335138Y519626D02*
Y535374D01*
X336441Y136035D02*
Y152965D01*
X291559Y136035D02*
Y152965D01*
Y136035D02*
X336441D01*
X291559Y152965D02*
X336441D01*
M02*