%FSLAX25Y25*%
%MOIN*%
%SFA1B1*%

%IPPOS*%
%ADD10R,0.098420X0.098420*%
%ADD11R,0.051180X0.066930*%
%ADD12R,0.149610X0.107870*%
%ADD13R,0.023620X0.061020*%
%ADD14R,0.143700X0.137800*%
%ADD15C,0.100000*%
%ADD16C,0.030000*%
%ADD17C,0.020000*%
%ADD18C,0.050000*%
%ADD19C,0.010000*%
%ADD20R,0.059050X0.051180*%
%ADD21R,0.066930X0.051180*%
%ADD22R,0.072830X0.049210*%
%ADD23R,0.039370X0.059050*%
%ADD24R,0.027560X0.059050*%
%ADD25R,0.043310X0.055120*%
%ADD26R,0.051180X0.059050*%
%ADD27R,0.066930X0.043310*%
%ADD28R,0.055120X0.043310*%
%ADD29R,0.098420X0.098420*%
%ADD30R,0.059050X0.023620*%
%ADD31R,0.059050X0.072050*%
%ADD32R,0.078740X0.019680*%
%ADD33R,0.107870X0.149610*%
%ADD34R,0.061020X0.023620*%
%ADD35R,0.094490X0.149610*%
%ADD36C,0.040000*%
%ADD37C,0.200000*%
%ADD38C,0.196850*%
%ADD39C,0.070870*%
%ADD40R,0.059050X0.059050*%
%ADD41C,0.059050*%
%ADD42R,0.354330X0.354330*%
%ADD43R,0.472440X0.472440*%
%ADD44C,0.050000*%
%ADD45C,0.098420*%
%ADD46C,0.137800*%
%ADD47R,0.059050X0.059050*%
%LNcombined-1*%
%LPD*%
G36*
X329000Y727500D02*
X283000Y681500D01*
X202000*
Y834752*
X202481Y834888*
X202610Y834678*
X203793Y833293*
X205178Y832110*
X206731Y831158*
X208413Y830461*
X210184Y830036*
X212000Y829893*
X213816Y830036*
X215587Y830461*
X217269Y831158*
X218822Y832110*
X220207Y833293*
X221390Y834678*
X222342Y836231*
X223039Y837913*
X223464Y839684*
X223607Y841500*
X223464Y843316*
X223039Y845087*
X222453Y846500*
X222764Y847000*
X329000*
Y727500*
G37*
G36*
X512000Y775422D02*
X511861Y774720D01*
X512000Y774019*
Y770484*
X508291*
Y757697*
X512000*
Y754162*
X511861Y753461*
Y745591*
X512000Y744889*
Y740500*
X513000*
X519000Y734500*
Y697000*
X500000*
Y782500*
X512000*
Y775422*
G37*
G36*
X580000Y527919D02*
X579564Y527674D01*
X578598Y528266*
X576926Y528959*
X575165Y529382*
X573361Y529524*
X571556Y529382*
X569796Y528959*
X568124Y528266*
X566580Y527321*
X565204Y526145*
X564028Y524768*
X563083Y523225*
X562390Y521553*
X561967Y519793*
X561866Y518500*
X374500*
Y537840*
X433379Y579284*
X437295*
Y582040*
X506142Y630500*
X580000*
Y527919*
G37*
G36*
X349500Y594500D02*
Y518880D01*
X226126Y518035*
X225847Y518450*
X226039Y518913*
X226464Y520684*
X226607Y522500*
X226464Y524316*
X226039Y526087*
X225342Y527769*
X224390Y529322*
X223207Y530707*
X221822Y531890*
X220269Y532842*
X218587Y533539*
X216816Y533964*
X215000Y534107*
X213184Y533964*
X211413Y533539*
X209731Y532842*
X208178Y531890*
X206793Y530707*
X205610Y529322*
X204658Y527769*
X204000Y526180*
X203500Y526279*
Y649000*
X295000*
X349500Y594500*
G37*
G36*
X588665Y464248D02*
X589945Y462968D01*
Y453323*
X583252*
Y462968*
X584531Y464248*
Y471433*
X588665*
Y464248*
G37*
G36*
X708000Y464500D02*
Y450000D01*
X694500*
X688500Y456000*
X670756*
Y456213*
X663244*
Y456000*
X592229*
X591897Y456374*
X592500Y461500*
X602000Y471000*
X701500*
X708000Y464500*
G37*
G36*
X565000Y433549D02*
X558366D01*
X557391Y433355*
X556859Y433000*
X554500*
Y435750*
X553803Y436098*
Y436791*
X541016*
Y436500*
X541000*
Y434500*
X539500Y433000*
X537797*
X537755Y433028*
X536779Y433222*
X526673*
X525698Y433028*
X525656Y433000*
X522000*
Y432000*
X516488Y426488*
X492500*
X492010Y444142*
X492359Y444500*
X565000*
Y433549*
G37*
G36*
X709000Y393000D02*
Y383000D01*
Y381500*
X696500*
Y388500*
X686500Y398500*
X653000*
X652500Y399000*
Y408000*
X694000*
X709000Y393000*
G37*
G36*
X681500Y387000D02*
Y368000D01*
X666500*
X656000Y357500*
Y353000*
X648865Y352524*
X648500Y352866*
Y355764*
X648520Y355862*
Y371000*
X648500Y371098*
Y387000*
X649951Y388451*
X680049*
X681500Y387000*
G37*
G36*
X608538Y383538D02*
X608500Y383500D01*
Y371000*
X608191*
X608500Y370694*
Y328000*
X524000*
Y340000*
X593000Y343500*
X602000Y352500*
Y356516*
X602732*
Y360484*
X602000*
Y361516*
X602732*
Y365484*
X602000*
Y366516*
X602732*
Y370484*
X602946Y370896*
X603014Y371000*
X598041*
X597795Y371049*
X593451*
X592500Y372000*
X590230*
X590000Y372030*
X589771Y372000*
X585000*
Y366500*
X584050*
X578396Y365559*
X577153*
Y365352*
X551495Y361082*
X550972Y361392*
X550500Y368000*
X566500Y384000*
X608347*
X608538Y383538*
G37*
G36*
X583000Y302000D02*
Y295000D01*
X576000*
X574894Y296106*
Y298480*
X572520*
X572500Y298500*
Y300500*
X564500*
X562228Y298480*
X562106*
Y298372*
X560000Y296500*
X545500*
X536346Y287347*
X535847Y287554*
Y287559*
X527153*
Y287000*
X505000*
Y306000*
X557500*
X559500Y304000*
X562000Y306500*
X578500*
X583000Y302000*
G37*
G36*
X647500Y371000D02*
Y370900D01*
Y355963*
Y355862*
X647315*
Y351500*
X647500*
Y349681*
X647315*
Y345319*
X647500*
Y344000*
X653500*
X657500Y340000*
Y334000*
X661000*
X663941Y331059*
Y324153*
X664000*
Y323000*
X675500*
X676500Y322000*
X692000*
X708000Y306000*
Y302500*
X676500*
X642000Y337000*
Y367000*
X636000*
X629500Y373500*
X627000*
X626000Y372500*
X614500*
Y378500*
X620000Y384000*
X634500*
X647500Y371000*
G37*
G36*
X282500Y276000D02*
X244187D01*
X192000Y207557*
Y166000*
X125500*
Y240500*
X187475*
X205000Y258939*
Y301500*
X210000Y306500*
X282500*
Y276000*
G37*
G36*
X276000Y207000D02*
Y196198D01*
X275714Y195731*
X275088Y194220*
X274706Y192630*
X274578Y191000*
X274706Y189370*
X275088Y187779*
X275714Y186269*
X276000Y185802*
Y178500*
X296000Y158500*
X312500*
Y113000*
X310500Y111000*
X123940*
Y156000*
X246500*
Y177000*
X254000Y184500*
Y207000*
X276000*
G37*
G54D10*
X507500Y720500D03*
X529500D03*
G54D11*
X515500Y703500D03*
X523500D03*
X667500Y328500D03*
X659500D03*
G54D12*
X516772Y764091D03*
G54D13*
X509390Y774720D03*
X514409D03*
X519429D03*
X524449D03*
Y753461D03*
X519429D03*
X514409D03*
X509390D03*
G54D14*
X381594Y527500D03*
X343406D03*
G54D15*
X241000Y708925D02*
X316000Y783925D01*
X570000Y614500D02*
X531000D01*
X316000Y798500D02*
Y837500D01*
Y783925D02*
Y798500D01*
X343406Y527500D02*
X319000D01*
X246000Y600500*
X444000Y527500D02*
X381594D01*
X444000D02*
X531000Y614500D01*
X243150Y191000D02*
Y218150D01*
X251150Y226150*
Y263350*
X180500Y225000D02*
X243000Y287500D01*
X267500*
X272213Y282787*
Y263500D02*
Y282787D01*
G54D16*
X510000Y709000D02*
Y752850D01*
X525000Y804500D02*
X511500D01*
X502500Y795500D02*
X511500Y804500D01*
X502500Y767831D02*
Y795500D01*
X561000Y804500D02*
X525000D01*
X533000Y812500*
Y818500*
X524449Y774000D02*
X523429D01*
X551000D02*
X524449D01*
X529000Y721000D02*
X532000Y724000D01*
X457000Y617000D02*
X523500Y683500D01*
X416079Y600500D02*
X432579Y617000D01*
X457000D02*
X432579D01*
X523500Y683500D02*
Y703500D01*
X532000Y724000D02*
Y737500D01*
X533000Y738500D02*
X539500Y745000D01*
X525000Y739000D02*
X521000D01*
X514409Y745591*
X507539Y753461D02*
X502500Y758500D01*
X509390Y753461D02*
X507539D01*
X515500Y703500D02*
X510000Y709000D01*
X502500Y767831D02*
X509390Y774720D01*
X502500Y758500D02*
Y767831D01*
X514409Y745591D02*
Y753461D01*
X533000Y818500D02*
X524500Y827000D01*
X490000*
X524449Y753461D02*
X519429D01*
Y761433*
X517091Y763772*
X533000Y738500D02*
Y744909D01*
X524449Y753461*
X532000Y737500D02*
X533000Y738500D01*
X571000Y794000D02*
Y804500D01*
X551000Y774000D02*
X571000Y794000D01*
X523429Y770953D02*
Y774000D01*
X521646Y769169D02*
X523429Y770953D01*
X524449Y774000D02*
Y774720D01*
X516772Y764091D02*
X521748Y769067D01*
X517000Y775721D02*
Y791000D01*
X519429Y774720D02*
X514409D01*
X666500Y452547D02*
X680000D01*
X648343Y459386D02*
X679067D01*
X571980Y468480D02*
X580693D01*
X560823Y282323D02*
X565842Y287343D01*
X568500Y290000*
X557870Y287343D02*
X565842D01*
X668000Y329000D02*
Y347500D01*
X667610Y328610D02*
X668000Y329000D01*
X566500Y422500D02*
X574000Y415000D01*
X573500Y406000D02*
Y414500D01*
X543500Y376000D02*
X573500Y406000D01*
X543500Y358500D02*
Y376000D01*
X547409Y418590D02*
X551000Y415000D01*
X547409Y418590D02*
Y428311D01*
X664500Y371000D02*
X671500D01*
X672000Y371500*
Y384000*
X687500Y368000D02*
Y385500D01*
X682000Y391000D02*
X687500Y385500D01*
X643000Y391000D02*
X682000D01*
X639000Y395000D02*
X643000Y391000D01*
X686815Y403685D02*
X703500Y387000D01*
X686500Y403685D02*
X686815D01*
X594250Y378750D02*
X597795Y375205D01*
X593000Y380000D02*
X594250Y378750D01*
X702500Y413000D02*
Y414500D01*
X685500Y431500D02*
X702500Y414500D01*
X651000Y431500D02*
X685500D01*
X598250Y378750D02*
X651000Y431500D01*
X594250Y378750D02*
X598250D01*
X686953Y452547D02*
X702000Y437500D01*
X680000Y452547D02*
X686953D01*
X700047Y458453D02*
X701000Y457500D01*
X680000Y458453D02*
X700047D01*
X661000Y236500D02*
X703500D01*
X698882Y291618D02*
X702500Y288000D01*
X659000Y291618D02*
X698882D01*
X574000Y415000D02*
X618500D01*
X558039Y430673D02*
X558366Y431000D01*
X571500*
X544000Y323000D02*
Y323500D01*
X635000Y250000D02*
X648500Y236500D01*
X626000Y259000D02*
X635000Y250000D01*
Y268260*
X626500Y276760D02*
X635000Y268260D01*
X615500Y268000D02*
X616500Y267000D01*
X615500Y268000D02*
Y276760D01*
X633878Y291618D02*
X659000D01*
X626500Y284240D02*
X633878Y291618D01*
X615500Y284240D02*
X626500D01*
X606240Y293500D02*
X615500Y284240D01*
X648500Y236500D02*
X661000D01*
X616500Y259000D02*
X626000D01*
X602453D02*
X616500D01*
X579130Y282323D02*
X602453Y259000D01*
X597622Y292362D02*
X598760Y293500D01*
X579130Y292362D02*
X597622D01*
X579130Y287343D02*
Y292362D01*
X576177Y282323D02*
X579130D01*
X568500Y290000D02*
X576177Y282323D01*
X557870D02*
X560823D01*
X579130Y297382D02*
Y298370D01*
X573500Y304000D02*
X579130Y298370D01*
X563500Y304000D02*
X573500D01*
X557870Y298370D02*
X563500Y304000D01*
X557870Y297382D02*
Y298370D01*
X547000Y299000D02*
X556252D01*
X542500D02*
X547000D01*
Y301000*
X550500Y304500*
X554500*
X559000Y309000*
X547177Y282323D02*
X557870D01*
X545500Y284000D02*
X547177Y282323D01*
X531500Y284000D02*
X545500D01*
X524000Y276500D02*
X531500Y284000D01*
X515000Y276500D02*
X524000D01*
X556252Y299000D02*
X557870Y297382D01*
X535500Y292000D02*
X542500Y299000D01*
X531500Y292000D02*
X535500D01*
X525000Y298500D02*
X531500Y292000D01*
X515000Y298500D02*
X525000D01*
X634500Y356000D02*
X637500Y359000D01*
Y363000*
Y343000D02*
Y359000D01*
X641500Y371000D02*
X645500Y367000D01*
Y342500D02*
Y367000D01*
Y342500D02*
X646681Y341319D01*
X651268*
X637500Y371000D02*
X641500D01*
X690110Y317390D02*
X702000Y305500D01*
X681000Y317390D02*
X690110D01*
X680000Y363000D02*
X682500D01*
X687500Y368000*
X639000Y395000D02*
Y410673D01*
X648343Y420016*
X651268Y357768D02*
X664500Y371000D01*
X651268Y353681D02*
Y357768D01*
Y347500D02*
X668000D01*
X678390Y320000D02*
X681000Y317390D01*
X660500Y320000D02*
X678390D01*
X660500D02*
Y327500D01*
X659500Y328500D02*
X660500Y327500D01*
X651268Y336732D02*
X659500Y328500D01*
X651268Y336732D02*
Y341319D01*
X680610Y329000D02*
X681000Y328610D01*
X668000Y329000D02*
X680610D01*
X668000Y347500D02*
X676000Y355500D01*
Y363000*
X590000Y368500D02*
X597795D01*
X629000Y355500D02*
X634000D01*
X626000Y358500D02*
X629000Y355500D01*
X622205Y358500D02*
X626000D01*
X637500Y371000D02*
Y376000D01*
X634500Y379000D02*
X637500Y376000D01*
X634295Y378795D02*
X634500Y379000D01*
X627500Y378795D02*
X634295D01*
X622205Y373500D02*
X627500Y378795D01*
X597795Y357795D02*
Y358500D01*
X594500Y354500D02*
X597795Y357795D01*
X582000Y342000D02*
X582500Y341500D01*
X594500*
X604500Y351500*
Y371500*
X602500Y373500D02*
X604500Y371500D01*
X597795Y373500D02*
X602500D01*
X560232Y352319D02*
X571319D01*
X574000Y355000*
X576390Y336390D02*
X582000Y342000D01*
X533000Y336390D02*
X576390D01*
X581000Y361500D02*
X581500Y362000D01*
X571000Y361500D02*
X581000D01*
X568000Y358500D02*
X571000Y361500D01*
X560232Y358500D02*
X568000D01*
X597795Y373500D02*
Y375205D01*
X586000Y380000D02*
X593000D01*
X580500Y371000D02*
Y374500D01*
X586000Y380000*
X591500Y354500D02*
X594500D01*
X584000Y362000D02*
X591500Y354500D01*
X581500Y362000D02*
X584000D01*
X581500Y350500D02*
X582000Y350000D01*
X581500Y350500D02*
Y362000D01*
X570500Y371000D02*
X580500D01*
X564181Y364681D02*
X570500Y371000D01*
X560232Y364681D02*
X564181D01*
X543500Y358500D02*
X560232D01*
X533000Y347610D02*
X539610D01*
X543000Y351000*
Y358000*
X543500Y358500*
X534500Y367500D02*
X543500Y358500D01*
X534500Y367500D02*
Y375500D01*
Y383500D02*
X536000D01*
X546000Y393500*
X546500Y442500D02*
X552500D01*
X540500D02*
X546500D01*
Y445000*
X541500Y450000D02*
X546500Y445000D01*
X541500Y450000D02*
Y464000D01*
X552240Y474740*
X558500*
X536779Y425654D02*
Y430673D01*
X526673D02*
X536779D01*
X524500Y428500D02*
X526673Y430673D01*
X524500Y424500D02*
Y428500D01*
X532146Y416000D02*
X536779Y420634D01*
X523000Y416000D02*
X532146D01*
X516500Y422500D02*
X523000Y416000D01*
X514500Y422500D02*
X516500D01*
X507000Y415000D02*
X514500Y422500D01*
X499000Y415000D02*
X507000D01*
X529500Y441000D02*
X534807Y435693D01*
X525000Y441000D02*
X529500D01*
X514500Y430500D02*
X525000Y441000D01*
X534807Y435693D02*
X536779D01*
X508000Y437000D02*
X514500Y430500D01*
X499000Y437000D02*
X508000D01*
X558039Y435693D02*
Y436961D01*
X552500Y442500D02*
X558039Y436961D01*
X536779Y438779D02*
X540500Y442500D01*
X536779Y435693D02*
Y438779D01*
X550067Y425654D02*
X558039D01*
Y424000D02*
Y425654D01*
Y420634D02*
Y424000D01*
X559539Y422500*
X566500*
X618500Y415000D02*
X621000Y417500D01*
Y427000*
X616260Y431740D02*
X621000Y427000D01*
X606000Y431740D02*
X616260D01*
X547409Y428311D02*
X550067Y425654D01*
X539732Y420634D02*
X547409Y428311D01*
X536779Y420634D02*
X539732D01*
X592000Y439000D02*
Y444000D01*
Y439000D02*
X599260Y431740D01*
X606000*
X591240Y424260D02*
X606000D01*
X580693Y434807D02*
X591240Y424260D01*
X580693Y434807D02*
Y456276D01*
X558500Y464500D02*
Y467260D01*
Y464500D02*
X566724Y456276D01*
X558500Y474740D02*
X589760D01*
X592504Y471996*
Y468480D02*
Y471996D01*
X566724Y456276D02*
X580693D01*
X607000Y460000D02*
Y466185D01*
X603276Y456276D02*
X607000Y460000D01*
X592504Y456276D02*
X603276D01*
X641543Y466185D02*
X648343Y459386D01*
X607000Y466185D02*
X641543D01*
X606000Y477815D02*
X607000Y476815D01*
X606000Y477815D02*
Y482500D01*
X605500D02*
X606000D01*
X601000Y487000D02*
X605500Y482500D01*
X590000Y487000D02*
X601000D01*
X588047Y485047D02*
X590000Y487000D01*
X588047Y481000D02*
Y485047D01*
X592504Y468480D02*
X594480D01*
X597500Y471500*
Y477453*
X593953Y481000D02*
X597500Y477453D01*
X645847Y449346D02*
X648343D01*
X640500Y444000D02*
X645847Y449346D01*
X592000Y444000D02*
X640500D01*
X586992Y449008D02*
X592000Y444000D01*
X586992Y449008D02*
Y457063D01*
X685000Y405185D02*
X686500Y403685D01*
X670500Y405185D02*
X685000D01*
X665350Y400035D02*
X670500Y405185D01*
X648343Y400035D02*
X665350D01*
X670500Y415815D02*
X672000Y414315D01*
X666299Y420016D02*
X670500Y415815D01*
X672000Y414315D02*
X686500D01*
X648343Y420016D02*
X666299D01*
X663299Y449346D02*
X666500Y452547D01*
X648343Y449346D02*
X663299D01*
X520890Y347610D02*
X533000D01*
G54D17*
X540500Y744000D02*
X539500Y745000D01*
X540500Y744000D02*
Y745500D01*
G54D18*
X523500Y703500D02*
Y714500D01*
X529500Y720500*
X441000Y249500D02*
X507000Y315500D01*
X307000Y249500D02*
X441000D01*
X293000Y263500D02*
X307000Y249500D01*
X588500Y315500D02*
X606240Y297760D01*
X507000Y315500D02*
X588500D01*
X293000Y199000D02*
Y263500D01*
X285000Y191000D02*
X293000Y199000D01*
X606240Y293500D02*
Y297760D01*
G54D19*
X510000Y752850D02*
X509390Y753461D01*
G54D20*
X626500Y284240D03*
Y276760D03*
X615500Y284240D03*
Y276760D03*
X606000Y431740D03*
Y424260D03*
X558500Y467260D03*
Y474740D03*
G54D21*
X616500Y267000D03*
Y259000D03*
X676000Y363000D03*
Y371000D03*
X581500Y370000D03*
Y362000D03*
X531500Y292000D03*
Y284000D03*
X514500Y430500D03*
Y422500D03*
X582000Y350000D03*
Y342000D03*
X534500Y375500D03*
Y383500D03*
X637500Y371000D03*
Y363000D03*
G54D22*
X681000Y328610D03*
Y317390D03*
X533000Y347610D03*
Y336390D03*
G54D23*
X586992Y457063D03*
X580693Y468480D03*
X592504D03*
G54D24*
X580693Y456276D03*
X592504D03*
G54D25*
X593953Y481000D03*
X588047D03*
G54D26*
X606240Y293500D03*
X598760D03*
G54D27*
X670500Y415815D03*
Y405185D03*
X686500Y414315D03*
Y403685D03*
X607000Y476815D03*
Y466185D03*
G54D28*
X667000Y458953D03*
Y453047D03*
X680000Y458453D03*
Y452547D03*
G54D29*
X515000Y276500D03*
Y298500D03*
X499000Y415000D03*
Y437000D03*
G54D30*
X651268Y341319D03*
Y347500D03*
Y353681D03*
X560232Y364681D03*
Y358500D03*
Y352319D03*
G54D31*
X668000Y347500D03*
X543500Y358500D03*
G54D32*
X622205Y373500D03*
Y368500D03*
Y363500D03*
Y358500D03*
X597795D03*
Y363500D03*
Y368500D03*
Y373500D03*
G54D33*
X547409Y428311D03*
X568500Y290000D03*
G54D34*
X536779Y435693D03*
Y430673D03*
Y425654D03*
Y420634D03*
X558039D03*
Y425654D03*
Y430673D03*
Y435693D03*
X579130Y297382D03*
Y292362D03*
Y287343D03*
Y282323D03*
X557870D03*
Y287343D03*
Y292362D03*
Y297382D03*
G54D35*
X330634Y144500D03*
X297366D03*
G54D36*
X549362Y292362D02*
X557870D01*
X622205Y368500D02*
X628500D01*
G54D37*
X291500Y421500D02*
Y460500D01*
X197000Y327000D02*
X291500Y421500D01*
X182000Y327000D02*
X197000D01*
X143000D02*
X182000D01*
X120500Y346000D02*
X138500Y364000D01*
X120500Y283500D02*
Y346000D01*
Y283500D02*
X141500Y262500D01*
Y262000D02*
Y262500D01*
X138500Y364000D02*
X143000D01*
X182000*
X141500Y262000D02*
X180500D01*
X141000Y181000D02*
X180000D01*
X141000D02*
Y224500D01*
X141500Y225000*
X173000*
X141000Y144000D02*
X180000D01*
X252000*
X296866*
X297366Y144500*
X252000Y144000D02*
X264213Y156213D01*
Y191000*
X330634Y144500D02*
Y190134D01*
X360500Y220000*
X388791*
X397500Y228709*
Y198000D02*
X406500Y189000D01*
X466000*
Y150000D02*
Y189000D01*
G54D38*
X353000Y798500D03*
X316000D03*
Y837500D03*
X353000D03*
X570000Y651500D03*
Y614500D03*
X531000D03*
Y651500D03*
X328500Y421500D03*
X291500D03*
Y460500D03*
X328500D03*
X143000Y327000D03*
Y364000D03*
X182000D03*
Y327000D03*
X180500Y262000D03*
Y225000D03*
X141500D03*
Y262000D03*
X180000Y181000D03*
Y144000D03*
X141000D03*
Y181000D03*
X503000Y150000D03*
X466000D03*
Y189000D03*
X503000D03*
G54D39*
X438500Y828000D03*
X464000Y827500D03*
X490000Y827000D03*
X701000Y457500D03*
X702000Y437500D03*
X702500Y413000D03*
X702000Y363000D03*
Y305500D03*
X703500Y236500D03*
X702500Y288000D03*
X703500Y387000D03*
X506500Y461000D03*
G54D40*
X571000Y804500D03*
G54D41*
X561000Y804500D03*
X571000Y814500D03*
X561000D03*
X571000Y824500D03*
X561000D03*
X571000Y834500D03*
X561000D03*
X648343Y459386D03*
Y449346D03*
Y420016D03*
Y400035D03*
X672000Y162000D03*
X662000Y172000D03*
Y162000D03*
X652000Y172000D03*
Y162000D03*
X642000Y172000D03*
Y162000D03*
X632000Y172000D03*
Y162000D03*
G54D42*
X416079Y700500D03*
Y600500D03*
G54D43*
X246000Y708925D03*
Y600500D03*
G54D44*
X540500Y745500D03*
X525000Y739000D03*
X517000Y791000D03*
X505500Y326000D03*
X511500Y328500D03*
X514500Y335000D03*
X519000Y340500D03*
X513000Y343500D03*
X508000Y339000D03*
X506500Y332000D03*
X589500Y488000D03*
X551000Y415000D03*
X637500Y343000D03*
X672000Y384000D03*
X571500Y431000D03*
X544000Y323000D03*
X574000Y355000D03*
X549362Y292362D03*
X559000Y309000D03*
X590000Y368500D03*
X628500D03*
X546000Y393500D03*
X524500Y424500D03*
X571980Y468480D03*
X520890Y347610D03*
G54D45*
X397500Y198000D03*
Y228709D03*
Y268472D03*
X397106Y288551D03*
X661000Y236500D03*
X659000Y291618D03*
G54D46*
X243150Y191000D03*
X264213D03*
X285000D03*
X251150Y263500D03*
X272213D03*
X293000D03*
G54D47*
X672000Y172000D03*
M02*