%FSLAX25Y25*%
%MOIN*%
%SFA1B1*%

%IPPOS*%
%ADD75C,0.008000*%
%ADD76C,0.204850*%
%ADD77C,0.078870*%
%ADD78R,0.067060X0.067060*%
%ADD79C,0.067060*%
%ADD80R,0.362330X0.362330*%
%ADD81R,0.480440X0.480440*%
%ADD82C,0.058000*%
%ADD83C,0.106420*%
%ADD84C,0.145790*%
%ADD85R,0.067060X0.067060*%
%LNcombined-1*%
%LPD*%
G54D75*
X573361Y517988D03*
X510000Y844500D03*
X215000Y522500D03*
X212000Y841500D03*
X698500Y118500D03*
X112000Y120000D03*
X120000Y473000D03*
X698000Y484500D03*
G54D76*
X353000Y798500D03*
X316000D03*
Y837500D03*
X353000D03*
X570000Y651500D03*
Y614500D03*
X531000D03*
Y651500D03*
X328500Y421500D03*
X291500D03*
Y460500D03*
X328500D03*
X143000Y327000D03*
Y364000D03*
X182000D03*
Y327000D03*
X180500Y262000D03*
Y225000D03*
X141500D03*
Y262000D03*
X180000Y181000D03*
Y144000D03*
X141000D03*
Y181000D03*
X503000Y150000D03*
X466000D03*
Y189000D03*
X503000D03*
G54D77*
X438500Y828000D03*
X464000Y827500D03*
X490000Y827000D03*
X701000Y457500D03*
X702000Y437500D03*
X702500Y413000D03*
X702000Y363000D03*
Y305500D03*
X703500Y236500D03*
X702500Y288000D03*
X703500Y387000D03*
X506500Y461000D03*
G54D78*
X571000Y804500D03*
G54D79*
X561000Y804500D03*
X571000Y814500D03*
X561000D03*
X571000Y824500D03*
X561000D03*
X571000Y834500D03*
X561000D03*
X648343Y459386D03*
Y449346D03*
Y420016D03*
Y400035D03*
X672000Y162000D03*
X662000Y172000D03*
Y162000D03*
X652000Y172000D03*
Y162000D03*
X642000Y172000D03*
Y162000D03*
X632000Y172000D03*
Y162000D03*
G54D80*
X416079Y700500D03*
Y600500D03*
G54D81*
X246000Y708925D03*
Y600500D03*
G54D82*
X540500Y745500D03*
X525000Y739000D03*
X517000Y791000D03*
X505500Y326000D03*
X511500Y328500D03*
X514500Y335000D03*
X519000Y340500D03*
X513000Y343500D03*
X508000Y339000D03*
X506500Y332000D03*
X589500Y488000D03*
X551000Y415000D03*
X637500Y343000D03*
X672000Y384000D03*
X571500Y431000D03*
X544000Y323000D03*
X574000Y355000D03*
X549362Y292362D03*
X559000Y309000D03*
X590000Y368500D03*
X628500D03*
X546000Y393500D03*
X524500Y424500D03*
X571980Y468480D03*
X520890Y347610D03*
G54D83*
X397500Y198000D03*
Y228709D03*
Y268472D03*
X397106Y288551D03*
X661000Y236500D03*
X659000Y291618D03*
G54D84*
X243150Y191000D03*
X264213D03*
X285000D03*
X251150Y263500D03*
X272213D03*
X293000D03*
G54D85*
X672000Y172000D03*
M02*