%FSLAX25Y25*%
%MOIN*%
%SFA1B1*%

%IPPOS*%
%ADD10R,0.098420X0.098420*%
%ADD11R,0.051180X0.066930*%
%ADD12R,0.149610X0.107870*%
%ADD13R,0.023620X0.061020*%
%ADD14R,0.143700X0.137800*%
%ADD20R,0.059050X0.051180*%
%ADD21R,0.066930X0.051180*%
%ADD22R,0.072830X0.049210*%
%ADD23R,0.039370X0.059050*%
%ADD24R,0.027560X0.059050*%
%ADD25R,0.043310X0.055120*%
%ADD26R,0.051180X0.059050*%
%ADD27R,0.066930X0.043310*%
%ADD28R,0.055120X0.043310*%
%ADD29R,0.098420X0.098420*%
%ADD30R,0.059050X0.023620*%
%ADD31R,0.059050X0.072050*%
%ADD32R,0.078740X0.019680*%
%ADD33R,0.107870X0.149610*%
%ADD34R,0.061020X0.023620*%
%ADD35R,0.094490X0.149610*%
%ADD38C,0.196850*%
%ADD39C,0.070870*%
%ADD40R,0.059050X0.059050*%
%ADD41C,0.059050*%
%ADD42R,0.354330X0.354330*%
%ADD43R,0.472440X0.472440*%
%ADD45C,0.098420*%
%ADD46C,0.137800*%
%ADD47R,0.059050X0.059050*%
%LNcombined-1*%
%LPD*%
G54D10*
X507500Y720500D03*
X529500D03*
G54D11*
X515500Y703500D03*
X523500D03*
X667500Y328500D03*
X659500D03*
G54D12*
X516772Y764091D03*
G54D13*
X509390Y774720D03*
X514409D03*
X519429D03*
X524449D03*
Y753461D03*
X519429D03*
X514409D03*
X509390D03*
G54D14*
X381594Y527500D03*
X343406D03*
G54D20*
X626500Y284240D03*
Y276760D03*
X615500Y284240D03*
Y276760D03*
X606000Y431740D03*
Y424260D03*
X558500Y467260D03*
Y474740D03*
G54D21*
X616500Y267000D03*
Y259000D03*
X676000Y363000D03*
Y371000D03*
X581500Y370000D03*
Y362000D03*
X531500Y292000D03*
Y284000D03*
X514500Y430500D03*
Y422500D03*
X582000Y350000D03*
Y342000D03*
X534500Y375500D03*
Y383500D03*
X637500Y371000D03*
Y363000D03*
G54D22*
X681000Y328610D03*
Y317390D03*
X533000Y347610D03*
Y336390D03*
G54D23*
X586992Y457063D03*
X580693Y468480D03*
X592504D03*
G54D24*
X580693Y456276D03*
X592504D03*
G54D25*
X593953Y481000D03*
X588047D03*
G54D26*
X606240Y293500D03*
X598760D03*
G54D27*
X670500Y415815D03*
Y405185D03*
X686500Y414315D03*
Y403685D03*
X607000Y476815D03*
Y466185D03*
G54D28*
X667000Y458953D03*
Y453047D03*
X680000Y458453D03*
Y452547D03*
G54D29*
X515000Y276500D03*
Y298500D03*
X499000Y415000D03*
Y437000D03*
G54D30*
X651268Y341319D03*
Y347500D03*
Y353681D03*
X560232Y364681D03*
Y358500D03*
Y352319D03*
G54D31*
X668000Y347500D03*
X543500Y358500D03*
G54D32*
X622205Y373500D03*
Y368500D03*
Y363500D03*
Y358500D03*
X597795D03*
Y363500D03*
Y368500D03*
Y373500D03*
G54D33*
X547409Y428311D03*
X568500Y290000D03*
G54D34*
X536779Y435693D03*
Y430673D03*
Y425654D03*
Y420634D03*
X558039D03*
Y425654D03*
Y430673D03*
Y435693D03*
X579130Y297382D03*
Y292362D03*
Y287343D03*
Y282323D03*
X557870D03*
Y287343D03*
Y292362D03*
Y297382D03*
G54D35*
X330634Y144500D03*
X297366D03*
G54D38*
X353000Y798500D03*
X316000D03*
Y837500D03*
X353000D03*
X570000Y651500D03*
Y614500D03*
X531000D03*
Y651500D03*
X328500Y421500D03*
X291500D03*
Y460500D03*
X328500D03*
X143000Y327000D03*
Y364000D03*
X182000D03*
Y327000D03*
X180500Y262000D03*
Y225000D03*
X141500D03*
Y262000D03*
X180000Y181000D03*
Y144000D03*
X141000D03*
Y181000D03*
X503000Y150000D03*
X466000D03*
Y189000D03*
X503000D03*
G54D39*
X438500Y828000D03*
X464000Y827500D03*
X490000Y827000D03*
X701000Y457500D03*
X702000Y437500D03*
X702500Y413000D03*
X702000Y363000D03*
Y305500D03*
X703500Y236500D03*
X702500Y288000D03*
X703500Y387000D03*
X506500Y461000D03*
G54D40*
X571000Y804500D03*
G54D41*
X561000Y804500D03*
X571000Y814500D03*
X561000D03*
X571000Y824500D03*
X561000D03*
X571000Y834500D03*
X561000D03*
X648343Y459386D03*
Y449346D03*
Y420016D03*
Y400035D03*
X672000Y162000D03*
X662000Y172000D03*
Y162000D03*
X652000Y172000D03*
Y162000D03*
X642000Y172000D03*
Y162000D03*
X632000Y172000D03*
Y162000D03*
G54D42*
X416079Y700500D03*
Y600500D03*
G54D43*
X246000Y708925D03*
Y600500D03*
G54D45*
X397500Y198000D03*
Y228709D03*
Y268472D03*
X397106Y288551D03*
X661000Y236500D03*
X659000Y291618D03*
G54D46*
X243150Y191000D03*
X264213D03*
X285000D03*
X251150Y263500D03*
X272213D03*
X293000D03*
G54D47*
X672000Y172000D03*
M02*