%FSLAX25Y25*%
%MOIN*%
%SFA1B1*%

%IPPOS*%
%ADD15C,0.100000*%
%ADD16C,0.030000*%
%ADD17C,0.020000*%
%ADD36C,0.040000*%
%ADD39C,0.070870*%
%ADD40R,0.059050X0.059050*%
%ADD41C,0.059050*%
%ADD44C,0.050000*%
%ADD45C,0.098420*%
%ADD46C,0.137800*%
%ADD47R,0.059050X0.059050*%
%LNcombined-1*%
%LPD*%
G36*
X500666Y846376D02*
X501092Y845876D01*
X500956Y844500*
X501130Y842736*
X501645Y841039*
X502481Y839476*
X503605Y838105*
X504976Y836981*
X506539Y836145*
X508236Y835630*
X510000Y835456*
X511764Y835630*
X513461Y836145*
X515024Y836981*
X516395Y838105*
X517519Y839476*
X518355Y841039*
X518870Y842736*
X519043Y844500*
X518908Y845876*
X519334Y846376*
X579500*
Y693151*
X579145Y692799*
X515000Y693376*
X489956Y692699*
X489598Y693048*
Y822091*
X489974Y822421*
X490000Y822418*
X491186Y822574*
X492291Y823032*
X493240Y823760*
X493968Y824709*
X494426Y825814*
X494583Y827000*
X494426Y828186*
X493968Y829291*
X493240Y830240*
X492291Y830969*
X491186Y831426*
X490000Y831583*
X489974Y831579*
X489598Y831909*
Y846376*
X500666*
G37*
%LNcombined-2*%
%LPC*%
G36*
X557013Y824500D02*
X557149Y823468D01*
X557547Y822507*
X558181Y821681*
X559007Y821047*
X559968Y820649*
X561000Y820513*
X562032Y820649*
X562993Y821047*
X563819Y821681*
X564453Y822507*
X564851Y823468*
X564987Y824500*
X564851Y825532*
X564453Y826493*
X563819Y827319*
X562993Y827953*
X562032Y828351*
X561000Y828487*
X559968Y828351*
X559007Y827953*
X558181Y827319*
X557547Y826493*
X557149Y825532*
X557013Y824500*
G37*
G36*
Y804500D02*
X557149Y803468D01*
X557547Y802507*
X558181Y801681*
X559007Y801047*
X559968Y800649*
X561000Y800513*
X562032Y800649*
X562993Y801047*
X563819Y801681*
X564453Y802507*
X564851Y803468*
X564987Y804500*
X564851Y805532*
X564453Y806493*
X563819Y807319*
X562993Y807953*
X562032Y808351*
X561000Y808487*
X559968Y808351*
X559007Y807953*
X558181Y807319*
X557547Y806493*
X557149Y805532*
X557013Y804500*
G37*
G36*
X513470Y791000D02*
X513590Y790086D01*
X513943Y789235*
X514504Y788504*
X515235Y787943*
X516086Y787590*
X517000Y787470*
X517914Y787590*
X518765Y787943*
X519496Y788504*
X520057Y789235*
X520410Y790086*
X520530Y791000*
X520410Y791914*
X520057Y792765*
X519496Y793496*
X518765Y794057*
X517914Y794410*
X517000Y794530*
X516086Y794410*
X515235Y794057*
X514504Y793496*
X513943Y792765*
X513590Y791914*
X513470Y791000*
G37*
G36*
X521470Y739000D02*
X521590Y738086D01*
X521943Y737235*
X522504Y736504*
X523235Y735943*
X524086Y735590*
X525000Y735470*
X525914Y735590*
X526765Y735943*
X527496Y736504*
X528057Y737235*
X528410Y738086*
X528530Y739000*
X528410Y739914*
X528057Y740765*
X527496Y741496*
X526765Y742057*
X525914Y742410*
X525000Y742530*
X524086Y742410*
X523235Y742057*
X522504Y741496*
X521943Y740765*
X521590Y739914*
X521470Y739000*
G37*
%LNcombined-3*%
%LPD*%
G54D15*
X511500Y338221D02*
X520890Y347610D01*
X511500Y333000D02*
Y338221D01*
X499500Y321000D02*
X511500Y333000D01*
X499500Y243500D02*
Y321000D01*
Y243500D02*
X543000Y200000D01*
X251150Y263350D02*
Y263500D01*
X686500Y135000D02*
Y169000D01*
X675000Y123500D02*
X686500Y135000D01*
X672000Y172000D02*
X684500D01*
X687000Y169500*
X568500Y123500D02*
X675000D01*
X543000Y149000D02*
X568500Y123500D01*
X543000Y149000D02*
Y200000D01*
G54D16*
X571000Y804500D02*
Y814500D01*
Y824500*
Y834500*
X561000*
X571000Y814500D02*
X561000D01*
X573500Y354500D02*
Y366000D01*
X559000Y309500D02*
X636500D01*
X558500Y393500D02*
X576500Y411500D01*
Y433071*
X575000Y434571D02*
Y444500D01*
Y434571D02*
X576500Y433071D01*
X672000Y140500D02*
Y162000D01*
X667000Y135500D02*
X672000Y140500D01*
X577000Y135500D02*
X667000D01*
X531000Y318000D02*
X539000D01*
X544000Y323000*
X531000Y265000D02*
Y318000D01*
X686500Y169000D02*
X687000Y169500D01*
X559000Y309000D02*
Y309500D01*
X636500D02*
X658500Y331500D01*
Y389878*
X648343Y400035D02*
X658500Y389878D01*
X639000Y395000D02*
X645500Y388500D01*
X639000Y395000D02*
Y410673D01*
X648343Y420016*
X645500Y351000D02*
Y388500D01*
X637500Y343000D02*
X645500Y351000D01*
X573500Y354500D02*
X574000Y355000D01*
X546000Y393500D02*
X573500Y366000D01*
X575000Y444500D02*
X575500Y444000D01*
X546000Y393500D02*
X558500D01*
X569000Y450500D02*
X575000Y444500D01*
X506500Y461000D02*
X524500Y443000D01*
Y424500D02*
Y443000D01*
Y394500D02*
Y424500D01*
X398472Y268472D02*
X524500Y394500D01*
X397500Y268472D02*
X398472D01*
X571980Y468480D02*
X572000Y468500D01*
X569000Y465500D02*
X571980Y468480D01*
X633886Y459386D02*
X648343D01*
X625500Y451000D02*
X633886Y459386D01*
X587000Y451000D02*
X625500D01*
X580000Y444000D02*
X587000Y451000D01*
X575500Y444000D02*
X580000D01*
X569000Y450500D02*
Y465500D01*
X565500Y147000D02*
X577000Y135500D01*
X565500Y147000D02*
Y230500D01*
X531000Y265000D02*
X565500Y230500D01*
G54D17*
X525500Y738500D02*
X525000Y739000D01*
G54D36*
X549362Y292362D02*
Y312362D01*
X553000Y316000*
X605000*
X628500Y339500*
Y368500*
G54D39*
X506500Y461000D03*
G54D40*
X571000Y804500D03*
G54D41*
X571000Y814500D03*
X561000D03*
X571000Y824500D03*
Y834500D03*
X561000D03*
X648343Y459386D03*
Y420016D03*
Y400035D03*
X672000Y162000D03*
G54D44*
X540500Y745500D03*
X525000Y739000D03*
X505500Y326000D03*
X511500Y328500D03*
X514500Y335000D03*
X519000Y340500D03*
X513000Y343500D03*
X508000Y339000D03*
X506500Y332000D03*
X637500Y343000D03*
X544000Y323000D03*
X574000Y355000D03*
X549362Y292362D03*
X559000Y309000D03*
X628500Y368500D03*
X546000Y393500D03*
X524500Y424500D03*
X571980Y468480D03*
X520890Y347610D03*
G54D45*
X397500Y268472D03*
G54D46*
X251150Y263500D03*
G54D47*
X672000Y172000D03*
M02*